<svg width="33" height="32" viewBox="0 0 33 32" fill="none" xmlns="http://www.w3.org/2000/svg">
<path d="M16.5 2C8.7804 2 2.5 8.2804 2.5 16C2.5 23.7196 8.7804 30 16.5 30C17.3103 30 18.1222 29.9303 18.9133 29.7929C19.1672 29.7487 19.3371 29.5071 19.2932 29.2531C19.2492 28.9994 19.009 28.8295 18.7534 28.8732C18.0151 29.0015 17.2567 29.0667 16.5 29.0667C9.29492 29.0667 3.43333 23.2051 3.43333 16C3.43333 8.79492 9.29492 2.93333 16.5 2.93333C23.7051 2.93333 29.5667 8.79492 29.5667 16C29.5667 16.2577 29.7756 16.4667 30.0333 16.4667C30.291 16.4667 30.5 16.2577 30.5 16C30.5 8.2804 24.2196 2 16.5 2Z" fill="#4C4F54"/>
<path d="M18.7332 26.0233C18.0051 26.1847 17.2541 26.2665 16.5008 26.2665C10.8397 26.2665 6.23411 21.6609 6.23411 15.9998C6.23411 10.3387 10.8397 5.73314 16.5008 5.73314C20.261 5.73314 23.7168 7.78574 25.5197 11.09C25.6434 11.316 25.9264 11.4001 26.1529 11.2762C26.3792 11.1527 26.4626 10.8692 26.3391 10.6429C24.3726 7.0388 20.6028 4.7998 16.5008 4.7998C10.325 4.7998 5.30078 9.82422 5.30078 15.9998C5.30078 22.1754 10.325 27.1998 16.5008 27.1998C17.322 27.1998 18.141 27.1105 18.9351 26.9343C19.1868 26.8787 19.3454 26.6295 19.2896 26.3779C19.2338 26.1263 18.9843 25.9666 18.7332 26.0233Z" fill="#4C4F54"/>
<path d="M19.2791 23.4476C19.2032 23.2011 18.9416 23.0634 18.6958 23.1386C17.9878 23.3565 17.2488 23.4668 16.4996 23.4668C12.3826 23.4668 9.03294 20.1172 9.03294 16.0001C9.03294 11.883 12.3826 8.53343 16.4996 8.53343C16.7573 8.53343 16.9663 8.32448 16.9663 8.06676C16.9663 7.80905 16.7573 7.6001 16.4996 7.6001C11.8678 7.6001 8.09961 11.3683 8.09961 16.0001C8.09961 20.6319 11.8678 24.4001 16.4996 24.4001C17.3418 24.4001 18.173 24.2759 18.9701 24.031C19.2164 23.9551 19.3548 23.6939 19.2791 23.4476Z" fill="#4C4F54"/>
<path d="M23.7178 10.9507C23.5355 10.7684 23.2402 10.7684 23.0579 10.9507L20.4181 13.5905C17.6888 16.3199 17.6888 20.7609 20.4181 23.4901L23.0578 26.1297C23.1008 26.1728 23.1524 26.2069 23.2095 26.2306C23.2666 26.2542 23.3271 26.2666 23.3879 26.2666C23.4487 26.2666 23.5092 26.2542 23.5662 26.2306C23.6233 26.2069 23.675 26.1728 23.718 26.1297L26.3576 23.4901C29.087 20.7609 29.087 16.3199 26.3576 13.5905L23.7178 10.9507ZM25.6977 22.8302L23.8545 24.6734V23.3534L25.3678 21.8401C25.5501 21.6578 25.5501 21.3625 25.3678 21.1802C25.1855 20.9979 24.8902 20.9979 24.7079 21.1802L23.8545 22.0336V20.7135L25.3678 19.2003C25.5501 19.018 25.5501 18.7227 25.3678 18.5404C25.1855 18.3581 24.8902 18.3581 24.7079 18.5404L23.8545 19.3938V18.0735L25.3678 16.5605C25.5501 16.3784 25.5501 16.0829 25.3678 15.9006C25.1855 15.7183 24.8902 15.7183 24.7079 15.9006L23.8545 16.7538V13.9204C23.8545 13.6627 23.6456 13.4538 23.3879 13.4538C23.1302 13.4538 22.9212 13.6627 22.9212 13.9204V16.7538L22.0679 15.9006C21.8856 15.7183 21.5903 15.7183 21.408 15.9006C21.2257 16.0829 21.2257 16.3784 21.408 16.5605L22.9212 18.0735V19.3938L22.0679 18.5404C21.8856 18.3581 21.5903 18.3581 21.408 18.5404C21.2257 18.7227 21.2257 19.018 21.408 19.2003L22.9212 20.7135V22.0336L22.0679 21.1802C21.8856 20.9979 21.5903 20.9979 21.408 21.1802C21.2257 21.3625 21.2257 21.6578 21.408 21.8401L22.9212 23.3534V24.6734L21.078 22.8302C18.7128 20.4647 18.7128 16.6159 21.078 14.2504L23.3879 11.9405L25.6977 14.2504C28.063 16.6159 28.063 20.4647 25.6977 22.8302Z" fill="#4C4F54"/>
</svg>
