<svg width="33" height="32" viewBox="0 0 33 32" fill="none" xmlns="http://www.w3.org/2000/svg">
<path fill-rule="evenodd" clip-rule="evenodd" d="M7.44118 2.00007C6.26942 2.00007 5.31055 2.95775 5.31055 4.12788V27.8722C5.31055 29.0423 6.26942 30 7.44118 30H16.6812C16.7445 29.9997 16.8073 29.987 16.8657 29.9625C16.9242 29.938 16.9773 29.9023 17.0219 29.8573C17.0666 29.8123 17.1019 29.7589 17.1259 29.7003C17.15 29.6416 17.1622 29.5788 17.162 29.5154C17.1615 29.3881 17.1106 29.266 17.0206 29.176C16.9305 29.0859 16.8085 29.0351 16.6812 29.0346H7.44118C6.78606 29.0346 6.27593 28.5221 6.27593 27.8722V4.12788C6.27593 3.47796 6.78606 2.96546 7.44118 2.96546H19.0758V6.98538C19.0758 8.15551 20.0346 9.11224 21.2064 9.11224H25.2357V16.4488C25.236 16.5122 25.2487 16.5749 25.2732 16.6334C25.2977 16.6918 25.3335 16.7449 25.3785 16.7896C25.4234 16.8342 25.4768 16.8695 25.5355 16.8936C25.5941 16.9176 25.6569 16.9298 25.7203 16.9296C25.8478 16.9293 25.9701 16.8786 26.0604 16.7886C26.1506 16.6985 26.2016 16.5763 26.2021 16.4488V8.63144C26.2013 8.62419 26.2003 8.61695 26.1992 8.60975C26.1977 8.58405 26.1943 8.55852 26.1888 8.53338C26.1862 8.51942 26.183 8.50558 26.1793 8.49189C26.1696 8.46016 26.1566 8.42951 26.1406 8.40044C26.1379 8.39473 26.1351 8.38907 26.1322 8.38347C26.1117 8.34912 26.087 8.31746 26.0587 8.28921L19.8987 2.14243C19.8581 2.10307 19.8108 2.07115 19.7592 2.04814C19.7465 2.04255 19.7336 2.03749 19.7205 2.033C19.678 2.01776 19.6336 2.00855 19.5885 2.00566C19.5792 2.00349 19.5697 2.0016 19.5602 2L7.44118 2.00007ZM20.0411 3.64613L21.6146 5.21582L24.5504 8.14686H21.2064C20.5513 8.14686 20.0411 7.6353 20.0411 6.98538V3.64613ZM13.1854 6.59319C10.7131 6.59319 8.69976 8.60406 8.69976 11.0722C8.69976 13.5404 10.7131 15.5513 13.1854 15.5513C15.6577 15.5513 17.6748 13.5404 17.6748 11.0722C17.6748 8.60406 15.6577 6.59319 13.1854 6.59319ZM13.1854 7.55858C15.1373 7.55858 16.7094 9.12708 16.7094 11.0722C16.7094 13.0174 15.1373 14.5859 13.1854 14.5859C12.1545 14.5859 11.2305 14.1483 10.5881 13.4489L13.4277 11.8132C13.5011 11.7711 13.562 11.7104 13.6046 11.6373C13.6471 11.5642 13.6697 11.4811 13.67 11.3965V7.5944H12.7046V11.1147L10.0781 12.6259L10.4891 13.3358C9.97454 12.7251 9.66515 11.9358 9.66515 11.0722C9.66515 9.12708 11.2335 7.55858 13.1854 7.55858ZM9.40495 17.9959C9.34156 17.9956 9.27874 18.0078 9.22008 18.0319C9.16142 18.0559 9.10807 18.0912 9.06308 18.1359C9.01808 18.1805 8.98232 18.2336 8.95783 18.2921C8.93334 18.3506 8.92061 18.4133 8.92037 18.4767C8.92061 18.54 8.93334 18.6028 8.95783 18.6612C8.98232 18.7197 9.01808 18.7728 9.06308 18.8174C9.10807 18.8621 9.16142 18.8974 9.22008 18.9214C9.27874 18.9455 9.34156 18.9577 9.40495 18.9575H22.1077C22.1711 18.9577 22.2339 18.9455 22.2925 18.9214C22.3512 18.8974 22.4045 18.8621 22.4495 18.8174C22.4945 18.7728 22.5303 18.7197 22.5548 18.6612C22.5793 18.6028 22.592 18.54 22.5922 18.4767C22.592 18.4133 22.5793 18.3506 22.5548 18.2921C22.5303 18.2336 22.4945 18.1805 22.4495 18.1359C22.4045 18.0913 22.3512 18.0559 22.2925 18.0319C22.2339 18.0078 22.1711 17.9956 22.1077 17.9959H9.40495ZM26.8073 18.7114C26.68 18.7119 26.558 18.7627 26.4679 18.8528C26.3778 18.9429 26.327 19.0649 26.3265 19.1922V22.4853H23.1485C23.085 22.4854 23.0222 22.498 22.9636 22.5225C22.905 22.5469 22.8519 22.5827 22.8071 22.6277C22.7624 22.6727 22.7269 22.7261 22.7029 22.7848C22.6788 22.8435 22.6665 22.9064 22.6667 22.9698V25.4427H19.4887C19.425 25.4425 19.3619 25.4548 19.303 25.4791C19.2441 25.5034 19.1905 25.539 19.1455 25.5841C19.1005 25.6291 19.0648 25.6826 19.0405 25.7416C19.0162 25.8005 19.0039 25.8636 19.0041 25.9273V29.5154C19.0039 29.5791 19.0162 29.6422 19.0405 29.7011C19.0648 29.76 19.1005 29.8136 19.1455 29.8586C19.1905 29.9037 19.2441 29.9393 19.303 29.9636C19.3619 29.9879 19.425 30.0002 19.4887 30H23.1485H26.8073H30.4699C30.5334 29.9999 30.5962 29.9872 30.6548 29.9628C30.7134 29.9384 30.7666 29.9026 30.8113 29.8576C30.856 29.8126 30.8915 29.7592 30.9156 29.7005C30.9397 29.6418 30.9519 29.5789 30.9517 29.5154V19.1922C30.9512 19.0647 30.9002 18.9425 30.81 18.8525C30.7197 18.7624 30.5975 18.7117 30.4699 18.7114H26.8073ZM27.2919 19.6768H29.9854V29.0346H27.2919V22.9698V19.6768ZM9.47283 21.616C9.40944 21.6158 9.34662 21.628 9.28796 21.6521C9.22931 21.6761 9.17596 21.7114 9.13096 21.7561C9.08596 21.8007 9.0502 21.8538 9.02571 21.9123C9.00123 21.9707 8.9885 22.0335 8.98825 22.0969C8.988 22.1606 9.00036 22.2237 9.02463 22.2826C9.04889 22.3415 9.08457 22.395 9.12962 22.4401C9.17467 22.4851 9.22819 22.5208 9.28709 22.5451C9.346 22.5693 9.40912 22.5817 9.47283 22.5814H15.3094C15.3731 22.5817 15.4363 22.5693 15.4952 22.5451C15.5541 22.5208 15.6076 22.4851 15.6526 22.4401C15.6977 22.395 15.7334 22.3415 15.7576 22.2826C15.7819 22.2237 15.7943 22.1606 15.794 22.0969C15.7938 22.0335 15.781 21.9707 15.7566 21.9123C15.7321 21.8538 15.6963 21.8007 15.6513 21.7561C15.6063 21.7114 15.553 21.6761 15.4943 21.6521C15.4356 21.628 15.3728 21.6158 15.3094 21.616H9.47283ZM23.6331 23.4507H26.3265V29.0346H23.6331V25.9273V23.4507ZM19.9695 26.4081H22.6667V29.0346H19.9695V26.4081Z" fill="#4C4F54"/>
</svg>
