<svg width="80" height="81" viewBox="0 0 80 81" fill="none" xmlns="http://www.w3.org/2000/svg">
<path d="M38.9966 41.8187C38.9966 41.3835 38.746 40.9879 38.3504 40.8033L32.7461 37.9945V45.6561L38.3504 42.8604C38.746 42.6626 38.9966 42.267 38.9966 41.8187Z" stroke="#7BC143" stroke-width="1.37143" stroke-linejoin="round"/>
<path d="M30.1219 37.2955H16.2891V46.3549H30.1219V37.2955Z" stroke="#7BC143" stroke-width="1.37143" stroke-linejoin="round"/>
<path d="M12.2945 46.3549H13.6527V37.2955H12.2945C9.78904 37.2955 7.77148 39.3263 7.77148 41.8318C7.77148 43.045 8.2462 44.1922 9.09015 45.0362C9.9341 45.8802 11.0813 46.3549 12.2945 46.3549Z" stroke="#7BC143" stroke-width="1.37143" stroke-linejoin="round"/>
<path d="M27.7488 24.6231C29.1729 24.6231 30.3333 23.4627 30.3333 22.0385C30.3333 20.6143 29.1729 19.4407 27.7488 19.4407C26.3246 19.4407 25.1642 20.6011 25.1642 22.0385C25.151 23.4627 26.3114 24.6231 27.7488 24.6231Z" stroke="#005CAB" stroke-width="1.37143" stroke-linejoin="round"/>
<path d="M16.5801 11.8187V34.6451H31.059C31.6656 34.6451 32.2326 34.7769 32.7601 35.0407L39.5249 38.4429C40.8171 39.089 41.6215 40.3813 41.6215 41.8187C41.6215 43.2429 40.804 44.5747 39.5249 45.2077L32.7601 48.5967C32.2326 48.8605 31.6656 48.9923 31.059 48.9923H16.5933V69.1682C16.5933 69.9066 17.1867 70.4869 17.9119 70.4869H49.2698C48.2808 69.8539 47.3577 69.1154 46.5006 68.2715C40.0259 61.7704 40.0259 51.2341 46.5006 44.7726C49.639 41.6209 53.7928 39.8934 58.2103 39.8934C58.9092 39.8934 59.6213 39.933 60.3202 40.0253V11.8187C60.3202 11.0934 59.74 10.5 59.0015 10.5H17.8987C17.1735 10.5 16.5801 11.0934 16.5801 11.8187ZM36.571 18.2407H54.3994C55.1247 18.2407 55.7181 18.8341 55.7181 19.5593C55.7181 20.2846 55.1247 20.878 54.3994 20.878H36.571C35.8458 20.878 35.2524 20.2846 35.2524 19.5593C35.2524 18.8341 35.8458 18.2407 36.571 18.2407ZM36.571 23.1725H47.7401C48.4654 23.1725 49.0588 23.7528 49.0588 24.4912C49.0588 25.2165 48.4654 25.8099 47.7401 25.8099H36.571C35.8458 25.8099 35.2524 25.2165 35.2524 24.4912C35.2524 23.7528 35.8458 23.1725 36.571 23.1725ZM27.736 16.7901C30.6239 16.7901 32.9711 19.1374 32.9711 22.0253C32.9711 24.9 30.6239 27.2473 27.736 27.2473C24.8613 27.2473 22.5141 24.9 22.5141 22.0253C22.5141 19.1374 24.8613 16.7901 27.736 16.7901Z" stroke="#005CAB" stroke-width="1.37143" stroke-linejoin="round"/>
<path d="M63.9319 43.7571L60.8066 51.9857C61.2154 52.2098 61.5978 52.4736 61.9539 52.8296C62.3363 53.212 62.6264 53.6604 62.8769 54.1219L71.1054 51.0098C70.4065 49.401 69.4175 47.9241 68.1516 46.645C66.8989 45.4054 65.4879 44.456 63.9319 43.7571Z" stroke="#7BC143" stroke-width="1.37143" stroke-linejoin="round"/>
<path d="M60.0704 58.355C61.0857 57.3528 61.0857 55.7045 60.0704 54.7023C59.0682 53.6869 57.433 53.7001 56.4177 54.7023C55.4155 55.7045 55.4155 57.3528 56.4177 58.355C57.433 59.3572 59.0682 59.344 60.0704 58.355ZM57.5649 55.8495C57.9341 55.4671 58.5539 55.4671 58.9363 55.8495C59.3055 56.2188 59.3055 56.8385 58.9363 57.2078C58.5539 57.5902 57.9341 57.5902 57.5649 57.2078C57.1825 56.8385 57.1825 56.2056 57.5649 55.8495Z" stroke="#7BC143" stroke-width="1.37143" stroke-linejoin="round"/>
<path d="M54.5578 60.2142C54.1622 59.8186 53.8721 59.3702 53.6347 58.9087L45.4062 62.0208C46.092 63.6164 47.0678 65.1065 48.3601 66.412C49.6128 67.6516 51.037 68.601 52.5666 69.2735L55.6918 61.045C55.2962 60.8208 54.9006 60.557 54.5578 60.2142Z" stroke="#7BC143" stroke-width="1.37143" stroke-linejoin="round"/>
<path d="M48.3601 46.645C44.8788 50.1264 43.6392 55.0055 44.6151 59.5022L53.0545 56.311C53.1073 55.0451 53.5952 53.8055 54.5578 52.8429C55.5732 51.8275 56.905 51.3264 58.2369 51.3132L61.4149 42.9527C56.7336 41.845 51.8282 43.1769 48.3601 46.645Z" stroke="#7BC143" stroke-width="1.37143" stroke-linejoin="round"/>
<path d="M61.9425 60.2143C60.9271 61.2297 59.5953 61.744 58.2502 61.744L55.0723 70.1176C56.114 70.3681 57.1821 70.5 58.2502 70.5C60.0436 70.5 61.8238 70.1571 63.5117 69.4846C65.1864 68.7989 66.7688 67.7835 68.1271 66.4121C70.7644 63.7747 72.2281 60.267 72.2281 56.522C72.2281 55.5066 72.0962 54.5044 71.8852 53.5286L63.4458 56.7198C63.4062 57.9857 62.9183 59.2516 61.9425 60.2143Z" stroke="#7BC143" stroke-width="1.37143" stroke-linejoin="round"/>
</svg>
