<svg width="80" height="81" viewBox="0 0 80 81" fill="none" xmlns="http://www.w3.org/2000/svg">
<path d="M39.998 7.90039C45.3954 7.90039 50.7382 9.24846 55.46 11.7949C56.4031 11.71 59.3762 11.5297 62.4395 12.2852C65.5351 13.0487 68.7431 14.7742 70.0205 18.54C71.3062 22.3278 70.5725 25.8654 69.6855 29.0371L69.3018 30.374L69.3008 30.377C68.8962 31.7631 68.522 33.0464 68.3457 34.2197C68.1695 35.3925 68.1925 36.4448 68.5732 37.3701V37.3711C68.6924 37.6674 68.653 38.004 68.4658 38.2617V38.2627C68.2916 38.4981 68.016 38.6387 67.7217 38.6387C67.7034 38.6387 67.6754 38.6394 67.6465 38.6357V38.6348C67.4715 38.62 65.6672 38.4656 63.4814 37.8115C61.2824 37.1534 58.6826 35.9858 56.9717 33.9355C55.5469 32.2312 54.9476 30.1723 55.1904 27.8262C55.3243 26.5201 55.4635 25.2981 55.5918 24.1621L55.6436 23.7139C55.7019 23.2092 56.1612 22.8438 56.6621 22.9053H56.6611C57.1632 22.9634 57.5279 23.4169 57.4697 23.9229L57.418 24.374C57.2896 25.5071 57.1533 26.722 57.0195 28.0186C56.8282 29.8564 57.2889 31.4485 58.3789 32.7588L58.585 32.9951C59.6432 34.1537 61.0978 34.9707 62.5439 35.543C64.0177 36.1262 65.4758 36.4504 66.4805 36.624C66.1737 34.5371 66.8384 32.2509 67.5264 29.8867L67.5322 29.8672L67.5352 29.8584C68.489 26.5813 69.5554 22.9059 68.2764 19.1338C67.5133 16.8826 65.7131 15.5122 63.6738 14.6865C61.6825 13.8803 59.4737 13.5987 57.8125 13.5225C57.8969 14.1082 57.9519 15.1075 57.9736 16.1426C57.997 17.2557 57.984 18.4193 57.9346 19.1689C57.9006 19.6776 57.4576 20.0426 56.96 20.0244H56.957C56.4513 19.9907 56.0679 19.5516 56.1016 19.0459C56.2053 17.2328 56.1862 15.9859 55.9688 15.1143C55.8605 14.6803 55.7036 14.3435 55.4922 14.0771C55.2811 13.8113 55.0112 13.6107 54.6689 13.4551L54.6631 13.4521C50.1935 11.0214 45.1216 9.73926 40.001 9.73926H39.9229C22.997 9.782 9.24038 23.5634 9.24023 40.499C9.24023 41.0076 8.82989 41.4189 8.32129 41.4189C7.81269 41.4189 7.40234 41.0076 7.40234 40.499C7.40249 22.5234 22.0246 7.90061 39.998 7.90039Z" fill="#005CAB" stroke="#005CAB" stroke-width="0.2"/>
<path d="M71.6797 39.582C72.1869 39.5836 72.5957 39.9934 72.5957 40.501C72.5956 58.4766 57.9734 73.0995 39.9971 73.0996C34.5993 73.0996 29.2563 71.751 24.5342 69.2041C24.1693 69.237 23.5017 69.2852 22.6377 69.2852C19.9683 69.2851 15.4232 68.8434 12.4033 66.1406C12.0237 65.8008 11.9933 65.2188 12.3301 64.8418L12.3975 64.7744C12.7425 64.462 13.2761 64.4512 13.6299 64.7676C14.7756 65.7935 16.3292 66.4641 17.9092 66.8887C19.4371 67.2992 20.9824 67.4763 22.1904 67.5293C22.0292 66.4416 22.0139 64.7293 22.0928 62.8154C22.1748 60.8252 22.3563 58.6086 22.5791 56.6348C22.7074 55.5015 22.8448 54.2867 22.9785 52.9873C23.1698 51.1495 22.7091 49.5573 21.6191 48.2471C20.5487 46.9624 18.9966 46.0723 17.4541 45.4619C15.9794 44.8783 14.5204 44.5534 13.5156 44.3799C13.8231 46.4673 13.1589 48.7542 12.4707 51.1191L12.4648 51.1387L12.4629 51.1465C11.509 54.4238 10.4416 58.0998 11.7207 61.8721C11.8831 62.3504 11.6257 62.8727 11.1445 63.0352L11.1455 63.0361C10.6671 63.1986 10.1429 62.9412 9.98047 62.46C8.51109 58.131 9.679 54.1286 10.6992 50.626L10.7002 50.624C11.1049 49.2376 11.4789 47.9538 11.6553 46.7803C11.8315 45.6074 11.8085 44.5552 11.4277 43.6299L11.4268 43.6289C11.3078 43.3327 11.3472 42.9959 11.5342 42.7383C11.7205 42.4817 12.0251 42.3335 12.3516 42.3643H12.3506C12.5088 42.3762 14.3191 42.529 16.5156 43.1855C18.7154 43.8432 21.3175 45.0101 23.0293 47.0615C24.4542 48.7659 25.0535 50.8256 24.8105 53.1719C24.6767 54.4778 24.5375 55.6993 24.4092 56.8379C24.0768 59.9804 23.7707 62.4281 23.8223 64.2148C23.8707 65.8927 24.2336 66.9436 25.1416 67.4502L25.3301 67.5449L25.3379 67.5479L25.7588 67.7725C30.1245 70.0575 35.0386 71.2607 39.999 71.2607C56.9611 71.2607 70.7607 57.4621 70.7607 40.5C70.7607 39.9925 71.1696 39.5837 71.6768 39.582V39.5811L71.6777 39.582L71.6797 39.5811V39.582Z" fill="#005CAB" stroke="#005CAB" stroke-width="0.2"/>
<path d="M15.7031 51.9533C15.8074 51.4531 16.2974 51.142 16.7861 51.2336H16.7871C17.2552 51.3284 17.5677 51.7626 17.5215 52.2258L17.5078 52.3185C16.7772 55.9296 17.5442 58.1901 18.624 59.9533C19.1669 60.8397 19.7874 61.5994 20.3477 62.3498C20.8356 63.0034 21.2771 63.6493 21.5645 64.3557L21.6777 64.6623L21.6787 64.6672V64.6682L21.6797 64.6691C21.68 64.6704 21.68 64.6725 21.6807 64.675C21.682 64.68 21.6849 64.6878 21.6875 64.6974C21.6927 64.7168 21.7005 64.7448 21.71 64.7805C21.7291 64.8524 21.7559 64.9556 21.7871 65.0783C21.8494 65.3236 21.9282 65.6501 21.9961 65.9738C22.0637 66.2964 22.121 66.6209 22.1377 66.8605C22.1459 66.9782 22.1453 67.0866 22.126 67.1652C22.1165 67.2036 22.0993 67.249 22.0635 67.2824C22.0208 67.3223 21.9656 67.3324 21.9131 67.3185C21.8858 67.3113 21.8558 67.2948 21.8311 67.2795C21.803 67.2622 21.7691 67.2385 21.7305 67.2101C21.653 67.1532 21.5523 67.0727 21.4326 66.9699C21.1926 66.7639 20.8734 66.466 20.5068 66.0851C19.7736 65.3233 18.849 64.2261 17.9912 62.8605C16.2759 60.1298 14.8211 56.3154 15.7031 51.9543V51.9533Z" fill="#7BC143" stroke="#7BC143" stroke-width="0.2"/>
<path d="M65.2959 29.8918C65.1916 30.392 64.7016 30.7032 64.2129 30.6116L64.2119 30.6116C63.7129 30.5106 63.3916 30.0239 63.4922 29.5276C64.2219 25.9211 63.2086 22.9049 61.873 20.4709C61.205 19.2534 60.4566 18.1832 59.8057 17.2561C59.2385 16.4484 58.7401 15.7429 58.4395 15.1477L58.3232 14.8997L58.3223 14.8958L58.3213 14.8958L58.3213 14.8938C58.3209 14.8927 58.3201 14.8909 58.3193 14.8889C58.3178 14.8848 58.3152 14.8789 58.3125 14.8713C58.3071 14.8561 58.3 14.8341 58.291 14.8069C58.2729 14.7519 58.2491 14.6744 58.2266 14.5862C58.1823 14.413 58.139 14.1842 58.1602 13.9924C58.1708 13.8961 58.1993 13.798 58.2617 13.7219C58.3273 13.642 58.4221 13.5966 58.542 13.593C58.6576 13.5896 58.7955 13.6247 58.959 13.6985C59.1236 13.7728 59.3211 13.8893 59.5566 14.0569C61.4329 15.3925 67.0571 21.1827 65.2959 29.8909L65.2959 29.8918Z" fill="#7BC143" stroke="#7BC143" stroke-width="0.2"/>
<path d="M43.3994 18.7236C43.6134 18.372 44.0356 18.2023 44.4316 18.3154C44.8271 18.4258 45.1025 18.7877 45.1025 19.2012L45.1006 37.749H51.541C51.8743 37.749 52.181 37.9265 52.3438 38.2178C52.506 38.5086 52.5005 38.8618 52.3291 39.1465H52.3281L37.6055 63.376C37.4367 63.6552 37.1357 63.8174 36.8203 63.8174C36.7396 63.8174 36.6566 63.808 36.5723 63.7832C36.177 63.6728 35.9015 63.3118 35.9014 62.8984V48.2617C35.9016 47.7534 36.312 47.3429 36.8203 47.3428H36.8252C37.3328 47.344 37.7422 47.7549 37.7422 48.2627V59.6152L49.9102 39.5898H44.1836C43.6751 39.5898 43.2638 39.1794 43.2637 38.6709V22.4854L31.0967 42.5117H36.8232C37.3316 42.5119 37.742 42.9224 37.7422 43.4307C37.7422 43.9392 37.3317 44.3504 36.8232 44.3506H29.4629C29.1295 44.3505 28.8228 44.1724 28.6602 43.8809C28.4981 43.5901 28.5044 43.2377 28.6758 42.9531L43.3994 18.7236Z" fill="#7BC143" stroke="#7BC143" stroke-width="0.2"/>
</svg>
