<svg width="80" height="81" viewBox="0 0 80 81" fill="none" xmlns="http://www.w3.org/2000/svg">
<mask id="path-1-inside-1_6124_6269" fill="white">
<path fill-rule="evenodd" clip-rule="evenodd" d="M57.7425 46.544L57.7975 68.366L53.3416 68.3662L53.2893 46.5576C53.2866 45.6047 52.7964 44.7758 51.9647 44.3159C51.1716 43.8808 50.1802 43.2005 49.3953 42.1706C47.5226 39.7142 47.5887 36.0378 49.5192 33.4546L49.5302 37.9214C49.5192 38.2767 49.6845 38.6292 50.0012 38.8412L54.9803 42.1873C55.33 42.4213 55.7982 42.4351 56.1672 42.1845L61.105 38.833C61.4024 38.643 61.5979 38.3125 61.5979 37.9352L61.5869 33.6226C62.4599 34.8563 62.9501 36.3407 62.9529 37.8994C62.9612 41.0168 61.3198 43.0382 59.0561 44.3023C58.2299 44.7622 57.7397 45.5994 57.7425 46.544ZM26.221 68.3632V42.9195H28.7959V68.3632H26.221ZM38.8287 38.1223C36.2673 36.6847 33.4803 35.9329 31.0018 36.0292C30.3821 36.0182 29.8976 36.4948 29.8976 37.0896V40.7854H25.1196V37.9764C25.1196 37.3871 24.6432 36.9106 24.0539 36.9106H22.2555V36.9134C21.9443 36.9134 21.6331 37.0511 21.4238 37.3155L19.609 39.5957H17.662V32.0388H19.6366L21.4541 34.1455C21.6469 34.3659 21.9278 34.5063 22.2418 34.5118L23.9465 34.5394C24.624 34.5807 25.1224 34.0987 25.1224 33.4791V32.0278H30.947C32.5553 32.1765 34.2159 33.0495 35.9674 34.7404C36.901 35.641 37.8538 36.7646 38.8287 38.1223ZM73.0452 66.471V22.9151L73.048 14.529C73.048 12.3093 71.2359 10.5 69.019 10.5H10.9801C8.7605 10.5 6.95117 12.3093 6.95117 14.5262V66.471C6.95117 68.6879 8.7605 70.4972 10.9801 70.4972H29.8609L69.0162 70.5C71.2358 70.5 73.0452 68.6879 73.0452 66.471ZM70.9142 14.5297L70.9147 23.9807V66.4714C70.9147 67.5124 70.0583 68.3688 69.0173 68.3688L59.9213 68.3661L59.8662 46.544C59.8662 46.3705 59.9378 46.2439 60.0893 46.1585C62.9782 44.5447 65.0877 41.8706 65.0767 37.8993C65.0684 34.8039 63.6005 31.9757 61.1468 30.1802C60.4583 29.6763 59.4256 30.1417 59.4559 31.1001L59.4724 37.3735L55.5701 40.0228L51.654 37.39L51.6375 30.9596C51.6375 30.1086 50.6626 29.5633 49.9163 30.1251C47.3992 31.9757 45.9038 34.7572 45.9121 37.938C45.9203 41.9119 48.0436 44.5805 50.9407 46.1802C51.0894 46.2628 51.1665 46.3923 51.1665 46.5575L51.2212 68.366H30.9304V42.9195C31.5638 42.9195 32.032 42.4486 32.032 41.8538V38.1635C35.6286 38.3811 39.2061 40.4272 42.0593 43.2307C42.4779 43.6411 43.1499 43.6356 43.5629 43.217C43.9127 42.8617 43.9622 42.3247 43.7144 41.9199C41.5415 38.0286 39.4678 35.1562 37.4437 33.2039C35.3011 31.1385 33.1944 30.0727 31.0794 29.8965C31.0491 29.8937 31.0216 29.8937 30.9913 29.8937H24.0569C23.4676 29.8937 22.9912 30.3701 22.9912 30.9595V32.3998L22.7516 32.397L20.9257 30.2793C20.7165 30.0369 20.419 29.913 20.1216 29.913V29.9102H16.5993C16.01 29.9102 15.5336 30.3867 15.5336 30.976V40.6642C15.5336 41.2535 16.01 41.7299 16.5993 41.7299H20.1216C20.4824 41.7299 20.8018 41.5509 20.9946 41.2755L22.7681 39.0476H22.9912V41.8566C22.9912 42.4515 23.4594 42.9224 24.0928 42.9224V68.366H10.9811C9.94007 68.366 9.08363 67.5096 9.08363 66.4686L9.0832 14.5297C9.0832 13.4887 9.93964 12.6322 10.9807 12.6322H69.0167C70.0577 12.6322 70.9142 13.4887 70.9142 14.5297Z"/>
</mask>
<path fill-rule="evenodd" clip-rule="evenodd" d="M57.7425 46.544L57.7975 68.366L53.3416 68.3662L53.2893 46.5576C53.2866 45.6047 52.7964 44.7758 51.9647 44.3159C51.1716 43.8808 50.1802 43.2005 49.3953 42.1706C47.5226 39.7142 47.5887 36.0378 49.5192 33.4546L49.5302 37.9214C49.5192 38.2767 49.6845 38.6292 50.0012 38.8412L54.9803 42.1873C55.33 42.4213 55.7982 42.4351 56.1672 42.1845L61.105 38.833C61.4024 38.643 61.5979 38.3125 61.5979 37.9352L61.5869 33.6226C62.4599 34.8563 62.9501 36.3407 62.9529 37.8994C62.9612 41.0168 61.3198 43.0382 59.0561 44.3023C58.2299 44.7622 57.7397 45.5994 57.7425 46.544ZM26.221 68.3632V42.9195H28.7959V68.3632H26.221ZM38.8287 38.1223C36.2673 36.6847 33.4803 35.9329 31.0018 36.0292C30.3821 36.0182 29.8976 36.4948 29.8976 37.0896V40.7854H25.1196V37.9764C25.1196 37.3871 24.6432 36.9106 24.0539 36.9106H22.2555V36.9134C21.9443 36.9134 21.6331 37.0511 21.4238 37.3155L19.609 39.5957H17.662V32.0388H19.6366L21.4541 34.1455C21.6469 34.3659 21.9278 34.5063 22.2418 34.5118L23.9465 34.5394C24.624 34.5807 25.1224 34.0987 25.1224 33.4791V32.0278H30.947C32.5553 32.1765 34.2159 33.0495 35.9674 34.7404C36.901 35.641 37.8538 36.7646 38.8287 38.1223ZM73.0452 66.471V22.9151L73.048 14.529C73.048 12.3093 71.2359 10.5 69.019 10.5H10.9801C8.7605 10.5 6.95117 12.3093 6.95117 14.5262V66.471C6.95117 68.6879 8.7605 70.4972 10.9801 70.4972H29.8609L69.0162 70.5C71.2358 70.5 73.0452 68.6879 73.0452 66.471ZM70.9142 14.5297L70.9147 23.9807V66.4714C70.9147 67.5124 70.0583 68.3688 69.0173 68.3688L59.9213 68.3661L59.8662 46.544C59.8662 46.3705 59.9378 46.2439 60.0893 46.1585C62.9782 44.5447 65.0877 41.8706 65.0767 37.8993C65.0684 34.8039 63.6005 31.9757 61.1468 30.1802C60.4583 29.6763 59.4256 30.1417 59.4559 31.1001L59.4724 37.3735L55.5701 40.0228L51.654 37.39L51.6375 30.9596C51.6375 30.1086 50.6626 29.5633 49.9163 30.1251C47.3992 31.9757 45.9038 34.7572 45.9121 37.938C45.9203 41.9119 48.0436 44.5805 50.9407 46.1802C51.0894 46.2628 51.1665 46.3923 51.1665 46.5575L51.2212 68.366H30.9304V42.9195C31.5638 42.9195 32.032 42.4486 32.032 41.8538V38.1635C35.6286 38.3811 39.2061 40.4272 42.0593 43.2307C42.4779 43.6411 43.1499 43.6356 43.5629 43.217C43.9127 42.8617 43.9622 42.3247 43.7144 41.9199C41.5415 38.0286 39.4678 35.1562 37.4437 33.2039C35.3011 31.1385 33.1944 30.0727 31.0794 29.8965C31.0491 29.8937 31.0216 29.8937 30.9913 29.8937H24.0569C23.4676 29.8937 22.9912 30.3701 22.9912 30.9595V32.3998L22.7516 32.397L20.9257 30.2793C20.7165 30.0369 20.419 29.913 20.1216 29.913V29.9102H16.5993C16.01 29.9102 15.5336 30.3867 15.5336 30.976V40.6642C15.5336 41.2535 16.01 41.7299 16.5993 41.7299H20.1216C20.4824 41.7299 20.8018 41.5509 20.9946 41.2755L22.7681 39.0476H22.9912V41.8566C22.9912 42.4515 23.4594 42.9224 24.0928 42.9224V68.366H10.9811C9.94007 68.366 9.08363 67.5096 9.08363 66.4686L9.0832 14.5297C9.0832 13.4887 9.93964 12.6322 10.9807 12.6322H69.0167C70.0577 12.6322 70.9142 13.4887 70.9142 14.5297Z" fill="#005CAB" stroke="white" stroke-width="0.514286" mask="url(#path-1-inside-1_6124_6269)"/>
<path d="M70.7686 21.7599L70.7695 23.634H9.19531V21.7599H70.7686ZM50.3115 14.1535C52.8574 14.1535 54.1415 17.2454 52.3389 19.048C50.5362 20.8507 47.4443 19.5666 47.4443 17.0207C47.4444 15.4367 48.7275 14.1536 50.3115 14.1535ZM57.0596 14.1535C59.6051 14.1538 60.8885 17.2455 59.0859 19.048C57.2833 20.8504 54.1914 19.5665 54.1914 17.0207C54.1915 15.4366 55.4755 14.1535 57.0596 14.1535ZM63.8066 14.1535C66.3525 14.1535 67.6356 17.2454 65.833 19.048C64.0303 20.8501 60.9385 19.5664 60.9385 17.0207C60.9386 15.4366 62.2226 14.1535 63.8066 14.1535ZM40.3838 16.0842C40.9021 16.0842 41.3212 16.5025 41.3213 17.0207C41.3213 17.539 40.9021 17.9582 40.3838 17.9582L16.6094 17.9611C16.091 17.9611 15.6719 17.5419 15.6719 17.0236C15.6719 16.5053 16.0911 16.0861 16.6094 16.0861L40.3838 16.0842ZM57.7607 16.3205C57.1373 15.6955 56.0656 16.1381 56.0684 17.0236C56.0684 17.9063 57.1381 18.3494 57.7617 17.7258C58.1502 17.337 58.1503 16.7069 57.7607 16.3205ZM51.0137 16.3185C50.3877 15.6958 49.3185 16.1375 49.3184 17.0207C49.3184 17.9038 50.3903 18.3462 51.0137 17.7228H51.0146C51.4002 17.334 51.4003 16.7074 51.0146 16.3185H51.0137ZM64.5088 16.3185C63.8854 15.6953 62.8136 16.1378 62.8135 17.0207C62.8135 17.9038 63.8854 18.3462 64.5088 17.7228H64.5098C64.8952 17.334 64.8954 16.7073 64.5098 16.3185H64.5088Z" fill="#7BC143" stroke="white" stroke-width="0.257143"/>
</svg>
