<svg width="80" height="81" viewBox="0 0 80 81" fill="none" xmlns="http://www.w3.org/2000/svg">
<path fill-rule="evenodd" clip-rule="evenodd" d="M39.8999 22.2014C34.8239 22.2014 30.2282 24.259 26.9017 27.5856C23.5752 30.9121 21.5176 35.5077 21.5176 40.5837C21.5176 45.6597 23.5752 50.2554 26.9017 53.5819C30.2283 56.9085 34.8239 58.9661 39.8999 58.9661C44.9759 58.9661 49.5715 56.9085 52.898 53.5819C56.2247 50.2554 58.2822 45.6597 58.2822 40.5837C58.2822 35.5077 56.2247 30.9121 52.898 27.5856C49.5715 24.259 44.9759 22.2014 39.8999 22.2014ZM51.3554 29.1282C48.4238 26.1966 44.3736 24.3833 39.8999 24.3833C35.4261 24.3833 31.3759 26.1966 28.4443 29.1282C25.5127 32.0597 23.6994 36.11 23.6994 40.5837C23.6994 45.0575 25.5127 49.1077 28.4443 52.0393C31.3759 54.9709 35.4261 56.7842 39.8999 56.7842C44.3736 56.7842 48.4238 54.9709 51.3554 52.0393C54.287 49.1077 56.1003 45.0575 56.1003 40.5837C56.1003 36.11 54.287 32.0597 51.3554 29.1282Z" fill="#7BC143"/>
<path fill-rule="evenodd" clip-rule="evenodd" d="M49.0565 10.6337C54.0776 12.1356 58.57 14.8685 62.1842 18.4827C65.7986 22.0971 68.5315 26.5897 70.0336 31.6109C70.2054 32.1875 70.8122 32.5157 71.3888 32.3439C71.9654 32.1721 72.2935 31.5653 72.1218 30.9887C70.5129 25.6109 67.5902 20.8034 63.7268 16.9401C59.8637 13.0769 55.0565 10.1542 49.6786 8.54563C49.1021 8.37386 48.4953 8.70201 48.3235 9.27859C48.1517 9.85517 48.4799 10.462 49.0565 10.6337ZM70.0336 49.5565C68.5318 54.5776 65.7989 59.07 62.1847 62.6842C58.5703 66.2986 54.0777 69.0315 49.0565 70.5336C48.4799 70.7054 48.1517 71.3122 48.3235 71.8888C48.4953 72.4654 49.1021 72.7935 49.6786 72.6217C55.0565 71.0129 59.864 68.0902 63.7273 64.2268C67.5905 60.3637 70.5132 55.5565 72.1218 50.1786C72.2935 49.6021 71.9654 48.9953 71.3888 48.8235C70.8122 48.6517 70.2054 48.9799 70.0336 49.5565ZM31.1109 70.5336C26.0897 69.0315 21.5971 66.2986 17.9827 62.6842C14.3685 59.07 11.6356 54.5776 10.1337 49.5565C9.96196 48.9799 9.35517 48.6517 8.77859 48.8235C8.20202 48.9953 7.87386 49.6021 8.04563 50.1786C9.65422 55.5565 12.5769 60.3637 16.4401 64.2268C20.3034 68.0902 25.1109 71.0129 30.4887 72.6217C31.0653 72.7935 31.6721 72.4654 31.8439 71.8888C32.0157 71.3122 31.6875 70.7054 31.1109 70.5336ZM10.1337 31.6109C11.6356 26.5897 14.3685 22.0974 17.9827 18.4832C21.5971 14.8688 26.0897 12.1358 31.1109 10.6337C31.6875 10.462 32.0157 9.85517 31.8439 9.27859C31.6721 8.70201 31.0653 8.37386 30.4887 8.54563C25.1109 10.1544 20.3034 13.0772 16.4401 16.9405C12.5769 20.8037 9.65422 25.6109 8.04563 30.9887C7.87386 31.5653 8.20202 32.1721 8.77859 32.3439C9.35517 32.5157 9.96196 32.1875 10.1337 31.6109Z" fill="#7BC143"/>
<path fill-rule="evenodd" clip-rule="evenodd" d="M29.5971 40.6819L35.1802 46.9854C35.5773 47.4342 36.2627 47.4767 36.7123 47.0809L36.7144 47.0834L50.2219 35.1968C50.6737 34.799 50.7176 34.1102 50.3199 33.6584C49.9221 33.2065 49.2334 33.1627 48.7815 33.5604L36.0874 44.7312L31.225 39.2415C30.8273 38.792 30.1404 38.7501 29.6908 39.1478C29.2413 39.5455 29.1994 40.2324 29.5971 40.6819Z" fill="#7BC143"/>
<path fill-rule="evenodd" clip-rule="evenodd" d="M44.3276 76.5H35.6724C35.0699 76.5 34.5814 76.0115 34.5814 75.4091V66.1262C29.5212 65.061 25.0009 62.5385 21.4812 59.0188C17.9615 55.4991 15.4391 50.9787 14.3738 45.9186H5.09094C4.48846 45.9186 4 45.4301 4 44.8276V36.1724C4 35.5699 4.48846 35.0814 5.09094 35.0814H14.3738C15.4391 30.0213 17.9615 25.5009 21.4812 21.9812C25.0009 18.4615 29.5212 15.939 34.5814 14.8738V5.59094C34.5814 4.98846 35.0699 4.5 35.6724 4.5H44.3276C44.9301 4.5 45.4186 4.98846 45.4186 5.59094V14.8738C50.4787 15.9391 54.9991 18.4615 58.5188 21.9812C62.0385 25.5009 64.561 30.0212 65.6262 35.0814H74.9091C75.5115 35.0814 76 35.5699 76 36.1724V44.8276C76 45.4301 75.5115 45.9186 74.9091 45.9186H65.6262C64.5609 50.9787 62.0385 55.4991 58.5188 59.0188C54.9991 62.5385 50.4788 65.061 45.4186 66.1262V75.4091C45.4186 76.0115 44.9301 76.5 44.3276 76.5ZM36.7633 74.3181H43.2367V65.227H43.2381C43.2376 64.7053 43.6129 64.2438 44.1444 64.1531C49.1108 63.2899 53.5555 60.8968 56.9761 57.4762C60.3853 54.067 62.7736 49.6407 63.6441 44.6946C63.7098 44.1549 64.1696 43.7367 64.727 43.7367H73.8181V37.2633H64.727V37.2619C64.2053 37.2625 63.7438 36.8871 63.6531 36.3556C62.7899 31.3892 60.3968 26.9445 56.9762 23.5238C53.567 20.1147 49.1407 17.7264 44.1946 16.8559C43.6549 16.7902 43.2367 16.3304 43.2367 15.773V6.68187H36.7633V15.773H36.7619C36.7625 16.2947 36.3871 16.7562 35.8556 16.8469C30.8892 17.7101 26.4445 20.1032 23.0238 23.5238C19.6147 26.933 17.2264 31.3593 16.3559 36.3054C16.2902 36.8451 15.8304 37.2633 15.273 37.2633H6.18187V43.7367H15.273V43.7381C15.7947 43.7376 16.2562 44.1129 16.3469 44.6444C17.2101 49.6108 19.6032 54.0555 23.0238 57.4762C26.4329 60.8853 30.8593 63.2736 35.8054 64.1441C36.3451 64.2098 36.7633 64.6696 36.7633 65.227V74.3181Z" fill="#005CAB"/>
</svg>
