<svg width="80" height="81" viewBox="0 0 80 81" fill="none" xmlns="http://www.w3.org/2000/svg">
<path d="M39.0732 5.03418C39.558 4.56704 40.3118 4.53755 40.8301 4.94629L40.9307 5.03418C48.9144 12.7108 57.9409 16.5175 68.5195 16.6592C69.2512 16.6699 69.8408 17.2676 69.8408 17.999V41.999C69.8408 56.9415 60.2684 70.0028 46.0156 74.5059L40.4023 76.2783C40.2737 76.3185 40.1372 76.3398 40.001 76.3398C39.8986 76.3398 39.7956 76.3277 39.6963 76.3047L39.5986 76.2783L33.9854 74.5059C19.7327 70.0027 10.1602 56.9414 10.1602 41.999V17.999C10.1602 17.2676 10.7498 16.6699 11.4814 16.6592C22.0601 16.5175 31.0865 12.7107 39.0732 5.03418ZM67.1611 19.3008L67.0088 19.2939C56.9286 18.8307 47.8942 15.0187 40.1084 7.93262L40.001 7.83398L39.8926 7.93262C32.1069 15.0185 23.0731 18.8336 12.9932 19.2939L12.8398 19.3008V41.999C12.8398 55.764 21.6634 67.802 34.7891 71.9512L39.9521 73.5801L40.001 73.5957L40.0488 73.5801L45.2119 71.9512C58.3377 67.802 67.1611 55.7641 67.1611 41.999V19.3008Z" fill="#005CAB" stroke="white" stroke-width="0.32"/>
<path d="M20.2988 53.8782C20.9419 53.5191 21.7623 53.7504 22.1211 54.3958C23.9209 57.6269 26.4874 60.4706 29.5518 62.6233C30.1543 63.0491 30.2995 63.8822 29.876 64.4915C29.6163 64.8609 29.2015 65.0598 28.7803 65.0598C28.5118 65.0598 28.244 64.9822 28.0078 64.8186H28.0088C24.6201 62.4322 21.7744 59.2792 19.7822 55.7004C19.4203 55.0517 19.6531 54.2372 20.2988 53.8782Z" fill="#7BC143" stroke="white" stroke-width="0.32"/>
<path d="M40 34.6594C43.2207 34.6594 45.8398 37.2786 45.8398 40.4993C45.8398 43.72 43.2207 46.3391 40 46.3391C36.7794 46.339 34.1602 43.7199 34.1602 40.4993C34.1602 37.2787 36.7794 34.6595 40 34.6594ZM40 37.3391C38.2557 37.3392 36.8399 38.755 36.8398 40.4993C36.8398 42.2436 38.2557 43.6594 40 43.6594C41.7444 43.6594 43.1602 42.2437 43.1602 40.4993C43.1601 38.7549 41.7444 37.3391 40 37.3391Z" fill="#7BC143" stroke="white" stroke-width="0.32"/>
<path d="M51.6885 41.9792C51.0136 47.3128 46.817 51.5124 41.4805 52.1873L41.3408 52.2058V55.5232L41.5166 55.5056C48.6513 54.7839 54.2852 49.1501 55.0068 42.0154L55.0244 41.8396H51.707L51.6885 41.9792ZM40 31.3386C34.9499 31.3389 30.8401 35.4487 30.8398 40.4988C30.8398 45.5491 34.9497 49.6587 40 49.6589C45.0505 49.6589 49.1602 45.5492 49.1602 40.4988C49.1599 35.4485 45.0503 31.3386 40 31.3386ZM38.4844 25.4929C31.3496 26.2146 25.7158 31.8484 24.9941 38.9832L24.9766 39.1589H28.2939L28.3115 39.0193C28.9864 33.6826 33.1838 29.4852 38.5205 28.8103L38.6602 28.7927V25.4753L38.4844 25.4929ZM41.3408 28.7927L41.4805 28.8103C46.8141 29.4852 51.0136 33.6827 51.6885 39.0193L51.707 39.1589H55.0244L55.0068 38.9832C54.2852 31.8484 48.6514 26.2146 41.5166 25.4929L41.3408 25.4753V28.7927ZM38.6602 58.2771L38.5137 58.2654C29.8614 57.5458 22.9539 50.6383 22.2344 41.9861L22.2227 41.8396H20.5C19.7604 41.8396 19.1602 41.2384 19.1602 40.4988C19.1604 39.7593 19.7605 39.159 20.5 39.1589H22.2227L22.2344 39.0125C22.9539 30.3602 29.8614 23.4527 38.5137 22.7332L38.6602 22.7214V20.9988C38.6602 20.2593 39.2606 19.6592 40 19.6589C40.7396 19.6589 41.3408 20.2591 41.3408 20.9988V22.7214L41.4873 22.7332C50.1396 23.4527 57.0471 30.3602 57.7666 39.0125L57.7783 39.1589H59.501C60.2404 39.159 60.8406 39.7594 60.8408 40.4988C60.8408 41.2384 60.2406 41.8395 59.501 41.8396H57.7783L57.7666 41.9861C57.047 50.6383 50.1395 57.5458 41.4873 58.2654L41.3408 58.2771V59.9998C41.3408 60.7393 40.7396 61.3396 40 61.3396C39.2606 61.3394 38.6602 60.7392 38.6602 59.9998V58.2771ZM38.6602 52.2058L38.5205 52.1873C33.1868 51.5124 28.9864 47.3159 28.3115 41.9792L28.2939 41.8396H24.9766L24.9941 42.0154C25.7158 49.1501 31.3496 54.784 38.4844 55.5056L38.6602 55.5232V52.2058Z" fill="#7BC143" stroke="white" stroke-width="0.32"/>
<path d="M33.5781 65.0796C34.3182 65.0796 34.918 65.6794 34.918 66.4194C34.918 67.1595 34.3182 67.7593 33.5781 67.7593C32.8381 67.7593 32.2383 67.1595 32.2383 66.4194C32.2383 65.6794 32.8381 65.0796 33.5781 65.0796Z" fill="#7BC143" stroke="white" stroke-width="0.32"/>
</svg>
