<svg width="80" height="81" viewBox="0 0 80 81" fill="none" xmlns="http://www.w3.org/2000/svg">
<path d="M45.2996 13.8375L55.0871 16.7625C55.6496 16.9875 56.2121 17.325 56.5496 17.8875L67.0121 37.35C68.2496 39.7125 71.3996 39.9375 73.0871 37.9125C74.0996 36.7875 74.2121 35.1 73.5371 33.75L62.0621 12.6C61.4996 11.475 60.4871 10.6875 59.3621 10.35L53.8496 8.6625C53.2871 8.4375 52.6121 8.775 52.4996 9.45C52.2746 10.0125 52.6121 10.6875 53.2871 10.8L58.7996 12.4875C59.3621 12.7125 59.9246 13.05 60.2621 13.6125L71.5121 34.875C71.8496 35.4375 71.7371 36 71.3996 36.45C70.7246 37.2375 69.4871 37.125 69.0371 36.225L58.4621 16.875C57.8996 15.75 56.8871 14.9625 55.7621 14.625L47.2121 12.0375C47.6621 11.3625 47.8871 10.4625 47.8871 9.45C47.8871 6.6375 45.6371 4.5 42.9371 4.5C40.2371 4.5 37.9871 6.75 37.9871 9.45C37.9871 11.8125 39.6746 13.8375 41.8121 14.2875V18.7875H34.9496C34.2746 18.7875 33.8246 19.2375 33.8246 19.9125V30.6C33.8246 31.275 34.2746 31.725 34.9496 31.725C35.6246 31.725 36.0746 31.275 36.0746 30.6V21.0375H49.9121V34.0875C47.7746 32.7375 45.4121 32.0625 43.0496 32.0625C35.9621 32.0625 30.4496 37.9125 30.4496 44.775C30.4496 45.5625 30.5621 46.575 30.7871 47.475H21.4496C18.8621 47.475 16.8371 49.5 16.8371 52.0875V54.45C16.8371 55.125 17.2871 55.575 17.9621 55.575H19.8746V57.9375H8.62461V55.575H10.4246C11.0996 55.575 11.5496 55.125 11.5496 54.45V44.4375C11.5496 43.0875 12.5621 42.075 13.9121 42.075H26.7371C27.4121 42.075 27.8621 41.625 27.8621 40.95C27.8621 40.275 27.4121 39.825 26.7371 39.825H13.5746C10.9871 39.825 8.96211 41.85 8.96211 44.4375V53.325H7.16211C6.48711 53.325 6.03711 53.775 6.03711 54.45V59.0625C6.03711 59.7375 6.48711 60.1875 7.16211 60.1875H20.6621C21.3371 60.1875 21.7871 59.7375 21.7871 59.0625V54.45C21.7871 53.775 21.3371 53.325 20.6621 53.325H18.7496V52.0875C18.7496 50.7375 19.7621 49.725 21.1121 49.725H31.1246C31.6871 51.075 32.5871 52.425 33.5996 53.55V68.5125C31.1246 68.625 29.2121 70.65 29.2121 73.125V75.375C29.2121 76.05 29.6621 76.5 30.3371 76.5H55.3121C55.9871 76.5 56.4371 76.05 56.4371 75.375V72.9C56.4371 70.65 54.7496 68.7375 52.6121 68.4C54.8621 63.7875 58.7996 62.8875 58.9121 62.775C59.4746 62.6625 59.9246 61.9875 59.6996 61.425C59.5871 60.8625 58.9121 60.4125 58.3496 60.525C58.2371 60.525 57.4496 60.75 56.3246 61.3125C55.7621 59.0625 58.3496 56.3625 62.1746 57.2625C64.8746 57.825 67.1246 56.925 68.8121 55.8C68.3621 58.6125 67.2371 62.325 64.8746 64.125C63.5246 65.1375 61.9496 65.3625 60.0371 64.9125C59.4746 64.8 58.7996 65.1375 58.6871 65.7C58.5746 66.2625 58.9121 66.9375 59.4746 67.05C61.8371 67.725 64.1996 67.3875 66.2246 65.925C71.1746 62.325 71.5121 52.875 71.5121 52.5375C71.5121 51.975 71.1746 51.525 70.7246 51.4125C70.1621 51.3 69.7121 51.525 69.4871 51.975C69.4871 51.975 67.1246 56.025 62.8496 55.125C57.1121 53.8875 52.8371 58.5 54.5246 62.6625C53.7371 63.3375 52.8371 64.125 52.0496 65.1375V58.8375C52.0496 58.1625 51.5996 57.7125 50.9246 57.7125C50.2496 57.7125 49.7996 58.1625 49.7996 58.8375V68.4H35.9621V55.35C37.8746 56.5875 40.3496 57.375 42.8246 57.375C49.7996 57.375 55.5371 51.75 55.5371 44.775C55.5371 41.5125 54.2996 38.475 52.0496 36.1125V19.9125C52.0496 19.2375 51.5996 18.7875 50.9246 18.7875H44.0621V14.2875C44.5121 14.2875 44.8496 14.0625 45.2996 13.8375ZM54.1871 72.9V74.25H31.5746V72.9C31.5746 71.55 32.5871 70.5375 33.9371 70.5375C33.3746 70.5375 41.8121 70.5375 51.9371 70.5375C53.1746 70.5375 54.1871 71.6625 54.1871 72.9ZM42.9371 55.125C37.1996 55.125 32.5871 50.4 32.5871 44.775C32.5871 39.15 37.0871 34.3125 42.9371 34.3125C48.5621 34.3125 53.3996 38.925 53.3996 44.775C53.2871 50.5125 48.5621 55.125 42.9371 55.125ZM40.1246 9.45C40.1246 7.9875 41.3621 6.75 42.8246 6.75C44.3996 6.75 45.6371 7.875 45.6371 9.45C45.6371 11.025 44.3996 12.15 42.9371 12.15C41.3621 12.2625 40.1246 11.025 40.1246 9.45Z" fill="#005CAB"/>
<path d="M10.4242 64.2374C9.74922 64.9124 6.26172 68.7374 6.26172 71.2124C6.26172 74.0249 8.51172 76.2749 11.3242 76.2749C14.1367 76.2749 16.2742 74.0249 16.2742 71.2124C16.2742 68.7374 12.7867 65.0249 12.1117 64.2374C11.8867 64.0124 11.6617 63.8999 11.3242 63.8999C10.8742 63.8999 10.6492 64.0124 10.4242 64.2374ZM13.9117 71.0999C13.9117 72.6749 12.6742 73.9124 11.2117 73.9124C9.63672 73.9124 8.39922 72.6749 8.39922 71.0999C8.39922 70.1999 9.86172 68.1749 11.2117 66.5999C12.5617 68.1749 13.9117 70.1999 13.9117 71.0999Z" fill="#7BC143"/>
<path d="M45.9734 43.9876L42.0359 43.0876L44.7359 39.9376C45.1859 39.4876 45.0734 38.8126 44.6234 38.3626C44.1734 37.9126 43.4984 38.0251 43.0484 38.4751L39.1109 42.9751C38.8859 43.3126 38.7734 43.6501 38.8859 44.1001C38.9984 44.4376 39.3359 44.7751 39.6734 44.8876L43.6109 45.7876L40.4609 49.5001C40.0109 49.9501 40.1234 50.7376 40.5734 51.0751C40.7984 51.3001 41.0234 51.3001 41.2484 51.3001C41.5859 51.3001 41.9234 51.1876 42.1484 50.8501L46.5359 45.5626C46.7609 45.2251 46.8734 44.8876 46.7609 44.4376C46.6484 44.3251 46.4234 43.9876 45.9734 43.9876Z" fill="#7BC143"/>
<path d="M52.6121 68.4C54.8621 63.7875 58.7996 62.8875 58.9121 62.775C59.4746 62.6625 59.9246 61.9875 59.6996 61.425C59.5871 60.8625 58.9121 60.4125 58.3496 60.525C58.2371 60.525 57.4496 60.75 56.3246 61.3125C55.7621 59.0625 58.3496 56.3625 62.1746 57.2625C64.8746 57.825 67.1246 56.925 68.8121 55.8C68.3621 58.6125 67.2371 62.325 64.8746 64.125C63.5246 65.1375 61.9496 65.3625 60.0371 64.9125C59.4746 64.8 58.7996 65.1375 58.6871 65.7C58.5746 66.2625 58.9121 66.9375 59.4746 67.05C61.8371 67.725 64.1996 67.3875 66.2246 65.925C71.1746 62.325 71.5121 52.875 71.5121 52.5375C71.5121 51.975 71.1746 51.525 70.7246 51.4125C70.1621 51.3 69.7121 51.525 69.4871 51.975C69.4871 51.975 67.1246 56.025 62.8496 55.125C57.1121 53.8875 52.8371 58.5 54.5246 62.6625C53.7371 63.3375 52.8371 64.125 52.0496 65.1375L52.6121 68.4Z" fill="#7BC143"/>
<path d="M10.4242 64.2374C9.74922 64.9124 6.26172 68.7374 6.26172 71.2124C6.26172 74.0249 8.51172 76.2749 11.3242 76.2749C14.1367 76.2749 16.2742 74.0249 16.2742 71.2124C16.2742 68.7374 12.7867 65.0249 12.1117 64.2374C11.8867 64.0124 11.6617 63.8999 11.3242 63.8999C10.8742 63.8999 10.6492 64.0124 10.4242 64.2374ZM13.9117 71.0999C13.9117 72.6749 12.6742 73.9124 11.2117 73.9124C9.63672 73.9124 8.39922 72.6749 8.39922 71.0999C8.39922 70.1999 9.86172 68.1749 11.2117 66.5999C12.5617 68.1749 13.9117 70.1999 13.9117 71.0999Z" fill="#7BC143"/>
<path d="M45.9734 43.9876L42.0359 43.0876L44.7359 39.9376C45.1859 39.4876 45.0734 38.8126 44.6234 38.3626C44.1734 37.9126 43.4984 38.0251 43.0484 38.4751L39.1109 42.9751C38.8859 43.3126 38.7734 43.6501 38.8859 44.1001C38.9984 44.4376 39.3359 44.7751 39.6734 44.8876L43.6109 45.7876L40.4609 49.5001C40.0109 49.9501 40.1234 50.7376 40.5734 51.0751C40.7984 51.3001 41.0234 51.3001 41.2484 51.3001C41.5859 51.3001 41.9234 51.1876 42.1484 50.8501L46.5359 45.5626C46.7609 45.2251 46.8734 44.8876 46.7609 44.4376C46.6484 44.3251 46.4234 43.9876 45.9734 43.9876Z" fill="#7BC143"/>
</svg>
