<svg width="80" height="81" viewBox="0 0 80 81" fill="none" xmlns="http://www.w3.org/2000/svg">
<path d="M43.3447 31.6985C49.6486 31.6985 54.7782 36.8272 54.7783 43.1311C54.7783 49.4365 49.6494 54.5657 43.3447 54.5657C37.0394 54.5656 31.9092 49.4364 31.9092 43.1311C31.9093 36.8274 37.0394 31.6986 43.3447 31.6985ZM43.3447 34.4602C38.5603 34.4603 34.671 38.3503 34.6709 43.1311C34.6709 47.9142 38.5602 51.8038 43.3447 51.804C48.1264 51.804 52.0166 47.9135 52.0166 43.1311C52.0165 38.3495 48.1263 34.4602 43.3447 34.4602Z" fill="#7BC143" stroke="white" stroke-width="0.4"/>
<path d="M43.3418 38.8835C45.6835 38.8835 47.5897 40.7907 47.5898 43.1326C47.5898 45.4752 45.6844 47.3806 43.3418 47.3806C40.9985 47.3805 39.0928 45.475 39.0928 43.1326C39.0929 40.7908 40.998 38.8837 43.3418 38.8835ZM43.3418 41.6453C42.5211 41.6454 41.8546 42.3116 41.8545 43.1326C41.8545 43.9522 42.521 44.6188 43.3418 44.6189C44.1614 44.6189 44.8281 43.9522 44.8281 43.1326C44.828 42.3124 44.1614 41.6453 43.3418 41.6453Z" fill="#7BC143" stroke="white" stroke-width="0.4"/>
<path d="M33.4316 10.7617C33.7798 10.6534 34.159 10.6894 34.4824 10.8613C34.8059 11.0333 35.0478 11.3268 35.1553 11.6777H35.1562L36.665 16.6084L36.7207 16.7891L36.9043 16.7441C39.0058 16.2333 41.1645 15.9629 43.3447 15.9629C58.325 15.9631 70.5117 28.1515 70.5117 43.1318C70.5115 58.1119 58.3248 70.2996 43.3447 70.2998C35.5139 70.2998 28.1978 66.9957 23.0361 61.1826L22.9102 61.041L22.7627 61.1582L18.7412 64.3369C18.4873 64.537 18.186 64.6338 17.8848 64.6338C17.4772 64.6337 17.0748 64.4555 16.8027 64.1113V64.1104C12.0184 58.0717 9.48936 50.8188 9.48926 43.1318C9.48926 28.4004 19.3355 15.0881 33.4307 10.7617H33.4316ZM43.3447 18.7246C41.4466 18.7246 39.5666 18.9491 37.7363 19.3799L37.5283 19.4287L37.5908 19.6338L39.4824 25.8125C39.7052 26.5395 39.2964 27.3123 38.5674 27.5361C31.7727 29.6182 27.0265 36.0316 27.0264 43.1318C27.0264 46.8247 28.2489 50.3185 30.5576 53.2354C30.7846 53.5224 30.8896 53.8885 30.8477 54.251C30.8048 54.6154 30.6181 54.9488 30.3311 55.1758L25.25 59.1914L25.083 59.3242L25.2256 59.4824C29.8563 64.6201 36.373 67.5381 43.3447 67.5381C56.8018 67.5379 67.7497 56.5904 67.75 43.1318C67.75 29.6746 56.802 18.7248 43.3447 18.7246ZM32.7314 13.9082C20.5951 18.3387 12.2502 30.1334 12.251 43.1318C12.2511 49.6579 14.2369 55.8459 18.0117 61.127L18.1338 61.2979L18.2979 61.167L22.2256 58.0615L22.2246 58.0605C22.2338 58.0534 22.2422 58.0477 22.248 58.042C22.2491 58.0409 22.25 58.0391 22.251 58.0381C22.2527 58.037 22.2549 58.0364 22.2568 58.0352C22.263 58.0312 22.2707 58.0255 22.2793 58.0186L22.2803 58.0195L27.4268 53.9512L27.5723 53.8359L27.4688 53.6826C25.368 50.5469 24.2657 46.9311 24.2656 43.1318C24.2656 35.3563 29.1362 28.2808 36.2822 25.415L36.4531 25.3467L36.3984 25.1709L34.6367 19.4121L34.626 19.376L34.6025 19.3467L34.5225 19.2373C34.448 19.1247 34.3892 19.0024 34.3516 18.8701C34.3063 18.7103 34.2947 18.5474 34.3076 18.3867L34.3105 18.3486L34.2988 18.3115L32.9912 14.0381L32.9297 13.8359L32.7314 13.9082Z" fill="#005CAB" stroke="white" stroke-width="0.4"/>
<path d="M18.1025 48.887C18.7934 48.6919 19.5066 49.054 19.7656 49.7034L19.8115 49.8362L19.8428 49.9475L19.8438 49.9485C20.0571 50.68 19.6359 51.4466 18.9033 51.6604H18.9023C18.7745 51.6979 18.6448 51.7144 18.5166 51.7151C17.9182 51.7147 17.3674 51.3236 17.1914 50.7219H17.1924L17.1562 50.5959L17.124 50.4583C16.9999 49.7682 17.4167 49.0846 18.1035 48.8879L18.1025 48.887Z" fill="#7BC143" stroke="white" stroke-width="0.4"/>
<path d="M26.1387 22.0634C26.7346 21.5893 27.6028 21.687 28.0791 22.2821V22.2811C28.5548 22.8763 28.4586 23.7462 27.8633 24.2216L27.8604 24.2235L27.7949 24.2772L27.793 24.2792C27.5342 24.4977 27.2186 24.6034 26.9053 24.6034C26.5119 24.6034 26.1214 24.4364 25.8477 24.1122H25.8486C25.3582 23.5277 25.432 22.6558 26.0146 22.1649L26.1387 22.0634Z" fill="#7BC143" stroke="white" stroke-width="0.4"/>
<path d="M19.4336 30.126C19.8069 29.4619 20.648 29.2249 21.3135 29.5967C21.9787 29.9686 22.2161 30.8101 21.8428 31.4756L21.8418 31.4766L21.8008 31.5527H21.7998L21.7988 31.5557C21.5517 32.0231 21.0726 32.2909 20.5781 32.291C20.3602 32.291 20.139 32.2387 19.9326 32.1299C19.2589 31.7729 19.0029 30.9383 19.3584 30.2646L19.4336 30.126Z" fill="#7BC143" stroke="white" stroke-width="0.4"/>
<path d="M17.7969 38.9221C18.5549 39.0007 19.1067 39.6799 19.0283 40.4377L19.0146 40.5637C18.9398 41.2723 18.3415 41.7991 17.6436 41.7991C17.5956 41.7991 17.5467 41.7968 17.4961 41.7922H17.4971C16.7391 41.7123 16.189 41.0339 16.2686 40.2747L16.2812 40.1545V40.1536C16.36 39.395 17.0286 38.8437 17.7969 38.9221Z" fill="#7BC143" stroke="white" stroke-width="0.4"/>
</svg>
