<svg width="80" height="81" viewBox="0 0 80 81" fill="none" xmlns="http://www.w3.org/2000/svg">
<path fill-rule="evenodd" clip-rule="evenodd" d="M65.9459 12.1216H14.0541C12.7106 12.1216 11.6216 13.2106 11.6216 14.5541V24.2838C11.6216 25.6272 12.7106 26.7162 14.0541 26.7162H65.9459C67.2894 26.7162 68.3784 25.6272 68.3784 24.2838V14.5541C68.3784 13.2106 67.2894 12.1216 65.9459 12.1216ZM14.0541 10.5C11.8151 10.5 10 12.3151 10 14.5541V24.2838C10 26.5228 11.8151 28.3378 14.0541 28.3378H65.9459C68.1849 28.3378 70 26.5228 70 24.2838V14.5541C70 12.3151 68.1849 10.5 65.9459 10.5H14.0541Z" fill="#005CAB"/>
<path d="M18.1094 19.419C18.1094 18.9712 18.4724 18.6082 18.9202 18.6082H40.8121C41.2599 18.6082 41.6229 18.9712 41.6229 19.419C41.6229 19.8668 41.2599 20.2298 40.8121 20.2298H18.9202C18.4724 20.2298 18.1094 19.8668 18.1094 19.419Z" fill="#7BC143"/>
<path d="M52.9732 19.419C52.9732 19.8668 52.6102 20.2298 52.1624 20.2298C51.7146 20.2298 51.3516 19.8668 51.3516 19.419C51.3516 18.9712 51.7146 18.6082 52.1624 18.6082C52.6102 18.6082 52.9732 18.9712 52.9732 19.419Z" fill="#7BC143"/>
<path d="M61.0787 19.419C61.0787 19.8668 60.7157 20.2298 60.2678 20.2298C59.82 20.2298 59.457 19.8668 59.457 19.419C59.457 18.9712 59.82 18.6082 60.2678 18.6082C60.7157 18.6082 61.0787 18.9712 61.0787 19.419Z" fill="#7BC143"/>
<path fill-rule="evenodd" clip-rule="evenodd" d="M65.9459 28.3377H14.0541C12.7106 28.3377 11.6216 29.4267 11.6216 30.7701V40.4998C11.6216 41.8433 12.7106 42.9323 14.0541 42.9323H65.9459C67.2894 42.9323 68.3784 41.8433 68.3784 40.4998V30.7701C68.3784 29.4267 67.2894 28.3377 65.9459 28.3377ZM14.0541 26.7161C11.8151 26.7161 10 28.5311 10 30.7701V40.4998C10 42.7388 11.8151 44.5539 14.0541 44.5539H65.9459C68.1849 44.5539 70 42.7388 70 40.4998V30.7701C70 28.5311 68.1849 26.7161 65.9459 26.7161H14.0541Z" fill="#005CAB"/>
<path d="M18.1094 35.6353C18.1094 35.1875 18.4724 34.8245 18.9202 34.8245H40.8121C41.2599 34.8245 41.6229 35.1875 41.6229 35.6353C41.6229 36.0831 41.2599 36.4461 40.8121 36.4461H18.9202C18.4724 36.4461 18.1094 36.0831 18.1094 35.6353Z" fill="#7BC143"/>
<path d="M52.9732 35.6353C52.9732 36.0831 52.6102 36.4461 52.1624 36.4461C51.7146 36.4461 51.3516 36.0831 51.3516 35.6353C51.3516 35.1875 51.7146 34.8245 52.1624 34.8245C52.6102 34.8245 52.9732 35.1875 52.9732 35.6353Z" fill="#7BC143"/>
<path d="M61.0787 35.6353C61.0787 36.0831 60.7157 36.4461 60.2678 36.4461C59.82 36.4461 59.457 36.0831 59.457 35.6353C59.457 35.1875 59.82 34.8245 60.2678 34.8245C60.7157 34.8245 61.0787 35.1875 61.0787 35.6353Z" fill="#7BC143"/>
<path d="M18.1094 51.8513C18.1094 51.4035 18.4724 51.0405 18.9202 51.0405H40.8121C41.2599 51.0405 41.6229 51.4035 41.6229 51.8513C41.6229 52.2991 41.2599 52.6621 40.8121 52.6621H18.9202C18.4724 52.6621 18.1094 52.2991 18.1094 51.8513Z" fill="#7BC143"/>
<path d="M52.9732 51.8513C52.9732 52.2991 52.6102 52.6621 52.1624 52.6621C51.7146 52.6621 51.3516 52.2991 51.3516 51.8513C51.3516 51.4035 51.7146 51.0405 52.1624 51.0405C52.6102 51.0405 52.9732 51.4035 52.9732 51.8513Z" fill="#7BC143"/>
<path d="M61.0787 51.8513C61.0787 52.2991 60.7157 52.6621 60.2678 52.6621C59.82 52.6621 59.457 52.2991 59.457 51.8513C59.457 51.4035 59.82 51.0405 60.2678 51.0405C60.7157 51.0405 61.0787 51.4035 61.0787 51.8513Z" fill="#7BC143"/>
<path fill-rule="evenodd" clip-rule="evenodd" d="M30.2698 60.7702H18.9185V66.4459C18.9185 67.7893 20.0075 68.8783 21.3509 68.8783H27.8374C29.1808 68.8783 30.2698 67.7893 30.2698 66.4459V60.7702ZM17.2969 59.1486V66.4459C17.2969 68.6848 19.112 70.4999 21.3509 70.4999H27.8374C30.0764 70.4999 31.8915 68.6848 31.8915 66.4459V59.1486H17.2969Z" fill="#7BC143"/>
<path fill-rule="evenodd" clip-rule="evenodd" d="M61.0823 60.7702H49.731V66.4459C49.731 67.7893 50.82 68.8783 52.1634 68.8783H58.6499C59.9933 68.8783 61.0823 67.7893 61.0823 66.4459V60.7702ZM48.1094 59.1486V66.4459C48.1094 68.6848 49.9245 70.4999 52.1634 70.4999H58.6499C60.8889 70.4999 62.704 68.6848 62.704 66.4459V59.1486H48.1094Z" fill="#7BC143"/>
<path fill-rule="evenodd" clip-rule="evenodd" d="M65.9459 44.554H14.0541C12.7106 44.554 11.6216 45.643 11.6216 46.9864V56.7162C11.6216 58.0596 12.7106 59.1486 14.0541 59.1486H65.9459C67.2894 59.1486 68.3784 58.0596 68.3784 56.7162V46.9864C68.3784 45.643 67.2894 44.554 65.9459 44.554ZM14.0541 42.9324C11.8151 42.9324 10 44.7475 10 46.9864V56.7162C10 58.9551 11.8151 60.7702 14.0541 60.7702H65.9459C68.1849 60.7702 70 58.9551 70 56.7162V46.9864C70 44.7475 68.1849 42.9324 65.9459 42.9324H14.0541Z" fill="#005CAB"/>
</svg>
