<svg width="80" height="81" viewBox="0 0 80 81" fill="none" xmlns="http://www.w3.org/2000/svg">
<path d="M40.001 20.5641C55.0954 20.5642 67.3809 32.8505 67.3809 47.9449C67.3807 63.0393 55.0954 75.3247 40.001 75.3248C24.9065 75.3248 12.6203 63.0394 12.6201 47.9449C12.6201 32.8504 24.9064 20.5641 40.001 20.5641ZM40.001 23.193C26.3508 23.193 15.249 34.2948 15.249 47.9449C15.2492 61.595 26.3509 72.6959 40.001 72.6959C53.651 72.6958 64.7518 61.5949 64.752 47.9449C64.752 34.2948 53.6511 23.1931 40.001 23.193Z" fill="#005CAB" stroke="white" stroke-width="0.35"/>
<path d="M40.0029 28.0115C50.996 28.0117 59.9355 36.9519 59.9355 47.9451C59.9353 58.938 50.9959 67.8775 40.0029 67.8777C29.0098 67.8777 20.0696 58.9382 20.0693 47.9451C20.0693 36.9518 29.0096 28.0115 40.0029 28.0115ZM40.0029 30.6404C30.463 30.6404 22.6982 38.4051 22.6982 47.9451C22.6985 57.4848 30.4631 65.2488 40.0029 65.2488C49.5426 65.2486 57.3064 57.4847 57.3066 47.9451C57.3066 38.4052 49.5427 30.6406 40.0029 30.6404Z" fill="#7BC143" stroke="white" stroke-width="0.35"/>
<path d="M40.998 43.3696C42.9126 41.4437 45.7999 40.8827 48.1738 41.9595L48.2295 41.9849L48.2354 41.9829C48.4723 42.1059 48.6628 42.2863 48.7891 42.5093L48.8428 42.6147C49.9193 44.9854 49.3563 47.8669 47.4326 49.7905H47.4316C46.1617 51.0689 44.4612 51.7437 42.7734 51.7437C42.3519 51.7436 41.9337 51.7013 41.5215 51.6138L41.3096 51.5688V54.6528C41.3096 55.3766 40.7189 55.9673 39.9951 55.9673C39.2715 55.9671 38.6807 55.3765 38.6807 54.6528V51.5796L38.4707 51.6216C38.066 51.7036 37.6529 51.7466 37.2402 51.7466C35.55 51.7465 33.8515 51.0639 32.5811 49.7935C30.6553 47.8705 30.0946 44.993 31.1699 42.6196C31.3102 42.3208 31.5404 42.0907 31.8291 41.9604V41.9595C34.1256 40.9167 36.9012 41.413 38.8213 43.1938L39.0049 43.3696C39.3318 43.7023 39.6061 44.0651 39.8545 44.4448L40 44.6675L40.1475 44.4458C40.3372 44.159 40.5392 43.8789 40.7646 43.6206L40.998 43.3696ZM46.5078 44.1558C45.2515 43.8404 43.8518 44.2429 42.8574 45.228L42.8564 45.229C41.8702 46.2154 41.4712 47.6184 41.7832 48.8794L41.8086 48.9819L41.9111 49.0073C43.1668 49.3227 44.5673 48.9293 45.5625 47.9341C46.5488 46.9476 46.9479 45.5447 46.6357 44.2837L46.6104 44.1812L46.5078 44.1558ZM37.1465 45.229C36.16 44.2425 34.7563 43.8435 33.4951 44.1558L33.3936 44.1812L33.3682 44.2817C33.0462 45.5387 33.4548 46.9483 34.4404 47.9341C35.427 48.9206 36.8306 49.3196 38.0918 49.0073L38.1934 48.9829L38.2188 48.8813C38.5407 47.6243 38.1322 46.2148 37.1465 45.229Z" fill="#7BC143" stroke="white" stroke-width="0.35"/>
<path d="M21.3838 13.1221C22.1074 13.1221 22.6981 13.7129 22.6982 14.4365V18.7109L22.9971 18.4121L24.1816 17.2285V17.2275C24.6601 16.7469 25.4237 16.7163 25.9404 17.1377L26.04 17.2285C26.5529 17.7388 26.5536 18.5732 26.04 19.0869L22.3174 22.8086C22.3055 22.8184 22.2835 22.8371 22.2637 22.8555C22.2477 22.8683 22.2336 22.8808 22.2207 22.8916C22.2079 22.9023 22.1961 22.9119 22.1836 22.9219C22.1019 22.9862 22.0127 23.0429 21.9316 23.0791H21.9297L21.8984 23.0918C21.8188 23.1231 21.7507 23.1469 21.6875 23.1582V23.1611C21.6822 23.1619 21.6775 23.163 21.6729 23.1641H21.6621L21.6445 23.168C21.5622 23.1854 21.4753 23.1924 21.3896 23.1924C21.3151 23.1924 21.236 23.1822 21.1475 23.1689C21.1437 23.1672 21.1389 23.1649 21.1348 23.1631C21.1233 23.1581 21.1038 23.1515 21.0791 23.1465C21.0426 23.1343 21.0039 23.1243 20.9756 23.1162C20.9411 23.1063 20.9147 23.0975 20.8926 23.0879L20.8809 23.083L20.8682 23.0801L20.8398 23.0625L20.8281 23.0557L20.8164 23.0498C20.7524 23.022 20.702 22.9975 20.6562 22.9678H20.6553C20.5846 22.9223 20.522 22.8716 20.4551 22.8047L20.2803 22.6309L20.2773 22.6357L16.7285 19.0869H16.7275C16.2146 18.5766 16.2149 17.7422 16.7285 17.2285V17.2275C17.2388 16.7149 18.0733 16.7149 18.5869 17.2285L20.0693 18.7109V14.4365C20.0695 13.713 20.6602 13.1222 21.3838 13.1221Z" fill="#7BC143" stroke="white" stroke-width="0.35"/>
<path d="M40.0049 5.6748C40.7285 5.6748 41.3192 6.26561 41.3193 6.98926V11.2637L41.6182 10.9648L42.8027 9.78125V9.78027C43.2812 9.29962 44.0448 9.26908 44.5615 9.69043L44.6611 9.78125C45.174 10.2915 45.1747 11.126 44.6611 11.6396L40.9385 15.3613C40.9266 15.3711 40.9046 15.3898 40.8848 15.4082C40.8687 15.421 40.8547 15.4336 40.8418 15.4443C40.829 15.455 40.8172 15.4646 40.8047 15.4746C40.723 15.539 40.6338 15.5956 40.5527 15.6318H40.5508L40.5195 15.6445C40.4399 15.6758 40.3718 15.6996 40.3086 15.7109V15.7139C40.3033 15.7147 40.2986 15.7158 40.2939 15.7168H40.2832L40.2656 15.7207C40.1833 15.7382 40.0964 15.7451 40.0107 15.7451C39.9362 15.7451 39.8571 15.7349 39.7686 15.7217C39.7647 15.7199 39.76 15.7176 39.7559 15.7158C39.7444 15.7109 39.7249 15.7043 39.7002 15.6992C39.6637 15.687 39.625 15.677 39.5967 15.6689C39.5622 15.6591 39.5358 15.6502 39.5137 15.6406L39.502 15.6357L39.4893 15.6328L39.4609 15.6152L39.4492 15.6084L39.4375 15.6025C39.3735 15.5747 39.3231 15.5503 39.2773 15.5205H39.2764C39.2057 15.4751 39.1431 15.4243 39.0762 15.3574L38.9014 15.1836L38.8984 15.1885L35.3496 11.6396H35.3486C34.8357 11.1293 34.8359 10.2949 35.3496 9.78125V9.78027C35.8599 9.26763 36.6944 9.26767 37.208 9.78125L38.6904 11.2637V6.98926C38.6906 6.26571 39.2813 5.67493 40.0049 5.6748Z" fill="#7BC143" stroke="white" stroke-width="0.35"/>
<path d="M58.6221 13.1221C59.3457 13.1221 59.9364 13.7129 59.9365 14.4365V18.7109L60.2354 18.4121L61.4199 17.2285V17.2275C61.8984 16.7469 62.662 16.7163 63.1787 17.1377L63.2783 17.2285C63.7912 17.7388 63.7919 18.5732 63.2783 19.0869L59.5557 22.8086C59.5438 22.8184 59.5218 22.8371 59.502 22.8555C59.4859 22.8683 59.4719 22.8808 59.459 22.8916C59.4462 22.9023 59.4344 22.9119 59.4219 22.9219C59.3402 22.9862 59.251 23.0429 59.1699 23.0791H59.168L59.1367 23.0918C59.0571 23.1231 58.989 23.1469 58.9258 23.1582V23.1611C58.9205 23.1619 58.9158 23.163 58.9111 23.1641H58.9004L58.8828 23.168C58.8005 23.1854 58.7136 23.1924 58.6279 23.1924C58.5534 23.1924 58.4743 23.1822 58.3857 23.1689C58.3819 23.1672 58.3772 23.1649 58.373 23.1631C58.3616 23.1581 58.3421 23.1515 58.3174 23.1465C58.2809 23.1343 58.2422 23.1243 58.2139 23.1162C58.1793 23.1063 58.153 23.0975 58.1309 23.0879L58.1191 23.083L58.1064 23.0801L58.0781 23.0625L58.0664 23.0557L58.0547 23.0498C57.9907 23.022 57.9403 22.9975 57.8945 22.9678H57.8936C57.8229 22.9223 57.7603 22.8716 57.6934 22.8047L57.5186 22.6309L57.5156 22.6357L53.9668 19.0869H53.9658C53.4529 18.5766 53.4531 17.7422 53.9668 17.2285V17.2275C54.4771 16.7149 55.3116 16.7149 55.8252 17.2285L57.3076 18.7109V14.4365C57.3077 13.713 57.8985 13.1222 58.6221 13.1221Z" fill="#7BC143" stroke="white" stroke-width="0.35"/>
</svg>
