<svg width="80" height="81" viewBox="0 0 80 81" fill="none" xmlns="http://www.w3.org/2000/svg">
<path fill-rule="evenodd" clip-rule="evenodd" d="M65.2339 65.1523L64.1343 54.3549C64.1283 54.1929 64.0808 54.037 63.9935 53.911L49.4639 29.5868C50.7231 27.7297 51.4461 25.4857 51.416 23.0767C51.3738 19.9357 50.0603 17.1097 47.9666 15.0787C46.7254 13.8757 45.2101 12.9486 43.5261 12.4056L43.4659 7.88763C43.4659 7.85163 43.4659 7.81563 43.4629 7.78263C43.4237 6.89458 42.9899 6.1026 42.3121 5.5356C41.6493 4.98063 40.7485 4.64163 39.7695 4.65063C39.7333 4.65063 39.7032 4.65063 39.67 4.65663C38.7211 4.68965 37.8595 5.04965 37.2299 5.60465C36.546 6.20761 36.1273 7.04167 36.1363 7.96266C36.1363 7.99266 36.1363 8.02266 36.1393 8.05266L36.1965 12.5047C34.5246 13.0927 33.0364 14.0557 31.8253 15.2917C29.8039 17.3556 28.5688 20.1817 28.5869 23.2897C28.5839 23.3137 28.5839 23.3377 28.5839 23.3617L28.5869 23.3707C28.62 25.7828 29.4033 28.0088 30.7107 29.8298L16.8081 54.5526C16.7509 54.6516 16.7178 54.7596 16.7027 54.8646L14.7807 65.0798C14.7385 65.3079 14.7837 65.5508 14.9313 65.7519C15.2144 66.1449 15.7627 66.2319 16.1574 65.9499L24.9931 59.6048C25.1166 59.5268 25.2221 59.4218 25.2974 59.2868L32.2487 46.9239L39.2 34.5609C39.4861 34.5819 39.7753 34.5909 40.0676 34.5879C40.0917 34.5909 40.1158 34.5909 40.1399 34.5909L40.1489 34.5879C40.4682 34.5849 40.7846 34.5669 41.0979 34.5369L55.6513 58.8973L55.6604 58.9153L55.6724 58.9333L55.6875 58.9513L55.6995 58.9663L55.7146 58.9903L55.7417 59.0263C55.7538 59.0413 55.7719 59.0563 55.7869 59.0713L55.811 59.0953L55.8231 59.1043L55.8321 59.1133L55.8502 59.1253L55.8622 59.1343L63.7879 65.9023C63.9627 66.0523 64.1976 66.1333 64.4447 66.1093C64.9296 66.0613 65.2821 65.6323 65.2339 65.1523ZM41.7087 7.88765L41.7629 11.9856C41.6333 11.9646 41.5039 11.9467 41.3774 11.9317C40.8924 11.8747 40.3832 11.8477 39.853 11.8537C39.3228 11.8597 38.8137 11.8987 38.3286 11.9707C38.2021 11.9887 38.0726 12.0097 37.946 12.0337L37.8918 8.02268C37.8948 8.00168 37.8948 7.97768 37.8948 7.95668L37.8918 7.94768C37.8858 7.55465 38.0786 7.18565 38.3919 6.90965C38.7263 6.61264 39.1932 6.42064 39.7144 6.39964C39.7324 6.40264 39.7505 6.40264 39.7686 6.40264L39.7806 6.39964C40.3319 6.39365 40.829 6.57665 41.1845 6.87365C41.4887 7.12864 41.6846 7.47064 41.7087 7.83965C41.7056 7.85765 41.7087 7.87265 41.7087 7.88765ZM42.4347 13.9116L42.4588 13.9176C44.0946 14.3466 45.5617 15.1897 46.7366 16.3476C48.508 18.0667 49.6226 20.4547 49.6558 23.1097C49.6859 25.3207 48.9629 27.3667 47.7247 29.0077C47.7217 29.0137 47.7157 29.0227 47.7097 29.0287C47.6551 29.1004 47.5985 29.1721 47.5431 29.2421C47.5313 29.257 47.5195 29.2719 47.5078 29.2867L47.4837 29.3107L47.4717 29.3257L47.4536 29.3437C47.2819 29.5478 47.1042 29.7488 46.9174 29.9378C46.0076 30.8708 44.908 31.6178 43.6819 32.1218C42.9589 32.4188 42.2028 32.6228 41.4346 32.7368C41.4225 32.7398 41.4097 32.7421 41.3969 32.7443C41.3841 32.7466 41.3713 32.7488 41.3592 32.7518C40.9616 32.8058 40.5519 32.8388 40.1392 32.8448C40.1091 32.8448 40.082 32.8418 40.0548 32.8448C39.6542 32.8448 39.2626 32.8238 38.874 32.7788L38.8197 32.7698C38.5998 32.7428 38.401 32.7098 38.2172 32.6768C38.0395 32.6438 37.8407 32.5988 37.6238 32.5448C36.7802 32.3318 35.991 32.0138 35.268 31.6088C34.5358 31.1978 33.8611 30.6938 33.2616 30.1118C33.1561 30.0098 33.0537 29.9048 32.9513 29.7968C32.7736 29.6078 32.6049 29.4128 32.4452 29.2118C32.4415 29.2068 32.4373 29.2019 32.433 29.197C32.4268 29.1899 32.4204 29.1828 32.4151 29.1758C31.1438 27.5738 30.3726 25.5578 30.3424 23.3587C30.3424 23.3287 30.3455 23.3017 30.3424 23.2747C30.3274 20.6497 31.3727 18.2587 33.0839 16.5097C34.2316 15.3366 35.6746 14.4546 37.2984 13.9836L37.3225 13.9776C37.7351 13.8576 38.1569 13.7706 38.5847 13.7076C38.9462 13.6536 39.3077 13.6206 39.6662 13.6086L39.7264 13.6056H39.7595C39.7987 13.6026 39.8349 13.6026 39.874 13.6026H39.9855H40.0728C40.4344 13.6056 40.8019 13.6296 41.1694 13.6746C41.6093 13.7286 42.031 13.8066 42.4347 13.9116ZM42.9469 34.2065C43.9831 33.9305 44.9592 33.5165 45.8539 32.9825L45.8991 32.9496L45.9593 32.9136L46.0165 32.8776L46.0617 32.8506C46.0768 32.8416 46.0926 32.8318 46.1084 32.8221C46.1242 32.8123 46.14 32.8026 46.1551 32.7936L46.1672 32.7876C46.8842 32.3285 47.559 31.7826 48.1765 31.1526L48.2639 31.0626L48.285 31.0416L62.3171 54.5256C62.1785 55.0296 61.9556 55.5006 61.6574 55.9206C61.2989 56.4276 60.835 56.8596 60.2897 57.1806C59.7444 57.5046 59.1419 57.7056 58.5243 57.7776C58.0092 57.8376 57.485 57.8106 56.9759 57.6906L42.9469 34.2065ZM36.9065 34.1675L37.0059 34.1945L37.0179 34.1975L37.0752 34.2125L37.1264 34.2245L37.1897 34.2425L37.2228 34.2575H37.2469C37.262 34.2605 37.277 34.2643 37.2921 34.268C37.3071 34.2718 37.3222 34.2755 37.3373 34.2785L23.9313 58.1258C23.4221 58.2578 22.901 58.2998 22.3889 58.2548C21.7743 58.1978 21.1658 58.0118 20.6085 57.7028C20.0542 57.3908 19.5782 56.9738 19.2076 56.4788C18.9004 56.0648 18.6624 55.5998 18.5117 55.1018L31.9207 31.2545C32.4871 31.8215 33.1167 32.3315 33.8036 32.7725C34.4934 33.2195 35.2436 33.5945 36.0388 33.8855C36.0584 33.893 36.0803 33.9027 36.0991 33.9095C36.1179 33.9162 36.1367 33.923 36.1563 33.9305L36.1925 33.9425L36.2708 33.9695L36.3401 33.9935L36.3943 34.0115C36.56 34.0655 36.7287 34.1165 36.8974 34.1645L36.9065 34.1675ZM19.7468 59.2298C20.3222 59.5478 20.9368 59.7728 21.5725 59.8988L16.909 63.2468L17.9484 57.7178C18.4424 58.3268 19.051 58.8428 19.7468 59.2298ZM63.2629 63.1478L58.9761 59.4878C59.7503 59.3649 60.5004 59.0978 61.1842 58.6958C61.7506 58.3598 62.2537 57.9398 62.6815 57.4568L63.2629 63.1478Z" fill="#005CAB"/>
<path fill-rule="evenodd" clip-rule="evenodd" d="M39.9525 19.9056L39.9573 19.9055C39.9593 19.9055 39.9613 19.9054 39.9633 19.9054" fill="#7BC143"/>
<path fill-rule="evenodd" clip-rule="evenodd" d="M39.9373 18.1506L39.9463 18.1476C39.958 18.1476 39.9697 18.1484 39.9818 18.1491C39.9945 18.1499 40.0077 18.1506 40.0216 18.1506C41.3953 18.1536 42.6425 18.7027 43.5553 19.5877C44.4862 20.4937 45.0736 21.7537 45.0917 23.1547L45.0947 23.1637C45.0947 23.1907 45.0947 23.2147 45.0917 23.2387C45.0887 24.6066 44.5374 25.8486 43.6487 26.7577C42.7389 27.6847 41.4737 28.2697 40.0668 28.2877L40.0578 28.2907C40.0307 28.2907 40.0066 28.2907 39.9825 28.2877C38.6088 28.2847 37.3616 27.7356 36.4488 26.8507C35.5179 25.9446 34.9305 24.6847 34.9124 23.2837L34.9094 23.2747C34.9094 23.2477 34.9094 23.2237 34.9124 23.1997C34.9154 21.8317 35.4668 20.5897 36.3554 19.6807C37.2652 18.7537 38.5305 18.1686 39.9373 18.1506ZM37.6147 20.9047C38.2081 20.2987 39.0305 19.9207 39.9463 19.9057L39.9525 19.9056L39.9573 19.9055L39.9633 19.9054L39.9732 19.905C39.9899 19.9043 40.0058 19.9037 40.0216 19.9057C40.9164 19.9117 41.7268 20.2687 42.3232 20.8477C42.9318 21.4387 43.3114 22.2607 43.3264 23.1697C43.3264 23.1937 43.3264 23.2207 43.3294 23.2477C43.3234 24.1387 42.9649 24.9457 42.3835 25.5397C41.79 26.1458 40.9676 26.5238 40.0518 26.5388C40.0247 26.5388 40.0006 26.5388 39.9735 26.5418C39.0817 26.5358 38.2684 26.1787 37.6719 25.5997C37.0633 25.0087 36.6868 24.1867 36.6717 23.2747C36.6717 23.2507 36.6717 23.2237 36.6687 23.1967C36.6747 22.3057 37.0332 21.4987 37.6147 20.9047Z" fill="#7BC143"/>
<path fill-rule="evenodd" clip-rule="evenodd" d="M39.1174 68.8224V63.9294C39.1174 63.4434 39.512 63.0504 40 63.0504C40.488 63.0504 40.8826 63.4434 40.8826 63.9294V68.8225L75.1174 68.8195C75.6054 68.8195 76 69.2124 76 69.6984C76 70.1844 75.6054 70.5774 75.1174 70.5774H40.8826V75.4705C40.8826 75.9564 40.488 76.3494 40 76.3494C39.512 76.3494 39.1174 75.9564 39.1174 75.4734V70.5804H4.88265C4.39464 70.5804 4 70.1874 4 69.7014C4 69.2154 4.39462 68.8224 4.88265 68.8224H39.1174Z" fill="#7BC143"/>
</svg>
