<svg width="80" height="81" viewBox="0 0 80 81" fill="none" xmlns="http://www.w3.org/2000/svg">
<path fill-rule="evenodd" clip-rule="evenodd" d="M42.5826 45.3561L55.6474 33.9684C59.3402 35.3306 63.3986 34.5825 66.3676 31.9556C69.4472 29.2322 70.7091 24.9142 69.5822 20.9561C69.4941 20.6467 69.2532 20.4039 68.9438 20.313C68.6335 20.2221 68.3007 20.2961 68.0597 20.5099L62.8464 25.1148C62.2005 25.6876 61.3717 25.9782 60.5139 25.9192C59.6486 25.8648 58.8546 25.472 58.279 24.8157C57.7071 24.1586 57.4249 23.3223 57.4858 22.4505C57.5383 21.5852 57.9274 20.7874 58.5771 20.2089L63.7895 15.6059C64.0295 15.394 64.1448 15.0734 64.0951 14.7574C64.0454 14.4415 63.8373 14.1715 63.5429 14.044C59.7714 12.4006 55.3465 13.1047 52.2744 15.8318C49.3503 18.409 48.065 22.4411 48.9107 26.2463L36.6849 36.9018C43.0214 31.3819 24.3429 47.666 24.3429 47.666C20.6501 46.3039 16.5917 47.052 13.6227 49.6788C10.5431 52.4013 9.28216 56.7193 10.4081 60.6784C10.4962 60.9887 10.7371 61.2315 11.0465 61.3215C11.3549 61.4124 11.6896 61.3383 11.9306 61.1246L17.1439 56.5197C17.7908 55.9469 18.6251 55.659 19.4764 55.7153C20.3417 55.7697 21.1367 56.1625 21.7114 56.8187C22.2832 57.4759 22.5654 58.3121 22.5045 59.184C22.452 60.0493 22.0629 60.8471 21.4132 61.4255L16.2008 66.0286C15.9608 66.2405 15.8455 66.5611 15.8952 66.877C15.9449 67.1929 16.153 67.4629 16.4464 67.5904C17.8002 68.1801 19.2383 68.467 20.6679 68.467C23.2207 68.467 25.7463 67.5501 27.715 65.8027C30.639 63.2255 31.9234 59.1934 31.0787 55.3881C31.0787 55.3881 50.5184 38.4402 42.5826 45.3561ZM50.5756 27.2832C50.8494 27.0451 50.96 26.671 50.8616 26.3223C49.9222 22.9895 50.9384 19.5096 53.5165 17.2371C55.6577 15.3349 58.5958 14.6281 61.3305 15.2768L57.3321 18.8083C56.3074 19.7224 55.6971 20.9758 55.6146 22.3305C55.519 23.6936 55.9634 25.0135 56.8662 26.0513C57.7746 27.0882 59.028 27.707 60.3949 27.7932C61.758 27.8841 63.0667 27.4266 64.0886 26.521L68.0701 23.0045C68.3504 25.8123 67.2732 28.6529 65.1245 30.5541C62.5558 32.8266 58.9971 33.3919 55.833 32.0269C55.5012 31.8844 55.1177 31.9444 54.8459 32.1806L48.9885 37.2871L29.4147 54.3503L29.4137 54.3513C29.1409 54.5894 29.0294 54.9634 29.1278 55.3122C30.0662 58.6449 29.0509 62.1258 26.4738 64.3974C24.3307 66.2986 21.3935 67.0045 18.6589 66.3576L22.6573 62.8261C23.682 61.9121 24.2923 60.6587 24.3748 59.304C24.4704 57.9418 24.026 56.6209 23.1232 55.5831C22.2148 54.5463 20.9614 53.9275 19.5945 53.8413C18.2389 53.756 16.9227 54.2078 15.9008 55.1134L11.9193 58.6299C11.6399 55.8222 12.7162 52.9806 14.8649 51.0804C17.4336 48.8079 20.9932 48.2435 24.1563 49.6076C24.4882 49.7519 24.8726 49.691 25.1435 49.4538L44.2476 32.8031L50.5756 27.2832Z" fill="#7BC143"/>
<path fill-rule="evenodd" clip-rule="evenodd" d="M68.6399 61.2479L51.8317 41.4539L50.523 40.4648L46.5021 37.4302L44.2521 34.8277L36.756 26.1559L37.9044 25.1547C38.2288 24.8716 38.3169 24.4113 38.1275 24.026C37.2275 22.1941 37.3428 19.3892 39.0969 17.8601C41.8212 15.4836 44.5034 14.6399 47.0693 15.357C47.4658 15.4677 47.8896 15.3055 48.1117 14.9577C48.333 14.6089 48.3011 14.1571 48.033 13.8439C46.3718 11.9062 43.8696 10.7643 40.7975 10.5402C36.5338 10.2281 31.791 11.7524 28.717 14.4233C28.7151 14.4242 20.1943 21.8566 20.1943 21.8566C19.8681 22.1407 19.7809 22.6141 19.9796 22.9976C19.99 23.0172 21.0043 25.0038 19.944 25.826C18.8659 26.665 17.0922 25.5081 17.0781 25.4978C16.7256 25.2616 16.2588 25.2897 15.9381 25.5691L10.9666 29.9031C9.79854 30.9296 9.67479 32.7155 10.6854 33.879L16.1988 40.3298C16.6928 40.9064 17.38 41.2757 18.1375 41.3057C19.03 41.3414 19.6609 41.0714 20.17 40.6232L25.1386 36.2921C25.4536 36.0174 25.5474 35.5636 25.3702 35.1839C25.3608 35.1643 24.4561 33.1505 25.4368 32.2824C26.5177 31.3196 28.132 32.5562 28.1958 32.6068C28.5501 32.889 29.0554 32.8758 29.3958 32.5777L30.4223 31.6824L37.9166 40.3429L40.144 42.9182L42.5871 47.3806L43.3465 48.7672L60.1575 68.5641C61.2253 69.7941 62.7722 70.5 64.3996 70.5C65.7402 70.5 67.0396 70.0163 68.0577 69.1388C69.1902 68.1638 69.8746 66.8063 69.9842 65.3157C70.0939 63.8223 69.6139 62.3757 68.6389 61.2489L68.6399 61.2479ZM44.2362 13.2899C43.0071 12.7152 41.7134 12.4874 40.6606 12.4105L40.6597 12.4096C37.2369 12.164 33.3595 13.3039 30.6745 15.2774L34.086 19.2626C34.4226 19.6554 34.3766 20.2479 33.9838 20.5845C33.8066 20.7354 33.5901 20.8095 33.3744 20.8095C33.1101 20.8095 32.8476 20.6979 32.662 20.4813L29.2251 16.4661L22.1265 22.6582L28.8745 30.5415L29.8917 29.6537C29.8954 29.6509 29.8964 29.6471 29.8992 29.6443C29.902 29.6415 29.9086 29.6387 29.9086 29.6387L34.8182 25.3525L34.8191 25.3506H34.8201L36.1607 24.1863C35.2832 21.7723 35.5597 18.4573 37.8641 16.4473C39.9809 14.6005 42.1128 13.5449 44.2362 13.2899ZM23.1962 32.5937C23.3302 31.9815 23.6265 31.3796 24.1918 30.8799C24.7589 30.3746 25.3833 30.1375 26.0021 30.07L22.1902 25.6169C22.0346 26.2422 21.7037 26.8347 21.0934 27.3072C19.5381 28.5147 17.6481 27.8856 16.675 27.4141L12.2023 31.314C11.8094 31.659 11.7644 32.2618 12.1057 32.6546L17.6228 39.1101C17.7859 39.3014 18.0165 39.4176 18.2687 39.4354C18.5115 39.457 18.7506 39.3736 18.9343 39.2123L23.2055 35.4886L19.6009 31.2774C19.2643 30.8846 19.3103 30.2921 19.7031 29.9556C20.0968 29.619 20.6893 29.665 21.0249 30.0578L23.1962 32.5937ZM44.5352 38.0198L35.3432 27.3887L31.8342 30.4496L38.7022 38.3883C38.7069 38.393 38.7134 38.3948 38.7181 38.4005C38.7228 38.4051 38.7237 38.4126 38.7284 38.4183L41.014 41.0601L44.9008 47.6975L61.5815 67.3407C62.2865 68.1535 63.3159 68.6232 64.4006 68.6232C65.2921 68.6232 66.1565 68.3016 66.8352 67.7166C67.588 67.0688 68.0427 66.1669 68.1158 65.177C68.189 64.1842 67.8693 63.2223 67.2168 62.4676L50.5361 42.8235L44.5352 38.0198Z" fill="#005CAB"/>
<path d="M48.4494 44.6864C48.111 44.2945 47.5185 44.2504 47.1275 44.5889C46.7357 44.9273 46.6925 45.5188 47.03 45.9107L51.9331 51.5919C52.1187 51.8066 52.3803 51.9172 52.6428 51.9172C52.8593 51.9172 53.0778 51.8422 53.2549 51.6894C53.6468 51.3509 53.6899 50.7594 53.3524 50.3675L48.4494 44.6864Z" fill="#7BC143"/>
<path d="M55.0942 53.8137C54.7023 54.1521 54.6592 54.7446 54.9976 55.1364C55.336 55.5283 55.9276 55.5714 56.3195 55.233C56.7113 54.8946 56.7545 54.3021 56.416 53.9102C56.0776 53.5183 55.486 53.4752 55.0942 53.8137Z" fill="#7BC143"/>
<path d="M57.5473 56.6515C57.1554 56.9899 57.1123 57.5824 57.4507 57.9742C57.7892 58.3661 58.3807 58.4092 58.7726 58.0708C59.1645 57.7324 59.2076 57.1399 58.8692 56.748C58.5307 56.3561 57.9392 56.313 57.5473 56.6515Z" fill="#7BC143"/>
</svg>
