<svg width="80" height="81" viewBox="0 0 80 81" fill="none" xmlns="http://www.w3.org/2000/svg">
<path d="M57.513 38.3327C58.3931 37.8261 59.4728 37.8261 60.3529 38.3327L71.9863 45.0481C72.8664 45.5584 73.4062 46.4939 73.4062 47.5109V60.9419C73.4062 61.9588 72.8664 62.8944 71.9863 63.4047L60.3529 70.12C59.4728 70.6267 58.3931 70.6267 57.513 70.12L45.8796 63.4047C44.9995 62.8944 44.4596 61.9589 44.4596 60.9419V50.5543L46.3529 51.6489V60.9415C46.3529 61.2448 46.4935 61.5258 46.7338 61.6996L46.8263 61.7625L58.4596 68.4778C58.7517 68.6479 59.1141 68.6479 59.4063 68.4778L71.0396 61.7625C71.3317 61.5924 71.5129 61.2817 71.5129 60.9415V47.5105C71.5129 47.1703 71.3317 46.8597 71.0396 46.6896L59.4063 39.9742C59.1141 39.8041 58.7517 39.8041 58.4596 39.9742L49.8659 44.9331L47.9726 43.8386L57.513 38.3327ZM19.6471 38.3327C20.5271 37.8261 21.6069 37.8261 22.487 38.3327L31.5541 43.5688L29.6608 44.6597L21.5404 39.9745C21.2852 39.8229 20.9746 39.8044 20.7046 39.9153L20.5937 39.9745L8.96035 46.6898C8.66822 46.86 8.48703 47.1706 8.48703 47.5108V60.9418C8.48703 61.282 8.66822 61.5926 8.96035 61.7627L20.5937 68.4781C20.8858 68.6482 21.2482 68.6482 21.5404 68.4781L33.1737 61.7627C33.4658 61.5926 33.647 61.282 33.647 60.9418V51.1052L35.5403 50.0107V60.9416C35.5403 61.8957 35.0633 62.7794 34.2831 63.3009L34.1204 63.4044L22.487 70.1197C21.6069 70.6263 20.5272 70.6263 19.6471 70.1197L8.01372 63.4044C7.13363 62.8941 6.59375 61.9586 6.59375 60.9416V47.5106C6.59375 46.4937 7.13363 45.5581 8.01372 45.0478L19.6471 38.3327ZM40.9466 10.88C40.0665 10.3733 38.9868 10.3733 38.1067 10.88L26.0625 17.8319C25.1824 18.3422 24.6425 19.2778 24.6425 20.2947V35.2934H26.5358V27.7941V20.2947C26.5358 19.9545 26.717 19.6439 27.0091 19.4738L39.0533 12.5218C39.3455 12.3517 39.7079 12.3517 40 12.5218L52.0442 19.4738C52.3363 19.6439 52.5175 19.9545 52.5175 20.2947V35.2934H54.4108V20.2947C54.4108 19.2779 53.8709 18.3423 52.9908 17.8319L40.9466 10.88Z" fill="#005CAB"/>
<path d="M38.1058 22.2956C38.9859 21.7853 40.0656 21.7853 40.9457 22.2956L43.1533 23.5677C44.0297 24.0743 44.5733 25.0135 44.5733 26.0268V28.5746C44.5733 29.5878 44.0297 30.5271 43.1533 31.0337L40.9457 32.3058C40.7941 32.3946 40.6351 32.4685 40.4724 32.524V40.2007C40.7128 40.271 40.9457 40.3709 41.1639 40.5003C42.1808 41.0845 42.8058 42.168 42.8058 43.3402C42.8058 43.5954 42.7762 43.8431 42.7207 44.0872L54.3579 50.8062C54.4984 50.6805 54.6537 50.5695 54.8201 50.4734L57.0277 49.2013C57.9041 48.6947 58.9875 48.6947 59.8676 49.2013L62.0715 50.4734C62.9516 50.9837 63.4915 51.9192 63.4915 52.9362V55.4803C63.4915 56.4972 62.9516 57.4328 62.0715 57.9394L59.8676 59.2152C58.9875 59.7218 57.9041 59.7218 57.0277 59.2152L54.8201 57.9394C53.94 57.4328 53.4001 56.4973 53.4001 55.4803V52.9362C53.4001 52.7735 53.4149 52.6182 53.4408 52.4629L41.7743 45.7291C41.5931 45.8992 41.3897 46.0508 41.1642 46.1802C40.151 46.7645 38.9011 46.7645 37.8879 46.1802C37.666 46.0508 37.4627 45.8992 37.2778 45.7291L30.9878 49.3603C30.9286 49.3936 30.8694 49.4269 30.814 49.4602L25.6444 52.4443C25.6703 52.5996 25.6851 52.7586 25.6851 52.9176V55.4654C25.6851 56.4786 25.1415 57.4142 24.2651 57.9245L22.0576 59.1966C21.1775 59.7032 20.0977 59.7032 19.2176 59.1966L17.0137 57.9245C16.1336 57.4142 15.5938 56.4787 15.5938 55.4654V52.9176C15.5938 51.9007 16.1336 50.9652 17.0137 50.4585L19.2176 49.1827C20.0977 48.6761 21.1775 48.6761 22.0576 49.1827L24.2651 50.4585C24.4315 50.5547 24.5832 50.6656 24.7274 50.7913L29.8674 47.822C29.9228 47.7887 29.982 47.7554 30.0412 47.7221L36.3312 44.0872C36.2757 43.8431 36.2461 43.5954 36.2461 43.3402C36.2461 42.168 36.8711 41.0845 37.888 40.5003C38.1062 40.3709 38.3391 40.271 38.5795 40.2007V32.524C38.4168 32.4685 38.2578 32.3946 38.1062 32.3058L35.8986 31.0337C35.0222 30.5271 34.4786 29.5879 34.4786 28.5746V26.0268C34.4786 25.0136 35.0222 24.0743 35.8986 23.5677L38.1058 22.2956ZM58.9207 50.8389C58.6249 50.6725 58.2662 50.6725 57.974 50.8389L55.7665 52.1147C55.4743 52.2848 55.2931 52.5954 55.2931 52.9356V55.4798C55.2931 55.82 55.4743 56.1306 55.7665 56.3007L57.974 57.5728C58.2662 57.7429 58.6249 57.7429 58.9207 57.5728L61.1246 56.3007C61.4167 56.1306 61.5979 55.82 61.5979 55.4798V52.9356C61.5979 52.5954 61.4167 52.2848 61.1246 52.1147L58.9207 50.8389ZM21.1106 50.8241C20.8185 50.654 20.4561 50.654 20.164 50.8241L17.9601 52.0962C17.6643 52.2663 17.4868 52.577 17.4868 52.9172V55.465C17.4868 55.8015 17.6643 56.1121 17.9601 56.2822L20.164 57.558C20.4561 57.7244 20.8185 57.7244 21.1106 57.558L23.3182 56.2822C23.6103 56.1121 23.7915 55.8015 23.7915 55.465V52.9172C23.7915 52.577 23.6103 52.2663 23.3182 52.0962L21.1106 50.8241ZM39.9991 23.9337C39.707 23.7636 39.3446 23.7636 39.0524 23.9337L36.8449 25.2058C36.5527 25.3759 36.3715 25.6902 36.3715 26.0267V28.5745C36.3715 28.911 36.5527 29.2253 36.8449 29.3954L39.0524 30.6675C39.3446 30.8376 39.707 30.8376 39.9991 30.6675L42.2067 29.3954C42.4988 29.2253 42.68 28.911 42.68 28.5745V26.0267C42.68 25.6902 42.4988 25.3759 42.2067 25.2058L39.9991 23.9337Z" fill="#7BC143"/>
</svg>
