<svg width="29" height="29" viewBox="0 0 29 29" fill="none" xmlns="http://www.w3.org/2000/svg">
<path d="M20.7998 8.48535C20.7998 7.93307 20.3521 7.48535 19.7998 7.48535L10.7998 7.48535C10.2475 7.48535 9.7998 7.93307 9.7998 8.48535C9.7998 9.03764 10.2475 9.48535 10.7998 9.48535L18.7998 9.48535L18.7998 17.4854C18.7998 18.0376 19.2475 18.4854 19.7998 18.4854C20.3521 18.4854 20.7998 18.0376 20.7998 17.4854L20.7998 8.48535ZM9.1932 17.6777C8.80268 18.0683 8.80268 18.7014 9.1932 19.092C9.58373 19.4825 10.2169 19.4825 10.6074 19.092L9.1932 17.6777ZM19.7998 8.48535L19.0927 7.77824L9.1932 17.6777L9.90031 18.3848L10.6074 19.092L20.5069 9.19246L19.7998 8.48535Z" fill="#7BC143"/>
</svg>
