<svg width="20" height="20" viewBox="0 0 20 20" fill="none" xmlns="http://www.w3.org/2000/svg">
<path d="M9.60834 0C9.86855 0 10.1288 0 10.3896 0C10.5754 0.0264624 10.7605 0.0510785 10.9463 0.0787717C12.1606 0.258469 13.2384 0.748331 14.1618 1.55266C15.5409 2.75455 16.3044 4.27336 16.4231 6.10542C16.5111 7.46485 16.1887 8.72642 15.4677 9.87907C14.8021 10.9425 14.1175 11.9942 13.4414 13.0515C13.4119 13.0976 13.3885 13.1481 13.3547 13.2096C13.4162 13.2238 13.4586 13.2355 13.5023 13.2435C14.6188 13.438 15.7187 13.697 16.7503 14.1777C17.6823 14.6121 18.5294 15.1451 18.7853 16.2503V16.7193C18.6561 17.3021 18.3381 17.7575 17.8706 18.123C17.2738 18.5895 16.5972 18.8984 15.8879 19.1397C14.5585 19.5926 13.1837 19.8154 11.7879 19.9249C11.4907 19.9483 11.1942 19.9748 10.8977 20H9.06269C8.99933 19.9889 8.93659 19.9742 8.87322 19.9674C8.07905 19.8855 7.28119 19.8314 6.49132 19.7181C5.39634 19.5612 4.32535 19.2892 3.31525 18.8258C2.35683 18.3864 1.48392 17.8504 1.21387 16.7187C1.21387 16.5624 1.21387 16.406 1.21387 16.2497C1.284 16.0553 1.33382 15.8503 1.42733 15.6676C1.74167 15.0565 2.27932 14.6805 2.86496 14.3672C3.87197 13.8275 4.96327 13.542 6.07486 13.3198C6.26187 13.2823 6.45011 13.249 6.6525 13.2115C6.62174 13.1561 6.60697 13.1272 6.58975 13.1001C5.91369 12.0428 5.22963 10.9911 4.56341 9.92831C3.62406 8.43103 3.34847 6.80944 3.71572 5.08262C3.92365 4.1072 4.34811 3.22779 4.97188 2.44992C5.82511 1.38527 6.90102 0.636943 8.21808 0.267085C8.67084 0.140927 9.14451 0.0873873 9.60834 0ZM10.0002 16.2596C10.05 16.1863 10.09 16.1297 10.1275 16.0713C11.5301 13.8724 12.9265 11.6699 14.3377 9.4766C15.4554 7.7387 15.6025 5.92818 14.6828 4.08628C13.8382 2.39454 12.4264 1.40804 10.5422 1.21665C8.55211 1.01419 6.94039 1.7699 5.74083 3.36872C4.47483 5.05677 4.39301 7.49377 5.52306 9.26552C6.97484 11.5407 8.42846 13.8152 9.88147 16.0897C9.91531 16.1427 9.95283 16.1931 9.99958 16.2602L10.0002 16.2596ZM9.99097 18.8572C10.7304 18.8098 11.4717 18.7784 12.2092 18.7113C13.4888 18.5944 14.7437 18.3507 15.9414 17.8713C16.4735 17.6584 16.9933 17.4141 17.3846 16.9728C17.6903 16.6276 17.6848 16.3353 17.3741 15.9888C17.0868 15.6676 16.7227 15.4534 16.3394 15.2712C15.2475 14.7506 14.0793 14.5118 12.8939 14.3303C12.6884 14.2989 12.598 14.3647 12.4971 14.5254C11.8543 15.5494 11.2004 16.5667 10.5526 17.5882C10.432 17.7778 10.2881 17.9242 10.0482 17.9415C9.76582 17.9618 9.58804 17.8141 9.44594 17.5889C8.78157 16.5396 8.11166 15.494 7.44851 14.4441C7.37962 14.3352 7.31687 14.2964 7.18338 14.3241C6.91025 14.3807 6.63097 14.4054 6.35599 14.4564C5.3176 14.6485 4.30012 14.9082 3.36693 15.4245C3.03536 15.6079 2.72532 15.8208 2.5057 16.142C2.35806 16.358 2.33407 16.5913 2.49155 16.7962C2.63981 16.9888 2.81205 17.1747 3.00829 17.3162C3.6173 17.755 4.31796 18.0012 5.03217 18.2043C6.65188 18.6652 8.31158 18.8172 9.99035 18.8572H9.99097Z" fill="#7BC143"/>
<path d="M9.99958 3.55519C11.6113 3.55519 12.9302 4.87769 12.9271 6.48943C12.9241 8.10179 11.5996 9.41937 9.98913 9.41321C8.38479 9.40706 7.07388 8.09317 7.07142 6.4882C7.06896 4.87646 8.38848 3.55457 10.0002 3.55457L9.99958 3.55519ZM10.0002 4.72815C9.04485 4.72753 8.24945 5.52017 8.2433 6.47835C8.23715 7.43161 9.02763 8.22979 9.9879 8.24087C10.9457 8.25195 11.7583 7.44208 11.7546 6.48081C11.7509 5.52325 10.9555 4.72938 10.0002 4.72815Z" fill="#7BC143"/>
</svg>
