<svg width="20" height="20" viewBox="0 0 20 20" fill="none" xmlns="http://www.w3.org/2000/svg">
<path d="M20 4.10602C20.0004 3.67321 19.88 3.25091 19.6555 2.89721C19.6231 2.78899 19.5554 2.69816 19.4658 2.64261C19.2894 2.43927 19.078 2.27754 18.8441 2.16713C18.6102 2.05671 18.3587 1.99987 18.1045 2H1.89548C1.39295 2.00066 0.911172 2.22275 0.555829 2.61757C0.200485 3.01238 0.000592818 3.54767 0 4.10602V15.8937C0.000533542 16.4521 0.2004 16.9875 0.55575 17.3823C0.911099 17.7772 1.39291 17.9993 1.89548 18H18.1045C18.3586 18.0001 18.6101 17.9432 18.8439 17.8329C19.0778 17.7225 19.2892 17.5609 19.4655 17.3576C19.5553 17.302 19.6231 17.211 19.6555 17.1025C19.8801 16.7489 20.0004 16.3266 20 15.8937V4.10602ZM13.1434 10L19.1392 3.79741C19.1635 3.89805 19.1759 4.00181 19.1759 4.10602V15.8937C19.1759 15.998 19.1635 16.1019 19.1392 16.2026L13.1434 10ZM18.1045 2.91538C18.2897 2.91527 18.4718 2.9688 18.6327 3.07068L10.8736 11.0983C10.6417 11.3194 10.3452 11.4389 10.0397 11.4343C9.73414 11.4297 9.44062 11.3014 9.21421 11.0734L1.43785 3.02987C1.58081 2.9543 1.73717 2.91518 1.89548 2.91538H18.1045ZM0.885245 16.2907C0.844539 16.1632 0.82378 16.029 0.823869 15.8937V4.10602C0.823797 3.97086 0.844555 3.83668 0.885245 3.70931L6.9657 10L0.885245 16.2907ZM1.89548 17.0846C1.73717 17.0848 1.58081 17.0457 1.43785 16.9701L7.57006 10.6254L8.65175 11.7454C9.03667 12.1386 9.54118 12.3555 10.0641 12.3527C10.5706 12.3572 11.06 12.1484 11.4336 11.7683L12.5386 10.6254L18.6327 16.9293C18.4718 17.0312 18.2897 17.0847 18.1045 17.0846H1.89548Z" fill="#7BC143"/>
</svg>
