<svg width="20" height="20" viewBox="0 0 20 20" fill="none" xmlns="http://www.w3.org/2000/svg">
<path d="M3.57574 9.57574C3.34142 9.81005 3.34142 10.1899 3.57574 10.4243L7.39411 14.2426C7.62843 14.477 8.00833 14.477 8.24264 14.2426C8.47696 14.0083 8.47696 13.6284 8.24264 13.3941L4.84853 10L8.24264 6.60589C8.47696 6.37157 8.47696 5.99167 8.24264 5.75736C8.00833 5.52304 7.62843 5.52304 7.39411 5.75736L3.57574 9.57574ZM16 10.6C16.3314 10.6 16.6 10.3314 16.6 10C16.6 9.66863 16.3314 9.4 16 9.4V10.6ZM4 10V10.6H16V10V9.4H4V10Z" fill="#4C4F54"/>
</svg>
