<svg width="230" height="230" viewBox="0 0 230 230" fill="none" xmlns="http://www.w3.org/2000/svg">
<path fill-rule="evenodd" clip-rule="evenodd" d="M79.2388 203.836C73.3343 201.592 64.1195 196.661 57.4515 192.179C49.4738 186.816 38.5129 176.588 33.0544 169.413C23.2498 156.526 18.1207 143.418 15.1734 123.716C13.1913 110.467 13.0503 107.103 12.8674 68.6473C12.673 27.7489 12.4957 30.316 15.7365 27.0756C18.8634 23.9483 17.0134 24.0888 55.1016 24.0888C91.8884 24.0888 90.6007 24.0138 93.6398 26.3321C94.416 26.9239 95.5361 28.2336 96.1294 29.2423L97.2076 31.0767L97.3158 65.9221L97.4244 100.767L96.5615 102.773C95.5485 105.128 92.7681 107.752 90.6682 108.335C89.8072 108.574 82.6333 108.738 72.9498 108.739L56.6781 108.742L56.6781 111.252C56.6781 116.969 58.308 126.671 60.3485 133.099C63.061 141.645 67.1998 148.536 73.1949 154.486C78.086 159.342 83.7498 163.197 91.7115 167.093C97.5334 169.941 98.4067 170.648 100.006 173.807C100.43 174.643 100.712 176.134 100.726 177.608C100.746 179.742 100.48 180.608 98.5137 184.817C91.0299 200.834 90.4178 201.85 87.2916 203.445C84.9992 204.614 81.7073 204.774 79.2388 203.836ZM197.318 204.129C195.105 203.72 184.7 198.628 179.065 195.197C161.971 184.786 148.627 170.838 140.819 155.218C135.109 143.797 132.281 132.259 130.289 112.259C129.76 106.945 129.608 98.9981 129.465 69.0498C129.267 27.7025 129.089 30.3208 132.334 27.0756C135.461 23.9487 133.613 24.0888 171.678 24.0888C208.78 24.0888 207.48 24.0081 210.497 26.495C211.288 27.1475 212.401 28.6153 212.97 29.7569L214.004 31.8325L213.996 66.3936C213.987 100.3 213.971 100.989 213.173 102.752C212.239 104.818 210.813 106.426 208.813 107.671C207.448 108.522 207.019 108.547 190.251 108.742L173.087 108.941L173.209 112.136C173.524 120.387 175.515 130.206 178.282 137.143C181.126 144.275 184.532 149.478 189.702 154.584C194.407 159.231 199.21 162.542 206.749 166.336C213.977 169.972 215.997 171.648 216.816 174.686C217.784 178.282 217.274 180.093 212.508 190C209.848 195.529 207.488 199.882 206.578 200.938C204.265 203.62 200.88 204.787 197.318 204.129Z" fill="#005CAB" fill-opacity="0.2"/>
</svg>
