<svg width="50" height="40" viewBox="0 0 50 40" fill="none" xmlns="http://www.w3.org/2000/svg">
<path d="M24.3828 21.46C16.2058 21.46 9.56056 28.3777 9.56056 36.9146C9.55941 37.9501 9.65799 38.9834 9.85493 40H38.9161C39.1104 38.983 39.209 37.95 39.2105 36.9146C39.2105 28.3777 32.5707 21.46 24.3828 21.46Z" fill="white"/>
<path d="M28.6231 18.9214C32.6788 16.5827 34.0706 11.3991 31.7319 7.34346C29.3932 3.28781 24.2096 1.89595 20.1539 4.23465C16.0983 6.57335 14.7064 11.757 17.0451 15.8126C19.3838 19.8683 24.5675 21.2601 28.6231 18.9214Z" fill="white"/>
<path d="M33.5487 15.4303C34.5941 16.19 35.8384 16.6284 37.1292 16.6918C38.42 16.7552 39.7013 16.4409 40.8162 15.7872C41.931 15.1336 42.8311 14.169 43.4062 13.0117C43.9813 11.8543 44.2064 10.5544 44.054 9.27109C43.9017 7.98775 43.3784 6.77669 42.5483 5.7862C41.7181 4.79571 40.6172 4.06876 39.3803 3.69438C38.1433 3.31999 36.8241 3.3144 35.584 3.67831C34.3439 4.04221 33.2369 4.75981 32.3984 5.74325C33.4131 7.1251 34.0524 8.7463 34.254 10.4488C34.4556 12.1513 34.2126 13.877 33.5487 15.4576V15.4303Z" fill="white"/>
<path d="M37.4387 17.8948C34.5776 17.9004 31.8244 18.9869 29.7305 20.9366C30.0739 21.062 30.4119 21.1928 30.7444 21.34C32.691 22.2077 34.4486 23.4486 35.9178 24.9924C37.9295 27.0778 39.3663 29.6491 40.0881 32.4554H48.8102C48.9705 31.6547 49.0545 30.8406 49.061 30.0241C49.061 23.3352 43.8549 17.8948 37.4387 17.8948Z" fill="white"/>
<path d="M18.0276 21.3509C18.431 21.171 18.8345 21.0075 19.2488 20.8658C17.164 18.9588 14.4422 17.8992 11.6168 17.8948C5.20605 17.8948 0 23.3352 0 30.0241C0.00111371 30.8401 0.0796011 31.6542 0.234408 32.4554H8.67857C9.40174 29.6481 10.8383 27.0754 12.8489 24.987C14.3219 23.4494 16.0811 22.2142 18.0276 21.3509Z" fill="white"/>
<path d="M11.6228 16.6901C12.9283 16.697 14.2067 16.3176 15.2971 15.5998C14.5805 13.9709 14.3153 12.1792 14.5292 10.4125C14.7431 8.64587 15.4282 6.96926 16.5127 5.55837C15.765 4.74684 14.8269 4.13429 13.7832 3.77601C12.7395 3.41774 11.623 3.32502 10.5345 3.50622C9.44594 3.68743 8.41969 4.13686 7.54833 4.81394C6.67697 5.49102 5.98794 6.37443 5.54344 7.38444C5.09894 8.39445 4.91295 9.49926 5.00228 10.5991C5.0916 11.699 5.45342 12.7593 6.05508 13.6844C6.65673 14.6094 7.47928 15.3701 8.44848 15.8977C9.41767 16.4253 10.503 16.7032 11.6065 16.7064L11.6228 16.6901Z" fill="white"/>
</svg>
