<svg width="47" height="40" viewBox="0 0 47 40" fill="none" xmlns="http://www.w3.org/2000/svg">
<path d="M1.15738 40H12.7312H19.6755C20.3144 40 20.8329 39.4806 20.8329 38.8406V32.4638H25.4624V38.8406C25.4624 39.4806 25.9809 40 26.6198 40H33.5641H45.1379C45.7768 40 46.2953 39.4806 46.2953 38.8406V13.913C46.2953 13.5055 46.0823 13.1281 45.7334 12.9188L34.7215 6.30029V1.15942C34.7215 0.51942 34.203 0 33.5641 0H12.7312C12.0923 0 11.5738 0.51942 11.5738 1.15942V10.0377L1.78816 3.66551C1.43226 3.43362 0.979145 3.41507 0.605311 3.61855C0.232055 3.82145 0 4.21275 0 4.63768V38.8406C0 39.4806 0.518507 40 1.15738 40ZM37.6149 14.4928H41.0871C41.7259 14.4928 42.2445 15.0122 42.2445 15.6522C42.2445 16.2922 41.7259 16.8116 41.0871 16.8116H37.6149C36.9761 16.8116 36.4575 16.2922 36.4575 15.6522C36.4575 15.0122 36.9761 14.4928 37.6149 14.4928ZM37.6149 19.1304H41.0871C41.7259 19.1304 42.2445 19.6499 42.2445 20.2899C42.2445 20.9299 41.7259 21.4493 41.0871 21.4493H37.6149C36.9761 21.4493 36.4575 20.9299 36.4575 20.2899C36.4575 19.6499 36.9761 19.1304 37.6149 19.1304ZM37.6149 23.7681H41.0871C41.7259 23.7681 42.2445 24.2875 42.2445 24.9275C42.2445 25.5675 41.7259 26.087 41.0871 26.087H37.6149C36.9761 26.087 36.4575 25.5675 36.4575 24.9275C36.4575 24.2875 36.9761 23.7681 37.6149 23.7681ZM37.6149 28.4058H41.0871C41.7259 28.4058 42.2445 28.9252 42.2445 29.5652C42.2445 30.2052 41.7259 30.7246 41.0871 30.7246H37.6149C36.9761 30.7246 36.4575 30.2052 36.4575 29.5652C36.4575 28.9252 36.9761 28.4058 37.6149 28.4058ZM37.6149 33.0435H41.0871C41.7259 33.0435 42.2445 33.5629 42.2445 34.2029C42.2445 34.8429 41.7259 35.3623 41.0871 35.3623H37.6149C36.9761 35.3623 36.4575 34.8429 36.4575 34.2029C36.4575 33.5629 36.9761 33.0435 37.6149 33.0435ZM24.305 5.7971C24.305 5.1571 24.8235 4.63768 25.4624 4.63768H28.9346C29.5734 4.63768 30.0919 5.1571 30.0919 5.7971V9.27536C30.0919 9.91536 29.5734 10.4348 28.9346 10.4348H25.4624C24.8235 10.4348 24.305 9.91536 24.305 9.27536V5.7971ZM24.305 13.913C24.305 13.273 24.8235 12.7536 25.4624 12.7536H28.9346C29.5734 12.7536 30.0919 13.273 30.0919 13.913V17.3913C30.0919 18.0313 29.5734 18.5507 28.9346 18.5507H25.4624C24.8235 18.5507 24.305 18.0313 24.305 17.3913V13.913ZM24.305 22.029C24.305 21.389 24.8235 20.8696 25.4624 20.8696H28.9346C29.5734 20.8696 30.0919 21.389 30.0919 22.029V25.5072C30.0919 26.1472 29.5734 26.6667 28.9346 26.6667H25.4624C24.8235 26.6667 24.305 26.1472 24.305 25.5072V22.029ZM16.2034 5.7971C16.2034 5.1571 16.7219 4.63768 17.3607 4.63768H20.8329C21.4718 4.63768 21.9903 5.1571 21.9903 5.7971V9.27536C21.9903 9.91536 21.4718 10.4348 20.8329 10.4348H17.3607C16.7219 10.4348 16.2034 9.91536 16.2034 9.27536V5.7971ZM16.2034 13.913C16.2034 13.273 16.7219 12.7536 17.3607 12.7536H20.8329C21.4718 12.7536 21.9903 13.273 21.9903 13.913V17.3913C21.9903 18.0313 21.4718 18.5507 20.8329 18.5507H17.3607C16.7219 18.5507 16.2034 18.0313 16.2034 17.3913V13.913ZM16.2034 22.029C16.2034 21.389 16.7219 20.8696 17.3607 20.8696H20.8329C21.4718 20.8696 21.9903 21.389 21.9903 22.029V25.5072C21.9903 26.1472 21.4718 26.6667 20.8329 26.6667H17.3607C16.7219 26.6667 16.2034 26.1472 16.2034 25.5072V22.029ZM5.20822 14.4928H8.68037C9.31924 14.4928 9.83775 15.0122 9.83775 15.6522C9.83775 16.2922 9.31924 16.8116 8.68037 16.8116H5.20822C4.56935 16.8116 4.05084 16.2922 4.05084 15.6522C4.05084 15.0122 4.56935 14.4928 5.20822 14.4928ZM5.20822 19.1304H8.68037C9.31924 19.1304 9.83775 19.6499 9.83775 20.2899C9.83775 20.9299 9.31924 21.4493 8.68037 21.4493H5.20822C4.56935 21.4493 4.05084 20.9299 4.05084 20.2899C4.05084 19.6499 4.56935 19.1304 5.20822 19.1304ZM5.20822 23.7681H8.68037C9.31924 23.7681 9.83775 24.2875 9.83775 24.9275C9.83775 25.5675 9.31924 26.087 8.68037 26.087H5.20822C4.56935 26.087 4.05084 25.5675 4.05084 24.9275C4.05084 24.2875 4.56935 23.7681 5.20822 23.7681ZM5.20822 28.4058H8.68037C9.31924 28.4058 9.83775 28.9252 9.83775 29.5652C9.83775 30.2052 9.31924 30.7246 8.68037 30.7246H5.20822C4.56935 30.7246 4.05084 30.2052 4.05084 29.5652C4.05084 28.9252 4.56935 28.4058 5.20822 28.4058ZM5.20822 33.0435H8.68037C9.31924 33.0435 9.83775 33.5629 9.83775 34.2029C9.83775 34.8429 9.31924 35.3623 8.68037 35.3623H5.20822C4.56935 35.3623 4.05084 34.8429 4.05084 34.2029C4.05084 33.5629 4.56935 33.0435 5.20822 33.0435Z" fill="white"/>
</svg>
