<svg width="47" height="48" viewBox="0 0 47 48" fill="none" xmlns="http://www.w3.org/2000/svg">
<path d="M36.6582 22.3354C31.1442 22.3354 26.6592 26.8204 26.6592 32.3345C26.6592 39.9486 35.7704 46.8756 36.1586 47.1675C36.307 47.2788 36.4826 47.3332 36.6583 47.3332C36.8339 47.3332 37.0096 47.2788 37.158 47.1675C37.5464 46.8756 46.6574 39.9492 46.6574 32.3345C46.6574 26.8204 42.1723 22.3354 36.6582 22.3354ZM36.6582 45.4335C34.7881 43.8973 28.3266 38.1678 28.3266 32.332C28.3266 27.7381 32.0645 24.0004 36.6582 24.0004C41.2521 24.0004 44.9898 27.7383 44.9898 32.332C44.9898 38.1602 38.5258 43.8972 36.6557 45.4335H36.6582Z" fill="white"/>
<path d="M36.6584 26.5012C34.8204 26.5012 33.3262 27.9954 33.3262 29.8334C33.3262 31.6714 34.8204 33.1656 36.6584 33.1656C38.4964 33.1656 39.9906 31.6714 39.9906 29.8334C39.9906 27.9954 38.4964 26.5012 36.6584 26.5012ZM36.6584 31.5008C35.7381 31.5008 34.991 30.7537 34.991 29.8334C34.991 28.9156 35.7381 28.1661 36.6584 28.1661C37.5786 28.1661 38.3257 28.9132 38.3257 29.8334C38.3257 30.7512 37.5786 31.5008 36.6584 31.5008Z" fill="white"/>
<path d="M36.6348 20.6678H23.7442C22.1362 20.6678 20.8275 19.3592 20.8275 17.7512C20.8275 17.0585 20.2685 16.5019 19.5782 16.5019H16.246C14.638 16.5019 13.3294 15.1933 13.3294 13.5853C13.3294 11.9773 14.638 10.6687 16.246 10.6687H21.6612C22.579 10.6687 23.3285 9.91909 23.3285 9.00132C23.3285 8.08355 22.579 7.33399 21.6612 7.33399C19.8207 7.33399 18.329 5.84227 18.329 4.00179V2.35916C18.6036 2.34184 18.8782 2.33442 19.1627 2.33442C19.4472 2.33442 19.7217 2.34184 19.9963 2.35916V4.00179C19.9963 4.91956 20.7459 5.66913 21.6637 5.66913C23.5041 5.66913 24.9959 7.16085 24.9959 9.00132C24.9959 10.8418 23.5041 12.3335 21.6637 12.3335H16.2485C15.5558 12.3335 14.9992 12.8926 14.9992 13.5828C14.9992 14.2755 15.5583 14.8321 16.2485 14.8321H19.5807C21.1887 14.8321 22.4973 16.1407 22.4973 17.7487C22.4973 18.4414 23.0564 18.998 23.7466 18.998H36.6373C36.6546 19.2726 36.662 19.5472 36.662 19.8317C36.662 20.1162 36.6546 20.3908 36.6373 20.6654H36.662C37.2211 20.6654 37.7703 20.7074 38.3047 20.7816C38.322 20.465 38.3294 20.1483 38.3294 19.8317C38.3294 9.26584 29.7306 0.666992 19.1647 0.666992C8.59885 0.666992 0 9.26584 0 19.8317C0 30.3976 8.59885 38.9964 19.1647 38.9964C21.6385 38.9964 24.0059 38.5214 26.1803 37.663C25.4555 35.9883 24.9978 34.1873 24.9978 32.3295C24.9978 25.9047 30.2151 20.6801 36.6397 20.663L36.6348 20.6678ZM19.9938 37.3089C19.7192 37.3262 19.4446 37.3336 19.1601 37.3336C18.8757 37.3336 18.6011 37.3262 18.3265 37.3089V32.7497C18.3265 32.057 17.7674 31.5004 17.0772 31.5004C15.4692 31.5004 14.1605 30.1917 14.1605 28.5837V27.7501C14.1605 27.0574 13.6015 26.5008 12.9112 26.5008H10.4102C8.80225 26.5008 7.49361 25.1922 7.49361 23.5842V21.9168C7.49361 21.2241 6.93453 20.6675 6.24432 20.6675H1.68511C1.6678 20.3929 1.66038 20.1183 1.66038 19.8339C1.66038 19.5494 1.6678 19.2748 1.68511 19.0002H6.24432C7.85231 19.0002 9.16094 20.3088 9.16094 21.9168V23.5842C9.16094 24.2769 9.72002 24.8335 10.4102 24.8335H12.9112C14.5192 24.8335 15.8279 26.1421 15.8279 27.7501V28.5837C15.8279 29.2764 16.3869 29.833 17.0772 29.833C18.6852 29.833 19.9938 31.1417 19.9938 32.7497V37.3089Z" fill="white"/>
</svg>
