<svg width="46" height="46" viewBox="0 0 46 46" fill="none" xmlns="http://www.w3.org/2000/svg">
<path fill-rule="evenodd" clip-rule="evenodd" d="M10.9602 32.4823C10.7266 32.4803 10.4891 32.4189 10.2714 32.2942L7.26063 30.5563C6.68462 30.2237 6.42927 29.5507 6.63709 28.9212L7.72181 25.6413C6.18776 24.0419 5.09509 22.112 4.49136 20.0393L1.10453 19.3366C0.453276 19.202 0 18.6438 0 17.9787V14.5028C0 13.8377 0.455273 13.2795 1.10453 13.1449L4.48741 12.4442C4.7863 11.4208 5.21189 10.4153 5.76808 9.44928C6.32631 8.48334 6.98344 7.61434 7.72181 6.84237L6.63709 3.56242C6.42924 2.93097 6.68459 2.25798 7.26063 1.92738L10.2714 0.189424C10.8474 -0.143122 11.558 -0.0283151 11.9994 0.468525L14.2996 3.04974C16.3958 2.53708 18.6127 2.51726 20.7665 3.04578L23.0647 0.466593C23.5061 -0.0282656 24.2167 -0.143062 24.7928 0.187493L27.8035 1.92545C28.3795 2.25799 28.6348 2.93102 28.427 3.56049L27.9757 4.92432C27.6392 5.06882 27.3285 5.27666 27.0652 5.54193C26.5208 6.08626 26.214 6.82063 26.214 7.59264V10.5974C25.3529 9.26923 24.1732 8.12117 22.7084 7.27593C17.7578 4.41763 11.4254 6.11398 8.56738 11.0646C5.9961 15.5164 7.11052 21.0843 10.9605 24.2398L10.9602 32.4823ZM29.1156 19.9446H39.8123C40.2676 19.9446 40.6812 19.7585 40.9821 19.4577C41.283 19.1568 41.4691 18.7431 41.4691 18.2878L41.4671 7.59313C41.4671 7.13786 41.281 6.72418 40.9802 6.42328C40.6793 6.12238 40.2656 5.93633 39.8103 5.93633H37.526V11.3797H37.5241C37.5241 11.544 37.4587 11.7103 37.3281 11.833C37.0787 12.0685 36.6848 12.0567 36.4492 11.8053L34.4599 9.69918L32.5002 11.7756C32.3854 11.9142 32.2132 12.0033 32.0192 12.0033C31.6748 12.0033 31.3957 11.7242 31.3957 11.3797L31.3976 5.93636H29.1134C28.6581 5.93636 28.2444 6.12243 27.9435 6.42331C27.6426 6.72418 27.4566 7.13791 27.4566 7.59316V18.2899C27.4566 18.7451 27.6426 19.1588 27.9435 19.4597C28.2464 19.7586 28.6603 19.9446 29.1156 19.9446ZM25.7268 34.7114C26.0277 34.4105 26.2137 33.9968 26.2137 33.5416V22.8469C26.2137 22.3916 26.0277 21.9779 25.7268 21.677C25.4259 21.3761 25.0122 21.1901 24.5569 21.1901H22.2727V26.6335H22.2707C22.2707 26.7978 22.2054 26.964 22.0747 27.0868C21.8253 27.3223 21.4314 27.3104 21.1958 27.059L19.2065 24.9529L17.2468 27.0294C17.132 27.168 16.9598 27.257 16.7658 27.257C16.4214 27.257 16.1423 26.9779 16.1423 26.6335L16.1443 21.1922H13.86C13.4047 21.1922 12.991 21.3782 12.6901 21.6791C12.3912 21.978 12.2052 22.3937 12.2052 22.847V33.5437C12.2052 33.999 12.3912 34.4126 12.6921 34.7135C12.993 35.0144 13.4067 35.2005 13.862 35.2005H24.5587C25.012 35.1985 25.4259 35.0123 25.7268 34.7114ZM27.4588 22.8467V33.5434C27.4588 33.9987 27.6449 34.4123 27.9457 34.7132C28.2466 35.0141 28.6603 35.2002 29.1156 35.2002H39.8123C40.2676 35.2002 40.6813 35.0141 40.9822 34.7132C41.2831 34.4124 41.4691 33.9986 41.4691 33.5434L41.4671 22.8467C41.4671 22.3914 41.2811 21.9777 40.9802 21.6768C40.6793 21.3759 40.2656 21.1899 39.8103 21.1899H37.5261V26.6333H37.5241C37.5241 26.7976 37.4588 26.9638 37.3281 27.0865C37.0787 27.3221 36.6848 27.3102 36.4492 27.0588L34.4599 24.9527L32.5002 27.0292C32.3854 27.1678 32.2132 27.2568 32.0192 27.2568C31.6748 27.2568 31.3957 26.9777 31.3957 26.6333L31.3977 21.1919H29.1134C28.6581 21.1919 28.2444 21.378 27.9435 21.6789C27.6466 21.9778 27.4588 22.3934 27.4588 22.8467ZM41.3961 36.7956H4.60244C2.07073 36.7956 0.000253471 38.8661 0.000253471 41.3978C0.000253471 43.9295 2.07073 46 4.60244 46H41.3981C43.9298 46 46.0003 43.9295 46.0003 41.3978C45.9983 38.8661 43.9278 36.7956 41.3961 36.7956ZM5.52064 39.6559C6.48263 39.6559 7.26058 40.4338 7.26058 41.3958C7.26058 42.3578 6.48263 43.1358 5.52064 43.1358C4.56063 43.1358 3.78071 42.3578 3.78071 41.3958C3.77873 40.4358 4.55865 39.6559 5.52064 39.6559ZM40.4774 39.6559C41.4394 39.6559 42.2173 40.4338 42.2173 41.3958C42.2173 42.3578 41.4394 43.1358 40.4774 43.1358C39.5174 43.1358 38.7374 42.3578 38.7374 41.3958C38.7374 40.4358 39.5174 39.6559 40.4774 39.6559ZM33.4859 39.6559C34.4479 39.6559 35.2259 40.4338 35.2259 41.3958C35.2259 42.3578 34.4479 43.1358 33.4859 43.1358C32.5259 43.1358 31.746 42.3578 31.746 41.3958C31.746 40.4358 32.5259 39.6559 33.4859 39.6559ZM26.4945 39.6559C27.4565 39.6559 28.2344 40.4338 28.2344 41.3958C28.2344 42.3578 27.4565 43.1358 26.4945 43.1358C25.5345 43.1358 24.7546 42.3578 24.7546 41.3958C24.7546 40.4358 25.5345 39.6559 26.4945 39.6559ZM19.503 39.6559C20.465 39.6559 21.243 40.4338 21.243 41.3958C21.243 42.3578 20.465 43.1358 19.503 43.1358C18.543 43.1358 17.7631 42.3578 17.7631 41.3958C17.7631 40.4358 18.541 39.6559 19.503 39.6559ZM12.5116 39.6559C13.4716 39.6559 14.2515 40.4338 14.2515 41.3958C14.2515 42.3578 13.4716 43.1358 12.5116 43.1358C11.5516 43.1358 10.7717 42.3578 10.7717 41.3958C10.7717 40.4358 11.5496 39.6559 12.5116 39.6559Z" fill="white"/>
</svg>
