<svg width="40" height="40" viewBox="0 0 40 40" fill="none" xmlns="http://www.w3.org/2000/svg">
<path d="M35.031 32.17H4.9684C4.70985 32.17 4.5 31.9602 4.5 31.7017V2.40478C4.5 2.14631 4.70986 1.93652 4.9684 1.93652H14.3738C14.6323 1.93652 14.8422 2.14633 14.8422 2.40478C14.8422 2.66326 14.6323 2.87304 14.3738 2.87304H5.43688V31.2316H34.5629V2.87304H25.626C25.3675 2.87304 25.1576 2.66324 25.1576 2.40478C25.1576 2.14631 25.3675 1.93652 25.626 1.93652H35.0314C35.2899 1.93652 35.4998 2.14633 35.4998 2.40478V31.7017C35.4998 31.9602 35.2895 32.17 35.031 32.17Z" fill="#7BC143"/>
<path d="M20.0004 28.1568C13.8757 28.1568 8.89258 23.1751 8.89258 17.0523C8.89258 10.9294 13.8757 5.94775 20.0004 5.94775C26.1251 5.94775 31.1082 10.9294 31.1082 17.0523C31.1082 23.1751 26.1251 28.1568 20.0004 28.1568ZM20.0004 6.88616C14.3928 6.88616 9.83127 11.4463 9.83127 17.0523C9.83127 22.6582 14.3928 27.2201 20.0004 27.2201C25.608 27.2201 30.1695 22.66 30.1695 17.054C30.1695 11.448 25.608 6.88616 20.0004 6.88616Z" fill="#7BC143"/>
<path d="M20.0004 6.88616C14.3928 6.88616 9.83127 11.4463 9.83127 17.0523C9.83127 22.6582 14.3928 27.2201 20.0004 27.2201C25.608 27.2201 30.1695 22.66 30.1695 17.054C30.1695 11.448 25.608 6.88616 20.0004 6.88616Z" fill="#7BC143"/>
<path d="M20.0008 26.0036C15.0649 26.0036 11.0488 21.9888 11.0488 17.0544C11.0488 12.1183 15.0648 8.10339 20.0008 8.10339C24.9367 8.10339 28.9527 12.1182 28.9527 17.0527C28.9527 21.9888 24.9367 26.0036 20.0008 26.0036ZM20.0008 9.04137C15.582 9.04137 11.9858 12.6365 11.9858 17.0539C11.9858 21.4713 15.582 25.0652 20.0008 25.0652C24.4195 25.0652 28.0157 21.4701 28.0157 17.0527C28.0157 12.6353 24.4195 9.04137 20.0008 9.04137Z" fill="white"/>
<path d="M19.9997 19.003C18.9236 19.003 18.0488 18.1285 18.0488 17.0526C18.0488 15.9768 18.9236 15.1023 19.9997 15.1023C21.0759 15.1023 21.9507 15.9768 21.9507 17.0526C21.9507 18.1285 21.0759 19.003 19.9997 19.003ZM19.9997 16.0406C19.4407 16.0406 18.9873 16.4954 18.9873 17.0527C18.9873 17.6116 19.4407 18.0664 19.9997 18.0664C20.5588 18.0664 21.0121 17.6116 21.0121 17.0544C21.0121 16.4954 20.5588 16.0406 19.9997 16.0406Z" fill="white"/>
<path d="M20.0455 16.0404C19.881 16.0404 19.7215 15.9531 19.6359 15.7987C19.6124 15.7567 19.0751 14.7748 18.8686 13.3666C18.5916 11.4835 19.0415 9.7312 20.1697 8.29948C20.3292 8.09639 20.6247 8.06114 20.8278 8.22059C21.031 8.38004 21.0662 8.67545 20.9067 8.87851C19.9347 10.1122 19.5586 11.5657 19.7919 13.1989C19.9699 14.4459 20.4517 15.3372 20.4568 15.3456C20.581 15.5722 20.4988 15.8575 20.2721 15.9817C20.1999 16.022 20.1211 16.0404 20.0455 16.0404Z" fill="white"/>
<path d="M18.984 16.4434C18.9403 16.4434 18.8983 16.4367 18.8547 16.4249C18.8094 16.4115 17.7332 16.0976 16.5915 15.2483C15.0637 14.1121 14.142 12.5545 13.9271 10.7454C13.8969 10.4886 14.0799 10.2553 14.3367 10.2251C14.5936 10.1949 14.827 10.3778 14.8572 10.6346C15.3021 14.3892 19.0746 15.5136 19.1116 15.5256C19.36 15.5978 19.5044 15.8562 19.4322 16.1063C19.3751 16.3094 19.1888 16.4434 18.984 16.4434Z" fill="white"/>
<path d="M15.2458 18.2662C13.7683 18.2662 12.4017 17.7979 11.2433 16.8849C11.0401 16.7254 11.0048 16.43 11.1643 16.227C11.3238 16.0239 11.6193 15.9886 11.8225 16.1481C14.7925 18.4878 18.2562 16.6181 18.2897 16.5979C18.5164 16.472 18.8018 16.5543 18.9277 16.7808C19.0536 17.0074 18.9714 17.2928 18.7447 17.4187C18.7027 17.4422 17.7206 17.9793 16.3119 18.1857C15.9526 18.2394 15.5967 18.2662 15.2458 18.2662Z" fill="white"/>
<path d="M13.6343 23.1266C13.3993 23.1266 13.1978 22.9521 13.1693 22.7138C13.1391 22.457 13.3221 22.2237 13.5789 22.1935C17.3347 21.7487 18.4593 17.9773 18.4714 17.9404C18.5436 17.692 18.8021 17.5476 19.0523 17.6198C19.3008 17.692 19.4452 17.9504 19.373 18.2005C19.3595 18.2459 19.0456 19.3217 18.196 20.463C17.0594 21.9904 15.5014 22.9118 13.6917 23.1267L13.6343 23.1266Z" fill="white"/>
<path d="M19.4634 25.9853C19.361 25.9853 19.2602 25.9517 19.1729 25.8846C18.9698 25.7251 18.9345 25.4297 19.094 25.2267C20.0661 23.993 20.4422 22.5395 20.2089 20.9063C20.0309 19.6592 19.549 18.768 19.544 18.7596C19.4198 18.533 19.502 18.2477 19.7287 18.1234C19.9553 17.9992 20.2391 18.0798 20.365 18.3064C20.3885 18.3484 20.9258 19.3302 21.1323 20.7384C21.4093 22.6216 20.9594 24.3739 19.8311 25.8056C19.7388 25.9248 19.6011 25.9853 19.4634 25.9853Z" fill="white"/>
<path d="M25.6056 23.8871C25.3705 23.8871 25.1691 23.7126 25.1405 23.4742C24.6956 19.7196 20.9231 18.5953 20.8862 18.5833C20.6377 18.5111 20.4933 18.2526 20.5655 18.0025C20.6377 17.7541 20.8962 17.6098 21.1464 17.6819C21.1917 17.6954 22.2679 18.0092 23.4096 18.8585C24.9374 19.9948 25.8591 21.5524 26.074 23.3615C26.1042 23.6183 25.9212 23.8516 25.6644 23.8818C25.6425 23.8851 25.624 23.8871 25.6056 23.8871Z" fill="white"/>
<path d="M28.4664 18.0595C28.364 18.0595 28.2633 18.0259 28.176 17.9588C25.206 15.6191 21.7423 17.4888 21.7087 17.509C21.4821 17.6349 21.1967 17.5526 21.0707 17.326C20.9448 17.0994 21.0271 16.8141 21.2537 16.6882C21.294 16.6647 22.2779 16.1276 23.6865 15.9212C25.5703 15.6442 27.323 16.094 28.7552 17.2219C28.9583 17.3814 28.9936 17.6768 28.8341 17.8798C28.7417 17.9973 28.6041 18.0595 28.4664 18.0595Z" fill="white"/>
<path d="M21.0799 16.507C21.0362 16.507 20.9943 16.5003 20.9506 16.4885C20.7021 16.4164 20.5577 16.1579 20.6299 15.9078C20.6434 15.8625 20.9573 14.7866 21.8069 13.6453C22.9435 12.1179 24.5015 11.1965 26.3112 10.9817C26.5681 10.9514 26.8014 11.1344 26.8316 11.3912C26.8619 11.648 26.6789 11.8813 26.422 11.9115C22.6662 12.3563 21.5416 16.1277 21.5295 16.1646C21.4708 16.3727 21.283 16.507 21.0799 16.507Z" fill="white"/>
<path d="M33.1781 35.8742H6.8226C6.00666 35.8742 5.3418 35.2095 5.3418 34.3938V31.7017C5.3418 31.4432 5.55166 31.2334 5.8102 31.2334H34.1888C34.4473 31.2334 34.6572 31.4432 34.6572 31.7017V34.3938C34.6589 35.2095 33.994 35.8742 33.1781 35.8742ZM6.28019 32.1699V34.3938C6.28019 34.6926 6.52363 34.9359 6.82247 34.9359H33.178C33.4768 34.9359 33.7203 34.6926 33.7203 34.3938V32.1699H6.28019Z" fill="#7BC143"/>
<path d="M6.28019 32.1699V34.3938C6.28019 34.6926 6.52363 34.9359 6.82247 34.9359H33.178C33.4768 34.9359 33.7203 34.6926 33.7203 34.3938V32.1699H6.28019Z" fill="#7BC143"/>
<path d="M10.4949 39.9999H9.29785C8.46343 39.9999 7.78516 39.3219 7.78516 38.4877V35.4061C7.78516 35.1476 7.99502 34.9379 8.25356 34.9379H11.5375C11.7961 34.9379 12.0059 35.1477 12.0059 35.4061V38.4877C12.0076 39.3202 11.3277 39.9999 10.4949 39.9999ZM8.722 35.8744V38.4877C8.722 38.8049 8.98055 39.0617 9.29617 39.0617H10.4933C10.8106 39.0617 11.0674 38.8032 11.0674 38.4877V35.8744H8.722Z" fill="#7BC143"/>
<path d="M30.7039 39.9999H29.5068C28.6724 39.9999 27.9941 39.3219 27.9941 38.4877V35.4061C27.9941 35.1476 28.204 34.9379 28.4625 34.9379H31.7465C32.005 34.9379 32.2149 35.1477 32.2149 35.4061V38.4877C32.2166 39.3202 31.5383 39.9999 30.7039 39.9999ZM28.9327 35.8744V38.4877C28.9327 38.8049 29.1912 39.0617 29.5068 39.0617H30.7039C31.0212 39.0617 31.2781 38.8032 31.2781 38.4877V35.8744H28.9327Z" fill="#7BC143"/>
<path d="M24.4212 4.6425H15.5802C15.4257 4.6425 15.2796 4.56529 15.1923 4.43774L12.6656 0.733467C12.5682 0.589123 12.5564 0.4045 12.6387 0.250083C12.721 0.097347 12.8805 0 13.0534 0H26.9481C27.1227 0 27.2822 0.0956713 27.3627 0.250083C27.4433 0.404496 27.4333 0.589123 27.3359 0.733467L24.8091 4.43774C24.7218 4.5653 24.5773 4.6425 24.4212 4.6425ZM15.8269 3.70426H24.1728L26.0615 0.938233H13.9398L15.8269 3.70426Z" fill="#7BC143"/>
<path d="M15.8269 3.70426H24.1728L26.0615 0.938233H13.9398L15.8269 3.70426Z" fill="#7BC143"/>
<path d="M20.2094 2.7893H16.9254C16.6669 2.7893 16.457 2.5795 16.457 2.32104C16.457 2.06257 16.6669 1.85278 16.9254 1.85278H20.2094C20.4679 1.85278 20.6778 2.06258 20.6778 2.32104C20.6795 2.57952 20.4696 2.7893 20.2094 2.7893Z" fill="white"/>
<path d="M23.0748 2.7893H22.1481C21.8895 2.7893 21.6797 2.5795 21.6797 2.32104C21.6797 2.06257 21.8896 1.85278 22.1481 1.85278H23.0748C23.3334 1.85278 23.5432 2.06258 23.5432 2.32104C23.5432 2.57952 23.3334 2.7893 23.0748 2.7893Z" fill="white"/>
<path d="M35.031 30.0419H4.9684C4.70985 30.0419 4.5 29.8321 4.5 29.5736C4.5 29.3151 4.70986 29.1053 4.9684 29.1053L35.031 29.1036C35.2895 29.1036 35.4994 29.3134 35.4994 29.5719C35.4994 29.8321 35.2895 30.0419 35.031 30.0419Z" fill="#7BC143"/>
<path d="M7.49517 6.2301H4.9684C4.70985 6.2301 4.5 6.0203 4.5 5.76184C4.5 5.50336 4.70986 5.29358 4.9684 5.29358H7.49517C7.75372 5.29358 7.96357 5.50338 7.96357 5.76184C7.96357 6.02031 7.7537 6.2301 7.49517 6.2301Z" fill="#7BC143"/>
<path d="M7.49517 8.17688H4.9684C4.70985 8.17688 4.5 7.96707 4.5 7.70862C4.5 7.45014 4.70986 7.24036 4.9684 7.24036H7.49517C7.75372 7.24036 7.96357 7.45016 7.96357 7.70862C7.96357 7.96709 7.7537 8.17688 7.49517 8.17688Z" fill="#7BC143"/>
<path d="M7.49517 10.126H4.9684C4.70985 10.126 4.5 9.91617 4.5 9.65771C4.5 9.39924 4.70986 9.18945 4.9684 9.18945H7.49517C7.75372 9.18945 7.96357 9.39925 7.96357 9.65771C7.96357 9.91619 7.7537 10.126 7.49517 10.126Z" fill="#7BC143"/>
<path d="M35.0323 6.2301H32.5055C32.247 6.2301 32.0371 6.0203 32.0371 5.76184C32.0371 5.50336 32.247 5.29358 32.5055 5.29358H35.0323C35.2908 5.29358 35.5007 5.50338 35.5007 5.76184C35.5007 6.02031 35.2908 6.2301 35.0323 6.2301Z" fill="#7BC143"/>
<path d="M35.0323 8.17688H32.5055C32.247 8.17688 32.0371 7.96707 32.0371 7.70862C32.0371 7.45014 32.247 7.24036 32.5055 7.24036H35.0323C35.2908 7.24036 35.5007 7.45016 35.5007 7.70862C35.5007 7.96709 35.2908 8.17688 35.0323 8.17688Z" fill="#7BC143"/>
<path d="M35.0323 10.126H32.5055C32.247 10.126 32.0371 9.91617 32.0371 9.65771C32.0371 9.39924 32.247 9.18945 32.5055 9.18945H35.0323C35.2908 9.18945 35.5007 9.39925 35.5007 9.65771C35.5007 9.91619 35.2908 10.126 35.0323 10.126Z" fill="#7BC143"/>
</svg>
