<svg width="40" height="40" viewBox="0 0 40 40" fill="none" xmlns="http://www.w3.org/2000/svg">
<path fill-rule="evenodd" clip-rule="evenodd" d="M17.0317 15.9942H17.2099V14.6432C17.2099 14.3877 17.4179 14.1777 17.6754 14.1777C17.9329 14.1777 18.1409 14.3857 18.1409 14.6432V15.9942H19.5353V14.6432C19.5353 14.3877 19.7433 14.1777 20.0008 14.1777C20.2583 14.1777 20.4662 14.3857 20.4662 14.6432V15.9942H21.8607V14.6432C21.8607 14.3877 22.0686 14.1777 22.3261 14.1777C22.5836 14.1777 22.7916 14.3857 22.7916 14.6432V15.9942H22.9699C23.2551 15.9942 23.5165 16.1111 23.7027 16.2993C23.8909 16.4875 24.0077 16.747 24.0077 17.0322V17.2105H25.3586C25.6161 17.2105 25.8241 17.4185 25.8241 17.6761C25.8241 17.9336 25.6161 18.1416 25.3586 18.1416H24.0077V19.5362H25.3586C25.6161 19.5362 25.8241 19.7442 25.8241 20.0017C25.8241 20.2592 25.6161 20.4672 25.3586 20.4672H24.0077V21.8618H25.3586C25.6161 21.8618 25.8241 22.0698 25.8241 22.3273C25.8241 22.5848 25.6161 22.7928 25.3586 22.7928H24.0077V22.9711C24.0077 23.2584 23.8909 23.5179 23.7027 23.7041C23.5145 23.8923 23.2551 24.0091 22.9699 24.0091L22.34 24.0052V25.3562C22.34 25.6137 22.132 25.8217 21.8745 25.8217C21.619 25.8217 21.409 25.6137 21.409 25.3562V24.0052H20.0146V25.3562C20.0146 25.6137 19.8067 25.8217 19.5492 25.8217C19.2917 25.8217 19.0837 25.6137 19.0837 25.3562V24.0052H17.6893V25.3562C17.6893 25.6137 17.4813 25.8217 17.2238 25.8217C16.9663 25.8217 16.7583 25.6137 16.7583 25.3562V23.9695C16.5801 23.922 16.4216 23.8269 16.2949 23.7001C16.1067 23.5119 15.9898 23.2524 15.9898 22.9672V22.7889H14.639C14.3835 22.7889 14.1735 22.5809 14.1735 22.3234C14.1735 22.0658 14.3815 21.8578 14.639 21.8578H15.9898V20.4633H14.639C14.3835 20.4633 14.1735 20.2553 14.1735 19.9977C14.1735 19.7402 14.3815 19.5322 14.639 19.5322H15.9898V18.1376H14.639C14.3835 18.1376 14.1735 17.9296 14.1735 17.6721C14.1735 17.4146 14.3815 17.2066 14.639 17.2066H15.9898V17.0283C15.9898 16.743 16.1067 16.4816 16.2949 16.2953C16.487 16.1111 16.7465 15.9942 17.0317 15.9942ZM17.036 16.9262H22.9661C22.9958 16.9262 23.0216 16.9381 23.0454 16.9579C23.0652 16.9777 23.077 17.0055 23.077 17.0352V22.966C23.077 22.9957 23.0652 23.0234 23.0454 23.0432C23.0255 23.063 22.9978 23.0749 22.9681 23.0749H17.036C17.0063 23.0749 16.9786 23.063 16.9588 23.0432C16.9389 23.0234 16.9271 22.9957 16.9271 22.966V17.0352C16.9271 17.0055 16.9389 16.9777 16.9588 16.9579C16.9786 16.9381 17.0063 16.9262 17.036 16.9262Z" fill="#7BC143"/>
<path fill-rule="evenodd" clip-rule="evenodd" d="M34.8503 8.03494C36.1932 9.70094 37.2628 11.5967 37.9878 13.6549C38.687 15.6378 39.0673 17.7733 39.0673 20C39.0673 25.2675 36.9321 30.0334 33.4815 33.4864C30.0311 36.9372 25.2635 39.0729 19.9987 39.0729C17.7724 39.0729 15.6391 38.6926 13.6564 37.9933C11.951 37.3911 10.3565 36.5551 8.91455 35.5211L11.0755 35.2199C11.329 35.1843 11.5053 34.9505 11.4716 34.697C11.436 34.4434 11.2023 34.2671 10.9487 34.3008L7.68454 34.7564C7.57164 34.7723 7.46469 34.8297 7.38743 34.9248C7.2983 35.0357 7.26859 35.1744 7.29434 35.3052L7.79348 38.4231C7.8331 38.6767 8.07078 38.849 8.32433 38.8074C8.57786 38.7678 8.75018 38.5301 8.70858 38.2765L8.38969 36.2837C9.90098 37.3633 11.5687 38.2389 13.3514 38.8669C15.4331 39.6018 17.6733 40 20.0025 40C25.5249 40 30.524 37.7615 34.1429 34.1422C37.7618 30.5229 40 25.5232 40 20.0001C40 17.6705 39.5999 15.4301 38.867 13.3482C38.1064 11.1909 36.9854 9.20203 35.5771 7.45489C35.4166 7.25481 35.1255 7.22312 34.9254 7.38358C34.7214 7.54403 34.6899 7.83683 34.8503 8.03494ZM5.14769 31.9651C3.80479 30.2991 2.73519 28.4033 2.01025 26.3451C1.31106 24.3622 0.930762 22.2267 0.930762 20C0.930762 14.7325 3.06595 9.96657 6.51655 6.51358C9.96695 3.06276 14.7345 0.927111 20.0013 0.927111C22.2257 0.927111 24.3609 1.30745 26.3437 2.00673C28.0491 2.60893 29.6435 3.44487 31.0875 4.47895L28.9265 4.78005C28.673 4.81571 28.4967 5.04946 28.5304 5.303C28.566 5.55656 28.7998 5.73287 29.0533 5.69919L32.3175 5.24357C32.4304 5.22772 32.5373 5.17027 32.6146 5.07519C32.7037 4.96425 32.7334 4.82559 32.7077 4.69485L32.2085 1.57685C32.1689 1.32329 31.9312 1.15095 31.6777 1.19255C31.4242 1.23217 31.2519 1.46989 31.2934 1.72346L31.6123 3.7163C30.101 2.63668 28.4333 1.76109 26.6506 1.13312C24.5689 0.398193 22.3288 0 19.9995 0C14.4771 0 9.47799 2.23849 5.8591 5.85778C2.2402 9.47706 0 14.4768 0 19.9999C0 22.3295 0.400102 24.5699 1.13298 26.6518C1.89357 28.8091 3.01463 30.798 4.42295 32.5451C4.58338 32.7452 4.87454 32.7769 5.07462 32.6164C5.27665 32.456 5.30813 32.1632 5.14769 31.9651ZM19.999 36.1571C20.1951 36.1571 20.415 36.1511 20.6586 36.1412C20.8983 36.1313 21.1201 36.1175 21.3202 36.1016C21.7222 36.0679 22.0847 35.9075 22.364 35.6559C22.6433 35.4043 22.8414 35.0596 22.9146 34.6615L23.1503 33.3897C23.18 33.2253 23.2533 33.0827 23.3563 32.9698H23.3543C23.4553 32.8608 23.594 32.7776 23.7564 32.734C24.313 32.5855 24.8537 32.3993 25.3806 32.1814C25.9114 31.9615 26.4264 31.7059 26.9216 31.4207C27.0662 31.3375 27.2227 31.2979 27.3732 31.3038C27.5257 31.3098 27.6762 31.3613 27.8149 31.4563L28.7082 32.0704C29.0508 32.3061 29.445 32.4092 29.8312 32.3814C30.2175 32.3557 30.5958 32.1992 30.9008 31.9179C31.1504 31.6881 31.3881 31.4583 31.6119 31.2285C31.8416 30.9908 32.0635 30.7471 32.2754 30.4995C32.5388 30.1925 32.6815 29.822 32.7013 29.4437C32.7211 29.0673 32.6181 28.683 32.3883 28.3502L31.7901 27.4806C31.6951 27.3439 31.6455 27.1914 31.6396 27.0389C31.6336 26.8863 31.6733 26.7318 31.7564 26.5872C32.0417 26.092 32.2972 25.5769 32.517 25.046C32.7349 24.5191 32.9211 23.9763 33.0696 23.4216C33.1132 23.2572 33.1964 23.1205 33.3053 23.0175C33.4163 22.9145 33.5589 22.8432 33.7253 22.8135L34.678 22.6372C35.0801 22.5619 35.4287 22.3599 35.6822 22.0726C35.9357 21.7854 36.0962 21.4149 36.1199 21.0068C36.1298 20.8543 36.1358 20.6859 36.1417 20.5037C36.1477 20.2996 36.1516 20.1332 36.1516 20.0005C36.1516 19.8698 36.1477 19.7014 36.1417 19.4993C36.1358 19.3171 36.1279 19.1487 36.1199 18.9962C36.0942 18.5881 35.9357 18.2176 35.6822 17.9304C35.4287 17.6432 35.0801 17.4411 34.678 17.3658L33.7253 17.1895C33.5609 17.1598 33.4163 17.0885 33.3053 16.9855C33.1944 16.8825 33.1132 16.7458 33.0696 16.5814C32.9211 16.0247 32.7349 15.4819 32.517 14.957C32.2972 14.4261 32.0417 13.9111 31.7564 13.4158C31.6733 13.2712 31.6336 13.1147 31.6396 12.9642C31.6455 12.8116 31.6951 12.6611 31.7901 12.5224L32.3883 11.6528C32.6181 11.32 32.7211 10.9357 32.7013 10.5593C32.6815 10.181 32.5388 9.81051 32.2754 9.5035C32.0615 9.2539 31.8396 9.01024 31.6099 8.77253L31.6079 8.77055C31.3861 8.54076 31.1504 8.31097 30.9008 8.08315C30.5938 7.80185 30.2174 7.64536 29.8312 7.61961C29.445 7.59385 29.0508 7.69488 28.7082 7.93061L27.8149 8.54469C27.6782 8.63977 27.5257 8.6893 27.3732 8.69524C27.2286 8.70119 27.08 8.66553 26.9394 8.59025L26.9196 8.57837C26.4343 8.29905 25.9293 8.04746 25.4024 7.82757L25.3786 7.81767C24.8517 7.59976 24.309 7.41356 23.7544 7.265C23.592 7.22142 23.4554 7.14021 23.3524 7.02927C23.2474 6.91636 23.1761 6.77373 23.1464 6.60932L22.9107 5.33558C22.8374 4.9374 22.6393 4.59472 22.36 4.34116C22.0808 4.08958 21.7183 3.92714 21.3162 3.89544C21.1162 3.8796 20.8963 3.86573 20.6546 3.85582C20.411 3.84592 20.1912 3.83998 19.9931 3.83998C19.797 3.83998 19.5751 3.84592 19.3335 3.85582C19.0938 3.86573 18.874 3.8796 18.6719 3.89544C18.2698 3.92912 17.9074 4.08958 17.6281 4.34116L17.6301 4.34314H17.6281C17.3488 4.5967 17.1507 4.93941 17.0775 5.33558L16.8418 6.60734C16.814 6.76186 16.7487 6.89854 16.6556 7.00551L16.6358 7.0273C16.5328 7.13824 16.3961 7.22144 16.2337 7.26304C15.6791 7.41161 15.1364 7.59782 14.6095 7.8157C14.0787 8.03558 13.5637 8.29113 13.0685 8.57638C12.9239 8.65958 12.7694 8.69722 12.6169 8.69326H12.6149C12.4624 8.68731 12.3119 8.63581 12.1732 8.5427L11.2799 7.92863C10.9373 7.6929 10.5431 7.58989 10.1569 7.61762C9.77067 7.64535 9.39236 7.79987 9.08731 8.08116C8.83774 8.30897 8.60006 8.53876 8.37824 8.76857C8.14848 9.00628 7.92664 9.24994 7.71272 9.49953C7.44929 9.80658 7.30668 10.177 7.28687 10.5554C7.26706 10.9317 7.37006 11.316 7.59982 11.6488L8.198 12.5184C8.29109 12.6551 8.3426 12.8057 8.34854 12.9562V12.9602C8.35448 13.1107 8.31487 13.2672 8.23168 13.4118C7.94646 13.9071 7.69095 14.4221 7.47108 14.953C7.25321 15.48 7.06702 16.0228 6.91849 16.5794C6.87491 16.7438 6.79172 16.8805 6.68279 16.9835C6.57187 17.0865 6.42926 17.1578 6.26288 17.1875L5.31016 17.3638C4.90808 17.4371 4.55946 17.6412 4.30593 17.9284C4.0524 18.2157 3.89196 18.5861 3.86819 18.9942C3.85829 19.1467 3.85234 19.3151 3.8464 19.4973C3.84046 19.7014 3.8365 19.8678 3.8365 19.9985C3.8365 20.1293 3.84046 20.2976 3.8464 20.5017C3.85234 20.6839 3.86027 20.8523 3.86819 21.0049C3.89394 21.4129 4.0524 21.7834 4.30593 22.0706C4.55946 22.3579 4.90806 22.5599 5.31016 22.6352L6.26288 22.8115C6.42728 22.8412 6.56989 22.9145 6.68279 23.0175V23.0155C6.79371 23.1166 6.87492 23.2552 6.91849 23.4177C7.06704 23.9743 7.25323 24.5171 7.47108 25.042C7.69094 25.573 7.94646 26.088 8.23168 26.5832C8.31487 26.7279 8.35448 26.8824 8.34854 27.0329V27.0349C8.3426 27.1874 8.2911 27.338 8.198 27.4766L7.59982 28.3463C7.37006 28.6791 7.26706 29.0634 7.28687 29.4397C7.30668 29.8181 7.44929 30.1885 7.71272 30.4955C7.92664 30.7451 8.14848 30.9888 8.37824 31.2265C8.60008 31.4563 8.83776 31.6861 9.08731 31.9139C9.39432 32.1952 9.77068 32.3517 10.1569 32.3775C10.5412 32.4032 10.9373 32.3022 11.2799 32.0665L12.1732 31.4524C12.3119 31.3573 12.4624 31.3078 12.6149 31.2998C12.7674 31.2939 12.9219 31.3335 13.0665 31.4167C13.5617 31.702 14.0767 31.9575 14.6075 32.1774C15.1344 32.3953 15.6771 32.5815 16.2317 32.7301C16.3961 32.7737 16.5328 32.8568 16.6358 32.9658C16.7388 33.0767 16.8101 33.2194 16.8398 33.3858L17.0755 34.6575C17.1488 35.0557 17.3469 35.3984 17.6261 35.6519C17.9074 35.9055 18.2678 36.066 18.6699 36.0996C18.872 36.1155 19.0918 36.1293 19.3315 36.1393C19.5811 36.1531 19.8029 36.1571 19.999 36.1571ZM19.3751 35.2161C19.5573 35.224 19.7653 35.228 19.999 35.228C20.2327 35.228 20.4407 35.224 20.6229 35.2161C20.8151 35.2082 21.0231 35.1943 21.2489 35.1765C21.441 35.1607 21.6133 35.0854 21.744 34.9665C21.8768 34.8477 21.9698 34.6852 22.0035 34.4951L22.2392 33.2233C22.3026 32.8806 22.4551 32.5815 22.675 32.3418C22.8968 32.1021 23.184 31.9258 23.5168 31.8366C24.0357 31.698 24.5388 31.5256 25.0261 31.3236C25.5213 31.1175 26.0006 30.8818 26.4582 30.6164C26.7572 30.444 27.0861 30.3628 27.4109 30.3767C27.7357 30.3886 28.0566 30.4955 28.3418 30.6917L29.2351 31.3057C29.3975 31.4167 29.5857 31.4662 29.7699 31.4543C29.9521 31.4424 30.1304 31.3671 30.2769 31.2344C30.4988 31.0304 30.7226 30.8145 30.9444 30.5847L30.9464 30.5827C31.1603 30.3608 31.3703 30.1311 31.5723 29.8953C31.6991 29.7487 31.7664 29.5724 31.7764 29.3941C31.7863 29.2158 31.7367 29.0336 31.6258 28.8751L31.0276 28.0075C30.8315 27.7222 30.7266 27.4013 30.7127 27.0765V27.0745C30.7008 26.7496 30.78 26.4227 30.9524 26.1236C31.2158 25.666 31.4535 25.1866 31.6595 24.6914C31.8615 24.2041 32.0318 23.701 32.1725 23.1819C32.2616 22.8491 32.4379 22.5619 32.6775 22.34C32.9172 22.1181 33.2183 21.9656 33.559 21.9022L34.5117 21.7259C34.7058 21.6902 34.8702 21.5952 34.989 21.4605C35.1079 21.3257 35.1831 21.1494 35.195 20.9533C35.2049 20.781 35.2129 20.6225 35.2168 20.4779C35.2208 20.3571 35.2228 20.1986 35.2228 20.0005C35.2228 19.8044 35.2208 19.6459 35.2168 19.5231C35.2129 19.3785 35.2049 19.22 35.195 19.0477C35.1832 18.8515 35.1079 18.6752 34.989 18.5405C34.8702 18.4058 34.7038 18.3107 34.5117 18.2751L33.559 18.0988C33.2183 18.0354 32.9172 17.8829 32.6775 17.661C32.4379 17.4391 32.2616 17.1519 32.1725 16.8191C32.0338 16.3001 31.8615 15.7969 31.6595 15.3096C31.4535 14.8143 31.2178 14.3369 30.9524 13.8773C30.7781 13.5782 30.6988 13.2494 30.7127 12.9245C30.7246 12.5996 30.8316 12.2787 31.0276 11.9935L31.6258 11.1239C31.7348 10.9654 31.7843 10.7831 31.7764 10.6029C31.7664 10.4266 31.6991 10.2503 31.5723 10.1017C31.3703 9.86599 31.1603 9.63421 30.9444 9.41234C30.7226 9.18255 30.5008 8.96662 30.2789 8.76261C30.1324 8.62989 29.9541 8.55461 29.7719 8.54273C29.5877 8.53084 29.3995 8.57839 29.2371 8.6913L28.3438 9.30537C28.0586 9.50149 27.7377 9.60846 27.4129 9.62034C27.0979 9.63223 26.783 9.55894 26.4899 9.39649C26.4849 9.39352 26.4795 9.39105 26.474 9.38857C26.4686 9.38609 26.4631 9.38362 26.4582 9.38065C26.0046 9.11916 25.5332 8.88541 25.0499 8.68335L25.0261 8.67543C24.5389 8.47337 24.0358 8.30103 23.5168 8.16237C23.1821 8.07323 22.8949 7.89692 22.673 7.65723C22.4532 7.41952 22.3006 7.11841 22.2373 6.7757L22.0016 5.50196C21.9659 5.31377 21.8728 5.15133 21.7421 5.03049C21.6094 4.91164 21.439 4.83438 21.2469 4.82052C21.0231 4.80269 20.8131 4.78882 20.623 4.7809C20.4407 4.77297 20.2328 4.76901 19.999 4.76901C19.7653 4.76901 19.5573 4.77297 19.3751 4.7809C19.1849 4.78882 18.975 4.80269 18.7511 4.82052C18.559 4.83636 18.3867 4.91164 18.256 5.03049C18.1252 5.14935 18.0322 5.31179 17.9965 5.50196L17.7608 6.77372C17.7014 7.0986 17.5588 7.38978 17.3508 7.62356L17.3436 7.63292C17.3379 7.64043 17.332 7.64833 17.325 7.65526C17.1032 7.89495 16.816 8.07125 16.4812 8.1604C15.9643 8.29906 15.4592 8.4714 14.9739 8.67345C14.4787 8.87947 13.9994 9.1152 13.5419 9.38063H13.5399C13.2428 9.55297 12.9179 9.63221 12.5951 9.62033H12.5871C12.2623 9.60646 11.9415 9.50147 11.6562 9.30536L10.7629 8.69129C10.6005 8.57837 10.4124 8.53083 10.2281 8.54272C10.0459 8.5546 9.86765 8.62988 9.72108 8.7626C9.49924 8.96663 9.27542 9.18454 9.05161 9.41435C8.83769 9.63622 8.62774 9.86601 8.42569 10.1018C8.29893 10.2483 8.2296 10.4247 8.22168 10.6029C8.21178 10.7812 8.26129 10.9635 8.37023 11.1239L8.96841 11.9935C9.16252 12.2768 9.2675 12.5957 9.28335 12.9186V12.9246C9.29523 13.2494 9.216 13.5783 9.04368 13.8774C8.77826 14.335 8.54256 14.8144 8.33856 15.3096C8.13652 15.7969 7.9642 16.3001 7.82556 16.8191C7.73643 17.1519 7.56015 17.4392 7.32049 17.661C7.08082 17.8829 6.77975 18.0354 6.43906 18.0988L5.48634 18.2751C5.29421 18.3108 5.12783 18.4059 5.00899 18.5406C4.89014 18.6753 4.81488 18.8516 4.803 19.0477C4.79309 19.22 4.78517 19.3785 4.78121 19.5231C4.77725 19.6459 4.77527 19.8024 4.77527 20.0005C4.77527 20.1966 4.77725 20.3551 4.78121 20.4779C4.78517 20.6226 4.79309 20.781 4.803 20.9534C4.81488 21.1495 4.89015 21.3258 5.00899 21.4605C5.12783 21.5952 5.29421 21.6903 5.48634 21.7259L6.43906 21.9023C6.78172 21.9656 7.08277 22.1182 7.32049 22.3381V22.34C7.56015 22.5619 7.73643 22.8491 7.82556 23.182C7.96421 23.701 8.13653 24.2041 8.33856 24.6915C8.54455 25.1867 8.78025 25.6661 9.04566 26.1237C9.21797 26.4208 9.2972 26.7457 9.28532 27.0686V27.0765C9.27344 27.4014 9.16648 27.7223 8.97039 28.0076L8.37419 28.8752C8.26525 29.0337 8.21573 29.2179 8.22365 29.3962C8.23356 29.5725 8.3009 29.7488 8.42766 29.8973C8.6297 30.1351 8.83965 30.3649 9.05358 30.5848C9.2774 30.8145 9.49924 31.0324 9.72305 31.2365C9.86963 31.3692 10.0479 31.4445 10.2301 31.4564C10.4143 31.4683 10.6025 31.4207 10.7649 31.3078L11.6582 30.6937C11.9434 30.4976 12.2643 30.3907 12.5891 30.3788C12.9159 30.3649 13.2428 30.4461 13.5418 30.6185C13.9994 30.8819 14.4787 31.1196 14.9739 31.3256C15.4611 31.5277 15.9642 31.7 16.4832 31.8387C16.816 31.9278 17.1032 32.1041 17.325 32.3438C17.5469 32.5835 17.6994 32.8846 17.7628 33.2254L17.9985 34.4971C18.0341 34.6853 18.1272 34.8498 18.2579 34.9686L18.256 34.9706H18.2579C18.3887 35.0875 18.559 35.1627 18.7531 35.1806C18.9749 35.1964 19.1829 35.2102 19.3751 35.2161Z" fill="#7BC143"/>
<path fill-rule="evenodd" clip-rule="evenodd" d="M19.999 11.2247C17.5766 11.2247 15.382 12.2073 13.7936 13.796C12.2051 15.3847 11.2226 17.5776 11.2226 20.0022C11.2226 22.4249 12.2051 24.6198 13.7936 26.2083C15.3821 27.7971 17.5747 28.7796 19.999 28.7796C22.4214 28.7796 24.6161 27.7971 26.2024 26.2083C27.7909 24.6196 28.7734 22.4248 28.7734 20.0022C28.7734 17.5796 27.7909 15.3846 26.2024 13.796C24.6159 12.2073 22.4212 11.2247 19.999 11.2247ZM19.999 12.1538C22.1657 12.1538 24.1266 13.0314 25.5468 14.4517C26.9669 15.8719 27.8444 17.8332 27.8444 20.0002C27.8444 22.1671 26.9669 24.1282 25.5468 25.5486C24.1268 26.9689 22.1657 27.8465 19.999 27.8465C17.8323 27.8465 15.8714 26.9689 14.4513 25.5486C13.0311 24.1284 12.1537 22.1671 12.1537 20.0002C12.1537 17.8332 13.0311 15.8721 14.4513 14.4517C15.8712 13.0314 17.8323 12.1538 19.999 12.1538Z" fill="#7BC143"/>
<path fill-rule="evenodd" clip-rule="evenodd" d="M19.3751 35.2161C19.5573 35.224 19.7653 35.228 19.999 35.228C20.2327 35.228 20.4407 35.224 20.6229 35.2161C20.8151 35.2082 21.0231 35.1943 21.2489 35.1765C21.441 35.1607 21.6133 35.0854 21.744 34.9665C21.8768 34.8477 21.9698 34.6852 22.0035 34.4951L22.2392 33.2233C22.3026 32.8806 22.4551 32.5815 22.675 32.3418C22.8968 32.1021 23.184 31.9258 23.5168 31.8366C24.0357 31.698 24.5388 31.5256 25.0261 31.3236C25.5213 31.1175 26.0006 30.8818 26.4582 30.6164C26.7572 30.444 27.0861 30.3628 27.4109 30.3767C27.7357 30.3886 28.0566 30.4955 28.3418 30.6917L29.2351 31.3057C29.3975 31.4167 29.5857 31.4662 29.7699 31.4543C29.9521 31.4424 30.1304 31.3671 30.2769 31.2344C30.4988 31.0304 30.7226 30.8145 30.9444 30.5847L30.9464 30.5827C31.1603 30.3608 31.3703 30.1311 31.5723 29.8953C31.6991 29.7487 31.7664 29.5724 31.7764 29.3941C31.7863 29.2158 31.7367 29.0336 31.6258 28.8751L31.0276 28.0075C30.8315 27.7222 30.7266 27.4013 30.7127 27.0765V27.0745C30.7008 26.7496 30.78 26.4227 30.9524 26.1236C31.2158 25.666 31.4535 25.1866 31.6595 24.6914C31.8615 24.2041 32.0318 23.701 32.1725 23.1819C32.2616 22.8491 32.4379 22.5619 32.6775 22.34C32.9172 22.1181 33.2183 21.9656 33.559 21.9022L34.5117 21.7259C34.7058 21.6902 34.8702 21.5952 34.989 21.4605C35.1079 21.3257 35.1831 21.1494 35.195 20.9533C35.2049 20.781 35.2129 20.6225 35.2168 20.4779C35.2208 20.3571 35.2228 20.1986 35.2228 20.0005C35.2228 19.8044 35.2208 19.6459 35.2168 19.5231C35.2129 19.3785 35.2049 19.22 35.195 19.0477C35.1832 18.8515 35.1079 18.6752 34.989 18.5405C34.8702 18.4058 34.7038 18.3107 34.5117 18.2751L33.559 18.0988C33.2183 18.0354 32.9172 17.8829 32.6775 17.661C32.4379 17.4391 32.2616 17.1519 32.1725 16.8191C32.0338 16.3001 31.8615 15.7969 31.6595 15.3096C31.4535 14.8143 31.2178 14.3369 30.9524 13.8773C30.7781 13.5782 30.6988 13.2494 30.7127 12.9245C30.7246 12.5996 30.8316 12.2787 31.0276 11.9935L31.6258 11.1239C31.7348 10.9654 31.7843 10.7831 31.7764 10.6029C31.7664 10.4266 31.6991 10.2503 31.5723 10.1017C31.3703 9.86599 31.1603 9.63421 30.9444 9.41234C30.7226 9.18255 30.5008 8.96662 30.2789 8.76261C30.1324 8.62989 29.9541 8.55461 29.7719 8.54273C29.5877 8.53084 29.3995 8.57839 29.2371 8.6913L28.3438 9.30537C28.0586 9.50149 27.7377 9.60846 27.4129 9.62034C27.0979 9.63223 26.783 9.55894 26.4899 9.39649C26.4849 9.39352 26.4795 9.39105 26.474 9.38857C26.4686 9.38609 26.4631 9.38362 26.4582 9.38065C26.0046 9.11916 25.5332 8.88541 25.0499 8.68335L25.0261 8.67543C24.5389 8.47337 24.0358 8.30103 23.5168 8.16237C23.1821 8.07323 22.8949 7.89692 22.673 7.65723C22.4532 7.41952 22.3006 7.11841 22.2373 6.7757L22.0016 5.50196C21.9659 5.31377 21.8728 5.15133 21.7421 5.03049C21.6094 4.91164 21.439 4.83438 21.2469 4.82052C21.0231 4.80269 20.8131 4.78882 20.623 4.7809C20.4407 4.77297 20.2328 4.76901 19.999 4.76901C19.7653 4.76901 19.5573 4.77297 19.3751 4.7809C19.1849 4.78882 18.975 4.80269 18.7511 4.82052C18.559 4.83636 18.3867 4.91164 18.256 5.03049C18.1252 5.14935 18.0322 5.31179 17.9965 5.50196L17.7608 6.77372C17.7014 7.0986 17.5588 7.38978 17.3508 7.62356L17.3436 7.63292C17.3379 7.64043 17.332 7.64833 17.325 7.65526C17.1032 7.89495 16.816 8.07125 16.4812 8.1604C15.9643 8.29906 15.4592 8.4714 14.9739 8.67345C14.4787 8.87947 13.9994 9.1152 13.5419 9.38063H13.5399C13.2428 9.55297 12.9179 9.63221 12.5951 9.62033H12.5871C12.2623 9.60646 11.9415 9.50147 11.6562 9.30536L10.7629 8.69129C10.6005 8.57837 10.4124 8.53083 10.2281 8.54272C10.0459 8.5546 9.86765 8.62988 9.72108 8.7626C9.49924 8.96663 9.27542 9.18454 9.05161 9.41435C8.83769 9.63622 8.62774 9.86601 8.42569 10.1018C8.29893 10.2483 8.2296 10.4247 8.22168 10.6029C8.21178 10.7812 8.26129 10.9635 8.37023 11.1239L8.96841 11.9935C9.16252 12.2768 9.2675 12.5957 9.28335 12.9186V12.9246C9.29523 13.2494 9.216 13.5783 9.04368 13.8774C8.77826 14.335 8.54256 14.8144 8.33856 15.3096C8.13652 15.7969 7.9642 16.3001 7.82556 16.8191C7.73643 17.1519 7.56015 17.4392 7.32049 17.661C7.08082 17.8829 6.77975 18.0354 6.43906 18.0988L5.48634 18.2751C5.29421 18.3108 5.12783 18.4059 5.00899 18.5406C4.89014 18.6753 4.81488 18.8516 4.803 19.0477C4.79309 19.22 4.78517 19.3785 4.78121 19.5231C4.77725 19.6459 4.77527 19.8024 4.77527 20.0005C4.77527 20.1966 4.77725 20.3551 4.78121 20.4779C4.78517 20.6226 4.79309 20.781 4.803 20.9534C4.81488 21.1495 4.89015 21.3258 5.00899 21.4605C5.12783 21.5952 5.29421 21.6903 5.48634 21.7259L6.43906 21.9023C6.78172 21.9656 7.08277 22.1182 7.32049 22.3381V22.34C7.56015 22.5619 7.73643 22.8491 7.82556 23.182C7.96421 23.701 8.13653 24.2041 8.33856 24.6915C8.54455 25.1867 8.78025 25.6661 9.04566 26.1237C9.21797 26.4208 9.2972 26.7457 9.28532 27.0686V27.0765C9.27344 27.4014 9.16648 27.7223 8.97039 28.0076L8.37419 28.8752C8.26525 29.0337 8.21573 29.2179 8.22365 29.3962C8.23356 29.5725 8.3009 29.7488 8.42766 29.8973C8.6297 30.1351 8.83965 30.3649 9.05358 30.5848C9.2774 30.8145 9.49924 31.0324 9.72305 31.2365C9.86963 31.3692 10.0479 31.4445 10.2301 31.4564C10.4143 31.4683 10.6025 31.4207 10.7649 31.3078L11.6582 30.6937C11.9434 30.4976 12.2643 30.3907 12.5891 30.3788C12.9159 30.3649 13.2428 30.4461 13.5418 30.6185C13.9994 30.8819 14.4787 31.1196 14.9739 31.3256C15.4611 31.5277 15.9642 31.7 16.4832 31.8387C16.816 31.9278 17.1032 32.1041 17.325 32.3438C17.5469 32.5835 17.6994 32.8846 17.7628 33.2254L17.9985 34.4971C18.0341 34.6853 18.1272 34.8498 18.2579 34.9686L18.256 34.9706H18.2579C18.3887 35.0875 18.559 35.1627 18.7531 35.1806C18.9749 35.1964 19.1829 35.2102 19.3751 35.2161ZM13.7936 13.796C15.382 12.2073 17.5766 11.2247 19.999 11.2247C22.4212 11.2247 24.6159 12.2073 26.2024 13.796C27.7909 15.3846 28.7734 17.5796 28.7734 20.0022C28.7734 22.4248 27.7909 24.6196 26.2024 26.2083C24.6161 27.7971 22.4214 28.7796 19.999 28.7796C17.5747 28.7796 15.3821 27.7971 13.7936 26.2083C12.2051 24.6198 11.2226 22.4249 11.2226 20.0022C11.2226 17.5776 12.2051 15.3847 13.7936 13.796Z" fill="#7BC143"/>
</svg>
