<svg width="74" height="80" viewBox="0 0 74 80" fill="none" xmlns="http://www.w3.org/2000/svg">
<path fill-rule="evenodd" clip-rule="evenodd" d="M6.45764 0.000203188C3.10976 0.000203188 0.370117 2.73642 0.370117 6.07966V73.9205C0.370117 77.2638 3.10976 80 6.45764 80H32.8576C33.0387 79.9993 33.2179 79.9629 33.3849 79.8929C33.552 79.823 33.7036 79.7208 33.8312 79.5922C33.9587 79.4637 34.0597 79.3112 34.1284 79.1437C34.197 78.9761 34.232 78.7966 34.2313 78.6155C34.2299 78.2516 34.0847 77.903 33.8274 77.6457C33.5701 77.3884 33.2215 77.2432 32.8576 77.2418H6.45764C4.58586 77.2418 3.12836 75.7775 3.12836 73.9205V6.07966C3.12836 4.22274 4.58586 2.75845 6.45764 2.75845H39.6993V14.2439C39.6993 17.5872 42.4389 20.3207 45.7868 20.3207H57.2992V41.2823C57.3 41.4634 57.3363 41.6426 57.4063 41.8096C57.4762 41.9767 57.5784 42.1283 57.707 42.2559C57.8356 42.3834 57.988 42.4844 58.1556 42.5531C58.3232 42.6217 58.5027 42.6567 58.6838 42.656C59.0481 42.6553 59.3974 42.5104 59.6553 42.253C59.9132 41.9956 60.0588 41.6466 60.0602 41.2823V18.947C60.0579 18.9262 60.0551 18.9056 60.0519 18.885C60.0478 18.8116 60.0378 18.7386 60.0221 18.6668C60.0149 18.6269 60.0058 18.5874 59.995 18.5483C59.9673 18.4576 59.9303 18.37 59.8846 18.287C59.8769 18.2707 59.8689 18.2545 59.8606 18.2385C59.802 18.1404 59.7314 18.0499 59.6505 17.9692L42.0505 0.406934C41.9345 0.294479 41.7995 0.203299 41.6519 0.137556C41.6157 0.121557 41.5789 0.107123 41.5415 0.0942925C41.42 0.0507392 41.2931 0.0244382 41.1643 0.0161584C41.1376 0.00996887 41.1106 0.00458041 41.0835 0L6.45764 0.000203188ZM42.4575 4.70323L46.9532 9.18806L55.341 17.5625H45.7868C43.915 17.5625 42.4575 16.1009 42.4575 14.2439V4.70323ZM22.8697 13.1234C15.8059 13.1234 10.0536 18.8688 10.0536 25.9207C10.0536 32.9726 15.8059 38.7179 22.8697 38.7179C29.9335 38.7179 35.6966 32.9726 35.6966 25.9207C35.6966 18.8688 29.9335 13.1234 22.8697 13.1234ZM22.8697 15.8816C28.4466 15.8816 32.9384 20.3631 32.9384 25.9207C32.9384 31.4783 28.4466 35.9597 22.8697 35.9597C19.9243 35.9597 17.2843 34.7094 15.4489 32.7112L23.562 28.0378C23.7716 27.9174 23.9458 27.7441 24.0673 27.5351C24.1888 27.3262 24.2533 27.089 24.2542 26.8473V15.984H21.496V26.0419L13.9916 30.3597L15.166 32.388C13.6958 30.6431 12.8118 28.3879 12.8118 25.9207C12.8118 20.3631 17.2928 15.8816 22.8697 15.8816ZM12.0684 45.7024C11.8873 45.7017 11.7078 45.7367 11.5402 45.8054C11.3726 45.874 11.2202 45.975 11.0916 46.1026C10.9631 46.2301 10.8609 46.3818 10.7909 46.5488C10.721 46.7159 10.6846 46.8951 10.6839 47.0762C10.6846 47.2573 10.721 47.4365 10.7909 47.6035C10.8609 47.7706 10.9631 47.9222 11.0916 48.0498C11.2202 48.1773 11.3726 48.2783 11.5402 48.347C11.7078 48.4156 11.8873 48.4506 12.0684 48.4499H48.3619C48.543 48.4506 48.7225 48.4156 48.8901 48.347C49.0577 48.2783 49.2101 48.1773 49.3387 48.0498C49.4672 47.9222 49.5694 47.7706 49.6394 47.6035C49.7093 47.4365 49.7457 47.2573 49.7464 47.0762C49.7457 46.8951 49.7093 46.7159 49.6394 46.5488C49.5694 46.3818 49.4672 46.2301 49.3387 46.1026C49.2101 45.975 49.0577 45.874 48.8901 45.8054C48.7225 45.7367 48.543 45.7017 48.3619 45.7024H12.0684ZM61.7895 47.7469C61.4256 47.7483 61.077 47.8935 60.8197 48.1508C60.5624 48.4082 60.4172 48.7567 60.4157 49.1206V58.5293H51.3356C51.1543 58.5297 50.9748 58.5658 50.8075 58.6356C50.6401 58.7055 50.4882 58.8076 50.3603 58.9362C50.2325 59.0648 50.1312 59.2173 50.0624 59.3851C49.9936 59.5528 49.9585 59.7325 49.9592 59.9138V66.9791H40.8791C40.6971 66.9785 40.5167 67.0138 40.3485 67.0831C40.1802 67.1525 40.0273 67.2544 39.8986 67.3831C39.7699 67.5118 39.6679 67.6647 39.5986 67.833C39.5292 68.0013 39.4939 68.1816 39.4946 68.3637V78.6155C39.4939 78.7975 39.5292 78.9778 39.5986 79.1461C39.6679 79.3144 39.7699 79.4673 39.8986 79.596C40.0273 79.7247 40.1802 79.8267 40.3485 79.896C40.5167 79.9653 40.6971 80.0007 40.8791 80H51.3356H61.7895H72.2541C72.4354 79.9996 72.6149 79.9635 72.7823 79.8937C72.9496 79.8239 73.1016 79.7217 73.2294 79.5931C73.3573 79.4646 73.4585 79.312 73.5273 79.1442C73.5961 78.9765 73.6312 78.7968 73.6305 78.6155V49.1206C73.6291 48.7563 73.4835 48.4073 73.2256 48.1499C72.9677 47.8925 72.6185 47.7476 72.2541 47.7469H61.7895ZM63.174 50.5051H70.8696V77.2418H63.174V59.9138V50.5051ZM12.2623 56.0458C12.0812 56.0451 11.9018 56.0801 11.7342 56.1488C11.5666 56.2174 11.4141 56.3184 11.2856 56.446C11.157 56.5735 11.0548 56.7252 10.9849 56.8922C10.9149 57.0593 10.8785 57.2385 10.8778 57.4196C10.8771 57.6016 10.9124 57.7819 10.9818 57.9502C11.0511 58.1185 11.1531 58.2715 11.2818 58.4002C11.4105 58.5289 11.5634 58.6308 11.7317 58.7001C11.9 58.7695 12.0803 58.8048 12.2623 58.8041H28.9384C29.1204 58.8048 29.3008 58.7695 29.4691 58.7001C29.6374 58.6308 29.7903 58.5289 29.919 58.4002C30.0477 58.2715 30.1496 58.1185 30.219 57.9502C30.2883 57.7819 30.3236 57.6016 30.3229 57.4196C30.3222 57.2385 30.2858 57.0593 30.2159 56.8922C30.1459 56.7252 30.0437 56.5735 29.9152 56.446C29.7866 56.3184 29.6342 56.2174 29.4666 56.1488C29.299 56.0801 29.1195 56.0451 28.9384 56.0458H12.2623ZM52.7201 61.2876H60.4157V77.2418H52.7201V68.3637V61.2876ZM42.2528 69.7374H49.9592V77.2418H42.2528V69.7374Z" fill="#7BC143"/>
</svg>
