<svg width="80" height="80" viewBox="0 0 80 80" fill="none" xmlns="http://www.w3.org/2000/svg">
<path d="M40 0C17.944 0 0 17.944 0 40C0 62.056 17.944 80 40 80C42.3151 80 44.6348 79.8008 46.8952 79.4082C47.6204 79.2819 48.1061 78.5918 47.9805 77.8659C47.8548 77.1413 47.1686 76.6556 46.4382 76.7806C44.3288 77.1471 42.1621 77.3333 40 77.3333C19.4141 77.3333 2.66667 60.5859 2.66667 40C2.66667 19.4141 19.4141 2.66667 40 2.66667C60.5859 2.66667 77.3333 19.4141 77.3333 40C77.3333 40.7363 77.9303 41.3333 78.6667 41.3333C79.403 41.3333 80 40.7363 80 40C80 17.944 62.056 0 40 0Z" fill="#7BC143"/>
<path d="M46.3773 68.6387C44.2972 69.0996 42.1514 69.3333 39.999 69.3333C23.8245 69.3333 10.6657 56.1745 10.6657 40C10.6657 23.8255 23.8245 10.6667 39.999 10.6667C50.7425 10.6667 60.6162 16.5312 65.7673 25.972C66.1208 26.6178 66.9294 26.8581 67.5765 26.5039C68.223 26.151 68.4613 25.3411 68.1084 24.6947C62.4899 14.3971 51.7191 8 39.999 8C22.3538 8 7.99902 22.3555 7.99902 40C7.99902 57.6445 22.3538 72 39.999 72C42.3454 72 44.6852 71.7448 46.9541 71.2415C47.6735 71.0827 48.1266 70.3704 47.9671 69.6517C47.8076 68.9329 47.0947 68.4766 46.3773 68.6387Z" fill="#7BC143"/>
<path d="M47.9404 61.2791C47.7236 60.5747 46.9762 60.1815 46.2738 60.3963C44.251 61.0187 42.1397 61.3338 39.999 61.3338C28.236 61.3338 18.6657 51.7635 18.6657 40.0005C18.6657 28.2375 28.236 18.6672 39.999 18.6672C40.7354 18.6672 41.3324 18.0701 41.3324 17.3338C41.3324 16.5975 40.7354 16.0005 39.999 16.0005C26.7653 16.0005 15.999 26.7668 15.999 40.0005C15.999 53.2342 26.7653 64.0005 39.999 64.0005C42.4053 64.0005 44.7803 63.6457 47.0576 62.9458C47.7614 62.729 48.1566 61.9829 47.9404 61.2791Z" fill="#7BC143"/>
<path d="M60.6191 25.5732C60.0983 25.0524 59.2546 25.0524 58.7337 25.5732L51.1914 33.1156C43.3932 40.9137 43.3932 53.6025 51.1914 61.4001L58.7333 68.942C58.8562 69.065 59.0037 69.1624 59.1669 69.2301C59.3299 69.2975 59.5028 69.333 59.6764 69.333C59.8501 69.333 60.0229 69.2975 60.186 69.2301C60.3491 69.1624 60.4967 69.065 60.6195 68.942L68.1615 61.4001C75.9596 53.6025 75.9596 40.9137 68.1615 33.1156L60.6191 25.5732ZM66.276 59.5146L61.0098 64.7809V61.0094L65.3333 56.6859C65.8542 56.165 65.8542 55.3213 65.3333 54.8005C64.8125 54.2796 63.9687 54.2796 63.4479 54.8005L61.0098 57.2386V53.4671L65.3333 49.1436C65.8542 48.6227 65.8542 47.779 65.3333 47.2581C64.8125 46.7373 63.9687 46.7373 63.4479 47.2581L61.0098 49.6963V45.9242L65.3333 41.6012C65.8542 41.0811 65.8542 40.2367 65.3333 39.7158C64.8125 39.195 63.9687 39.195 63.4479 39.7158L61.0098 42.1536V34.0583C61.0098 33.3219 60.4128 32.7249 59.6764 32.7249C58.9401 32.7249 58.3431 33.3219 58.3431 34.0583V42.1536L55.9049 39.7158C55.3841 39.195 54.5404 39.195 54.0195 39.7158C53.4987 40.2367 53.4987 41.0811 54.0195 41.6012L58.3431 45.9242V49.6963L55.9049 47.2581C55.3841 46.7373 54.5404 46.7373 54.0195 47.2581C53.4987 47.779 53.4987 48.6227 54.0195 49.1436L58.3431 53.4671V57.2386L55.9049 54.8005C55.3841 54.2796 54.5404 54.2796 54.0195 54.8005C53.4987 55.3213 53.4987 56.165 54.0195 56.6859L58.3431 61.0094V64.7809L53.0768 59.5146C46.319 52.7562 46.319 41.7594 53.0768 35.001L59.6764 28.4014L66.276 35.001C73.0339 41.7594 73.0339 52.7562 66.276 59.5146Z" fill="#7BC143"/>
</svg>
