<svg width="41" height="41" viewBox="0 0 41 41" fill="none" xmlns="http://www.w3.org/2000/svg">
<path d="M33.3784 19.6412V22.7319H40.5898V19.6412H33.3784ZM31.4897 14.1467C31.9636 14.1467 32.3482 14.5313 32.3482 15.0052V27.3679C32.3482 27.8418 31.9636 28.2264 31.4897 28.2264H29.2575V14.1468L31.4897 14.1467ZM4.01714 11.3995H4.87565V30.9735H4.01714C2.03226 30.9735 0.411381 29.3527 0.411381 27.3678V15.0051C0.411381 13.0203 2.03226 11.3995 4.01714 11.3995ZM5.39077 36.1247H28.7424C29.2163 36.1247 29.6009 36.5094 29.6009 36.9833V37.8418H4.53235V36.9833C4.53235 36.5094 4.91688 36.1247 5.39077 36.1247ZM12.7464 32.0039H21.3864C21.5237 33.247 22.1556 34.3459 23.0828 35.0945H11.0498C11.9771 34.3459 12.609 33.247 12.7464 32.0039ZM5.90593 11.3995V30.9735H27.3688C27.8427 30.9735 28.2273 30.5889 28.2273 30.115V12.2579C28.2273 11.784 27.8427 11.3994 27.3688 11.3994L5.90593 11.3995ZM7.62294 27.3678C7.62294 26.3239 8.46774 25.4791 9.51169 25.4791H24.6216C25.6655 25.4791 26.5103 26.3239 26.5103 27.3678C26.5103 28.4118 25.6655 29.2566 24.6216 29.2566H9.51169C8.46774 29.2566 7.62294 28.4118 7.62294 27.3678ZM7.62294 21.1867C7.62294 20.1428 8.46774 19.298 9.51169 19.298H24.6216C25.6655 19.298 26.5103 20.1428 26.5103 21.1867C26.5103 22.2307 25.6655 23.0755 24.6216 23.0755H9.51169C8.46774 23.0755 7.62294 22.2307 7.62294 21.1867ZM7.62294 15.0056C7.62294 13.9617 8.46774 13.1169 9.51169 13.1169H24.6216C25.6655 13.1169 26.5103 13.9617 26.5103 15.0056C26.5103 16.0496 25.6655 16.8944 24.6216 16.8944H9.51169C8.46774 16.8944 7.62294 16.0496 7.62294 15.0056ZM12.0871 5.90541V10.3696H22.0458V5.90541H12.0871ZM17.9249 8.13754C17.9249 7.4782 18.4675 6.93561 19.1269 6.93561C19.7862 6.93561 20.3288 7.4782 20.3288 8.13754C20.3288 8.79688 19.7862 9.33948 19.1269 9.33948C18.4675 9.33948 17.9249 8.79688 17.9249 8.13754ZM13.804 8.13754C13.804 7.4782 14.3466 6.93561 15.006 6.93561C15.6653 6.93561 16.2079 7.4782 16.2079 8.13754C16.2079 8.79688 15.6653 9.33948 15.006 9.33948C14.3466 9.33948 13.804 8.79688 13.804 8.13754ZM23.4194 3.1582V4.87521H10.7135V3.1582H23.4194ZM9.51129 14.1472H24.6212C25.0951 14.1472 25.4797 14.5318 25.4797 15.0057C25.4797 15.4796 25.0951 15.8642 24.6212 15.8642H9.51129C9.0374 15.8642 8.65279 15.4796 8.65279 15.0057C8.65279 14.5318 9.0374 14.1472 9.51129 14.1472ZM9.51129 26.5099H24.6212C25.0951 26.5099 25.4797 26.8945 25.4797 27.3684C25.4797 27.8422 25.0951 28.2269 24.6212 28.2269H9.51129C9.0374 28.2269 8.65279 27.8422 8.65279 27.3684C8.65279 26.8945 9.0374 26.5099 9.51129 26.5099ZM9.51129 20.3288H24.6212C25.0951 20.3288 25.4797 20.7134 25.4797 21.1873C25.4797 21.6611 25.0951 22.0458 24.6212 22.0458H9.51129C9.0374 22.0458 8.65279 21.6611 8.65279 21.1873C8.65279 20.7134 9.0374 20.3288 9.51129 20.3288Z" fill="#7BC143"/>
</svg>
