<svg width="41" height="41" viewBox="0 0 41 41" fill="none" xmlns="http://www.w3.org/2000/svg">
<path fill-rule="evenodd" clip-rule="evenodd" d="M26.9033 21.1729C28.5497 21.1808 30.1025 20.0287 30.1199 18.3762L30.1215 11.4918C30.1215 11.1161 29.9437 10.7768 29.6595 10.5337C29.3896 10.3033 29.0197 10.1597 28.6164 10.1597H12.384C11.6092 10.1565 10.8868 10.7121 10.8805 11.4918V18.3762C10.8805 19.1543 11.2504 19.8598 11.8458 20.368C12.4253 20.8636 13.2254 21.173 14.0987 21.173L26.9033 21.1729ZM29.4611 18.3762V11.4917C29.4484 11.0735 29.034 10.8145 28.6165 10.8161H20.8307V20.5179H26.9033C28.1878 20.5226 29.4388 19.6656 29.4611 18.3762ZM11.5394 11.4917V18.3762C11.5632 19.6688 12.8112 20.5228 14.0972 20.518H20.1698V10.8162H12.384C11.9649 10.8146 11.5521 11.0751 11.5394 11.4917Z" fill="#7BC143"/>
<path fill-rule="evenodd" clip-rule="evenodd" d="M34.8415 38.8067L28.4702 28.6742C30.7024 27.6735 32.3059 25.5207 32.3123 22.9497V9.03859C32.2408 6.21661 29.826 4.2992 26.5697 3.27778V2.05621C26.5697 1.20235 25.8663 0.498427 25.0042 0.500003H15.9959C15.1353 0.498424 14.4304 1.20235 14.4304 2.05621V3.27621C11.1741 4.29734 8.75932 6.21496 8.68779 9.03864V22.9514C8.69414 25.524 10.2992 27.675 12.5299 28.6758L6.15854 38.8067C5.70446 39.5138 6.28714 40.5208 7.12859 40.4924C7.23136 40.4903 7.3438 40.4929 7.46144 40.4956C8.0526 40.5093 8.7753 40.526 9.06395 39.9652L9.76412 38.8525H31.234L31.9342 39.9652C32.039 40.1309 32.1787 40.2651 32.3438 40.355C32.5749 40.5152 33.0433 40.5022 33.4343 40.4913C33.6019 40.4867 33.7552 40.4824 33.8695 40.4923C34.7126 40.5223 35.2956 39.5138 34.8415 38.8067ZM15.9961 1.15657H25.0044C25.9794 1.16563 25.9433 2.17546 25.9147 2.97597L25.911 3.08364C22.5499 2.18243 18.4491 2.18243 15.0895 3.08206L15.0862 2.99139C15.0566 2.18814 15.0187 1.16264 15.9961 1.15657ZM9.3487 22.9497V9.03859C9.3487 6.21819 12.2113 4.39536 15.8757 3.58728C20.8197 2.45406 31.1949 3.03802 31.6538 9.03859V22.9513C31.6443 26.1474 28.9024 28.6362 25.697 28.6301L15.3059 28.6285C12.1004 28.6349 9.35805 26.1459 9.3487 22.9497ZM12.7558 34.0988H28.2449L29.4214 35.9691H11.5794L12.7558 34.0988ZM13.1686 33.4422L14.1577 31.8703H26.8448L27.8339 33.4422H13.1686ZM14.5705 31.2153L15.7851 29.2851H25.2174L26.4319 31.2153H14.5705ZM8.5072 39.6197C8.41671 39.7618 8.28176 39.836 8.11029 39.836C8.02474 39.8318 7.91565 39.8355 7.79583 39.8396C7.233 39.8588 6.43312 39.8861 6.72107 39.1431L13.1575 28.9128C13.7513 29.1101 14.3752 29.2316 15.023 29.2585L8.5072 39.6197ZM10.1774 38.1977L11.1666 36.6258H29.8344L30.8235 38.1977H10.1774ZM33.8701 39.836C33.7803 39.8211 33.6387 39.8286 33.4792 39.837C33.0975 39.857 32.6135 39.8825 32.4936 39.6198L25.9764 29.2581C26.6257 29.2313 27.2497 29.1114 27.8418 28.9125L34.2799 39.1444C34.4609 39.4364 34.2194 39.8534 33.8701 39.836ZM14.2766 23.2102C11.8649 23.2512 11.8633 26.8197 14.2766 26.8608C16.6898 26.8198 16.6914 23.2528 14.2766 23.2102ZM13.4446 25.8633C12.3602 24.7806 14.0178 23.1313 15.1085 24.2092C16.1929 25.2919 14.5353 26.9412 13.4446 25.8633ZM26.7239 23.2102C24.3122 23.2528 24.3106 26.8197 26.7239 26.8608C29.1355 26.8198 29.1371 23.2528 26.7239 23.2102ZM25.8919 25.8633C24.8075 24.7806 26.4651 23.1313 27.5558 24.2092C28.6402 25.2919 26.9826 26.9412 25.8919 25.8633Z" fill="#7BC143"/>
<path fill-rule="evenodd" clip-rule="evenodd" d="M14.4353 8.80849H26.5652C26.8351 8.80849 27.0843 8.70275 27.2685 8.52914C27.4701 8.3429 27.5924 8.07774 27.594 7.78417C27.5896 7.6847 27.5923 7.57014 27.5952 7.44825C27.6058 7.00157 27.6188 6.45645 27.2907 6.19483C27.1034 6.01017 26.8462 5.89496 26.5652 5.89496L14.4353 5.89653C13.8733 5.89496 13.4049 6.35896 13.4065 6.91924C13.3589 7.72417 13.3637 8.77851 14.4353 8.80849ZM14.4369 6.55312C14.2321 6.55312 14.067 6.71726 14.067 6.91928C14.0849 7.00675 14.0773 7.14112 14.0688 7.28953C14.0467 7.6794 14.019 8.16608 14.4353 8.15351H26.5651C26.7683 8.15351 26.9335 7.98778 26.9335 7.78576C26.9161 7.69935 26.9236 7.56657 26.9318 7.41965C26.9538 7.02986 26.9814 6.54051 26.5651 6.55312H14.4369Z" fill="#7BC143"/>
<path fill-rule="evenodd" clip-rule="evenodd" d="M9.3487 22.9497V9.03859C9.3487 6.21819 12.2113 4.39536 15.8757 3.58728C20.8197 2.45406 31.1949 3.03802 31.6538 9.03859V22.9513C31.6443 26.1474 28.9024 28.6362 25.697 28.6301L15.3059 28.6285C12.1004 28.6349 9.35805 26.1459 9.3487 22.9497ZM30.1199 18.3762C30.1025 20.0287 28.5497 21.1808 26.9033 21.1729L14.0987 21.173C13.2254 21.173 12.4253 20.8636 11.8458 20.368C11.2504 19.8598 10.8805 19.1543 10.8805 18.3762V11.4918C10.8868 10.7121 11.6092 10.1565 12.384 10.1597H28.6164C29.0197 10.1597 29.3896 10.3033 29.6595 10.5337C29.9437 10.7768 30.1215 11.1161 30.1215 11.4918L30.1199 18.3762ZM26.5652 8.80849H14.4353C13.3637 8.77851 13.3589 7.72417 13.4065 6.91924C13.4049 6.35896 13.8733 5.89496 14.4353 5.89653L26.5652 5.89496C26.8462 5.89496 27.1034 6.01017 27.2907 6.19483C27.6188 6.45645 27.6058 7.00157 27.5952 7.44825C27.5923 7.57014 27.5896 7.6847 27.594 7.78417C27.5924 8.07774 27.4701 8.3429 27.2685 8.52914C27.0843 8.70275 26.8351 8.80849 26.5652 8.80849ZM14.2766 23.2102C11.8649 23.2512 11.8633 26.8197 14.2766 26.8608C16.6898 26.8198 16.6914 23.2528 14.2766 23.2102ZM26.7239 23.2102C24.3122 23.2528 24.3106 26.8197 26.7239 26.8608C29.1355 26.8198 29.1371 23.2528 26.7239 23.2102Z" fill="#7BC143"/>
</svg>
