<svg width="41" height="42" viewBox="0 0 41 42" fill="none" xmlns="http://www.w3.org/2000/svg">
<path d="M25.8688 7.07312H4.6773C4.50709 7.07312 4.37335 7.20686 4.37335 7.37707V11.3892H3.7229C3.55268 11.3892 3.41895 11.523 3.41895 11.6932V16.1795C3.41895 16.3497 3.55268 16.4835 3.7229 16.4835H4.37335V28.216H3.7229C3.55268 28.216 3.41895 28.3497 3.41895 28.5199V33.0063C3.41895 33.1765 3.55268 33.3102 3.7229 33.3102H4.37335V37.3224C4.37335 37.4926 4.50709 37.6263 4.6773 37.6263H25.8688C26.039 37.6263 26.1727 37.4926 26.1727 37.3224V7.37707C26.1727 7.20686 26.0329 7.07312 25.8688 7.07312ZM4.02685 11.9971H4.67122H5.3156V15.8756H4.02685V11.9971ZM4.02685 28.8239H5.32168V32.7023H4.02685V28.8239ZM25.5648 37.0184H4.98125V33.3102H5.62563C5.79585 33.3102 5.92958 33.1765 5.92958 33.0063V28.5199C5.92958 28.3497 5.79585 28.216 5.62563 28.216H4.98125V16.4835H5.62563C5.79585 16.4835 5.92958 16.3497 5.92958 16.1795V11.6932C5.92958 11.523 5.79585 11.3892 5.62563 11.3892H4.98125V7.68102H25.5648V37.0184Z" fill="white"/>
<path d="M25.5648 37.0184H4.98125V33.3102H5.62563C5.79585 33.3102 5.92958 33.1765 5.92958 33.0063V28.5199C5.92958 28.3497 5.79585 28.216 5.62563 28.216H4.98125V16.4835H5.62563C5.79585 16.4835 5.92958 16.3497 5.92958 16.1795V11.6932C5.92958 11.523 5.79585 11.3892 5.62563 11.3892H4.98125V7.68102H25.5648V37.0184Z" fill="#7BC143"/>
<path d="M4.02685 28.8239H5.32168V32.7023H4.02685V28.8239Z" fill="#7BC143"/>
<path d="M4.02685 11.9971H4.67122H5.3156V15.8756H4.02685V11.9971Z" fill="#7BC143"/>
<path d="M25.8691 7.00281C26.0712 7.003 26.243 7.16687 26.2432 7.37683V37.3221C26.2432 37.5313 26.0783 37.697 25.8691 37.6971H4.67773C4.46845 37.6971 4.30273 37.5314 4.30273 37.3221V33.3807H3.72266C3.51364 33.3806 3.34888 33.2157 3.34863 33.0067V28.5204C3.34863 28.3112 3.51349 28.1455 3.72266 28.1454H4.30273V16.5546H3.72266C3.51351 16.5544 3.34867 16.3887 3.34863 16.1796V11.6932C3.34863 11.484 3.51349 11.3184 3.72266 11.3182H4.30273V7.37683C4.30286 7.16766 4.46853 7.00281 4.67773 7.00281H25.8691Z" stroke="white" stroke-width="0.141489"/>
<path d="M22.167 17.7018C22.8075 17.7018 23.3319 18.225 23.332 18.86C23.332 19.3723 22.9998 19.7963 22.542 19.9537V24.7448C22.9997 24.902 23.3319 25.3259 23.332 25.8326C23.332 26.4735 22.8079 26.9977 22.167 26.9977C21.5263 26.9974 21.0029 26.4734 21.0029 25.8326C21.003 25.3198 21.3353 24.9005 21.793 24.7438V19.9537C21.3351 19.7963 21.0029 19.3724 21.0029 18.86C21.0031 18.2189 21.5269 17.702 22.167 17.7018ZM22.167 25.4235C21.9383 25.4237 21.7521 25.6111 21.752 25.8326C21.752 26.0609 21.9388 26.2484 22.167 26.2487C22.4015 26.2487 22.583 26.0671 22.583 25.8326C22.5829 25.6055 22.3965 25.4235 22.167 25.4235ZM22.167 18.4508C21.9383 18.4511 21.7521 18.6385 21.752 18.86C21.752 19.0882 21.9388 19.2757 22.167 19.276C22.4015 19.276 22.583 19.0945 22.583 18.86C22.5829 18.6329 22.3965 18.4508 22.167 18.4508Z" fill="white" stroke="white" stroke-width="0.141489"/>
<path d="M22.002 31.0695C22.2112 31.0695 22.3768 31.2343 22.377 31.4435C22.377 31.6528 22.2112 31.8185 22.002 31.8185H8.54297C8.3338 31.8184 8.16895 31.6527 8.16895 31.4435C8.16907 31.2344 8.33388 31.0696 8.54297 31.0695H22.002Z" fill="white" stroke="white" stroke-width="0.141489"/>
<path d="M22.002 33.495C22.2112 33.495 22.3768 33.6598 22.377 33.869C22.377 34.0783 22.2112 34.244 22.002 34.244H8.54297C8.3338 34.2439 8.16895 34.0782 8.16895 33.869C8.16907 33.6599 8.33388 33.4951 8.54297 33.495H22.002Z" fill="white" stroke="white" stroke-width="0.141489"/>
<path d="M14.459 13.1241C14.8783 13.1243 15.2601 13.3372 15.4736 13.6993L19.6865 20.7999C19.906 21.1681 19.9125 21.6087 19.6992 21.9835C19.486 22.358 19.1041 22.5781 18.6777 22.5782H10.252C9.82687 22.5782 9.42466 22.3593 9.2168 21.9825C9.01071 21.6089 9.01062 21.1687 9.23047 20.7999L13.4492 13.6993C13.6626 13.3373 14.039 13.1241 14.459 13.1241ZM14.4707 13.8732C14.3132 13.8732 14.178 13.9514 14.0996 14.0822L9.88086 21.1798L9.88184 21.1808C9.80417 21.3154 9.80815 21.4717 9.88281 21.6105C9.95537 21.7452 10.0952 21.8292 10.252 21.8292H18.6895C18.8464 21.8292 18.981 21.7513 19.0596 21.6154C19.1372 21.4808 19.1332 21.3186 19.0537 21.1808V21.1798L14.8418 14.0822C14.7636 13.9518 14.6225 13.8732 14.4707 13.8732Z" fill="white" stroke="white" stroke-width="0.141489"/>
<path d="M14.2246 16.2358C14.3077 16.0409 14.5258 15.9605 14.7178 16.0415C14.9134 16.1243 14.9952 16.3488 14.9131 16.5356L14.1611 18.2427H15.3408C15.4771 18.2427 15.5967 18.3178 15.6631 18.4282C15.7309 18.5413 15.7303 18.6898 15.6631 18.8032L15.6641 18.8042L14.5146 20.7964L14.5156 20.7974C14.4477 20.9181 14.3197 20.9858 14.1924 20.9858C14.1257 20.9858 14.0638 20.9702 14.0029 20.9321V20.9312C13.8253 20.826 13.7649 20.6024 13.8691 20.4233L14.6953 18.9917H13.5908C13.463 18.9917 13.3429 18.9246 13.2754 18.8198C13.209 18.7166 13.1931 18.5809 13.2471 18.4653L14.2246 16.2358Z" fill="white" stroke="white" stroke-width="0.141489"/>
<path d="M37.0488 0.929688C39.0573 0.929795 40.6875 2.55989 40.6875 4.5625C40.6874 6.411 39.3005 7.94142 37.5205 8.16895L34.9609 20.0234C35.2678 20.3322 35.4658 20.7632 35.4658 21.2373V23.4561C35.4658 24.4069 34.6921 25.1797 33.7412 25.1797H29.6113V39.3467C29.6112 40.2975 28.8385 41.0702 27.8877 41.0703H2.65332C1.70253 41.0702 0.929783 40.2975 0.929688 39.3467V5.35254C0.929712 4.40169 1.70249 3.62802 2.65332 3.62793H27.875C28.8259 3.62793 29.5996 4.40163 29.5996 5.35254V19.5127H32.4863L35.0537 7.59668C34.0672 6.94789 33.4092 5.8341 33.4092 4.5625C33.4092 2.55982 35.0402 0.929688 37.0488 0.929688ZM2.65332 4.37793C2.11498 4.37802 1.67874 4.81418 1.67871 5.35254V39.3467C1.67881 39.885 2.11502 40.3212 2.65332 40.3213H27.8877C28.426 40.3212 28.8622 39.885 28.8623 39.3467V5.35254C28.8623 4.81418 28.426 4.37802 27.8877 4.37793H2.65332Z" fill="#7BC143" stroke="#7BC143" stroke-width="0.141489"/>
</svg>
