<svg width="36" height="36" viewBox="0 0 36 36" fill="none" xmlns="http://www.w3.org/2000/svg">
<path d="M8.0977 27.4197V14.5579C8.0977 14.3557 8.26249 14.191 8.46462 14.191C8.66675 14.191 8.83153 14.3558 8.83153 14.5579V27.4197C8.83153 27.6218 8.66675 27.7866 8.46462 27.7866C8.26248 27.7888 8.0977 27.624 8.0977 27.4197Z" fill="white"/>
<path d="M5.41066 27.4197V14.5579C5.41066 14.3557 5.57545 14.191 5.77758 14.191C5.97971 14.191 6.14449 14.3558 6.14449 14.5579V27.4197C6.14449 27.6218 5.97971 27.7866 5.77758 27.7866C5.57544 27.7888 5.41066 27.624 5.41066 27.4197Z" fill="white"/>
<path d="M10.7825 27.4197V14.5579C10.7825 14.3557 10.9473 14.191 11.1495 14.191C11.3516 14.191 11.5164 14.3558 11.5164 14.5579V27.4197C11.5164 27.6218 11.3516 27.7866 11.1495 27.7866C10.9473 27.7888 10.7825 27.624 10.7825 27.4197Z" fill="white"/>
<path fill-rule="evenodd" clip-rule="evenodd" d="M14.0495 21.7028L16.4861 22.3554L14.6954 26.954C14.5746 27.2659 14.6889 27.6065 14.9723 27.7845C15.0865 27.857 15.214 27.8921 15.3392 27.8921C15.5238 27.8921 15.7039 27.8174 15.8401 27.6702L22.1239 20.8791C22.2118 20.7846 22.2426 20.6506 22.2074 20.5276C22.1723 20.4045 22.0734 20.3078 21.9504 20.2749L19.5138 19.6223L21.3044 15.0238C21.4253 14.7118 21.311 14.3712 21.0276 14.1932C20.7442 14.0153 20.3861 14.0636 20.1597 14.3075L13.8759 21.0986C13.788 21.1931 13.7573 21.3271 13.7924 21.4502C13.8276 21.5732 13.9265 21.6699 14.0495 21.7028ZM18.679 19.7362L20.5268 14.9927L14.8274 21.151L17.0728 21.753C17.1739 21.7794 17.2596 21.8497 17.3057 21.942C17.354 22.0343 17.3584 22.1441 17.3211 22.2408L15.4733 26.9844L21.1727 20.826L18.9273 20.224C18.8262 20.1976 18.7405 20.1273 18.6944 20.035C18.646 19.9428 18.6416 19.8329 18.679 19.7362Z" fill="white"/>
<path fill-rule="evenodd" clip-rule="evenodd" d="M35.9992 10.7615C35.9992 11.5722 35.3401 12.2313 34.5294 12.2313L33.5849 12.2318L33.5806 29.7514H34.5253C35.336 29.7514 35.9952 30.4105 35.9952 31.2212V32.155C35.9952 32.9658 35.336 33.6249 34.5253 33.6249H31.423V34.6048C31.423 35.3738 30.7968 36 30.0278 36H28.0504C27.2814 36 26.6553 35.3738 26.6553 34.6048V33.6249H9.33993V34.6048C9.33993 35.3738 8.71374 36 7.94475 36H5.96736C5.19837 36 4.57218 35.3738 4.57218 34.6048V33.6249H1.46988C0.659146 33.6249 0 32.9658 0 32.155V31.2212C0 30.4105 0.659146 29.7514 1.46988 29.7514H2.41464V12.2335H1.46988C0.659146 12.2335 0 11.5744 0 10.7637V9.82986C0 9.01913 0.659146 8.35999 1.46988 8.35999H6.25737V6.81103H5.61144C5.40931 6.81103 5.24452 6.64624 5.24452 6.44411C5.24452 6.24198 5.4093 6.0772 5.61144 6.0772H6.25737V4.91493H5.61144C5.40931 4.91493 5.24452 4.75015 5.24452 4.54802C5.24452 4.34588 5.4093 4.1811 5.61144 4.1811H6.25737V3.01883H5.61144C5.40931 3.01883 5.24452 2.85405 5.24452 2.65192C5.24452 2.44979 5.4093 2.285 5.61144 2.285H6.25737V1.7555C6.25737 0.788741 7.04391 0.00219711 8.01067 0.00219711C8.97742 0.00219711 9.76397 0.788741 9.76397 1.7555V2.285H10.4099C10.612 2.285 10.7768 2.44979 10.7768 2.65192C10.7768 2.85405 10.612 3.01883 10.4099 3.01883H9.76397V4.1811H10.4099C10.612 4.1811 10.7768 4.34588 10.7768 4.54802C10.7768 4.75015 10.612 4.91493 10.4099 4.91493H9.76397V6.0772H10.4099C10.612 6.0772 10.7768 6.24198 10.7768 6.44411C10.7768 6.64624 10.612 6.81103 10.4099 6.81103H9.76397V8.35999H16.2474V6.81103H15.6015C15.3994 6.81103 15.2346 6.64624 15.2346 6.44411C15.2346 6.24198 15.3994 6.0772 15.6015 6.0772H16.2474V4.91493H15.6015C15.3994 4.91493 15.2346 4.75015 15.2346 4.54802C15.2346 4.34588 15.3994 4.1811 15.6015 4.1811H16.2474V3.01883H15.6015C15.3994 3.01883 15.2346 2.85405 15.2346 2.65192C15.2346 2.44979 15.3994 2.285 15.6015 2.285H16.2474V1.7555C16.2474 0.788741 17.034 0.00219711 18.0007 0.00219711C18.9675 0.00219711 19.754 0.788741 19.754 1.7555V2.285H20.4C20.6021 2.285 20.7669 2.44979 20.7669 2.65192C20.7669 2.85405 20.6021 3.01883 20.4 3.01883H19.754V4.1811H20.4C20.6021 4.1811 20.7669 4.34588 20.7669 4.54802C20.7669 4.75015 20.6021 4.91493 20.4 4.91493H19.754V6.0772H20.4C20.6021 6.0772 20.7669 6.24198 20.7669 6.44411C20.7669 6.64624 20.6021 6.81103 20.4 6.81103H19.754V8.35999L26.2353 8.35779V6.80883H25.5893C25.3872 6.80883 25.2224 6.64405 25.2224 6.44192C25.2224 6.23978 25.3872 6.075 25.5893 6.075H26.2353V4.91273H25.5893C25.3872 4.91273 25.2224 4.74795 25.2224 4.54582C25.2224 4.34369 25.3872 4.1789 25.5893 4.1789H26.2353V3.01664H25.5893C25.3872 3.01664 25.2224 2.85185 25.2224 2.64972C25.2224 2.44759 25.3872 2.28281 25.5893 2.28281H26.2353V1.7533C26.2353 0.786544 27.0218 0 27.9886 0C28.9553 0 29.7419 0.786544 29.7419 1.7533V2.28281H30.3878C30.5899 2.28281 30.7547 2.44759 30.7547 2.64972C30.7547 2.85185 30.5899 3.01664 30.3878 3.01664H29.7419V4.1789H30.3878C30.5899 4.1789 30.7547 4.34368 30.7547 4.54582C30.7547 4.74795 30.5899 4.91273 30.3878 4.91273H29.7419V6.075H30.3878C30.5899 6.075 30.7547 6.23978 30.7547 6.44192C30.7547 6.64405 30.5899 6.80883 30.3878 6.80883H29.7419V8.35779H34.5294C35.3401 8.35779 35.9992 9.01694 35.9992 9.82767V10.7615ZM27.9883 0.733756C27.428 0.733756 26.971 1.18856 26.971 1.75102L26.9688 2.28053H29.0056V1.75102C29.0056 1.19076 28.5507 0.733756 27.9883 0.733756ZM29.0077 3.01656H26.971V4.17882H29.0077V3.01656ZM29.0077 4.91267H26.971V6.07493H29.0077V4.91267ZM29.0077 6.81097H26.971V8.35993H29.0077V6.81097ZM18.0001 0.733756C17.4399 0.733756 16.9829 1.18856 16.9829 1.75102L16.9807 2.28053H19.0174V1.75102C19.0174 1.19076 18.5626 0.733756 18.0001 0.733756ZM19.0196 3.01656H16.9829V4.17882H19.0196V3.01656ZM19.0196 4.91267H16.9829V6.07493H19.0196V4.91267ZM19.0196 6.81097H16.9829V8.35993H19.0196V6.81097ZM8.00971 0.733756C7.44944 0.733756 6.99245 1.18856 6.99245 1.75102L6.99025 2.28053H9.02698V1.75102C9.02698 1.19076 8.57217 0.733756 8.00971 0.733756ZM9.02917 3.01656H6.99245V4.17882H9.02917V3.01656ZM9.02917 4.91267H6.99245V6.07493H9.02917V4.91267ZM9.02917 6.81097H6.99245V8.35993H9.02917V6.81097ZM0.737329 9.82755V10.7614C0.737329 11.1656 1.0669 11.4952 1.47117 11.4952H34.5286C34.9329 11.4952 35.2625 11.1656 35.2625 10.7614V9.82755C35.2625 9.42328 34.9329 9.09371 34.5286 9.09371H1.47117C1.0669 9.09371 0.737329 9.42328 0.737329 9.82755ZM7.94593 35.2592C8.31066 35.2592 8.60727 34.9626 8.60727 34.5978V33.6179H5.3072V34.5978C5.3072 34.9626 5.60382 35.2592 5.96854 35.2592H7.94593ZM30.0292 35.2592C30.394 35.2592 30.6906 34.9626 30.6906 34.5978L30.6884 33.6179H27.3905V34.5978C27.3905 34.9626 27.6871 35.2592 28.0518 35.2592H30.0292ZM35.2628 32.1503V31.2165C35.2628 30.8122 34.9332 30.4827 34.5289 30.4827H1.47145C1.06718 30.4827 0.73761 30.8122 0.73761 31.2165V32.1503C0.73761 32.5546 1.06718 32.8841 1.47145 32.8841H34.5289C34.9332 32.8841 35.2628 32.5546 35.2628 32.1503ZM3.14961 29.7488H32.8503L32.8481 12.231H3.14961V29.7488Z" fill="#7BC143"/>
<path fill-rule="evenodd" clip-rule="evenodd" d="M32.8503 29.7488H3.14961V12.231H32.8481L32.8503 29.7488ZM16.4861 22.3554L14.0495 21.7028C13.9265 21.6699 13.8276 21.5732 13.7924 21.4502C13.7573 21.3271 13.788 21.1931 13.8759 21.0986L20.1597 14.3075C20.3861 14.0636 20.7442 14.0153 21.0276 14.1932C21.311 14.3712 21.4253 14.7118 21.3044 15.0238L19.5138 19.6223L21.9504 20.2749C22.0734 20.3078 22.1723 20.4045 22.2074 20.5276C22.2426 20.6506 22.2118 20.7846 22.1239 20.8791L15.8401 27.6702C15.7039 27.8174 15.5238 27.8921 15.3392 27.8921C15.214 27.8921 15.0865 27.857 14.9723 27.7845C14.6889 27.6065 14.5746 27.2659 14.6954 26.954L16.4861 22.3554ZM5.41066 14.5579V27.4197C5.41066 27.624 5.57544 27.7888 5.77758 27.7866C5.97971 27.7866 6.14449 27.6218 6.14449 27.4197V14.5579C6.14449 14.3558 5.97971 14.191 5.77758 14.191C5.57545 14.191 5.41066 14.3557 5.41066 14.5579ZM8.0977 14.5579V27.4197C8.0977 27.624 8.26248 27.7888 8.46462 27.7866C8.66675 27.7866 8.83153 27.6218 8.83153 27.4197V14.5579C8.83153 14.3558 8.66675 14.191 8.46462 14.191C8.26249 14.191 8.0977 14.3557 8.0977 14.5579ZM10.7825 14.5579V27.4197C10.7825 27.624 10.9473 27.7888 11.1495 27.7866C11.3516 27.7866 11.5164 27.6218 11.5164 27.4197V14.5579C11.5164 14.3558 11.3516 14.191 11.1495 14.191C10.9473 14.191 10.7825 14.3557 10.7825 14.5579ZM24.4813 14.5579V27.4197C24.4813 27.624 24.646 27.7888 24.8482 27.7866C25.0503 27.7866 25.2151 27.6218 25.2151 27.4197V14.5579C25.2151 14.3558 25.0503 14.191 24.8482 14.191C24.646 14.191 24.4813 14.3557 24.4813 14.5579ZM27.1683 14.5579V27.4197C27.1683 27.624 27.3331 27.7888 27.5352 27.7866C27.7373 27.7866 27.9021 27.6218 27.9021 27.4197V14.5579C27.9021 14.3558 27.7373 14.191 27.5352 14.191C27.3331 14.191 27.1683 14.3557 27.1683 14.5579ZM29.8531 14.5579V27.4197C29.8531 27.624 30.0179 27.7888 30.2201 27.7866C30.4222 27.7866 30.587 27.6218 30.587 27.4197V14.5579C30.587 14.3558 30.4222 14.191 30.2201 14.191C30.0179 14.191 29.8531 14.3557 29.8531 14.5579Z" fill="#7BC143"/>
<path d="M6.99245 1.75102C6.99245 1.18856 7.44944 0.733756 8.00971 0.733756C8.57217 0.733756 9.02698 1.19076 9.02698 1.75102V2.28053H6.99025L6.99245 1.75102Z" fill="#7BC143"/>
<path d="M6.99245 4.91267H9.02917V6.07493H6.99245V4.91267Z" fill="#7BC143"/>
<path d="M16.9829 1.75102C16.9829 1.18856 17.4399 0.733756 18.0001 0.733756C18.5626 0.733756 19.0174 1.19076 19.0174 1.75102V2.28053H16.9807L16.9829 1.75102Z" fill="#7BC143"/>
<path d="M16.9829 4.91267H19.0196V6.07493H16.9829V4.91267Z" fill="#7BC143"/>
<path d="M26.971 1.75102C26.971 1.18856 27.428 0.733756 27.9883 0.733756C28.5507 0.733756 29.0056 1.19076 29.0056 1.75102V2.28053H26.9688L26.971 1.75102Z" fill="#7BC143"/>
<path d="M26.971 4.91267H29.0077V6.07493H26.971V4.91267Z" fill="#7BC143"/>
<path d="M6.99245 6.81097H9.02917V8.35993H6.99245V6.81097Z" fill="#7BC143"/>
<path d="M16.9829 6.81097H19.0196V8.35993H16.9829V6.81097Z" fill="#7BC143"/>
<path d="M26.971 6.81097H29.0077V8.35993H26.971V6.81097Z" fill="#7BC143"/>
<path d="M8.60727 34.5978C8.60727 34.9626 8.31066 35.2592 7.94593 35.2592H5.96854C5.60382 35.2592 5.3072 34.9626 5.3072 34.5978V33.6179H8.60727V34.5978Z" fill="#7BC143"/>
<path d="M30.6906 34.5978C30.6906 34.9626 30.394 35.2592 30.0292 35.2592H28.0518C27.6871 35.2592 27.3905 34.9626 27.3905 34.5978V33.6179H30.6884L30.6906 34.5978Z" fill="#7BC143"/>
<path d="M20.5268 14.9927L18.679 19.7362C18.6416 19.8329 18.646 19.9428 18.6944 20.035C18.7405 20.1273 18.8262 20.1976 18.9273 20.224L21.1727 20.826L15.4733 26.9844L17.3211 22.2408C17.3584 22.1441 17.354 22.0343 17.3057 21.942C17.2596 21.8497 17.1739 21.7794 17.0728 21.753L14.8274 21.151L20.5268 14.9927Z" fill="#7BC143"/>
</svg>
