<svg width="101" height="100" viewBox="0 0 101 100" fill="none" xmlns="http://www.w3.org/2000/svg">
<path fill-rule="evenodd" clip-rule="evenodd" d="M50.5003 0C22.9308 0 0.501953 22.4288 0.501953 49.9984V89.4675C0.501953 91.9222 2.49939 93.9197 4.95408 93.9197H11.0264C13.4811 93.9197 15.4785 91.9222 15.4785 89.4675L15.4829 49.9984C15.4829 30.6899 31.1915 14.9813 50.5 14.9813C69.8084 14.9813 85.517 30.6899 85.517 49.9984V89.4675C85.517 91.9222 87.5145 93.9197 89.9692 93.9197H96.0415C98.4962 93.9197 100.494 91.9222 100.494 89.4675L100.498 49.9984C100.498 22.4288 78.0699 0 50.5003 0ZM96.0422 91.0877C96.9345 91.0877 97.6624 90.3597 97.6624 89.4675L97.6636 49.9984C97.6636 23.9913 76.5086 2.83627 50.5015 2.83627C24.4944 2.83627 3.33937 23.9913 3.33937 49.9984L3.33494 89.4675C3.33494 90.3598 4.06291 91.0877 4.95511 91.0877H11.0274C11.9196 91.0877 12.6476 90.3597 12.6476 89.4675V49.9984C12.6476 29.1275 29.63 12.1451 50.5009 12.1451C71.3718 12.1451 88.3542 29.1275 88.3542 49.9984L88.3498 89.4675C88.3498 90.3598 89.0777 91.0877 89.9699 91.0877H96.0422Z" fill="#005CAB"/>
<path fill-rule="evenodd" clip-rule="evenodd" d="M63.9203 39.9619H37.0837C33.8922 39.9619 31.2955 42.5586 31.2955 45.7501V61.7257C31.2955 64.9172 33.8922 67.5139 37.0837 67.5139H63.9203C67.1118 67.5139 69.7086 64.9172 69.7086 61.7257V45.7501C69.7086 42.5586 67.1118 39.9619 63.9203 39.9619ZM34.1315 61.7248V45.7492C34.1315 44.1202 35.4543 42.7974 37.0834 42.7974H49.0853V64.6762H37.0834C35.4543 64.6762 34.1315 63.3538 34.1315 61.7248ZM66.8714 61.7248C66.8714 63.3538 65.5486 64.6766 63.9195 64.6766H51.9177V42.7978H63.9195C65.5486 42.7978 66.8714 44.1206 66.8714 45.7496V61.7248ZM39.5552 71.2637H35.2008C33.048 71.2637 31.2947 73.0171 31.2947 75.1698V76.7145C31.2947 78.8673 33.048 80.6207 35.2008 80.6207H39.5552C41.708 80.6207 43.4613 78.8673 43.4613 76.7145V75.1698C43.4613 73.0171 41.708 71.2637 39.5552 71.2637ZM40.6294 76.7145C40.6294 77.3049 40.15 77.7887 39.5552 77.7887H35.2008C34.6105 77.7887 34.1266 77.3093 34.1266 76.7145V75.1698C34.1266 74.5795 34.606 74.0956 35.2008 74.0956H39.5552C40.1456 74.0956 40.6294 74.575 40.6294 75.1698V76.7145ZM65.8013 71.2637H61.4469C59.2941 71.2637 57.5408 73.0171 57.5408 75.1698V76.7145C57.5408 78.8673 59.2941 80.6207 61.4469 80.6207H65.8013C67.9541 80.6207 69.7074 78.8673 69.7074 76.7145V75.1698C69.7074 73.0171 67.9541 71.2637 65.8013 71.2637ZM66.8711 76.7145C66.8711 77.3049 66.3917 77.7887 65.7969 77.7887H61.4425C60.8521 77.7887 60.3683 77.3093 60.3683 76.7145V75.1698C60.3683 74.5795 60.8477 74.0956 61.4425 74.0956H65.7969C66.3872 74.0956 66.8711 74.575 66.8711 75.1698V76.7145ZM55.6543 75.9422C55.6543 76.7234 55.0195 77.3582 54.2383 77.3582H46.7634C45.9822 77.3582 45.3474 76.7234 45.3474 75.9422C45.3474 75.1609 45.9822 74.5262 46.7634 74.5262H54.2383C55.0195 74.5262 55.6543 75.1609 55.6543 75.9422Z" fill="#7BC143"/>
<path fill-rule="evenodd" clip-rule="evenodd" d="M69.7474 32.6819H62.2858V31.3858C62.2858 29.1087 60.4305 27.2533 58.1534 27.2533H42.8482C40.5711 27.2533 38.7157 29.1087 38.7157 31.3858V32.6819H31.2541C27.2593 32.6819 24.01 35.9311 24.01 39.926V79.9678C24.01 83.9627 27.2593 87.2119 31.2541 87.2119H33.1228L26.9662 97.8738C26.5756 98.553 26.8064 99.4186 27.4855 99.8091C27.7075 99.9379 27.9516 100 28.1913 100C28.6796 100 29.159 99.747 29.4208 99.2898L32.7055 93.6037H68.2952L71.5799 99.2898C71.8418 99.7426 72.3167 100 72.8094 100C73.0491 100 73.2932 99.9379 73.5151 99.8091C74.1943 99.4185 74.4251 98.5529 74.0345 97.8738L67.8779 87.2119H69.7466C73.7414 87.2119 76.9906 83.9627 76.9906 79.9678L76.9862 39.9214C76.9862 35.931 73.7379 32.6819 69.7474 32.6819ZM42.849 30.0897C42.1344 30.0897 41.5529 30.6711 41.5529 31.3858L41.5531 32.6819H59.4548V31.3858C59.4548 30.6712 58.8734 30.0897 58.1587 30.0897H42.849ZM34.3406 90.768H66.6634L64.604 87.2081H36.3958L34.3406 90.768ZM69.7485 84.3717C72.1764 84.3717 74.1561 82.3964 74.1561 79.964L74.1516 39.9221C74.1516 37.4941 72.1763 35.5144 69.7439 35.5144H31.2554C28.8274 35.5144 26.8477 37.4897 26.8477 39.9221V79.964C26.8477 82.392 28.823 84.3717 31.2554 84.3717H69.7485Z" fill="#005CAB"/>
</svg>
