<svg width="101" height="100" viewBox="0 0 101 100" fill="none" xmlns="http://www.w3.org/2000/svg">
<path fill-rule="evenodd" clip-rule="evenodd" d="M78.1318 0C79.5842 7.20761e-05 80.7725 1.17988 80.7725 2.64066L80.7682 7.44495H81.2708C82.7232 7.44501 83.9114 8.62481 83.9114 10.0856V10.1963H89.2865C90.9901 10.1964 92.3828 11.5934 92.353 13.3012V15.3627C92.353 17.062 90.9688 18.459 89.2566 18.459H83.8816V18.5698C83.8815 20.0222 82.7018 21.2104 81.241 21.2104H80.7384V92.3038H82.0033C82.3739 92.3038 82.7317 92.4784 82.9617 92.7723L87.0291 98.028C87.3145 98.3986 87.3571 98.8884 87.1612 99.3143C86.9652 99.74 86.5392 100 86.0708 100H60.6779C60.2181 99.9998 59.7962 99.74 59.5876 99.3143C59.3832 98.8885 59.4345 98.3985 59.7196 98.028L63.7871 92.7723C64.0127 92.4785 64.3622 92.3039 64.7454 92.3038H66.0103V21.2147H65.5078C64.0556 21.2144 62.8671 20.0347 62.8671 18.574V18.4633H29.6885V24.3281H33.7688C35.9963 24.3281 37.7936 26.1383 37.7936 28.353V32.9316C37.7936 33.6087 37.2484 34.1539 36.5713 34.1539H20.3568C19.6797 34.1538 19.1344 33.6086 19.1344 32.9316V28.353C19.1344 26.1255 20.9447 24.3282 23.1593 24.3281H27.248V18.4633H11.7448C10.0454 18.4633 8.64844 17.0791 8.64844 15.3669V13.3055C8.64846 11.6061 10.0327 10.2091 11.7448 10.2091L62.8927 10.2134V10.1026C62.8927 8.65025 64.0725 7.46199 65.5333 7.46199H66.0359V2.64066C66.0359 1.18823 67.2157 0 68.6765 0H78.1318ZM65.3555 94.7442L63.1748 97.5553L83.5973 97.551L81.4167 94.74L65.3555 94.7442ZM69.0514 21.6449V91.4264H77.774V21.6449H69.0514ZM23.1593 26.7686C22.2862 26.7686 21.5791 27.4756 21.5791 28.3487V31.7177H35.3574V28.3487C35.3574 27.4756 34.6504 26.7686 33.7773 26.7686H23.1593ZM65.5205 9.88969C65.41 9.88988 65.3119 9.98783 65.3118 10.0984V18.5698C65.3118 18.6804 65.4099 18.7783 65.5205 18.7785H81.2505C81.3611 18.7782 81.4593 18.6804 81.4593 18.5698H81.472V10.0984C81.4719 9.98777 81.3739 9.8898 81.2633 9.88969H65.5205ZM11.7448 12.6411C11.3743 12.6412 11.0804 12.935 11.0804 13.3055V15.3669C11.0806 15.7245 11.3872 16.0313 11.7448 16.0313H62.8671L62.8724 12.6411H11.7448ZM83.9029 16.0271H89.2779C89.6485 16.0271 89.9424 15.7332 89.9424 15.3627V13.3012C89.9423 12.9307 89.6484 12.6368 89.2779 12.6368H83.9029V16.0271ZM68.6723 2.43196C68.5617 2.43222 68.4636 2.53007 68.4636 2.64066H68.4721L68.4806 7.46199H78.3362V2.64066C78.3362 2.52992 78.2383 2.43196 78.1275 2.43196H68.6723Z" fill="#005CAB"/>
<path fill-rule="evenodd" clip-rule="evenodd" d="M25.9703 74.1897C26.6475 74.1897 27.1926 74.7434 27.1927 75.4121V81.081C27.1927 81.7582 26.6475 82.3033 25.9703 82.3033H20.3014C19.6244 82.3031 19.079 81.758 19.079 81.081V75.4121C19.0791 74.7351 19.6244 74.1899 20.3014 74.1897H25.9703ZM21.511 79.8671H24.7522L24.7479 76.6302H21.511V79.8671Z" fill="#005CAB"/>
<path fill-rule="evenodd" clip-rule="evenodd" d="M36.6479 74.1897C37.3123 74.1897 37.8575 74.7434 37.8703 75.4121V81.081C37.8703 81.7582 37.3251 82.3033 36.6479 82.3033H30.979C30.3019 82.3032 29.7567 81.7581 29.7567 81.081V75.4121C29.7567 74.735 30.302 74.1898 30.979 74.1897H36.6479ZM32.1886 79.8671H35.4256V76.6302H32.1886V79.8671Z" fill="#005CAB"/>
<path fill-rule="evenodd" clip-rule="evenodd" d="M25.9714 63.5249C26.6483 63.5251 27.1936 64.0703 27.1937 64.7472V70.4161C27.1937 71.0932 26.6483 71.6382 25.9714 71.6385H20.3025C19.6253 71.6385 19.0801 71.0933 19.0801 70.4161V64.7472C19.0802 64.0701 19.6253 63.5249 20.3025 63.5249H25.9714ZM21.5121 69.1937H24.7533L24.749 65.9568H21.5121V69.1937Z" fill="#005CAB"/>
<path fill-rule="evenodd" clip-rule="evenodd" d="M36.6479 63.5249C37.3123 63.5249 37.8574 64.0701 37.8703 64.7472V70.4161C37.8703 71.0933 37.3251 71.6385 36.6479 71.6385H30.979C30.302 71.6383 29.7567 71.0932 29.7567 70.4161V64.7472C29.7567 64.0702 30.3021 63.5251 30.979 63.5249H36.6479ZM32.1886 69.1937H35.4256V65.9568H32.1886V69.1937Z" fill="#005CAB"/>
<path fill-rule="evenodd" clip-rule="evenodd" d="M25.9714 52.8515C26.6484 52.8516 27.1936 53.3968 27.1937 54.0739V59.7428C27.1937 60.4199 26.6485 60.965 25.9714 60.9651H20.3025C19.6253 60.9651 19.0801 60.4199 19.0801 59.7428V54.0739C19.0802 53.3968 19.6253 52.8515 20.3025 52.8515H25.9714ZM21.5121 58.5204H24.7533L24.749 55.2834H21.5121V58.5204Z" fill="#005CAB"/>
<path fill-rule="evenodd" clip-rule="evenodd" d="M36.649 52.8515C37.3132 52.8517 37.8585 53.3969 37.8714 54.0739V59.7428C37.8714 60.4198 37.326 60.9649 36.649 60.9651H30.9801C30.3029 60.9651 29.7577 60.4199 29.7577 59.7428V54.0739C29.7579 53.3968 30.303 52.8515 30.9801 52.8515H36.649ZM32.1897 58.5204H35.4266V55.2834H32.1897V58.5204Z" fill="#005CAB"/>
<path fill-rule="evenodd" clip-rule="evenodd" d="M25.9714 41.9013C26.6485 41.9013 27.1936 42.4466 27.1937 43.1236V48.7925C27.1937 49.4697 26.6486 50.0149 25.9714 50.0149H20.3025C19.6253 50.0149 19.0801 49.4697 19.0801 48.7925V43.1236C19.0803 42.4466 19.6254 41.9013 20.3025 41.9013H25.9714ZM21.5121 47.5744H24.7533L24.749 44.3375H21.5121V47.5744Z" fill="#005CAB"/>
<path fill-rule="evenodd" clip-rule="evenodd" d="M36.649 41.9013C37.3132 41.9014 37.8584 42.4467 37.8714 43.1236V48.7925C37.8714 49.4697 37.3261 50.0148 36.649 50.0149H30.9801C30.3029 50.0149 29.7577 49.4697 29.7577 48.7925V43.1236C29.7579 42.4466 30.303 41.9013 30.9801 41.9013H36.649ZM32.1897 47.5744H35.4266V44.3375H32.1897V47.5744Z" fill="#005CAB"/>
<path fill-rule="evenodd" clip-rule="evenodd" d="M39.1778 36.8968C41.3884 36.8968 43.1899 38.707 43.1899 40.9217V98.7744C43.1897 99.4514 42.6446 99.9968 41.9676 99.9968H14.9605C14.2834 99.9968 13.7384 99.4514 13.7381 98.7744V40.9217C13.7382 38.6942 15.5483 36.8968 17.763 36.8968H39.1778ZM16.1828 40.9227C16.1828 40.0497 16.89 39.3427 17.763 39.3426H39.1789C40.0518 39.3428 40.759 40.0498 40.759 40.9227L40.758 97.5553H37.8714L37.8671 87.393C37.8669 85.9964 36.7338 84.8633 35.3372 84.8631H21.6004C20.2037 84.8632 19.0707 85.9963 19.0705 87.393V97.5553H16.1828V40.9227ZM21.5121 87.393C21.5123 87.3505 21.5548 87.3078 21.5972 87.3078H27.2448L27.248 97.5553H21.5121V87.393ZM35.4256 97.5553H29.6896V87.3078H35.3372C35.3795 87.3081 35.4221 87.3507 35.4224 87.393L35.4256 97.5553Z" fill="#7BC143"/>
</svg>
