<svg width="109" height="100" viewBox="0 0 109 100" fill="none" xmlns="http://www.w3.org/2000/svg">
<path d="M7.86523 84.2539L18.126 92.7715L28.3867 84.251L18.126 74.0303L7.86523 84.2539ZM20.6885 69.3584L29.627 78.2627V70.6084L31.1895 71.6719L33.2246 73.0566L33.4248 73.1807C33.629 73.2977 33.8438 73.3938 34.0693 73.4697L34.75 73.6992V84.4375C34.7436 85.1958 34.403 85.9013 33.8379 86.3848L33.7656 86.4463L33.7568 86.4502C33.7328 86.4701 33.7033 86.4962 33.667 86.5264C33.5638 86.6119 33.4121 86.7369 33.2197 86.8965C32.8348 87.2159 32.2853 87.6725 31.626 88.2197L21.96 96.2432C21.3013 96.7899 20.7524 97.2455 20.3682 97.5645C20.1761 97.7239 20.0248 97.8491 19.9219 97.9346C19.8706 97.9771 19.8313 98.0102 19.8047 98.0322C19.7914 98.0433 19.7812 98.052 19.7744 98.0576C19.771 98.0604 19.7683 98.063 19.7666 98.0645L19.7646 98.0654V98.0664L19.7637 98.0654C18.8151 98.8535 17.4348 98.8537 16.4863 98.0654L2.4248 86.3945L2.40918 86.3818L2.39453 86.3682C2.34354 86.3223 2.29606 86.2712 2.24805 86.2197L2.24609 86.2217C2.23734 86.2128 2.23028 86.2023 2.22168 86.1934C2.21846 86.1898 2.21414 86.1872 2.21094 86.1836L2.21191 86.1826C1.76175 85.7077 1.51328 85.0881 1.50098 84.4482V43.9648L1.51367 43.7129C1.57158 43.1306 1.82942 42.5775 2.25293 42.1582H2.25195L12.7324 31.7197L14.4385 30.0215V37.2422L14.1436 37.5352L6.62598 45.0225V78.2617L15.5635 69.3584V61.0635L17.125 62.124L20.25 64.2451L20.6885 64.542V69.3584Z" fill="#005CAB" stroke="white" stroke-width="2"/>
<path d="M42.2383 84.2549L52.499 92.7725L62.7607 84.251L52.5 74.0312L42.2383 84.2549ZM55.0625 69.3594L64 78.2617V70.6094L65.5625 71.6719L67.5977 73.0557L67.8008 73.1816C68.0083 73.3012 68.2277 73.4011 68.4541 73.4805L69.123 73.7148V84.4365C69.1166 85.1948 68.776 85.9003 68.2109 86.3838L68.1992 86.3936L54.1377 98.0654L54.1367 98.0645C53.1881 98.8525 51.8078 98.8527 50.8594 98.0645L36.7979 86.3936L36.7861 86.3838C36.221 85.9003 35.8804 85.1948 35.874 84.4365V73.6982L36.5547 73.4688C36.8552 73.3676 37.1362 73.2301 37.3994 73.0557L39.4375 71.6709L40.999 70.6104V78.2617L49.9375 69.3584V64.543L50.375 64.2451L51.9375 63.1826L52.5 62.8008L54.624 64.2451L55.0625 64.543V69.3594Z" fill="#005CAB" stroke="white" stroke-width="2"/>
<path d="M92.2705 31.7188L102.75 42.1572L105.193 44.5908L103.5 44.2139V84.4365C103.494 85.1946 103.153 85.8993 102.588 86.3828L102.568 86.3984C102.569 86.3976 102.571 86.3981 102.57 86.3984C102.57 86.399 102.568 86.3995 102.565 86.4014L102.516 86.4443L102.511 86.4463C102.486 86.4667 102.455 86.4937 102.417 86.5254C102.314 86.611 102.162 86.7359 101.97 86.8955C101.585 87.2149 101.035 87.6715 100.376 88.2188C99.0574 89.3131 97.3001 90.7719 95.543 92.2305C93.7857 93.6892 92.0277 95.1473 90.71 96.2412C90.0511 96.7882 89.5025 97.2444 89.1182 97.5635C88.926 97.723 88.7748 97.8481 88.6719 97.9336C88.6205 97.9762 88.5813 98.0092 88.5547 98.0312C88.5414 98.0423 88.5312 98.051 88.5244 98.0566C88.5211 98.0594 88.5183 98.0611 88.5166 98.0625L88.5146 98.0645C87.6253 98.8036 86.3558 98.8499 85.4189 98.2031L85.2363 98.0645L71.1748 86.3926L71.1631 86.3828C70.5982 85.8993 70.2574 85.1947 70.251 84.4365V73.7148L70.9199 73.4805C71.2216 73.3747 71.5105 73.2319 71.7764 73.0557L73.8145 71.6709L75.376 70.6104V78.2617L84.3145 69.3584V64.5381L84.752 64.2412L89.4395 61.0596V69.3594L98.377 78.2646V45.0264L90.8584 37.5381L90.5645 37.2451V30.0205L92.2705 31.7188ZM76.6143 84.2549L86.876 92.7725L97.1377 84.251L86.876 74.0303L76.6143 84.2549Z" fill="#005CAB" stroke="white" stroke-width="2"/>
<path d="M33.7061 1.90137C34.5888 1.20368 35.8154 1.15993 36.7412 1.77051L36.9229 1.90137L36.9287 1.90527L36.9336 1.91016L52.501 14.5947L68.0684 1.91016L68.0762 1.9043L68.083 1.89844C69.0246 1.16055 70.3489 1.16314 71.291 1.89648L71.3086 1.91016L88.4971 15.918H88.4961C89.0944 16.4022 89.4394 17.1331 89.4395 17.8965V57.2539L89.457 57.2529L89.4404 58.373C89.4276 59.2112 89.0135 59.9853 88.332 60.4648L88.2705 60.5078L88.2588 60.5127C88.2266 60.5345 88.1819 60.5662 88.124 60.6055C87.9979 60.6911 87.8124 60.8169 87.5771 60.9766C87.1067 61.296 86.4347 61.7526 85.6289 62.2998C84.0173 63.3942 81.8694 64.853 79.7217 66.3115C77.5737 67.7703 75.4252 69.2283 73.8145 70.3223C73.0091 70.8692 72.3379 71.3255 71.8682 71.6445C71.6334 71.8039 71.449 71.9292 71.3232 72.0146C71.2604 72.0574 71.2122 72.0902 71.1797 72.1123C71.1634 72.1233 71.1508 72.1321 71.1426 72.1377L71.1309 72.1455L71.1289 72.1465C70.2592 72.7349 69.1197 72.7348 68.25 72.1465L68.249 72.1455L52.502 61.4531L36.7549 72.1455L36.7529 72.1465C35.8832 72.7349 34.7447 72.7348 33.875 72.1465L33.873 72.1455L16.6895 60.4775L16.6826 60.4736L16.6758 60.4688C15.9964 59.9906 15.5763 59.2136 15.5635 58.373V17.8965C15.5635 17.1316 15.9094 16.3992 16.5098 15.915L33.6943 1.91016L33.7002 1.90527L33.7061 1.90137ZM56.7793 58.1719L69.6895 66.9385L82.5986 58.1758L69.6885 47.6553L56.7793 58.1719ZM22.4043 58.1709L35.3135 66.9375L48.2227 58.1709L35.3135 47.6543L22.4043 58.1709ZM72.252 43.1416L84.3145 52.9727V19.1113L72.252 9.28027V43.1416ZM37.877 43.1406L49.9395 52.9717V19.1104L37.877 9.2793V43.1406ZM55.0645 19.1104V52.9717L67.126 43.1406V9.2793L55.0645 19.1104ZM20.6895 19.1094V52.9707L32.751 43.1396V9.27832L20.6895 19.1094Z" fill="#7BC143" stroke="white" stroke-width="2"/>
</svg>
