<svg width="101" height="100" viewBox="0 0 101 100" fill="none" xmlns="http://www.w3.org/2000/svg">
<path d="M78.4551 44.1037C90.6149 44.1037 100.5 34.2139 100.5 22.0588C100.5 9.89903 90.6017 0.000976562 78.4551 0.000976562C66.2953 0.000976562 56.4102 9.89085 56.4102 22.0459C56.406 34.2057 66.2958 44.1037 78.4551 44.1037ZM78.4551 2.8416C89.0553 2.8416 97.6712 11.4621 97.6712 22.0577C97.6712 32.658 89.0507 41.2739 78.4551 41.2739C67.8548 41.2739 59.2389 32.6534 59.2389 22.0577C59.2389 11.4575 67.8553 2.8416 78.4551 2.8416Z" fill="#005CAB"/>
<path d="M69.5025 26.983H73.5165V30.997C73.5165 32.6657 74.8741 34.0191 76.5385 34.0191H80.3591C82.0278 34.0191 83.3812 32.6615 83.3812 30.997V26.983H87.3952C89.0638 26.983 90.4172 25.6255 90.4172 23.961V20.1404C90.4172 18.4717 89.0596 17.1183 87.3952 17.1183H83.3812V13.1044C83.3812 11.4357 82.0236 10.0823 80.3591 10.0823L76.5385 10.0781C74.8699 10.0781 73.5165 11.4357 73.5165 13.1002V17.1141H69.5025C67.8339 17.1141 66.4805 18.4717 66.4805 20.1362V23.9568C66.4805 25.6297 67.8339 26.983 69.5025 26.983ZM69.3092 20.1404C69.3092 20.0311 69.3932 19.947 69.5025 19.947H74.9245C75.7105 19.947 76.3452 19.3124 76.3452 18.5264V13.1044C76.3452 12.9951 76.4292 12.911 76.5385 12.911H80.3591C80.4684 12.911 80.5525 12.9951 80.5525 13.1044V18.5264C80.5525 19.3124 81.1871 19.947 81.9731 19.947H87.3951C87.5044 19.947 87.5885 20.0311 87.5885 20.1404V23.961C87.5885 24.0703 87.5044 24.1544 87.3951 24.1544H81.9731C81.1871 24.1544 80.5525 24.789 80.5525 25.575V30.997C80.5525 31.1063 80.4684 31.1904 80.3591 31.1904H76.5385C76.4292 31.1904 76.3452 31.1063 76.3452 30.997V25.575C76.3452 24.789 75.7105 24.1544 74.9245 24.1544H69.5025C69.3932 24.1544 69.3092 24.0703 69.3092 23.961V20.1404Z" fill="#7BC143"/>
<path d="M38.2986 52.1523C35.8567 52.1523 33.877 54.132 33.877 56.574C33.877 59.0161 35.8566 60.9957 38.2986 60.9957C40.7406 60.9957 42.7203 59.0161 42.7203 56.574C42.7203 54.1447 40.7322 52.1523 38.2986 52.1523ZM38.2986 58.1669C37.4286 58.1669 36.7056 57.4566 36.7056 56.5739C36.7056 55.6912 37.416 54.9809 38.2986 54.9809C39.1687 54.9809 39.8916 55.6912 39.8916 56.5739C39.8916 57.4566 39.1687 58.1669 38.2986 58.1669Z" fill="#005CAB"/>
<path d="M16.0455 59.8438C12.9899 59.8438 10.5059 62.3278 10.5059 65.3834C10.5059 68.439 12.9899 70.923 16.0455 70.923C19.1011 70.923 21.5851 68.439 21.5851 65.3834C21.5851 62.332 19.1011 59.8438 16.0455 59.8438ZM16.0455 68.0987C14.5492 68.0987 13.3345 66.884 13.3345 65.3877C13.3345 63.8914 14.5492 62.6767 16.0455 62.6767C17.5418 62.6767 18.7565 63.8914 18.7565 65.3877C18.7438 66.884 17.5418 68.0987 16.0455 68.0987Z" fill="#005CAB"/>
<path d="M32.1117 70.1621C28.3247 70.1621 25.248 73.2388 25.248 77.0258C25.248 80.8127 28.3247 83.8894 32.1117 83.8894C35.8986 83.8894 38.9753 80.8127 38.9753 77.0258C38.9753 73.2514 35.8986 70.1621 32.1117 70.1621ZM32.1117 81.0737C29.8841 81.0737 28.0767 79.2664 28.0767 77.0388C28.0767 74.8111 29.8841 73.0038 32.1117 73.0038C34.3393 73.0038 36.1467 74.8111 36.1467 77.0388C36.1467 79.258 34.3393 81.0737 32.1117 81.0737Z" fill="#005CAB"/>
<path d="M89.689 58.4981H64.1977C63.231 47.339 56.4934 37.4829 46.3341 32.557C45.2581 32.0401 44.6445 31.0524 44.6445 29.8671V12.5253H44.8924C47.2504 12.5253 49.1628 10.6087 49.1628 8.2549L49.167 4.2704C49.167 1.91247 47.2505 0 44.8966 0H19.9433C17.5854 0 15.6729 1.91656 15.6729 4.2704V8.24231C15.6729 10.6002 17.5895 12.5127 19.9433 12.5127H20.1913V29.8588C20.1913 31.0525 19.5776 32.0317 18.5017 32.5488C13.1848 35.1294 8.70003 39.1224 5.50584 44.1157C2.23159 49.2476 0.5 55.1866 0.5 61.2853C0.5 78.8874 14.8204 93.2121 32.4268 93.2121C38.6012 93.2121 44.4984 91.4804 49.6212 88.1852V93.0481C49.6212 96.8771 52.7398 100 56.5731 100H83.8258C87.6548 100 90.7777 96.8813 90.7777 93.0481V70.6664C92.8666 70.1704 94.4343 68.3001 94.4343 66.0599V63.2312C94.4217 60.6295 92.3034 58.4981 89.689 58.4981ZM18.5014 8.24178V4.26986C18.5014 3.47548 19.1487 2.82824 19.943 2.82824H44.8963C45.6907 2.82824 46.338 3.47552 46.338 4.26986V8.24178C46.338 9.03616 45.6907 9.68339 44.8963 9.68339H19.943C19.1444 9.68339 18.5014 9.03612 18.5014 8.24178ZM19.7371 35.1082C21.7924 34.1079 23.0197 32.1492 23.0197 29.867V12.5252H41.8162V29.8713C41.8162 32.1535 43.0435 34.1206 45.0988 35.1125C49.5752 37.2855 53.3201 40.5135 56.0944 44.4181C44.0648 42.8798 37.781 44.7081 31.6995 46.4861C25.3529 48.3481 19.3127 50.0924 6.64935 47.7218C9.48222 42.3502 13.9915 37.9078 19.7371 35.1082ZM32.4219 90.3701C16.3789 90.3701 3.3368 77.3194 3.3368 61.285C3.3368 57.4559 4.08075 53.774 5.44671 50.3733C10.3013 51.319 14.2901 51.6973 17.6904 51.6973C23.9614 51.6973 28.278 50.4364 32.4982 49.2007C38.6642 47.3934 45.0572 45.5441 58.0401 47.5531C59.8391 50.8988 60.9781 54.6101 61.3521 58.5067H50.6762C48.0619 58.5067 45.9436 60.6252 45.9436 63.2394V66.0681C45.9436 68.3041 47.5155 70.1787 49.6003 70.6746V84.7378C44.6028 88.4114 38.6767 90.3701 32.4219 90.3701ZM83.8221 97.1581H56.5564C54.2867 97.1581 52.4458 95.3087 52.4458 93.0475V70.796H87.932V93.0389C87.932 95.3212 86.0833 97.1581 83.8221 97.1581ZM91.5936 66.0641C91.5936 67.1065 90.7446 67.968 89.6897 67.968H50.6936C49.6512 67.968 48.7896 67.119 48.7896 66.0641V63.2354C48.7896 62.193 49.6386 61.3314 50.6936 61.3314H89.6854C90.7277 61.3314 91.5893 62.1805 91.5893 63.2354L91.5936 66.0641Z" fill="#005CAB"/>
<path d="M81.889 77.2316C81.019 75.7269 79.6068 74.6509 77.9171 74.197C76.2275 73.743 74.4622 73.97 72.9574 74.8443L60.8859 81.8172C59.3812 82.6873 58.3052 84.0995 57.8513 85.7891C57.3973 87.4788 57.6243 89.244 58.4986 90.7488C59.3686 92.2535 60.7808 93.3295 62.4705 93.7834C63.0421 93.9347 63.6095 94.0104 64.1811 94.0104C65.3117 94.0104 66.4297 93.7204 67.43 93.1404L79.5016 86.1674C82.6202 84.3559 83.6963 80.3546 81.889 77.2316ZM66.0053 90.6729C65.1562 91.1689 64.1558 91.2949 63.1976 91.0386C62.2393 90.7822 61.4449 90.1685 60.9489 89.3152C60.453 88.4662 60.3269 87.4658 60.5833 86.5076C60.8397 85.5492 61.4533 84.7549 62.3066 84.2589L67.115 81.4849L70.8179 87.8988L66.0053 90.6729ZM78.0768 83.6999L73.2684 86.4739L69.5655 80.0601L74.3739 77.286C74.9455 76.9624 75.5676 76.7901 76.2148 76.7901C76.5384 76.7901 76.8621 76.8321 77.1815 76.9204C78.1398 77.1768 78.9342 77.7904 79.4301 78.6437C80.4557 80.4173 79.8421 82.687 78.0768 83.6999Z" fill="#7BC143"/>
</svg>
