<svg width="101" height="100" viewBox="0 0 101 100" fill="none" xmlns="http://www.w3.org/2000/svg">
<path d="M41.4317 39.0604C41.5627 39.6197 41.9647 40.0741 42.4977 40.2838C43.0351 40.4979 43.6424 40.4324 44.123 40.1091C47.994 37.5576 53.0098 37.5576 56.8805 40.1091C57.1689 40.3013 57.5097 40.4062 57.8592 40.4062C58.082 40.4105 58.3005 40.3668 58.5058 40.2838C59.0389 40.0741 59.4408 39.6197 59.5719 39.0604L65.7935 11.9023C66.0294 11.0241 65.5488 10.1109 64.6925 9.80511C55.513 6.55455 45.4902 6.55455 36.3107 9.80511C35.4806 10.111 35.0043 10.9891 35.2097 11.8498L41.4317 39.0604ZM56.689 36.0195C52.7612 34.2237 48.2435 34.2237 44.3163 36.0195L41.0132 21.601L43.0579 21.1291C48.6722 20.0499 54.4532 20.2247 59.9931 21.6359L56.689 36.0195ZM43.0747 11.5524C49.3837 10.3422 55.8982 10.7005 62.0365 12.601L60.7608 18.1236C54.7489 16.6162 48.4797 16.4415 42.3929 17.6168C41.6065 17.774 40.9074 17.9313 40.2258 18.1061L38.9675 12.601C40.3175 12.1816 41.6897 11.8321 43.0747 11.5524Z" fill="#7BC143"/>
<path d="M48.0185 61.4996C43.4528 60.6126 39.8876 57.0474 39.0006 52.4817C38.8914 51.9137 38.5025 51.4331 37.9695 51.206C37.4408 50.9744 36.8336 51.0225 36.3442 51.3283L12.7507 66.1137C11.9774 66.568 11.6759 67.5379 12.0517 68.3506C14.127 72.7153 16.9364 76.6956 20.353 80.1127C22.2755 82.057 24.3727 83.809 26.6271 85.3557C28.3878 86.5266 30.2317 87.5577 32.1496 88.449C32.3856 88.5538 32.6434 88.6062 32.9011 88.6062C33.5041 88.6062 34.0677 88.296 34.3866 87.7848L49.172 64.1913C49.4822 63.702 49.5302 63.0903 49.2987 62.5573C49.0715 62.0243 48.5909 61.6398 48.0186 61.535L48.0185 61.4996ZM32.2902 84.5506C31.0406 83.8952 29.8261 83.1743 28.6551 82.3835C26.5928 80.9854 24.6661 79.395 22.9054 77.6299C20.1092 74.8774 17.7542 71.7097 15.9148 68.2451L20.7908 65.2217C22.5515 68.1971 24.6793 70.9452 27.1172 73.4007C29.0484 75.3362 31.1543 77.0926 33.4087 78.6436C34.0728 79.0805 34.6845 79.465 35.2787 79.8146L32.2902 84.5506ZM37.1487 76.8085C36.5895 76.4764 36.0128 76.1094 35.4011 75.69C33.2952 74.3093 31.3291 72.7278 29.529 70.9713C27.2615 68.7169 25.2953 66.1783 23.6744 63.4215L36.1881 55.5746C37.6779 59.6291 40.8717 62.823 44.9263 64.3128L37.1487 76.8085Z" fill="#7BC143"/>
<path d="M88.2496 66.1127L64.6561 51.3273C64.1667 51.0215 63.5594 50.9734 63.0308 51.205C62.4978 51.4322 62.1089 51.9128 61.9997 52.4807C61.1128 57.0464 57.5475 60.6116 52.9818 61.4986C52.4095 61.6034 51.9289 61.9879 51.7017 62.521C51.4702 63.054 51.5182 63.6656 51.8284 64.155L66.6138 87.7485C66.9327 88.2596 67.4963 88.5699 68.0993 88.5699C68.357 88.583 68.6104 88.5393 68.8508 88.4475C73.2154 86.3721 77.1957 83.5628 80.6128 80.1462C82.5571 78.2237 84.3091 76.1265 85.8558 73.8721C87.0267 72.1114 88.0579 70.2675 88.9491 68.3495C89.3248 67.5369 89.0229 66.567 88.2496 66.1127ZM61.3532 60.8697C62.8562 59.358 64.0183 57.5404 64.7611 55.5395L77.3095 63.4038C76.9774 63.963 76.6104 64.5397 76.191 65.1514C74.806 67.2355 73.2288 69.1842 71.4723 70.9711C69.2179 73.2386 66.6793 75.2048 63.9225 76.8257L56.0756 64.312C58.0591 63.5474 59.8592 62.3677 61.3535 60.8516L61.3532 60.8697ZM82.8842 71.8974C81.4861 73.9597 79.8957 75.8864 78.1306 77.6471C75.3781 80.4434 72.2104 82.7984 68.7458 84.6377L65.7223 79.7094C68.6978 77.9487 71.4459 75.8209 73.9013 73.383C75.8369 71.4518 77.5933 69.3459 79.1443 67.0915C79.5812 66.4274 79.9657 65.8157 80.3152 65.2215L85.1037 68.2274C84.4309 69.4857 83.6925 70.7047 82.8842 71.88V71.8974Z" fill="#7BC143"/>
<path d="M58.8352 50.0008C58.8352 46.6279 56.8036 43.5913 53.6883 42.2981C50.5731 41.0092 46.9905 41.7214 44.6049 44.1069C42.2194 46.4924 41.5073 50.0751 42.7961 53.1903C44.0893 56.3055 47.1259 58.3372 50.4988 58.3372C55.0995 58.3284 58.8265 54.6015 58.8352 50.0008ZM50.499 54.8418C48.5416 54.8418 46.7765 53.6621 46.025 51.8533C45.2779 50.0444 45.6929 47.9603 47.0779 46.5798C48.4586 45.1947 50.5427 44.7797 52.3514 45.5268C54.1602 46.2783 55.3399 48.0434 55.3399 50.0008C55.3399 51.2853 54.8287 52.5174 53.92 53.4218C53.0156 54.3306 51.7834 54.8418 50.499 54.8418Z" fill="#005CAB"/>
<path d="M99.4338 77.0539C98.6036 76.5602 97.5332 76.8355 97.0395 77.6656C92.4126 85.4034 85.9245 91.8649 78.1649 96.4529C77.4877 96.8549 77.1644 97.6588 77.3698 98.419C77.5795 99.1749 78.2698 99.7035 79.0562 99.7035C79.3708 99.7035 79.6766 99.6205 79.9475 99.4588C88.1659 94.5436 95.0427 87.6666 99.9585 79.4479C100.465 78.6396 100.233 77.5738 99.4338 77.0539Z" fill="#005CAB"/>
<path d="M22.8345 96.4523C15.1055 91.8516 8.64757 85.3941 4.04721 77.6649C3.84186 77.2149 3.45738 76.8698 2.98551 76.7212C2.51801 76.5683 2.00246 76.6251 1.57431 76.8741C1.1505 77.1232 0.84467 77.5426 0.744173 78.0232C0.643684 78.5081 0.748542 79.0106 1.04127 79.4126C5.95212 87.644 12.8291 94.5301 21.0522 99.4582C21.3231 99.6198 21.6289 99.7029 21.9435 99.7029C22.73 99.7029 23.4203 99.1742 23.63 98.4184C23.8353 97.6581 23.5117 96.8543 22.8345 96.4523Z" fill="#005CAB"/>
<path d="M78.1653 3.54748C85.8943 8.14818 92.3523 14.6057 96.9527 22.3348C97.2672 22.8635 97.8396 23.1911 98.4557 23.1911C98.7703 23.1955 99.0805 23.1125 99.347 22.9465C100.177 22.4528 100.452 21.3824 99.9587 20.5522C95.0478 12.3295 88.1709 5.45257 79.9477 0.541272C79.5457 0.248539 79.0433 0.143681 78.5583 0.244177C78.0777 0.344667 77.6583 0.650503 77.4093 1.07431C77.1602 1.50248 77.1035 2.01804 77.2564 2.48551C77.4049 2.95738 77.7501 3.34186 78.2001 3.54721L78.1653 3.54748Z" fill="#005CAB"/>
<path d="M1.65189 22.9463C1.91841 23.1123 2.22861 23.1953 2.5432 23.1909C3.15924 23.1909 3.73159 22.8633 4.04623 22.3346C8.64692 14.6056 15.1044 8.14764 22.8336 3.54728C23.5588 3.01861 23.7685 2.03116 23.3185 1.25347C22.8641 0.480134 21.903 0.174305 21.0859 0.541305C12.8501 5.4478 5.96052 12.3246 1.04027 20.5523C0.546552 21.3824 0.821757 22.4526 1.65189 22.9463Z" fill="#005CAB"/>
<path d="M100.5 50C100.5 36.7403 95.2309 24.0208 85.8544 14.6455C76.478 5.27034 63.7597 0 50.5 0C37.2403 0 24.5208 5.26911 15.1455 14.6455C5.77034 24.022 0.5 36.7403 0.5 50C0.5 63.2597 5.76911 75.9792 15.1455 85.3544C24.522 94.7297 37.2403 100 50.5 100C63.7564 99.9825 76.4613 94.709 85.8332 85.3332C95.2093 75.9614 100.483 63.2564 100.5 50ZM50.5 96.5047C38.1664 96.5047 26.3383 91.6069 17.6185 82.8815C8.8934 74.1607 3.99529 62.3336 3.99529 50C3.99529 37.6664 8.89306 25.8383 17.6185 17.1185C26.3393 8.3934 38.1664 3.49529 50.5 3.49529C62.8336 3.49529 74.6617 8.39306 83.3815 17.1185C92.1066 25.8393 97.0047 37.6664 97.0047 50C96.9916 62.3291 92.0851 74.1483 83.3692 82.8692C74.6484 91.5856 62.8303 96.4924 50.5 96.5047Z" fill="#005CAB"/>
</svg>
