<svg width="101" height="100" viewBox="0 0 101 100" fill="none" xmlns="http://www.w3.org/2000/svg">
<path fill-rule="evenodd" clip-rule="evenodd" d="M25.6192 22.92C24.5547 22.92 23.6954 23.7794 23.6954 24.8438C23.6954 25.9083 24.5548 26.7677 25.6192 26.7677H61.7952C62.8597 26.7677 63.7191 25.9034 63.7191 24.8438C63.7191 23.7794 62.8596 22.92 61.7952 22.92H25.6192ZM67.2447 37.4412H20.17C19.1055 37.4412 18.2462 36.577 18.2462 35.5174C18.2462 34.4529 19.1056 33.5935 20.17 33.5935H67.2447C68.3091 33.5935 69.1685 34.4578 69.1685 35.5174C69.1685 36.5819 68.3091 37.4412 67.2447 37.4412ZM67.2447 48.115H20.17C19.1055 48.115 18.2462 47.2507 18.2462 46.1912C18.2462 45.1267 19.1056 44.2673 20.17 44.2673H67.2447C68.3091 44.2673 69.1685 45.1316 69.1685 46.1912C69.1685 47.2557 68.3091 48.115 67.2447 48.115ZM67.2447 58.7888H20.17C19.1055 58.7888 18.2462 57.9245 18.2462 56.865C18.2462 55.8005 19.1056 54.9411 20.17 54.9411H67.2447C68.3091 54.9411 69.1685 55.8054 69.1685 56.865C69.1685 57.9295 68.3091 58.7888 67.2447 58.7888ZM67.2447 69.4626H20.17C19.1055 69.4626 18.2462 68.5983 18.2462 67.5388C18.2462 66.4743 19.1056 65.6149 20.17 65.6149H67.2447C68.3091 65.6149 69.1685 66.4792 69.1685 67.5388C69.1685 68.6033 68.3091 69.4626 67.2447 69.4626Z" fill="#7BC143"/>
<path fill-rule="evenodd" clip-rule="evenodd" d="M92.104 1.92874V90.8593C92.104 91.9238 91.2446 92.7832 90.1801 92.7832H78.5201V98.0761C78.5201 99.1406 77.6607 100 76.5962 100L10.8155 99.9951C9.75102 99.9951 8.8916 99.1357 8.8916 98.0713V9.14068C8.8916 8.07624 9.75097 7.21682 10.8155 7.21682H22.4755V1.92386C22.4755 0.859418 23.3349 0 24.3994 0H90.1851C91.2495 0 92.109 0.859368 92.109 1.92386L92.104 1.92874ZM12.7396 11.0644L74.6778 11.0693V96.1463H12.7396V11.0644ZM26.3182 3.84772L88.2565 3.8526L88.2568 3.84822V88.9351H78.5204V9.14068C78.5204 8.07619 77.661 7.21682 76.5966 7.21682H26.3182V3.84772Z" fill="#005CAB"/>
</svg>
