<svg width="101" height="100" viewBox="0 0 101 100" fill="none" xmlns="http://www.w3.org/2000/svg">
<path fill-rule="evenodd" clip-rule="evenodd" d="M0.956968 19.0845C1.25167 18.794 1.65426 18.628 2.06929 18.628L56.7496 18.6279C63.7716 18.6279 70.4458 21.6867 75.0319 27.0116L91.1393 45.7009C91.1518 45.7161 91.1647 45.7309 91.1776 45.7457C91.2034 45.7752 91.2293 45.8047 91.2514 45.8379L91.2556 45.842L97.946 53.6032C103.831 60.4298 98.8798 71.2459 89.8735 71.2459H76.5381C76.036 74.0142 74.6123 76.4546 72.6036 78.2476H98.4317C98.8468 78.2434 99.2411 78.4094 99.5358 78.7C99.8305 78.9905 99.9965 79.389 100.001 79.804C100.001 80.2191 99.8346 80.6216 99.5399 80.9163C99.2452 81.2068 98.8468 81.3729 98.4318 81.3729H2.06887C1.6538 81.3729 1.25121 81.2068 0.956543 80.9163C0.66186 80.6216 0.5 80.2191 0.5 79.804C0.5 79.3889 0.666015 78.9905 0.960687 78.7C1.2554 78.4094 1.65384 78.2434 2.06887 78.2476L10.8926 78.2434C8.88381 76.4546 7.46024 74.0143 6.95804 71.2418H2.06887C1.65379 71.2459 1.25536 71.0841 0.960687 70.7894C0.666015 70.4988 0.5 70.1004 0.5 69.6854C0.5 69.2703 0.661839 68.8719 0.956543 68.5772C1.25125 68.2825 1.65384 68.1165 2.06887 68.1206L89.8702 68.1165C96.4278 68.1165 99.856 60.617 95.5686 55.6407L89.2767 48.3402H67.0844C62.8639 48.3402 58.8423 46.5057 56.0822 43.3016L37.5173 21.7574H2.06929C1.65422 21.7574 1.25578 21.5956 0.961112 21.3009C0.66644 21.0103 0.500425 20.6119 0.500425 20.1969C0.500425 19.7818 0.662296 19.3792 0.956968 19.0845ZM56.7505 21.7574H41.6429L58.4444 41.2599C60.615 43.775 63.7693 45.2152 67.0854 45.2152H86.5875L72.6667 29.0579C68.6707 24.4177 62.864 21.7574 56.7505 21.7574ZM27.9881 71.2421H10.1584C11.142 75.2928 14.7609 78.2437 19.069 78.2437C23.3728 78.2437 27.0003 75.297 27.9881 71.2421ZM52.3096 71.2421H31.1883H31.1841C30.6819 74.0103 29.2542 76.4507 27.2454 78.2437H56.2483C54.2396 76.4549 52.8118 74.0145 52.3096 71.2421ZM73.3396 71.2421H55.5099C56.4976 75.2928 60.1248 78.2437 64.4329 78.2437C68.7369 78.2437 72.3559 75.297 73.3396 71.2421Z" fill="#005CAB"/>
<path d="M2.06929 27.684C1.65426 27.6799 1.25167 27.8459 0.956968 28.1406C0.662296 28.4353 0.500425 28.8337 0.500425 29.2529C0.500425 29.6638 0.66644 30.0622 0.961112 30.3528C1.25578 30.6475 1.65422 30.8094 2.06929 30.8094H24.8715C26.3656 30.8094 27.7892 31.461 28.7687 32.5982L36.8204 41.9531C37.9991 43.3186 37.1317 45.2194 35.3346 45.2194L2.06897 45.2153C1.65394 45.2111 1.25135 45.3771 0.956649 45.6718C0.661977 45.9665 0.500106 46.3649 0.500106 46.7841C0.500106 47.1992 0.666121 47.5935 0.960793 47.884C1.25547 48.1787 1.6539 48.3406 2.06897 48.3406H35.3303C39.5803 48.3406 41.9544 43.1278 39.1819 39.907L31.1302 30.5521C29.5613 28.7301 27.2704 27.6801 24.8673 27.6801L2.06929 27.684Z" fill="#7BC143"/>
</svg>
