<svg width="101" height="94" viewBox="0 0 101 94" fill="none" xmlns="http://www.w3.org/2000/svg">
<path d="M93.4147 30.6093H53.5667V6.4883C53.5667 2.9102 50.6487 0 47.0589 0H7.0039C3.418 0 0.5 2.9102 0.5 6.4883V84.3833C0.5 87.9653 3.418 90.8794 7.0039 90.8794H45.7619C47.051 92.2271 48.8713 93.0708 50.883 93.0708H93.414C97.3202 93.0708 100.5 89.9028 100.5 86.0083V37.6723C100.5 33.7778 97.3209 30.6093 93.4147 30.6093ZM97.5709 37.6718V43.2851H46.7309V37.6757C46.7309 35.3945 48.5942 33.5351 50.8871 33.5351H93.4181C95.7072 33.539 97.5709 35.3906 97.5709 37.6718ZM7.0049 2.9298H47.0599C49.0326 2.9298 50.638 4.5275 50.638 6.4884V30.6134C49.9232 30.6368 49.2044 30.7736 48.5286 31.0118C45.7708 31.9845 43.8802 34.6095 43.802 37.5235C43.7942 37.8634 43.7981 38.2032 43.7981 38.543H3.43109V6.48804C3.43109 4.52714 5.0323 2.9298 7.0049 2.9298ZM44.0709 87.9498H7.0049C5.0322 87.9498 3.4307 86.3521 3.4307 84.3834V41.4734H43.8017V86.0044C43.8017 86.6607 43.8912 87.3209 44.0709 87.9498ZM97.5709 86.0084C97.5709 88.2896 95.7076 90.1412 93.4147 90.1412H50.8837C49.4892 90.1412 48.2548 89.4498 47.5009 88.3951C47.0009 87.7037 46.7314 86.8599 46.7314 86.0045V46.2155H97.5714L97.5709 86.0084Z" fill="#005CAB"/>
<path d="M86.414 39.8788H92.5702C93.3788 39.8788 94.035 39.2226 94.035 38.414C94.035 37.6055 93.3788 36.9492 92.5702 36.9492H86.414C85.6054 36.9492 84.9492 37.6055 84.9492 38.414C84.9492 39.2226 85.6016 39.8788 86.414 39.8788Z" fill="#005CAB"/>
<path d="M50.2656 38.414C50.2656 39.2226 50.9219 39.8788 51.7304 39.8788H57.8866C58.6952 39.8788 59.3514 39.2226 59.3514 38.414C59.3514 37.6055 58.6952 36.9492 57.8866 36.9492H51.7304C50.9218 36.9492 50.2656 37.6016 50.2656 38.414Z" fill="#005CAB"/>
<path d="M64.25 39.8788H70.4062C71.2147 39.8788 71.871 39.2226 71.871 38.414C71.871 37.6055 71.2147 36.9492 70.4062 36.9492H64.25C63.4414 36.9492 62.7852 37.6055 62.7852 38.414C62.7852 39.2226 63.4414 39.8788 64.25 39.8788Z" fill="#005CAB"/>
<path d="M10.1211 24.7499C10.9296 24.7499 11.5859 24.0936 11.5859 23.2851V17.1445C11.5859 16.3359 10.9296 15.6797 10.1211 15.6797C9.3125 15.6797 8.65625 16.3359 8.65625 17.1445V23.2851C8.65625 24.0976 9.3125 24.7499 10.1211 24.7499Z" fill="#7BC143"/>
<path d="M10.1211 52.9688C9.31246 52.9688 8.65625 53.625 8.65625 54.4336V60.5742C8.65625 61.3827 9.3125 62.039 10.1211 62.039C10.9296 62.039 11.5859 61.3827 11.5859 60.5742V54.4336C11.5859 53.6211 10.9296 52.9688 10.1211 52.9688Z" fill="#7BC143"/>
<path d="M72.1486 85.8047C81.8908 85.8047 89.8166 77.8985 89.8166 68.1837C89.8166 58.4649 81.8908 50.5547 72.1486 50.5547C62.4064 50.5547 54.4766 58.4609 54.4766 68.1837C54.4805 77.8985 62.4063 85.8047 72.1486 85.8047ZM72.1486 53.4847C80.2775 53.4847 86.8866 60.0785 86.8866 68.1837C86.8866 76.2853 80.2733 82.8747 72.1486 82.8747C64.0197 82.8747 57.4066 76.2849 57.4066 68.1837C57.4105 60.0782 64.0238 53.4847 72.1486 53.4847Z" fill="#7BC143"/>
<path d="M72.1488 78.8753C78.059 78.8753 82.8718 74.0785 82.8718 68.1844C82.8718 62.286 78.0632 57.4854 72.1488 57.4854C66.2386 57.4854 61.4258 62.2862 61.4258 68.1844C61.4297 74.0789 66.2383 78.8753 72.1488 78.8753ZM72.1488 60.4144C76.4457 60.4144 79.9418 63.8987 79.9418 68.1838C79.9418 72.465 76.4457 75.9456 72.1488 75.9456C67.8519 75.9456 64.3558 72.465 64.3558 68.1838C64.3597 63.8986 67.8558 60.4144 72.1488 60.4144Z" fill="#7BC143"/>
</svg>
