<svg width="101" height="100" viewBox="0 0 101 100" fill="none" xmlns="http://www.w3.org/2000/svg">
<path d="M26.5658 51.8693L11.3157 51.4103C10.8958 51.4103 10.4416 51.5666 10.1291 51.884L3.61004 58.403C3.25845 58.7546 3.08753 59.2527 3.15101 59.7459C3.2145 60.2391 3.50261 60.6786 3.93233 60.9276L18.0348 69.2145L16.3648 71.4949C15.896 72.1395 15.9643 73.0234 16.5259 73.5898L26.8979 83.9618C27.2105 84.2744 27.6255 84.4355 28.0357 84.4355C28.3678 84.4355 28.7047 84.333 28.988 84.123L31.2684 82.453L39.5601 96.5554C39.814 96.9852 40.2535 97.2781 40.7467 97.3416C40.8151 97.3514 40.8835 97.3563 40.9518 97.3563C41.3767 97.3563 41.7869 97.1903 42.0896 96.8826L48.6087 90.3636C48.9212 90.051 49.0921 89.6213 49.0824 89.1769L48.6233 73.9269L74.2218 99.5253C74.5245 99.8281 74.9347 99.999 75.3596 99.999C75.7893 99.999 76.1995 99.8281 76.4974 99.5253L85.2579 90.7648C85.6046 90.4132 85.7755 89.9249 85.7169 89.4366L84.7793 81.4231L92.4021 73.8004C96.167 70.0354 95.6347 63.7067 95.6104 63.4381C95.542 62.6617 94.9267 62.0512 94.1502 61.978C93.8817 61.9536 87.553 61.4213 83.788 65.1862L82.9773 65.9969L82.4597 61.5775L89.0228 55.0096C92.7585 51.2739 92.2311 44.9452 92.2067 44.6767C92.1334 43.9002 91.523 43.2898 90.7466 43.2166C90.4926 43.1921 84.7988 42.7575 81.0241 45.9072C81.278 40.3207 83.1825 34.8808 86.6106 30.2421C104.327 6.25128 100.533 2.4522 99.2829 1.20584C98.0426 -0.0296123 94.2776 -3.80921 70.2767 13.8682C65.6864 17.2473 60.3198 19.147 54.8016 19.4253C57.8146 15.6506 57.3946 10.0984 57.3751 9.84921C57.3067 9.07278 56.6914 8.45746 55.915 8.38908C55.6562 8.36467 49.3178 7.83727 45.5821 11.573L39.1313 18.0238L34.707 17.511L35.4102 16.8078C39.1703 13.0429 38.6429 6.71424 38.6185 6.44559C38.5501 5.66916 37.9348 5.05872 37.1584 4.98547C36.8898 4.96105 30.5612 4.42878 26.7961 8.19374L19.2662 15.7236L11.0526 14.7763C10.5497 14.7323 10.076 14.8886 9.7244 15.2402L0.963902 23.9958C0.670902 24.2986 0.5 24.7039 0.5 25.1336C0.5 25.5633 0.670915 25.9735 0.973678 26.2714L26.5658 51.8693ZM86.0734 67.4619C87.8606 65.6746 90.6977 65.2547 92.4118 65.1766C92.3336 66.8906 91.9137 69.7277 90.1264 71.515L84.3057 77.3357L83.456 70.0792L86.0734 67.4619ZM7.36539 59.2092L11.9165 54.6532L28.3529 55.1513L19.9537 66.6074L7.36539 59.2092ZM41.2845 93.1283L33.8864 80.5398L45.3425 72.1405L45.8357 88.5732L41.2845 93.1283ZM82.6993 48.6758C84.4671 46.908 87.3042 46.4881 89.0134 46.4148C88.9352 48.124 88.5201 50.9562 86.7524 52.724L81.9913 57.4852L81.166 50.4192C81.1562 50.3508 81.1611 50.2825 81.1513 50.2141L82.6993 48.6758ZM47.8726 13.8491C49.6404 12.0813 52.4677 11.6663 54.1818 11.5881C54.0987 13.3022 53.6837 16.1441 51.9257 17.9022L50.5096 19.3183C50.3973 19.3085 50.2801 19.3085 50.1677 19.2939L43.2286 18.493L47.8726 13.8491ZM29.0822 10.4699C30.8695 8.68263 33.7066 8.2676 35.4207 8.18459C35.3425 9.89861 34.9226 12.7357 33.1353 14.523L30.6254 17.033L23.3591 16.1931L29.0822 10.4699ZM11.4632 18.0682L19.7549 19.0253C19.794 19.0253 19.8282 19.0399 19.8673 19.0399L39.6302 21.3253C39.6644 21.3253 39.6986 21.3399 39.7327 21.335L49.7922 22.4972C50.1878 22.5412 50.5784 22.5461 50.974 22.5754C51.0179 22.5803 51.0619 22.5998 51.1107 22.5998C51.1351 22.5998 51.1546 22.59 51.1742 22.5851C58.6407 23.1174 66.048 20.9835 72.196 16.4519C90.0638 3.29699 96.163 2.63193 97.0131 3.47201C97.8677 4.32657 97.2035 10.4599 84.0232 28.3129C79.184 34.8613 77.0304 42.8454 77.9631 50.7898L82.4263 89.0256L75.3604 96.0964L48.8344 69.5754L61.5167 60.2777C62.2345 59.7503 62.3908 58.7395 61.8634 58.0217C61.336 57.299 60.3251 57.1427 59.6073 57.675L28.2034 80.7094L19.7847 72.2956L42.8141 40.8816C43.3415 40.1638 43.1853 39.153 42.4674 38.6256C41.7545 38.0982 40.7437 38.2544 40.2162 38.9723L30.9186 51.6546L4.39257 25.1336L11.4632 18.0682Z" fill="#005CAB"/>
<path d="M35.1466 59.876L27.8869 67.1357C27.1557 67.867 26.7523 68.8442 26.7523 69.877C26.6342 73.2249 31.0905 75.0743 33.3727 72.6183L40.6324 65.3585C44.1607 61.6302 38.8815 56.4261 35.1466 59.8726L35.1466 59.876ZM38.7765 63.5059C38.7011 63.5714 31.4938 70.7952 31.5168 70.7656C30.3396 71.8805 28.582 70.1819 29.7428 68.9916L37.0026 61.7319C38.1633 60.5744 39.9373 62.3418 38.7765 63.5059Z" fill="#7BC143"/>
<path d="M73.2773 32.7149C74.6312 32.7149 75.9851 32.1975 77.0166 31.1694L82.8153 25.3708C86.5948 21.5913 89.3127 16.8543 90.67 11.6804C90.9522 10.7263 89.9846 9.75536 89.0305 10.041C83.8534 11.3982 79.1201 14.1128 75.3402 17.8957L69.5415 23.6944C66.1954 26.8961 68.705 32.8393 73.2808 32.7215L73.2773 32.7149ZM71.4363 25.5891L77.235 19.7905C80.0906 16.9348 83.5409 14.7477 87.3234 13.377C85.9527 17.1599 83.7656 20.6136 80.91 23.4689L75.1113 29.2676C72.6554 31.6395 69.0573 28.0514 71.4326 25.5889L71.4363 25.5891Z" fill="#7BC143"/>
</svg>
