<svg width="101" height="100" viewBox="0 0 101 100" fill="none" xmlns="http://www.w3.org/2000/svg">
<path d="M61.8555 64.7752C67.0718 61.1671 70.4966 55.1592 70.4966 48.3347C70.4966 37.0309 61.118 27.9147 49.7151 28.3531C39.3074 28.7489 30.7457 37.4524 30.5035 47.8686C30.3411 54.8764 33.795 61.0762 39.1238 64.7677C39.9987 65.376 40.4987 66.3926 40.4987 67.455V68.3341H38.8322C37.9114 68.3341 37.1656 69.0799 37.1656 70.0007C37.1656 70.9215 37.9114 71.6672 38.8322 71.6672H40.4987V75.0004H38.8322C37.9114 75.0004 37.1656 75.7461 37.1656 76.6669C37.1656 77.5877 37.9114 78.3335 38.8322 78.3335H40.4987C40.4987 83.854 44.9776 88.3328 50.4981 88.3328C56.0185 88.3328 60.4974 83.854 60.4974 78.3335H62.164C63.0847 78.3335 63.8305 77.5877 63.8305 76.6669C63.8305 75.7461 63.0847 75.0004 62.164 75.0004H60.4974V71.6672H62.164C63.0847 71.6672 63.8305 70.9215 63.8305 70.0007C63.8305 69.0799 63.0847 68.3341 62.164 68.3341H60.4974V67.455C60.4974 66.3967 60.9848 65.3752 61.8555 64.7752ZM50.4984 84.9989C46.8236 84.9989 43.8322 82.0074 43.8322 78.3327H57.1646C57.1646 82.0074 54.1731 84.9989 50.4984 84.9989ZM57.1646 74.9996H43.8322V71.6665H57.1646V74.9996ZM52.1649 68.3334V51.6678H56.3771C58.902 51.6678 61.2101 50.2429 62.3392 47.9847L63.8307 45.0016H57.1645C53.4814 45.0016 50.4983 47.9847 50.4983 51.6678C50.4983 47.9847 47.5151 45.0016 43.832 45.0016H37.1658L38.6574 47.9847C39.7864 50.2429 42.0947 51.6678 44.6194 51.6678H48.8316V68.3334H43.8319V67.4501C43.8319 65.271 42.782 63.242 41.0238 62.0213C36.395 58.8132 33.7076 53.5511 33.8368 47.9391C34.0326 39.3021 41.2155 32.0062 49.84 31.6777C50.0608 31.6694 50.2774 31.6652 50.4941 31.6652C59.6852 31.6652 67.1597 39.1397 67.1597 48.3308C67.1597 53.7888 64.4682 58.9093 59.956 62.0302C58.2061 63.2384 57.1603 65.2675 57.1603 67.4506V68.3297H52.1606L52.1649 68.3334Z" fill="#7BC143"/>
<path d="M85.449 22.4362L90.4945 16.6699H77.1621L78.8286 30.0024L83.2325 24.9693C90.5903 33.4479 94.7155 44.8016 93.6651 57.1293C91.9069 77.7733 75.2834 94.5477 54.6511 96.4686C27.8198 98.9685 5.43304 76.9787 7.27079 50.2679C8.43317 33.3816 19.5366 18.9452 34.79 12.9616C36.7399 15.3031 41.7396 19.9987 50.4978 19.9987C62.1642 19.9987 70.4965 13.3325 70.4965 13.3325C70.4965 13.3325 63.8302 0 50.4978 0C40.9068 0 36.5073 6.02456 34.7826 9.41186C18.4007 15.2865 6.17646 30.1188 4.151 47.8339C0.772019 77.3946 25.0413 102.243 54.4314 99.839C77.2843 97.9682 95.6116 79.2654 97.0665 56.3837C97.8956 43.3424 93.3542 31.3688 85.4502 22.4403L85.449 22.4362ZM50.4966 3.3377C58.267 3.3377 63.4963 8.96645 65.9377 12.3454C62.8921 14.1036 57.2841 16.6702 50.4966 16.6702C44.1012 16.6702 40.164 13.7703 38.2062 11.783C40.6144 11.0664 43.106 10.554 45.6641 10.2706C46.7515 10.1498 47.8306 10.0789 48.8972 10.0456C49.7846 10.0164 50.4971 9.30813 50.4971 8.42073V8.34157C50.4971 7.4333 49.7554 6.6875 48.8471 6.71672C47.1098 6.77088 45.3557 6.91671 43.5808 7.17919C42.3018 7.36667 41.0393 7.60832 39.7935 7.89997C41.8184 5.60849 45.1639 3.3377 50.4966 3.3377Z" fill="#005CAB"/>
</svg>
