<svg width="101" height="100" viewBox="0 0 101 100" fill="none" xmlns="http://www.w3.org/2000/svg">
<path fill-rule="evenodd" clip-rule="evenodd" d="M44.0036 99.9961H43.9879H3.27849C2.80186 99.9961 2.36038 99.7422 2.12211 99.328C1.88379 98.9139 1.88769 98.406 2.12602 97.9919C15.2691 75.4654 9.00211 31.5204 8.9396 31.0793C8.8849 30.6965 8.9982 30.3097 9.24824 30.0167C9.50219 29.7237 9.86942 29.5557 10.2562 29.5557H37.0064C37.3932 29.5557 37.7605 29.7237 38.0144 30.0167C38.2683 30.3097 38.3816 30.6965 38.323 31.0793C38.2566 31.5208 32.0212 75.2663 45.0468 97.8359C45.2265 98.0625 45.3359 98.3516 45.3359 98.6642C45.3359 99.3987 44.738 99.9961 44.0036 99.9961ZM5.52047 97.3355H41.7412C30.7195 75.8591 34.4745 40.1354 35.4824 32.2202H11.7757C12.7836 40.1355 16.542 75.8601 5.51687 97.3355H5.52047Z" fill="#005CAB"/>
<path fill-rule="evenodd" clip-rule="evenodd" d="M36.216 39.3148H11.048C10.3135 39.3148 9.71582 38.7171 9.71582 37.9826C9.71582 37.2481 10.3136 36.6504 11.048 36.6504H36.216C36.9505 36.6504 37.5482 37.2481 37.5482 37.9826C37.5482 38.7171 36.9505 39.3148 36.216 39.3148Z" fill="#005CAB"/>
<path fill-rule="evenodd" clip-rule="evenodd" d="M97.7225 99.9959H43.987C43.5142 99.9959 43.0767 99.7458 42.8384 99.3356C37.2281 89.7169 34.2862 75.5508 34.0987 57.2199C34.0948 56.8644 34.2355 56.5206 34.4855 56.2706C34.7355 56.0166 35.0754 55.876 35.431 55.876H97.7218C98.4563 55.876 99.054 56.4737 99.054 57.2082V98.6677C99.054 99.4022 98.4563 100 97.7218 100L97.7225 99.9959ZM44.7611 97.3352H96.3903V58.5401H36.7788C37.0836 75.1087 39.8345 88.4748 44.7611 97.3352Z" fill="#005CAB"/>
<path fill-rule="evenodd" clip-rule="evenodd" d="M95.0238 58.5368H83.717C82.9825 58.5368 82.3848 57.939 82.3848 57.2046V17.7023C82.3848 16.9678 82.9825 16.3701 83.717 16.3701H95.0238C95.7583 16.3701 96.356 16.9679 96.356 17.7023V57.2046C96.356 57.9391 95.7582 58.5368 95.0238 58.5368ZM85.0495 55.8762H93.6954V19.0343H85.0495V55.8762Z" fill="#005CAB"/>
<path fill-rule="evenodd" clip-rule="evenodd" d="M44.7443 48.1793C44.0098 48.1793 43.4121 47.5815 43.4121 46.847V39.674C43.4121 38.9395 44.0099 38.3418 44.7443 38.3418H50.5186C51.2531 38.3418 51.8508 38.9396 51.8508 39.674C51.8508 40.4085 51.2531 41.0062 50.5186 41.0062H46.0765V46.8469C46.0765 47.5814 45.4788 48.1793 44.7443 48.1793Z" fill="#005CAB"/>
<path fill-rule="evenodd" clip-rule="evenodd" d="M61.9786 45.6747H55.1884C51.8793 45.6747 49.1875 42.9829 49.1875 39.6738C49.1875 36.3647 51.8793 33.6729 55.1884 33.6729H61.9786C65.2877 33.6729 67.9796 36.3647 67.9796 39.6738C67.9796 42.9829 65.2877 45.6747 61.9786 45.6747ZM55.1884 36.3374C53.3484 36.3374 51.852 37.8337 51.852 39.6738C51.852 41.5139 53.3484 43.0102 55.1884 43.0102H61.9786C63.8187 43.0102 65.319 41.5139 65.319 39.6738C65.319 37.8337 63.8226 36.3374 61.9786 36.3374H55.1884Z" fill="#005CAB"/>
<path fill-rule="evenodd" clip-rule="evenodd" d="M47.8625 58.5362H41.6232C40.8887 58.5362 40.291 57.9385 40.291 57.204V49.9646C40.291 47.5111 42.2874 45.5146 44.7409 45.5146C47.1944 45.5146 49.1908 47.5111 49.1908 49.9646V57.204C49.1908 57.9385 48.5931 58.5362 47.8586 58.5362H47.8625ZM42.9555 55.8756H46.5303V49.9685C46.5303 48.9839 45.7294 48.1791 44.7409 48.1791C43.7564 48.1791 42.9515 48.98 42.9515 49.9685V55.8756H42.9555Z" fill="#005CAB"/>
<path fill-rule="evenodd" clip-rule="evenodd" d="M75.5383 58.5362H69.3029C68.5684 58.5362 67.9707 57.9385 67.9707 57.204V49.9646C67.9707 47.5111 69.9671 45.5146 72.4206 45.5146C74.8741 45.5146 76.8705 47.5111 76.8705 49.9646V57.204C76.8705 57.9385 76.2767 58.5362 75.5383 58.5362ZM70.6313 55.8756H74.2061V49.9685C74.2061 48.9839 73.4052 48.1791 72.4167 48.1791C71.4322 48.1791 70.6273 48.98 70.6273 49.9685V55.8756H70.6313Z" fill="#005CAB"/>
<path fill-rule="evenodd" clip-rule="evenodd" d="M72.421 48.1792C71.6865 48.1792 71.0888 47.5814 71.0888 46.8469V41.0062H66.6467C65.9122 41.0062 65.3145 40.4085 65.3145 39.674C65.3145 38.9396 65.9122 38.3418 66.6467 38.3418H72.421C73.1555 38.3418 73.7532 38.9396 73.7532 39.674V46.847C73.7532 47.5815 73.1554 48.1792 72.421 48.1792Z" fill="#005CAB"/>
<path fill-rule="evenodd" clip-rule="evenodd" d="M29.3019 99.9957H17.9601C17.2256 99.9957 16.6279 99.398 16.6279 98.6635V81.1017C16.6279 80.3672 17.2257 79.7695 17.9601 79.7695H29.3019C30.0364 79.7695 30.6341 80.3673 30.6341 81.1017V98.6635C30.6341 99.398 30.0364 99.9957 29.3019 99.9957ZM19.2884 97.3351H27.9694V82.4348H19.2884V97.3351Z" fill="#005CAB"/>
<path fill-rule="evenodd" clip-rule="evenodd" d="M29.3019 67.7643H17.9601C17.2256 67.7643 16.6279 67.1666 16.6279 66.4321V58.3175C16.6279 54.4575 19.769 51.3164 23.629 51.3164C27.489 51.3164 30.6301 54.4575 30.6301 58.3175V66.4321C30.6301 67.1666 30.0324 67.7643 29.2979 67.7643H29.3019ZM19.2924 65.1037H27.9734V58.3174C27.9734 55.9264 26.0278 53.9769 23.6329 53.9769C21.2381 53.9769 19.2925 55.9225 19.2925 58.3174L19.2924 65.1037Z" fill="#7BC143"/>
<path fill-rule="evenodd" clip-rule="evenodd" d="M79.4854 99.996H62.2287C61.4942 99.996 60.8965 99.3983 60.8965 98.6638V79.1447C60.8965 78.4102 61.4942 77.8125 62.2287 77.8125H79.4854C80.2199 77.8125 80.8176 78.4103 80.8176 79.1447V98.6638C80.8176 99.3983 80.2238 99.996 79.4854 99.996ZM63.5609 97.3354H78.1572V80.4777H63.5609V97.3354Z" fill="#005CAB"/>
<path fill-rule="evenodd" clip-rule="evenodd" d="M84.5653 14.224C84.2293 14.224 83.8973 14.0989 83.6394 13.845C83.4558 13.6653 81.8657 12.0361 81.8969 9.79745C81.9087 8.86761 82.2251 7.47678 83.6628 6.14067C84.2723 5.57417 84.5731 5.00379 84.5809 4.39429C84.5966 3.27691 83.6433 2.29236 83.6355 2.28066C83.1119 1.76496 83.1041 0.921042 83.6198 0.397559C84.1356 -0.125923 84.9795 -0.133775 85.5029 0.381932C85.6866 0.56165 87.2766 2.19082 87.2454 4.42947C87.2337 5.35931 86.9172 6.75014 85.4795 8.08625C84.874 8.64884 84.5731 9.21533 84.5614 9.81702C84.538 10.95 85.503 11.9385 85.5147 11.9502C86.0304 12.4698 86.0304 13.3098 85.5147 13.8294C85.2529 14.0911 84.9091 14.22 84.5692 14.22L84.5653 14.224Z" fill="#7BC143"/>
<path fill-rule="evenodd" clip-rule="evenodd" d="M89.3661 14.224C89.0301 14.224 88.698 14.099 88.4402 13.845C88.2605 13.6653 86.6665 12.0361 86.6977 9.79746C86.7094 8.86762 87.0259 7.47679 88.4636 6.14068C89.0731 5.57418 89.3739 5.0038 89.3817 4.39431C89.3973 3.27693 88.4441 2.29237 88.4363 2.28067C87.9127 1.76497 87.9049 0.921057 88.4206 0.397574C88.9363 -0.125949 89.7802 -0.13376 90.3037 0.381947C90.4834 0.561665 92.0774 2.19083 92.0462 4.42949C92.0345 5.35932 91.7141 6.75015 90.2803 8.08626C89.6748 8.64885 89.3739 9.21534 89.3622 9.81704C89.3388 10.95 90.3038 11.9385 90.3155 11.9502C90.8312 12.4698 90.8312 13.3098 90.3155 13.8294C90.0537 14.0911 89.7138 14.2201 89.37 14.2201L89.3661 14.224Z" fill="#7BC143"/>
<path fill-rule="evenodd" clip-rule="evenodd" d="M94.1669 14.224C93.8309 14.224 93.4988 14.0989 93.241 13.845C93.0613 13.6653 91.4673 12.0361 91.4985 9.79745C91.5102 8.86761 91.8306 7.47678 93.2644 6.14067C93.8739 5.57417 94.1747 5.00379 94.1825 4.39429C94.1981 3.27691 93.2448 2.29236 93.237 2.28066C92.7135 1.76496 92.7057 0.921042 93.2214 0.397559C93.7371 -0.125923 94.581 -0.133775 95.1045 0.381932C95.2842 0.56165 96.8782 2.19082 96.847 4.42947C96.8353 5.35931 96.5188 6.75014 95.0811 8.08625C94.4755 8.64884 94.1747 9.21533 94.163 9.81702C94.1395 10.95 95.1045 11.9385 95.1163 11.9502C95.632 12.4698 95.632 13.3098 95.1163 13.8294C94.8545 14.0911 94.5146 14.22 94.1708 14.22L94.1669 14.224Z" fill="#7BC143"/>
<path fill-rule="evenodd" clip-rule="evenodd" d="M21.8622 25.5229C18.6781 25.5229 16.0879 22.9327 16.0879 19.7486C16.0879 17.9358 16.9435 16.2442 18.3577 15.1581C18.4906 13.1539 19.6627 11.3723 21.3973 10.4426C21.3778 10.2472 21.3661 10.0519 21.3661 9.85652C21.3661 6.67242 23.9563 4.08221 27.1404 4.08221C28.2578 4.08221 29.3282 4.39867 30.2386 4.98079C31.309 3.57437 32.9929 2.70703 34.8331 2.70703C36.5678 2.70703 38.15 3.46106 39.2244 4.72685C40.1972 4.01971 41.3849 3.62508 42.6194 3.62508C43.9634 3.62508 45.2292 4.08218 46.245 4.90258C47.1358 4.36733 48.1555 4.08214 49.2143 4.08214C52.3984 4.08214 54.9886 6.67235 54.9886 9.85645C54.9886 11.5169 54.2893 13.0601 53.0821 14.1462C53.1329 14.451 53.1563 14.7635 53.1563 15.08C53.1563 18.2641 50.5661 20.8543 47.382 20.8543C46.7569 20.8543 46.1396 20.7527 45.5536 20.5574C44.4675 21.8349 42.8735 22.5929 41.1506 22.5929C40.5646 22.5929 39.9942 22.5069 39.4512 22.3389C38.4432 23.1281 37.1891 23.5657 35.8959 23.5657C34.7395 23.5657 33.6221 23.218 32.6806 22.5851C31.6257 23.5813 30.2271 24.1478 28.7269 24.1478C27.8439 24.1478 26.9766 23.9447 26.1953 23.5618C25.117 24.7964 23.5542 25.523 21.8587 25.523L21.8622 25.5229ZM27.1442 6.74697C25.4292 6.74697 24.0304 8.14169 24.0304 9.85686C24.0304 10.1929 24.0851 10.521 24.1867 10.8375C24.3 11.1852 24.2688 11.5603 24.0969 11.8807C23.925 12.201 23.632 12.4393 23.2803 12.537C21.9403 12.9121 21.0066 14.1428 21.0066 15.5336C21.0066 15.6156 21.0105 15.6938 21.0144 15.7719C21.0534 16.2876 20.7878 16.776 20.3385 17.0299C19.3579 17.5808 18.7484 18.6199 18.7484 19.7451C18.7484 21.4602 20.1432 22.8589 21.8622 22.8589C23.046 22.8589 24.1126 22.2026 24.6439 21.1398C24.8275 20.7726 25.1713 20.5108 25.5737 20.4327C25.9761 20.3507 26.3941 20.464 26.7028 20.7296C27.2654 21.218 27.9882 21.4837 28.7304 21.4837C29.8244 21.4837 30.8205 20.925 31.391 19.9873C31.6137 19.624 31.9966 19.3857 32.4185 19.3544C32.8521 19.3193 33.2585 19.4912 33.5359 19.8154C34.1297 20.5069 34.9892 20.9015 35.8995 20.9015C36.7825 20.9015 37.5951 20.5421 38.1929 19.8935C38.5953 19.456 39.2361 19.3388 39.7674 19.6044C40.201 19.8193 40.6659 19.9326 41.1582 19.9326C42.3186 19.9326 43.3733 19.2919 43.9125 18.2643C44.0844 17.9401 44.3813 17.7018 44.7329 17.6002C45.0885 17.5025 45.4635 17.5533 45.78 17.7447C46.2606 18.0377 46.8193 18.1901 47.3858 18.1901C49.1008 18.1901 50.4957 16.7954 50.4957 15.0763C50.4957 14.7247 50.4371 14.3809 50.3237 14.0528C50.1206 13.4667 50.3472 12.8182 50.8707 12.49C51.781 11.9157 52.3279 10.9312 52.3279 9.85289C52.3279 8.13782 50.9332 6.7391 49.2142 6.7391C48.4015 6.7391 47.6319 7.05165 47.0497 7.61424C46.7762 7.876 46.4051 8.01664 46.0301 7.98539C45.655 7.95804 45.3034 7.77441 45.0729 7.4775C44.479 6.71565 43.5843 6.27811 42.6194 6.27811C41.5997 6.27811 40.6464 6.77819 40.0643 7.61422C39.783 8.01662 39.3063 8.23541 38.8141 8.17681C38.3257 8.1182 37.9077 7.79784 37.7319 7.34073C37.2631 6.13744 36.1223 5.36382 34.833 5.36382C33.489 5.36382 32.2975 6.22334 31.8756 7.50086C31.7232 7.96577 31.3286 8.30568 30.8481 8.39553C30.3676 8.48148 29.8753 8.29786 29.5745 7.91499C28.9768 7.16487 28.0899 6.739 27.1366 6.739L27.1442 6.74697Z" fill="#7BC143"/>
</svg>
