<svg width="101" height="100" viewBox="0 0 101 100" fill="none" xmlns="http://www.w3.org/2000/svg">
<path d="M25.3249 99.8777C26.1582 100.211 27.1247 99.7999 27.458 98.9556L31.4243 88.9011H69.598L73.5642 98.9556C73.8197 99.6 74.4308 99.9999 75.0863 99.9999C75.2863 99.9999 75.4862 99.9666 75.6862 99.8888C76.5306 99.5555 76.9416 98.6001 76.6083 97.7557L52.5998 36.8289C54.4551 36.0179 55.755 34.1736 55.755 32.0183C55.755 29.1297 53.3997 26.7744 50.5 26.7744C47.6003 26.7744 45.2561 29.1297 45.2561 32.0183C45.2561 34.1625 46.556 36.0179 48.4113 36.8289L24.4028 97.7446C24.0695 98.589 24.4806 99.5444 25.3249 99.8777ZM67.8648 84.4905L44.7784 76.2913H64.6318L67.8648 84.4905ZM62.7209 71.4252L47.4115 64.2926H59.9101L62.7209 71.4252ZM57.4437 58.0377L49.7334 52.4717H55.2439L57.4437 58.0377ZM50.5111 30.0518C51.5999 30.0518 52.4776 30.9295 52.4776 32.0183C52.4776 33.1071 51.5999 33.9848 50.5111 33.9848C49.4223 33.9848 48.5447 33.1071 48.5447 32.0183C48.5447 30.9295 49.4223 30.0518 50.5111 30.0518ZM50.5111 40.4618L53.9552 49.1942H47.067L50.5111 40.4618ZM45.4117 53.4049L55.9439 61.0152H42.412L45.4117 53.4049ZM40.8899 64.8815L58.3436 73.0139H37.6792L40.8899 64.8815ZM36.2126 76.7246L61.1989 85.6015H32.713L36.2126 76.7246Z" fill="#005CAB"/>
<path d="M63.6432 49.4055C64.0098 49.4055 64.3764 49.2832 64.6875 49.0277C69.7647 44.8282 72.6755 38.6177 72.6755 32.0184C72.6755 19.7975 62.7321 9.86523 50.5223 9.86523C38.3125 9.86523 28.3691 19.8086 28.3691 32.0184C28.3691 38.6288 31.2799 44.8282 36.3572 49.0277C37.0571 49.6054 38.0903 49.5054 38.668 48.8166C39.2458 48.1167 39.1458 47.0835 38.457 46.5058C34.1352 42.9284 31.6577 37.6512 31.6577 32.0184C31.6577 21.6084 40.1234 13.1427 50.5334 13.1427C60.9434 13.1427 69.4092 21.6084 69.4092 32.0184C69.4092 37.6512 66.9317 42.9284 62.6099 46.5058C61.91 47.0835 61.8211 48.1167 62.3988 48.8166C62.6988 49.2055 63.1654 49.4055 63.6432 49.4055Z" fill="#7BC143"/>
<path d="M50.511 0C32.8573 0 18.4922 14.3651 18.4922 32.0188C18.4922 42.2955 23.4805 52.0056 31.8352 58.0049C32.5685 58.5382 33.6017 58.3604 34.1239 57.6272C34.6571 56.8939 34.4794 55.8607 33.7461 55.3385C26.2469 49.9502 21.7696 41.2289 21.7696 32.0077C21.7696 16.1649 34.6571 3.26632 50.4999 3.26632C66.3426 3.26632 79.2301 16.1538 79.2301 32.0077C79.2301 41.2289 74.7528 49.9502 67.2536 55.3385C66.5204 55.8718 66.3537 56.8939 66.8759 57.6272C67.1981 58.0716 67.698 58.3049 68.2091 58.3049C68.5424 58.3049 68.8757 58.2049 69.1646 57.9938C77.5192 51.9944 82.5076 42.2733 82.5076 32.0077C82.5298 14.3651 68.1647 0 50.511 0Z" fill="#7BC143"/>
<path d="M58.4553 41.0513C58.7664 41.318 59.1553 41.4513 59.533 41.4513C59.9885 41.4513 60.444 41.2624 60.7773 40.8847C62.9104 38.4294 64.077 35.2853 64.077 32.019C64.077 24.542 57.9998 18.4648 50.5229 18.4648C43.0459 18.4648 36.9688 24.542 36.9688 32.019C36.9688 35.2853 38.1464 38.4294 40.2684 40.8847C40.8683 41.5735 41.9016 41.6401 42.5793 41.0513C43.257 40.4625 43.3347 39.4182 42.7459 38.7405C41.135 36.8851 40.2462 34.4965 40.2462 32.0301C40.2462 26.364 44.8568 21.7534 50.5229 21.7534C56.1889 21.7534 60.7995 26.364 60.7995 32.0301C60.7995 34.4965 59.9107 36.8851 58.2998 38.7405C57.6999 39.4182 57.7665 40.4514 58.4553 41.0513Z" fill="#005CAB"/>
</svg>
