<svg width="101" height="100" viewBox="0 0 101 100" fill="none" xmlns="http://www.w3.org/2000/svg">
<path d="M99.6613 30.6139C97.9806 36.8885 93.9561 42.1335 88.3294 45.3826L86.962 43.0141C91.956 40.1304 95.5275 35.4762 97.0194 29.9067C98.5113 24.3383 97.7449 18.5208 94.8612 13.5268C88.908 3.2164 75.6802 -0.328571 65.3739 5.62155L64.0065 3.25313C75.619 -3.4521 90.5233 0.542876 97.2306 12.1584C100.479 17.7851 101.342 24.3393 99.6613 30.6139Z" fill="#7BC143"/>
<path fill-rule="evenodd" clip-rule="evenodd" d="M85.0814 19.1688C83.0293 15.6136 78.468 14.3901 74.9118 16.4432C72.8056 17.6626 71.5189 19.7637 71.2464 22.0117L61.5554 23.7097C58.3982 19.1177 55.0634 15.1493 51.846 12.1901C46.7102 7.46853 42.4713 5.85115 39.5876 7.51649H39.5866C32.062 11.8594 26.6812 18.9279 24.4363 27.42C22.5301 34.6344 23.0903 42.0998 25.9843 48.8163L17.029 82.8792H16.328C12.9483 82.8792 10.1982 85.6293 10.1982 89.009V98.6326C10.1982 99.3877 10.8105 100 11.5656 100H46.9031C47.6582 100 48.2704 99.3877 48.2704 98.6326V89.009C48.2704 85.6293 45.5204 82.8792 42.1407 82.8792H40.9101L32.7273 58.8788C36.7733 63.0033 41.8693 66.0034 47.6133 67.5636C50.4909 68.3453 53.4063 68.732 56.2982 68.732C61.9248 68.732 67.4566 67.2667 72.426 64.3962C77.7037 61.3482 75.0404 49.2337 69.377 37.2865L75.7026 29.7302C76.6312 30.1271 77.6333 30.3363 78.6476 30.3363C79.9099 30.3363 81.1885 30.0159 82.3589 29.3404C85.9151 27.2914 87.1355 22.727 85.0814 19.1688ZM36.7998 12.7799C36.5906 14.8493 36.8212 17.4269 37.5019 20.4719C38.1631 23.4321 39.2223 26.6863 40.607 30.0802C38.6386 31.5986 36.86 33.1272 35.2875 34.6426C33.1212 29.2833 31.6854 23.9893 31.1089 19.1239C32.6854 16.7463 34.5977 14.6115 36.7998 12.7799ZM41.7203 32.6803C43.0285 35.6018 44.5581 38.5967 46.2796 41.5764C47.998 44.554 49.8246 47.3775 51.6991 49.9694C49.3735 50.8949 47.1255 51.6388 45.0102 52.1939C43.3693 49.9225 41.8081 47.5112 40.354 44.9928C38.9009 42.4754 37.5937 39.9192 36.4478 37.364C37.9866 35.8099 39.755 34.2323 41.7203 32.6803ZM27.0823 28.1189C27.5537 26.3342 28.1782 24.6199 28.9405 22.9872C29.7823 27.4118 31.2313 32.0803 33.2069 36.7681C30.4476 39.7702 28.5343 42.6784 27.5772 45.3122C25.7526 39.81 25.5598 33.8782 27.0823 28.1189ZM42.1428 85.615C44.0142 85.615 45.5367 87.1375 45.5367 89.009V97.2642H12.935V89.009C12.935 87.1375 14.4575 85.615 16.329 85.615H42.1428ZM19.8586 82.8792L27.767 52.798L38.0223 82.8792H19.8586ZM30.0946 50.9184L30.093 50.9158L30.0915 50.9133C28.6598 48.4285 30.4089 44.1887 34.4334 39.5345C35.4988 41.8243 36.6855 44.1091 37.9855 46.3601C39.2866 48.6132 40.6723 50.7837 42.1234 52.8521C36.0804 54.0103 31.5313 53.4042 30.0946 50.9184ZM48.3327 64.9238C42.5826 63.3615 37.5406 60.2278 33.6875 55.896C34.6436 56.0624 35.6916 56.1471 36.8263 56.1471C37.2121 56.1471 37.609 56.1369 38.0141 56.1175C39.8356 56.0297 41.8101 55.7471 43.8969 55.2858C46.9714 59.3451 50.2929 62.937 53.7052 65.8799C51.9103 65.7248 50.1133 65.4085 48.3327 64.9238ZM58.136 65.936C54.2104 63.0033 50.3429 59.1114 46.7827 54.5532C48.9052 53.946 51.1205 53.1695 53.395 52.2347C55.642 55.1307 57.9319 57.6706 60.1656 59.7247C62.4646 61.838 64.582 63.3237 66.48 64.1768C63.7922 65.1697 60.986 65.7585 58.136 65.936ZM71.8393 52.0419C73.0036 57.2512 72.7046 61.0778 71.0597 62.0288C69.4137 62.9799 65.9494 61.3247 62.0177 57.7114C57.5298 53.5858 52.7818 47.3704 48.648 40.209C44.5112 33.0435 41.4999 25.822 40.1713 19.8739C39.007 14.6636 39.307 10.8359 40.954 9.8849C40.954 9.8849 40.955 9.8849 40.955 9.88388C41.2621 9.70633 41.6326 9.61959 42.0581 9.61959C43.9102 9.61959 46.798 11.2625 49.9939 14.2013C52.8256 16.8055 55.7624 20.2443 58.5839 24.227L50.5164 25.6403L50.9878 28.3343L60.2789 26.7067C61.335 28.3077 62.3687 29.9792 63.3657 31.7068C64.3626 33.4344 65.2922 35.164 66.1504 36.8793L60.0972 44.1101L62.1942 45.8662L67.4515 39.5875C69.4903 44.0254 71.0005 48.2877 71.8393 52.0419ZM68.0555 34.6058C67.3178 33.166 66.5412 31.7394 65.7351 30.3414C64.9147 28.921 64.0708 27.5373 63.2085 26.1954L71.4281 24.7556C71.5923 25.3924 71.8424 26.0179 72.1862 26.6148C72.5311 27.2118 72.9454 27.7424 73.4148 28.2036L68.0555 34.6058ZM83.1854 24.1138C82.8609 25.3301 82.0824 26.3454 80.9936 26.974C78.7425 28.273 75.8547 27.4995 74.5567 25.2495C73.2597 23.0015 74.0342 20.1137 76.2822 18.8126C77.0078 18.3943 77.8129 18.18 78.6282 18.18C79.0374 18.18 79.4497 18.2341 79.8548 18.3422C81.0691 18.6677 82.0844 19.4473 82.714 20.5372C83.3426 21.626 83.5099 22.8964 83.1854 24.1138Z" fill="#005CAB"/>
<path d="M84.6089 38.9437L83.2416 36.5742C86.5161 34.6844 88.858 31.6333 89.8366 27.9812C90.8142 24.3301 90.3121 20.5157 88.4223 17.2412C84.5222 10.4839 75.8496 8.15936 69.0892 12.0615L67.7219 9.69204C75.7884 5.03684 86.1365 7.81037 90.7907 15.8738C93.0458 19.781 93.6459 24.3332 92.4785 28.6894C91.3111 33.0466 88.5162 36.6885 84.6089 38.9437Z" fill="#7BC143"/>
</svg>
