<svg width="101" height="100" viewBox="0 0 101 100" fill="none" xmlns="http://www.w3.org/2000/svg">
<path fill-rule="evenodd" clip-rule="evenodd" d="M92.7973 0H8.19881C5.31707 0 2.96875 2.34832 2.96875 5.23006V94.7699C2.96875 97.6517 5.31707 100 8.19881 100H92.8018C95.6836 100 98.0319 97.6517 98.0319 94.7699V5.23006C98.0319 2.34832 95.6836 0 92.8018 0H92.7973ZM92.7973 96.6679C93.8425 96.6679 94.6952 95.8152 94.6952 94.7701H94.6997V5.23018C94.6997 4.18506 93.847 3.33233 92.8018 3.33233H8.19881C7.1537 3.33233 6.30097 4.18505 6.30097 5.23018V94.7701C6.30097 95.8152 7.15369 96.6679 8.19881 96.6679H92.7973Z" fill="#005CAB"/>
<path fill-rule="evenodd" clip-rule="evenodd" d="M84.8294 67.563H16.1654C13.0781 67.563 10.5681 70.073 10.5681 73.1603V85.9122C10.5681 88.9995 13.0781 91.5096 16.1654 91.5096H84.8339C87.9212 91.5096 90.4312 88.9995 90.4312 85.9122V73.1603C90.4312 70.073 87.9212 67.563 84.8339 67.563H84.8294ZM84.8294 88.1818C86.08 88.1818 87.0945 87.163 87.0945 85.9167L87.099 85.9123V73.1604C87.099 71.9098 86.0802 70.8953 84.8339 70.8953H16.1654C14.9148 70.8953 13.9003 71.9141 13.9003 73.1604V85.9123C13.9003 87.1629 14.9191 88.1775 16.1654 88.1775L84.8294 88.1818Z" fill="#7BC143"/>
<path fill-rule="evenodd" clip-rule="evenodd" d="M84.8296 38.0271H16.1657C13.0784 38.0271 10.5683 40.5372 10.5683 43.6245V56.3764C10.5683 59.4637 13.0784 61.9738 16.1657 61.9738H84.8341C87.9214 61.9738 90.4314 59.4637 90.4314 56.3764V43.6245C90.4314 40.5372 87.9214 38.0271 84.8341 38.0271H84.8296ZM84.8296 58.6415C86.0802 58.6415 87.0947 57.6227 87.0947 56.3764H87.0992V43.6245C87.0992 42.3739 86.0804 41.3594 84.8341 41.3594H16.1657C14.915 41.3594 13.9005 42.3782 13.9005 43.6245V56.3764C13.9005 57.627 14.9193 58.6415 16.1657 58.6415H84.8296Z" fill="#7BC143"/>
<path fill-rule="evenodd" clip-rule="evenodd" d="M80.0808 20.4615C80.0808 21.3798 79.333 22.1276 78.4147 22.1276H56.2962C55.3778 22.1276 54.6301 21.3842 54.6301 20.4615C54.6301 19.5388 55.3778 18.7954 56.2962 18.7954H78.4147C79.333 18.7954 80.0808 19.5432 80.0808 20.4615ZM24.1766 20.4615C24.1766 21.7427 23.1315 22.7879 21.8502 22.7879C20.569 22.7879 19.5238 21.7427 19.5238 20.4615C19.5238 19.1802 20.569 18.1351 21.8502 18.1351C23.1315 18.1351 24.1766 19.1802 24.1766 20.4615ZM32.9443 20.4615C32.9443 21.7427 31.8992 22.7879 30.6179 22.7879C29.3367 22.7879 28.2916 21.7427 28.2916 20.4615C28.2916 19.1802 29.3367 18.1351 30.6179 18.1351C31.8992 18.1351 32.9443 19.1802 32.9443 20.4615ZM41.712 20.4615C41.712 21.7427 40.6669 22.7879 39.3856 22.7879C38.1044 22.7879 37.0593 21.7427 37.0593 20.4615C37.0593 19.1802 38.1044 18.1351 39.3856 18.1351C40.6669 18.1351 41.712 19.1802 41.712 20.4615ZM80.0806 50.0007C80.0806 50.919 79.3328 51.6668 78.4145 51.6668H56.2959C55.3776 51.6668 54.6298 50.919 54.6298 50.0007C54.6298 49.0823 55.3776 48.3346 56.2959 48.3346H78.4145C79.3328 48.3346 80.0806 49.078 80.0806 50.0007ZM24.1764 50.0007C24.1764 51.2819 23.1312 52.327 21.85 52.327C20.5688 52.327 19.5236 51.2819 19.5236 50.0007C19.5236 48.7194 20.5687 47.6743 21.85 47.6743C23.1312 47.6743 24.1764 48.7194 24.1764 50.0007ZM32.9441 50.0007C32.9441 51.2819 31.8989 52.327 30.6177 52.327C29.3365 52.327 28.2913 51.2819 28.2913 50.0007C28.2913 48.7194 29.3365 47.6743 30.6177 47.6743C31.8989 47.6743 32.9441 48.7194 32.9441 50.0007ZM41.7118 50.0007C41.7118 51.2819 40.6667 52.327 39.3854 52.327C38.1042 52.327 37.059 51.2819 37.059 50.0007C37.059 48.7194 38.1042 47.6743 39.3854 47.6743C40.6667 47.6743 41.7118 48.7194 41.7118 50.0007ZM80.0804 79.541C80.0804 80.4593 79.3326 81.2071 78.4142 81.2071H56.2957C55.3774 81.2071 54.6296 80.4593 54.6296 79.541C54.6296 78.6227 55.3774 77.8749 56.2957 77.8749H78.4142C79.3326 77.8749 80.0804 78.6183 80.0804 79.541ZM24.1761 79.541C24.1761 80.8222 23.131 81.8674 21.8498 81.8674C20.5685 81.8674 19.5234 80.8222 19.5234 79.541C19.5234 78.2597 20.5685 77.2146 21.8498 77.2146C23.131 77.2146 24.1761 78.2597 24.1761 79.541ZM32.9439 79.541C32.9439 80.8222 31.8987 81.8674 30.6175 81.8674C29.3362 81.8674 28.2911 80.8222 28.2911 79.541C28.2911 78.2597 29.3362 77.2146 30.6175 77.2146C31.8987 77.2146 32.9439 78.2597 32.9439 79.541ZM41.7116 79.541C41.7116 80.8222 40.6664 81.8674 39.3852 81.8674C38.1039 81.8674 37.0588 80.8222 37.0588 79.541C37.0588 78.2597 38.1039 77.2146 39.3852 77.2146C40.6664 77.2146 41.7116 78.2597 41.7116 79.541Z" fill="#005CAB"/>
<path fill-rule="evenodd" clip-rule="evenodd" d="M84.8298 8.48784H16.1659C13.0786 8.48784 10.5685 10.9979 10.5685 14.0852V26.8371C10.5685 29.9244 13.0786 32.4345 16.1659 32.4345H84.8343C87.9216 32.4345 90.4317 29.9244 90.4317 26.8371V14.0852C90.4317 10.9979 87.9216 8.48784 84.8343 8.48784H84.8298ZM84.8298 29.1067C86.0805 29.1067 87.095 28.0879 87.095 26.8416L87.0994 26.8372V14.0853C87.0994 12.8347 86.0806 11.8202 84.8343 11.8202H16.1659C14.9153 11.8202 13.9007 12.839 13.9007 14.0853V26.8372C13.9007 28.0878 14.9196 29.1024 16.1659 29.1024L84.8298 29.1067Z" fill="#7BC143"/>
</svg>
