<svg width="101" height="100" viewBox="0 0 101 100" fill="none" xmlns="http://www.w3.org/2000/svg">
<path d="M52.6528 31.1806C52.9778 31.5056 53.4028 31.6681 53.832 31.6681C54.2612 31.6681 54.682 31.5056 55.0112 31.1806L55.4821 30.7098C57.7655 33.1599 62.274 38.6267 69.0409 50.8107C69.3409 51.3482 69.9035 51.6691 70.4993 51.6691C70.641 51.6691 70.7785 51.6524 70.916 51.6149C71.6494 51.4232 72.1661 50.7607 72.1661 50.0024C72.1661 39.6187 68.7784 30.0188 62.8241 23.3679L63.345 22.847C63.995 22.197 63.995 21.1386 63.345 20.4887L51.6774 8.82111C51.0274 8.17108 49.969 8.17108 49.319 8.82111L48.7982 9.34195C42.1479 3.38347 32.548 0 22.1637 0C21.4053 0 20.7387 0.512518 20.5512 1.25007C20.3637 1.98762 20.6928 2.75849 21.3554 3.12511C33.5392 9.89205 39.0061 14.4087 41.4563 16.684L40.9854 17.1548C40.3354 17.8048 40.3354 18.8632 40.9854 19.5132L43.1396 21.6674L0.983613 63.8234C0.333587 64.4734 0.333587 65.5318 0.983613 66.1818L5.98377 71.1819C6.30879 71.5069 6.73379 71.6694 7.16301 71.6694C7.58803 71.6694 8.01305 71.5069 8.34225 71.1819L50.4983 29.0259L52.6528 31.1806ZM68.2245 42.7522C63.2409 34.5311 59.7617 30.4062 57.8408 28.3517L60.4575 25.735C64.3993 30.1935 67.0911 36.127 68.2244 42.7564L68.2245 42.7522ZM59.8076 21.6678L53.8323 27.643L44.5237 18.3344L50.4989 12.3591L59.8076 21.6678ZM29.4151 3.93815C36.0403 5.07152 41.9734 7.76324 46.4365 11.705L43.8197 14.3217C41.7655 12.3967 37.6362 8.92157 29.4193 3.93805L29.4151 3.93815ZM7.16479 67.6447L4.523 65.003L45.4993 24.0267L48.141 26.6685L7.16479 67.6447Z" fill="#005CAB"/>
<path d="M98.8323 26.6692H93.8321C93.3488 26.6692 92.8946 26.8776 92.5779 27.2359L80.9103 40.5697C80.5686 40.9614 80.427 41.4864 80.5311 41.9947L81.9478 49.0782L76.4226 51.845C76.0268 52.045 75.7268 52.3867 75.5893 52.8117L72.4141 62.3454L64.4639 68.7039C63.7472 69.2789 63.6305 70.3289 64.2055 71.0456C64.7806 71.7623 65.8306 71.8789 66.5473 71.3039L74.8809 64.637C75.1309 64.437 75.3184 64.1704 75.4226 63.862L78.5394 54.5159L84.5896 51.4909C85.2646 51.1575 85.6229 50.4075 85.4771 49.6742L83.9687 42.1447L94.594 29.9982H97.1691V96.667L31.1883 96.6712L37.7135 90.146L45.1721 91.6376C45.6138 91.7252 46.0721 91.6293 46.4471 91.3751C46.818 91.1168 47.0722 90.7251 47.1472 90.2752L48.6722 81.1124L54.5808 78.1582C54.8141 78.0415 55.0141 77.8748 55.1683 77.6665L59.1684 72.333L64.5019 76.3331C65.2353 76.8831 66.2854 76.7331 66.8354 75.9998C67.3854 75.2622 67.2354 74.2164 66.502 73.6664L59.8351 68.6662C59.0976 68.1162 58.0517 68.262 57.5017 68.9995L52.7348 75.3497L46.418 78.5081C45.9429 78.7456 45.6096 79.1998 45.5221 79.7248L44.1387 88.025L37.4926 86.6958C36.9468 86.5875 36.3842 86.7583 35.9842 87.1542L25.9839 97.1545C25.5089 97.6295 25.3672 98.3462 25.6255 98.9712C25.8839 99.5962 26.4922 100 27.1672 100H98.8367C99.7576 100 100.503 99.2545 100.503 98.3336L100.499 28.3357C100.499 27.4148 99.7531 26.6692 98.8323 26.6692Z" fill="#7BC143"/>
</svg>
