<svg width="101" height="100" viewBox="0 0 101 100" fill="none" xmlns="http://www.w3.org/2000/svg">
<path fill-rule="evenodd" clip-rule="evenodd" d="M48.943 56.2655C48.0748 56.2655 46.3383 56.1092 46.3383 57.8152V67.8383C46.3383 71.4847 50.7921 73.4077 53.4271 70.7728L53.4227 70.7684C54.1781 70.0131 54.6469 68.9756 54.6469 67.8383V57.8152C54.6469 56.1092 52.9149 56.2655 52.0423 56.2655V54.3554H61.74V54.3511C62.8512 54.3511 63.6326 53.166 63.1334 52.1329L51.8862 28.8783C51.3262 27.7236 49.6679 27.7062 49.0993 28.8783L37.9043 52.0373C37.2922 53.1964 38.1474 54.3597 39.25 54.3597H48.9433L48.943 56.2655ZM50.4926 48.4476C48.7303 48.4476 48.943 50.3185 48.943 51.2604H41.7153L50.4926 33.1066L59.2699 51.2604H52.0423C52.0423 50.3142 52.2593 48.4476 50.4926 48.4476ZM49.4423 59.3693H51.5476L51.552 67.8385L51.2438 68.5851L51.2394 68.5808C50.5665 69.2536 49.4423 68.7587 49.4423 67.8385V59.3693Z" fill="#7BC143"/>
<path fill-rule="evenodd" clip-rule="evenodd" d="M88.4322 86.6832C89.7388 87.5774 90.8066 88.7928 90.8066 90.3383C90.8066 93.4159 85.9969 95.9598 78.2181 97.5876C62.8514 100.804 38.1388 100.804 22.771 97.5876C14.6056 95.8815 7.82539 92.5565 10.8981 88.2415C11.322 87.648 11.8236 87.2567 12.2971 86.8874C13.1811 86.1979 13.9671 85.5848 13.9671 83.8745L13.9627 16.5378C13.9627 14.829 13.1517 14.1913 12.2753 13.5022C11.7646 13.1007 11.2318 12.6817 10.8243 12.0233C8.02441 7.4957 14.653 4.26166 22.7527 2.50362C38.1106 -0.834541 62.8631 -0.834541 78.221 2.50362C86.4297 4.28778 93.201 7.80386 90.0805 12.1275L90.0849 12.1318C89.6628 12.7405 89.1572 13.1428 88.6794 13.5231C87.8008 14.2222 87.0158 14.8468 87.0158 16.5423V83.879C87.0158 85.0424 87.476 86.0321 88.4309 86.6832L88.4322 86.6832ZM78.1315 9.74859C61.7535 7.51304 39.2368 7.53037 22.85 9.74859C20.8314 10.0221 21.2482 13.0868 23.2623 12.8133C39.367 10.6298 61.6147 10.6298 77.7193 12.8133C79.7379 13.0867 80.1501 10.0177 78.1315 9.74859ZM22.82 90.3073C39.1813 92.456 61.8058 92.4517 78.1671 90.3073C80.1856 90.0425 79.7819 86.9778 77.7677 87.2426C61.7153 89.3436 39.272 89.3436 23.2196 87.2426C21.2011 86.9778 20.8014 90.0424 22.82 90.3073ZM87.5696 90.0294C87.4264 89.8277 87.1526 89.6103 86.8167 89.3435C85.7069 88.4621 83.9188 87.042 83.9188 83.8696V16.5374C83.9188 13.4212 85.6211 12.0323 86.7361 11.1225C87.0905 10.8334 87.3856 10.5926 87.5478 10.3602L87.5522 10.3646C88.6721 8.73234 83.5846 6.83972 77.5767 5.53308C62.6567 2.29038 38.3353 2.29038 23.4153 5.53308C17.4162 6.83972 12.2936 8.74967 13.4441 10.3646C13.6137 10.6032 13.9121 10.8481 14.2675 11.1397C15.3862 12.0577 17.0688 13.4384 17.0688 16.5417V83.8784C17.0688 87.0602 15.2724 88.4807 14.1547 89.3645C13.6499 89.7637 13.2835 90.0533 13.2835 90.3464C13.2835 91.7485 17.1513 93.2591 23.4023 94.5658C38.3089 97.6826 62.6792 97.6826 77.5903 94.5658C83.5678 93.3069 88.6158 91.501 87.5696 90.0294Z" fill="#005CAB"/>
<path fill-rule="evenodd" clip-rule="evenodd" d="M50.4921 21.799C34.9164 21.799 22.2934 34.422 22.2934 49.9977C22.2934 65.5733 34.9164 78.1963 50.4921 78.1963C66.0633 78.1963 78.6907 65.5733 78.6907 49.9977C78.6907 34.422 66.0633 21.799 50.4921 21.799ZM32.7461 32.2519C42.5442 22.4501 58.4363 22.4501 68.2381 32.2519C78.0398 42.0545 78.0398 57.9421 68.2381 67.7439C58.4399 77.5457 42.5479 77.5457 32.7461 67.7439C22.9443 57.9458 22.9443 42.0537 32.7461 32.2519Z" fill="#7BC143"/>
</svg>
