<svg width="101" height="100" viewBox="0 0 101 100" fill="none" xmlns="http://www.w3.org/2000/svg">
<path d="M31.117 77.0428H22.0545V14.3828H66.6955V20.2344H53.4925C52.6643 20.2344 51.9925 20.9063 51.9925 21.7344V36.0074C51.9925 36.8355 52.6643 37.5074 53.4925 37.5074H82.8985C83.7266 37.5074 84.3985 36.8355 84.3985 36.0074V21.7344C84.3985 20.9063 83.7266 20.2344 82.8985 20.2344H69.6955V14.3828H73.3674C74.0002 14.3828 74.5666 13.9844 74.7815 13.3867C74.9924 12.7891 74.8088 12.1211 74.3205 11.7226L64.8986 4.01562C64.8127 3.94531 64.7072 3.90234 64.6096 3.85156C64.5627 3.82812 64.5236 3.79687 64.4807 3.77734C64.3127 3.71484 64.133 3.67578 63.9494 3.67578H8.5664C7.73828 3.67578 7.0664 4.34765 7.0664 5.17578V77.0428H2C1.17188 77.0428 0.5 77.7147 0.5 78.5428V94.8158C0.5 95.6439 1.17188 96.3158 2 96.3158H31.117C31.9451 96.3158 32.617 95.6439 32.617 94.8158V78.5428C32.617 77.7147 31.9451 77.0428 31.117 77.0428ZM81.398 34.5078H54.992V23.2348H81.398V34.5078ZM10.066 38.0117L18.3238 45.5L10.066 52.9883V38.0117ZM19.0543 48.8867V63.8597L10.8004 56.3714L19.0543 48.8867ZM19.0543 42.1133L10.7965 34.625L19.0543 27.1367V42.1133ZM18.3238 67.2463L10.066 74.7307V59.7577L18.3238 67.2463ZM10.066 31.2423V16.2693L18.3238 23.7576L10.066 31.2423ZM19.0543 70.6293V77.0434H11.9801L19.0543 70.6293ZM19.0543 20.3713L12.4527 14.383H19.0543V20.3713ZM52.3273 6.67631H60.3625L56.343 10.7505L52.3273 6.67631ZM52.757 11.3833H46.4836L49.6203 8.20361L52.757 11.3833ZM42.8937 10.7466L38.8781 6.67629H46.9133L42.8937 10.7466ZM39.3078 11.3833H31.2726L35.2882 7.31301L39.3078 11.3833ZM27.6868 10.7466L23.6712 6.67629H31.7064L27.6868 10.7466ZM24.1009 11.3833H16.0657L20.0813 7.31301L24.1009 11.3833ZM59.9289 11.3833L64.0539 7.19971L69.1633 11.3833H59.9289ZM10.0659 6.67631H16.4956L11.8511 11.3833H10.0659V6.67631ZM29.6169 93.3173H3.49988V80.0443H29.6209L29.6169 93.3173Z" fill="#005CAB"/>
<path d="M58.8438 24.8711C58.0156 24.8711 57.3438 25.543 57.3438 26.3711V31.3672C57.3438 32.1953 58.0156 32.8672 58.8438 32.8672C59.6719 32.8672 60.3438 32.1953 60.3438 31.3672V26.3711C60.3438 25.543 59.6719 24.8711 58.8438 24.8711Z" fill="#7BC143"/>
<path d="M71.3125 32.8672C72.1406 32.8672 72.8125 32.1953 72.8125 31.3672V26.3711C72.8125 25.543 72.1406 24.8711 71.3125 24.8711C70.4844 24.8711 69.8125 25.543 69.8125 26.3711V31.3672C69.8125 32.1953 70.4844 32.8672 71.3125 32.8672Z" fill="#7BC143"/>
<path d="M65.0781 24.8711C64.25 24.8711 63.5781 25.543 63.5781 26.3711V31.3672C63.5781 32.1953 64.25 32.8672 65.0781 32.8672C65.9062 32.8672 66.5781 32.1953 66.5781 31.3672V26.3711C66.5781 25.543 65.9062 24.8711 65.0781 24.8711Z" fill="#7BC143"/>
<path d="M77.5469 32.8672C78.375 32.8672 79.0469 32.1953 79.0469 31.3672V26.3711C79.0469 25.543 78.375 24.8711 77.5469 24.8711C76.7188 24.8711 76.0469 25.543 76.0469 26.3711V31.3672C76.0469 32.1953 76.7188 32.8672 77.5469 32.8672Z" fill="#7BC143"/>
<path d="M99.0005 93.3161C96.6802 93.3161 95.5474 91.9567 94.1099 90.2302C92.563 88.3747 90.6372 86.0661 86.9107 86.0661C85.6685 86.0661 84.6451 86.3396 83.7505 86.7458C85.2075 77.988 89.3677 73.5038 96.9455 68.0268C97.0627 67.9409 97.1604 67.8393 97.2424 67.7299C97.2619 67.7065 97.2775 67.6831 97.2971 67.6596C97.3791 67.5424 97.4416 67.4174 97.4846 67.2846C97.4885 67.2768 97.4924 67.269 97.4963 67.2612C97.5041 67.2299 97.508 67.1948 97.5158 67.1635C97.5275 67.1128 97.5393 67.062 97.5471 67.0073C97.5549 66.9604 97.5549 66.9135 97.5549 66.8628C97.5549 66.8159 97.5588 66.7651 97.5549 66.7143C97.551 66.6674 97.5432 66.6206 97.5354 66.5737C97.5275 66.5268 97.5197 66.476 97.508 66.4292C97.4963 66.3823 97.4807 66.3393 97.4611 66.2964C97.4455 66.2495 97.426 66.2026 97.4065 66.1596C97.383 66.1128 97.3557 66.0698 97.3283 66.0268C97.3088 65.9956 97.2971 65.9643 97.2775 65.937C97.2697 65.9292 97.2619 65.9214 97.2541 65.9096C97.2229 65.8667 97.1838 65.8276 97.1447 65.7886C97.1135 65.7573 97.0861 65.7221 97.051 65.6948C97.0119 65.6636 96.9689 65.6323 96.9299 65.6011C96.8908 65.5737 96.8557 65.5464 96.8127 65.5229C96.7697 65.4995 96.7268 65.48 96.6799 65.4604C96.633 65.4409 96.59 65.4175 96.5471 65.4018C96.5354 65.3979 96.5236 65.3901 96.508 65.3862L84.219 61.5268V49.4248C84.219 48.5967 83.5471 47.9248 82.719 47.9248H53.672C52.8439 47.9248 52.172 48.5967 52.172 49.4248V61.7298L40.52 65.3782C40.5083 65.3821 40.4966 65.3899 40.4849 65.3938C40.4341 65.4095 40.3833 65.4329 40.3364 65.4563C40.2974 65.4759 40.2544 65.4915 40.2153 65.5149C40.1724 65.5384 40.1333 65.5696 40.0903 65.6009C40.0513 65.6282 40.0122 65.6555 39.9771 65.6868C39.9419 65.718 39.9146 65.7532 39.8794 65.7884C39.8442 65.8274 39.8052 65.8665 39.7739 65.9055C39.7661 65.9134 39.7583 65.9212 39.7505 65.9329C39.731 65.9602 39.7153 65.9915 39.6997 66.0227C39.6724 66.0657 39.645 66.1087 39.6216 66.1555C39.5981 66.2024 39.5825 66.2454 39.5669 66.2923C39.5513 66.3391 39.5356 66.3821 39.52 66.429C39.5083 66.4759 39.5005 66.5227 39.4927 66.5735C39.4849 66.6204 39.477 66.6673 39.4731 66.718C39.4692 66.7688 39.4731 66.8157 39.4731 66.8665C39.4731 66.9134 39.4771 66.9602 39.481 67.0071C39.4888 67.0618 39.5005 67.1126 39.5122 67.1673C39.52 67.1985 39.52 67.2298 39.5317 67.261C39.5356 67.2688 39.5396 67.2766 39.5435 67.2845C39.5864 67.4173 39.6528 67.5462 39.7349 67.6634C39.7505 67.6868 39.77 67.7102 39.7856 67.7337C39.8716 67.8431 39.9653 67.9446 40.0864 68.0306C49.1098 74.554 53.2814 79.6556 53.8164 92.1046C52.9688 92.8428 52.0195 93.3234 50.6562 93.3234C48.3398 93.3234 47.2031 91.964 45.7695 90.2375C44.2226 88.382 42.3007 86.0734 38.5781 86.0734C37.75 86.0734 37.0781 86.7452 37.0781 87.5734C37.0781 88.4015 37.75 89.0734 38.5781 89.0734C40.8945 89.0734 42.0312 90.4328 43.4648 92.1593C45.0117 94.0148 46.9336 96.3234 50.6562 96.3234C53.2578 96.3234 54.9726 95.1906 56.3046 93.8781C56.3671 93.8234 56.4296 93.7687 56.4843 93.7062C56.9843 93.1945 57.4335 92.6632 57.8515 92.1593C59.289 90.4327 60.4218 89.0734 62.7421 89.0734C65.0624 89.0734 66.1952 90.4328 67.6327 92.1593C69.1796 94.0148 71.1054 96.3234 74.828 96.3234C78.5506 96.3234 80.4764 94.0148 82.0194 92.1593C83.4569 90.4366 84.5897 89.0734 86.91 89.0734C89.2303 89.0734 90.367 90.4367 91.8045 92.1593C93.3514 94.0148 95.2772 96.3234 98.9998 96.3234C99.8279 96.3234 100.5 95.6515 100.5 94.8234C100.5 93.9874 99.8286 93.3161 99.0005 93.3161ZM55.1725 50.9251H81.2195V60.5892L68.9735 56.7533C68.7509 56.683 68.5126 56.6674 68.2743 56.7065C68.2079 56.7182 68.1415 56.7299 68.0751 56.7455H68.0673L55.1723 60.7885L55.1725 50.9251ZM74.8285 93.3161C72.5082 93.3161 71.3754 91.9567 69.9379 90.2302C68.391 88.3747 66.4652 86.0661 62.7426 86.0661C59.809 86.0661 58.0004 87.5036 56.602 89.0192C55.5551 78.6132 51.4458 73.0112 44.204 67.3712L68.513 59.754L92.825 67.3673C85.3992 73.1329 81.364 78.6763 80.387 89.4413C80.1526 89.707 79.93 89.9765 79.7151 90.2304C78.2776 91.957 77.1449 93.3161 74.8285 93.3161Z" fill="#7BC143"/>
<path d="M68.7891 64.293C67.9609 64.293 67.2891 64.9648 67.2891 65.793V83.113C67.2891 83.9411 67.9609 84.613 68.7891 84.613C69.6172 84.613 70.2891 83.9411 70.2891 83.113V65.793C70.2891 64.9648 69.6172 64.293 68.7891 64.293Z" fill="#7BC143"/>
</svg>
