<svg width="101" height="100" viewBox="0 0 101 100" fill="none" xmlns="http://www.w3.org/2000/svg">
<path d="M99.9708 87.4207C97.7107 83.4007 93.561 77.7875 86.5957 74.0089C82.9647 72.0453 71.9045 66.0429 63.4202 71.8599C57.0104 76.2691 55.1949 85.6986 56.3434 88.5323C55.6765 89.1807 55.0281 89.8105 54.4352 90.4033C54.0647 89.088 53.5831 87.8654 53.0458 86.7167C54.676 82.7522 55.3615 72.9338 49.8223 66.0796C41.9305 56.3352 26.795 59.5587 21.8308 60.6146C12.2716 62.6525 5.41689 67.8025 1.34188 71.7855C0.823168 72.2857 0.656445 73.0452 0.89727 73.7306C1.1381 74.416 1.74944 74.8977 2.45341 74.9719C2.56456 74.9719 13.6243 76.2131 23.1284 85.9759C28.8714 91.8671 34.2067 94.0159 38.9115 94.0159C43.3021 94.0159 47.1553 92.1634 50.3047 89.755C50.842 91.1814 51.2681 92.7191 51.5274 94.3863L51.4903 98.1284C51.4903 99.1473 52.3054 99.981 53.3244 99.9995H53.3429C54.3618 99.9995 55.1769 99.1843 55.1954 98.1654L55.2325 94.9605C55.4177 94.7753 55.603 94.553 55.8438 94.3307C56.6404 93.5155 57.5297 92.5892 58.493 91.663C61.031 94.6641 64.5693 97.0909 69.386 97.0909C72.3685 97.0909 75.8328 96.1647 79.8528 93.9045C89.2638 88.6248 97.9337 90.1625 98.0072 90.181C98.7112 90.3106 99.4336 90.0327 99.8597 89.4399C100.286 88.8471 100.323 88.0876 99.9709 87.4577L99.9708 87.4207ZM25.7574 83.3636C18.7549 76.1573 11.0853 73.1932 6.62019 72.0076C10.3994 68.9138 15.7347 65.6718 22.5894 64.2269C27.0171 63.2821 40.4664 60.4292 46.9316 68.4136C50.4329 72.73 50.7664 78.5655 50.3403 82.2522C41.0405 69.9513 22.459 68.7467 22.2183 68.7467C21.218 68.7467 20.4029 69.5433 20.3658 70.5437C20.3287 71.544 21.1068 72.3962 22.1072 72.4518C23.015 72.5074 41.1698 73.7115 48.6357 86.3095C41.1143 92.4228 33.6114 91.4781 25.7388 83.3824L25.7574 83.3636ZM78.0177 90.6256C70.9039 94.6271 65.3836 94.1269 61.2149 89.1251C64.2902 86.55 67.9953 84.1418 72.3858 83.1784C75.813 82.4374 79.4811 82.6041 83.2973 83.6972C84.2791 83.975 85.298 83.4007 85.5944 82.4189C85.8723 81.4371 85.298 80.4182 84.3162 80.1218C79.9071 78.862 75.6278 78.6767 71.5897 79.5475C66.9397 80.5664 62.9753 82.9562 59.7144 85.5312C59.9923 82.7895 61.4928 77.6394 65.4943 74.8791C72.1079 70.3403 81.6675 75.5275 84.7976 77.2318C89.3919 79.7143 92.6154 83.1044 94.7828 86.161C90.9295 86.1981 84.6494 86.8465 77.9801 90.5887L78.0177 90.6256Z" fill="#7BC143"/>
<path d="M48.97 55.4471C49.4702 55.4841 49.9704 55.5026 50.4891 55.5026C51.0077 55.5026 51.508 55.4841 52.0081 55.4471C57.6768 54.9839 62.6603 51.6123 65.3097 46.4436C68.1071 40.9971 67.9032 34.6243 64.7724 29.4002L52.0826 8.2438C51.4157 7.13227 49.5817 7.13227 48.9148 8.2438L36.225 29.4002C33.0942 34.6243 32.8904 40.9786 35.6877 46.4436C38.3369 51.6123 43.3202 54.9838 48.9893 55.4471H48.97ZM39.3738 31.3088L50.4891 12.8023L61.6043 31.3088C64.0682 35.4215 64.2164 40.4418 62.0119 44.7586C59.9186 48.8342 56.1579 51.3908 51.6932 51.7612C50.8966 51.8353 50.0815 51.8353 49.285 51.7612C44.8204 51.3907 41.0782 48.8341 38.9663 44.7586C36.7618 40.4607 36.9099 35.4218 39.3738 31.3088Z" fill="#005CAB"/>
<path d="M50.4912 48.0923C50.7876 48.0923 51.1025 48.0923 51.3989 48.0553C55.882 47.6848 58.0125 44.4243 58.7165 43.0533C59.1796 42.1456 58.8277 41.0341 57.9199 40.5524C57.0122 40.0892 55.9007 40.4412 55.4189 41.349C54.9928 42.1826 53.7146 44.1279 51.084 44.3501C50.8802 44.3501 50.6765 44.3686 50.4912 44.3686C49.4723 44.3686 48.6387 45.2022 48.6387 46.2211C48.6387 47.24 49.4723 48.0737 50.4912 48.0737L50.4912 48.0923Z" fill="#005CAB"/>
<path d="M13.3848 38.7002C13.7924 38.7372 14.1999 38.7558 14.6074 38.7558C15.0149 38.7558 15.4226 38.7558 15.8301 38.7002C20.4429 38.3112 24.5 35.5879 26.6489 31.3826C28.9276 26.955 28.7608 21.7863 26.2228 17.5439L16.2006 0.833646C15.5337 -0.277882 13.6996 -0.277882 13.0327 0.833646L3.01046 17.5439C0.472496 21.7862 0.305797 26.9549 2.58437 31.3826C4.75182 35.5879 8.79043 38.3297 13.4032 38.7002H13.3848ZM6.17844 19.4527L14.6261 5.37331L23.0737 19.4527C24.9447 22.5834 25.0744 26.4182 23.3886 29.6972C21.7953 32.8095 18.9425 34.7362 15.5523 35.0141C14.941 35.0696 14.3297 35.0696 13.7182 35.0141C10.328 34.7362 7.47518 32.791 5.88193 29.6972C4.19609 26.4182 4.3073 22.5834 6.19686 19.4527H6.17844Z" fill="#005CAB"/>
<path d="M14.625 31.344C14.8288 31.344 15.0326 31.344 15.2364 31.3255C17.3112 31.1588 19.0712 29.9361 20.0715 28.0094C20.5346 27.1017 20.1827 25.9902 19.2749 25.5084C18.3672 25.0453 17.2557 25.3973 16.7739 26.305C16.3664 27.1202 15.7365 27.5648 14.9214 27.6204H14.6065C13.5875 27.6204 12.7539 28.454 12.7539 29.4729C12.7539 30.4918 13.5875 31.3255 14.6065 31.3255L14.625 31.344Z" fill="#005CAB"/>
<path d="M85.1329 38.7002C85.5404 38.7372 85.948 38.7558 86.3555 38.7558C86.763 38.7558 87.1706 38.7558 87.5781 38.7002C92.1909 38.3112 96.248 35.5879 98.397 31.3826C100.676 26.955 100.509 21.7863 97.9709 17.5439L87.9486 0.833646C87.2817 -0.277882 85.4477 -0.277882 84.7808 0.833646L74.7585 17.5439C72.2205 21.7862 72.0538 26.9549 74.3324 31.3826C76.4999 35.5879 80.5385 38.3297 85.1513 38.7002H85.1329ZM77.9079 19.4527L86.3555 5.37331L94.8031 19.4527C96.6741 22.5834 96.8039 26.4182 95.118 29.6972C93.5248 32.8095 90.6719 34.7362 87.2817 35.0141C86.6704 35.0696 86.0591 35.0696 85.4477 35.0141C82.0575 34.7362 79.2046 32.791 77.6114 29.6972C75.9255 26.4182 76.0367 22.5834 77.9263 19.4527H77.9079Z" fill="#005CAB"/>
<path d="M86.3555 31.344C86.5593 31.344 86.7631 31.344 86.9668 31.3255C89.0417 31.1588 90.8016 29.9361 91.802 28.0094C92.2651 27.1017 91.9131 25.9902 91.0054 25.5084C90.0976 25.0453 88.9861 25.3973 88.5044 26.305C88.0968 27.1202 87.467 27.5648 86.6518 27.6204H86.3369C85.318 27.6204 84.4844 28.454 84.4844 29.4729C84.4844 30.4918 85.318 31.3255 86.3369 31.3255L86.3555 31.344Z" fill="#005CAB"/>
</svg>
