<svg width="101" height="100" viewBox="0 0 101 100" fill="none" xmlns="http://www.w3.org/2000/svg">
<path d="M86.945 29.7574C86.8138 29.5989 86.6485 29.4719 86.4616 29.3859C86.2746 29.2999 86.0707 29.257 85.8649 29.2606H69.1129C68.7613 29.2576 68.4227 29.393 68.1702 29.6375C67.9176 29.882 67.7713 30.216 67.7628 30.5675V36.7239C66.1275 34.0252 63.8243 31.7935 61.0754 30.244C58.3265 28.6946 55.2247 27.8797 52.0692 27.8781H44.0658V24.6378C45.0831 24.5737 46.0369 24.1213 46.73 23.3739C47.4232 22.6266 47.8027 21.6415 47.7903 20.6223C47.7778 19.6031 47.3742 18.6276 46.663 17.8975C45.9517 17.1674 44.9871 16.7384 43.9686 16.6992H31.0076C29.9888 16.7367 29.0233 17.1642 28.3107 17.8934C27.5982 18.6226 27.1931 19.5977 27.1792 20.6172C27.1654 21.6366 27.5438 22.6224 28.2362 23.3707C28.9286 24.119 29.8822 24.5727 30.8996 24.6378V27.8781H19.0187C14.9875 27.8435 11.0569 29.1366 7.83363 31.5579C4.61032 33.9791 2.27345 37.3938 1.18364 41.2751C0.0938375 45.1564 0.311679 49.2885 1.80355 53.0336C3.29542 56.7788 5.97839 59.9289 9.43841 61.9978H1.94265C1.58458 61.9978 1.24118 62.14 0.987985 62.3932C0.734792 62.6464 0.59255 62.9898 0.59255 63.3479V73.5979C0.59255 73.9559 0.734792 74.2993 0.987985 74.5525C1.24118 74.8057 1.58458 74.948 1.94265 74.948H8.25032C8.7712 77.3159 10.0852 79.4348 11.9748 80.9539C13.8644 82.473 16.2162 83.3011 18.6407 83.3011C21.0652 83.3011 23.417 82.473 25.3066 80.9539C27.1962 79.4348 28.5102 77.3159 29.0311 74.948H33.265C33.7859 77.3159 35.0999 79.4348 36.9895 80.9539C38.8791 82.473 41.2309 83.3011 43.6554 83.3011C46.0799 83.3011 48.4316 82.473 50.3212 80.9539C52.2108 79.4348 53.5249 77.3159 54.0457 74.948H72.4071C72.928 77.3159 74.242 79.4348 76.1316 80.9539C78.0212 82.473 80.373 83.3011 82.7975 83.3011C85.222 83.3011 87.5738 82.473 89.4633 80.9539C91.3529 79.4348 92.667 77.3159 93.1879 74.948H99.1499C99.508 74.948 99.8514 74.8057 100.105 74.5525C100.358 74.2993 100.5 73.9559 100.5 73.5979V46.9739C100.499 46.6667 100.392 46.3692 100.198 46.1314L86.945 29.7574ZM29.7007 20.6739C29.7007 20.3416 29.8327 20.0229 30.0677 19.788C30.3026 19.553 30.6213 19.421 30.9536 19.421H43.9146C44.2526 19.421 44.5768 19.5553 44.8158 19.7943C45.0548 20.0333 45.1891 20.3575 45.1891 20.6955C45.1891 21.0335 45.0548 21.3577 44.8158 21.5967C44.5768 21.8357 44.2526 21.97 43.9146 21.97H30.9536C30.7849 21.9701 30.6179 21.9363 30.4624 21.8708C30.3069 21.8053 30.1662 21.7093 30.0484 21.5885C29.9306 21.4677 29.8382 21.3245 29.7766 21.1675C29.7151 21.0104 29.6856 20.8426 29.6899 20.6739H29.7007ZM41.3548 24.6702V27.9105H33.535V24.6702H41.3548ZM3.30355 46.2718C3.32066 42.1208 4.97947 38.145 7.91778 35.2128C10.8561 32.2806 14.8352 30.63 18.9863 30.6215H52.0692C54.164 30.5665 56.2487 30.9316 58.2001 31.6953C60.1516 32.459 61.9303 33.6058 63.4314 35.068C64.9325 36.5302 66.1255 38.2783 66.9401 40.209C67.7547 42.1397 68.1744 44.2141 68.1744 46.3096C68.1744 48.4052 67.7547 50.4795 66.9401 52.4103C66.1255 54.341 64.9325 56.089 63.4314 57.5513C61.9303 59.0135 60.1516 60.1603 58.2001 60.924C56.2487 61.6876 54.164 62.0528 52.0692 61.9978H18.9863C14.8269 61.9949 10.8384 60.3421 7.89626 57.4019C4.95408 54.4618 3.29847 50.4745 3.29275 46.315L3.30355 46.2718ZM67.7736 55.8089V61.9978H61.6171C64.128 60.4706 66.2355 58.363 67.7628 55.8521L67.7736 55.8089ZM8.0127 72.2478H3.29275V64.6872H11.577C10.5037 65.6419 9.63461 66.8039 9.02208 68.1032C8.40954 69.4025 8.0662 70.8123 8.0127 72.2478ZM18.6407 80.5968C17.0666 80.5968 15.528 80.1294 14.2198 79.254C12.9116 78.3786 11.8928 77.1345 11.2924 75.6794C10.692 74.2244 10.5371 72.6238 10.8474 71.0806C11.1576 69.5374 11.919 68.121 13.0351 67.011C14.1511 65.901 15.5716 65.1473 17.1165 64.8455C18.6614 64.5437 20.2611 64.7073 21.7129 65.3156C23.1646 65.9239 24.4032 66.9495 25.2714 68.2624C26.1397 69.5754 26.5986 71.1165 26.5901 72.6906C26.5758 74.7905 25.7324 76.7998 24.2434 78.2806C22.7545 79.7615 20.7407 80.594 18.6407 80.5968ZM33.0166 72.2478H29.2687C29.2177 70.8118 28.8754 69.4012 28.2627 68.1016C27.65 66.8019 26.7797 65.6403 25.7044 64.6872H36.5808C35.5056 65.6403 34.6352 66.8019 34.0225 68.1016C33.4098 69.4012 33.0676 70.8118 33.0166 72.2478ZM43.6446 80.5968C42.0719 80.5904 40.5364 80.1176 39.2325 79.2383C37.9286 78.359 36.9148 77.1127 36.3194 75.657C35.724 74.2014 35.5737 72.6019 35.8876 71.0608C36.2015 69.5198 36.9655 68.1065 38.0828 66.9997C39.2002 65.8929 40.6207 65.1425 42.1646 64.8433C43.7086 64.5441 45.3066 64.7095 46.7565 65.3188C48.2064 65.928 49.443 66.9536 50.3099 68.2658C51.1768 69.5781 51.6349 71.1179 51.6264 72.6906C51.6121 74.7962 50.7642 76.8103 49.2682 78.292C47.7723 79.7738 45.7502 80.6026 43.6446 80.5968ZM72.1479 72.2478H54.2726C54.2191 70.8123 53.8757 69.4025 53.2632 68.1032C52.6506 66.8039 51.7816 65.6419 50.7083 64.6872H75.7122C74.6389 65.6419 73.7698 66.8039 73.1573 68.1032C72.5447 69.4025 72.2014 70.8123 72.1479 72.2478ZM82.7759 80.5968C81.2018 80.5968 79.6632 80.1294 78.355 79.254C77.0468 78.3786 76.0279 77.1345 75.4276 75.6794C74.8272 74.2244 74.6723 72.6238 74.9825 71.0806C75.2928 69.5374 76.0542 68.121 77.1703 67.011C78.2863 65.901 79.7068 65.1473 81.2517 64.8455C82.7965 64.5437 84.3962 64.7073 85.848 65.3156C87.2998 65.9239 88.5383 66.9495 89.4066 68.2624C90.2749 69.5754 90.7338 71.1165 90.7253 72.6906C90.711 74.7905 89.8676 76.7998 88.3786 78.2806C86.8897 79.7615 84.8758 80.594 82.7759 80.5968ZM97.7998 72.2478H93.4039C93.3504 70.8123 93.007 69.4025 92.3945 68.1032C91.782 66.8039 90.9129 65.6419 89.8396 64.6872H97.7998V72.2478ZM97.7998 61.9978H70.463V31.9608H85.2493L97.7998 47.4599V61.9978Z" fill="#005CAB"/>
<path d="M82.7761 67.8086C81.8209 67.8086 80.8871 68.0914 80.0923 68.6212C79.2976 69.151 78.6774 69.9041 78.3099 70.7858C77.9425 71.6674 77.8441 72.6381 78.0274 73.5756C78.2106 74.513 78.6672 75.3752 79.3396 76.0536C80.012 76.732 80.8701 77.1963 81.8059 77.3878C82.7416 77.5794 83.7132 77.4897 84.598 77.1301C85.4829 76.7704 86.2416 76.157 86.7784 75.3669C87.3153 74.5769 87.6063 73.6457 87.6148 72.6906C87.6191 72.0519 87.4972 71.4187 87.256 70.8273C87.0149 70.2358 86.6593 69.6979 86.2097 69.2443C85.7601 68.7906 85.2254 68.4303 84.6361 68.1839C84.0469 67.9376 83.4147 67.81 82.7761 67.8086ZM82.7761 74.7859C82.3488 74.7859 81.9312 74.6592 81.5759 74.4219C81.2207 74.1845 80.9438 73.8471 80.7803 73.4524C80.6168 73.0577 80.5741 72.6234 80.6574 72.2043C80.7408 71.7853 80.9465 71.4004 81.2486 71.0983C81.5507 70.7962 81.9356 70.5904 82.3546 70.5071C82.7737 70.4237 83.208 70.4665 83.6027 70.63C83.9974 70.7935 84.3348 71.0704 84.5722 71.4256C84.8095 71.7809 84.9362 72.1985 84.9362 72.6258C84.9362 73.1987 84.7086 73.7481 84.3035 74.1532C83.8984 74.5583 83.349 74.7859 82.7761 74.7859Z" fill="#7BC143"/>
<path d="M43.6452 67.8086C42.69 67.8086 41.7563 68.0914 40.9615 68.6212C40.1667 69.151 39.5465 69.9041 39.1791 70.7858C38.8116 71.6674 38.7133 72.6381 38.8965 73.5756C39.0797 74.513 39.5363 75.3752 40.2087 76.0536C40.8811 76.732 41.7392 77.1963 42.675 77.3878C43.6108 77.5794 44.5823 77.4897 45.4672 77.1301C46.3521 76.7704 47.1107 76.157 47.6476 75.3669C48.1844 74.5769 48.4754 73.6457 48.484 72.6906C48.4882 72.0519 48.3663 71.4187 48.1252 70.8273C47.8841 70.2358 47.5285 69.6979 47.0789 69.2443C46.6293 68.7906 46.0945 68.4303 45.5053 68.1839C44.916 67.9376 44.2839 67.81 43.6452 67.8086ZM43.6452 74.7859C43.218 74.7859 42.8003 74.6592 42.4451 74.4219C42.0899 74.1845 41.813 73.8471 41.6495 73.4524C41.486 73.0577 41.4432 72.6234 41.5266 72.2043C41.6099 71.7853 41.8156 71.4004 42.1177 71.0983C42.4199 70.7962 42.8048 70.5904 43.2238 70.5071C43.6428 70.4237 44.0772 70.4665 44.4719 70.63C44.8666 70.7935 45.204 71.0704 45.4413 71.4256C45.6787 71.7809 45.8054 72.1985 45.8054 72.6258C45.8054 73.1987 45.5778 73.7481 45.1727 74.1532C44.7676 74.5583 44.2181 74.7859 43.6452 74.7859Z" fill="#7BC143"/>
<path d="M18.6413 67.8086C17.6861 67.8086 16.7523 68.0914 15.9576 68.6212C15.1628 69.151 14.5426 69.9041 14.1752 70.7858C13.8077 71.6674 13.7094 72.6381 13.8926 73.5756C14.0758 74.513 14.5324 75.3752 15.2048 76.0536C15.8772 76.732 16.7353 77.1963 17.6711 77.3878C18.6069 77.5794 19.5784 77.4897 20.4633 77.1301C21.3482 76.7704 22.1068 76.157 22.6437 75.3669C23.1805 74.5769 23.4715 73.6457 23.4801 72.6906C23.4843 72.0519 23.3624 71.4187 23.1213 70.8273C22.8802 70.2358 22.5246 69.6979 22.075 69.2443C21.6254 68.7906 21.0906 68.4303 20.5013 68.1839C19.9121 67.9376 19.28 67.81 18.6413 67.8086ZM18.6413 74.7859C18.2141 74.7859 17.7964 74.6592 17.4412 74.4219C17.0859 74.1845 16.8091 73.8471 16.6456 73.4524C16.4821 73.0577 16.4393 72.6234 16.5227 72.2043C16.606 71.7853 16.8117 71.4004 17.1138 71.0983C17.4159 70.7962 17.8008 70.5904 18.2199 70.5071C18.6389 70.4237 19.0732 70.4665 19.468 70.63C19.8627 70.7935 20.2001 71.0704 20.4374 71.4256C20.6748 71.7809 20.8015 72.1985 20.8015 72.6258C20.8015 73.1987 20.5739 73.7481 20.1688 74.1532C19.7637 74.5583 19.2142 74.7859 18.6413 74.7859Z" fill="#7BC143"/>
<path d="M82.5486 35.3193H75.8521C75.494 35.3193 75.1506 35.4616 74.8974 35.7148C74.6442 35.968 74.502 36.3114 74.502 36.6694V48.5503C74.502 48.9084 74.6442 49.2518 74.8974 49.505C75.1506 49.7582 75.494 49.9004 75.8521 49.9004H92.3989C92.6496 49.9004 92.8954 49.8306 93.1087 49.6988C93.322 49.567 93.4943 49.3784 93.6065 49.1541C93.7186 48.9299 93.7661 48.6788 93.7435 48.4291C93.721 48.1794 93.6294 47.9409 93.479 47.7403L83.6286 35.8594C83.5035 35.6911 83.3405 35.5545 83.1529 35.4607C82.9653 35.3669 82.7583 35.3185 82.5486 35.3193ZM77.2022 47.2002V38.0195H81.9221L89.4827 47.2434L77.2022 47.2002Z" fill="#005CAB"/>
<path d="M61.2284 50.1545C60.0989 48.13 58.0252 45.303 54.5444 43.4001C52.7299 42.4112 47.2028 39.3883 42.9628 42.3178C39.7597 44.5383 38.8524 49.2872 39.4263 50.7143C39.0931 51.0408 38.769 51.358 38.4728 51.6566C38.2876 50.9941 38.0469 50.3784 37.7784 49.7999C38.5931 47.8033 38.9356 42.8586 36.1675 39.4068C32.2238 34.4993 24.6601 36.1227 22.1793 36.6545C17.4023 37.6808 13.9767 40.2744 11.9403 42.2803C11.6811 42.5322 11.5978 42.9148 11.7181 43.2599C11.8385 43.6051 12.144 43.8477 12.4958 43.885C12.5513 43.885 18.0782 44.5102 22.8278 49.4269C25.6977 52.3937 28.3639 53.4759 30.7151 53.4759C32.9092 53.4759 34.8348 52.5429 36.4086 51.3301C36.6771 52.0484 36.89 52.8228 37.0196 53.6624L37.0011 55.547C37.0011 56.0602 37.4084 56.48 37.9176 56.4893H37.9269C38.4361 56.4893 38.8434 56.0788 38.8527 55.5656L38.8712 53.9516C38.9638 53.8583 39.0563 53.7464 39.1767 53.6344C39.5748 53.2239 40.0192 52.7574 40.5006 52.2909C41.7689 53.8023 43.5371 55.0245 45.9441 55.0245C47.4346 55.0245 49.1658 54.558 51.1748 53.4198C55.8777 50.7609 60.2103 51.5352 60.2471 51.5446C60.5989 51.6099 60.9599 51.4699 61.1729 51.1714C61.3858 50.8728 61.4043 50.4903 61.2284 50.1731L61.2284 50.1545ZM24.1416 48.1113C20.6422 44.482 16.8094 42.9893 14.5781 42.3922C16.4666 40.8341 19.1329 39.2014 22.5584 38.4737C24.771 37.9979 31.4921 36.5611 34.723 40.5822C36.4727 42.756 36.6394 45.6949 36.4264 47.5515C31.779 41.3566 22.4932 40.75 22.373 40.75C21.873 40.75 21.4657 41.1511 21.4472 41.6549C21.4286 42.1587 21.8175 42.5879 22.3174 42.6159C22.7711 42.6439 31.8436 43.2503 35.5746 49.5948C31.8159 52.6736 28.0664 52.1978 24.1323 48.1207L24.1416 48.1113ZM50.2577 51.7685C46.7027 53.7837 43.944 53.5318 41.8608 51.0128C43.3976 49.716 45.2492 48.5031 47.4432 48.018C49.1559 47.6448 50.989 47.7288 52.8961 48.2792C53.3867 48.4192 53.8959 48.13 54.044 47.6355C54.1829 47.141 53.8959 46.6279 53.4053 46.4786C51.2019 45.8442 49.0634 45.7509 47.0454 46.1894C44.7217 46.7025 42.7405 47.9061 41.1109 49.2029C41.2498 47.8221 41.9997 45.2285 43.9994 43.8383C47.3044 41.5525 52.0816 44.1648 53.6458 45.0232C55.9417 46.2734 57.5526 47.9807 58.6358 49.5201C56.7101 49.5387 53.5717 49.8653 50.2389 51.7499L50.2577 51.7685Z" fill="#7BC143"/>
</svg>
