<svg width="101" height="100" viewBox="0 0 101 100" fill="none" xmlns="http://www.w3.org/2000/svg">
<path d="M18.401 54.5895C18.8151 54.734 19.2721 54.6989 19.6588 54.4918C20.0455 54.2809 20.3268 53.9215 20.4322 53.4957C20.9049 51.7887 21.5611 50.1402 22.3853 48.5738V92.1678C22.3853 92.5819 22.5494 92.9803 22.8424 93.2733C23.1354 93.5663 23.5338 93.7304 23.9479 93.7304H63.4789C61.8109 92.9765 60.2992 91.9179 59.0258 90.6054H25.5098V43.7304C26.3692 42.6366 26.9942 41.9335 26.9942 41.9335C27.6192 41.3085 27.6192 40.2929 26.9942 39.6679C26.3692 39.0429 25.3536 39.0429 24.7286 39.6679C21.7481 42.996 19.4434 46.871 17.9317 51.0739L3.79068 45.9177C6.13448 31.5427 17.6967 19.8237 20.0407 17.5587L20.5094 17.2462L36.5254 9.98058C36.2168 13.9259 38.0332 17.7345 41.291 19.9806C43.8965 21.7423 46.9746 22.6681 50.1191 22.6368C52.9941 22.6758 55.8222 21.9454 58.3222 20.5274C62.0722 18.3829 64.373 14.379 64.3378 10.0584L80.5098 17.324L80.9786 17.6365C82.9317 19.4334 90.9005 27.5584 95.1196 38.3395C96.5141 38.8434 97.8501 39.4997 99.104 40.2926C95.1196 27.4016 85.354 17.4806 83.166 15.3706C82.7754 15.0112 82.3261 14.7221 81.8379 14.5112L64.1819 6.5424C63.1233 6.06974 61.8928 6.21818 60.9788 6.93302C55.8226 11.0736 45.2758 11.0736 40.1198 6.93302C39.2057 6.21818 37.9753 6.06974 36.9167 6.5424L19.1827 14.433C18.6944 14.6439 18.2452 14.933 17.8546 15.2924C15.3546 17.7924 2.54258 30.7614 0.51058 46.6984C0.38949 47.4406 0.81917 48.1632 1.52618 48.4172L18.401 54.5895ZM61.213 10.4485C61.0997 13.5032 59.4161 16.2805 56.7599 17.7923C52.6974 20.2142 46.838 20.0579 43.0879 17.4798C40.7676 15.886 39.459 13.1829 39.6504 10.3704C45.5879 13.9642 55.198 13.9642 61.213 10.4485Z" fill="#005CAB"/>
<path d="M100.511 47.6363C100.511 42.0894 90.0417 39.0425 80.1987 39.0425C70.3557 39.0425 59.8867 42.0894 59.8867 47.6363C59.8867 49.9801 61.6836 51.8551 64.5742 53.2613V79.5113C61.7617 80.9175 59.8867 82.7925 59.8867 85.1363C59.8867 90.6832 70.3557 93.7301 80.1987 93.7301C90.0417 93.7301 100.511 90.6832 100.511 85.1363C100.511 82.7925 98.6357 80.9175 95.8232 79.5113V53.2613C98.7138 51.8551 100.511 49.9801 100.511 47.6363ZM63.0107 47.6363C63.0107 45.3707 69.7295 42.1675 80.1987 42.1675C90.6679 42.1675 97.3867 45.3706 97.3867 47.6363C97.3867 49.902 90.6679 53.1051 80.1987 53.1051C69.7295 53.1051 63.0107 49.902 63.0107 47.6363ZM87.0727 55.9175L92.6977 60.1363V63.5738L84.8852 57.48L86.9946 55.9175H87.0727ZM92.6977 80.9955C90.0883 82.0697 87.3618 82.8314 84.5727 83.2611L92.6977 77.4799V80.9955ZM80.1977 56.2295H81.2915L67.6975 66.0733V63.0264H67.8538L77.3069 56.1514L80.1977 56.2295ZM67.6977 70.2915V69.9009H67.854L70.4321 67.9478H84.1041L87.2291 70.2916L67.6977 70.2915ZM67.6977 73.4165H73.6352L67.6977 77.7134V73.4165ZM77.4633 62.8695L80.0414 64.8226H74.7289L77.4633 62.8695ZM92.6973 70.5257L80.1193 60.9163L82.3068 59.3538L92.6978 67.5569L92.6973 70.5257ZM68.6353 80.9167L78.9473 73.4167H83.1661L71.0571 82.2448L68.0102 81.151L68.6353 80.9167ZM88.5573 73.4167H91.3698L92.1511 74.0417L78.7921 83.5729L75.0421 83.1823L88.5573 73.4167ZM72.6983 55.6047L67.6983 59.1985V54.511C69.335 54.9954 71.0069 55.3624 72.6983 55.6047ZM97.3863 85.1357C97.3863 87.4013 90.6675 90.6045 80.1983 90.6045C69.7291 90.6045 63.0103 87.4014 63.0103 85.1357C63.0103 84.4326 63.7134 83.5732 65.1197 82.7919C65.4518 83.2724 65.9127 83.6513 66.4478 83.8857C70.7994 85.7334 75.4712 86.6865 80.1978 86.6982C84.8892 86.6279 89.5298 85.6709 93.8698 83.8857C94.4362 83.6669 94.9245 83.2841 95.276 82.7919C96.6822 83.5731 97.3863 84.4325 97.3863 85.1357ZM92.6988 56.2297L90.98 54.9797L92.6988 54.5109V56.2297Z" fill="#7BC143"/>
<path d="M87.2284 47.6367C87.2284 45.3711 84.3378 43.7305 80.1972 43.7305C76.0566 43.7305 73.166 45.3711 73.166 47.6367C73.166 49.9023 76.0566 51.5429 80.1972 51.5429C84.3378 51.5429 87.2284 49.9023 87.2284 47.6367ZM80.1972 46.8554C81.4667 46.7929 82.7324 47.0624 83.8691 47.6367C81.5293 48.6719 78.8652 48.6719 76.5253 47.6367C77.662 47.0624 78.9276 46.7929 80.1972 46.8554Z" fill="#005CAB"/>
</svg>
