<svg width="101" height="100" viewBox="0 0 101 100" fill="none" xmlns="http://www.w3.org/2000/svg">
<path d="M96.5814 96.5517H85.2819C90.2365 72.4674 88.7113 38.7668 87.097 18.6313C87.0976 18.6138 87.1071 18.5993 87.1071 18.5816C87.1071 18.5406 87.0865 18.5063 87.0837 18.4659C86.2705 8.36348 85.4421 1.70393 85.4166 1.50524C85.3072 0.646552 84.5748 0 83.706 0H17.293C16.4242 0 15.6917 0.646552 15.5823 1.50524C15.5568 1.70414 14.7268 8.37569 13.9129 18.4937C13.9112 18.5244 13.8952 18.5505 13.8952 18.5816C13.8952 18.5951 13.9026 18.6062 13.9028 18.6195C12.2879 38.7538 10.7614 72.4626 15.717 96.5517H4.4175C3.4645 96.5517 2.69336 97.3229 2.69336 98.2759C2.69336 99.2289 3.4645 100 4.4175 100H96.5814C97.5344 100 98.3056 99.2289 98.3056 98.2759C98.3056 97.3229 97.5344 96.5517 96.5814 96.5517ZM19.2259 96.5517C18.779 94.4529 18.3863 92.2725 18.0382 90.0323H31.0069C31.9599 90.0323 32.7311 89.2612 32.7311 88.3082C32.7311 87.3552 31.9599 86.584 31.0069 86.584H17.5464C14.6699 64.6522 15.8656 37.8058 17.2246 20.3058H57.8877C58.8407 20.3058 59.6118 19.5346 59.6118 18.5816C59.6118 17.6286 58.8407 16.8575 57.8877 16.8575H17.5041C18.0399 10.5039 18.5594 5.73476 18.8235 3.44828H82.1755C82.4396 5.73479 82.959 10.5039 83.4949 16.8575H69.4077C68.4547 16.8575 67.6836 17.6286 67.6836 18.5816C67.6836 19.5346 68.4547 20.3058 69.4077 20.3058H83.7744C85.1333 37.8058 86.329 64.6522 83.4526 86.584H39.7842C38.8312 86.584 38.0601 87.3552 38.0601 88.3082C38.0601 89.2612 38.8312 90.0323 39.7842 90.0323H82.9607C82.6126 92.2725 82.2199 94.4529 81.773 96.5517H19.2259Z" fill="#005CAB"/>
<path d="M75.9474 51.5089C75.9474 37.4767 64.53 26.0576 50.4962 26.0576C36.4623 26.0576 25.0449 37.4767 25.0449 51.5089C25.0449 65.5411 36.4623 76.9601 50.4962 76.9601C64.53 76.9601 75.9474 65.5411 75.9474 51.5089ZM28.4932 51.5089C28.4932 39.3759 38.3632 29.5059 50.4962 29.5059C62.6291 29.5059 72.4991 39.3759 72.4991 51.5089C72.4991 63.6418 62.6291 73.5118 50.4962 73.5118C38.3632 73.5118 28.4932 63.6418 28.4932 51.5089Z" fill="#7BC143"/>
<path d="M51.1921 62.6952C51.1524 63.6947 51.1511 64.7085 51.2281 65.7488C51.2955 66.6547 52.0515 67.345 52.9456 67.345C52.9877 67.345 53.0314 67.345 53.0752 67.3416C54.0248 67.2709 54.737 66.4425 54.6663 65.4929C54.4719 62.8646 54.7295 60.4061 55.3842 58.1451C58.3956 57.5314 60.3719 56.5369 61.445 55.0201C62.8021 53.1006 62.4014 50.9387 62.0562 49.0698C61.6774 46.9988 63.2904 45.2309 63.2988 45.2242C63.8309 44.6652 63.9286 43.8233 63.5379 43.1599C63.149 42.4965 62.3728 42.1733 61.6185 42.3618C61.2834 42.4494 53.3682 44.554 51.3225 49.8342C50.4663 52.0447 50.7873 54.4036 52.1709 56.8621C52.0593 57.2252 51.9482 57.5884 51.8556 57.9599C51.5664 57.6943 51.2438 57.4285 50.8912 57.1589C50.5532 54.5152 49.8135 52.7355 48.541 51.6998C46.9246 50.3831 45.0304 50.6054 43.1901 50.8108C41.5485 50.9792 40.2217 49.6322 40.2183 49.6288C39.6946 49.0631 38.873 48.9082 38.186 49.2516C37.5007 49.5917 37.1219 50.3427 37.2549 51.097C37.3846 51.8378 38.6558 58.3943 43.0537 60.4081C43.8921 60.7953 44.7677 60.9839 45.6769 60.9839C46.7457 60.9839 47.8733 60.6318 49.0277 60.1037C50.6915 61.4635 51.1627 62.6049 51.1921 62.6952ZM54.5367 51.0835C55.1664 49.4503 56.9158 48.1471 58.6736 47.2177C58.5406 48.0124 58.5187 48.8913 58.6904 49.8309C58.9733 51.3664 59.1114 52.3463 58.6281 53.0299C58.261 53.5519 57.3081 54.2422 54.8987 54.7541C54.2269 53.4003 54.109 52.1914 54.5367 51.0835ZM44.4949 57.2763C43.3432 56.751 42.4626 55.4781 41.8312 54.1345C42.4627 54.2456 43.1564 54.2826 43.9056 54.2018C45.1246 54.057 45.9059 53.9998 46.3621 54.3735C46.6551 54.6126 47.1434 55.2794 47.433 57.1214C46.3066 57.6097 45.3351 57.6602 44.4949 57.2763Z" fill="#7BC143"/>
</svg>
