<svg width="101" height="100" viewBox="0 0 101 100" fill="none" xmlns="http://www.w3.org/2000/svg">
<path d="M41.124 15.625C43.7099 15.625 45.8115 13.5234 45.8115 10.9375C45.8115 8.3516 43.7099 6.25 41.124 6.25C38.542 6.25 36.4365 8.3516 36.4365 10.9375C36.4365 13.5234 38.5381 15.625 41.124 15.625ZM41.124 9.375C41.9834 9.375 42.6865 10.0781 42.6865 10.9375C42.6865 11.7969 41.9834 12.5 41.124 12.5C40.2646 12.5 39.5615 11.7969 39.5615 10.9375C39.5615 10.0781 40.2646 9.375 41.124 9.375Z" fill="#7BC143"/>
<path d="M50.499 23.4385C53.0849 23.4385 55.1865 21.3369 55.1865 18.751C55.1865 16.1651 53.0849 14.0635 50.499 14.0635C47.9131 14.0635 45.8115 16.1651 45.8115 18.751C45.8115 21.3369 47.9131 23.4385 50.499 23.4385ZM50.499 17.1885C51.3584 17.1885 52.0615 17.8916 52.0615 18.751C52.0615 19.6104 51.3584 20.3135 50.499 20.3135C49.6357 20.3135 48.9365 19.6104 48.9365 18.751C48.9365 17.8916 49.6396 17.1885 50.499 17.1885Z" fill="#7BC143"/>
<path d="M55.1875 12.5C58.6328 12.5 61.4375 9.6953 61.4375 6.25C61.4375 2.8047 58.6328 0 55.1875 0C51.7422 0 48.9375 2.8047 48.9375 6.25C48.9375 9.6953 51.7422 12.5 55.1875 12.5ZM55.1875 3.125C56.9102 3.125 58.3125 4.5273 58.3125 6.25C58.3125 7.9727 56.9102 9.375 55.1875 9.375C53.4648 9.375 52.0625 7.9727 52.0625 6.25C52.0625 4.5273 53.4648 3.125 55.1875 3.125Z" fill="#7BC143"/>
<path d="M81.3819 82.8586L61.4369 53.8786V35.9336C64.0228 35.9336 66.1244 33.832 66.1244 31.2461C66.1244 28.6641 64.0228 26.5586 61.4369 26.5586H39.5619C36.976 26.5586 34.8744 28.6602 34.8744 31.2461C34.8744 33.8281 36.976 35.9336 39.5619 35.9336V53.8786L19.6169 82.8586C17.3044 86.218 17.0466 90.5422 18.945 94.1476C20.8434 97.757 24.5505 99.9953 28.6247 99.9953H72.3747C76.4528 99.9953 80.1599 97.7531 82.0544 94.1476C83.9528 90.5382 83.6944 86.214 81.3819 82.8586ZM37.9989 31.2496C37.9989 30.3902 38.702 29.6871 39.5614 29.6871H61.4364C62.2958 29.6871 62.9989 30.3902 62.9989 31.2496C62.9989 32.109 62.2958 32.8121 61.4364 32.8121H39.5614C38.702 32.8121 37.9989 32.109 37.9989 31.2496ZM79.2879 92.6946C77.9324 95.2727 75.284 96.8743 72.3738 96.8743H28.6238C25.7136 96.8743 23.0613 95.2727 21.7097 92.6946C20.3581 90.1165 20.5378 87.0305 22.1901 84.6321L42.4131 55.2491C42.5928 54.9913 42.6866 54.6788 42.6866 54.3624V35.9324H58.3116V54.3624C58.3116 54.6788 58.4053 54.9874 58.585 55.2491L78.808 84.6321C80.4564 87.0305 80.6433 90.1204 79.2879 92.6946Z" fill="#005CAB"/>
<path d="M63.4764 67.8633C63.1873 67.4414 62.7029 67.1875 62.1873 67.1875H38.8123C38.2967 67.1875 37.8162 67.4414 37.5232 67.8633L24.7612 86.4023C23.769 87.8398 23.6596 89.6953 24.4721 91.2421C25.2885 92.789 26.8744 93.7499 28.6205 93.7499H72.3705C74.1166 93.7499 75.7064 92.7889 76.5189 91.2421C77.3314 89.6952 77.222 87.8437 76.2299 86.4062L63.4679 67.8672L63.4764 67.8633ZM73.7574 89.7893C73.4839 90.3049 72.9566 90.6252 72.3746 90.6252H28.6246C28.0426 90.6252 27.5152 90.3049 27.2418 89.7893C26.9683 89.2737 27.0074 88.6565 27.3355 88.176L39.6325 70.313H61.3665L73.6635 88.176C73.9917 88.6565 74.0308 89.2737 73.7574 89.7893Z" fill="#7BC143"/>
<path d="M44.249 78.125C41.6631 78.125 39.5615 80.2266 39.5615 82.8125C39.5615 85.3984 41.6631 87.5 44.249 87.5C46.831 87.5 48.9365 85.3984 48.9365 82.8125C48.9365 80.2266 46.8349 78.125 44.249 78.125ZM44.249 84.375C43.3896 84.375 42.6865 83.6719 42.6865 82.8125C42.6865 81.9492 43.3896 81.25 44.249 81.25C45.1084 81.25 45.8115 81.9531 45.8115 82.8125C45.8115 83.6758 45.1084 84.375 44.249 84.375Z" fill="#005CAB"/>
<path d="M56.749 73.4385C54.1631 73.4385 52.0615 75.5401 52.0615 78.126C52.0615 80.7119 54.1631 82.8135 56.749 82.8135C59.3349 82.8135 61.4365 80.7119 61.4365 78.126C61.4365 75.5401 59.3349 73.4385 56.749 73.4385ZM56.749 79.6885C55.8896 79.6885 55.1865 78.9854 55.1865 78.126C55.1865 77.2627 55.8896 76.5635 56.749 76.5635C57.6123 76.5635 58.3115 77.2666 58.3115 78.126C58.3115 78.9893 57.6084 79.6885 56.749 79.6885Z" fill="#005CAB"/>
</svg>
