<svg width="101" height="100" viewBox="0 0 101 100" fill="none" xmlns="http://www.w3.org/2000/svg">
<path fill-rule="evenodd" clip-rule="evenodd" d="M82.5566 34.9816C85.4473 34.9816 87.8936 34.0246 89.6368 32.2179C91.1604 30.6408 92.0929 28.4289 92.259 25.9971C92.4539 23.1714 91.4967 20.9971 90.6533 19.0812L90.6476 19.0683L90.618 19.0007C90.0103 17.6135 89.4862 16.4169 89.5294 15.2158C89.5538 14.5566 89.1632 13.9463 88.548 13.6973C87.9376 13.4482 87.2296 13.6045 86.7852 14.0879C86.2823 14.6348 85.8965 15.1621 85.5987 15.6845C84.8076 14.0585 84.6856 13.0869 86.1114 11.6074C86.5996 11.0995 86.6924 10.333 86.3457 9.7226C85.9942 9.11224 85.2862 8.8095 84.6026 8.97552C77.8008 10.6357 77.7519 14.8642 77.7227 17.6572C77.7129 18.5166 77.7031 19.332 77.5176 19.9131C77.4883 20.0108 77.4541 20.0791 77.4297 20.128C77.2686 20.0645 76.9658 19.8643 76.7021 19.459C76.5117 19.166 76.1113 18.3799 76.4775 17.4326C76.7412 16.749 76.5068 15.9775 75.9013 15.5576C75.3008 15.1426 74.4902 15.1963 73.9433 15.6845C71.1552 18.1943 70.33 23.4434 72.0243 27.8965C73.7284 32.3741 77.5664 34.9571 82.5567 34.9767L82.5566 34.9816ZM74.4365 21.7197C74.4316 21.7149 74.4267 21.7051 74.4218 21.7002L74.4169 21.7002C74.1923 23.2578 74.3241 25.0645 74.9735 26.7735C75.6864 28.6485 77.6249 31.798 82.5566 31.8175C88.2403 31.8175 88.9971 27.1984 89.0948 25.7824C89.2364 23.7266 88.5138 22.0811 87.7472 20.3428C87.7154 20.272 87.6837 20.2 87.6519 20.1279C87.6202 20.0559 87.5885 19.9839 87.5567 19.9131L87.5426 20.0022C87.5276 20.0982 87.5118 20.1985 87.4933 20.2988L87.4102 20.7774C87.2735 21.5538 86.5899 22.1153 85.7989 22.0909C85.0128 22.0665 84.3633 21.461 84.2803 20.6749C84.1928 19.8429 83.7271 18.9577 83.2359 18.024L83.2305 18.0137C82.6006 16.8223 81.8438 15.3868 81.834 13.7705C80.908 14.8037 80.8917 16.1191 80.8722 17.6875L80.8721 17.6963L80.8721 17.6989C80.8623 18.7577 80.8523 19.8457 80.5205 20.88C80.1104 22.1739 79.2217 23.0381 78.0889 23.2628C76.8389 23.5118 75.4423 22.9209 74.4365 21.7197Z" fill="#7BC143"/>
<path d="M29.5939 67.0873C30.5705 65.7494 31.5079 63.4056 30.4142 59.8362C29.2961 56.1936 26.8986 52.2971 25.6094 50.2072C25.5413 50.0959 25.4751 49.9881 25.4119 49.8851C25.1894 49.5229 25.003 49.2195 24.8966 49.0256C24.6182 48.5227 24.086 48.2053 23.5098 48.2053C22.9336 48.2053 22.4014 48.5178 22.123 49.0256C21.9959 49.2572 21.7547 49.6493 21.4741 50.1038L21.4174 50.1954L23.0588 53.5863C23.2145 53.3236 23.3657 53.0722 23.5099 52.8342C24.7648 54.9044 26.5373 57.9807 27.387 60.764C27.661 61.6599 27.7722 62.4849 27.7224 63.2208L29.5939 67.0873Z" fill="#7BC143"/>
<path fill-rule="evenodd" clip-rule="evenodd" d="M21.4174 50.1954L21.4101 50.2072L21.4006 50.2228C20.1093 52.3212 17.7208 56.2027 16.6053 59.8362C15.5116 63.4056 16.4491 65.7494 17.4257 67.0873C18.7489 68.8988 21.0147 70.0023 23.4903 70.0317H23.5098H23.5294C26.0001 70.0024 28.2707 68.9038 29.5939 67.0873L27.7224 63.2208C27.7722 62.4849 27.661 61.6599 27.387 60.764C26.5373 57.9807 24.7648 54.9044 23.5099 52.8342C23.3657 53.0722 23.2145 53.3236 23.0588 53.5863L21.4174 50.1954ZM23.0588 53.5863C21.8597 55.609 20.3848 58.305 19.6329 60.764H19.6233C19.0617 62.595 19.1838 64.138 19.9748 65.222C20.7121 66.2279 22.0305 66.8431 23.5051 66.8675C24.9798 66.8432 26.2981 66.2328 27.0354 65.222C27.4404 64.667 27.6701 63.993 27.7224 63.2208L23.0588 53.5863Z" fill="#7BC143"/>
<path fill-rule="evenodd" clip-rule="evenodd" d="M95.7158 90.4259H95.2958V64.5032C95.2958 58.0822 90.4764 52.7745 84.2655 51.993V40.5574H84.5145C85.3885 40.5574 86.0965 39.8494 86.0965 38.9754C86.0965 38.1014 85.3885 37.3934 84.5145 37.3934H80.8524C79.9783 37.3934 79.2703 38.1014 79.2703 38.9754C79.2703 39.8494 79.9784 40.5574 80.8524 40.5574H81.1014V51.993C76.0573 52.6278 71.9363 56.2459 70.5641 61.0215H63.7623C60.7545 61.0215 58.3081 63.4678 58.3081 66.4757V69.4982H57.0289L43.62 8.27633H45.1533C46.0273 8.27633 46.7353 7.56831 46.7353 6.69432V1.58202C46.7353 0.707982 46.0273 0 45.1533 0H21.9543C21.0803 0 20.3723 0.70802 20.3723 1.58202V6.69432C20.3723 7.56835 21.0803 8.27633 21.9543 8.27633H23.4876L17.1837 37.0604C10.4795 39.6141 5.70412 46.1083 5.70412 53.7005V90.4297H5.2842C2.64742 90.4297 0.499023 92.5782 0.499023 95.2148C0.499023 97.8515 2.64754 100 5.2842 100H95.7151C98.3519 100 100.5 97.8515 100.5 95.2148C100.5 92.5782 98.3518 90.4297 95.7151 90.4297L95.7158 90.4259ZM82.6839 55.0548C77.4739 55.0548 73.2355 59.2931 73.2355 64.5032H73.2308V90.4259H92.1322V64.5032C92.1322 59.2931 87.894 55.0548 82.6839 55.0548ZM63.7627 64.1858C62.4981 64.1858 61.4727 65.2112 61.4727 66.4758L61.4677 66.4708V69.4933H61.5312C64.5781 69.4933 67.0586 71.9739 67.0586 75.0208V90.4259H70.0714V64.5032C70.0714 64.4131 70.0748 64.3265 70.0788 64.2375L70.0805 64.1992L70.0811 64.1858H63.7627ZM41.3062 73.3559V90.426V90.4314H44.6119V75.265L41.3062 73.3559ZM47.1614 39.2191L34.1871 25L33.5528 24.3904L20.3723 36.5C20.8753 36.4561 22.9912 35.8992 23.5039 35.8992C28.6792 35.8992 35.2912 40.6499 38.5481 44.1899L47.1614 39.2191ZM25.8676 12.2276L20.3723 36.5L33.5528 24.3904L25.8676 12.2276ZM42.0539 15.8942L33.5528 24.3904L47.1614 39.2191L42.0539 15.8942ZM50.1839 53.023L47.1614 39.2191L38.5481 44.1899C39.1438 45.1323 39.6565 46.1333 40.0716 47.1831L50.1839 53.023ZM41.3069 60.7576L49.2806 56.1531H49.2757L41.1653 51.4704C41.258 52.2029 41.3069 52.9451 41.3069 53.7019V60.7576ZM47.7768 90.4309H63.8995L63.9 75.0257C63.9 73.7221 62.8404 72.6625 61.5367 72.6625H50.1401C48.8364 72.6625 47.7768 73.722 47.7768 75.0257V90.4309ZM45.4566 72.0958C46.4333 70.5382 48.1667 69.4982 50.1393 69.4982L53.7966 69.4981L51.404 58.58L41.3111 64.4053V69.7032L45.4566 72.0958ZM43.5718 3.16503H23.5378V5.11818H43.5718V3.16503ZM42.0539 15.8942L40.3842 8.27733H26.7319L25.8676 12.2276L33.5528 24.3904L42.0539 15.8942ZM38.1329 53.2578C37.8992 45.3921 31.4339 39.0639 23.5091 39.0639H23.4986C15.5788 39.0639 9.10903 45.3915 8.87466 53.2578H12.3806C13.2546 53.2578 13.9626 53.9658 13.9626 54.8398C13.9626 55.7138 13.2546 56.4218 12.3806 56.4218H8.86491V77.1983H38.1427V56.4218H34.627C33.753 56.4218 33.045 55.7138 33.045 54.8398C33.045 53.9658 33.753 53.2578 34.627 53.2578H38.1329ZM38.1479 80.358H8.87016V90.4265H38.1479V80.358ZM5.28637 96.8431L95.7173 96.8382V96.8431C96.6157 96.8431 97.3433 96.1156 97.3433 95.2171C97.3433 94.3186 96.6157 93.5911 95.7173 93.5911H5.28637C4.3879 93.5911 3.66035 94.3235 3.66035 95.2171C3.66035 96.1156 4.38792 96.8431 5.28637 96.8431Z" fill="#005CAB"/>
</svg>
