<svg width="97" height="100" viewBox="0 0 97 100" fill="none" xmlns="http://www.w3.org/2000/svg">
<path fill-rule="evenodd" clip-rule="evenodd" d="M23.5126 21.4171C23.3067 21.1609 23.0925 20.9088 22.8614 20.6652H48.527C48.3001 20.9088 48.0817 21.1609 47.8759 21.4171C46.7291 22.8537 45.9268 24.5633 45.5656 26.4201H25.8229C25.4617 24.5676 24.6551 22.8579 23.5126 21.4171ZM17.0351 20.6652C18.6272 21.1861 19.9882 22.1606 20.9921 23.4208L20.9879 23.4249C21.6853 24.3029 22.2104 25.3195 22.5128 26.4243H11.8515C11.0619 26.4243 10.3393 26.0966 9.81421 25.5757C9.29753 25.059 8.97408 24.3408 8.97408 23.5468C8.97408 22.7571 9.30173 22.0346 9.82261 21.5137C10.3477 20.9929 11.0702 20.6652 11.8557 20.6652H17.0351ZM54.3501 20.6652C52.758 21.1861 51.397 22.1606 50.393 23.4208C49.6957 24.2988 49.1707 25.3195 48.8681 26.4201H59.5295C60.3234 26.4201 61.0416 26.0967 61.5667 25.58C62.0876 25.0591 62.4069 24.3367 62.4069 23.5469C62.4069 22.7572 62.0792 22.0347 61.5583 21.5138C61.0375 20.9929 60.315 20.6653 59.5253 20.6653L54.3501 20.6652ZM5.77353 56.98C7.64703 48.2598 10.9655 39.1481 15.7207 29.6463L15.7235 29.6545H55.668C57.8523 34.0404 59.6502 38.3083 61.1372 42.488C62.704 46.8983 63.9348 51.2166 64.9136 55.4677V70.4217L52.0178 75.3029C51.3457 75.4962 50.8542 76.1179 50.8542 76.853V91.749C44.2644 92.9588 37.6857 93.3872 31.1159 93.0218C24.1098 92.6311 17.086 91.3373 10.0709 89.1487C8.55023 88.6741 7.27325 87.8256 6.32809 86.7082C5.3829 85.5908 4.757 84.1877 4.54277 82.6167C3.44213 74.4794 3.84959 65.9315 5.77353 56.98ZM12.1288 29.6463C7.63413 38.8665 4.46685 47.7596 2.627 56.3122L2.6339 56.301C0.630181 65.6137 0.205937 74.523 1.36529 83.0336C1.66349 85.2346 2.54562 87.1963 3.88144 88.7758C5.21726 90.3594 7.00248 91.5524 9.11966 92.212C16.387 94.4803 23.6667 95.8161 30.9464 96.2236C38.0879 96.6227 45.2164 96.1228 52.3366 94.7366L65.8582 99.853C66.0683 99.9454 66.2951 100 66.5345 100C66.7782 100 67.0092 99.9454 67.2109 99.853L81.1659 94.5727C81.8128 94.3291 82.2077 93.7158 82.2119 93.0647V77.9504L95.226 73.0273C95.8729 72.7837 96.2677 72.1704 96.2719 71.5193V55.292C96.2719 54.5569 95.7763 53.931 95.1 53.7419L81.1579 48.466C80.805 48.3358 80.4059 48.3232 80.0237 48.466L67.6741 53.1372C66.7332 49.2768 65.5864 45.3702 64.175 41.4006C62.8098 37.5524 61.1884 33.6416 59.2603 29.6425H59.5375C61.2178 29.6425 62.7426 28.9535 63.8515 27.8446C64.9522 26.7399 65.6411 25.215 65.6411 23.5389C65.6411 21.8587 64.9521 20.3296 63.8473 19.2249C63.2887 18.6662 62.6208 18.2167 61.8815 17.9058C63.9851 11.6941 56.9031 6.56619 52.4879 3.36928L52.4846 3.36687L51.6949 2.79558C49.4308 1.13633 47.7043 0.439018 45.8224 0.371808C44.0119 0.308791 42.2686 0.838098 39.7944 1.63623C34.8317 3.24012 33.1548 2.27148 31.6138 1.3813L31.6115 1.37999C30.4942 0.733132 29.4188 0.111429 27.6965 0.0106132C24.5217 -0.182217 22.5024 2.28792 20.6608 4.54085L20.652 4.55157L20.6302 4.57822C19.7143 5.69823 18.8574 6.74617 18.2072 6.98373C14.4266 8.36569 12.3935 10.2266 11.3097 12.3773C10.457 14.0618 10.2344 15.8304 10.2218 17.6576C9.19684 17.9432 8.27685 18.4935 7.54174 19.2286C6.43693 20.3375 5.74803 21.8666 5.74803 23.5427C5.74803 25.2187 6.43702 26.7436 7.54174 27.8525C8.65066 28.9573 10.1797 29.6463 11.8558 29.6463H12.1288ZM58.5838 17.4397H13.4474L13.4482 17.4358C13.4776 16.1252 13.6499 14.8902 14.1876 13.8274C14.9269 12.3656 16.4181 11.0634 19.3123 10.009C20.7981 9.4676 21.9358 8.07489 23.1528 6.58513L23.1559 6.58127C24.4959 4.93886 25.9746 3.13253 27.5162 3.22494C28.4781 3.27955 29.2259 3.71221 30.003 4.16168C32.1406 5.40087 34.4594 6.74085 40.7814 4.69937C42.9405 4.00201 44.4443 3.53994 45.7129 3.58615C46.9018 3.62819 48.099 4.1448 49.8086 5.40083L50.5941 5.97633C54.3369 8.68561 60.4531 13.1131 58.5838 17.4397ZM78.9814 74.5144L68.1438 70.4145V57.6273L78.9814 61.7272V74.5144ZM68.1438 83.2769L78.9814 79.1771V91.9643L68.1438 96.0641V83.2769ZM76.0453 76.8499L66.5307 80.4457L57.0162 76.8499L66.5307 73.2498L76.0453 76.8499ZM54.0801 79.1813L64.9177 83.2769V96.0683L54.0801 91.9685V79.1813ZM80.5947 51.7001L90.1093 55.3001L80.5947 58.9001L71.0802 55.3001L80.5947 51.7001ZM82.208 61.7314L93.0456 57.6315V70.4187L82.208 74.5186V61.7314ZM43.8479 8.08878C43.6672 8.96247 44.2217 9.8152 45.0912 10L45.0914 9.99597C46.2088 10.2354 47.2379 10.7479 48.0949 11.462L48.1789 11.525C48.998 12.2307 49.6533 13.1255 50.0775 14.1588C50.4136 14.9822 51.3545 15.3728 52.1736 15.0368C52.997 14.7007 53.3876 13.7598 53.0516 12.9406C52.4298 11.4326 51.4637 10.1136 50.2539 9.07599L50.1615 8.99198C48.9097 7.94178 47.4016 7.19829 45.7592 6.84544C44.8855 6.66478 44.0327 7.21925 43.8479 8.08878Z" fill="#005CAB"/>
<path fill-rule="evenodd" clip-rule="evenodd" d="M36.8285 43.6765L48.935 50.6664C49.7038 51.1116 49.9642 52.0946 49.5189 52.8633L49.3677 53.0818C47.6077 55.2073 46.1164 57.3286 44.8983 59.4289C43.6969 61.5124 42.7517 63.6002 42.0754 65.6837C42.0124 65.8853 41.9074 66.0659 41.7814 66.2172C40.0129 68.3511 38.5217 70.464 37.3203 72.5517C36.1189 74.6436 35.1738 76.7314 34.4933 78.8149C34.2202 79.6592 33.3087 80.1255 32.4644 79.8483C32.309 79.7978 32.1703 79.7306 32.0443 79.6424L19.955 72.6609C19.1863 72.2198 18.9217 71.2369 19.3627 70.4681L19.5602 70.1951C21.022 68.5611 22.362 66.6959 23.5634 64.6124C24.7774 62.5121 25.8654 60.1681 26.8231 57.5805C26.8987 57.3662 27.0205 57.1856 27.1634 57.0302C28.6252 55.4004 29.9568 53.552 31.1456 51.4896C32.3512 49.3935 33.4391 47.0453 34.4052 44.445C34.7161 43.6091 35.6444 43.1848 36.4804 43.4915C36.6064 43.5419 36.724 43.5965 36.8332 43.6721L36.8285 43.6765ZM36.7362 47.3395L45.6961 52.5147C44.3352 54.279 43.1422 56.0475 42.1172 57.8201C41.1511 59.492 40.3404 61.1639 39.6809 62.8358L30.8049 57.711C31.918 56.3121 32.9598 54.7747 33.9301 53.0986C34.9551 51.3175 35.896 49.3937 36.7362 47.3395ZM29.1498 60.4708L38.1139 65.646C36.7613 67.4019 35.5684 69.1704 34.535 70.9515C33.5647 72.6275 32.754 74.2994 32.0944 75.9713L23.2185 70.8465C24.3358 69.4435 25.3776 67.906 26.3437 66.2341C27.3687 64.453 28.3054 62.5376 29.1498 60.4708Z" fill="#7BC143"/>
</svg>
