<svg width="101" height="100" viewBox="0 0 101 100" fill="none" xmlns="http://www.w3.org/2000/svg">
<path d="M24.0256 77.5005C18.0057 77.5005 13.1074 72.6022 13.1074 66.5832C13.1074 60.5623 18.0057 55.6641 24.0256 55.6641C30.0456 55.6641 34.9438 60.5623 34.9438 66.5832C34.9438 72.6022 30.0456 77.5005 24.0256 77.5005ZM24.0256 59.3781C20.0531 59.3781 16.8215 62.6098 16.8215 66.5832C16.8215 70.5548 20.0531 73.7864 24.0256 73.7864C27.9981 73.7864 31.2298 70.5548 31.2298 66.5832C31.2298 62.6098 27.9981 59.3781 24.0256 59.3781Z" fill="#005CAB"/>
<path d="M82.926 77.5005C76.9061 77.5005 72.0078 72.6022 72.0078 66.5832C72.0078 60.5623 76.9061 55.6641 82.926 55.6641C88.946 55.6641 93.8442 60.5623 93.8442 66.5832C93.8442 72.6022 88.946 77.5005 82.926 77.5005ZM82.926 59.3781C78.9535 59.3781 75.7219 62.6098 75.7219 66.5832C75.7219 70.5548 78.9535 73.7864 82.926 73.7864C86.8985 73.7864 90.1302 70.5548 90.1302 66.5832C90.1302 62.6098 86.8985 59.3781 82.926 59.3781Z" fill="#005CAB"/>
<path d="M73.8637 68.4396H33.0172C31.9916 68.4396 31.1602 67.6091 31.1602 66.5826C31.1602 65.5562 31.9916 64.7256 33.0172 64.7256H73.8637C74.8892 64.7256 75.7207 65.5562 75.7207 66.5826C75.7207 67.6091 74.8892 68.4396 73.8637 68.4396Z" fill="#005CAB"/>
<path d="M91.9858 68.4397C90.9603 68.4397 90.1288 67.6091 90.1288 66.5827C90.1288 65.5563 90.9603 64.7257 91.9858 64.7257C94.7088 64.7257 96.9249 62.5096 96.9249 59.7857V55.3916C96.9249 47.9943 95.6945 40.6985 93.2671 33.7093L92.3458 31.0543C91.3411 28.16 88.6055 26.2141 85.5406 26.2141H39.7723C37.539 26.2141 35.4697 27.2224 34.0951 28.9815L26.7232 38.4171C24.1952 41.6542 20.4059 43.7797 16.3282 44.253L8.44398 45.167C5.95223 45.4554 4.07343 47.5645 4.07343 50.0725V59.7857C4.07343 62.5096 6.28954 64.7257 9.01252 64.7257H14.9644C15.99 64.7257 16.8215 65.5563 16.8215 66.5827C16.8215 67.6091 15.99 68.4397 14.9644 68.4397H9.01252C4.24118 68.4397 0.359375 64.557 0.359375 59.7857V50.0725C0.359375 45.6784 3.65089 41.9843 8.016 41.4783L15.9002 40.5643C18.9977 40.2053 21.8757 38.5894 23.7962 36.1321L31.1681 26.6965C33.2518 24.0288 36.3874 22.5 39.7723 22.5H85.5406C90.1859 22.5 94.3307 25.4488 95.8549 29.8356L96.7762 32.4906C99.3396 39.8734 100.639 47.579 100.639 55.3916V59.7857C100.639 64.557 96.7572 68.4397 91.9858 68.4397Z" fill="#005CAB"/>
<path d="M51.5047 46.1932H27.8766C27.0968 46.1932 26.4004 45.7053 26.1329 44.9745C25.8645 44.2418 26.083 43.4203 26.6788 42.918C27.5393 42.1908 28.3726 41.3148 29.156 40.3156L36.5161 30.8727C37.3104 29.8662 38.4938 29.2949 39.7696 29.2949H59.5005C60.0482 29.2949 60.5668 29.5361 60.9196 29.955C61.2732 30.3721 61.4228 30.9253 61.3312 31.4657L60.0409 39.0099C59.3173 43.1737 55.7275 46.1932 51.5047 46.1932ZM32.1782 42.4791H51.5047C53.9176 42.4791 55.9678 40.7545 56.3804 38.3788L57.2989 33.009H39.7696C39.6372 33.009 39.5157 33.0652 39.4377 33.1649L32.1782 42.4791Z" fill="#7BC143"/>
<path d="M70.1955 45.6727C68.3131 45.6727 66.5458 44.8602 65.3226 43.4348C64.0849 41.9913 63.5571 40.0925 63.8763 38.2246L65.0986 30.8491C65.2464 29.9514 66.0217 29.2949 66.9303 29.2949H85.5287C87.2878 29.2949 88.8574 30.4048 89.434 32.0587L90.3626 34.7064C91.3645 37.637 92.0972 40.3501 92.6077 43.0123C92.7111 43.5491 92.5723 44.104 92.2287 44.5302C91.885 44.9545 91.3718 45.2066 90.825 45.2193L70.3007 45.6727C70.2662 45.6727 70.2308 45.6727 70.1955 45.6727ZM68.5053 33.009L67.5387 38.8394C67.4054 39.6247 67.6257 40.4153 68.1426 41.0174C68.6667 41.6286 69.442 41.9677 70.2299 41.9586L88.4974 41.556C88.0676 39.7462 87.5235 37.8855 86.8525 35.9215L85.9276 33.2846C85.8705 33.1178 85.71 33.009 85.5287 33.009H68.5053Z" fill="#7BC143"/>
<path d="M56.1715 60.8283H47.4957C46.4702 60.8283 45.6387 59.9977 45.6387 58.9713C45.6387 57.9448 46.4702 57.1143 47.4957 57.1143H56.1715C57.197 57.1143 58.0285 57.9448 58.0285 58.9713C58.0285 59.9977 57.197 60.8283 56.1715 60.8283Z" fill="#005CAB"/>
</svg>
