<svg width="101" height="100" viewBox="0 0 101 100" fill="none" xmlns="http://www.w3.org/2000/svg">
<path d="M48.107 55.1963H24.6807C24.2555 55.1963 23.8628 55.4131 23.6365 55.77C23.4091 56.1268 23.3807 56.5742 23.5607 56.9573L28.4754 67.3941V93.2825C28.4754 93.9635 29.0302 94.5183 29.7112 94.5183C30.3933 94.5183 30.947 93.9646 30.9481 93.2835V67.1184C30.9481 66.9362 30.907 66.7552 30.8302 66.592L26.627 57.6689H48.107C48.7901 57.6689 49.3427 57.1152 49.3427 56.4321C49.3427 55.7479 48.7901 55.1963 48.107 55.1963Z" fill="#005CAB"/>
<path d="M53.3553 97.5274H29.1543L17.247 94.0579V66.3064L23.689 67.6875C23.7754 67.7064 23.8627 67.7138 23.949 67.7138C24.5196 67.7138 25.0322 67.3159 25.1564 66.7369C25.2996 66.0717 24.8743 65.4149 24.2069 65.2696L16.2701 63.5706C16.2333 63.5622 16.1996 63.5738 16.1628 63.5696C16.1101 63.5622 16.0649 63.5391 16.0101 63.5391C15.9617 63.5391 15.9206 63.5612 15.8743 63.5664C15.8059 63.5738 15.7417 63.5875 15.6764 63.6064C15.5859 63.6317 15.5017 63.6643 15.4217 63.7085C15.3638 63.7401 15.3133 63.7759 15.2617 63.817C15.1901 63.8738 15.1259 63.9327 15.067 64.0043C15.0238 64.057 14.9891 64.1117 14.9554 64.1706C14.9101 64.2496 14.8743 64.3306 14.8459 64.4201C14.8354 64.4559 14.8112 64.4833 14.8028 64.5201C14.7943 64.5622 14.8059 64.6012 14.8017 64.6422C14.7964 64.6885 14.7754 64.7275 14.7754 64.7749V94.9853C14.7754 95.5337 15.1385 96.0158 15.6659 96.1705L28.6332 99.9495C28.7448 99.9832 28.8617 100 28.9785 100H53.3563C54.0384 100 54.5921 99.4463 54.5921 98.7642C54.5911 98.0821 54.0374 97.5274 53.3553 97.5274Z" fill="#005CAB"/>
<path d="M33.334 67.1206C33.334 67.8017 33.8866 68.3564 34.5698 68.3564H52.4939C53.1771 68.3564 53.7308 67.8027 53.7308 67.1206C53.7308 66.4364 53.1781 65.8838 52.4939 65.8838H34.5698C33.8866 65.8838 33.334 66.4354 33.334 67.1206Z" fill="#7BC143"/>
<path d="M76.5643 22.6936V1.23579C76.5643 0.554735 76.0127 0 75.3285 0H64.1128C63.4328 0 62.877 0.554735 62.877 1.23579V22.7083C57.0675 25.1883 53.2191 30.9473 53.2191 37.3178V43.1757C53.2191 43.8556 53.7718 44.4114 54.4549 44.4114H77.5685V83.6271H62.957C62.2759 83.6271 61.7212 84.1808 61.7212 84.8629C61.7212 85.5429 62.2749 86.0987 62.957 86.0987H78.8054C79.4885 86.0987 80.0412 85.545 80.0422 84.8618V43.1746C80.0422 42.4925 79.4906 41.9388 78.8064 41.9388H55.6928V37.3167C55.6928 31.6873 59.2465 26.6157 64.5359 24.6978C64.5444 24.6947 64.5496 24.6873 64.558 24.6841C64.6528 24.6473 64.7307 24.5873 64.8128 24.5294C64.8643 24.4925 64.9233 24.4673 64.9686 24.4241C65.0254 24.3694 65.0612 24.2978 65.1075 24.2336C65.1528 24.1683 65.2075 24.1105 65.2391 24.0378C65.2654 23.9778 65.2696 23.9105 65.2865 23.8462C65.3107 23.7536 65.3412 23.6641 65.3433 23.5662C65.3444 23.5557 65.3496 23.5473 65.3496 23.5378V2.47157H74.0948V23.5368C74.0948 24.0568 74.4222 24.5189 74.9106 24.6978C80.199 26.6157 83.7517 31.6862 83.7517 37.3167V97.5271H59.6907V67.1156C59.6907 66.9335 59.6486 66.7524 59.5717 66.5893L54.657 56.1524V51.8525C54.657 48.7946 52.1697 46.3051 49.1086 46.3051H24.5687C21.5077 46.3051 19.0192 48.7925 19.0192 51.8525V56.0524L16.515 59.7388C16.1308 60.304 16.2771 61.0714 16.8435 61.4566C17.0561 61.6009 17.2971 61.6703 17.5361 61.6703C17.9308 61.6703 18.3203 61.4787 18.5592 61.1282L21.2771 57.124C21.3003 57.0893 21.3045 57.0493 21.3234 57.0135C21.3624 56.943 21.3919 56.8703 21.4171 56.7914C21.4434 56.7072 21.4603 56.6261 21.4677 56.5409C21.4719 56.5019 21.4898 56.4693 21.4898 56.4303V51.8525C21.4898 50.1567 22.8698 48.7777 24.5676 48.7777H28.8803V52.0967C28.8803 52.7788 29.4339 53.3325 30.116 53.3325C30.7992 53.3325 31.3518 52.7809 31.3518 52.0967V48.7777H33.2971V52.0967C33.2971 52.7788 33.8508 53.3325 34.5329 53.3325C35.216 53.3325 35.7687 52.7809 35.7687 52.0967V48.7777H37.715V52.0967C37.715 52.7788 38.2687 53.3325 38.9508 53.3325C39.6329 53.3325 40.1865 52.7809 40.1865 52.0967V48.7777H46.5486V52.0967C46.5486 52.7788 47.1023 53.3325 47.7844 53.3325C48.4676 53.3325 49.0202 52.7809 49.0202 52.0967V48.7777H49.1044C50.8002 48.7777 52.1812 50.1556 52.1812 51.8525V56.4303C52.1812 56.6124 52.2212 56.7935 52.2981 56.9567L57.216 67.3935V98.7639C57.216 99.4449 57.7675 99.9997 58.4517 99.9997H84.9843C85.6664 99.9997 86.2201 99.4471 86.2201 98.7639V37.3178C86.2232 30.9452 82.3769 25.1768 76.5643 22.6936Z" fill="#005CAB"/>
<path d="M62.9575 53.4951H73.527C74.2091 53.4951 74.7638 52.9425 74.7638 52.2593C74.7638 51.5751 74.2101 51.0225 73.527 51.0225H62.9575C62.2754 51.0225 61.7207 51.574 61.7207 52.2593C61.7207 52.9425 62.2754 53.4951 62.9575 53.4951Z" fill="#7BC143"/>
<path d="M62.9575 58.4453H73.527C74.2091 58.4453 74.7638 57.8916 74.7638 57.2095C74.7638 56.5253 74.2101 55.9727 73.527 55.9727H62.9575C62.2754 55.9727 61.7207 56.5242 61.7207 57.2095C61.7207 57.8905 62.2754 58.4453 62.9575 58.4453Z" fill="#7BC143"/>
</svg>
