<svg width="10" height="10" viewBox="0 0 10 10" fill="none" xmlns="http://www.w3.org/2000/svg">
<path d="M9.71968 1.04016C9.71968 0.598333 9.36151 0.240161 8.91968 0.240161L1.71968 0.240161C1.27785 0.240161 0.919678 0.598333 0.919678 1.04016C0.919678 1.48199 1.27785 1.84016 1.71968 1.84016L8.11968 1.84016L8.11968 8.24016C8.11968 8.68199 8.47785 9.04016 8.91968 9.04016C9.36151 9.04016 9.71968 8.68199 9.71968 8.24016L9.71968 1.04016ZM0.434397 8.39407C0.121977 8.70649 0.121977 9.21302 0.434397 9.52544C0.746816 9.83786 1.25335 9.83786 1.56577 9.52544L0.434397 8.39407ZM8.91968 1.04016L8.35399 0.474476L0.434397 8.39407L1.00008 8.95976L1.56577 9.52544L9.48536 1.60585L8.91968 1.04016Z" fill="#7BC143"/>
</svg>
