<svg width="32" height="32" viewBox="0 0 32 32" fill="none" xmlns="http://www.w3.org/2000/svg">
<path d="M26.6675 24.6395H5.33242C5.14893 24.6395 5 24.4906 5 24.3071V3.50918C5 3.32568 5.14894 3.17676 5.33242 3.17676H12.0073C12.1908 3.17676 12.3397 3.3257 12.3397 3.50918C12.3397 3.69267 12.1908 3.84159 12.0073 3.84159H5.6649V23.9733H26.3353V3.84159H19.9929C19.8094 3.84159 19.6605 3.69266 19.6605 3.50918C19.6605 3.32568 19.8094 3.17676 19.9929 3.17676H26.6678C26.8513 3.17676 27.0002 3.3257 27.0002 3.50918V24.3071C27.0002 24.4906 26.851 24.6395 26.6675 24.6395Z" fill="#005CAB"/>
<path d="M15.9998 21.7905C11.6532 21.7905 8.1167 18.254 8.1167 13.9074C8.1167 9.56077 11.6532 6.02429 15.9998 6.02429C20.3464 6.02429 23.8829 9.56077 23.8829 13.9074C23.8829 18.254 20.3464 21.7905 15.9998 21.7905ZM15.9998 6.69047C12.0201 6.69047 8.78288 9.92772 8.78288 13.9074C8.78288 17.8871 12.0201 21.1255 15.9998 21.1255C19.9795 21.1255 23.2167 17.8883 23.2167 13.9086C23.2167 9.92894 19.9795 6.69047 15.9998 6.69047Z" fill="#005CAB"/>
<path d="M15.9998 20.2621C12.4969 20.2621 9.64673 17.412 9.64673 13.909C9.64673 10.4049 12.4968 7.55469 15.9998 7.55469C19.5028 7.55469 22.3529 10.4048 22.3529 13.9078C22.3529 17.4119 19.5028 20.2621 15.9998 20.2621ZM15.9998 8.22056C12.8638 8.22056 10.3117 10.7728 10.3117 13.9087C10.3117 17.0446 12.8639 19.5959 15.9998 19.5959C19.1357 19.5959 21.688 17.0437 21.688 13.9078C21.688 10.7719 19.1357 8.22056 15.9998 8.22056Z" fill="#7BC143"/>
<path d="M15.9998 15.2923C15.236 15.2923 14.6152 14.6715 14.6152 13.9077C14.6152 13.144 15.236 12.5232 15.9998 12.5232C16.7635 12.5232 17.3843 13.144 17.3843 13.9077C17.3843 14.6715 16.7635 15.2923 15.9998 15.2923ZM15.9998 13.1893C15.603 13.1893 15.2813 13.5122 15.2813 13.9078C15.2813 14.3045 15.603 14.6274 15.9998 14.6274C16.3966 14.6274 16.7183 14.3045 16.7183 13.909C16.7183 13.5122 16.3966 13.1893 15.9998 13.1893Z" fill="#7BC143"/>
<path d="M16.0321 13.1891C15.9153 13.1891 15.8021 13.1271 15.7413 13.0175C15.7247 12.9877 15.3434 12.2907 15.1968 11.291C15.0002 9.9541 15.3195 8.71017 16.1202 7.69379C16.2334 7.54962 16.4431 7.52459 16.5873 7.63779C16.7314 7.75098 16.7565 7.96069 16.6433 8.10485C15.9534 8.98061 15.6865 10.0125 15.8521 11.1719C15.9784 12.0572 16.3204 12.6899 16.3239 12.6958C16.4121 12.8567 16.3537 13.0592 16.1929 13.1474C16.1416 13.176 16.0857 13.1891 16.0321 13.1891Z" fill="#7BC143"/>
<path d="M15.2791 13.4752C15.2481 13.4752 15.2184 13.4704 15.1874 13.4621C15.1552 13.4525 14.3914 13.2297 13.5812 12.6268C12.4969 11.8202 11.8428 10.7145 11.6903 9.43014C11.6689 9.24784 11.7987 9.08223 11.981 9.06079C12.1633 9.03934 12.3289 9.16922 12.3504 9.35152C12.6662 12.0169 15.3435 12.8151 15.3697 12.8236C15.546 12.8749 15.6485 13.0584 15.5972 13.2359C15.5567 13.3801 15.4245 13.4752 15.2791 13.4752Z" fill="#7BC143"/>
<path d="M12.6259 14.7691C11.5774 14.7691 10.6075 14.4367 9.78534 13.7885C9.64117 13.6753 9.61615 13.4656 9.72934 13.3215C9.84254 13.1773 10.0522 13.1523 10.1964 13.2655C12.3042 14.9264 14.7623 13.5991 14.7861 13.5848C14.947 13.4954 15.1495 13.5538 15.2389 13.7147C15.3283 13.8755 15.2699 14.0781 15.109 14.1675C15.0793 14.1841 14.3822 14.5654 13.3825 14.712C13.1275 14.7501 12.8749 14.7691 12.6259 14.7691Z" fill="#7BC143"/>
<path d="M11.482 18.2196C11.3152 18.2196 11.1722 18.0957 11.152 17.9265C11.1305 17.7442 11.2604 17.5786 11.4427 17.5572C14.1081 17.2414 14.9063 14.5641 14.9148 14.5379C14.9661 14.3616 15.1495 14.2591 15.3271 14.3103C15.5034 14.3616 15.6059 14.5451 15.5547 14.7226C15.5451 14.7548 15.3223 15.5185 14.7194 16.3287C13.9128 17.413 12.8071 18.0672 11.5227 18.2197L11.482 18.2196Z" fill="#7BC143"/>
<path d="M15.6184 20.2489C15.5457 20.2489 15.4743 20.2251 15.4123 20.1775C15.2681 20.0643 15.2431 19.8546 15.3563 19.7104C16.0462 18.8346 16.3131 17.8028 16.1475 16.6434C16.0212 15.7581 15.6792 15.1254 15.6756 15.1194C15.5875 14.9586 15.6458 14.756 15.8067 14.6678C15.9675 14.5797 16.1689 14.6368 16.2583 14.7977C16.275 14.8275 16.6563 15.5245 16.8028 16.5242C16.9994 17.8611 16.6801 19.105 15.8794 20.1214C15.8139 20.206 15.7161 20.2489 15.6184 20.2489Z" fill="#7BC143"/>
<path d="M19.9783 18.7595C19.8115 18.7595 19.6685 18.6356 19.6482 18.4664C19.3325 15.8009 16.6552 15.0028 16.629 14.9942C16.4526 14.943 16.3502 14.7595 16.4014 14.582C16.4526 14.4056 16.6361 14.3032 16.8137 14.3544C16.8458 14.3639 17.6096 14.5867 18.4198 15.1896C19.5041 15.9963 20.1582 17.102 20.3107 18.3863C20.3322 18.5686 20.2023 18.7342 20.02 18.7557C20.0045 18.7581 19.9914 18.7595 19.9783 18.7595Z" fill="#7BC143"/>
<path d="M22.0085 14.6224C21.9359 14.6224 21.8644 14.5986 21.8024 14.5509C19.6946 12.89 17.2365 14.2173 17.2127 14.2316C17.0518 14.321 16.8493 14.2626 16.7599 14.1017C16.6705 13.9409 16.7289 13.7383 16.8898 13.6489C16.9184 13.6323 17.6166 13.251 18.6163 13.1044C19.9532 12.9078 21.1971 13.2271 22.2135 14.0278C22.3576 14.141 22.3827 14.3507 22.2695 14.4949C22.2039 14.5783 22.1063 14.6224 22.0085 14.6224Z" fill="#7BC143"/>
<path d="M16.7661 13.5203C16.7351 13.5203 16.7054 13.5156 16.6744 13.5072C16.498 13.456 16.3956 13.2725 16.4468 13.095C16.4563 13.0628 16.6791 12.299 17.2821 11.4888C18.0887 10.4045 19.1944 9.75041 20.4787 9.5979C20.661 9.57645 20.8266 9.70632 20.8481 9.88862C20.8695 10.0709 20.7397 10.2365 20.5574 10.258C17.8919 10.5737 17.0938 13.2511 17.0852 13.2773C17.0435 13.425 16.9103 13.5203 16.7661 13.5203Z" fill="#7BC143"/>
<path d="M25.3518 27.2691H6.64759C6.06853 27.2691 5.59668 26.7973 5.59668 26.2182V24.307C5.59668 24.1235 5.74562 23.9746 5.9291 23.9746H26.0691C26.2526 23.9746 26.4015 24.1235 26.4015 24.307V26.2182C26.4027 26.7973 25.9309 27.2691 25.3518 27.2691ZM6.26264 24.6394V26.2182C6.26264 26.4303 6.43541 26.6031 6.6475 26.6031H25.3517C25.5638 26.6031 25.7366 26.4303 25.7366 26.2182V24.6394H6.26264Z" fill="#005CAB"/>
<path d="M9.25342 30.1981H8.40386C7.81168 30.1981 7.33032 29.7167 7.33032 29.1245V26.9369C7.33032 26.7534 7.47926 26.6045 7.66274 26.6045H9.99333C10.1768 26.6045 10.3257 26.7534 10.3257 26.9369V29.1245C10.3269 29.7155 9.84441 30.1981 9.25342 30.1981ZM7.99519 27.2693V29.1245C7.99519 29.3497 8.17868 29.532 8.40267 29.532H9.25223C9.47743 29.532 9.65972 29.3485 9.65972 29.1245V27.2693H7.99519Z" fill="#005CAB"/>
<path d="M23.5957 30.1981H22.7461C22.154 30.1981 21.6726 29.7167 21.6726 29.1245V26.9369C21.6726 26.7534 21.8215 26.6045 22.005 26.6045H24.3356C24.5191 26.6045 24.668 26.7534 24.668 26.9369V29.1245C24.6692 29.7155 24.1879 30.1981 23.5957 30.1981ZM22.3387 27.2693V29.1245C22.3387 29.3497 22.5222 29.532 22.7461 29.532H23.5957C23.8209 29.532 24.0032 29.3485 24.0032 29.1245V27.2693H22.3387Z" fill="#005CAB"/>
<path d="M19.1371 5.09772H12.8627C12.7531 5.09772 12.6494 5.04291 12.5874 4.95236L10.7942 2.32269C10.7251 2.22022 10.7168 2.08916 10.7752 1.97954C10.8335 1.87111 10.9467 1.802 11.0695 1.802H20.9304C21.0543 1.802 21.1675 1.86992 21.2247 1.97954C21.2818 2.08915 21.2747 2.22022 21.2056 2.32269L19.4124 4.95236C19.3504 5.04291 19.2479 5.09772 19.1371 5.09772ZM13.0378 4.43166H18.9608L20.3012 2.46805H11.6985L13.0378 4.43166Z" fill="#005CAB"/>
<path d="M16.1486 3.78215H13.818C13.6345 3.78215 13.4856 3.63321 13.4856 3.44973C13.4856 3.26624 13.6345 3.11731 13.818 3.11731H16.1486C16.3321 3.11731 16.481 3.26625 16.481 3.44973C16.4822 3.63322 16.3333 3.78215 16.1486 3.78215Z" fill="#005CAB"/>
<path d="M18.1813 3.78215H17.5236C17.3401 3.78215 17.1912 3.63321 17.1912 3.44973C17.1912 3.26624 17.3401 3.11731 17.5236 3.11731H18.1813C18.3648 3.11731 18.5137 3.26625 18.5137 3.44973C18.5137 3.63322 18.3648 3.78215 18.1813 3.78215Z" fill="#005CAB"/>
<path d="M26.6675 23.1287H5.33242C5.14893 23.1287 5 22.9797 5 22.7963C5 22.6128 5.14894 22.4638 5.33242 22.4638L26.6675 22.4626C26.851 22.4626 26.9999 22.6116 26.9999 22.7951C26.9999 22.9797 26.851 23.1287 26.6675 23.1287Z" fill="#005CAB"/>
<path d="M7.12515 6.22477H5.33193C5.14844 6.22477 4.99951 6.07583 4.99951 5.89235C4.99951 5.70886 5.14845 5.55994 5.33193 5.55994H7.12515C7.30864 5.55994 7.45757 5.70887 7.45757 5.89235C7.45757 6.07585 7.30863 6.22477 7.12515 6.22477Z" fill="#005CAB"/>
<path d="M7.12515 7.60685H5.33193C5.14844 7.60685 4.99951 7.45791 4.99951 7.27443C4.99951 7.09094 5.14845 6.94202 5.33193 6.94202H7.12515C7.30864 6.94202 7.45757 7.09095 7.45757 7.27443C7.45757 7.45793 7.30863 7.60685 7.12515 7.60685Z" fill="#005CAB"/>
<path d="M7.12515 8.9904H5.33193C5.14844 8.9904 4.99951 8.84146 4.99951 8.65798C4.99951 8.47449 5.14845 8.32556 5.33193 8.32556H7.12515C7.30864 8.32556 7.45757 8.4745 7.45757 8.65798C7.45757 8.84147 7.30863 8.9904 7.12515 8.9904Z" fill="#005CAB"/>
<path d="M26.6674 6.22477H24.8742C24.6907 6.22477 24.5417 6.07583 24.5417 5.89235C24.5417 5.70886 24.6907 5.55994 24.8742 5.55994H26.6674C26.8509 5.55994 26.9998 5.70887 26.9998 5.89235C26.9998 6.07585 26.8509 6.22477 26.6674 6.22477Z" fill="#005CAB"/>
<path d="M26.6674 7.60685H24.8742C24.6907 7.60685 24.5417 7.45791 24.5417 7.27443C24.5417 7.09094 24.6907 6.94202 24.8742 6.94202H26.6674C26.8509 6.94202 26.9998 7.09095 26.9998 7.27443C26.9998 7.45793 26.8509 7.60685 26.6674 7.60685Z" fill="#005CAB"/>
<path d="M26.6674 8.9904H24.8742C24.6907 8.9904 24.5417 8.84146 24.5417 8.65798C24.5417 8.47449 24.6907 8.32556 24.8742 8.32556H26.6674C26.8509 8.32556 26.9998 8.4745 26.9998 8.65798C26.9998 8.84147 26.8509 8.9904 26.6674 8.9904Z" fill="#005CAB"/>
</svg>
