<svg width="32" height="32" viewBox="0 0 32 32" fill="none" xmlns="http://www.w3.org/2000/svg">
<path fill-rule="evenodd" clip-rule="evenodd" d="M13.9219 13.196H14.0467V12.2502C14.0467 12.0714 14.1923 11.9244 14.3726 11.9244C14.5528 11.9244 14.6984 12.07 14.6984 12.2502V13.196H15.6747V12.2502C15.6747 12.0714 15.8203 11.9244 16.0005 11.9244C16.1808 11.9244 16.3264 12.07 16.3264 12.2502V13.196H17.3026V12.2502C17.3026 12.0714 17.4482 11.9244 17.6285 11.9244C17.8087 11.9244 17.9543 12.07 17.9543 12.2502V13.196H18.0791C18.2788 13.196 18.4618 13.2778 18.5922 13.4095C18.7239 13.5412 18.8057 13.7229 18.8057 13.9226V14.0474H19.7515C19.9317 14.0474 20.0773 14.193 20.0773 14.3732C20.0773 14.5535 19.9317 14.6991 19.7515 14.6991H18.8057V15.6753H19.7515C19.9317 15.6753 20.0773 15.8209 20.0773 16.0012C20.0773 16.1814 19.9317 16.327 19.7515 16.327H18.8057V17.3033H19.7515C19.9317 17.3033 20.0773 17.4489 20.0773 17.6291C20.0773 17.8094 19.9317 17.955 19.7515 17.955H18.8057V18.0798C18.8057 18.2809 18.7239 18.4625 18.5922 18.5929C18.4605 18.7246 18.2788 18.8064 18.0791 18.8064L17.6382 18.8036V19.7493C17.6382 19.9296 17.4926 20.0752 17.3123 20.0752C17.1334 20.0752 16.9864 19.9296 16.9864 19.7493V18.8036H16.0102V19.7493C16.0102 19.9296 15.8646 20.0752 15.6844 20.0752C15.5041 20.0752 15.3585 19.9296 15.3585 19.7493V18.8036H14.3823V19.7493C14.3823 19.9296 14.2367 20.0752 14.0564 20.0752C13.8761 20.0752 13.7305 19.9296 13.7305 19.7493V18.7787C13.6057 18.7454 13.4948 18.6788 13.4061 18.5901C13.2743 18.4584 13.1925 18.2767 13.1925 18.077V17.9522H12.2468C12.0679 17.9522 11.9209 17.8066 11.9209 17.6264C11.9209 17.4461 12.0665 17.3005 12.2468 17.3005H13.1925V16.3243H12.2468C12.0679 16.3243 11.9209 16.1787 11.9209 15.9984C11.9209 15.8181 12.0665 15.6725 12.2468 15.6725H13.1925V14.6963H12.2468C12.0679 14.6963 11.9209 14.5507 11.9209 14.3705C11.9209 14.1902 12.0665 14.0446 12.2468 14.0446H13.1925V13.9198C13.1925 13.7201 13.2743 13.5371 13.4061 13.4067C13.5406 13.2778 13.7222 13.196 13.9219 13.196ZM13.9249 13.8484H18.0765C18.0973 13.8484 18.1154 13.8567 18.132 13.8705C18.1459 13.8844 18.1542 13.9038 18.1542 13.9246V18.0762C18.1542 18.097 18.1459 18.1164 18.132 18.1303C18.1181 18.1441 18.0987 18.1525 18.0779 18.1525H13.9249C13.9041 18.1525 13.8847 18.1441 13.8709 18.1303C13.857 18.1164 13.8487 18.097 13.8487 18.0762V13.9246C13.8487 13.9038 13.857 13.8844 13.8709 13.8705C13.8847 13.8567 13.9041 13.8484 13.9249 13.8484Z" fill="#7BC143"/>
<path fill-rule="evenodd" clip-rule="evenodd" d="M26.3965 7.62446C27.3366 8.79066 28.0854 10.1177 28.593 11.5584C29.0824 12.9465 29.3487 14.4413 29.3487 16C29.3487 19.6872 27.8539 23.0234 25.4382 25.4405C23.0226 27.8561 19.6849 29.351 15.9991 29.351C14.4405 29.351 12.947 29.0848 11.5589 28.5953C10.365 28.1737 9.24874 27.5886 8.23923 26.8647L9.75207 26.654C9.92956 26.629 10.053 26.4654 10.0294 26.2879C10.0044 26.1104 9.84082 25.987 9.66334 26.0106L7.37812 26.3295C7.29908 26.3406 7.2242 26.3808 7.17012 26.4474C7.10772 26.525 7.08692 26.6221 7.10495 26.7136L7.45439 28.8962C7.48212 29.0737 7.64852 29.1943 7.82602 29.1652C8.00352 29.1375 8.12416 28.9711 8.09504 28.7936L7.87178 27.3986C8.92982 28.1543 10.0974 28.7672 11.3454 29.2068C12.8028 29.7213 14.3711 30 16.0017 30C19.8679 30 23.3677 28.4331 25.9012 25.8996C28.4348 23.3661 30.0017 19.8662 30.0017 16.0001C30.0017 14.3693 29.7216 12.801 29.2085 11.3437C28.676 9.83364 27.8912 8.44142 26.9052 7.21842C26.7929 7.07837 26.5891 7.05618 26.449 7.1685C26.3062 7.28082 26.2842 7.48578 26.3965 7.62446ZM5.60211 24.3755C4.66196 23.2093 3.91316 21.8823 3.40563 20.4416C2.91614 19.0535 2.6499 17.5587 2.6499 16C2.6499 12.3128 4.14471 8.9766 6.56043 6.5595C8.976 4.14393 12.3137 2.64898 16.0009 2.64898C17.5581 2.64898 19.053 2.91522 20.4411 3.40471C21.635 3.82625 22.7513 4.41141 23.7622 5.13526L22.2493 5.34604C22.0718 5.371 21.9484 5.53462 21.972 5.7121C21.9969 5.88959 22.1606 6.01301 22.338 5.98943L24.6233 5.6705C24.7023 5.6594 24.7772 5.61919 24.8313 5.55263C24.8937 5.47498 24.9145 5.37791 24.8964 5.28639L24.547 3.1038C24.5193 2.9263 24.3529 2.80567 24.1754 2.83478C23.9979 2.86252 23.8772 3.02892 23.9064 3.20642L24.1296 4.60141C23.0716 3.84568 21.904 3.23276 20.656 2.79318C19.1986 2.27873 17.6303 2 15.9996 2C12.1335 2 8.63369 3.56694 6.10015 6.10044C3.56662 8.63394 1.99829 12.1338 1.99829 15.9999C1.99829 17.6307 2.2784 19.199 2.79147 20.6563C3.32395 22.1664 4.10879 23.5586 5.09473 24.7816C5.20705 24.9216 5.41088 24.9438 5.55096 24.8315C5.6924 24.7192 5.71443 24.5142 5.60211 24.3755ZM15.9993 27.31C16.1366 27.31 16.2905 27.3058 16.4611 27.2989C16.6288 27.2919 16.7842 27.2822 16.9242 27.2711C17.2057 27.2476 17.4595 27.1352 17.655 26.9591C17.8505 26.783 17.9892 26.5417 18.0405 26.263L18.2055 25.3728C18.2263 25.2577 18.2776 25.1579 18.3497 25.0788H18.3483C18.419 25.0026 18.5161 24.9443 18.6298 24.9138C19.0195 24.8098 19.398 24.6795 19.7668 24.527C20.1385 24.373 20.499 24.1942 20.8457 23.9945C20.9469 23.9362 21.0565 23.9085 21.1618 23.9127C21.2686 23.9168 21.374 23.9529 21.4711 24.0194L22.0964 24.4493C22.3363 24.6143 22.6123 24.6864 22.8827 24.667C23.1531 24.649 23.4179 24.5394 23.6315 24.3425C23.8062 24.1817 23.9726 24.0208 24.1293 23.86C24.2901 23.6936 24.4454 23.523 24.5938 23.3497C24.7782 23.1347 24.8781 22.8754 24.8919 22.6106C24.9058 22.3471 24.8337 22.0781 24.6728 21.8452L24.2541 21.2364C24.1875 21.1407 24.1528 21.034 24.1487 20.9272C24.1445 20.8204 24.1723 20.7123 24.2305 20.611C24.4302 20.2644 24.6091 19.9038 24.763 19.5322C24.9155 19.1633 25.0459 18.7834 25.1498 18.3952C25.1803 18.2801 25.2386 18.1844 25.3148 18.1123C25.3925 18.0402 25.4923 17.9902 25.6088 17.9694L26.2758 17.846C26.5573 17.7933 26.8014 17.6519 26.9789 17.4508C27.1563 17.2498 27.2687 16.9904 27.2853 16.7048C27.2922 16.598 27.2964 16.4801 27.3006 16.3526C27.3047 16.2097 27.3075 16.0933 27.3075 16.0004C27.3075 15.9088 27.3047 15.791 27.3006 15.6495C27.2964 15.522 27.2909 15.4041 27.2853 15.2973C27.2673 15.0117 27.1563 14.7523 26.9789 14.5513C26.8014 14.3502 26.5573 14.2088 26.2758 14.1561L25.6088 14.0327C25.4937 14.0119 25.3925 13.9619 25.3148 13.8898C25.2372 13.8177 25.1803 13.722 25.1498 13.607C25.0458 13.2173 24.9155 12.8373 24.763 12.4699C24.6091 12.0983 24.4302 11.7377 24.2305 11.3911C24.1723 11.2898 24.1445 11.1803 24.1487 11.0749C24.1528 10.9681 24.1875 10.8627 24.2541 10.7657L24.6728 10.1569C24.8337 9.92399 24.9058 9.65496 24.8919 9.39153C24.8781 9.12668 24.7782 8.86736 24.5938 8.65245C24.444 8.47773 24.2887 8.30717 24.1279 8.14077L24.1265 8.13939C23.9712 7.97853 23.8062 7.81768 23.6315 7.6582C23.4165 7.4613 23.1531 7.35175 22.8827 7.33372C22.6123 7.3157 22.3363 7.38642 22.0964 7.55143L21.4711 7.98128C21.3754 8.04784 21.2686 8.08251 21.1618 8.08667C21.0606 8.09083 20.9566 8.06587 20.8582 8.01318L20.8443 8.00486C20.5046 7.80934 20.151 7.63322 19.7821 7.4793L19.7655 7.47237C19.3966 7.31983 19.0167 7.18949 18.6284 7.0855C18.5147 7.055 18.419 6.99814 18.3469 6.92049C18.2734 6.84145 18.2235 6.74161 18.2027 6.62652L18.0377 5.7349C17.9864 5.45618 17.8477 5.2163 17.6522 5.03881C17.4567 4.86271 17.2029 4.749 16.9214 4.72681C16.7814 4.71572 16.6275 4.70601 16.4583 4.69908C16.2877 4.69214 16.1338 4.68798 15.9951 4.68798C15.8579 4.68798 15.7026 4.69214 15.5334 4.69908C15.3656 4.70601 15.2117 4.71572 15.0702 4.72681C14.7887 4.75038 14.535 4.8627 14.3394 5.03881L14.3408 5.0402H14.3394C14.1439 5.21769 14.0053 5.45759 13.954 5.7349L13.789 6.62514C13.7695 6.7333 13.7238 6.82898 13.6586 6.90386L13.6447 6.91911C13.5726 6.99677 13.477 7.05501 13.3632 7.08412C12.975 7.18812 12.595 7.31847 12.2262 7.47099C11.8546 7.62491 11.494 7.80379 11.1474 8.00347C11.0461 8.06171 10.938 8.08805 10.8312 8.08528H10.8298C10.723 8.08112 10.6177 8.04507 10.5206 7.97989L9.89521 7.55004C9.65532 7.38503 9.37938 7.31292 9.10899 7.33233C8.83859 7.35175 8.57374 7.45991 8.36018 7.65681C8.18546 7.81628 8.01906 7.97713 7.86377 8.138C7.70292 8.3044 7.54761 8.47496 7.39785 8.64967C7.21342 8.86461 7.11358 9.1239 7.09972 9.38875C7.08585 9.65222 7.15796 9.92123 7.31881 10.1542L7.73759 10.7629C7.80276 10.8586 7.83882 10.964 7.84298 11.0694V11.0721C7.84714 11.1775 7.8194 11.2871 7.76116 11.3883C7.56148 11.735 7.38261 12.0955 7.22868 12.4671C7.07615 12.836 6.9458 13.2159 6.84182 13.6056C6.81131 13.7207 6.75307 13.8163 6.67681 13.8884C6.59915 13.9606 6.49931 14.0105 6.38284 14.0313L5.71585 14.1547C5.43436 14.206 5.1903 14.3488 5.0128 14.5499C4.83531 14.751 4.72299 15.0103 4.70635 15.2959C4.69942 15.4027 4.69526 15.5206 4.6911 15.6481C4.68694 15.791 4.68416 15.9074 4.68416 15.999C4.68416 16.0905 4.68694 16.2084 4.6911 16.3512C4.69526 16.4788 4.7008 16.5966 4.70635 16.7034C4.72438 16.989 4.83531 17.2484 5.0128 17.4494C5.1903 17.6505 5.43435 17.7919 5.71585 17.8446L6.38284 17.9681C6.49793 17.9889 6.59777 18.0402 6.67681 18.1123V18.1109C6.75446 18.1816 6.81132 18.2787 6.84182 18.3924C6.94582 18.782 7.07617 19.162 7.22868 19.5294C7.3826 19.9011 7.56148 20.2616 7.76116 20.6083C7.8194 20.7095 7.84714 20.8177 7.84298 20.923V20.9244C7.83882 21.0312 7.80276 21.1366 7.73759 21.2337L7.31881 21.8424C7.15796 22.0753 7.08585 22.3444 7.09972 22.6078C7.11358 22.8727 7.21342 23.132 7.39785 23.3469C7.54761 23.5216 7.70292 23.6922 7.86377 23.8586C8.01907 24.0194 8.18547 24.1803 8.36018 24.3397C8.57511 24.5366 8.83859 24.6462 9.10899 24.6642C9.378 24.6822 9.65535 24.6115 9.89521 24.4465L10.5206 24.0167C10.6177 23.9501 10.723 23.9154 10.8298 23.9099C10.9366 23.9057 11.0447 23.9335 11.146 23.9917C11.4926 24.1914 11.8532 24.3703 12.2248 24.5242C12.5937 24.6767 12.9736 24.8071 13.3619 24.911C13.477 24.9416 13.5726 24.9998 13.6447 25.0761C13.7169 25.1537 13.7668 25.2536 13.7876 25.37L13.9526 26.2603C14.0039 26.539 14.1426 26.7789 14.3381 26.9564C14.535 27.1338 14.7873 27.2462 15.0688 27.2697C15.2103 27.2808 15.3642 27.2905 15.532 27.2975C15.7067 27.3072 15.862 27.31 15.9993 27.31ZM15.5625 26.6513C15.6901 26.6568 15.8357 26.6596 15.9993 26.6596C16.1629 26.6596 16.3085 26.6568 16.4361 26.6513C16.5706 26.6457 16.7162 26.636 16.8743 26.6235C17.0088 26.6125 17.1294 26.5598 17.221 26.4766C17.3139 26.3934 17.379 26.2797 17.4026 26.1465L17.5676 25.2563C17.612 25.0164 17.7188 24.807 17.8727 24.6392C18.028 24.4714 18.2291 24.348 18.462 24.2856C18.8253 24.1886 19.1776 24.0679 19.5187 23.9265C19.8654 23.7823 20.2009 23.6173 20.5212 23.4315C20.7306 23.3108 20.9608 23.254 21.1882 23.2637C21.4156 23.272 21.6403 23.3469 21.8399 23.4842L22.4653 23.914C22.579 23.9917 22.7108 24.0263 22.8397 24.018C22.9673 24.0097 23.0921 23.957 23.1947 23.8641C23.35 23.7213 23.5067 23.5701 23.662 23.4093L23.6634 23.4079C23.8132 23.2526 23.9602 23.0917 24.1016 22.9267C24.1903 22.8241 24.2375 22.7007 24.2444 22.5759C24.2514 22.4511 24.2167 22.3235 24.139 22.2126L23.7203 21.6052C23.583 21.4056 23.5095 21.1809 23.4998 20.9535V20.9521C23.4915 20.7247 23.5469 20.4959 23.6676 20.2865C23.852 19.9662 24.0184 19.6306 24.1626 19.284C24.304 18.9429 24.4233 18.5907 24.5217 18.2273C24.5841 17.9944 24.7076 17.7933 24.8753 17.638C25.0431 17.4827 25.2539 17.3759 25.4924 17.3315L26.1594 17.2081C26.2953 17.1832 26.4104 17.1166 26.4936 17.0223C26.5768 16.928 26.6295 16.8046 26.6378 16.6673C26.6447 16.5467 26.6503 16.4358 26.653 16.3345C26.6558 16.2499 26.6572 16.139 26.6572 16.0003C26.6572 15.8631 26.6558 15.7521 26.653 15.6662C26.6503 15.5649 26.6447 15.454 26.6378 15.3334C26.6295 15.1961 26.5768 15.0727 26.4936 14.9784C26.4104 14.8841 26.2939 14.8175 26.1594 14.7926L25.4924 14.6691C25.2539 14.6248 25.0431 14.518 24.8753 14.3627C24.7075 14.2074 24.5841 14.0063 24.5217 13.7733C24.4247 13.41 24.304 13.0578 24.1626 12.7167C24.0184 12.37 23.8534 12.0358 23.6676 11.7141C23.5455 11.5048 23.4901 11.2746 23.4998 11.0472C23.5081 10.8197 23.583 10.5951 23.7203 10.3954L24.139 9.78671C24.2153 9.67577 24.25 9.5482 24.2444 9.42203C24.2375 9.29861 24.1903 9.1752 24.1016 9.0712C23.9602 8.90619 23.8132 8.74395 23.662 8.58864C23.5067 8.42778 23.3514 8.27664 23.1961 8.13383C23.0935 8.04092 22.9687 7.98823 22.8411 7.97991C22.7122 7.97159 22.5804 8.00487 22.4667 8.08391L21.8413 8.51376C21.6417 8.65104 21.417 8.72592 21.1896 8.73424C20.9691 8.74256 20.7487 8.69126 20.5434 8.57755C20.54 8.57547 20.5362 8.57373 20.5323 8.572C20.5285 8.57027 20.5247 8.56853 20.5212 8.56645C20.2037 8.38341 19.8737 8.21979 19.5353 8.07835L19.5187 8.0728C19.1776 7.93136 18.8254 7.81072 18.4621 7.71366C18.2277 7.65126 18.0266 7.52785 17.8713 7.36006C17.7174 7.19366 17.6106 6.98289 17.5663 6.74299L17.4012 5.85137C17.3763 5.71964 17.3111 5.60593 17.2196 5.52135C17.1267 5.43814 17.0074 5.38407 16.8729 5.37436C16.7162 5.36188 16.5692 5.35217 16.4361 5.34663C16.3085 5.34108 16.1629 5.33831 15.9993 5.33831C15.8357 5.33831 15.6901 5.34108 15.5625 5.34663C15.4294 5.35217 15.2824 5.36188 15.1257 5.37436C14.9912 5.38545 14.8705 5.43815 14.779 5.52135C14.6875 5.60454 14.6223 5.71825 14.5974 5.85137L14.4324 6.74161C14.3908 6.96902 14.2909 7.17284 14.1453 7.33649L14.1403 7.34305C14.1363 7.3483 14.1321 7.35383 14.1273 7.35868C13.972 7.52647 13.7709 7.64988 13.5366 7.71228C13.1746 7.80934 12.821 7.92998 12.4813 8.07142C12.1346 8.21563 11.799 8.38064 11.4787 8.56644H11.4774C11.2694 8.68708 11.0419 8.74255 10.8159 8.73423H10.8104C10.5829 8.72452 10.3583 8.65103 10.1586 8.51375L9.53326 8.0839C9.41956 8.00486 9.28782 7.97158 9.15886 7.9799C9.03128 7.98822 8.90648 8.04092 8.80387 8.13382C8.64856 8.27664 8.49187 8.42918 8.33518 8.59005C8.18542 8.74535 8.03844 8.90621 7.89699 9.07123C7.80824 9.17384 7.75971 9.29726 7.75416 9.42206C7.74723 9.54685 7.7819 9.67443 7.85816 9.78673L8.27694 10.3955C8.41283 10.5938 8.48633 10.817 8.49742 11.043V11.0472C8.50574 11.2746 8.45027 11.5048 8.32963 11.7142C8.14382 12.0345 7.97881 12.3701 7.83599 12.7167C7.69455 13.0578 7.57391 13.41 7.47685 13.7734C7.41445 14.0063 7.29103 14.2074 7.12325 14.3627C6.95547 14.518 6.74469 14.6248 6.50618 14.6692L5.8392 14.7926C5.70469 14.8175 5.58821 14.8841 5.50501 14.9784C5.42181 15.0727 5.36912 15.1961 5.36079 15.3334C5.35386 15.454 5.34831 15.565 5.34554 15.6662C5.34277 15.7522 5.34138 15.8617 5.34138 16.0004C5.34138 16.1377 5.34277 16.2486 5.34554 16.3346C5.34831 16.4358 5.35386 16.5467 5.36079 16.6674C5.36911 16.8046 5.42181 16.9281 5.50501 17.0223C5.58821 17.1166 5.70469 17.1832 5.8392 17.2082L6.50618 17.3316C6.74607 17.3759 6.95683 17.4827 7.12325 17.6366V17.638C7.29104 17.7933 7.41445 17.9944 7.47685 18.2274C7.57392 18.5907 7.69455 18.9429 7.83599 19.284C7.9802 19.6307 8.14521 19.9663 8.33102 20.2866C8.45165 20.4946 8.50712 20.722 8.4988 20.948V20.9536C8.49048 21.181 8.4156 21.4056 8.27832 21.6053L7.86093 22.2126C7.78467 22.3236 7.75 22.4525 7.75554 22.5773C7.76248 22.7007 7.80962 22.8241 7.89837 22.9281C8.03981 23.0945 8.1868 23.2554 8.33656 23.4093C8.49326 23.5702 8.64856 23.7227 8.80525 23.8655C8.90786 23.9585 9.03266 24.0112 9.16024 24.0195C9.2892 24.0278 9.42093 23.9945 9.53464 23.9155L10.16 23.4856C10.3597 23.3483 10.5843 23.2735 10.8117 23.2651C11.0405 23.2554 11.2694 23.3123 11.4787 23.4329C11.799 23.6174 12.1346 23.7837 12.4813 23.928C12.8224 24.0694 13.1746 24.19 13.5379 24.2871C13.7709 24.3495 13.972 24.4729 14.1273 24.6407C14.2826 24.8085 14.3894 25.0192 14.4337 25.2578L14.5987 26.148C14.6237 26.2797 14.6889 26.3948 14.7804 26.478L14.779 26.4794H14.7804C14.8719 26.5612 14.9912 26.6139 15.1271 26.6264C15.2824 26.6375 15.428 26.6471 15.5625 26.6513Z" fill="#005CAB"/>
<path fill-rule="evenodd" clip-rule="evenodd" d="M15.9993 9.85732C14.3034 9.85732 12.767 10.5451 11.655 11.6572C10.5429 12.7693 9.85509 14.3043 9.85509 16.0015C9.85509 17.6974 10.5429 19.2339 11.655 20.3458C12.7671 21.4579 14.3021 22.1457 15.9993 22.1457C17.6952 22.1457 19.2316 21.4579 20.3422 20.3458C21.4543 19.2337 22.1421 17.6973 22.1421 16.0015C22.1421 14.3057 21.4543 12.7692 20.3422 11.6572C19.2315 10.5451 17.6951 9.85732 15.9993 9.85732ZM15.9993 10.5077C17.5161 10.5077 18.8889 11.122 19.8832 12.1162C20.8774 13.1103 21.4917 14.4833 21.4917 16.0001C21.4917 17.517 20.8774 18.8898 19.8832 19.884C18.8891 20.8782 17.5161 21.4925 15.9993 21.4925C14.4824 21.4925 13.1096 20.8783 12.1154 19.884C11.1212 18.8899 10.5069 17.517 10.5069 16.0001C10.5069 14.4833 11.1211 13.1104 12.1154 12.1162C13.1095 11.122 14.4824 10.5077 15.9993 10.5077Z" fill="#7BC143"/>
</svg>
