<svg width="32" height="32" viewBox="0 0 32 32" fill="none" xmlns="http://www.w3.org/2000/svg">
<path d="M25.5164 8.28369C25.5916 8.28376 25.6638 8.3149 25.7166 8.36768C25.7696 8.4207 25.7986 8.49321 25.7986 8.56689V21.2153C25.7986 21.2902 25.7696 21.3625 25.7166 21.4155C25.6635 21.4685 25.5912 21.4975 25.5164 21.4976H9.82104C9.66501 21.4976 9.53788 21.3714 9.53784 21.2153V8.56689C9.53784 8.41083 9.66498 8.28369 9.82104 8.28369H25.5164ZM10.1033 20.9321H25.2332V8.84912H10.1033V20.9321Z" fill="#005CAB" stroke="#005CAB" stroke-width="0.05"/>
<path d="M22.9316 10.8132C23.0877 10.8132 23.2148 10.9404 23.2148 11.0964C23.2148 11.2524 23.0877 11.3787 22.9316 11.3787H12.4062C12.2502 11.3787 12.1231 11.2524 12.123 11.0964C12.123 10.9404 12.2502 10.8132 12.4062 10.8132H22.9316Z" fill="#7BC143" stroke="#7BC143" stroke-width="0.05"/>
<path d="M22.9316 13.3429C23.0877 13.3429 23.2148 13.47 23.2148 13.6261C23.2148 13.7821 23.0877 13.9083 22.9316 13.9083H12.4062C12.2502 13.9083 12.1231 13.7821 12.123 13.6261C12.123 13.47 12.2502 13.3429 12.4062 13.3429H22.9316Z" fill="#7BC143" stroke="#7BC143" stroke-width="0.05"/>
<path d="M22.9316 15.8712C23.0877 15.8712 23.2148 15.9984 23.2148 16.1544C23.2148 16.3104 23.0877 16.4366 22.9316 16.4366H12.4062C12.2502 16.4366 12.1231 16.3104 12.123 16.1544C12.123 15.9984 12.2502 15.8712 12.4062 15.8712H22.9316Z" fill="#7BC143" stroke="#7BC143" stroke-width="0.05"/>
<path d="M22.9316 18.4022C23.0877 18.4022 23.2148 18.5294 23.2148 18.6854C23.2148 18.8414 23.0877 18.9677 22.9316 18.9677H12.4062C12.2502 18.9677 12.1231 18.8414 12.123 18.6854C12.123 18.5294 12.2502 18.4022 12.4062 18.4022H22.9316Z" fill="#7BC143" stroke="#7BC143" stroke-width="0.05"/>
<path d="M26.3884 7.51306C27.5455 7.51442 28.4845 8.45174 28.4861 9.60876V20.39C28.4846 21.5484 27.5455 22.4853 26.3884 22.4867H25.5164C25.4415 22.4867 25.3692 22.4577 25.3162 22.4047C25.2631 22.3516 25.2332 22.2794 25.2332 22.2045V7.79626C25.2332 7.6402 25.3603 7.51306 25.5164 7.51306H26.3884ZM25.7986 21.9213H26.3884C27.2335 21.9199 27.9187 21.2364 27.9187 20.39V9.60974C27.9187 8.76465 27.2335 8.07849 26.3884 8.07849H25.7986V21.9213Z" fill="#005CAB" stroke="#005CAB" stroke-width="0.05"/>
<path d="M9.82129 7.51318C9.89626 7.51318 9.96841 7.54312 10.0215 7.59619C10.0745 7.64926 10.1045 7.72143 10.1045 7.79639V22.2046C10.1044 22.3606 9.97729 22.4868 9.82129 22.4868H8.94922C7.79212 22.4855 6.85304 21.5486 6.85156 20.3901V9.60889C6.85313 8.45186 7.79219 7.51454 8.94922 7.51318H9.82129ZM8.94922 8.07861C8.10423 8.07861 7.41847 8.76389 7.41699 9.60889V20.3901C7.41856 21.2364 8.10424 21.9201 8.94922 21.9214H9.53906V8.07861H8.94922Z" fill="#005CAB" stroke="#005CAB" stroke-width="0.05"/>
<path d="M7.1355 11.1648C7.29156 11.1648 7.4187 11.2919 7.4187 11.448C7.41862 11.604 7.29151 11.7302 7.1355 11.7302H6.72339C5.89459 11.7317 5.22387 12.4037 5.22241 13.2312V16.7703C5.22373 17.5978 5.8958 18.2688 6.72339 18.2703H7.1355C7.29151 18.2703 7.41862 18.3965 7.4187 18.5525C7.4187 18.7086 7.29156 18.8357 7.1355 18.8357H6.72339C5.58246 18.8342 4.65843 17.9102 4.65698 16.7693V13.2302C4.65834 12.0905 5.58376 11.1662 6.72339 11.1648H7.1355Z" fill="#005CAB" stroke="#005CAB" stroke-width="0.05"/>
<path d="M4.9375 13.5724C5.09356 13.5724 5.2207 13.6995 5.2207 13.8556C5.22063 14.0116 5.09351 14.1378 4.9375 14.1378H2.54004V15.8624H4.9375C5.09346 15.8624 5.22053 15.9887 5.2207 16.1447C5.2207 16.3007 5.09356 16.4279 4.9375 16.4279H2.25781C2.10175 16.4279 1.97461 16.3007 1.97461 16.1447V13.8556C1.97461 13.6995 2.10175 13.5724 2.25781 13.5724H4.9375Z" fill="#005CAB" stroke="#005CAB" stroke-width="0.05"/>
<path d="M28.5503 11.9686C29.3639 11.97 30.0234 12.6297 30.0249 13.4432V16.5565C30.0235 17.3701 29.3639 18.0297 28.5503 18.0311H28.2017C28.0457 18.0311 27.9186 17.9049 27.9185 17.7489C27.9185 17.5914 28.0457 17.4657 28.2017 17.4657H28.5503C29.0519 17.4644 29.4595 17.058 29.4595 16.5565V13.4432C29.4594 12.9418 29.0518 12.5341 28.5503 12.5341H28.2017C28.0456 12.5341 27.9185 12.4078 27.9185 12.2518C27.9185 12.0958 28.0456 11.9686 28.2017 11.9686H28.5503Z" fill="#005CAB" stroke="#005CAB" stroke-width="0.05"/>
<path d="M18.4102 5.60461C18.4851 5.60461 18.5573 5.63455 18.6104 5.68762C18.6634 5.7407 18.6934 5.81285 18.6934 5.88782V8.5675C18.6931 8.64207 18.6632 8.71391 18.6104 8.76672C18.5573 8.81971 18.4851 8.84875 18.4102 8.84875C18.2542 8.84868 18.128 8.72247 18.1279 8.56653V6.17004H13.0146V8.56653C13.0146 8.72247 12.8884 8.84868 12.7324 8.84875C12.5764 8.84875 12.4493 8.72252 12.4492 8.56653V5.88586C12.4502 5.73063 12.577 5.60461 12.7324 5.60461H18.4102Z" fill="#005CAB" stroke="#005CAB" stroke-width="0.05"/>
<path d="M13.1833 20.9321C13.3393 20.9322 13.4656 21.0593 13.4656 21.2153V23.6323C13.4655 23.7072 13.4366 23.7795 13.3835 23.8325C13.3305 23.8856 13.2583 23.9145 13.1833 23.9146C13.0273 23.9146 12.9002 23.7883 12.9001 23.6323V21.2153C12.9001 21.0593 13.0273 20.9321 13.1833 20.9321Z" fill="#005CAB" stroke="#005CAB" stroke-width="0.05"/>
<path d="M22.4324 20.9321C22.5884 20.9322 22.7146 21.0593 22.7146 21.2153V23.6323C22.7146 23.7072 22.6856 23.7795 22.6326 23.8325C22.5795 23.8856 22.5073 23.9145 22.4324 23.9146C22.2764 23.9146 22.1492 23.7883 22.1492 23.6323V21.2153C22.1492 21.0593 22.2763 20.9321 22.4324 20.9321Z" fill="#005CAB" stroke="#005CAB" stroke-width="0.05"/>
<path d="M25.052 23.3491C25.1257 23.3491 25.1982 23.3791 25.2512 23.4321C25.304 23.485 25.3352 23.5571 25.3352 23.6323V26.1118C25.3352 26.1872 25.3039 26.2583 25.2512 26.311C25.1984 26.3638 25.126 26.395 25.052 26.395H10.5637C10.4077 26.395 10.2805 26.2679 10.2805 26.1118V23.6323C10.2805 23.4763 10.4077 23.3491 10.5637 23.3491H25.052ZM10.8479 25.8296H24.7708V23.9146H10.8459L10.8479 25.8296Z" fill="#005CAB" stroke="#005CAB" stroke-width="0.05"/>
</svg>
