<svg width="32" height="32" viewBox="0 0 32 32" fill="none" xmlns="http://www.w3.org/2000/svg">
<path fill-rule="evenodd" clip-rule="evenodd" d="M28 11.1743C28 11.7148 27.5606 12.1542 27.0201 12.1542L26.3904 12.1546L26.3875 23.8342H27.0174C27.5578 23.8342 27.9973 24.2737 27.9973 24.8142V25.4367C27.9973 25.9772 27.5578 26.4166 27.0174 26.4166H24.9492V27.0699C24.9492 27.5825 24.5317 28 24.019 28H22.7008C22.1881 28 21.7707 27.5825 21.7707 27.0699V26.4166H10.2271V27.0699C10.2271 27.5825 9.80965 28 9.29699 28H7.97873C7.46607 28 7.04861 27.5825 7.04861 27.0699V26.4166H4.98041C4.43992 26.4166 4.00049 25.9772 4.00049 25.4367V24.8142C4.00049 24.2737 4.43992 23.8342 4.98041 23.8342H5.61025V12.1557H4.98041C4.43992 12.1557 4.00049 11.7163 4.00049 11.1758V10.5532C4.00049 10.0128 4.43992 9.57332 4.98041 9.57332H8.17207V8.54069H7.74145C7.60669 8.54069 7.49684 8.43083 7.49684 8.29608C7.49684 8.16132 7.60669 8.05147 7.74145 8.05147H8.17207V7.27662H7.74145C7.60669 7.27662 7.49684 7.16676 7.49684 7.03201C7.49684 6.89726 7.60669 6.7874 7.74145 6.7874H8.17207V6.01256H7.74145C7.60669 6.01256 7.49684 5.9027 7.49684 5.76794C7.49684 5.63319 7.60669 5.52333 7.74145 5.52333H8.17207V5.17033C8.17207 4.52583 8.69643 4.00146 9.34093 4.00146C9.98544 4.00146 10.5098 4.52583 10.5098 5.17033V5.52333H10.9404C11.0752 5.52333 11.185 5.63319 11.185 5.76794C11.185 5.9027 11.0752 6.01256 10.9404 6.01256H10.5098V6.7874H10.9404C11.0752 6.7874 11.185 6.89726 11.185 7.03201C11.185 7.16676 11.0752 7.27662 10.9404 7.27662H10.5098V8.05147H10.9404C11.0752 8.05147 11.185 8.16132 11.185 8.29608C11.185 8.43083 11.0752 8.54069 10.9404 8.54069H10.5098V9.57332H14.8321V8.54069H14.4015C14.2667 8.54069 14.1569 8.43083 14.1569 8.29608C14.1569 8.16132 14.2667 8.05147 14.4015 8.05147H14.8321V7.27662H14.4015C14.2667 7.27662 14.1569 7.16676 14.1569 7.03201C14.1569 6.89726 14.2667 6.7874 14.4015 6.7874H14.8321V6.01256H14.4015C14.2667 6.01256 14.1569 5.9027 14.1569 5.76794C14.1569 5.63319 14.2667 5.52333 14.4015 5.52333H14.8321V5.17033C14.8321 4.52583 15.3565 4.00146 16.001 4.00146C16.6455 4.00146 17.1699 4.52583 17.1699 5.17033V5.52333H17.6005C17.7352 5.52333 17.8451 5.63319 17.8451 5.76794C17.8451 5.9027 17.7352 6.01256 17.6005 6.01256H17.1699V6.7874H17.6005C17.7352 6.7874 17.8451 6.89726 17.8451 7.03201C17.8451 7.16676 17.7352 7.27662 17.6005 7.27662H17.1699V8.05147H17.6005C17.7352 8.05147 17.8451 8.16132 17.8451 8.29608C17.8451 8.43083 17.7352 8.54069 17.6005 8.54069H17.1699V9.57332L21.4907 9.57186V8.53922H21.06C20.9253 8.53922 20.8154 8.42936 20.8154 8.29461C20.8154 8.15986 20.9253 8.05 21.06 8.05H21.4907V7.27516H21.06C20.9253 7.27516 20.8154 7.1653 20.8154 7.03055C20.8154 6.89579 20.9253 6.78594 21.06 6.78594H21.4907V6.01109H21.06C20.9253 6.01109 20.8154 5.90123 20.8154 5.76648C20.8154 5.63173 20.9253 5.52187 21.06 5.52187H21.4907V5.16887C21.4907 4.52436 22.015 4 22.6595 4C23.304 4 23.8284 4.52436 23.8284 5.16887V5.52187H24.259C24.3938 5.52187 24.5036 5.63173 24.5036 5.76648C24.5036 5.90123 24.3938 6.01109 24.259 6.01109H23.8284V6.78594H24.259C24.3938 6.78594 24.5036 6.89579 24.5036 7.03055C24.5036 7.1653 24.3938 7.27516 24.259 7.27516H23.8284V8.05H24.259C24.3938 8.05 24.5036 8.15986 24.5036 8.29461C24.5036 8.42936 24.3938 8.53922 24.259 8.53922H23.8284V9.57186H27.0201C27.5606 9.57186 28 10.0113 28 10.5518V11.1743ZM22.6593 4.48917C22.2858 4.48917 21.9812 4.79237 21.9812 5.16735L21.9797 5.52035H23.3375V5.16735C23.3375 4.79384 23.0343 4.48917 22.6593 4.48917ZM23.339 6.01104H21.9812V6.78588H23.339V6.01104ZM23.339 7.27511H21.9812V8.04996H23.339V7.27511ZM23.339 8.54065H21.9812V9.57328H23.339V8.54065ZM16.0006 4.48917C15.6271 4.48917 15.3224 4.79237 15.3224 5.16735L15.3209 5.52035H16.6787V5.16735C16.6787 4.79384 16.3755 4.48917 16.0006 4.48917ZM16.6802 6.01104H15.3224V6.78588H16.6802V6.01104ZM16.6802 7.27511H15.3224V8.04996H16.6802V7.27511ZM16.6802 8.54065H15.3224V9.57328H16.6802V8.54065ZM9.34029 4.48917C8.96678 4.48917 8.66212 4.79237 8.66212 5.16735L8.66066 5.52035H10.0185V5.16735C10.0185 4.79384 9.71527 4.48917 9.34029 4.48917ZM10.0199 6.01104H8.66212V6.78588H10.0199V6.01104ZM10.0199 7.27511H8.66212V8.04996H10.0199V7.27511ZM10.0199 8.54065H8.66212V9.57328H10.0199V8.54065ZM4.49204 10.5517V11.1742C4.49204 11.4437 4.71176 11.6635 4.98127 11.6635H27.0196C27.2891 11.6635 27.5088 11.4437 27.5088 11.1742V10.5517C27.5088 10.2822 27.2891 10.0625 27.0196 10.0625H4.98127C4.71175 10.0625 4.49204 10.2822 4.49204 10.5517ZM9.29777 27.5061C9.54093 27.5061 9.73867 27.3084 9.73867 27.0652V26.4119H7.53862V27.0652C7.53862 27.3084 7.73637 27.5061 7.97952 27.5061H9.29777ZM24.02 27.5061C24.2631 27.5061 24.4609 27.3084 24.4609 27.0652L24.4594 26.4119H22.2608V27.0652C22.2608 27.3084 22.4586 27.5061 22.7017 27.5061H24.02ZM27.509 25.4335V24.811C27.509 24.5415 27.2893 24.3218 27.0198 24.3218H4.98146C4.71194 24.3218 4.49223 24.5415 4.49223 24.811V25.4335C4.49223 25.703 4.71194 25.9228 4.98146 25.9228H27.0198C27.2893 25.9228 27.509 25.703 27.509 25.4335ZM6.10023 23.8325H25.9007L25.8992 12.154H6.10023V23.8325ZM7.6076 13.7053V22.2798C7.6076 22.416 7.71745 22.5258 7.85221 22.5244C7.98696 22.5244 8.09682 22.4145 8.09682 22.2798V13.7053C8.09682 13.5705 7.98696 13.4606 7.85221 13.4606C7.71745 13.4606 7.6076 13.5705 7.6076 13.7053ZM11.1889 13.7053V22.2798C11.1889 22.416 11.2987 22.5258 11.4335 22.5244C11.5682 22.5244 11.6781 22.4145 11.6781 22.2798V13.7053C11.6781 13.5705 11.5682 13.4606 11.4335 13.4606C11.2987 13.4606 11.1889 13.5705 11.1889 13.7053ZM20.3213 13.7053V22.2798C20.3213 22.416 20.4312 22.5258 20.5659 22.5244C20.7007 22.5244 20.8106 22.4145 20.8106 22.2798V13.7053C20.8106 13.5705 20.7007 13.4606 20.5659 13.4606C20.4312 13.4606 20.3213 13.5705 20.3213 13.7053ZM23.9026 13.7053V22.2798C23.9026 22.416 24.0124 22.5258 24.1472 22.5244C24.282 22.5244 24.3918 22.4145 24.3918 22.2798V13.7053C24.3918 13.5705 24.282 13.4606 24.1472 13.4606C24.0124 13.4606 23.9026 13.5705 23.9026 13.7053Z" fill="#005CAB"/>
<path fill-rule="evenodd" clip-rule="evenodd" d="M13.3668 18.4686L14.9912 18.9036L13.7975 21.9693C13.7169 22.1773 13.7931 22.4043 13.982 22.523C14.0582 22.5713 14.1431 22.5948 14.2266 22.5948C14.3497 22.5948 14.4698 22.545 14.5606 22.4468L18.7498 17.9194C18.8084 17.8564 18.8289 17.7671 18.8054 17.685C18.782 17.603 18.7161 17.5386 18.6341 17.5166L17.0097 17.0815L18.2035 14.0158C18.284 13.8078 18.2078 13.5808 18.0189 13.4622C17.8299 13.3435 17.5912 13.3757 17.4403 13.5383L13.2511 18.0657C13.1925 18.1287 13.172 18.2181 13.1954 18.3001C13.2189 18.3821 13.2848 18.4466 13.3668 18.4686ZM16.4531 17.1575L17.685 13.9951L13.8854 18.1007L15.3824 18.502C15.4497 18.5196 15.5069 18.5665 15.5376 18.628C15.5699 18.6895 15.5728 18.7627 15.5479 18.8272L14.316 21.9896L18.1156 17.884L16.6187 17.4827C16.5513 17.4651 16.4942 17.4182 16.4634 17.3567C16.4312 17.2952 16.4282 17.2219 16.4531 17.1575Z" fill="#7BC143"/>
<path d="M9.39896 22.2798V13.7053C9.39896 13.5705 9.50881 13.4606 9.64357 13.4606C9.77832 13.4606 9.88818 13.5705 9.88818 13.7053V22.2798C9.88818 22.4145 9.77832 22.5244 9.64357 22.5244C9.50881 22.5258 9.39896 22.416 9.39896 22.2798Z" fill="#7BC143"/>
<path d="M22.1127 22.2798V13.7053C22.1127 13.5705 22.2225 13.4606 22.3573 13.4606C22.4921 13.4606 22.6019 13.5705 22.6019 13.7053V22.2798C22.6019 22.4145 22.4921 22.5244 22.3573 22.5244C22.2225 22.5258 22.1127 22.416 22.1127 22.2798Z" fill="#7BC143"/>
</svg>
