<svg width="26" height="28" viewBox="0 0 26 28" fill="none" xmlns="http://www.w3.org/2000/svg">
<path d="M16.29 4.90161C16.4213 4.90181 16.533 5.00842 16.5332 5.14478V24.6096C16.5331 24.7455 16.4259 24.8526 16.29 24.8528H2.51562C2.37963 24.8528 2.27154 24.7456 2.27148 24.6096V22.0471H1.89453C1.75864 22.047 1.65137 21.9399 1.65137 21.804V18.8879C1.65137 18.752 1.75864 18.6449 1.89453 18.6448H2.27148V11.1106H1.89453C1.75864 11.1104 1.65137 11.0024 1.65137 10.8665V7.95044C1.65143 7.81456 1.75868 7.70743 1.89453 7.70728H2.27148V5.14478C2.27164 5.00888 2.37969 4.90161 2.51562 4.90161H16.29ZM2.75879 7.70728H3.13184C3.26773 7.70739 3.37494 7.81453 3.375 7.95044V10.8665C3.375 11.0024 3.26776 11.1105 3.13184 11.1106H2.75879V18.6448H3.13184C3.26776 18.6449 3.375 18.752 3.375 18.8879V21.804C3.375 21.9399 3.26776 22.047 3.13184 22.0471H2.75879V24.3655H16.0459V5.38892H2.75879V7.70728ZM2.13867 21.5608H2.8877V19.1311H2.13867V21.5608ZM2.13867 10.6233H2.88379V8.19458H2.13867V10.6233Z" fill="#005CAB" stroke="#005CAB" stroke-width="0.0919681"/>
<path d="M13.8838 11.856C14.3001 11.856 14.6415 12.1962 14.6416 12.6089C14.6416 12.9418 14.4253 13.2174 14.1279 13.3198V16.4341C14.4252 16.5364 14.6415 16.8119 14.6416 17.1411C14.6416 17.5577 14.3004 17.8989 13.8838 17.8989C13.4673 17.8988 13.127 17.5576 13.127 17.1411C13.1271 16.8078 13.3432 16.5349 13.6406 16.4331V13.3198C13.3431 13.2175 13.127 12.9419 13.127 12.6089C13.1271 12.1922 13.4678 11.8561 13.8838 11.856ZM13.8838 16.8755C13.7352 16.8757 13.6144 16.9972 13.6143 17.1411C13.6143 17.2895 13.7355 17.4115 13.8838 17.4116C14.0362 17.4116 14.1543 17.2935 14.1543 17.1411C14.1542 16.9935 14.0329 16.8755 13.8838 16.8755ZM13.8838 12.3433C13.7352 12.3434 13.6144 12.465 13.6143 12.6089C13.6143 12.7572 13.7355 12.8792 13.8838 12.8794C14.0362 12.8794 14.1543 12.7613 14.1543 12.6089C14.1542 12.4613 14.0329 12.3433 13.8838 12.3433Z" fill="#7BC143" stroke="#7BC143" stroke-width="0.0919681"/>
<path d="M13.7773 20.5449C13.9131 20.5451 14.0203 20.6523 14.0205 20.7881C14.0205 20.924 13.9132 21.032 13.7773 21.0322H5.02832C4.89243 21.0321 4.78516 20.924 4.78516 20.7881C4.78532 20.6523 4.89253 20.5451 5.02832 20.5449H13.7773Z" fill="#7BC143" stroke="#7BC143" stroke-width="0.0919681"/>
<path d="M13.7773 22.1216C13.9131 22.1218 14.0203 22.229 14.0205 22.3647C14.0205 22.5006 13.9132 22.6087 13.7773 22.6089H5.02832C4.89243 22.6087 4.78516 22.5007 4.78516 22.3647C4.78532 22.229 4.89253 22.1217 5.02832 22.1216H13.7773Z" fill="#7BC143" stroke="#7BC143" stroke-width="0.0919681"/>
<path d="M8.87305 8.88049C9.14571 8.88049 9.39433 9.01908 9.5332 9.25452L12.2715 13.8698L12.3184 13.9615C12.413 14.1801 12.4016 14.426 12.2803 14.6393C12.1417 14.8827 11.8933 15.0258 11.6162 15.026H6.13965C5.86334 15.026 5.60191 14.8832 5.4668 14.6383C5.33285 14.3954 5.33258 14.1095 5.47559 13.8698L8.21777 9.25452C8.35642 9.01945 8.60029 8.88065 8.87305 8.88049ZM8.88184 9.3678C8.77949 9.3678 8.69161 9.41857 8.64062 9.50354L5.89844 14.1178C5.84796 14.2053 5.85086 14.3069 5.89941 14.3971C5.94661 14.4846 6.03781 14.5387 6.13965 14.5387H11.624C11.7259 14.5386 11.8132 14.4883 11.8643 14.4C11.9021 14.3344 11.9099 14.2586 11.8896 14.1871L11.8604 14.1178L9.12207 9.50256C9.07123 9.4184 8.98011 9.36794 8.88184 9.3678Z" fill="#7BC143" stroke="#7BC143" stroke-width="0.0919681"/>
<path d="M8.7207 10.903C8.77478 10.7763 8.91724 10.7242 9.04199 10.777C9.16896 10.8308 9.22221 10.9769 9.16895 11.0983L8.67969 12.2076H9.44629C9.53497 12.2076 9.61312 12.2569 9.65625 12.3287C9.70045 12.4025 9.70052 12.5001 9.65625 12.5739L9.65527 12.5729L8.91016 13.8688C8.866 13.9471 8.78285 13.9908 8.7002 13.9908C8.65717 13.9908 8.61746 13.9801 8.57812 13.9557V13.9567C8.46163 13.8887 8.42234 13.7425 8.49023 13.6256L9.02734 12.6949H8.30859C8.22561 12.6949 8.14834 12.6507 8.10449 12.5826C8.06135 12.5155 8.04991 12.4273 8.08496 12.3522L8.7207 10.903Z" fill="#7BC143" stroke="#7BC143" stroke-width="0.0919681"/>
<path d="M23.5566 0.954102C24.8622 0.954119 25.9218 2.01373 25.9219 3.31543C25.9219 4.517 25.0203 5.51127 23.8633 5.65918L22.2002 13.3662C22.3992 13.5669 22.5273 13.8466 22.5273 14.1543V15.5967C22.5272 16.2146 22.0251 16.7167 21.4072 16.7168H18.7227V25.9248C18.7227 26.5429 18.2197 27.0459 17.6016 27.0459H1.2002C0.582094 27.0459 0.0791016 26.5429 0.0791016 25.9248V3.8291C0.0791438 3.21104 0.58212 2.70801 1.2002 2.70801H17.5938C18.2118 2.70801 18.7148 3.21104 18.7148 3.8291V13.0332H20.5918L22.2598 5.28711C21.6187 4.86534 21.1914 4.14183 21.1914 3.31543C21.1914 2.01372 22.2511 0.954102 23.5566 0.954102ZM1.2002 3.19531C0.850238 3.19531 0.566448 3.47915 0.566406 3.8291V25.9248C0.566406 26.2748 0.850212 26.5586 1.2002 26.5586H17.6016C17.9515 26.5586 18.2354 26.2748 18.2354 25.9248V3.8291C18.2353 3.47915 17.9515 3.19531 17.6016 3.19531H1.2002ZM18.7227 16.2305H21.4072C21.757 16.2304 22.0408 15.9465 22.041 15.5967V14.1543C22.041 13.8044 21.7571 13.5206 21.4072 13.5205H18.7227V16.2305ZM21.0967 13.0332H21.4072C21.5292 13.0332 21.6472 13.0558 21.7588 13.0908L23.3613 5.66309C23.1375 5.64445 22.9205 5.59593 22.7168 5.51758L21.0967 13.0332ZM23.5605 1.44141C22.523 1.44141 21.6827 2.28196 21.6826 3.31543C21.6826 4.35295 22.523 5.19335 23.5605 5.19336C24.598 5.19336 25.4385 4.34906 25.4385 3.31543C25.4384 2.28195 24.5981 1.44141 23.5605 1.44141Z" fill="#005CAB" stroke="#005CAB" stroke-width="0.0919681"/>
</svg>
