<svg width="20" height="20" viewBox="0 0 20 20" fill="none" xmlns="http://www.w3.org/2000/svg">
<path d="M8.59369 0C8.8539 0 9.11412 0 9.37494 0C9.56072 0.0264624 9.74589 0.0510785 9.93167 0.0787717C11.146 0.258469 12.2238 0.748331 13.1471 1.55266C14.5263 2.75455 15.2897 4.27336 15.4084 6.10542C15.4964 7.46485 15.1741 8.72642 14.4531 9.87907C13.7875 10.9425 13.1028 11.9942 12.4268 13.0515C12.3972 13.0976 12.3738 13.1481 12.34 13.2096C12.4015 13.2238 12.444 13.2355 12.4877 13.2435C13.6042 13.438 14.7041 13.697 15.7357 14.1777C16.6677 14.6121 17.5147 15.1451 17.7706 16.2503V16.7193C17.6415 17.3021 17.3234 17.7575 16.8559 18.123C16.2592 18.5895 15.5825 18.8984 14.8732 19.1397C13.5439 19.5926 12.169 19.8154 10.7732 19.9249C10.4761 19.9483 10.1796 19.9748 9.88307 20H8.04805C7.98468 19.9889 7.92194 19.9742 7.85858 19.9674C7.0644 19.8855 6.26654 19.8314 5.47668 19.7181C4.38169 19.5612 3.3107 19.2892 2.30061 18.8258C1.34219 18.3864 0.469274 17.8504 0.199219 16.7187C0.199219 16.5624 0.199219 16.406 0.199219 16.2497C0.269347 16.0553 0.319175 15.8503 0.412679 15.6676C0.727026 15.0565 1.26468 14.6805 1.85031 14.3672C2.85733 13.8275 3.94862 13.542 5.06021 13.3198C5.24722 13.2823 5.43546 13.249 5.63785 13.2115C5.60709 13.1561 5.59233 13.1272 5.5751 13.1001C4.89904 12.0428 4.21498 10.9911 3.54876 9.92831C2.60942 8.43103 2.33382 6.80944 2.70107 5.08262C2.909 4.1072 3.33346 3.22779 3.95723 2.44992C4.81046 1.38527 5.88637 0.636943 7.20343 0.267085C7.65619 0.140927 8.12986 0.0873873 8.59369 0ZM8.98555 16.2596C9.03538 16.1863 9.07536 16.1297 9.11289 16.0713C10.5155 13.8724 11.9119 11.6699 13.323 9.4766C14.4408 7.7387 14.5878 5.92818 13.6681 4.08628C12.8235 2.39454 11.4117 1.40804 9.5275 1.21665C7.53746 1.01419 5.92574 1.7699 4.72618 3.36872C3.46018 5.05677 3.37837 7.49377 4.50841 9.26552C5.96019 11.5407 7.41382 13.8152 8.86682 16.0897C8.90066 16.1427 8.93818 16.1931 8.98493 16.2602L8.98555 16.2596ZM8.97632 18.8572C9.71574 18.8098 10.457 18.7784 11.1946 18.7113C12.4741 18.5944 13.729 18.3507 14.9268 17.8713C15.4589 17.6584 15.9787 17.4141 16.3699 16.9728C16.6757 16.6276 16.6701 16.3353 16.3595 15.9888C16.0722 15.6676 15.708 15.4534 15.3248 15.2712C14.2329 14.7506 13.0647 14.5118 11.8793 14.3303C11.6738 14.2989 11.5834 14.3647 11.4825 14.5254C10.8396 15.5494 10.1857 16.5667 9.53796 17.5882C9.41739 17.7778 9.27344 17.9242 9.03353 17.9415C8.75117 17.9618 8.57339 17.8141 8.43129 17.5889C7.76692 16.5396 7.09701 15.494 6.43387 14.4441C6.36497 14.3352 6.30222 14.2964 6.16873 14.3241C5.8956 14.3807 5.61632 14.4054 5.34134 14.4564C4.30295 14.6485 3.28548 14.9082 2.35228 15.4245C2.02071 15.6079 1.71067 15.8208 1.49105 16.142C1.34342 16.358 1.31943 16.5913 1.47691 16.7962C1.62516 16.9888 1.7974 17.1747 1.99364 17.3162C2.60265 17.755 3.30332 18.0012 4.01752 18.2043C5.63723 18.6652 7.29693 18.8172 8.97571 18.8572H8.97632Z" fill="#7BC143"/>
<path d="M8.98493 3.55519C10.5967 3.55519 11.9156 4.87769 11.9125 6.48943C11.9094 8.10179 10.585 9.41937 8.97448 9.41321C7.37014 9.40706 6.05923 8.09317 6.05677 6.4882C6.05431 4.87646 7.37383 3.55457 8.98555 3.55457L8.98493 3.55519ZM8.98555 4.72815C8.03021 4.72753 7.2348 5.52017 7.22865 6.47835C7.2225 7.43161 8.01298 8.22979 8.97325 8.24087C9.93105 8.25195 10.7437 7.44208 10.74 6.48081C10.7363 5.52325 9.94089 4.72938 8.98555 4.72815Z" fill="#7BC143"/>
</svg>
