<svg width="32" height="32" viewBox="0 0 32 32" fill="none" xmlns="http://www.w3.org/2000/svg">
<path d="M26.6675 24.6395H5.33242C5.14893 24.6395 5 24.4906 5 24.3071V3.50918C5 3.32568 5.14894 3.17676 5.33242 3.17676H12.0073C12.1908 3.17676 12.3397 3.3257 12.3397 3.50918C12.3397 3.69267 12.1908 3.84159 12.0073 3.84159H5.6649V23.9733H26.3353V3.84159H19.9929C19.8094 3.84159 19.6605 3.69266 19.6605 3.50918C19.6605 3.32568 19.8094 3.17676 19.9929 3.17676H26.6678C26.8513 3.17676 27.0002 3.3257 27.0002 3.50918V24.3071C27.0002 24.4906 26.851 24.6395 26.6675 24.6395Z" fill="#4C4F54"/>
<path d="M16.0003 21.7905C11.6537 21.7905 8.11719 18.254 8.11719 13.9074C8.11719 9.56077 11.6537 6.02429 16.0003 6.02429C20.3469 6.02429 23.8834 9.56077 23.8834 13.9074C23.8834 18.254 20.3469 21.7905 16.0003 21.7905ZM16.0003 6.69047C12.0206 6.69047 8.78337 9.92772 8.78337 13.9074C8.78337 17.8871 12.0206 21.1255 16.0003 21.1255C19.98 21.1255 23.2172 17.8883 23.2172 13.9086C23.2172 9.92894 19.98 6.69047 16.0003 6.69047Z" fill="#4C4F54"/>
<path d="M15.9996 20.2621C12.4967 20.2621 9.64648 17.412 9.64648 13.909C9.64648 10.4049 12.4966 7.55469 15.9996 7.55469C19.5026 7.55469 22.3527 10.4048 22.3527 13.9078C22.3527 17.4119 19.5026 20.2621 15.9996 20.2621ZM15.9996 8.22056C12.8636 8.22056 10.3114 10.7728 10.3114 13.9087C10.3114 17.0446 12.8637 19.5959 15.9996 19.5959C19.1355 19.5959 21.6877 17.0437 21.6877 13.9078C21.6877 10.7719 19.1355 8.22056 15.9996 8.22056Z" fill="#4C4F54"/>
<path d="M15.9998 15.2923C15.236 15.2923 14.6152 14.6715 14.6152 13.9077C14.6152 13.144 15.236 12.5232 15.9998 12.5232C16.7635 12.5232 17.3843 13.144 17.3843 13.9077C17.3843 14.6715 16.7635 15.2923 15.9998 15.2923ZM15.9998 13.1893C15.603 13.1893 15.2813 13.5122 15.2813 13.9078C15.2813 14.3045 15.603 14.6274 15.9998 14.6274C16.3966 14.6274 16.7183 14.3045 16.7183 13.909C16.7183 13.5122 16.3966 13.1893 15.9998 13.1893Z" fill="#4C4F54"/>
<path d="M16.0323 13.1891C15.9155 13.1891 15.8024 13.1271 15.7416 13.0175C15.7249 12.9877 15.3436 12.2907 15.1971 11.291C15.0005 9.9541 15.3198 8.71017 16.1205 7.69379C16.2337 7.54962 16.4434 7.52459 16.5875 7.63779C16.7317 7.75098 16.7567 7.96069 16.6435 8.10485C15.9536 8.98061 15.6867 10.0125 15.8523 11.1719C15.9786 12.0572 16.3206 12.6899 16.3242 12.6958C16.4124 12.8567 16.354 13.0592 16.1931 13.1474C16.1419 13.176 16.0859 13.1891 16.0323 13.1891Z" fill="#4C4F54"/>
<path d="M15.2786 13.4752C15.2477 13.4752 15.2179 13.4704 15.1869 13.4621C15.1547 13.4525 14.3909 13.2297 13.5807 12.6268C12.4965 11.8202 11.8423 10.7145 11.6898 9.43014C11.6684 9.24784 11.7982 9.08223 11.9805 9.06079C12.1628 9.03934 12.3285 9.16922 12.3499 9.35152C12.6657 12.0169 15.343 12.8151 15.3692 12.8236C15.5455 12.8749 15.648 13.0584 15.5968 13.2359C15.5562 13.3801 15.424 13.4752 15.2786 13.4752Z" fill="#4C4F54"/>
<path d="M12.6257 14.7691C11.5771 14.7691 10.6072 14.4367 9.7851 13.7885C9.64092 13.6753 9.6159 13.4656 9.7291 13.3215C9.84229 13.1773 10.052 13.1523 10.1962 13.2655C12.3039 14.9264 14.7621 13.5991 14.7859 13.5848C14.9467 13.4954 15.1493 13.5538 15.2387 13.7147C15.328 13.8755 15.2696 14.0781 15.1088 14.1675C15.079 14.1841 14.382 14.5654 13.3823 14.712C13.1273 14.7501 12.8747 14.7691 12.6257 14.7691Z" fill="#4C4F54"/>
<path d="M11.4827 18.2196C11.3159 18.2196 11.173 18.0957 11.1527 17.9265C11.1313 17.7442 11.2611 17.5786 11.4434 17.5572C14.1088 17.2414 14.907 14.5641 14.9156 14.5379C14.9668 14.3616 15.1503 14.2591 15.3278 14.3103C15.5042 14.3616 15.6066 14.5451 15.5554 14.7226C15.5459 14.7548 15.3231 15.5185 14.7201 16.3287C13.9135 17.413 12.8078 18.0672 11.5235 18.2197L11.4827 18.2196Z" fill="#4C4F54"/>
<path d="M15.6182 20.2489C15.5455 20.2489 15.474 20.2251 15.4121 20.1775C15.2679 20.0643 15.2429 19.8546 15.3561 19.7104C16.0459 18.8346 16.3128 17.8028 16.1472 16.6434C16.0209 15.7581 15.679 15.1254 15.6754 15.1194C15.5872 14.9586 15.6456 14.756 15.8065 14.6678C15.9673 14.5797 16.1687 14.6368 16.258 14.7977C16.2747 14.8275 16.656 15.5245 16.8026 16.5242C16.9992 17.8611 16.6799 19.105 15.8792 20.1214C15.8136 20.206 15.7159 20.2489 15.6182 20.2489Z" fill="#4C4F54"/>
<path d="M19.9788 18.7595C19.812 18.7595 19.669 18.6356 19.6487 18.4664C19.333 15.8009 16.6557 15.0028 16.6295 14.9942C16.4531 14.943 16.3506 14.7595 16.4019 14.582C16.4531 14.4056 16.6366 14.3032 16.8142 14.3544C16.8463 14.3639 17.6101 14.5867 18.4203 15.1896C19.5046 15.9963 20.1587 17.102 20.3112 18.3863C20.3327 18.5686 20.2028 18.7342 20.0205 18.7557C20.005 18.7581 19.9919 18.7595 19.9788 18.7595Z" fill="#4C4F54"/>
<path d="M22.0093 14.6224C21.9366 14.6224 21.8651 14.5986 21.8032 14.5509C19.6954 12.89 17.2372 14.2173 17.2134 14.2316C17.0526 14.321 16.85 14.2626 16.7606 14.1017C16.6713 13.9409 16.7297 13.7383 16.8905 13.6489C16.9191 13.6323 17.6173 13.251 18.617 13.1044C19.9539 12.9078 21.1978 13.2271 22.2142 14.0278C22.3584 14.141 22.3834 14.3507 22.2702 14.4949C22.2047 14.5783 22.107 14.6224 22.0093 14.6224Z" fill="#4C4F54"/>
<path d="M16.7661 13.5203C16.7351 13.5203 16.7054 13.5156 16.6744 13.5072C16.498 13.456 16.3956 13.2725 16.4468 13.095C16.4563 13.0628 16.6791 12.299 17.2821 11.4888C18.0887 10.4045 19.1944 9.75041 20.4787 9.5979C20.661 9.57645 20.8266 9.70632 20.8481 9.88862C20.8695 10.0709 20.7397 10.2365 20.5574 10.258C17.8919 10.5737 17.0938 13.2511 17.0852 13.2773C17.0435 13.425 16.9103 13.5203 16.7661 13.5203Z" fill="#4C4F54"/>
<path d="M25.3528 27.2691H6.64856C6.0695 27.2691 5.59766 26.7973 5.59766 26.2182V24.307C5.59766 24.1235 5.74659 23.9746 5.93007 23.9746H26.0701C26.2536 23.9746 26.4025 24.1235 26.4025 24.307V26.2182C26.4037 26.7973 25.9319 27.2691 25.3528 27.2691ZM6.26362 24.6394V26.2182C6.26362 26.4303 6.43639 26.6031 6.64847 26.6031H25.3527C25.5648 26.6031 25.7376 26.4303 25.7376 26.2182V24.6394H6.26362Z" fill="#4C4F54"/>
<path d="M9.25318 30.1981H8.40362C7.81144 30.1981 7.33008 29.7167 7.33008 29.1245V26.9369C7.33008 26.7534 7.47902 26.6045 7.6625 26.6045H9.99308C10.1766 26.6045 10.3255 26.7534 10.3255 26.9369V29.1245C10.3267 29.7155 9.84417 30.1981 9.25318 30.1981ZM7.99494 27.2693V29.1245C7.99494 29.3497 8.17844 29.532 8.40243 29.532H9.25199C9.47718 29.532 9.65947 29.3485 9.65947 29.1245V27.2693H7.99494Z" fill="#4C4F54"/>
<path d="M23.5969 30.1981H22.7474C22.1552 30.1981 21.6738 29.7167 21.6738 29.1245V26.9369C21.6738 26.7534 21.8228 26.6045 22.0062 26.6045H24.3368C24.5203 26.6045 24.6693 26.7534 24.6693 26.9369V29.1245C24.6704 29.7155 24.1891 30.1981 23.5969 30.1981ZM22.3399 27.2693V29.1245C22.3399 29.3497 22.5234 29.532 22.7474 29.532H23.5969C23.8221 29.532 24.0044 29.3485 24.0044 29.1245V27.2693H22.3399Z" fill="#4C4F54"/>
<path d="M19.1371 5.09772H12.8627C12.7531 5.09772 12.6494 5.04291 12.5874 4.95236L10.7942 2.32269C10.7251 2.22022 10.7168 2.08916 10.7752 1.97954C10.8335 1.87111 10.9467 1.802 11.0695 1.802H20.9304C21.0543 1.802 21.1675 1.86992 21.2247 1.97954C21.2818 2.08915 21.2747 2.22022 21.2056 2.32269L19.4124 4.95236C19.3504 5.04291 19.2479 5.09772 19.1371 5.09772ZM13.0378 4.43166H18.9608L20.3012 2.46805H11.6985L13.0378 4.43166Z" fill="#4C4F54"/>
<path d="M16.1493 3.78215H13.8187C13.6353 3.78215 13.4863 3.63321 13.4863 3.44973C13.4863 3.26624 13.6353 3.11731 13.8187 3.11731H16.1493C16.3328 3.11731 16.4818 3.26625 16.4818 3.44973C16.4829 3.63322 16.334 3.78215 16.1493 3.78215Z" fill="#4C4F54"/>
<path d="M18.1815 3.78215H17.5238C17.3403 3.78215 17.1914 3.63321 17.1914 3.44973C17.1914 3.26624 17.3403 3.11731 17.5238 3.11731H18.1815C18.365 3.11731 18.5139 3.26625 18.5139 3.44973C18.5139 3.63322 18.365 3.78215 18.1815 3.78215Z" fill="#4C4F54"/>
<path d="M26.6675 23.1287H5.33242C5.14893 23.1287 5 22.9797 5 22.7963C5 22.6128 5.14894 22.4638 5.33242 22.4638L26.6675 22.4626C26.851 22.4626 26.9999 22.6116 26.9999 22.7951C26.9999 22.9797 26.851 23.1287 26.6675 23.1287Z" fill="#4C4F54"/>
<path d="M7.12564 6.22477H5.33242C5.14893 6.22477 5 6.07583 5 5.89235C5 5.70886 5.14894 5.55994 5.33242 5.55994H7.12564C7.30913 5.55994 7.45806 5.70887 7.45806 5.89235C7.45806 6.07585 7.30912 6.22477 7.12564 6.22477Z" fill="#4C4F54"/>
<path d="M7.12564 7.60685H5.33242C5.14893 7.60685 5 7.45791 5 7.27443C5 7.09094 5.14894 6.94202 5.33242 6.94202H7.12564C7.30913 6.94202 7.45806 7.09095 7.45806 7.27443C7.45806 7.45793 7.30912 7.60685 7.12564 7.60685Z" fill="#4C4F54"/>
<path d="M7.12564 8.9904H5.33242C5.14893 8.9904 5 8.84146 5 8.65798C5 8.47449 5.14894 8.32556 5.33242 8.32556H7.12564C7.30913 8.32556 7.45806 8.4745 7.45806 8.65798C7.45806 8.84147 7.30912 8.9904 7.12564 8.9904Z" fill="#4C4F54"/>
<path d="M26.6686 6.22477H24.8754C24.6919 6.22477 24.543 6.07583 24.543 5.89235C24.543 5.70886 24.6919 5.55994 24.8754 5.55994H26.6686C26.8521 5.55994 27.001 5.70887 27.001 5.89235C27.001 6.07585 26.8521 6.22477 26.6686 6.22477Z" fill="#4C4F54"/>
<path d="M26.6686 7.60685H24.8754C24.6919 7.60685 24.543 7.45791 24.543 7.27443C24.543 7.09094 24.6919 6.94202 24.8754 6.94202H26.6686C26.8521 6.94202 27.001 7.09095 27.001 7.27443C27.001 7.45793 26.8521 7.60685 26.6686 7.60685Z" fill="#4C4F54"/>
<path d="M26.6686 8.9904H24.8754C24.6919 8.9904 24.543 8.84146 24.543 8.65798C24.543 8.47449 24.6919 8.32556 24.8754 8.32556H26.6686C26.8521 8.32556 27.001 8.4745 27.001 8.65798C27.001 8.84147 26.8521 8.9904 26.6686 8.9904Z" fill="#4C4F54"/>
</svg>
