<svg width="13" height="13" viewBox="0 0 13 13" fill="none" xmlns="http://www.w3.org/2000/svg">
<path d="M12.7998 1.48523C12.7998 0.932945 12.3521 0.485229 11.7998 0.48523L2.7998 0.485229C2.24752 0.485229 1.7998 0.932945 1.7998 1.48523C1.7998 2.03751 2.24752 2.48523 2.7998 2.48523L10.7998 2.48523L10.7998 10.4852C10.7998 11.0375 11.2475 11.4852 11.7998 11.4852C12.3521 11.4852 12.7998 11.0375 12.7998 10.4852L12.7998 1.48523ZM1.1932 10.6776C0.802679 11.0681 0.802679 11.7013 1.1932 12.0918C1.58373 12.4824 2.21689 12.4824 2.60742 12.0918L1.1932 10.6776ZM11.7998 1.48523L11.0927 0.778123L1.1932 10.6776L1.90031 11.3847L2.60742 12.0918L12.5069 2.19234L11.7998 1.48523Z" fill="#7BC143"/>
</svg>
