<svg width="29" height="30" viewBox="0 0 29 30" fill="none" xmlns="http://www.w3.org/2000/svg">
<path d="M19.381 11.1097C19.4095 10.6964 19.0975 10.3384 18.6842 10.31L11.9501 9.84707C11.5369 9.81866 11.1789 10.1306 11.1505 10.5439C11.1221 10.9571 11.434 11.3151 11.8473 11.3435L17.8331 11.755L17.4217 17.7409C17.3932 18.1541 17.7052 18.5122 18.1184 18.5406C18.5317 18.569 18.8897 18.257 18.9181 17.8438L19.381 11.1097ZM9.09286 18.3761C8.78057 18.6483 8.74801 19.122 9.02012 19.4343C9.29224 19.7466 9.76599 19.7792 10.0783 19.507L9.09286 18.3761ZM18.6328 11.0582L18.1401 10.4928L9.09286 18.3761L9.58557 18.9416L10.0783 19.507L19.1255 11.6237L18.6328 11.0582Z" fill="#7BC143"/>
</svg>
