<svg width="32" height="32" viewBox="0 0 32 32" fill="none" xmlns="http://www.w3.org/2000/svg">
<path fill-rule="evenodd" clip-rule="evenodd" d="M13.9217 13.196H14.0465V12.2502C14.0465 12.0714 14.1921 11.9244 14.3723 11.9244C14.5526 11.9244 14.6982 12.07 14.6982 12.2502V13.196H15.6744V12.2502C15.6744 12.0714 15.82 11.9244 16.0003 11.9244C16.1805 11.9244 16.3261 12.07 16.3261 12.2502V13.196H17.3024V12.2502C17.3024 12.0714 17.448 11.9244 17.6282 11.9244C17.8085 11.9244 17.9541 12.07 17.9541 12.2502V13.196H18.0789C18.2786 13.196 18.4616 13.2778 18.5919 13.4095C18.7237 13.5412 18.8055 13.7229 18.8055 13.9226V14.0474H19.7512C19.9315 14.0474 20.0771 14.193 20.0771 14.3732C20.0771 14.5535 19.9315 14.6991 19.7512 14.6991H18.8055V15.6753H19.7512C19.9315 15.6753 20.0771 15.8209 20.0771 16.0012C20.0771 16.1814 19.9315 16.327 19.7512 16.327H18.8055V17.3033H19.7512C19.9315 17.3033 20.0771 17.4489 20.0771 17.6291C20.0771 17.8094 19.9315 17.955 19.7512 17.955H18.8055V18.0798C18.8055 18.2809 18.7237 18.4625 18.5919 18.5929C18.4602 18.7246 18.2786 18.8064 18.0789 18.8064L17.6379 18.8036V19.7493C17.6379 19.9296 17.4923 20.0752 17.3121 20.0752C17.1332 20.0752 16.9862 19.9296 16.9862 19.7493V18.8036H16.01V19.7493C16.01 19.9296 15.8644 20.0752 15.6841 20.0752C15.5039 20.0752 15.3582 19.9296 15.3582 19.7493V18.8036H14.382V19.7493C14.382 19.9296 14.2364 20.0752 14.0562 20.0752C13.8759 20.0752 13.7303 19.9296 13.7303 19.7493V18.7787C13.6055 18.7454 13.4946 18.6788 13.4058 18.5901C13.2741 18.4584 13.1923 18.2767 13.1923 18.077V17.9522H12.2466C12.0677 17.9522 11.9207 17.8066 11.9207 17.6264C11.9207 17.4461 12.0663 17.3005 12.2466 17.3005H13.1923V16.3243H12.2466C12.0677 16.3243 11.9207 16.1787 11.9207 15.9984C11.9207 15.8181 12.0663 15.6725 12.2466 15.6725H13.1923V14.6963H12.2466C12.0677 14.6963 11.9207 14.5507 11.9207 14.3705C11.9207 14.1902 12.0663 14.0446 12.2466 14.0446H13.1923V13.9198C13.1923 13.7201 13.2741 13.5371 13.4058 13.4067C13.5403 13.2778 13.722 13.196 13.9217 13.196ZM13.9247 13.8484H18.0763C18.097 13.8484 18.1151 13.8567 18.1317 13.8705C18.1456 13.8844 18.1539 13.9038 18.1539 13.9246V18.0762C18.1539 18.097 18.1456 18.1164 18.1317 18.1303C18.1179 18.1441 18.0985 18.1525 18.0777 18.1525H13.9247C13.9039 18.1525 13.8845 18.1441 13.8706 18.1303C13.8567 18.1164 13.8484 18.097 13.8484 18.0762V13.9246C13.8484 13.9038 13.8567 13.8844 13.8706 13.8705C13.8845 13.8567 13.9039 13.8484 13.9247 13.8484Z" fill="#4C4F54"/>
<path fill-rule="evenodd" clip-rule="evenodd" d="M26.3962 7.62446C27.3364 8.79066 28.0852 10.1177 28.5927 11.5584C29.0822 12.9465 29.3484 14.4413 29.3484 16C29.3484 19.6872 27.8536 23.0234 25.4379 25.4405C23.0223 27.8561 19.6847 29.351 15.9988 29.351C14.4402 29.351 12.9468 29.0848 11.5587 28.5953C10.3647 28.1737 9.24849 27.5886 8.23898 26.8647L9.75183 26.654C9.92932 26.629 10.0527 26.4654 10.0292 26.2879C10.0042 26.1104 9.84057 25.987 9.6631 26.0106L7.37788 26.3295C7.29884 26.3406 7.22396 26.3808 7.16988 26.4474C7.10748 26.525 7.08668 26.6221 7.1047 26.7136L7.45415 28.8962C7.48188 29.0737 7.64828 29.1943 7.82578 29.1652C8.00327 29.1375 8.12391 28.9711 8.09479 28.7936L7.87154 27.3986C8.92957 28.1543 10.0971 28.7672 11.3451 29.2068C12.8025 29.7213 14.3708 30 16.0015 30C19.8676 30 23.3675 28.4331 25.901 25.8996C28.4345 23.3661 30.0014 19.8662 30.0014 16.0001C30.0014 14.3693 29.7213 12.801 29.2083 11.3437C28.6758 9.83364 27.8909 8.44142 26.905 7.21842C26.7927 7.07837 26.5888 7.05618 26.4488 7.1685C26.3059 7.28082 26.2839 7.48578 26.3962 7.62446ZM5.60186 24.3755C4.66172 23.2093 3.91291 21.8823 3.40539 20.4416C2.9159 19.0535 2.64966 17.5587 2.64966 16C2.64966 12.3128 4.14447 8.9766 6.56018 6.5595C8.97576 4.14393 12.3134 2.64898 16.0007 2.64898C17.5579 2.64898 19.0527 2.91522 20.4408 3.40471C21.6348 3.82625 22.751 4.41141 23.7619 5.13526L22.2491 5.34604C22.0716 5.371 21.9482 5.53462 21.9717 5.7121C21.9967 5.88959 22.1603 6.01301 22.3378 5.98943L24.623 5.6705C24.7021 5.6594 24.7769 5.61919 24.831 5.55263C24.8934 5.47498 24.9142 5.37791 24.8962 5.28639L24.5468 3.1038C24.519 2.9263 24.3526 2.80567 24.1751 2.83478C23.9976 2.86252 23.877 3.02892 23.9061 3.20642L24.1294 4.60141C23.0713 3.84568 21.9038 3.23276 20.6558 2.79318C19.1984 2.27873 17.6301 2 15.9994 2C12.1333 2 8.63344 3.56694 6.09991 6.10044C3.56638 8.63394 1.99805 12.1338 1.99805 15.9999C1.99805 17.6307 2.27815 19.199 2.79123 20.6563C3.32371 22.1664 4.10854 23.5586 5.09448 24.7816C5.2068 24.9216 5.41064 24.9438 5.55071 24.8315C5.69215 24.7192 5.71419 24.5142 5.60186 24.3755ZM15.999 27.31C16.1363 27.31 16.2902 27.3058 16.4608 27.2989C16.6286 27.2919 16.7839 27.2822 16.924 27.2711C17.2055 27.2476 17.4592 27.1352 17.6547 26.9591C17.8503 26.783 17.9889 26.5417 18.0402 26.263L18.2052 25.3728C18.226 25.2577 18.2773 25.1579 18.3494 25.0788H18.3481C18.4188 25.0026 18.5158 24.9443 18.6295 24.9138C19.0192 24.8098 19.3978 24.6795 19.7666 24.527C20.1382 24.373 20.4988 24.1942 20.8454 23.9945C20.9467 23.9362 21.0562 23.9085 21.1616 23.9127C21.2684 23.9168 21.3738 23.9529 21.4708 24.0194L22.0962 24.4493C22.3361 24.6143 22.612 24.6864 22.8824 24.667C23.1528 24.649 23.4177 24.5394 23.6312 24.3425C23.806 24.1817 23.9724 24.0208 24.129 23.86C24.2899 23.6936 24.4452 23.523 24.5936 23.3497C24.778 23.1347 24.8778 22.8754 24.8917 22.6106C24.9056 22.3471 24.8335 22.0781 24.6726 21.8452L24.2538 21.2364C24.1873 21.1407 24.1526 21.034 24.1484 20.9272C24.1443 20.8204 24.172 20.7123 24.2302 20.611C24.4299 20.2644 24.6088 19.9038 24.7627 19.5322C24.9153 19.1633 25.0456 18.7834 25.1496 18.3952C25.1801 18.2801 25.2383 18.1844 25.3146 18.1123C25.3923 18.0402 25.4921 17.9902 25.6086 17.9694L26.2756 17.846C26.5571 17.7933 26.8011 17.6519 26.9786 17.4508C27.1561 17.2498 27.2684 16.9904 27.2851 16.7048C27.292 16.598 27.2962 16.4801 27.3003 16.3526C27.3045 16.2097 27.3072 16.0933 27.3072 16.0004C27.3072 15.9088 27.3045 15.791 27.3003 15.6495C27.2962 15.522 27.2906 15.4041 27.2851 15.2973C27.267 15.0117 27.1561 14.7523 26.9786 14.5513C26.8011 14.3502 26.5571 14.2088 26.2756 14.1561L25.6086 14.0327C25.4935 14.0119 25.3923 13.9619 25.3146 13.8898C25.237 13.8177 25.1801 13.722 25.1496 13.607C25.0456 13.2173 24.9152 12.8373 24.7627 12.4699C24.6088 12.0983 24.4299 11.7377 24.2302 11.3911C24.172 11.2898 24.1443 11.1803 24.1484 11.0749C24.1526 10.9681 24.1873 10.8627 24.2538 10.7657L24.6726 10.1569C24.8335 9.92399 24.9056 9.65496 24.8917 9.39153C24.8778 9.12668 24.778 8.86736 24.5936 8.65245C24.4438 8.47773 24.2885 8.30717 24.1276 8.14077L24.1263 8.13939C23.971 7.97853 23.8059 7.81768 23.6312 7.6582C23.4163 7.4613 23.1528 7.35175 22.8824 7.33372C22.612 7.3157 22.3361 7.38642 22.0962 7.55143L21.4708 7.98128C21.3751 8.04784 21.2684 8.08251 21.1616 8.08667C21.0604 8.09083 20.9564 8.06587 20.8579 8.01318L20.844 8.00486C20.5043 7.80934 20.1507 7.63322 19.7819 7.4793L19.7652 7.47237C19.3964 7.31983 19.0164 7.18949 18.6282 7.0855C18.5145 7.055 18.4188 6.99814 18.3467 6.92049C18.2732 6.84145 18.2233 6.74161 18.2025 6.62652L18.0374 5.7349C17.9861 5.45618 17.8475 5.2163 17.652 5.03881C17.4564 4.86271 17.2027 4.749 16.9212 4.72681C16.7811 4.71572 16.6272 4.70601 16.458 4.69908C16.2875 4.69214 16.1336 4.68798 15.9949 4.68798C15.8576 4.68798 15.7023 4.69214 15.5331 4.69908C15.3653 4.70601 15.2114 4.71572 15.07 4.72681C14.7885 4.75038 14.5347 4.8627 14.3392 5.03881L14.3406 5.0402H14.3392C14.1437 5.21769 14.005 5.45759 13.9537 5.7349L13.7887 6.62514C13.7693 6.7333 13.7235 6.82898 13.6584 6.90386L13.6445 6.91911C13.5724 6.99677 13.4767 7.05501 13.363 7.08412C12.9747 7.18812 12.5948 7.31847 12.226 7.47099C11.8543 7.62491 11.4938 7.80379 11.1471 8.00347C11.0459 8.06171 10.9377 8.08805 10.831 8.08528H10.8296C10.7228 8.08112 10.6174 8.04507 10.5203 7.97989L9.89497 7.55004C9.65507 7.38503 9.37914 7.31292 9.10874 7.33233C8.83834 7.35175 8.57349 7.45991 8.35994 7.65681C8.18521 7.81628 8.01882 7.97713 7.86352 8.138C7.70267 8.3044 7.54737 8.47496 7.3976 8.64967C7.21318 8.86461 7.11334 9.1239 7.09947 9.38875C7.08561 9.65222 7.15771 9.92123 7.31857 10.1542L7.73734 10.7629C7.80251 10.8586 7.83857 10.964 7.84273 11.0694V11.0721C7.84689 11.1775 7.81916 11.2871 7.76092 11.3883C7.56124 11.735 7.38236 12.0955 7.22844 12.4671C7.0759 12.836 6.94556 13.2159 6.84158 13.6056C6.81107 13.7207 6.75283 13.8163 6.67656 13.8884C6.59891 13.9606 6.49907 14.0105 6.38259 14.0313L5.71561 14.1547C5.43412 14.206 5.19005 14.3488 5.01256 14.5499C4.83507 14.751 4.72275 15.0103 4.70611 15.2959C4.69917 15.4027 4.69501 15.5206 4.69085 15.6481C4.68669 15.791 4.68392 15.9074 4.68392 15.999C4.68392 16.0905 4.68669 16.2084 4.69085 16.3512C4.69501 16.4788 4.70056 16.5966 4.70611 16.7034C4.72413 16.989 4.83507 17.2484 5.01256 17.4494C5.19005 17.6505 5.43411 17.7919 5.71561 17.8446L6.38259 17.9681C6.49769 17.9889 6.59753 18.0402 6.67656 18.1123V18.1109C6.75422 18.1816 6.81107 18.2787 6.84158 18.3924C6.94558 18.782 7.07592 19.162 7.22844 19.5294C7.38236 19.9011 7.56124 20.2616 7.76092 20.6083C7.81916 20.7095 7.84689 20.8177 7.84273 20.923V20.9244C7.83857 21.0312 7.80252 21.1366 7.73734 21.2337L7.31857 21.8424C7.15772 22.0753 7.08561 22.3444 7.09947 22.6078C7.11334 22.8727 7.21318 23.132 7.3976 23.3469C7.54737 23.5216 7.70267 23.6922 7.86352 23.8586C8.01883 24.0194 8.18523 24.1803 8.35994 24.3397C8.57487 24.5366 8.83835 24.6462 9.10874 24.6642C9.37775 24.6822 9.6551 24.6115 9.89497 24.4465L10.5203 24.0167C10.6174 23.9501 10.7228 23.9154 10.8296 23.9099C10.9363 23.9057 11.0445 23.9335 11.1457 23.9917C11.4924 24.1914 11.8529 24.3703 12.2246 24.5242C12.5934 24.6767 12.9734 24.8071 13.3616 24.911C13.4767 24.9416 13.5724 24.9998 13.6445 25.0761C13.7166 25.1537 13.7665 25.2536 13.7873 25.37L13.9523 26.2603C14.0036 26.539 14.1423 26.7789 14.3378 26.9564C14.5347 27.1338 14.7871 27.2462 15.0686 27.2697C15.21 27.2808 15.364 27.2905 15.5317 27.2975C15.7065 27.3072 15.8618 27.31 15.999 27.31ZM15.5622 26.6513C15.6898 26.6568 15.8354 26.6596 15.999 26.6596C16.1627 26.6596 16.3083 26.6568 16.4359 26.6513C16.5704 26.6457 16.716 26.636 16.8741 26.6235C17.0086 26.6125 17.1292 26.5598 17.2207 26.4766C17.3136 26.3934 17.3788 26.2797 17.4024 26.1465L17.5674 25.2563C17.6118 25.0164 17.7185 24.807 17.8724 24.6392C18.0278 24.4714 18.2288 24.348 18.4618 24.2856C18.8251 24.1886 19.1773 24.0679 19.5184 23.9265C19.8651 23.7823 20.2007 23.6173 20.521 23.4315C20.7304 23.3108 20.9606 23.254 21.188 23.2637C21.4154 23.272 21.64 23.3469 21.8397 23.4842L22.4651 23.914C22.5788 23.9917 22.7105 24.0263 22.8395 24.018C22.9671 24.0097 23.0919 23.957 23.1945 23.8641C23.3498 23.7213 23.5065 23.5701 23.6618 23.4093L23.6632 23.4079C23.8129 23.2526 23.9599 23.0917 24.1014 22.9267C24.1901 22.8241 24.2372 22.7007 24.2442 22.5759C24.2511 22.4511 24.2164 22.3235 24.1388 22.2126L23.72 21.6052C23.5827 21.4056 23.5092 21.1809 23.4995 20.9535V20.9521C23.4912 20.7247 23.5467 20.4959 23.6673 20.2865C23.8518 19.9662 24.0182 19.6306 24.1624 19.284C24.3038 18.9429 24.4231 18.5907 24.5215 18.2273C24.5839 17.9944 24.7073 17.7933 24.8751 17.638C25.0429 17.4827 25.2537 17.3759 25.4922 17.3315L26.1592 17.2081C26.295 17.1832 26.4101 17.1166 26.4933 17.0223C26.5765 16.928 26.6292 16.8046 26.6376 16.6673C26.6445 16.5467 26.65 16.4358 26.6528 16.3345C26.6556 16.2499 26.657 16.139 26.657 16.0003C26.657 15.8631 26.6556 15.7521 26.6528 15.6662C26.65 15.5649 26.6445 15.454 26.6376 15.3334C26.6292 15.1961 26.5765 15.0727 26.4933 14.9784C26.4101 14.8841 26.2937 14.8175 26.1592 14.7926L25.4922 14.6691C25.2537 14.6248 25.0429 14.518 24.8751 14.3627C24.7073 14.2074 24.5839 14.0063 24.5215 13.7733C24.4244 13.41 24.3038 13.0578 24.1624 12.7167C24.0181 12.37 23.8531 12.0358 23.6673 11.7141C23.5453 11.5048 23.4898 11.2746 23.4995 11.0472C23.5079 10.8197 23.5827 10.5951 23.72 10.3954L24.1388 9.78671C24.2151 9.67577 24.2497 9.5482 24.2442 9.42203C24.2372 9.29861 24.1901 9.1752 24.1014 9.0712C23.9599 8.90619 23.8129 8.74395 23.6618 8.58864C23.5065 8.42778 23.3512 8.27664 23.1959 8.13383C23.0932 8.04092 22.9684 7.98823 22.8409 7.97991C22.7119 7.97159 22.5802 8.00487 22.4665 8.08391L21.8411 8.51376C21.6414 8.65104 21.4168 8.72592 21.1894 8.73424C20.9689 8.74256 20.7484 8.69126 20.5432 8.57755C20.5397 8.57547 20.5359 8.57373 20.5321 8.572C20.5283 8.57027 20.5245 8.56853 20.521 8.56645C20.2035 8.38341 19.8734 8.21979 19.5351 8.07835L19.5185 8.0728C19.1773 7.93136 18.8251 7.81072 18.4618 7.71366C18.2275 7.65126 18.0264 7.52785 17.8711 7.36006C17.7172 7.19366 17.6104 6.98289 17.566 6.74299L17.401 5.85137C17.376 5.71964 17.3109 5.60593 17.2193 5.52135C17.1264 5.43814 17.0072 5.38407 16.8727 5.37436C16.716 5.36188 16.569 5.35217 16.4359 5.34663C16.3083 5.34108 16.1627 5.33831 15.9991 5.33831C15.8354 5.33831 15.6898 5.34108 15.5622 5.34663C15.4291 5.35217 15.2821 5.36188 15.1254 5.37436C14.9909 5.38545 14.8703 5.43815 14.7788 5.52135C14.6873 5.60454 14.6221 5.71825 14.5971 5.85137L14.4321 6.74161C14.3905 6.96902 14.2907 7.17284 14.1451 7.33649L14.14 7.34305C14.1361 7.3483 14.1319 7.35383 14.127 7.35868C13.9717 7.52647 13.7707 7.64988 13.5363 7.71228C13.1744 7.80934 12.8208 7.92998 12.481 8.07142C12.1344 8.21563 11.7988 8.38064 11.4785 8.56644H11.4771C11.2691 8.68708 11.0417 8.74255 10.8157 8.73423H10.8101C10.5827 8.72452 10.3581 8.65103 10.1584 8.51375L9.53302 8.0839C9.41931 8.00486 9.28758 7.97158 9.15861 7.9799C9.03104 7.98822 8.90624 8.04092 8.80363 8.13382C8.64832 8.27664 8.49163 8.42918 8.33494 8.59005C8.18518 8.74535 8.03819 8.90621 7.89674 9.07123C7.808 9.17384 7.75946 9.29726 7.75392 9.42206C7.74699 9.54685 7.78165 9.67443 7.85792 9.78673L8.2767 10.3955C8.41259 10.5938 8.48608 10.817 8.49717 11.043V11.0472C8.50549 11.2746 8.45003 11.5048 8.32939 11.7142C8.14357 12.0345 7.97856 12.3701 7.83574 12.7167C7.6943 13.0578 7.57366 13.41 7.4766 13.7734C7.4142 14.0063 7.29079 14.2074 7.12301 14.3627C6.95522 14.518 6.74445 14.6248 6.50593 14.6692L5.83895 14.7926C5.70444 14.8175 5.58797 14.8841 5.50476 14.9784C5.42156 15.0727 5.36887 15.1961 5.36055 15.3334C5.35362 15.454 5.34807 15.565 5.3453 15.6662C5.34252 15.7522 5.34114 15.8617 5.34114 16.0004C5.34114 16.1377 5.34252 16.2486 5.3453 16.3346C5.34807 16.4358 5.35362 16.5467 5.36055 16.6674C5.36887 16.8046 5.42157 16.9281 5.50476 17.0223C5.58796 17.1166 5.70444 17.1832 5.83895 17.2082L6.50593 17.3316C6.74583 17.3759 6.95659 17.4827 7.12301 17.6366V17.638C7.29079 17.7933 7.4142 17.9944 7.4766 18.2274C7.57367 18.5907 7.69431 18.9429 7.83574 19.284C7.97996 19.6307 8.14497 19.9663 8.33077 20.2866C8.45141 20.4946 8.50688 20.722 8.49856 20.948V20.9536C8.49024 21.181 8.41536 21.4056 8.27808 21.6053L7.86069 22.2126C7.78442 22.3236 7.74976 22.4525 7.7553 22.5773C7.76223 22.7007 7.80938 22.8241 7.89813 22.9281C8.03957 23.0945 8.18655 23.2554 8.33632 23.4093C8.49301 23.5702 8.64832 23.7227 8.80501 23.8655C8.90762 23.9585 9.03242 24.0112 9.15999 24.0195C9.28895 24.0278 9.42069 23.9945 9.5344 23.9155L10.1598 23.4856C10.3595 23.3483 10.5841 23.2735 10.8115 23.2651C11.0403 23.2554 11.2691 23.3123 11.4785 23.4329C11.7988 23.6174 12.1344 23.7837 12.481 23.928C12.8221 24.0694 13.1744 24.19 13.5377 24.2871C13.7706 24.3495 13.9717 24.4729 14.127 24.6407C14.2823 24.8085 14.3891 25.0192 14.4335 25.2578L14.5985 26.148C14.6235 26.2797 14.6886 26.3948 14.7801 26.478L14.7788 26.4794H14.7801C14.8717 26.5612 14.9909 26.6139 15.1268 26.6264C15.2821 26.6375 15.4277 26.6471 15.5622 26.6513Z" fill="#4C4F54"/>
<path fill-rule="evenodd" clip-rule="evenodd" d="M15.999 9.85732C14.3032 9.85732 12.7667 10.5451 11.6547 11.6572C10.5426 12.7693 9.85484 14.3043 9.85484 16.0015C9.85484 17.6974 10.5426 19.2339 11.6547 20.3458C12.7668 21.4579 14.3019 22.1457 15.999 22.1457C17.6949 22.1457 19.2314 21.4579 20.3419 20.3458C21.454 19.2337 22.1418 17.6973 22.1418 16.0015C22.1418 14.3057 21.454 12.7692 20.3419 11.6572C19.2312 10.5451 17.6948 9.85732 15.999 9.85732ZM15.999 10.5077C17.5159 10.5077 18.8887 11.122 19.8829 12.1162C20.8772 13.1103 21.4915 14.4833 21.4915 16.0001C21.4915 17.517 20.8772 18.8898 19.8829 19.884C18.8888 20.8782 17.5159 21.4925 15.999 21.4925C14.4822 21.4925 13.1094 20.8783 12.1151 19.884C11.1209 18.8899 10.5066 17.517 10.5066 16.0001C10.5066 14.4833 11.1209 13.1104 12.1151 12.1162C13.1092 11.122 14.4822 10.5077 15.999 10.5077Z" fill="#4C4F54"/>
</svg>
