<svg width="34" height="32" viewBox="0 0 34 32" fill="none" xmlns="http://www.w3.org/2000/svg">
<path d="M27.876 7.18176C27.962 7.18176 28.0441 7.21717 28.1045 7.27747C28.1651 7.33806 28.1992 7.42078 28.1992 7.505V21.9601C28.1992 22.0457 28.1651 22.128 28.1045 22.1886C28.0439 22.2491 27.9616 22.2833 27.876 22.2833H9.93945C9.76119 22.2833 9.61635 22.1383 9.61621 21.9601V7.505C9.61621 7.32665 9.7611 7.18176 9.93945 7.18176H27.876ZM10.2617 21.6368H27.5527V7.82727H10.2617V21.6368Z" fill="#4C4F54" stroke="#4C4F54" stroke-width="0.0571422"/>
<path d="M24.9209 10.0729C25.0993 10.0729 25.2441 10.2178 25.2441 10.3961C25.2439 10.5743 25.0991 10.7184 24.9209 10.7184H12.8926C12.7144 10.7184 12.5696 10.5743 12.5693 10.3961C12.5693 10.2178 12.7142 10.0729 12.8926 10.0729H24.9209Z" fill="#4C4F54" stroke="#4C4F54" stroke-width="0.0571422"/>
<path d="M24.9209 12.9637C25.0993 12.9637 25.2441 13.1086 25.2441 13.287C25.2439 13.4651 25.0991 13.6093 24.9209 13.6093H12.8926C12.7144 13.6093 12.5696 13.4651 12.5693 13.287C12.5693 13.1086 12.7142 12.9637 12.8926 12.9637H24.9209Z" fill="#4C4F54" stroke="#4C4F54" stroke-width="0.0571422"/>
<path d="M24.9209 15.8533C25.0993 15.8533 25.2441 15.9982 25.2441 16.1765C25.2439 16.3547 25.0991 16.4988 24.9209 16.4988H12.8926C12.7144 16.4988 12.5696 16.3547 12.5693 16.1765C12.5693 15.9982 12.7142 15.8533 12.8926 15.8533H24.9209Z" fill="#4C4F54" stroke="#4C4F54" stroke-width="0.0571422"/>
<path d="M24.9209 18.7458C25.0993 18.7458 25.2441 18.8907 25.2441 19.0691C25.2439 19.2472 25.0991 19.3914 24.9209 19.3914H12.8926C12.7144 19.3914 12.5696 19.2472 12.5693 19.0691C12.5693 18.8907 12.7142 18.7458 12.8926 18.7458H24.9209Z" fill="#4C4F54" stroke="#4C4F54" stroke-width="0.0571422"/>
<path d="M28.873 6.30127C30.1954 6.30282 31.2688 7.37343 31.2705 8.6958V21.0171C31.2687 22.3409 30.1954 23.412 28.873 23.4136H27.877C27.7913 23.4136 27.7081 23.3795 27.6475 23.3188C27.587 23.2582 27.5537 23.1759 27.5537 23.0903V6.62451C27.5537 6.44616 27.6986 6.30127 27.877 6.30127H28.873ZM28.1992 22.7671H28.873C29.8388 22.7656 30.6219 21.9843 30.6221 21.0171V8.69678C30.6221 7.73097 29.8389 6.94775 28.873 6.94775H28.1992V22.7671Z" fill="#4C4F54" stroke="#4C4F54" stroke-width="0.0571422"/>
<path d="M9.93945 6.30151C10.025 6.30157 10.1074 6.33476 10.168 6.39526C10.2286 6.45592 10.2627 6.53908 10.2627 6.62476V23.0906C10.2627 23.2689 10.1177 23.4137 9.93945 23.4138H8.94238C7.62006 23.4123 6.54768 22.3412 6.5459 21.0173V8.69604C6.54761 7.37367 7.62002 6.30306 8.94238 6.30151H9.93945ZM8.94238 6.94702C7.97664 6.94702 7.193 7.73027 7.19141 8.69604V21.0164C7.19292 21.9837 7.97652 22.7658 8.94238 22.7673H9.61621V6.94702H8.94238Z" fill="#4C4F54" stroke="#4C4F54" stroke-width="0.0571422"/>
<path d="M6.87012 10.4747C7.04844 10.4748 7.19336 10.6196 7.19336 10.798C7.19312 10.9761 7.0483 11.1202 6.87012 11.1202H6.39941C5.452 11.1217 4.6851 11.8901 4.68359 12.8361V16.88C4.6851 17.8259 5.45348 18.5924 6.39941 18.5939H6.87012C7.04842 18.5939 7.19332 18.7388 7.19336 18.9171C7.19336 19.0954 7.04844 19.2403 6.87012 19.2404H6.39941C5.09539 19.2388 4.03971 18.183 4.03809 16.879V12.8341C4.03974 11.5316 5.09696 10.4763 6.39941 10.4747H6.87012Z" fill="#4C4F54" stroke="#4C4F54" stroke-width="0.0571422"/>
<path d="M4.35742 13.2261C4.53574 13.2261 4.68066 13.371 4.68066 13.5493C4.68042 13.7274 4.53559 13.8715 4.35742 13.8716H1.61719V15.8423H4.35742C4.53574 15.8423 4.68066 15.9872 4.68066 16.1655C4.68061 16.3438 4.53571 16.4887 4.35742 16.4888H1.29492C1.1166 16.4888 0.971732 16.3438 0.97168 16.1655V13.5493C0.97168 13.371 1.11657 13.2261 1.29492 13.2261H4.35742Z" fill="#4C4F54" stroke="#4C4F54" stroke-width="0.0571422"/>
<path d="M31.3438 11.3932C32.2735 11.3948 33.0266 12.148 33.0283 13.0778V16.6364C33.0267 17.5661 32.2736 18.3193 31.3438 18.3209H30.9453C30.7671 18.3209 30.6223 18.1768 30.6221 17.9987C30.6221 17.8187 30.7671 17.6754 30.9453 17.6754H31.3438C31.9169 17.6738 32.3827 17.2093 32.3828 16.6364V13.0778C32.3827 12.5047 31.9168 12.0388 31.3438 12.0387H30.9453C30.7671 12.0387 30.6223 11.8946 30.6221 11.7164C30.6221 11.5381 30.767 11.3932 30.9453 11.3932H31.3438Z" fill="#4C4F54" stroke="#4C4F54" stroke-width="0.0571422"/>
<path d="M19.7539 4.12012C19.8396 4.12012 19.9227 4.15321 19.9834 4.21387C20.044 4.27452 20.0771 4.3577 20.0771 4.44336V7.50586C20.0767 7.59096 20.0437 7.67312 19.9834 7.7334C19.9227 7.79405 19.8396 7.82715 19.7539 7.82715C19.5757 7.82696 19.4316 7.68214 19.4316 7.50391V4.76562H13.5879V7.50391C13.5879 7.68211 13.4438 7.82691 13.2656 7.82715C13.0873 7.82715 12.9424 7.68226 12.9424 7.50391V4.44141C12.9432 4.26375 13.0878 4.12012 13.2656 4.12012H19.7539Z" fill="#4C4F54" stroke="#4C4F54" stroke-width="0.0571422"/>
<path d="M13.7812 21.637C13.9594 21.6372 14.1035 21.782 14.1035 21.9602V24.7219C14.1035 24.8075 14.0702 24.8898 14.0098 24.9504C13.9492 25.011 13.8668 25.045 13.7812 25.0452C13.6029 25.0452 13.458 24.9003 13.458 24.7219V21.9602C13.458 21.7819 13.6029 21.637 13.7812 21.637Z" fill="#4C4F54" stroke="#4C4F54" stroke-width="0.0571422"/>
<path d="M24.3516 21.637C24.5297 21.6372 24.6738 21.782 24.6738 21.9602V24.7219C24.6738 24.8075 24.6406 24.8898 24.5801 24.9504C24.5195 25.011 24.4371 25.045 24.3516 25.0452C24.1732 25.0452 24.0283 24.9003 24.0283 24.7219V21.9602C24.0283 21.7819 24.1732 21.637 24.3516 21.637Z" fill="#4C4F54" stroke="#4C4F54" stroke-width="0.0571422"/>
<path d="M27.3447 24.3995C27.4289 24.3995 27.5117 24.4327 27.5723 24.4933C27.6326 24.5537 27.668 24.6367 27.668 24.7228V27.5568C27.6679 27.6429 27.6325 27.724 27.5723 27.7843C27.5119 27.8446 27.4293 27.88 27.3447 27.88H10.7871C10.6088 27.88 10.4639 27.7351 10.4639 27.5568V24.7228C10.4639 24.5444 10.6088 24.3995 10.7871 24.3995H27.3447ZM11.1113 27.2335H27.0234V25.045H11.1094L11.1113 27.2335Z" fill="#4C4F54" stroke="#4C4F54" stroke-width="0.0571422"/>
</svg>
