<svg width="23" height="20" viewBox="0 0 23 20" fill="none" xmlns="http://www.w3.org/2000/svg">
<path d="M0.470703 5.52338C0.500356 5.29238 0.516129 5.05885 0.561555 4.83162C0.675121 4.26449 0.92875 3.76283 1.33443 3.34802C1.87197 2.79977 2.39059 2.22824 2.96914 1.72594C3.85053 0.961163 4.80701 0.965569 5.65496 1.75867C6.5578 2.60276 7.42279 3.48902 8.26633 4.39227C8.89283 5.06326 8.88652 6.09177 8.27832 6.78228C7.82721 7.29401 7.33068 7.7661 6.84613 8.24762C6.75276 8.34078 6.73446 8.40121 6.79566 8.52521C7.28021 9.50463 7.96538 10.3361 8.70608 11.1261C9.46571 11.9362 10.301 12.66 11.2405 13.2574C11.508 13.4273 11.7944 13.5683 12.0916 13.7332C12.4563 13.365 12.8026 12.9936 13.173 12.6487C13.4424 12.3976 13.7194 12.137 14.0367 11.9588C14.7036 11.5849 15.5175 11.6794 16.0689 12.2087C16.9932 13.0969 17.9042 14.0001 18.7844 14.9317C19.438 15.6241 19.4437 16.6721 18.8115 17.3897C18.2576 18.0185 17.6645 18.6159 17.0613 19.1987C16.6001 19.6444 16.0222 19.881 15.3837 19.9635C15.3396 19.9692 15.2973 19.9874 15.2544 20H14.5112C14.4683 19.988 14.4254 19.9736 14.3818 19.9654C13.9604 19.8886 13.5307 19.8401 13.1175 19.7319C11.6493 19.3479 10.3099 18.6668 9.03731 17.863C5.8455 15.8475 3.38933 13.1529 1.6745 9.79417C1.19184 8.84937 0.814554 7.86052 0.607612 6.81627C0.541366 6.48014 0.515498 6.13646 0.470703 5.79593C0.470703 5.70466 0.470703 5.61402 0.470703 5.52275V5.52338ZM1.60636 5.69208C1.65304 6.01939 1.67954 6.35048 1.74957 6.67275C2.05115 8.0525 2.63412 9.31957 3.37167 10.513C5.33445 13.6904 7.94582 16.1742 11.3181 17.8303C12.3559 18.3402 13.4272 18.7524 14.5957 18.8525C15.2998 18.9129 15.9269 18.7575 16.4348 18.2369C16.8803 17.7806 17.3307 17.3293 17.7749 16.871C18.25 16.3813 18.25 15.9728 17.773 15.485C17.4222 15.1268 17.0645 14.7762 16.7093 14.4225C16.2803 13.9951 15.8563 13.5633 15.4209 13.1422C15.0683 12.8004 14.679 12.7979 14.3061 13.1195C14.2424 13.1749 14.1818 13.2347 14.1219 13.2945C13.6746 13.7402 13.2298 14.1883 12.7793 14.6308C12.4657 14.9386 12.1168 15.0142 11.744 14.8291C11.3597 14.6384 10.978 14.4376 10.6165 14.2091C9.40198 13.4412 8.35466 12.4788 7.41333 11.3993C6.76159 10.6521 6.16727 9.86467 5.74644 8.95953C5.40322 8.22119 5.45054 8.00655 6.04108 7.43753C6.48588 7.00888 6.92941 6.57708 7.35339 6.12702C7.67831 5.78209 7.66696 5.42456 7.36412 5.05948C7.32248 5.00913 7.27894 4.96066 7.23289 4.91471C6.47389 4.15497 5.7149 3.39523 4.95275 2.63864C4.86568 2.5524 4.76726 2.47183 4.66063 2.41329C4.32625 2.23013 3.98492 2.30755 3.63981 2.64619C3.20763 3.06981 2.78996 3.50916 2.35084 3.92522C1.84106 4.40801 1.59815 4.98836 1.60636 5.69145V5.69208Z" fill="#7BC143"/>
<path d="M11.4966 0C11.8544 0.0742746 12.1509 0.123371 12.4399 0.198275C15.0872 0.886889 17.1888 2.3579 18.7484 4.59873C19.6229 5.8551 20.1737 7.24618 20.4544 8.74614C20.5181 9.08793 20.3926 9.34915 20.1194 9.45175C19.8702 9.54491 19.5598 9.45553 19.438 9.22389C19.361 9.07786 19.3263 8.90728 19.2897 8.74363C18.5648 5.46673 16.6424 3.1617 13.5944 1.77944C12.9168 1.47227 12.1957 1.29477 11.4663 1.14874C11.0171 1.05873 10.8291 0.558948 11.1219 0.236671C11.2266 0.121483 11.3944 0.0629445 11.4973 0.000629445L11.4966 0Z" fill="#7BC143"/>
<path d="M11.5137 3.64952C11.7597 3.7131 12.1219 3.77604 12.4619 3.89941C14.6973 4.71014 16.1358 6.25983 16.7547 8.55731C16.7919 8.69516 16.821 8.83553 16.8462 8.97589C16.9017 9.28684 16.7187 9.57324 16.4203 9.64814C16.1364 9.71927 15.8399 9.55498 15.7478 9.25725C15.6468 8.92931 15.5919 8.58438 15.4676 8.26588C14.7225 6.36495 13.344 5.20111 11.3383 4.78253C10.9477 4.70133 10.7414 4.38409 10.8531 4.04104C10.9301 3.805 11.1484 3.64827 11.5137 3.64952Z" fill="#7BC143"/>
</svg>
