<svg width="32" height="32" viewBox="0 0 32 32" fill="none" xmlns="http://www.w3.org/2000/svg">
<path fill-rule="evenodd" clip-rule="evenodd" d="M20.7742 16.5047C22.0017 16.5106 23.1593 15.6465 23.1724 14.4072L23.1735 9.24383C23.1735 8.9621 23.041 8.70761 22.8291 8.52531C22.6279 8.35249 22.3521 8.24477 22.0514 8.24477H9.94909C9.37146 8.2424 8.83286 8.65907 8.82814 9.24383V14.4072C8.82814 14.9907 9.10394 15.5199 9.54783 15.901C9.97988 16.2727 10.5765 16.5047 11.2275 16.5047L20.7742 16.5047ZM22.6811 14.4071V9.2438C22.6717 8.93011 22.3627 8.73589 22.0514 8.73707H16.2466V16.0134H20.7742C21.7318 16.017 22.6645 15.3742 22.6811 14.4071ZM9.31943 9.2438V14.4071C9.33719 15.3766 10.2676 16.0171 11.2264 16.0135H15.7539V8.73716H9.94915C9.63667 8.73598 9.3289 8.93131 9.31943 9.2438Z" fill="#4C4F54"/>
<path fill-rule="evenodd" clip-rule="evenodd" d="M26.6926 29.73L21.9423 22.1306C23.6066 21.3801 24.8022 19.7656 24.8069 17.8373V7.40395C24.7536 5.28746 22.9532 3.8494 20.5254 3.08334V2.16715C20.5254 1.52676 20.001 0.99882 19.3583 1H12.642C12.0004 0.998818 11.4748 1.52676 11.4748 2.16715V3.08216C9.04707 3.848 7.2467 5.28622 7.19336 7.40398V17.8385C7.1981 19.768 8.39481 21.3813 10.0579 22.1319L5.30765 29.7301C4.96911 30.2604 5.40354 31.0156 6.03089 30.9943C6.10751 30.9927 6.19134 30.9946 6.27905 30.9967C6.7198 31.0069 7.25861 31.0195 7.47381 30.5989L7.99584 29.7644H24.003L24.525 30.5989C24.6031 30.7232 24.7073 30.8238 24.8304 30.8913C25.0027 31.0114 25.3519 31.0016 25.6434 30.9935C25.7683 30.99 25.8827 30.9868 25.9679 30.9943C26.5964 31.0168 27.0311 30.2603 26.6926 29.73ZM12.6421 1.49243H19.3584C20.0853 1.49922 20.0584 2.2566 20.0371 2.85698L20.0343 2.93773C17.5284 2.26182 14.471 2.26182 11.9662 2.93655L11.9638 2.86854C11.9417 2.26611 11.9135 1.49698 12.6421 1.49243ZM7.68612 17.8373V7.40395C7.68612 5.28864 9.82034 3.92152 12.5524 3.31546C16.2385 2.46555 23.9738 2.90352 24.3159 7.40395V17.8385C24.3088 20.2355 22.2646 22.1021 19.8748 22.0976L12.1276 22.0964C9.7377 22.1011 7.69308 20.2344 7.68612 17.8373ZM10.2263 26.1991H21.7744L22.6515 27.6018H9.34922L10.2263 26.1991ZM10.5341 25.7067L11.2715 24.5277H20.7305L21.468 25.7067H10.5341ZM11.5793 24.0365L12.4848 22.5888H19.5172L20.4227 24.0365H11.5793ZM7.05873 30.3398C6.99126 30.4463 6.89064 30.502 6.7628 30.502C6.69902 30.4989 6.61769 30.5017 6.52835 30.5047C6.10873 30.5191 5.51237 30.5396 5.72706 29.9823L10.5258 22.3096C10.9685 22.4576 11.4337 22.5487 11.9166 22.5688L7.05873 30.3398ZM8.30399 29.2733L9.04144 28.0943H22.9595L23.6969 29.2733H8.30399ZM25.9684 30.502C25.9014 30.4908 25.7958 30.4964 25.6769 30.5027C25.3923 30.5178 25.0314 30.5369 24.9421 30.3398L20.0831 22.5686C20.5672 22.5485 21.0324 22.4585 21.4739 22.3094L26.2738 29.9833C26.4088 30.2023 26.2288 30.515 25.9684 30.502ZM11.3601 18.0327C9.56209 18.0634 9.56091 20.7398 11.3601 20.7706C13.1594 20.7398 13.1605 18.0646 11.3601 18.0327ZM10.7399 20.0225C9.93139 19.2104 11.1672 17.9735 11.9804 18.7819C12.7889 19.594 11.5531 20.8309 10.7399 20.0225ZM20.6404 18.0327C18.8423 18.0646 18.8411 20.7398 20.6404 20.7706C22.4384 20.7398 22.4396 18.0646 20.6404 18.0327ZM20.0201 20.0225C19.2116 19.2104 20.4474 17.9735 21.2606 18.7819C22.0691 19.594 20.8333 20.8309 20.0201 20.0225Z" fill="#4C4F54"/>
<path fill-rule="evenodd" clip-rule="evenodd" d="M11.4785 7.23137H20.522C20.7233 7.23137 20.9091 7.15206 21.0464 7.02185C21.1968 6.88217 21.2879 6.68331 21.2891 6.46312C21.2858 6.38852 21.2878 6.3026 21.29 6.21119C21.2979 5.87617 21.3076 5.46734 21.063 5.27112C20.9233 5.13263 20.7316 5.04622 20.522 5.04622L11.4785 5.0474C11.0595 5.04622 10.7103 5.39422 10.7115 5.81443C10.676 6.41813 10.6795 7.20889 11.4785 7.23137ZM11.4797 5.53984C11.327 5.53984 11.2039 5.66294 11.2039 5.81446C11.2173 5.88006 11.2116 5.98084 11.2053 6.09215C11.1887 6.38455 11.1681 6.74956 11.4785 6.74013H20.522C20.6735 6.74013 20.7966 6.61584 20.7966 6.46432C20.7837 6.39951 20.7893 6.29993 20.7954 6.18973C20.8118 5.8974 20.8324 5.53038 20.522 5.53984H11.4797Z" fill="#4C4F54"/>
</svg>
