<svg width="33" height="32" viewBox="0 0 33 32" fill="none" xmlns="http://www.w3.org/2000/svg">
<path d="M21.5762 6.10681C21.719 6.10702 21.8408 6.22303 21.8408 6.37146V27.5355C21.8408 27.6833 21.7239 27.8 21.5762 27.8002H6.59863C6.45072 27.8002 6.33398 27.6834 6.33398 27.5355V24.7504H5.92383C5.77605 24.7504 5.6594 24.6334 5.65918 24.4857V21.3148C5.65918 21.1669 5.77591 21.0502 5.92383 21.0502H6.33398V12.8578H5.92383C5.77606 12.8578 5.65941 12.7408 5.65918 12.5931V9.42224C5.65918 9.27433 5.77591 9.15662 5.92383 9.15662H6.33398V6.37146C6.33398 6.22354 6.45072 6.10681 6.59863 6.10681H21.5762ZM6.86328 9.15662H7.26855C7.41647 9.15662 7.5332 9.27433 7.5332 9.42224V12.5931C7.53298 12.7408 7.41633 12.8578 7.26855 12.8578H6.86328V21.0502H7.26855C7.41647 21.0502 7.5332 21.1669 7.5332 21.3148V24.4857C7.53298 24.6334 7.41633 24.7504 7.26855 24.7504H6.86328V27.2709H21.3105V6.63611H6.86328V9.15662ZM6.18848 24.2201H7.00391V21.5795H6.18848V24.2201ZM6.18848 12.3275H6.99902V9.68689H6.18848V12.3275Z" fill="#4C4F54" stroke="#4C4F54" stroke-width="0.1"/>
<path d="M18.9609 13.6686C19.4137 13.6686 19.7842 14.0391 19.7842 14.4879C19.784 14.8498 19.549 15.1492 19.2256 15.2604V18.6461C19.5492 18.7573 19.7842 19.0574 19.7842 19.4156C19.7841 19.8685 19.4138 20.2389 18.9609 20.2389C18.508 20.2389 18.1378 19.8685 18.1377 19.4156C18.1377 19.0531 18.3728 18.7569 18.6963 18.6461V15.2604C18.3728 15.1492 18.1379 14.8499 18.1377 14.4879C18.1377 14.0346 18.5083 13.6686 18.9609 13.6686ZM18.9609 19.1256C18.7991 19.1256 18.667 19.2589 18.667 19.4156C18.6671 19.577 18.7996 19.7096 18.9609 19.7096C19.1266 19.7096 19.2548 19.5813 19.2549 19.4156C19.2549 19.2551 19.1232 19.1257 18.9609 19.1256ZM18.9609 14.1979C18.7991 14.1979 18.667 14.3312 18.667 14.4879C18.6672 14.6491 18.7997 14.7809 18.9609 14.7809C19.1265 14.7808 19.2546 14.6534 19.2549 14.4879C19.2549 14.3273 19.1232 14.1979 18.9609 14.1979Z" fill="#4C4F54" stroke="#4C4F54" stroke-width="0.1"/>
<path d="M18.8447 23.1163C18.9925 23.1165 19.1094 23.2332 19.1094 23.381C19.1094 23.5288 18.9925 23.6454 18.8447 23.6456H9.33203C9.18412 23.6456 9.06739 23.5289 9.06738 23.381C9.06738 23.2331 9.18412 23.1163 9.33203 23.1163H18.8447Z" fill="#4C4F54" stroke="#4C4F54" stroke-width="0.1"/>
<path d="M18.8447 24.8307C18.9925 24.8309 19.1094 24.9475 19.1094 25.0953C19.1094 25.2431 18.9925 25.3598 18.8447 25.36H9.33203C9.18412 25.36 9.06739 25.2432 9.06738 25.0953C9.06738 24.9474 9.18412 24.8307 9.33203 24.8307H18.8447Z" fill="#4C4F54" stroke="#4C4F54" stroke-width="0.1"/>
<path d="M13.5127 10.4333C13.809 10.4334 14.0785 10.5839 14.2295 10.8396L17.208 15.8582C17.3631 16.1184 17.3675 16.4302 17.2168 16.6951C17.0661 16.9598 16.7956 17.115 16.4941 17.115H10.5391C10.2388 17.1148 9.95544 16.9602 9.80859 16.6941C9.66288 16.43 9.66193 16.1189 9.81738 15.8582L12.7998 10.8396C12.9507 10.5841 13.216 10.4333 13.5127 10.4333ZM13.5215 10.9626C13.4102 10.9626 13.3142 11.0178 13.2588 11.1101L10.2773 16.1287C10.2229 16.2236 10.2257 16.3336 10.2783 16.4314C10.3295 16.5265 10.4284 16.5855 10.5391 16.5857H16.5029C16.614 16.5857 16.7091 16.5305 16.7646 16.4343C16.8193 16.3395 16.8165 16.2259 16.7607 16.1287L13.7832 11.1101C13.7279 11.0182 13.6286 10.9627 13.5215 10.9626Z" fill="#4C4F54" stroke="#4C4F54" stroke-width="0.1"/>
<path d="M13.3477 12.6323C13.4065 12.4947 13.5607 12.4382 13.6963 12.4956C13.8345 12.5541 13.8921 12.7132 13.834 12.8452L13.3018 14.0513H14.1367C14.233 14.0513 14.3173 14.1041 14.3643 14.1821C14.4121 14.2619 14.4116 14.3667 14.3643 14.4468L14.3652 14.4478L13.5527 15.8569C13.5047 15.9422 13.4142 15.9897 13.3242 15.9897C13.2773 15.9897 13.2334 15.9785 13.1904 15.9517V15.9507C13.0653 15.8762 13.023 15.7187 13.0967 15.5923L13.6807 14.5806H12.8994C12.809 14.5806 12.7244 14.5327 12.6768 14.4585C12.6299 14.3855 12.6182 14.2901 12.6562 14.2085L13.3477 12.6323Z" fill="#4C4F54" stroke="#4C4F54" stroke-width="0.1"/>
<path d="M29.4775 1.81458C30.8971 1.81458 32.0497 2.9666 32.0498 4.38196C32.0498 5.68841 31.0695 6.76891 29.8115 6.92981L28.002 15.3097C28.2189 15.5279 28.3593 15.832 28.3594 16.1671V17.7355C28.3594 18.4076 27.8127 18.9542 27.1406 18.9542H24.2217V28.9659C24.2217 29.638 23.675 30.1847 23.0029 30.1847H5.16895C4.49686 30.1847 3.9502 29.638 3.9502 28.9659V4.94055C3.95024 4.26851 4.49689 3.7218 5.16895 3.7218H22.9951C23.6669 3.72207 24.2128 4.26867 24.2129 4.94055V14.9484H26.2539L28.0684 6.52649C27.371 6.06794 26.9062 5.2808 26.9062 4.38196C26.9063 2.96675 28.0582 1.81481 29.4775 1.81458ZM5.16895 4.25208C4.78843 4.25208 4.47954 4.56004 4.47949 4.94055V28.9659C4.47949 29.3465 4.7884 29.6554 5.16895 29.6554H23.0029C23.3835 29.6554 23.6924 29.3465 23.6924 28.9659V4.94055C23.6923 4.56004 23.3834 4.25208 23.0029 4.25208H5.16895ZM24.2217 18.4249H27.1406C27.5212 18.4249 27.8301 18.116 27.8301 17.7355V16.1671C27.83 15.7866 27.5211 15.4786 27.1406 15.4786H24.2217V18.4249ZM26.8027 14.9484H27.1406C27.2734 14.9484 27.402 14.9727 27.5234 15.0109L29.2656 6.93469C29.0221 6.91441 28.786 6.86175 28.5645 6.77649L26.8027 14.9484ZM29.4824 2.34387C28.3543 2.34387 27.4395 3.25826 27.4395 4.38196C27.4395 5.51009 28.3543 6.42493 29.4824 6.42493C30.6104 6.42485 31.5244 5.50581 31.5244 4.38196C31.5243 3.2583 30.6105 2.34395 29.4824 2.34387Z" fill="#4C4F54" stroke="#4C4F54" stroke-width="0.1"/>
</svg>
