<svg width="32" height="32" viewBox="0 0 32 32" fill="none" xmlns="http://www.w3.org/2000/svg">
<path fill-rule="evenodd" clip-rule="evenodd" d="M29.9994 10.37C29.9994 11.0006 29.4867 11.5133 28.8562 11.5133L28.1216 11.5137L28.1182 25.1399H28.853C29.4836 25.1399 29.9963 25.6526 29.9963 26.2832V27.0095C29.9963 27.64 29.4836 28.1527 28.853 28.1527H26.4401V28.9149C26.4401 29.513 25.9531 30 25.355 30H23.817C23.2189 30 22.7319 29.513 22.7319 28.9149V28.1527H9.26439V28.9149C9.26439 29.513 8.77736 30 8.17925 30H6.64128C6.04317 30 5.55614 29.513 5.55614 28.9149V28.1527H3.14324C2.51267 28.1527 2 27.64 2 27.0095V26.2832C2 25.6526 2.51267 25.1399 3.14324 25.1399H3.87805V11.515H3.14324C2.51267 11.515 2 11.0023 2 10.3717V9.64545C2 9.01488 2.51267 8.50221 3.14324 8.50221H6.86684V7.29747H6.36445C6.20724 7.29747 6.07907 7.1693 6.07907 7.01209C6.07907 6.85487 6.20723 6.72671 6.36445 6.72671H6.86684V5.82272H6.36445C6.20724 5.82272 6.07907 5.69456 6.07907 5.53734C6.07907 5.38013 6.20723 5.25197 6.36445 5.25197H6.86684V4.34798H6.36445C6.20724 4.34798 6.07907 4.21982 6.07907 4.0626C6.07907 3.90539 6.20723 3.77722 6.36445 3.77722H6.86684V3.36539C6.86684 2.61346 7.4786 2.00171 8.23052 2.00171C8.98244 2.00171 9.5942 2.61346 9.5942 3.36539V3.77722H10.0966C10.2538 3.77722 10.382 3.90539 10.382 4.0626C10.382 4.21982 10.2538 4.34798 10.0966 4.34798H9.5942V5.25197H10.0966C10.2538 5.25197 10.382 5.38013 10.382 5.53734C10.382 5.69456 10.2538 5.82272 10.0966 5.82272H9.5942V6.72671H10.0966C10.2538 6.72671 10.382 6.85487 10.382 7.01209C10.382 7.1693 10.2538 7.29747 10.0966 7.29747H9.5942V8.50221H14.6369V7.29747H14.1345C13.9773 7.29747 13.8491 7.1693 13.8491 7.01209C13.8491 6.85487 13.9773 6.72671 14.1345 6.72671H14.6369V5.82272H14.1345C13.9773 5.82272 13.8491 5.69456 13.8491 5.53734C13.8491 5.38013 13.9773 5.25197 14.1345 5.25197H14.6369V4.34798H14.1345C13.9773 4.34798 13.8491 4.21982 13.8491 4.0626C13.8491 3.90539 13.9773 3.77722 14.1345 3.77722H14.6369V3.36539C14.6369 2.61346 15.2487 2.00171 16.0006 2.00171C16.7525 2.00171 17.3643 2.61346 17.3643 3.36539V3.77722H17.8666C18.0239 3.77722 18.152 3.90539 18.152 4.0626C18.152 4.21982 18.0239 4.34798 17.8666 4.34798H17.3643V5.25197H17.8666C18.0239 5.25197 18.152 5.38013 18.152 5.53734C18.152 5.69456 18.0239 5.82272 17.8666 5.82272H17.3643V6.72671H17.8666C18.0239 6.72671 18.152 6.85487 18.152 7.01209C18.152 7.1693 18.0239 7.29747 17.8666 7.29747H17.3643V8.50221L22.4052 8.5005V7.29576H21.9028C21.7456 7.29576 21.6174 7.16759 21.6174 7.01038C21.6174 6.85317 21.7456 6.725 21.9028 6.725H22.4052V5.82101H21.9028C21.7456 5.82101 21.6174 5.69285 21.6174 5.53564C21.6174 5.37842 21.7456 5.25026 21.9028 5.25026H22.4052V4.34627H21.9028C21.7456 4.34627 21.6174 4.21811 21.6174 4.06089C21.6174 3.90368 21.7456 3.77552 21.9028 3.77552H22.4052V3.36368C22.4052 2.61176 23.017 2 23.7689 2C24.5208 2 25.1326 2.61176 25.1326 3.36368V3.77552H25.635C25.7922 3.77552 25.9203 3.90368 25.9203 4.06089C25.9203 4.21811 25.7922 4.34627 25.635 4.34627H25.1326V5.25026H25.635C25.7922 5.25026 25.9203 5.37842 25.9203 5.53564C25.9203 5.69285 25.7922 5.82101 25.635 5.82101H25.1326V6.725H25.635C25.7922 6.725 25.9203 6.85317 25.9203 7.01038C25.9203 7.16759 25.7922 7.29576 25.635 7.29576H25.1326V8.5005H28.8562C29.4867 8.5005 29.9994 9.01317 29.9994 9.64374V10.37ZM23.7687 2.5707C23.3329 2.5707 22.9775 2.92444 22.9775 3.36191L22.9758 3.77374H24.5599V3.36191C24.5599 2.92614 24.2061 2.5707 23.7687 2.5707ZM24.5616 4.34621H22.9775V5.2502H24.5616V4.34621ZM24.5616 5.82096H22.9775V6.72495H24.5616V5.82096ZM24.5616 7.29742H22.9775V8.50217H24.5616V7.29742ZM16.0001 2.5707C15.5643 2.5707 15.2089 2.92444 15.2089 3.36191L15.2072 3.77374H16.7913V3.36191C16.7913 2.92614 16.4376 2.5707 16.0001 2.5707ZM16.793 4.34621H15.2089V5.2502H16.793V4.34621ZM16.793 5.82096H15.2089V6.72495H16.793V5.82096ZM16.793 7.29742H15.2089V8.50217H16.793V7.29742ZM8.22977 2.5707C7.79401 2.5707 7.43857 2.92444 7.43857 3.36191L7.43686 3.77374H9.02098V3.36191C9.02098 2.92614 8.66724 2.5707 8.22977 2.5707ZM9.02269 4.34621H7.43857V5.2502H9.02269V4.34621ZM9.02269 5.82096H7.43857V6.72495H9.02269V5.82096ZM9.02269 7.29742H7.43857V8.50217H9.02269V7.29742ZM2.57348 9.64365V10.3699C2.57348 10.6844 2.82981 10.9407 3.14424 10.9407H28.8556C29.17 10.9407 29.4264 10.6844 29.4264 10.3699V9.64365C29.4264 9.32922 29.17 9.07289 28.8556 9.07289H3.14424C2.82981 9.07289 2.57348 9.32922 2.57348 9.64365ZM8.18017 29.4238C8.46385 29.4238 8.69454 29.1931 8.69454 28.9094V28.1473H6.12782V28.9094C6.12782 29.1931 6.35853 29.4238 6.6422 29.4238H8.18017ZM25.3561 29.4238C25.6397 29.4238 25.8704 29.1931 25.8704 28.9094L25.8687 28.1473H23.3037V28.9094C23.3037 29.1931 23.5344 29.4238 23.8181 29.4238H25.3561ZM29.4266 27.0058V26.2795C29.4266 25.9651 29.1703 25.7087 28.8558 25.7087H3.14446C2.83003 25.7087 2.5737 25.9651 2.5737 26.2795V27.0058C2.5737 27.3202 2.83003 27.5765 3.14446 27.5765H28.8558C29.1703 27.5765 29.4266 27.3202 29.4266 27.0058ZM4.44969 25.138H27.5502L27.5485 11.513H4.44969V25.138ZM6.20829 13.3228V23.3264C6.20829 23.4853 6.33645 23.6135 6.49367 23.6118C6.65088 23.6118 6.77905 23.4836 6.77905 23.3264V13.3228C6.77905 13.1656 6.65088 13.0374 6.49367 13.0374C6.33646 13.0374 6.20829 13.1656 6.20829 13.3228ZM10.3864 13.3228V23.3264C10.3864 23.4853 10.5146 23.6135 10.6718 23.6118C10.829 23.6118 10.9572 23.4836 10.9572 23.3264V13.3228C10.9572 13.1656 10.829 13.0374 10.6718 13.0374C10.5146 13.0374 10.3864 13.1656 10.3864 13.3228ZM21.041 13.3228V23.3264C21.041 23.4853 21.1691 23.6135 21.3264 23.6118C21.4836 23.6118 21.6117 23.4836 21.6117 23.3264V13.3228C21.6117 13.1656 21.4836 13.0374 21.3264 13.0374C21.1691 13.0374 21.041 13.1656 21.041 13.3228ZM25.2191 13.3228V23.3264C25.2191 23.4853 25.3473 23.6135 25.5045 23.6118C25.6617 23.6118 25.7899 23.4836 25.7899 23.3264V13.3228C25.7899 13.1656 25.6617 13.0374 25.5045 13.0374C25.3473 13.0374 25.2191 13.1656 25.2191 13.3228Z" fill="#4C4F54"/>
<path fill-rule="evenodd" clip-rule="evenodd" d="M12.9274 18.88L14.8225 19.3875L13.4298 22.9642C13.3358 23.2068 13.4247 23.4717 13.6451 23.6102C13.734 23.6665 13.8331 23.6939 13.9305 23.6939C14.074 23.6939 14.2142 23.6358 14.3201 23.5213L19.2075 18.2393C19.2759 18.1658 19.2998 18.0616 19.2724 17.9659C19.2451 17.8702 19.1682 17.795 19.0725 17.7694L17.1774 17.2618L18.5701 13.6851C18.6641 13.4425 18.5752 13.1776 18.3548 13.0392C18.1344 12.9008 17.8558 12.9384 17.6798 13.128L12.7924 18.41C12.724 18.4835 12.7001 18.5878 12.7274 18.6835C12.7548 18.7792 12.8317 18.8543 12.9274 18.88ZM16.5281 17.3504L17.9653 13.661L13.5324 18.4508L15.2789 18.919C15.3575 18.9395 15.4241 18.9942 15.46 19.066C15.4976 19.1378 15.501 19.2232 15.472 19.2984L14.0348 22.9878L18.4677 18.198L16.7212 17.7298C16.6426 17.7093 16.5759 17.6546 16.5401 17.5828C16.5025 17.511 16.499 17.4256 16.5281 17.3504Z" fill="#4C4F54"/>
<path d="M8.29821 23.3264V13.3228C8.29821 13.1656 8.42638 13.0374 8.58359 13.0374C8.7408 13.0374 8.86897 13.1656 8.86897 13.3228V23.3264C8.86897 23.4836 8.7408 23.6118 8.58359 23.6118C8.42637 23.6135 8.29821 23.4853 8.29821 23.3264Z" fill="#4C4F54"/>
<path d="M23.1309 23.3264V13.3228C23.1309 13.1656 23.2591 13.0374 23.4163 13.0374C23.5735 13.0374 23.7017 13.1656 23.7017 13.3228V23.3264C23.7017 23.4836 23.5735 23.6118 23.4163 23.6118C23.2591 23.6135 23.1309 23.4853 23.1309 23.3264Z" fill="#4C4F54"/>
</svg>
