<svg width="23" height="24" viewBox="0 0 23 24" fill="none" xmlns="http://www.w3.org/2000/svg">
<path d="M5.85312 6.16637C6.14602 5.87348 6.62089 5.87348 6.91378 6.16637L11.6868 10.9393L16.4597 6.16637C16.7526 5.87348 17.2275 5.87348 17.5204 6.16637C17.8133 6.45926 17.8133 6.93414 17.5204 7.22703L12.7474 12L17.5204 16.773C17.8133 17.0659 17.8133 17.5407 17.5204 17.8336C17.2275 18.1265 16.7526 18.1265 16.4597 17.8336L11.6868 13.0607L6.91378 17.8336C6.62089 18.1265 6.14602 18.1265 5.85312 17.8336C5.56023 17.5407 5.56023 17.0659 5.85312 16.773L10.6261 12L5.85312 7.22703C5.56023 6.93414 5.56023 6.45926 5.85312 6.16637Z" fill="#969696" stroke="#969696" stroke-width="0.5"/>
</svg>
