<svg width="21" height="20" viewBox="0 0 21 20" fill="none" xmlns="http://www.w3.org/2000/svg">
<path d="M17.1377 0.203125C17.3634 0.203276 17.541 0.381896 17.541 0.606445V5.05176H18.7363L18.7354 5.05078H18.9551C19.8473 5.05078 20.5703 5.77574 20.5703 6.66699V16.3623C20.5703 17.2545 19.8463 17.9775 18.9551 17.9775H7.23242C7.18013 18.9866 6.34078 19.7958 5.31934 19.7959C4.29784 19.7959 3.45855 18.9866 3.40625 17.9775H1.98633C1.09415 17.9775 0.371094 17.2536 0.371094 16.3623V6.66602C0.371094 5.77384 1.09507 5.05078 1.98633 5.05078H3.40625C3.45857 4.04174 4.29785 3.23242 5.31934 3.23242C5.82475 3.23246 6.31701 3.43732 6.6748 3.79492L6.80371 3.93555C7.06516 4.25067 7.21244 4.64038 7.2334 5.05078H8.85547V0.606445C8.85547 0.380722 9.03433 0.203335 9.25879 0.203125H17.1377ZM5.31934 4.04004C4.70809 4.04004 4.20703 4.5411 4.20703 5.15234L4.20801 17.8789C4.20801 18.49 4.7083 18.991 5.31934 18.9912C5.9244 18.9912 6.42069 18.5003 6.43066 17.8975V5.15234C6.43066 4.85065 6.3198 4.57288 6.10938 4.3623C5.90475 4.15767 5.61495 4.04014 5.31934 4.04004ZM7.2373 17.1729H18.9551C19.4035 17.1728 19.7646 16.8109 19.7646 16.3633V16.1221L19.7656 16.123V6.66797C19.7656 6.21962 19.4037 5.85848 18.9561 5.8584H7.2373V17.1729ZM1.98633 5.85742C1.53805 5.85756 1.17676 6.21941 1.17676 6.66699V16.3633C1.17676 16.8047 1.52688 17.1608 1.96484 17.1719H3.40234V5.85742H1.98633ZM9.56152 13.5361C9.9499 13.5361 10.2675 13.8538 10.2676 14.2422C10.2676 14.6306 9.94996 14.9482 9.56152 14.9482C9.17307 14.9482 8.85547 14.6306 8.85547 14.2422C8.85557 13.8538 9.17313 13.5361 9.56152 13.5361ZM13.1982 13.5361C13.5866 13.5362 13.9042 13.8539 13.9043 14.2422C13.9043 14.6306 13.5866 14.9482 13.1982 14.9482C12.8098 14.9482 12.4922 14.6306 12.4922 14.2422C12.4923 13.8538 12.8099 13.5361 13.1982 13.5361ZM16.835 13.5361C17.2232 13.5363 17.5409 13.8539 17.541 14.2422C17.541 14.6306 17.2233 14.9481 16.835 14.9482C16.4465 14.9482 16.1289 14.6306 16.1289 14.2422C16.129 13.8538 16.4466 13.5361 16.835 13.5361ZM9.56152 10.5068C9.94996 10.5069 10.2676 10.8244 10.2676 11.2129C10.2674 11.6012 9.94984 11.9189 9.56152 11.9189C9.17319 11.9189 8.85567 11.6012 8.85547 11.2129C8.85547 10.8244 9.17307 10.5068 9.56152 10.5068ZM13.1982 10.5068C13.5866 10.5069 13.9043 10.8245 13.9043 11.2129C13.9041 11.6011 13.5865 11.9189 13.1982 11.9189C12.8099 11.9189 12.4924 11.6012 12.4922 11.2129C12.4922 10.8244 12.8098 10.5068 13.1982 10.5068ZM16.835 10.5068C17.2233 10.507 17.541 10.8245 17.541 11.2129C17.5408 11.6011 17.2232 11.9188 16.835 11.9189C16.4466 11.9189 16.1291 11.6012 16.1289 11.2129C16.1289 10.8244 16.4465 10.5068 16.835 10.5068ZM17.1377 8.08203C17.3621 8.08226 17.541 8.25964 17.541 8.48535C17.541 8.70982 17.3633 8.88844 17.1377 8.88867H9.25879C9.03428 8.88854 8.8555 8.7111 8.85547 8.48535C8.85547 8.26079 9.03305 8.08216 9.25879 8.08203H17.1377ZM9.66113 5.05176H16.7344V1.00977H9.66113V5.05176Z" fill="#7BC143" stroke="#7BC143" stroke-width="0.2"/>
</svg>
