<svg width="26" height="14" viewBox="0 0 26 14" fill="none" xmlns="http://www.w3.org/2000/svg">
<path d="M12.9782 9.59316C14.4095 9.59316 15.5697 8.4329 15.5697 7.00166C15.5697 5.57041 14.4095 4.41016 12.9782 4.41016C11.547 4.41016 10.3867 5.57041 10.3867 7.00166C10.3867 8.4329 11.547 9.59316 12.9782 9.59316Z" fill="#4C4F54"/>
<path d="M25.5595 6.06C23.6102 4.15117 18.7121 0 12.9778 0C7.24346 0 2.34537 4.15117 0.396107 6.06C-0.132036 6.57717 -0.132036 7.42251 0.396107 7.94C2.34537 9.84883 7.24346 14 12.9778 14C18.7121 14 23.6102 9.84883 25.5595 7.93969C26.0876 7.42283 26.0876 6.57717 25.5595 6.06ZM12.9778 11.9918C10.2208 11.9918 7.986 9.757 7.986 7C7.986 4.243 10.2208 2.00819 12.9778 2.00819C15.7348 2.00819 17.9696 4.243 17.9696 7C17.9696 9.757 15.7348 11.9918 12.9778 11.9918Z" fill="#4C4F54"/>
</svg>
