<svg width="393" height="122" viewBox="0 0 393 122" fill="none" xmlns="http://www.w3.org/2000/svg">
<path d="M-1126.69 61C-1058.2 -11.8767 -989.706 -11.8767 -921.213 61C-849.372 141 -780.879 141 -715.733 61C-647.24 -19 -578.747 -19 -510.254 61C-455.835 108.123 -387.342 108.123 -304.775 61C-236.281 13.8767 -167.788 13.8767 -99.2951 61C-18.2582 125.384 50.235 125.384 106.184 61C174.677 -3.38356 243.171 -3.38356 311.664 61C373.599 113.055 442.092 113.055 517.143 61C585.636 8.94521 654.13 8.94521 722.623 61C782.644 100.178 851.137 100.178 928.102 61C996.595 21.8219 1065.09 21.8219 1133.58 61C1191.78 88.3973 1260.27 88.3973 1339.06 61C1407.55 33.6027 1476.05 33.6027 1544.54 61C1634.95 105.932 1703.44 105.932 1750.02 61C1818.51 16.0685 1887.01 16.0685 1955.5 61" stroke="#005CAB" stroke-width="0.794702"/>
</svg>
