<svg width="393" height="122" viewBox="0 0 393 122" fill="none" xmlns="http://www.w3.org/2000/svg">
<path d="M-1163 61C-1094.51 -11.8767 -1026.01 -11.8767 -957.521 61C-885.68 141 -817.187 141 -752.041 61C-683.548 -19 -615.055 -19 -546.562 61C-492.142 108.123 -423.649 108.123 -341.082 61C-272.589 13.8767 -204.096 13.8767 -135.603 61C-54.5658 125.384 13.9274 125.384 69.8767 61C138.37 -3.38356 206.863 -3.38356 275.356 61C337.291 113.055 405.785 113.055 480.836 61C549.329 8.94521 617.822 8.94521 686.315 61C746.337 100.178 814.83 100.178 891.795 61C960.288 21.8219 1028.78 21.8219 1097.27 61C1155.47 88.3973 1223.96 88.3973 1302.75 61C1371.25 33.6027 1439.74 33.6027 1508.23 61C1598.64 105.932 1667.14 105.932 1713.71 61C1782.21 16.0685 1850.7 16.0685 1919.19 61" stroke="#7BC143" stroke-width="0.794702"/>
</svg>
