<svg width="1440" height="122" viewBox="0 0 1440 122" fill="none" xmlns="http://www.w3.org/2000/svg">
<path d="M-616.692 61C-548.199 -11.8767 -479.706 -11.8767 -411.213 61C-339.372 141 -270.879 141 -205.733 61C-137.24 -19 -68.7472 -19 -0.254018 61C54.1652 108.123 122.658 108.123 205.225 61C273.719 13.8767 342.212 13.8767 410.705 61C491.742 125.384 560.235 125.384 616.184 61C684.677 -3.38356 753.171 -3.38356 821.664 61C883.599 113.055 952.092 113.055 1027.14 61C1095.64 8.94521 1164.13 8.94521 1232.62 61C1292.64 100.178 1361.14 100.178 1438.1 61C1506.6 21.8219 1575.09 21.8219 1643.58 61C1701.78 88.3973 1770.27 88.3973 1849.06 61C1917.55 33.6027 1986.05 33.6027 2054.54 61C2144.95 105.932 2213.44 105.932 2260.02 61C2328.51 16.0685 2397.01 16.0685 2465.5 61" stroke="#005CAB" stroke-width="0.794702"/>
</svg>
