<svg width="1440" height="122" viewBox="0 0 1440 122" fill="none" xmlns="http://www.w3.org/2000/svg">
<path d="M-653 61C-584.507 -11.8767 -516.014 -11.8767 -447.521 61C-375.68 141 -307.187 141 -242.041 61C-173.548 -19 -105.055 -19 -36.5616 61C17.8576 108.123 86.3507 108.123 168.918 61C237.411 13.8767 305.904 13.8767 374.397 61C455.434 125.384 523.927 125.384 579.877 61C648.37 -3.38356 716.863 -3.38356 785.356 61C847.291 113.055 915.785 113.055 990.836 61C1059.33 8.94521 1127.82 8.94521 1196.32 61C1256.34 100.178 1324.83 100.178 1401.79 61C1470.29 21.8219 1538.78 21.8219 1607.27 61C1665.47 88.3973 1733.96 88.3973 1812.75 61C1881.25 33.6027 1949.74 33.6027 2018.23 61C2108.64 105.932 2177.14 105.932 2223.71 61C2292.21 16.0685 2360.7 16.0685 2429.19 61" stroke="#7BC143" stroke-width="0.794702"/>
</svg>
