<svg width="32" height="32" viewBox="0 0 32 32" fill="none" xmlns="http://www.w3.org/2000/svg">
<path fill-rule="evenodd" clip-rule="evenodd" d="M29.1307 25.7224H24.5856L24.5829 25.7224C24.8215 25.4055 24.9629 25.0116 24.9629 24.5849V18.1545C28.1586 17.3161 30.5183 14.4059 30.5183 10.9491C30.5183 6.83816 27.1815 3.5 23.0692 3.5C18.9582 3.5 15.6201 6.83816 15.6201 10.9491C15.6201 12.2799 15.9698 13.5298 16.5822 14.6118H14.8601V12.9705C14.8601 12.2028 14.2389 11.5816 13.4725 11.5816H8.42227C7.6559 11.5816 7.03345 12.2028 7.03345 12.9705V14.6118H4.38209C3.61572 14.6118 2.99453 15.233 2.99453 16.0006V18.5257C2.99453 18.878 3.20033 19.1823 3.49956 19.3237V25.0911C3.49956 25.3183 3.55385 25.533 3.65106 25.7224H2.86953C2.1019 25.7224 1.48071 26.3435 1.48071 27.1112V28.1212C1.48071 28.3308 1.65117 28.5 1.85949 28.5H30.1407C30.3503 28.5 30.5195 28.3308 30.5195 28.1212V27.1112C30.5195 26.3435 29.8983 25.7224 29.1307 25.7224ZM2.86953 26.4799H29.1281C29.4778 26.4799 29.7606 26.7627 29.7606 27.1112V27.7425H2.237V27.1112C2.237 26.7627 2.51981 26.4799 2.86953 26.4799ZM21.5578 25.7224H18.2474L18.2461 25.7223C18.3433 25.533 18.3976 25.3183 18.3976 25.0911V19.3236C18.6968 19.1822 18.9039 18.8779 18.9039 18.5257V17.1217C19.5894 17.5863 20.3571 17.9386 21.1777 18.1545V24.5848C21.1777 25.0116 21.3192 25.4055 21.5578 25.7224ZM4.38344 15.3695H17.0759C17.3903 15.795 17.7488 16.1864 18.1453 16.5361V18.5259C18.1453 18.5953 18.0885 18.6521 18.019 18.6521H3.87842C3.80898 18.6521 3.75217 18.5953 3.75217 18.5259V16.0008C3.75217 15.6523 4.03498 15.3695 4.38344 15.3695ZM4.25835 19.4097H9.05614H9.05722V20.546C9.05722 20.7808 9.15065 21.0055 9.31605 21.1709C9.48143 21.3363 9.70618 21.4297 9.94101 21.4297H11.9611C12.1959 21.4297 12.4207 21.3363 12.5861 21.1709C12.7527 21.0055 12.8449 20.7808 12.8449 20.546V19.4097H17.6427V25.0911C17.6427 25.4396 17.3599 25.7224 17.0114 25.7224H4.89088C4.54116 25.7224 4.25835 25.4396 4.25835 25.0911V19.4097ZM14.1064 12.9706V14.6119H7.79234V12.9706C7.79234 12.6221 8.07515 12.3393 8.42487 12.3393H13.4751C13.8236 12.3393 14.1064 12.6221 14.1064 12.9706ZM23.0718 25.7211C23.0832 25.7211 23.0933 25.7211 23.1046 25.7224H23.0718V25.7211ZM24.2081 24.5848C24.2081 25.2123 23.6993 25.7211 23.0718 25.7211C22.4443 25.7211 21.9368 25.2123 21.9368 24.5848V18.3125C22.3054 18.3693 22.6855 18.3984 23.0718 18.3984C23.4582 18.3984 23.8369 18.3693 24.2081 18.3125V24.5848ZM9.81369 19.4097H12.0863L12.0863 20.546C12.0863 20.5788 12.0737 20.6116 12.0497 20.6343C12.0257 20.6583 11.9929 20.6722 11.96 20.6722H9.93995C9.90586 20.6722 9.87303 20.6583 9.84904 20.6343C9.82632 20.6116 9.81369 20.5788 9.81369 20.546V19.4097ZM16.3802 10.9492C16.3802 7.25627 19.3786 4.25771 23.0717 4.25771C26.7659 4.25771 29.7632 7.25627 29.7632 10.9492C29.7632 14.6422 26.766 17.6407 23.0717 17.6407C19.3787 17.6407 16.3802 14.6422 16.3802 10.9492Z" fill="#005CAB"/>
<path fill-rule="evenodd" clip-rule="evenodd" d="M23.0717 5.52025C26.069 5.52025 28.5007 7.95318 28.5007 10.9493C28.5007 13.9454 26.069 16.3783 23.0717 16.3783C20.0756 16.3783 17.6426 13.9454 17.6426 10.9493C17.6426 7.95318 20.0756 5.52025 23.0717 5.52025ZM18.4016 10.9492C18.4016 8.37113 20.4935 6.2778 23.0717 6.2778C25.6498 6.2778 27.7431 8.37113 27.7431 10.9492C27.7431 13.5273 25.6511 15.6206 23.0717 15.6206C20.4949 15.6206 18.4016 13.5273 18.4016 10.9492Z" fill="#7BC143"/>
</svg>
