<svg width="32" height="32" viewBox="0 0 32 32" fill="none" xmlns="http://www.w3.org/2000/svg">
<path fill-rule="evenodd" clip-rule="evenodd" d="M4.62771 23.0868H8.24959C8.43357 23.0868 8.58237 23.2368 8.58237 23.4208V27.6672C8.58237 27.8512 8.43355 28 8.24958 28H4.6277C4.53982 28 4.45428 27.9648 4.39218 27.9027C4.33007 27.8394 4.29492 27.7551 4.29492 27.6672V23.4208C4.29492 23.2368 4.44374 23.0868 4.62771 23.0868ZM4.96041 27.3332H7.91563V23.7533H4.96041V27.3332ZM11.0021 20.954H14.6227C14.8079 20.954 14.9567 21.1028 14.9567 21.2868V27.6672C14.9567 27.8512 14.8079 28 14.6227 28H11.0021C10.913 28 10.8286 27.9648 10.7665 27.9027C10.7032 27.8395 10.6681 27.7551 10.6681 27.6672V21.2868C10.6681 21.1028 10.8181 20.954 11.0021 20.954ZM11.3347 27.3332H14.2899V21.6208H11.3347V27.3332ZM17.3764 16.7532H20.9971C21.0861 16.7532 21.1705 16.7883 21.2326 16.8504C21.2959 16.9137 21.331 16.9981 21.331 17.086V27.6669C21.331 27.8509 21.181 27.9997 20.9971 27.9997H17.3764C17.1912 27.9997 17.0424 27.8509 17.0424 27.6669V17.086C17.0424 16.902 17.1912 16.7532 17.3764 16.7532ZM17.709 27.3332H20.6643V17.42H17.709V27.3332ZM23.7495 13.784H27.3714C27.4592 13.784 27.5448 13.8192 27.6069 13.8813C27.669 13.9434 27.7042 14.0289 27.7042 14.1168V27.6672C27.7042 27.8512 27.5553 28 27.3714 28H23.7495C23.6616 28 23.5761 27.9648 23.514 27.9027C23.4519 27.8395 23.4167 27.7551 23.4167 27.6672V14.1168C23.4167 13.9328 23.5655 13.784 23.7495 13.784ZM24.0834 27.3332H27.0386V14.4497H24.0834V27.3332ZM9.86633 19.7742C10.0503 19.7742 10.1991 19.6253 10.1991 19.4414L10.1991 19.4425C10.1991 19.3535 10.164 19.2691 10.1019 19.2058C10.0397 19.1437 9.95421 19.1074 9.86633 19.1074H4.62729C4.44331 19.1074 4.2945 19.2574 4.2945 19.4414C4.2945 19.6253 4.44332 19.7742 4.62729 19.7742H9.86633ZM4.3917 21.1346C4.32842 21.1979 4.29444 21.2822 4.29444 21.3701C4.29444 21.5541 4.44326 21.7041 4.62722 21.7041H7.97373C8.15887 21.7041 8.30769 21.5541 8.30769 21.3701C8.30769 21.1861 8.15887 21.0373 7.97373 21.0373H4.62722C4.53934 21.0373 4.4538 21.0725 4.3917 21.1346Z" fill="#005CAB"/>
<path fill-rule="evenodd" clip-rule="evenodd" d="M24.545 9.61139L25.5235 10.5898H25.5223C25.6067 10.6742 25.7297 10.707 25.8445 10.6765C25.9605 10.6449 26.0496 10.5547 26.0801 10.4398L27.6936 4.42176C27.7241 4.30693 27.6912 4.18507 27.6069 4.1007C27.5225 4.01634 27.4006 3.98353 27.2846 4.01399L21.2654 5.62635C21.1505 5.65681 21.0603 5.74704 21.0298 5.86188C20.9982 5.97671 21.031 6.09975 21.1154 6.18411L22.4864 7.55508C20.4733 9.55647 18.3125 11.4043 16.0204 13.08C15.3092 11.2989 13.8011 9.95486 11.9498 9.45331C13.0618 8.75023 13.5762 7.39684 13.2106 6.1338C12.845 4.87064 11.6873 4 10.3726 4C9.0567 4 7.90015 4.87061 7.53457 6.1338C7.16896 7.39696 7.68221 8.75038 8.79422 9.45331C7.50409 9.80134 6.36512 10.5653 5.55181 11.6258C4.73861 12.6874 4.29684 13.9857 4.2945 15.3226V16.2366C4.2945 16.3515 4.35309 16.4581 4.45034 16.519C6.22205 17.6381 8.27621 18.2322 10.3724 18.2322C12.4687 18.2322 14.5217 17.6381 16.2945 16.519C16.3918 16.4581 16.4503 16.3515 16.4503 16.2366V15.5594C19.3692 13.8966 22.0856 11.9011 24.545 9.61139ZM23.1952 7.31825C23.3241 7.44832 23.3241 7.65806 23.1952 7.78812L23.1943 7.78925C21.0405 9.95716 18.7157 11.9491 16.2409 13.7431C16.3346 14.0912 16.3967 14.445 16.4272 14.8036C19.2781 13.1492 21.9286 11.1712 24.3237 8.90612C24.4549 8.78191 24.6612 8.78542 24.7889 8.91315L25.5857 9.71113L26.8992 4.80597L21.9953 6.12069L23.1952 7.31825ZM9.49598 4.8423C8.64177 5.19734 8.084 6.03166 8.084 6.95618C8.08517 8.21934 9.10928 9.24344 10.3713 9.24462C11.297 9.24462 12.1313 8.68688 12.4852 7.83264C12.8402 6.97724 12.6434 5.99296 11.9895 5.33911C11.3357 4.68411 10.3514 4.48842 9.49598 4.8423ZM4.96008 15.3225V16.0514C6.59344 17.0356 8.46499 17.556 10.3715 17.556C12.279 17.556 14.1492 17.0357 15.7827 16.0515V15.3226C15.7827 14.7836 15.703 14.2492 15.5448 13.7348C15.5378 13.7184 15.5331 13.702 15.5296 13.6845C15.0035 12.0299 13.7157 10.7281 12.067 10.1844C10.4183 9.6395 8.60782 9.92073 7.20052 10.9378C5.79437 11.9547 4.96008 13.586 4.96008 15.3225Z" fill="#7BC143"/>
</svg>
