<svg width="32" height="32" viewBox="0 0 32 32" fill="none" xmlns="http://www.w3.org/2000/svg">
<path d="M13.2114 4.01843C18.2645 4.01843 22.3763 8.12946 22.3765 13.1825V13.1874C21.8749 25.337 4.55124 25.3407 4.04736 13.1874V13.1825C4.04757 8.12958 8.15851 4.01864 13.2114 4.01843ZM18.3022 10.2333C18.1141 9.84948 17.6538 9.65988 17.2212 9.7616L17.1353 9.78601C16.978 9.83699 16.7413 9.8902 16.4878 9.953C16.2309 10.0167 15.9497 10.0916 15.6899 10.1874C15.4289 10.2837 15.1968 10.3989 15.0347 10.5389C14.8762 10.6759 14.7915 10.8305 14.7993 11.0135C14.8128 11.1 14.861 11.1534 14.9253 11.1903C14.9939 11.2297 15.0779 11.2477 15.145 11.2548C15.9536 11.3402 16.4397 11.2551 16.7192 11.1542C16.8588 11.1038 16.9473 11.0493 16.9995 11.0096C17.0257 10.9898 17.0431 10.9733 17.0532 10.9628C17.0582 10.9576 17.0622 10.9541 17.064 10.952C17.0653 10.9503 17.0656 10.9495 17.0659 10.9491C17.1944 10.7089 17.4621 10.6076 17.7114 10.6757L17.8188 10.7167L17.8247 10.7196L17.8306 10.7235C18.0398 10.867 18.1463 11.0595 18.1343 11.2714C18.1226 11.4774 17.9999 11.679 17.8032 11.8505C17.4159 12.1878 16.7084 12.4408 15.7749 12.4364C15.5945 12.6809 15.3768 12.8736 15.0659 13.0038C13.7705 13.8469 13.6415 14.7219 13.6392 14.7372C13.5951 15.0473 13.3043 15.2685 12.9976 15.2284H12.9927V15.2274C12.7795 15.1894 12.6284 15.0797 12.5542 14.9071C12.4829 14.7413 12.4898 14.5345 12.5503 14.3134C12.6234 14.0464 12.7794 13.7393 13.0044 13.4169C12.551 13.6563 11.9892 13.6948 11.522 13.4637C11.0728 14.2288 10.0193 14.4688 9.2749 14.0145C9.36479 15.1539 9.72726 16.8343 10.9106 18.7362H10.9116C10.965 18.8224 10.9929 18.922 10.9956 19.0243L10.9966 19.0253C10.9971 19.0289 10.9975 19.0323 10.9976 19.0331V19.1219C10.9977 19.1746 10.9985 19.2499 10.9985 19.3397C10.9985 19.5198 10.9979 19.7601 10.9976 19.9999C10.9973 20.2396 10.9969 20.4795 10.9966 20.6591V20.8807C12.5913 21.3603 14.4739 21.2813 16.0122 20.6835L16.2368 17.5634C16.3001 16.6771 16.6572 15.8179 17.2417 15.1434C18.0474 14.2147 18.5584 13.5299 18.7905 13.2059C18.841 13.1337 18.8721 13.0571 18.8843 12.9813L18.8901 12.9061C18.8749 11.6343 18.5616 10.7499 18.3032 10.2343L18.3022 10.2333ZM13.2104 5.16687C8.79134 5.16756 5.19596 8.76356 5.1958 13.1825C5.1958 16.3997 7.10519 19.1769 9.84814 20.451V19.2001C7.85905 15.9154 8.04137 13.245 8.15381 12.4618C8.0623 12.2876 7.9511 12.1026 7.83545 11.9052C7.71513 11.6997 7.59273 11.482 7.49463 11.2587C7.29955 10.8144 7.19443 10.3294 7.40869 9.84949C7.65751 9.15937 8.37799 8.69413 9.10205 8.7323C9.1076 8.07341 9.5085 7.52055 10.0405 7.21863C10.574 6.91604 11.2535 6.85766 11.8208 7.20398C12.053 6.80716 12.453 6.52888 12.8921 6.40906C13.332 6.28904 13.818 6.32622 14.2212 6.56726C14.4526 6.1445 14.8068 5.92971 15.1958 5.8739C15.5577 5.82205 15.9427 5.9071 16.2788 6.0741L16.4194 6.15027L16.4233 6.15222V6.1532C16.8777 6.4476 17.2039 6.92975 17.4341 7.40906C17.6505 7.85972 17.7853 8.31712 17.8638 8.63464C18.4823 8.75429 19.0373 9.13901 19.3286 9.72156C19.7849 10.6342 20.0222 11.7028 20.0366 12.8944C20.0399 13.2001 19.9569 13.4984 19.7954 13.7645L19.7222 13.8768C19.4983 14.1902 19.1481 14.6557 18.6528 15.2548L18.1089 15.8973C17.6852 16.3853 17.4263 17.0082 17.3804 17.6473L17.2007 20.1288C24.1927 16.0755 21.4858 5.26455 13.2104 5.16687ZM9.20557 9.89539C9.0632 9.85718 8.9063 9.87928 8.77002 9.9491C8.63355 10.0191 8.52366 10.134 8.47119 10.2723C8.41979 10.4078 8.42046 10.5735 8.51709 10.7567L9.68213 12.8436L9.68311 12.8456C9.77546 13.0226 9.96416 13.1073 10.1548 13.0956C10.3452 13.0838 10.5212 12.9772 10.5903 12.7899L10.5913 12.787C10.6448 12.6562 10.6417 12.5132 10.5815 12.3846V12.3837L9.62061 10.3212L9.61963 10.3202L9.58154 10.2372L9.57275 10.2196C9.48058 10.0318 9.34565 9.93312 9.20557 9.89539ZM11.5796 8.57507C11.4636 8.22002 11.0316 8.02229 10.687 8.16687L10.6792 8.14734L10.6841 8.16785C10.3493 8.29099 10.1701 8.6939 10.2876 9.02429L10.3159 9.08972L10.3169 9.09167L11.7515 12.1727H11.7524C11.8808 12.4525 12.1585 12.5158 12.394 12.4276C12.6292 12.3395 12.796 12.1104 12.7065 11.8143L12.6812 11.7313C12.6765 11.7173 12.6712 11.7013 12.6655 11.6844C12.6382 11.6038 12.6002 11.4952 12.562 11.3856C12.487 11.1704 12.4073 10.9434 12.4028 10.9286V10.9276L11.5796 8.57703V8.57507ZM13.6567 7.55652C13.5072 7.48699 13.3309 7.48124 13.1685 7.53113C13.0061 7.58104 12.8627 7.68434 12.7769 7.82605C12.6927 7.96512 12.6597 8.14743 12.7251 8.36609L13.271 9.92664C13.4049 10.3076 13.536 10.6885 13.644 11.0038C13.6429 10.9534 13.6438 10.9023 13.6479 10.8514C13.6875 10.3688 13.9651 9.88554 14.4507 9.53601L13.9995 7.97937C13.9325 7.75844 13.8038 7.62501 13.6567 7.55652ZM15.2925 7.03992C15.2724 7.04625 15.2472 7.06632 15.2231 7.12292C15.198 7.18231 15.181 7.26783 15.1743 7.37488C15.1611 7.58784 15.1892 7.85885 15.2358 8.11023L15.5073 9.05066C15.9295 8.91038 16.3355 8.8029 16.6929 8.71375C16.5822 8.36107 16.44 7.91909 16.2271 7.57214C16.1107 7.38262 15.9774 7.22849 15.8237 7.13269C15.6737 7.03918 15.5003 6.99866 15.2925 7.03992Z" fill="#7BC143" stroke="white" stroke-width="0.2"/>
<path d="M13.2119 3.02063C7.60849 3.02086 3.05078 7.57926 3.05078 13.1827V13.1837C2.9782 21.4676 12.766 26.3499 19.3252 21.3009L19.3262 21.2999C19.5558 21.1279 19.8757 21.1512 20.0781 21.3536L23.5117 24.7863H23.5107C23.7343 25.0021 23.734 25.3827 23.5107 25.5988L21.7324 27.3781L23.0371 28.6827L24.8164 26.9044C25.0327 26.6809 25.4152 26.681 25.6309 26.9054H25.6299L27.2617 28.5363L28.5664 27.2316L26.9336 25.5997C26.7613 25.4263 26.7222 25.1707 26.8154 24.9601L26.7578 24.962L26.9326 24.7863L28.7109 23.007L27.4062 21.7023L25.6279 23.4816C25.4109 23.6986 25.0324 23.6986 24.8154 23.4816L21.3818 20.049C21.1791 19.8462 21.1578 19.5243 21.3301 19.296V19.295C26.3767 12.7309 21.5016 2.95368 13.2129 3.02063H13.2119ZM24.5234 13.1827C24.5234 15.4915 23.8368 17.6925 22.5381 19.5792L25.2207 22.2618L27 20.4835H27.001C27.2261 20.26 27.5893 20.2594 27.8135 20.4835L29.9307 22.6017C30.0162 22.6873 30.0696 22.7974 30.0889 22.9152L30.0996 22.9161V23.0079C30.0996 23.1601 30.0395 23.3063 29.9316 23.4142L28.1523 25.1925L29.7861 26.8263L29.8594 26.9161C30.0065 27.1395 29.9824 27.4425 29.7861 27.6388L27.668 29.757C27.4519 29.9795 27.0712 29.979 26.8555 29.756L25.2217 28.1232L23.4443 29.9025H23.4434C23.2182 30.1261 22.8551 30.1267 22.6309 29.9025L20.5146 27.7853C20.2905 27.5692 20.2903 27.1868 20.5146 26.9708L22.292 25.1925L19.6094 22.5099C12.261 27.6643 1.82402 22.194 1.90039 13.1818V13.1788C2.52251 -1.82565 23.9072 -1.81462 24.5234 13.1788V13.1827Z" fill="#005CAB" stroke="white" stroke-width="0.2"/>
</svg>
