<svg width="32" height="32" viewBox="0 0 32 32" fill="none" xmlns="http://www.w3.org/2000/svg">
<path fill-rule="evenodd" clip-rule="evenodd" d="M29.1304 25.7224H24.5854L24.5826 25.7224C24.8213 25.4055 24.9627 25.0116 24.9627 24.5849V18.1545C28.1584 17.3161 30.5181 14.4059 30.5181 10.9491C30.5181 6.83816 27.1812 3.5 23.069 3.5C18.958 3.5 15.6198 6.83816 15.6198 10.9491C15.6198 12.2799 15.9696 13.5298 16.5819 14.6118H14.8598V12.9705C14.8598 12.2028 14.2386 11.5816 13.4722 11.5816H8.42203C7.65565 11.5816 7.03321 12.2028 7.03321 12.9705V14.6118H4.38185C3.61548 14.6118 2.99429 15.233 2.99429 16.0006V18.5257C2.99429 18.878 3.20009 19.1823 3.49931 19.3237V25.0911C3.49931 25.3183 3.5536 25.533 3.65082 25.7224H2.86929C2.10165 25.7224 1.48047 26.3435 1.48047 27.1112V28.1212C1.48047 28.3308 1.65092 28.5 1.85924 28.5H30.1405C30.3501 28.5 30.5193 28.3308 30.5193 28.1212V27.1112C30.5193 26.3435 29.8981 25.7224 29.1304 25.7224ZM2.86929 26.4799H29.1279C29.4776 26.4799 29.7604 26.7627 29.7604 27.1112V27.7425H2.23676V27.1112C2.23676 26.7627 2.51957 26.4799 2.86929 26.4799ZM21.5575 25.7224H18.2472L18.2458 25.7223C18.343 25.533 18.3973 25.3183 18.3973 25.0911V19.3236C18.6966 19.1822 18.9036 18.8779 18.9036 18.5257V17.1217C19.5892 17.5863 20.3568 17.9386 21.1775 18.1545V24.5848C21.1775 25.0116 21.3189 25.4055 21.5575 25.7224ZM4.38319 15.3695H17.0757C17.3901 15.795 17.7486 16.1864 18.1451 16.5361V18.5259C18.1451 18.5953 18.0882 18.6521 18.0188 18.6521H3.87818C3.80874 18.6521 3.75192 18.5953 3.75192 18.5259V16.0008C3.75192 15.6523 4.03473 15.3695 4.38319 15.3695ZM4.25811 19.4097H9.0559H9.05698V20.546C9.05698 20.7808 9.15041 21.0055 9.3158 21.1709C9.48119 21.3363 9.70593 21.4297 9.94077 21.4297H11.9609C12.1957 21.4297 12.4204 21.3363 12.5858 21.1709C12.7525 21.0055 12.8446 20.7808 12.8446 20.546V19.4097H17.6424V25.0911C17.6424 25.4396 17.3596 25.7224 17.0112 25.7224H4.89064C4.54092 25.7224 4.25811 25.4396 4.25811 25.0911V19.4097ZM14.1061 12.9706V14.6119H7.7921V12.9706C7.7921 12.6221 8.07491 12.3393 8.42463 12.3393H13.4748C13.8233 12.3393 14.1061 12.6221 14.1061 12.9706ZM23.0716 25.7211C23.0829 25.7211 23.093 25.7211 23.1044 25.7224H23.0716V25.7211ZM24.2079 24.5848C24.2079 25.2123 23.6991 25.7211 23.0716 25.7211C22.4441 25.7211 21.9365 25.2123 21.9365 24.5848V18.3125C22.3052 18.3693 22.6852 18.3984 23.0716 18.3984C23.4579 18.3984 23.8367 18.3693 24.2079 18.3125V24.5848ZM9.81345 19.4097H12.086L12.086 20.546C12.086 20.5788 12.0734 20.6116 12.0494 20.6343C12.0254 20.6583 11.9926 20.6722 11.9598 20.6722H9.9397C9.90561 20.6722 9.87279 20.6583 9.8488 20.6343C9.82607 20.6116 9.81345 20.5788 9.81345 20.546V19.4097ZM16.3799 10.9492C16.3799 7.25627 19.3784 4.25771 23.0714 4.25771C26.7656 4.25771 29.7629 7.25627 29.7629 10.9492C29.7629 14.6422 26.7658 17.6407 23.0714 17.6407C19.3785 17.6407 16.3799 14.6422 16.3799 10.9492Z" fill="#005CAB"/>
<path fill-rule="evenodd" clip-rule="evenodd" d="M23.0714 5.52025C26.0687 5.52025 28.5005 7.95318 28.5005 10.9493C28.5005 13.9454 26.0688 16.3783 23.0714 16.3783C20.0754 16.3783 17.6424 13.9454 17.6424 10.9493C17.6424 7.95318 20.0753 5.52025 23.0714 5.52025ZM18.4013 10.9492C18.4013 8.37113 20.4933 6.2778 23.0714 6.2778C25.6495 6.2778 27.7428 8.37113 27.7428 10.9492C27.7428 13.5273 25.6508 15.6206 23.0714 15.6206C20.4946 15.6206 18.4013 13.5273 18.4013 10.9492Z" fill="#7BC143"/>
</svg>
