<svg width="32" height="32" viewBox="0 0 32 32" fill="none" xmlns="http://www.w3.org/2000/svg">
<path d="M29.3442 7.87436L16.3039 3.47652C16.108 3.41283 15.892 3.41299 15.6924 3.47768L2.65508 7.87469C2.2571 8.00974 2 8.36771 2 8.78671C2 9.2057 2.2571 9.56367 2.65575 9.69905L7.38438 11.2938V16.0088C7.38438 16.6137 7.7707 17.1446 8.34442 17.3298L15.5662 19.6882C15.7062 19.734 15.8533 19.7571 16.0002 19.7571C16.1471 19.7571 16.2939 19.734 16.4335 19.6884L23.6544 17.3301C24.2293 17.1446 24.6156 16.6137 24.6156 16.0088V11.2943L25.4626 11.0087L25.4343 15.6932C25.4334 15.8274 25.5113 15.9496 25.6333 16.0055C25.6789 16.0265 25.7274 16.0366 25.7757 16.0366C25.8566 16.0366 25.9366 16.008 26 15.9526L27.2303 14.8812L28.2517 15.5985C28.3559 15.6717 28.4924 15.681 28.6053 15.622C28.7185 15.5633 28.7894 15.4464 28.7894 15.319V9.8856L29.3441 9.69905C29.3444 9.69905 29.3446 9.69889 29.3449 9.69872C29.7429 9.56367 30 9.2057 30 8.78671C30 8.36771 29.7429 8.00974 29.3442 7.87436ZM23.9327 16.0088C23.9327 16.3162 23.7366 16.586 23.4435 16.6805L16.2211 19.0393C16.0785 19.086 15.9215 19.0861 15.7786 19.0391L8.55533 16.6802C8.26339 16.586 8.06731 16.3162 8.06731 16.0088V11.5241L15.6585 14.0842V15.694C15.6585 15.8826 15.8114 16.0355 16 16.0355C16.1886 16.0355 16.3415 15.8826 16.3415 15.694V14.0844L23.9327 11.5246V16.0088ZM27.4038 14.1686C27.2753 14.0784 27.1021 14.0874 26.9834 14.1906L26.1219 14.9409L26.1485 10.5342C26.1487 10.5142 26.1433 10.4956 26.14 10.4763C26.1377 10.4622 26.1379 10.4475 26.1338 10.4339C26.1281 10.4151 26.1178 10.3985 26.1091 10.381C26.1025 10.368 26.0983 10.3538 26.0901 10.3417C26.0785 10.3244 26.0627 10.3104 26.0481 10.2954C26.0388 10.286 26.0317 10.2748 26.0213 10.2664C25.9945 10.2448 25.9643 10.227 25.9311 10.2141L22.5443 8.89358L24.2639 8.30137L27.8614 9.76962L28.1064 9.86962V14.6619L27.4038 14.1686ZM29.1255 9.05214L28.4594 9.27606L27.245 8.78041L24.4557 7.64194L24.4552 7.64183L24.4032 7.62059C24.3265 7.58942 24.2411 7.58692 24.1629 7.61393L24.1108 7.63187L24.1104 7.63193L23.0984 7.98054L21.4421 8.55095C21.3067 8.59747 21.2148 8.72368 21.2118 8.8669C21.209 9.01012 21.2959 9.13984 21.4292 9.19186L21.8049 9.33831L24.5307 10.4011L24.8064 10.5085L24.168 10.7238C24.167 10.7242 24.1659 10.7238 24.1649 10.7241L16.0932 13.4473C16.033 13.467 15.9667 13.4667 15.9106 13.4485L7.83506 10.7241C7.83383 10.7237 7.83251 10.7242 7.83128 10.7238L2.8745 9.05214C2.69677 8.99178 2.68293 8.83372 2.68293 8.78671C2.68293 8.73969 2.69677 8.58163 2.87383 8.52161L15.9068 4.1261C15.9373 4.11609 15.9695 4.11126 16.001 4.11126C16.0317 4.11126 16.0617 4.11593 16.0895 4.12493L29.1255 8.52127C29.3032 8.58163 29.3171 8.73969 29.3171 8.78671C29.3171 8.83372 29.3032 8.99178 29.1255 9.05214Z" fill="#005CAB"/>
<path d="M15.9997 16.8936C15.8111 16.8936 15.6582 17.0464 15.6582 17.235V17.5835C15.6582 17.7721 15.8111 17.9249 15.9997 17.9249C16.1882 17.9249 16.3411 17.7721 16.3411 17.5835V17.235C16.3411 17.0464 16.1882 16.8936 15.9997 16.8936Z" fill="#005CAB"/>
<path d="M27.0112 22.226H17.9392C17.8294 21.7951 17.4413 21.4742 16.9767 21.4742H16.71C16.4453 21.4742 16.2058 21.5796 16.0272 21.7486C15.8486 21.5796 15.6092 21.4742 15.3444 21.4742H15.0777C14.6838 21.4742 14.3458 21.7057 14.1842 22.0381L12.1872 21.8096C10.2707 21.5902 8.35195 21.2348 6.48424 20.7534L6.1246 20.6607C6.02256 20.6342 5.91369 20.6565 5.83032 20.7214C5.74679 20.7861 5.69794 20.8858 5.69794 20.9913V22.226H4.9885C4.88646 22.226 4.78993 22.2715 4.72507 22.3502C3.44841 23.8986 3.44841 26.1465 4.72507 27.695C4.78993 27.7737 4.88646 27.8193 4.9885 27.8193H14.1154C14.2252 28.2501 14.6132 28.571 15.0777 28.571H15.3444C15.6092 28.571 15.8486 28.4656 16.0272 28.2966C16.2058 28.4656 16.4453 28.571 16.71 28.571H16.9767C17.4412 28.571 17.8293 28.2501 17.9391 27.8193H27.0112C27.1131 27.8193 27.2098 27.7737 27.2747 27.695C28.552 26.1466 28.552 23.8986 27.2747 22.3502C27.2098 22.2715 27.1131 22.226 27.0112 22.226ZM6.38087 21.4318C7.63784 21.7536 8.9175 22.0194 10.2037 22.226H6.38087V21.4318ZM14.0258 27.1363H5.15406C4.60573 26.4068 4.38027 25.5131 4.47266 24.6469H8.4023C8.59087 24.6469 8.74377 24.494 8.74377 24.3054C8.74377 24.1168 8.59087 23.964 8.4023 23.964H4.6138C4.73092 23.5911 4.91001 23.2335 5.15406 22.9089H6.0394H14.0258V27.1363ZM15.6579 27.5747C15.6579 27.7476 15.5173 27.8881 15.3444 27.8881H15.0777C14.9049 27.8881 14.7644 27.7476 14.7644 27.5747V22.5674V22.4704C14.7644 22.2977 14.9049 22.1571 15.0777 22.1571H15.3444C15.5173 22.1571 15.6579 22.2977 15.6579 22.4704V27.5747ZM17.2902 27.5747C17.2902 27.7476 17.1496 27.8881 16.9767 27.8881H16.71C16.5371 27.8881 16.3965 27.7476 16.3965 27.5747V22.4704C16.3965 22.2977 16.5371 22.1571 16.71 22.1571H16.9767C17.1496 22.1571 17.2902 22.2977 17.2902 22.4704V22.5674V27.4778V27.5747ZM26.8457 27.1363H17.9731V22.9089H26.8457C27.7849 24.1574 27.7849 25.8879 26.8457 27.1363Z" fill="#7BC143"/>
<path d="M10.4938 24.6469H10.7072C10.8958 24.6469 11.0487 24.494 11.0487 24.3055C11.0487 24.1169 10.8958 23.964 10.7072 23.964H10.4938C10.3052 23.964 10.1523 24.1169 10.1523 24.3055C10.1523 24.494 10.3052 24.6469 10.4938 24.6469Z" fill="#7BC143"/>
</svg>
