<svg width="32" height="32" viewBox="0 0 32 32" fill="none" xmlns="http://www.w3.org/2000/svg">
<path fill-rule="evenodd" clip-rule="evenodd" d="M14.8965 17.7289H11.7738C11.7299 17.729 11.6864 17.7204 11.6458 17.7036C11.6052 17.6868 11.5683 17.6622 11.5373 17.6311C11.5062 17.6 11.4816 17.5632 11.4648 17.5226C11.448 17.482 11.4394 17.4385 11.4394 17.3945V14.2718C11.4394 14.2279 11.448 14.1844 11.4648 14.1438C11.4816 14.1031 11.5062 14.0662 11.5372 14.0351C11.5683 14.0041 11.6052 13.9794 11.6458 13.9626C11.6864 13.9457 11.7299 13.9371 11.7738 13.9371H14.8965C14.9853 13.9371 15.0705 13.9724 15.1332 14.0351C15.196 14.0979 15.2313 14.183 15.2313 14.2718V17.3945C15.2313 17.4385 15.2226 17.482 15.2058 17.5226C15.189 17.5632 15.1643 17.6001 15.1332 17.6311C15.1021 17.6622 15.0652 17.6868 15.0246 17.7036C14.984 17.7204 14.9405 17.729 14.8965 17.7289ZM14.5634 14.6062H12.1086V17.0598H14.5634V14.6062ZM20.2279 17.7289H17.1052H17.1042C17.0602 17.729 17.0167 17.7204 16.9761 17.7036C16.9355 17.6868 16.8986 17.6622 16.8675 17.6311C16.8364 17.6001 16.8118 17.5632 16.7949 17.5226C16.7781 17.482 16.7694 17.4385 16.7694 17.3945V14.2718C16.7694 14.183 16.8047 14.0979 16.8675 14.0351C16.9303 13.9724 17.0154 13.9371 17.1042 13.9371H20.2279C20.2718 13.9371 20.3153 13.9457 20.3559 13.9626C20.3965 13.9794 20.4334 14.0041 20.4645 14.0351C20.4955 14.0662 20.5201 14.1031 20.5369 14.1438C20.5537 14.1844 20.5623 14.2279 20.5623 14.2718V17.3945C20.5623 17.4385 20.5537 17.482 20.5369 17.5226C20.5201 17.5632 20.4955 17.6 20.4644 17.6311C20.4334 17.6622 20.3965 17.6868 20.3559 17.7036C20.3153 17.7204 20.2718 17.729 20.2279 17.7289ZM19.8908 14.6062H17.4373V17.0598H19.8908V14.6062ZM4.24791 15.8613H7.37062C7.4594 15.8613 7.54454 15.8965 7.60732 15.9593C7.67009 16.0221 7.70536 16.1072 7.70536 16.196V19.3187C7.70536 19.3627 7.6967 19.4062 7.67987 19.4468C7.66305 19.4874 7.63839 19.5242 7.6073 19.5553C7.57621 19.5864 7.53931 19.611 7.49869 19.6278C7.45808 19.6446 7.41456 19.6532 7.37062 19.6531H4.24791C4.20397 19.6532 4.16045 19.6446 4.11984 19.6278C4.07923 19.611 4.04232 19.5864 4.01123 19.5553C3.98015 19.5242 3.95549 19.4874 3.93866 19.4468C3.92183 19.4062 3.91317 19.3627 3.91317 19.3187V16.196C3.91317 16.1072 3.94844 16.0221 4.01122 15.9593C4.07399 15.8965 4.15913 15.8613 4.24791 15.8613ZM4.58265 18.984H7.03588V16.5304H4.58265V18.984ZM4.24791 21.1926H7.37062C7.45917 21.1926 7.54412 21.2277 7.60686 21.2902C7.66959 21.3527 7.70501 21.4375 7.70536 21.526V24.6487C7.70553 24.6928 7.697 24.7365 7.68026 24.7772C7.66351 24.818 7.63888 24.8551 7.60778 24.8863C7.57668 24.9175 7.53972 24.9423 7.49902 24.9592C7.45832 24.9761 7.41469 24.9848 7.37062 24.9848H4.24791C4.15913 24.9848 4.07399 24.9495 4.01122 24.8867C3.94844 24.824 3.91317 24.7388 3.91317 24.65V21.5273C3.91317 21.4386 3.94844 21.3534 4.01122 21.2906C4.07399 21.2279 4.15913 21.1926 4.24791 21.1926ZM4.58265 24.314H7.03588V21.8608H4.58265V24.314ZM27.7528 19.6531H24.6301C24.5862 19.6532 24.5426 19.6446 24.502 19.6278C24.4614 19.611 24.4245 19.5864 24.3934 19.5553C24.3623 19.5242 24.3377 19.4874 24.3209 19.4468C24.304 19.4062 24.2954 19.3627 24.2954 19.3187V16.196C24.2954 16.1072 24.3306 16.0221 24.3934 15.9593C24.4562 15.8965 24.5413 15.8613 24.6301 15.8613H27.7528C27.7968 15.8613 27.8403 15.8699 27.8809 15.8867C27.9215 15.9036 27.9584 15.9282 27.9895 15.9593C28.0206 15.9904 28.0452 16.0273 28.0621 16.0679C28.0789 16.1085 28.0876 16.152 28.0876 16.196V19.3187C28.0876 19.3627 28.0789 19.4062 28.0621 19.4468C28.0452 19.4874 28.0206 19.5242 27.9895 19.5553C27.9584 19.5864 27.9215 19.611 27.8809 19.6278C27.8403 19.6446 27.7968 19.6532 27.7528 19.6531ZM27.4181 16.5304H24.9648V18.984H27.4181V16.5304ZM27.7528 24.9835H24.6301C24.5413 24.9835 24.4562 24.9482 24.3934 24.8854C24.3306 24.8227 24.2954 24.7375 24.2954 24.6487V21.526C24.2957 21.4375 24.3311 21.3527 24.3939 21.2902C24.4566 21.2277 24.5416 21.1926 24.6301 21.1926H27.7528C27.8414 21.1926 27.9263 21.2277 27.989 21.2902C28.0518 21.3527 28.0872 21.4375 28.0876 21.526V24.6487C28.0876 24.6927 28.0789 24.7362 28.0621 24.7768C28.0452 24.8175 28.0206 24.8544 27.9895 24.8854C27.9584 24.9165 27.9215 24.9412 27.8809 24.958C27.8403 24.9748 27.7968 24.9835 27.7528 24.9835ZM27.4181 21.8608H24.9648V24.314H27.4181V21.8608ZM14.8965 12.5658H11.7738C11.6853 12.5658 11.6003 12.5307 11.5376 12.4681C11.4749 12.4055 11.4396 12.3206 11.4394 12.232V9.10933C11.4394 9.06539 11.448 9.02187 11.4648 8.98126C11.4816 8.94064 11.5062 8.90374 11.5372 8.87265C11.5683 8.84157 11.6052 8.8169 11.6458 8.80008C11.6864 8.78325 11.7299 8.77459 11.7738 8.77459H14.8965C14.9853 8.77459 15.0705 8.80986 15.1332 8.87263C15.196 8.93541 15.2313 9.02055 15.2313 9.10933V12.2311C15.2313 12.3198 15.196 12.405 15.1332 12.4678C15.0705 12.5305 14.9853 12.5658 14.8965 12.5658ZM14.5634 9.44309H12.1086V11.8963H14.5634V9.44309ZM20.2279 12.5658H17.1052H17.1042C17.0156 12.5658 16.9306 12.5307 16.8678 12.4681C16.8051 12.4055 16.7697 12.3206 16.7694 12.232V9.10933C16.7694 9.06537 16.7781 9.02184 16.7949 8.98123C16.8117 8.94062 16.8364 8.90372 16.8675 8.87263C16.8986 8.84155 16.9355 8.81689 16.9761 8.80007C17.0167 8.78325 17.0602 8.77459 17.1042 8.77459H20.2279C20.2718 8.77459 20.3153 8.78325 20.3559 8.80008C20.3965 8.8169 20.4334 8.84157 20.4645 8.87265C20.4955 8.90374 20.5201 8.94064 20.5369 8.98126C20.5537 9.02187 20.5623 9.06539 20.5623 9.10933V12.2311C20.5623 12.275 20.5537 12.3185 20.5369 12.3591C20.5201 12.3997 20.4955 12.4366 20.4645 12.4677C20.4334 12.4988 20.3965 12.5235 20.3559 12.5403C20.3153 12.5571 20.2718 12.5658 20.2279 12.5658ZM19.8908 9.44309H17.4373V11.8963H19.8908V9.44309Z" fill="#7BC143"/>
<path fill-rule="evenodd" clip-rule="evenodd" d="M29.6763 15.4194L23.2235 11.1896V2.33486C23.2236 2.28265 23.2114 2.23117 23.1879 2.18451C23.1645 2.13786 23.1305 2.09733 23.0886 2.06617C23.0467 2.03501 22.9981 2.01408 22.9467 2.00505C22.8953 1.99602 22.8425 1.99914 22.7925 2.01416L9.01558 6.15546C8.94667 6.17622 8.88628 6.21862 8.84334 6.27638C8.8004 6.33414 8.7772 6.40419 8.77718 6.47616V11.1896L2.32308 15.4184C2.27666 15.4489 2.23854 15.4904 2.21215 15.5393C2.18575 15.5881 2.17191 15.6428 2.17188 15.6983V29.6653C2.17188 29.754 2.20714 29.8392 2.26992 29.902C2.33269 29.9647 2.41784 30 2.50661 30H29.4941C29.5829 30 29.668 29.9647 29.7308 29.902C29.7936 29.8392 29.8288 29.754 29.8288 29.6653V15.6983C29.8288 15.6428 29.815 15.5881 29.7886 15.5393C29.7622 15.4904 29.7241 15.4489 29.6776 15.4184L29.6763 15.4194ZM8.77718 11.9897L2.84135 15.8792V29.3308H8.77718V11.9897ZM22.5541 2.78488L9.44666 6.72533V29.3308H11.4123V20.9209C11.4123 20.8321 11.4476 20.747 11.5104 20.6842C11.5731 20.6214 11.6583 20.5862 11.7471 20.5862H20.2537C20.3425 20.5862 20.4276 20.6214 20.4904 20.6842C20.5531 20.747 20.5884 20.8321 20.5884 20.9209V29.3308H22.5541V2.78488ZM19.9193 21.2556H16.3351V29.3308H19.9193V21.2556ZM12.0815 29.3308H15.6656V21.2556H12.0815V29.3308ZM23.2235 29.3308H29.1594V15.8792L23.2235 11.9897V29.3308Z" fill="#005CAB"/>
</svg>
