<svg width="25" height="24" viewBox="0 0 25 24" fill="none" xmlns="http://www.w3.org/2000/svg">
<path fill-rule="evenodd" clip-rule="evenodd" d="M12.2247 21.5384C12.2247 20.819 12.1357 20.2191 11.9552 19.5289L12.0173 19.5898L11.7479 18.5704C11.4186 17.4011 10.9089 16.4415 10.1286 15.5112L7.57899 12.4811C7.33999 12.1811 6.97908 11.9714 6.55963 11.9409C6.16945 11.9104 5.75 12.0311 5.45004 12.3006C5.24031 12.4506 5.09033 12.6603 5.00011 12.9005C4.87943 12.6908 4.79038 12.4506 4.75992 12.1811L3.91981 7.14162C3.85886 6.72216 3.61986 6.36245 3.28943 6.12226C2.959 5.88206 2.5993 5.8223 2.20912 5.88206C1.45924 6.03204 0.948368 6.72217 0.978832 7.56228L1.18856 12.6921C1.18856 13.0518 1.27761 13.381 1.45805 13.7114L4.03813 18.5704C4.42831 19.3202 4.84896 19.8897 5.41839 20.4298L6.43775 21.4199L6.31824 23.6098C6.31824 23.8196 6.46821 24 6.67794 24C6.85721 24 7.03765 23.85 7.03765 23.6403L7.15716 21.3309C7.15716 21.2102 7.12787 21.0907 7.03765 21.0005L5.89759 19.8909C5.38671 19.38 5.027 18.9008 4.6673 18.2107L2.08722 13.3517C1.96654 13.1127 1.90678 12.9018 1.90678 12.6323L1.69705 7.50252C1.66778 7.11235 1.8775 6.69289 2.32743 6.60267C2.53716 6.5722 2.7176 6.63196 2.83711 6.72218C3.01756 6.84168 3.13708 7.02213 3.16754 7.23186L4.00765 12.2714C4.09787 12.8115 4.3076 13.2919 4.6673 13.7114L5.20746 14.371L7.63756 17.2803C7.78753 17.4596 8.02774 17.4596 8.17771 17.3401C8.35698 17.1901 8.35698 16.9499 8.23747 16.7999L5.7781 13.8602C5.53791 13.5297 5.56718 13.0493 5.89761 12.7799C6.04759 12.6299 6.25731 12.5994 6.46704 12.5994C6.64629 12.6287 6.85721 12.7189 6.97672 12.8689L9.52632 15.899C10.2457 16.7696 10.6957 17.6085 10.9956 18.6888L11.2651 19.7082C11.4444 20.3386 11.5053 20.8775 11.4748 21.5079V23.5771C11.4748 23.7868 11.6248 23.9673 11.8345 23.9673C12.0443 23.9673 12.2247 23.8173 12.2247 23.6076V21.5384ZM22.4537 6.09188C22.7841 5.85169 23.1438 5.79193 23.534 5.85169L23.4719 5.88207C24.2218 6.03204 24.7326 6.72217 24.7022 7.56228L24.4924 12.6921C24.4924 13.0518 24.4034 13.381 24.2229 13.7114L21.6429 18.5704C21.2527 19.3203 20.832 19.8897 20.2626 20.4298L19.2433 21.4199L19.3628 23.6098C19.3628 23.8196 19.2128 24 19.0031 24C18.8238 24 18.6434 23.85 18.6434 23.6403L18.5238 21.3309C18.5238 21.2102 18.5531 21.0907 18.6434 21.0005L19.7834 19.8909C20.2943 19.38 20.654 18.9008 21.0137 18.2107L23.5938 13.3517C23.7145 13.1127 23.7742 12.9018 23.7742 12.6323L23.984 7.50253C24.0132 7.11235 23.8035 6.69289 23.3536 6.60267C23.1438 6.57221 22.9634 6.63197 22.8439 6.72219C22.6634 6.84169 22.5439 7.02213 22.5135 7.23187L21.6734 12.2714C21.5831 12.8115 21.3734 13.2919 21.0137 13.7114L20.4735 14.371V14.4015L18.0434 17.3108C17.8935 17.4901 17.6533 17.4901 17.5033 17.3706C17.324 17.2206 17.324 16.9804 17.4435 16.8304L19.9029 13.8906C20.1431 13.5602 20.1138 13.0798 19.7834 12.8103C19.6334 12.6603 19.4237 12.6299 19.214 12.6299C19.0347 12.6592 18.8238 12.7494 18.7043 12.8994L16.1547 15.9295C15.4353 16.8001 14.9853 17.639 14.6854 18.7193L14.4159 19.7387C14.2366 20.369 14.1757 20.908 14.2062 21.5384V23.6076C14.2062 23.8173 14.0562 23.9978 13.8465 23.9978C13.6367 23.9978 13.4563 23.8478 13.4563 23.638V21.5689C13.4563 20.8494 13.5453 20.2495 13.7258 19.5594L13.9953 18.54C14.3245 17.3708 14.8342 16.4112 15.6145 15.4808L18.1641 12.4507C18.4031 12.1507 18.764 11.941 19.1835 11.9105C19.5737 11.8801 19.9931 12.0008 20.2931 12.2703C20.5028 12.4202 20.6528 12.63 20.743 12.8702C20.8637 12.6312 20.9527 12.4202 20.9832 12.1508L21.8233 7.11124C21.8843 6.69179 22.1233 6.33208 22.4537 6.09188Z" fill="#005CAB"/>
<path fill-rule="evenodd" clip-rule="evenodd" d="M13.515 14.3395C13.3345 14.5199 13.0955 14.6089 12.8553 14.6089C12.6151 14.6089 12.3749 14.5187 12.1957 14.3395L6.28689 8.43068C5.32729 7.47107 4.75665 6.21151 4.6969 4.95063C4.63715 3.63131 5.14683 2.37055 6.10644 1.41088C7.06605 0.451214 8.17564 0.00134479 9.40592 0.00134479C10.5753 0.00134479 11.7751 0.420799 12.736 1.23163C12.7958 1.29139 12.9164 1.29139 12.9762 1.23163C13.9358 0.421999 15.1356 -0.0279306 16.3063 0.00134479C17.5366 0.00134479 18.7059 0.511025 19.6058 1.41088C20.5056 2.31074 21.0153 3.54103 21.0153 4.82975C21.0153 6.11978 20.5056 7.34887 19.6058 8.24861L13.515 14.3395ZM19.0946 7.71112L13.0053 13.8005L13.0357 13.8283C12.9759 13.888 12.9162 13.888 12.8857 13.888C12.8553 13.888 12.7955 13.888 12.7358 13.8283L6.82698 7.91952C5.05655 6.1198 4.96632 3.63127 6.64654 1.95106C7.4257 1.14142 8.50601 0.751245 9.46562 0.751245C10.4252 0.751245 11.4153 1.11215 12.2554 1.83156C12.5858 2.13151 13.0955 2.13151 13.4552 1.83156C15.2259 0.361078 17.5351 0.391554 19.0946 1.95107C19.875 2.70095 20.2945 3.75079 20.2945 4.8311C20.2945 5.91141 19.875 6.93077 19.0946 7.71112Z" fill="#7BC143"/>
</svg>
