<svg width="28" height="28" viewBox="0 0 28 28" fill="none" xmlns="http://www.w3.org/2000/svg">
<path fill-rule="evenodd" clip-rule="evenodd" d="M11.9217 11.196H12.0465V10.2502C12.0465 10.0714 12.1921 9.92438 12.3723 9.92438C12.5526 9.92438 12.6982 10.07 12.6982 10.2502V11.196H13.6744V10.2502C13.6744 10.0714 13.82 9.92438 14.0003 9.92438C14.1805 9.92438 14.3261 10.07 14.3261 10.2502V11.196H15.3024V10.2502C15.3024 10.0714 15.448 9.92438 15.6282 9.92438C15.8085 9.92438 15.9541 10.07 15.9541 10.2502V11.196H16.0789C16.2786 11.196 16.4616 11.2778 16.5919 11.4095C16.7237 11.5412 16.8055 11.7229 16.8055 11.9226V12.0474H17.7512C17.9315 12.0474 18.0771 12.193 18.0771 12.3732C18.0771 12.5535 17.9315 12.6991 17.7512 12.6991H16.8055V13.6753H17.7512C17.9315 13.6753 18.0771 13.8209 18.0771 14.0012C18.0771 14.1814 17.9315 14.327 17.7512 14.327H16.8055V15.3033H17.7512C17.9315 15.3033 18.0771 15.4489 18.0771 15.6291C18.0771 15.8094 17.9315 15.955 17.7512 15.955H16.8055V16.0798C16.8055 16.2809 16.7237 16.4625 16.5919 16.5929C16.4602 16.7246 16.2786 16.8064 16.0789 16.8064L15.6379 16.8036V17.7493C15.6379 17.9296 15.4923 18.0752 15.3121 18.0752C15.1332 18.0752 14.9862 17.9296 14.9862 17.7493V16.8036H14.01V17.7493C14.01 17.9296 13.8644 18.0752 13.6841 18.0752C13.5039 18.0752 13.3582 17.9296 13.3582 17.7493V16.8036H12.382V17.7493C12.382 17.9296 12.2364 18.0752 12.0562 18.0752C11.8759 18.0752 11.7303 17.9296 11.7303 17.7493V16.7787C11.6055 16.7454 11.4946 16.6788 11.4058 16.5901C11.2741 16.4584 11.1923 16.2767 11.1923 16.077V15.9522H10.2466C10.0677 15.9522 9.9207 15.8066 9.9207 15.6264C9.9207 15.4461 10.0663 15.3005 10.2466 15.3005H11.1923V14.3243H10.2466C10.0677 14.3243 9.9207 14.1787 9.9207 13.9984C9.9207 13.8181 10.0663 13.6725 10.2466 13.6725H11.1923V12.6963H10.2466C10.0677 12.6963 9.9207 12.5507 9.9207 12.3705C9.9207 12.1902 10.0663 12.0446 10.2466 12.0446H11.1923V11.9198C11.1923 11.7201 11.2741 11.5371 11.4058 11.4067C11.5403 11.2778 11.722 11.196 11.9217 11.196ZM11.9247 11.8484H16.0763C16.097 11.8484 16.1151 11.8567 16.1317 11.8705C16.1456 11.8844 16.1539 11.9038 16.1539 11.9246V16.0762C16.1539 16.097 16.1456 16.1164 16.1317 16.1303C16.1179 16.1441 16.0985 16.1525 16.0777 16.1525H11.9247C11.9039 16.1525 11.8845 16.1441 11.8706 16.1303C11.8567 16.1164 11.8484 16.097 11.8484 16.0762V11.9246C11.8484 11.9038 11.8567 11.8844 11.8706 11.8705C11.8845 11.8567 11.9039 11.8484 11.9247 11.8484Z" fill="#4C4F54"/>
<path fill-rule="evenodd" clip-rule="evenodd" d="M24.3962 5.62446C25.3364 6.79066 26.0852 8.11767 26.5927 9.55841C27.0822 10.9465 27.3484 12.4413 27.3484 14C27.3484 17.6872 25.8536 21.0234 23.4379 23.4405C21.0223 25.8561 17.6847 27.351 13.9988 27.351C12.4402 27.351 10.9468 27.0848 9.55867 26.5953C8.36475 26.1737 7.24849 25.5886 6.23898 24.8647L7.75183 24.654C7.92932 24.629 8.05274 24.4654 8.02916 24.2879C8.0042 24.1104 7.84057 23.987 7.6631 24.0106L5.37788 24.3295C5.29884 24.3406 5.22396 24.3808 5.16988 24.4474C5.10748 24.525 5.08668 24.6221 5.1047 24.7136L5.45415 26.8962C5.48188 27.0737 5.64828 27.1943 5.82578 27.1652C6.00327 27.1375 6.12391 26.9711 6.09479 26.7936L5.87154 25.3986C6.92957 26.1543 8.09712 26.7672 9.34515 27.2068C10.8025 27.7213 12.3708 28 14.0015 28C17.8676 28 21.3675 26.4331 23.901 23.8996C26.4345 21.3661 28.0014 17.8662 28.0014 14.0001C28.0014 12.3693 27.7213 10.801 27.2083 9.34371C26.6758 7.83364 25.8909 6.44142 24.905 5.21842C24.7927 5.07837 24.5888 5.05618 24.4488 5.1685C24.3059 5.28082 24.2839 5.48578 24.3962 5.62446ZM3.60186 22.3755C2.66172 21.2093 1.91291 19.8823 1.40539 18.4416C0.915899 17.0535 0.649659 15.5587 0.649659 14C0.649659 10.3128 2.14447 6.9766 4.56018 4.5595C6.97576 2.14393 10.3134 0.648978 14.0007 0.648978C15.5579 0.648978 17.0527 0.915218 18.4408 1.40471C19.6348 1.82625 20.751 2.41141 21.7619 3.13526L20.2491 3.34604C20.0716 3.371 19.9482 3.53462 19.9717 3.7121C19.9967 3.88959 20.1603 4.01301 20.3378 3.98943L22.623 3.6705C22.7021 3.6594 22.7769 3.61919 22.831 3.55263C22.8934 3.47498 22.9142 3.37791 22.8962 3.28639L22.5468 1.1038C22.519 0.926304 22.3526 0.805665 22.1751 0.834785C21.9976 0.862518 21.877 1.02892 21.9061 1.20642L22.1294 2.60141C21.0713 1.84568 19.9038 1.23276 18.6558 0.793181C17.1984 0.278735 15.6301 0 13.9994 0C10.1333 0 6.63344 1.56694 4.09991 4.10044C1.56638 6.63394 -0.00195312 10.1338 -0.00195312 13.9999C-0.00195312 15.6307 0.278152 17.199 0.791227 18.6563C1.32371 20.1664 2.10854 21.5586 3.09448 22.7816C3.2068 22.9216 3.41064 22.9438 3.55071 22.8315C3.69215 22.7192 3.71419 22.5142 3.60186 22.3755ZM13.999 25.31C14.1363 25.31 14.2902 25.3058 14.4608 25.2989C14.6286 25.2919 14.7839 25.2822 14.924 25.2711C15.2055 25.2476 15.4592 25.1352 15.6547 24.9591C15.8503 24.783 15.9889 24.5417 16.0402 24.263L16.2052 23.3728C16.226 23.2577 16.2773 23.1579 16.3494 23.0788H16.3481C16.4188 23.0026 16.5158 22.9443 16.6295 22.9138C17.0192 22.8098 17.3978 22.6795 17.7666 22.527C18.1382 22.373 18.4988 22.1942 18.8454 21.9945C18.9467 21.9362 19.0562 21.9085 19.1616 21.9127C19.2684 21.9168 19.3738 21.9529 19.4708 22.0194L20.0962 22.4493C20.3361 22.6143 20.612 22.6864 20.8824 22.667C21.1528 22.649 21.4177 22.5394 21.6312 22.3425C21.806 22.1817 21.9724 22.0208 22.129 21.86C22.2899 21.6936 22.4452 21.523 22.5936 21.3497C22.778 21.1347 22.8778 20.8754 22.8917 20.6106C22.9056 20.3471 22.8335 20.0781 22.6726 19.8452L22.2538 19.2364C22.1873 19.1407 22.1526 19.034 22.1484 18.9272C22.1443 18.8204 22.172 18.7123 22.2302 18.611C22.4299 18.2644 22.6088 17.9038 22.7627 17.5322C22.9153 17.1633 23.0456 16.7834 23.1496 16.3952C23.1801 16.2801 23.2383 16.1844 23.3146 16.1123C23.3923 16.0402 23.4921 15.9902 23.6086 15.9694L24.2756 15.846C24.5571 15.7933 24.8011 15.6519 24.9786 15.4508C25.1561 15.2498 25.2684 14.9904 25.2851 14.7048C25.292 14.598 25.2962 14.4801 25.3003 14.3526C25.3045 14.2097 25.3072 14.0933 25.3072 14.0004C25.3072 13.9088 25.3045 13.791 25.3003 13.6495C25.2962 13.522 25.2906 13.4041 25.2851 13.2973C25.267 13.0117 25.1561 12.7523 24.9786 12.5513C24.8011 12.3502 24.5571 12.2088 24.2756 12.1561L23.6086 12.0327C23.4935 12.0119 23.3923 11.9619 23.3146 11.8898C23.237 11.8177 23.1801 11.722 23.1496 11.607C23.0456 11.2173 22.9152 10.8373 22.7627 10.4699C22.6088 10.0983 22.4299 9.73774 22.2302 9.39106C22.172 9.28984 22.1443 9.18029 22.1484 9.07491C22.1526 8.96813 22.1873 8.86274 22.2538 8.76568L22.6726 8.15695C22.8335 7.92399 22.9056 7.65496 22.8917 7.39153C22.8778 7.12668 22.778 6.86736 22.5936 6.65245C22.4438 6.47773 22.2885 6.30717 22.1276 6.14077L22.1263 6.13939C21.971 5.97853 21.8059 5.81768 21.6312 5.6582C21.4163 5.4613 21.1528 5.35175 20.8824 5.33372C20.612 5.3157 20.3361 5.38642 20.0962 5.55143L19.4708 5.98128C19.3751 6.04784 19.2684 6.08251 19.1616 6.08667C19.0604 6.09083 18.9564 6.06587 18.8579 6.01318L18.844 6.00486C18.5043 5.80934 18.1507 5.63322 17.7819 5.4793L17.7652 5.47237C17.3964 5.31983 17.0164 5.18949 16.6282 5.0855C16.5145 5.055 16.4188 4.99814 16.3467 4.92049C16.2732 4.84145 16.2233 4.74161 16.2025 4.62652L16.0374 3.7349C15.9861 3.45618 15.8475 3.2163 15.652 3.03881C15.4564 2.86271 15.2027 2.749 14.9212 2.72681C14.7811 2.71572 14.6272 2.70601 14.458 2.69908C14.2875 2.69214 14.1336 2.68798 13.9949 2.68798C13.8576 2.68798 13.7023 2.69214 13.5331 2.69908C13.3653 2.70601 13.2114 2.71572 13.07 2.72681C12.7885 2.75038 12.5347 2.8627 12.3392 3.03881L12.3406 3.0402H12.3392C12.1437 3.21769 12.005 3.45759 11.9537 3.7349L11.7887 4.62514C11.7693 4.7333 11.7235 4.82898 11.6584 4.90386L11.6445 4.91911C11.5724 4.99677 11.4767 5.05501 11.363 5.08412C10.9747 5.18812 10.5948 5.31847 10.226 5.47099C9.85432 5.62491 9.49379 5.80379 9.14711 6.00347C9.04589 6.06171 8.93773 6.08805 8.83096 6.08528H8.82957C8.7228 6.08112 8.61741 6.04507 8.52034 5.97989L7.89497 5.55004C7.65507 5.38503 7.37914 5.31292 7.10874 5.33233C6.83834 5.35175 6.57349 5.45991 6.35994 5.65681C6.18521 5.81628 6.01882 5.97713 5.86352 6.138C5.70267 6.3044 5.54737 6.47496 5.3976 6.64967C5.21318 6.86461 5.11334 7.1239 5.09947 7.38875C5.08561 7.65222 5.15771 7.92123 5.31857 8.15417L5.73734 8.7629C5.80251 8.85858 5.83857 8.96397 5.84273 9.06936V9.07213C5.84689 9.17751 5.81916 9.28706 5.76092 9.38829C5.56124 9.73495 5.38236 10.0955 5.22844 10.4671C5.0759 10.836 4.94556 11.2159 4.84158 11.6056C4.81107 11.7207 4.75283 11.8163 4.67656 11.8884C4.59891 11.9606 4.49907 12.0105 4.38259 12.0313L3.71561 12.1547C3.43412 12.206 3.19005 12.3488 3.01256 12.5499C2.83507 12.751 2.72275 13.0103 2.70611 13.2959C2.69917 13.4027 2.69501 13.5206 2.69085 13.6481C2.68669 13.791 2.68392 13.9074 2.68392 13.999C2.68392 14.0905 2.68669 14.2084 2.69085 14.3512C2.69501 14.4788 2.70056 14.5966 2.70611 14.7034C2.72413 14.989 2.83507 15.2484 3.01256 15.4494C3.19005 15.6505 3.43411 15.7919 3.71561 15.8446L4.38259 15.9681C4.49769 15.9889 4.59753 16.0402 4.67656 16.1123V16.1109C4.75422 16.1816 4.81107 16.2787 4.84158 16.3924C4.94558 16.782 5.07592 17.162 5.22844 17.5294C5.38236 17.9011 5.56124 18.2616 5.76092 18.6083C5.81916 18.7095 5.84689 18.8177 5.84273 18.923V18.9244C5.83857 19.0312 5.80252 19.1366 5.73734 19.2337L5.31857 19.8424C5.15772 20.0753 5.08561 20.3444 5.09947 20.6078C5.11334 20.8727 5.21318 21.132 5.3976 21.3469C5.54737 21.5216 5.70267 21.6922 5.86352 21.8586C6.01883 22.0194 6.18523 22.1803 6.35994 22.3397C6.57487 22.5366 6.83835 22.6462 7.10874 22.6642C7.37775 22.6822 7.6551 22.6115 7.89497 22.4465L8.52034 22.0167C8.61741 21.9501 8.7228 21.9154 8.82957 21.9099C8.93634 21.9057 9.0445 21.9335 9.14573 21.9917C9.49239 22.1914 9.85293 22.3703 10.2246 22.5242C10.5934 22.6767 10.9734 22.8071 11.3616 22.911C11.4767 22.9416 11.5724 22.9998 11.6445 23.0761C11.7166 23.1537 11.7665 23.2536 11.7873 23.37L11.9523 24.2603C12.0036 24.539 12.1423 24.7789 12.3378 24.9564C12.5347 25.1338 12.7871 25.2462 13.0686 25.2697C13.21 25.2808 13.364 25.2905 13.5317 25.2975C13.7065 25.3072 13.8618 25.31 13.999 25.31ZM13.5622 24.6513C13.6898 24.6568 13.8354 24.6596 13.999 24.6596C14.1627 24.6596 14.3083 24.6568 14.4359 24.6513C14.5704 24.6457 14.716 24.636 14.8741 24.6235C15.0086 24.6125 15.1292 24.5598 15.2207 24.4766C15.3136 24.3934 15.3788 24.2797 15.4024 24.1465L15.5674 23.2563C15.6118 23.0164 15.7185 22.807 15.8724 22.6392C16.0278 22.4714 16.2288 22.348 16.4618 22.2856C16.8251 22.1886 17.1773 22.0679 17.5184 21.9265C17.8651 21.7823 18.2007 21.6173 18.521 21.4315C18.7304 21.3108 18.9606 21.254 19.188 21.2637C19.4154 21.272 19.64 21.3469 19.8397 21.4842L20.4651 21.914C20.5788 21.9917 20.7105 22.0263 20.8395 22.018C20.9671 22.0097 21.0919 21.957 21.1945 21.8641C21.3498 21.7213 21.5065 21.5701 21.6618 21.4093L21.6632 21.4079C21.8129 21.2526 21.9599 21.0917 22.1014 20.9267C22.1901 20.8241 22.2372 20.7007 22.2442 20.5759C22.2511 20.4511 22.2164 20.3235 22.1388 20.2126L21.72 19.6052C21.5827 19.4056 21.5092 19.1809 21.4995 18.9535V18.9521C21.4912 18.7247 21.5467 18.4959 21.6673 18.2865C21.8518 17.9662 22.0182 17.6306 22.1624 17.284C22.3038 16.9429 22.4231 16.5907 22.5215 16.2273C22.5839 15.9944 22.7073 15.7933 22.8751 15.638C23.0429 15.4827 23.2537 15.3759 23.4922 15.3315L24.1592 15.2081C24.295 15.1832 24.4101 15.1166 24.4933 15.0223C24.5765 14.928 24.6292 14.8046 24.6376 14.6673C24.6445 14.5467 24.65 14.4358 24.6528 14.3345C24.6556 14.2499 24.657 14.139 24.657 14.0003C24.657 13.8631 24.6556 13.7521 24.6528 13.6662C24.65 13.5649 24.6445 13.454 24.6376 13.3334C24.6292 13.1961 24.5765 13.0727 24.4933 12.9784C24.4101 12.8841 24.2937 12.8175 24.1592 12.7926L23.4922 12.6691C23.2537 12.6248 23.0429 12.518 22.8751 12.3627C22.7073 12.2074 22.5839 12.0063 22.5215 11.7733C22.4244 11.41 22.3038 11.0578 22.1624 10.7167C22.0181 10.37 21.8531 10.0358 21.6673 9.71414C21.5453 9.50475 21.4898 9.27456 21.4995 9.04716C21.5079 8.81974 21.5827 8.59512 21.72 8.39544L22.1388 7.78671C22.2151 7.67577 22.2497 7.5482 22.2442 7.42203C22.2372 7.29861 22.1901 7.1752 22.1014 7.0712C21.9599 6.90619 21.8129 6.74395 21.6618 6.58864C21.5065 6.42778 21.3512 6.27664 21.1959 6.13383C21.0932 6.04092 20.9684 5.98823 20.8409 5.97991C20.7119 5.97159 20.5802 6.00487 20.4665 6.08391L19.8411 6.51376C19.6414 6.65104 19.4168 6.72592 19.1894 6.73424C18.9689 6.74256 18.7484 6.69126 18.5432 6.57755C18.5397 6.57547 18.5359 6.57373 18.5321 6.572C18.5283 6.57027 18.5245 6.56853 18.521 6.56645C18.2035 6.38341 17.8734 6.21979 17.5351 6.07835L17.5185 6.0728C17.1773 5.93136 16.8251 5.81072 16.4618 5.71366C16.2275 5.65126 16.0264 5.52785 15.8711 5.36006C15.7172 5.19366 15.6104 4.98289 15.566 4.74299L15.401 3.85137C15.376 3.71964 15.3109 3.60593 15.2193 3.52135C15.1264 3.43814 15.0072 3.38407 14.8727 3.37436C14.716 3.36188 14.569 3.35217 14.4359 3.34663C14.3083 3.34108 14.1627 3.33831 13.9991 3.33831C13.8354 3.33831 13.6898 3.34108 13.5622 3.34663C13.4291 3.35217 13.2821 3.36188 13.1254 3.37436C12.9909 3.38545 12.8703 3.43815 12.7788 3.52135C12.6873 3.60454 12.6221 3.71825 12.5971 3.85137L12.4321 4.74161C12.3905 4.96902 12.2907 5.17284 12.1451 5.33649L12.14 5.34305C12.1361 5.3483 12.1319 5.35383 12.127 5.35868C11.9717 5.52647 11.7707 5.64988 11.5363 5.71228C11.1744 5.80934 10.8208 5.92998 10.481 6.07142C10.1344 6.21563 9.7988 6.38064 9.47849 6.56644H9.47711C9.26911 6.68708 9.04168 6.74255 8.81566 6.73423H8.81011C8.5827 6.72452 8.35807 6.65103 8.15839 6.51375L7.53302 6.0839C7.41931 6.00486 7.28758 5.97158 7.15861 5.9799C7.03104 5.98822 6.90624 6.04092 6.80363 6.13382C6.64832 6.27664 6.49163 6.42918 6.33494 6.59005C6.18518 6.74535 6.03819 6.90621 5.89674 7.07123C5.808 7.17384 5.75946 7.29726 5.75392 7.42206C5.74699 7.54685 5.78165 7.67443 5.85792 7.78673L6.2767 8.39546C6.41259 8.59375 6.48608 8.81701 6.49717 9.04303V9.04719C6.50549 9.2746 6.45003 9.5048 6.32939 9.71417C6.14357 10.0345 5.97856 10.3701 5.83574 10.7167C5.6943 11.0578 5.57366 11.41 5.4766 11.7734C5.4142 12.0063 5.29079 12.2074 5.12301 12.3627C4.95522 12.518 4.74445 12.6248 4.50593 12.6692L3.83895 12.7926C3.70444 12.8175 3.58797 12.8841 3.50476 12.9784C3.42156 13.0727 3.36887 13.1961 3.36055 13.3334C3.35362 13.454 3.34807 13.565 3.3453 13.6662C3.34252 13.7522 3.34114 13.8617 3.34114 14.0004C3.34114 14.1377 3.34252 14.2486 3.3453 14.3346C3.34807 14.4358 3.35362 14.5467 3.36055 14.6674C3.36887 14.8046 3.42157 14.9281 3.50476 15.0223C3.58796 15.1166 3.70444 15.1832 3.83895 15.2082L4.50593 15.3316C4.74583 15.3759 4.95659 15.4827 5.12301 15.6366V15.638C5.29079 15.7933 5.4142 15.9944 5.4766 16.2274C5.57367 16.5907 5.69431 16.9429 5.83574 17.284C5.97996 17.6307 6.14497 17.9663 6.33077 18.2866C6.45141 18.4946 6.50688 18.722 6.49856 18.948V18.9536C6.49024 19.181 6.41536 19.4056 6.27808 19.6053L5.86069 20.2126C5.78442 20.3236 5.74976 20.4525 5.7553 20.5773C5.76223 20.7007 5.80938 20.8241 5.89813 20.9281C6.03957 21.0945 6.18655 21.2554 6.33632 21.4093C6.49301 21.5702 6.64832 21.7227 6.80501 21.8655C6.90762 21.9585 7.03242 22.0112 7.15999 22.0195C7.28895 22.0278 7.42069 21.9945 7.5344 21.9155L8.15978 21.4856C8.35946 21.3483 8.58409 21.2735 8.81149 21.2651C9.04029 21.2554 9.26911 21.3123 9.47848 21.4329C9.7988 21.6174 10.1344 21.7837 10.481 21.928C10.8221 22.0694 11.1744 22.19 11.5377 22.2871C11.7706 22.3495 11.9717 22.4729 12.127 22.6407C12.2823 22.8085 12.3891 23.0192 12.4335 23.2578L12.5985 24.148C12.6235 24.2797 12.6886 24.3948 12.7801 24.478L12.7788 24.4794H12.7801C12.8717 24.5612 12.9909 24.6139 13.1268 24.6264C13.2821 24.6375 13.4277 24.6471 13.5622 24.6513Z" fill="#4C4F54"/>
<path fill-rule="evenodd" clip-rule="evenodd" d="M13.999 7.85732C12.3032 7.85732 10.7667 8.54511 9.65473 9.65721C8.54263 10.7693 7.85484 12.3043 7.85484 14.0015C7.85484 15.6974 8.54263 17.2339 9.65473 18.3458C10.7668 19.4579 12.3019 20.1457 13.999 20.1457C15.6949 20.1457 17.2314 19.4579 18.3419 18.3458C19.454 17.2337 20.1418 15.6973 20.1418 14.0015C20.1418 12.3057 19.454 10.7692 18.3419 9.65721C17.2312 8.54511 15.6948 7.85732 13.999 7.85732ZM13.999 8.50769C15.5159 8.50769 16.8887 9.12196 17.8829 10.1162C18.8772 11.1103 19.4915 12.4833 19.4915 14.0001C19.4915 15.517 18.8772 16.8898 17.8829 17.884C16.8888 18.8782 15.5159 19.4925 13.999 19.4925C12.4822 19.4925 11.1094 18.8783 10.1151 17.884C9.12094 16.8899 8.50663 15.517 8.50663 14.0001C8.50663 12.4833 9.1209 11.1104 10.1151 10.1162C11.1092 9.12199 12.4822 8.50769 13.999 8.50769Z" fill="#4C4F54"/>
</svg>
