<svg width="33" height="34" viewBox="0 0 33 34" fill="none" xmlns="http://www.w3.org/2000/svg">
<mask id="path-1-outside-1_996_3185" maskUnits="userSpaceOnUse" x="1.24219" y="0" width="30" height="34" fill="black">
<rect fill="white" x="1.24219" width="30" height="34"/>
<path d="M30.7569 10.4608C30.6585 10.2982 30.5942 10.1027 30.4303 10.0044C30.3004 9.906 30.1037 9.906 29.9738 9.87448C30.0066 9.8417 30.0394 9.80891 30.1037 9.80891C29.941 9.51511 29.8099 9.15702 29.5817 8.96157C29.5665 8.94643 29.5451 8.94013 29.5186 8.94013C29.3749 8.94013 29.0848 9.13558 28.8642 9.1898C28.6688 9.22258 28.4733 9.1898 28.2779 9.22258C28.0824 9.25536 27.8214 9.22258 27.723 9.32093C27.544 9.61851 27.3927 9.91611 27.0207 9.91611C26.9854 9.91611 26.9476 9.91359 26.9085 9.90728C26.8757 9.90728 26.8101 10.0056 26.7786 10.0699C26.4835 10.6336 26.1444 10.887 25.5442 10.887C25.4143 10.887 25.2731 10.8757 25.1167 10.8517C25.2794 11.1455 25.3777 11.3409 25.5076 11.5364C25.6059 11.6991 25.7358 11.8302 25.8985 12.0256C25.4748 12.0912 25.2138 12.1555 24.9528 12.1555C24.6917 12.1883 24.4307 12.1555 24.1697 12.2211C23.9692 12.274 23.8003 12.303 23.6603 12.303C23.2745 12.303 23.0916 12.0861 22.9958 11.5364C22.8987 11.1077 22.7776 10.8996 22.5494 10.8996C22.3968 10.8996 22.1951 10.9929 21.919 11.177C21.9845 11.6007 22.1144 12.0899 22.1144 12.5464C22.1144 12.6384 21.8824 12.8755 21.7475 12.8755C21.7387 12.8755 21.7311 12.8742 21.7235 12.8729C21.0388 12.8074 20.3213 12.6775 19.6367 12.5148C19.474 12.4821 19.2458 12.3522 19.1475 12.221C18.9255 11.9096 18.6733 11.7961 18.3796 11.7961C18.2421 11.7961 18.0971 11.8213 17.9407 11.8629C17.8512 11.8856 17.7138 11.9235 17.6066 11.9235C17.5574 11.9235 17.5145 11.9159 17.4843 11.8957C16.5386 11.4065 15.6257 10.9173 14.68 10.428C14.8426 9.93876 14.8754 9.44952 15.3974 9.18851C15.463 9.15572 15.4302 8.83039 15.3319 8.76483C15.0709 8.5366 14.777 8.34116 14.4845 8.1785C13.8982 7.85193 13.3434 7.49381 13.2778 6.87469C13.5716 6.61367 14.0281 6.41822 14.0609 6.1572C14.1264 5.8634 13.8326 5.50531 13.67 5.17873C13.6044 5.17873 13.5716 5.21152 13.5073 5.21152C13.5401 5.08164 13.5401 4.8534 13.6057 4.8534C14.0949 4.78784 14.1605 4.29858 14.4202 4.00606C14.6812 3.74505 14.9423 3.35417 14.7468 2.8977C14.5955 2.59507 14.2891 2.4299 13.9171 2.4299C13.8074 2.4299 13.6914 2.44377 13.5729 2.47403C13.1164 2.60391 12.6272 2.73504 12.2363 2.83214L11.7471 2.53835C11.6815 2.50556 11.5844 2.50556 11.5516 2.43999C11.1279 2.04911 10.7686 1.59265 10.3121 1.23327C10.1659 1.11601 9.94269 1 9.75605 1C9.73461 1 9.71318 1.00126 9.69174 1.00504C8.87719 1.1034 8.09415 1.29884 7.47502 1.88519C7.24679 2.11342 7.31236 2.50431 7.57337 2.63544C7.99704 2.86366 8.38792 3.0919 8.81285 3.32012C8.81285 3.38569 8.81285 3.41848 8.84564 3.48278C8.12815 3.67823 7.99829 4.16747 8.06259 4.7866V5.0804C7.99703 5.50407 8.19247 5.76509 8.58462 5.92774C9.00829 6.12319 9.39917 6.35142 9.9212 6.61243C9.26931 6.77509 8.8784 7.03611 9.04106 7.688C9.04106 7.75357 9.00828 7.81787 8.97549 7.88344C8.45346 8.60093 7.93269 9.31838 7.41066 10.0686C7.37788 10.1014 7.34509 10.1342 7.28079 10.167C7.08534 10.3296 6.85711 10.4936 6.72596 10.7218C6.44225 11.119 6.13333 11.3926 5.67183 11.3926C5.60248 11.3926 5.5306 11.3863 5.45369 11.3737C5.32255 11.1291 5.2015 11.0043 5.05397 11.0043C4.94553 11.0043 4.82322 11.0723 4.67064 11.2111C4.44242 11.4065 4.24697 11.6347 4.05152 11.8629C3.6934 12.2211 3.72494 12.5148 4.18139 12.7758C4.27974 12.8414 4.40962 12.9057 4.5395 12.9713C4.34406 13.395 4.34406 13.6888 4.80052 13.917C5.12709 14.0797 5.25698 14.9283 5.09431 15.2208H2.97469C2.94191 15.2536 2.81203 15.3835 2.64811 15.4163C2.25724 15.5146 2.12608 15.7101 2.35432 16.0354C2.64811 16.3935 2.97344 16.7529 3.36558 16.9811C3.42106 17.0189 3.49041 17.0315 3.56733 17.0315C3.76025 17.0315 4.00362 16.9483 4.21293 16.9483C4.24571 16.9483 4.24571 16.9811 4.37559 17.0782C4.37559 17.111 4.3428 17.111 4.3428 17.1437C3.95193 17.2093 3.65812 17.2421 3.3971 17.3064C3.16887 17.3392 2.97343 17.4048 2.87507 17.5346C2.8095 17.6002 2.90785 17.8612 3.00494 17.9583C3.29874 18.3164 3.59128 18.643 3.88509 18.9368C4.24824 19.3138 4.67443 19.4929 5.08422 19.4929C5.70335 19.4929 6.28464 19.0818 6.55951 18.3164C6.62507 18.8057 6.72217 19.2293 6.78773 19.653C6.78773 19.7186 6.72216 19.8157 6.68938 19.8812C6.62381 20.2078 6.52672 20.5659 6.55951 20.8925C6.68938 21.707 6.98318 22.4901 7.04874 23.3059C7.11431 24.1861 7.43962 24.9035 7.86329 25.621C8.05873 25.9476 8.15709 26.3057 8.28696 26.6638C8.51519 27.3157 8.58076 28.0987 9.00445 28.6523C9.52648 29.3698 9.819 30.1528 10.0472 30.9674C10.2427 31.7504 10.4381 32.4994 11.254 32.8916C11.4078 32.9634 11.5768 33 11.7407 33C12.0975 33 12.4266 32.826 12.4934 32.4679C12.5918 31.9131 12.9171 31.8816 13.3408 31.816C13.4391 31.816 13.569 31.6533 13.5035 31.6206C13.6018 31.294 13.6661 31.0014 13.7645 30.7077C14.0583 30.6749 14.3193 30.6421 14.579 30.6093C14.4164 29.6636 14.2524 28.8491 14.8072 28.0988C15.101 27.7079 15.0355 27.3486 14.9371 26.9249C14.8388 26.4684 14.8072 25.9464 14.7745 25.4571C14.7745 25.1306 14.9043 24.9023 15.2965 24.8708C15.4592 24.8708 15.6874 24.7409 15.7202 24.6098C15.85 24.2832 16.0783 24.2189 16.3721 24.2189C16.7629 24.2189 17.0239 24.0563 17.1223 23.6326C17.1551 23.4699 17.3177 23.3388 17.4161 23.2089C17.6443 22.9479 17.9053 22.6869 18.1336 22.4587C18.1992 22.3603 18.2962 22.296 18.3618 22.2304C18.6884 21.9039 19.0465 21.6441 19.3403 21.2847C19.6341 20.8939 19.8951 20.5673 20.4158 20.4374C21.1333 20.2747 21.4586 19.7199 21.4586 19.0025C21.4586 18.9041 21.4586 18.7742 21.5242 18.7414C21.9807 18.5132 22.4371 18.1866 22.8936 18.1223C23.3501 18.0568 23.3828 17.9269 23.3501 17.536C23.3173 16.8185 22.8608 16.2322 22.9592 15.4819C22.9592 15.3836 22.7965 15.2537 22.6982 15.1554C22.5998 15.057 22.4372 15.0255 22.2745 14.9271C22.4699 14.7317 22.6326 14.569 22.7965 14.4707C23.2202 14.2096 23.253 14.1125 22.8293 13.786C22.6339 13.6561 22.4384 13.4922 22.243 13.3295C22.2758 13.2639 22.3085 13.1996 22.3413 13.1668C22.765 13.2324 23.1887 13.2967 23.6451 13.3623C23.6451 13.4922 23.6779 13.5905 23.6779 13.6889C23.6124 14.1453 23.8406 14.2752 24.2643 14.2752C24.5581 14.2752 24.8191 14.2424 25.1116 14.2424C25.4382 14.2096 25.7635 14.1768 26.0573 14.144C26.0901 14.6989 25.7963 14.9914 25.4054 15.1553C25.0788 15.318 24.9817 15.5462 25.0788 15.8728C25.2239 16.3368 25.4723 16.5688 25.7774 16.5688C25.8152 16.5688 25.8543 16.565 25.8947 16.5575C25.9275 16.2965 25.993 16.0682 26.0246 15.8072H26.22C26.3499 16.3292 26.4154 16.85 26.5781 17.372C26.6437 17.5347 26.8391 17.6658 26.969 17.7957C27.0673 17.6331 27.2628 17.4691 27.2956 17.3065C27.3939 16.6874 27.4254 16.0355 27.491 15.5462C27.7848 15.3508 28.1101 15.2197 28.1757 15.057C28.4367 14.274 28.6322 13.4594 28.762 12.6436C28.8604 12.0244 29.5123 11.4368 30.1314 11.4368C30.1806 11.4419 30.226 11.4444 30.2651 11.4444C31.0178 11.4444 30.1932 10.6135 30.7505 10.4584L30.7569 10.4608ZM22.4512 14.1162C22.276 14.2398 22.1158 14.3999 21.9342 14.5815L21.4917 15.0241L22.0288 15.3469C22.1234 15.4036 22.2104 15.4414 22.281 15.473C22.3113 15.4856 22.3516 15.5032 22.3705 15.5133C22.3895 15.5322 22.4096 15.5511 22.4311 15.5713C22.4412 15.5801 22.4525 15.5915 22.4639 15.6028C22.4449 16.058 22.5735 16.4514 22.6896 16.8033C22.7753 17.0655 22.8573 17.3127 22.8673 17.5585V17.5674L22.8686 17.5762C22.8699 17.5976 22.8711 17.6153 22.8724 17.6317C22.8598 17.6342 22.8459 17.6355 22.8295 17.638C22.4071 17.6985 22.0301 17.9091 21.6644 18.1134C21.5459 18.1789 21.4286 18.2458 21.3101 18.3038C20.9747 18.4715 20.9747 18.8435 20.9747 19.0023C20.9747 19.8093 20.4753 19.9228 20.3013 19.9619C19.5965 20.1384 19.2422 20.6037 18.9597 20.982C18.8021 21.1724 18.6155 21.3389 18.4188 21.5154C18.2889 21.6314 18.154 21.7512 18.0216 21.8836C18.009 21.8962 17.9938 21.9088 17.9787 21.9227C17.9182 21.9744 17.8387 22.0437 17.7656 22.1408C17.5386 22.369 17.2839 22.6237 17.0544 22.886L17.0418 22.8999L17.0305 22.915C17.0103 22.9428 16.9851 22.9692 16.9611 22.997C16.8502 23.1205 16.6989 23.2908 16.6522 23.5228C16.6144 23.688 16.5816 23.7308 16.3786 23.7308C16.1793 23.7308 15.5817 23.7308 15.2929 24.3802C15.2904 24.3815 15.2891 24.3815 15.2866 24.3827H15.2816L15.2614 24.384C14.6536 24.4344 14.2917 24.8366 14.2917 25.4583V25.4747L14.293 25.4911L14.2955 25.5352C14.3283 26.0345 14.3636 26.5503 14.467 27.0357C14.5641 27.4569 14.5704 27.6082 14.4203 27.8086C13.8567 28.5703 13.8945 29.3848 14.0181 30.1868C13.921 30.1981 13.8201 30.2095 13.7155 30.2221L13.404 30.2561L13.3057 30.5524C13.2452 30.7353 13.196 30.9181 13.1481 31.0946C13.1241 31.1829 13.1002 31.2712 13.0737 31.3632C12.6651 31.4364 12.1532 31.6041 12.017 32.377C11.9931 32.5031 11.7863 32.5094 11.7447 32.5094C11.6501 32.5094 11.5505 32.488 11.4698 32.4501C10.8822 32.1677 10.7283 31.6583 10.5228 30.8349C10.3249 30.1288 10.0197 29.2108 9.3968 28.3546C9.16983 28.0571 9.06393 27.6397 8.95169 27.1971C8.89369 26.9676 8.83316 26.7306 8.7512 26.496C8.7222 26.4166 8.69446 26.3372 8.66798 26.2577C8.56837 25.9652 8.46497 25.6638 8.28844 25.3713C7.93665 24.7761 7.60249 24.1091 7.53945 23.2655C7.49784 22.7523 7.37679 22.2631 7.25952 21.789C7.17756 21.4586 7.10064 21.1472 7.04894 20.8307C7.03255 20.639 7.08551 20.3918 7.13595 20.1548C7.14352 20.1195 7.15108 20.0854 7.15739 20.0514C7.20908 19.9568 7.2797 19.8206 7.2797 19.6542V19.6164L7.27339 19.5798C7.24565 19.3957 7.21161 19.2129 7.1763 19.0237C7.13091 18.7778 7.08299 18.5231 7.04643 18.252L6.78037 16.2585L6.10072 18.1512C5.90906 18.6845 5.52952 19.0035 5.08568 19.0035C4.79314 19.0035 4.49179 18.8585 4.23329 18.59C3.98993 18.3466 3.74406 18.0768 3.49944 17.7842L3.5171 17.7792C3.67219 17.7401 3.84745 17.7136 4.06937 17.6796C4.17907 17.6632 4.29634 17.6455 4.42497 17.6241L4.8335 17.556V17.2597C4.85872 17.1916 4.86629 17.1273 4.86629 17.0756V16.831L4.67084 16.6847C4.63301 16.657 4.61914 16.6418 4.60527 16.628C4.5624 16.5851 4.43379 16.4565 4.2144 16.4565C4.06182 16.4565 3.91682 16.4842 3.78821 16.5082C3.71507 16.522 3.63942 16.5359 3.58394 16.5397C3.3141 16.3745 3.06694 16.1185 2.85134 15.8651C2.956 15.8311 3.05688 15.7781 3.15397 15.7075H5.38202L5.52198 15.4553C5.7086 15.1186 5.6733 14.5827 5.55603 14.2019C5.44633 13.8476 5.26097 13.5967 5.02012 13.4756C4.95203 13.4416 4.91924 13.4164 4.90537 13.4025C4.9079 13.376 4.9205 13.3092 4.98355 13.1718L5.18278 12.7418L4.75911 12.53C4.64436 12.472 4.52583 12.4127 4.4527 12.3648L4.43883 12.3559L4.4237 12.3471C4.37957 12.3219 4.34804 12.3005 4.32661 12.2828C4.34174 12.2626 4.36444 12.2362 4.39722 12.2046L4.41109 12.1908L4.4237 12.1769C4.61284 11.9562 4.79062 11.7494 5.00122 11.5679C5.00248 11.5666 5.00374 11.5666 5.00374 11.5653C5.01004 11.5767 5.01635 11.588 5.02391 11.6007L5.1374 11.8112L5.37445 11.8503C5.47533 11.8667 5.5762 11.8755 5.67204 11.8755C6.41347 11.8755 6.85606 11.3762 7.12463 10.9992L7.1385 10.979L7.15111 10.9576C7.21542 10.8441 7.35286 10.7331 7.4966 10.6159L7.55586 10.568C7.658 10.5087 7.71852 10.4469 7.75761 10.4091L7.78788 10.3788L7.81309 10.3435C8.33135 9.5983 8.86093 8.87074 9.3716 8.16714L9.39556 8.13436L9.41321 8.09779C9.45986 8.00448 9.53047 7.86452 9.53047 7.68293V7.6224L9.51534 7.5644C9.46239 7.3513 9.43212 7.23279 10.0399 7.08146L11.3223 6.76118L10.1395 6.16982C9.92262 6.06138 9.72971 5.95924 9.54562 5.86215C9.28839 5.72597 9.04503 5.59735 8.78779 5.47882L8.77013 5.47126C8.51038 5.36282 8.52425 5.27329 8.54317 5.14972L8.54947 5.11316V4.7563L8.54695 4.73108C8.48895 4.17755 8.63143 4.04262 8.97188 3.9493L9.53678 3.7879L9.29973 3.29741V3.02126L9.0425 2.88256C8.83318 2.77033 8.63144 2.65685 8.42969 2.54462C8.23677 2.43618 8.04259 2.32774 7.832 2.21427C8.3805 1.70864 9.10806 1.56112 9.74988 1.48419L9.7587 1.48293C9.79905 1.48798 9.90875 1.53211 10.0084 1.61155C10.2542 1.80447 10.4749 2.03648 10.7082 2.27984C10.8582 2.43746 11.0133 2.60012 11.1798 2.75648C11.2996 2.90527 11.4622 2.95445 11.5354 2.97462L11.9843 3.2432L12.1583 3.34786L12.355 3.29869C12.7749 3.19403 13.2679 3.06163 13.6915 2.94057C13.7697 2.9204 13.8466 2.91157 13.9173 2.91157C14.0484 2.91157 14.2199 2.94435 14.3031 3.09819C14.3334 3.17385 14.3787 3.34911 14.0749 3.65301L14.0648 3.6631L14.0547 3.67445C13.9374 3.80685 13.8567 3.95059 13.7849 4.07795C13.6562 4.30618 13.6184 4.34779 13.5541 4.3604C13.2717 4.38183 13.1002 4.59493 13.046 4.99463C13.0409 5.02741 13.0384 5.06146 13.0308 5.08794L12.8795 5.6957H13.4015C13.4633 5.80162 13.5528 5.95672 13.5755 6.03868C13.5188 6.09038 13.4053 6.16855 13.3259 6.22404C13.2074 6.306 13.0737 6.39804 12.9539 6.50396L12.766 6.6704L12.7925 6.92007C12.8896 7.84686 13.7395 8.31843 14.2476 8.60088C14.462 8.72067 14.6587 8.84802 14.8327 8.98169C14.4985 9.28557 14.3876 9.68026 14.2943 10.0119C14.2703 10.0963 14.2464 10.1821 14.2174 10.2678L14.085 10.665L14.4569 10.8567C14.9285 11.1001 15.3925 11.3447 15.8553 11.5893C16.3155 11.8314 16.777 12.0748 17.2461 12.3168C17.3495 12.3774 17.4705 12.4076 17.608 12.4076C17.7656 12.4076 17.9207 12.3685 18.0329 12.3395L18.0682 12.3307C18.1943 12.2967 18.2965 12.2803 18.3809 12.2803C18.4881 12.2803 18.6054 12.2979 18.7567 12.5098C18.9408 12.7557 19.2825 12.9347 19.5309 12.9877C20.2849 13.1667 20.9999 13.2903 21.6568 13.3533C21.6657 13.3546 21.6745 13.3559 21.6833 13.3571L21.6354 13.453L21.933 13.7014C22.1007 13.8413 22.2722 13.9838 22.45 14.1124L22.4512 14.1162ZM25.5468 15.7163C25.5367 15.6785 25.5355 15.657 25.5329 15.6545C25.5367 15.6507 25.5443 15.6432 25.5569 15.6343L25.5468 15.7163ZM30.0812 10.9499C29.249 10.9826 28.418 11.7241 28.2856 12.5664C28.1608 13.3444 27.9792 14.1034 27.7434 14.8234C27.693 14.8588 27.6009 14.9117 27.5303 14.9533C27.437 15.0075 27.3311 15.0681 27.2264 15.1387L27.0423 15.261L27.0133 15.4804C26.9856 15.691 26.9629 15.9255 26.9402 16.1726C26.9263 16.3176 26.9124 16.4639 26.8973 16.6114C26.8784 16.5207 26.8595 16.4286 26.8406 16.3353C26.799 16.1247 26.7548 15.9066 26.6993 15.6872L26.6073 15.3165H26.0739C26.4131 15.0227 26.5796 14.6091 26.5506 14.1135L26.5203 13.5991L26.0084 13.6558C25.7234 13.6873 25.4082 13.7189 25.0917 13.7504C24.9404 13.7516 24.8004 13.7592 24.6643 13.768C24.5293 13.7756 24.402 13.7832 24.2696 13.7832C24.2254 13.7832 24.1901 13.7806 24.1637 13.7781C24.1649 13.7706 24.1649 13.763 24.1662 13.7542L24.1712 13.7201V13.6848C24.1712 13.6016 24.1599 13.5285 24.151 13.4705C24.1447 13.4263 24.1384 13.391 24.1384 13.3582V12.9346L23.7185 12.874C23.3213 12.8173 22.9494 12.7605 22.5799 12.7038C22.5963 12.6496 22.6064 12.5954 22.6064 12.5437C22.6064 12.1767 22.5358 11.8048 22.4728 11.4769C22.4702 11.463 22.4677 11.4504 22.4652 11.4366C22.4803 11.482 22.498 11.545 22.5181 11.6295C22.5711 11.9321 22.7338 12.7883 23.6618 12.7883C23.8396 12.7883 24.0414 12.758 24.2898 12.6924C24.3944 12.666 24.5142 12.6634 24.6529 12.6597C24.7538 12.6571 24.866 12.6546 24.9845 12.6407C25.1976 12.6382 25.4032 12.6017 25.6377 12.5613C25.7385 12.5437 25.8482 12.5247 25.9731 12.5058L26.828 12.3747L26.2745 11.7102C26.2265 11.6522 26.1812 11.5992 26.1383 11.55C26.0677 11.4681 26.0071 11.4 25.9617 11.3344C26.4699 11.2335 26.8494 10.9334 27.1584 10.3925C27.6299 10.3383 27.8796 10.0016 28.0498 9.72672C28.0662 9.72546 28.0839 9.72546 28.0977 9.7242C28.1772 9.72042 28.268 9.71537 28.36 9.70024C28.418 9.69015 28.4899 9.69015 28.5731 9.69015C28.6841 9.69015 28.8089 9.69015 28.9463 9.66746L28.9653 9.66367L28.9842 9.65863C29.1292 9.62206 29.2691 9.55649 29.394 9.49849C29.4242 9.55019 29.4557 9.60819 29.4847 9.66619L29.0169 10.134L29.8555 10.3433C29.9059 10.3559 29.9627 10.366 30.0219 10.3748C30.0534 10.3799 30.0976 10.3862 30.1266 10.3937C30.0661 10.5425 30.0497 10.7266 30.0799 10.946L30.0812 10.9499Z"/>
</mask>
<path d="M30.7569 10.4608C30.6585 10.2982 30.5942 10.1027 30.4303 10.0044C30.3004 9.906 30.1037 9.906 29.9738 9.87448C30.0066 9.8417 30.0394 9.80891 30.1037 9.80891C29.941 9.51511 29.8099 9.15702 29.5817 8.96157C29.5665 8.94643 29.5451 8.94013 29.5186 8.94013C29.3749 8.94013 29.0848 9.13558 28.8642 9.1898C28.6688 9.22258 28.4733 9.1898 28.2779 9.22258C28.0824 9.25536 27.8214 9.22258 27.723 9.32093C27.544 9.61851 27.3927 9.91611 27.0207 9.91611C26.9854 9.91611 26.9476 9.91359 26.9085 9.90728C26.8757 9.90728 26.8101 10.0056 26.7786 10.0699C26.4835 10.6336 26.1444 10.887 25.5442 10.887C25.4143 10.887 25.2731 10.8757 25.1167 10.8517C25.2794 11.1455 25.3777 11.3409 25.5076 11.5364C25.6059 11.6991 25.7358 11.8302 25.8985 12.0256C25.4748 12.0912 25.2138 12.1555 24.9528 12.1555C24.6917 12.1883 24.4307 12.1555 24.1697 12.2211C23.9692 12.274 23.8003 12.303 23.6603 12.303C23.2745 12.303 23.0916 12.0861 22.9958 11.5364C22.8987 11.1077 22.7776 10.8996 22.5494 10.8996C22.3968 10.8996 22.1951 10.9929 21.919 11.177C21.9845 11.6007 22.1144 12.0899 22.1144 12.5464C22.1144 12.6384 21.8824 12.8755 21.7475 12.8755C21.7387 12.8755 21.7311 12.8742 21.7235 12.8729C21.0388 12.8074 20.3213 12.6775 19.6367 12.5148C19.474 12.4821 19.2458 12.3522 19.1475 12.221C18.9255 11.9096 18.6733 11.7961 18.3796 11.7961C18.2421 11.7961 18.0971 11.8213 17.9407 11.8629C17.8512 11.8856 17.7138 11.9235 17.6066 11.9235C17.5574 11.9235 17.5145 11.9159 17.4843 11.8957C16.5386 11.4065 15.6257 10.9173 14.68 10.428C14.8426 9.93876 14.8754 9.44952 15.3974 9.18851C15.463 9.15572 15.4302 8.83039 15.3319 8.76483C15.0709 8.5366 14.777 8.34116 14.4845 8.1785C13.8982 7.85193 13.3434 7.49381 13.2778 6.87469C13.5716 6.61367 14.0281 6.41822 14.0609 6.1572C14.1264 5.8634 13.8326 5.50531 13.67 5.17873C13.6044 5.17873 13.5716 5.21152 13.5073 5.21152C13.5401 5.08164 13.5401 4.8534 13.6057 4.8534C14.0949 4.78784 14.1605 4.29858 14.4202 4.00606C14.6812 3.74505 14.9423 3.35417 14.7468 2.8977C14.5955 2.59507 14.2891 2.4299 13.9171 2.4299C13.8074 2.4299 13.6914 2.44377 13.5729 2.47403C13.1164 2.60391 12.6272 2.73504 12.2363 2.83214L11.7471 2.53835C11.6815 2.50556 11.5844 2.50556 11.5516 2.43999C11.1279 2.04911 10.7686 1.59265 10.3121 1.23327C10.1659 1.11601 9.94269 1 9.75605 1C9.73461 1 9.71318 1.00126 9.69174 1.00504C8.87719 1.1034 8.09415 1.29884 7.47502 1.88519C7.24679 2.11342 7.31236 2.50431 7.57337 2.63544C7.99704 2.86366 8.38792 3.0919 8.81285 3.32012C8.81285 3.38569 8.81285 3.41848 8.84564 3.48278C8.12815 3.67823 7.99829 4.16747 8.06259 4.7866V5.0804C7.99703 5.50407 8.19247 5.76509 8.58462 5.92774C9.00829 6.12319 9.39917 6.35142 9.9212 6.61243C9.26931 6.77509 8.8784 7.03611 9.04106 7.688C9.04106 7.75357 9.00828 7.81787 8.97549 7.88344C8.45346 8.60093 7.93269 9.31838 7.41066 10.0686C7.37788 10.1014 7.34509 10.1342 7.28079 10.167C7.08534 10.3296 6.85711 10.4936 6.72596 10.7218C6.44225 11.119 6.13333 11.3926 5.67183 11.3926C5.60248 11.3926 5.5306 11.3863 5.45369 11.3737C5.32255 11.1291 5.2015 11.0043 5.05397 11.0043C4.94553 11.0043 4.82322 11.0723 4.67064 11.2111C4.44242 11.4065 4.24697 11.6347 4.05152 11.8629C3.6934 12.2211 3.72494 12.5148 4.18139 12.7758C4.27974 12.8414 4.40962 12.9057 4.5395 12.9713C4.34406 13.395 4.34406 13.6888 4.80052 13.917C5.12709 14.0797 5.25698 14.9283 5.09431 15.2208H2.97469C2.94191 15.2536 2.81203 15.3835 2.64811 15.4163C2.25724 15.5146 2.12608 15.7101 2.35432 16.0354C2.64811 16.3935 2.97344 16.7529 3.36558 16.9811C3.42106 17.0189 3.49041 17.0315 3.56733 17.0315C3.76025 17.0315 4.00362 16.9483 4.21293 16.9483C4.24571 16.9483 4.24571 16.9811 4.37559 17.0782C4.37559 17.111 4.3428 17.111 4.3428 17.1437C3.95193 17.2093 3.65812 17.2421 3.3971 17.3064C3.16887 17.3392 2.97343 17.4048 2.87507 17.5346C2.8095 17.6002 2.90785 17.8612 3.00494 17.9583C3.29874 18.3164 3.59128 18.643 3.88509 18.9368C4.24824 19.3138 4.67443 19.4929 5.08422 19.4929C5.70335 19.4929 6.28464 19.0818 6.55951 18.3164C6.62507 18.8057 6.72217 19.2293 6.78773 19.653C6.78773 19.7186 6.72216 19.8157 6.68938 19.8812C6.62381 20.2078 6.52672 20.5659 6.55951 20.8925C6.68938 21.707 6.98318 22.4901 7.04874 23.3059C7.11431 24.1861 7.43962 24.9035 7.86329 25.621C8.05873 25.9476 8.15709 26.3057 8.28696 26.6638C8.51519 27.3157 8.58076 28.0987 9.00445 28.6523C9.52648 29.3698 9.819 30.1528 10.0472 30.9674C10.2427 31.7504 10.4381 32.4994 11.254 32.8916C11.4078 32.9634 11.5768 33 11.7407 33C12.0975 33 12.4266 32.826 12.4934 32.4679C12.5918 31.9131 12.9171 31.8816 13.3408 31.816C13.4391 31.816 13.569 31.6533 13.5035 31.6206C13.6018 31.294 13.6661 31.0014 13.7645 30.7077C14.0583 30.6749 14.3193 30.6421 14.579 30.6093C14.4164 29.6636 14.2524 28.8491 14.8072 28.0988C15.101 27.7079 15.0355 27.3486 14.9371 26.9249C14.8388 26.4684 14.8072 25.9464 14.7745 25.4571C14.7745 25.1306 14.9043 24.9023 15.2965 24.8708C15.4592 24.8708 15.6874 24.7409 15.7202 24.6098C15.85 24.2832 16.0783 24.2189 16.3721 24.2189C16.7629 24.2189 17.0239 24.0563 17.1223 23.6326C17.1551 23.4699 17.3177 23.3388 17.4161 23.2089C17.6443 22.9479 17.9053 22.6869 18.1336 22.4587C18.1992 22.3603 18.2962 22.296 18.3618 22.2304C18.6884 21.9039 19.0465 21.6441 19.3403 21.2847C19.6341 20.8939 19.8951 20.5673 20.4158 20.4374C21.1333 20.2747 21.4586 19.7199 21.4586 19.0025C21.4586 18.9041 21.4586 18.7742 21.5242 18.7414C21.9807 18.5132 22.4371 18.1866 22.8936 18.1223C23.3501 18.0568 23.3828 17.9269 23.3501 17.536C23.3173 16.8185 22.8608 16.2322 22.9592 15.4819C22.9592 15.3836 22.7965 15.2537 22.6982 15.1554C22.5998 15.057 22.4372 15.0255 22.2745 14.9271C22.4699 14.7317 22.6326 14.569 22.7965 14.4707C23.2202 14.2096 23.253 14.1125 22.8293 13.786C22.6339 13.6561 22.4384 13.4922 22.243 13.3295C22.2758 13.2639 22.3085 13.1996 22.3413 13.1668C22.765 13.2324 23.1887 13.2967 23.6451 13.3623C23.6451 13.4922 23.6779 13.5905 23.6779 13.6889C23.6124 14.1453 23.8406 14.2752 24.2643 14.2752C24.5581 14.2752 24.8191 14.2424 25.1116 14.2424C25.4382 14.2096 25.7635 14.1768 26.0573 14.144C26.0901 14.6989 25.7963 14.9914 25.4054 15.1553C25.0788 15.318 24.9817 15.5462 25.0788 15.8728C25.2239 16.3368 25.4723 16.5688 25.7774 16.5688C25.8152 16.5688 25.8543 16.565 25.8947 16.5575C25.9275 16.2965 25.993 16.0682 26.0246 15.8072H26.22C26.3499 16.3292 26.4154 16.85 26.5781 17.372C26.6437 17.5347 26.8391 17.6658 26.969 17.7957C27.0673 17.6331 27.2628 17.4691 27.2956 17.3065C27.3939 16.6874 27.4254 16.0355 27.491 15.5462C27.7848 15.3508 28.1101 15.2197 28.1757 15.057C28.4367 14.274 28.6322 13.4594 28.762 12.6436C28.8604 12.0244 29.5123 11.4368 30.1314 11.4368C30.1806 11.4419 30.226 11.4444 30.2651 11.4444C31.0178 11.4444 30.1932 10.6135 30.7505 10.4584L30.7569 10.4608ZM22.4512 14.1162C22.276 14.2398 22.1158 14.3999 21.9342 14.5815L21.4917 15.0241L22.0288 15.3469C22.1234 15.4036 22.2104 15.4414 22.281 15.473C22.3113 15.4856 22.3516 15.5032 22.3705 15.5133C22.3895 15.5322 22.4096 15.5511 22.4311 15.5713C22.4412 15.5801 22.4525 15.5915 22.4639 15.6028C22.4449 16.058 22.5735 16.4514 22.6896 16.8033C22.7753 17.0655 22.8573 17.3127 22.8673 17.5585V17.5674L22.8686 17.5762C22.8699 17.5976 22.8711 17.6153 22.8724 17.6317C22.8598 17.6342 22.8459 17.6355 22.8295 17.638C22.4071 17.6985 22.0301 17.9091 21.6644 18.1134C21.5459 18.1789 21.4286 18.2458 21.3101 18.3038C20.9747 18.4715 20.9747 18.8435 20.9747 19.0023C20.9747 19.8093 20.4753 19.9228 20.3013 19.9619C19.5965 20.1384 19.2422 20.6037 18.9597 20.982C18.8021 21.1724 18.6155 21.3389 18.4188 21.5154C18.2889 21.6314 18.154 21.7512 18.0216 21.8836C18.009 21.8962 17.9938 21.9088 17.9787 21.9227C17.9182 21.9744 17.8387 22.0437 17.7656 22.1408C17.5386 22.369 17.2839 22.6237 17.0544 22.886L17.0418 22.8999L17.0305 22.915C17.0103 22.9428 16.9851 22.9692 16.9611 22.997C16.8502 23.1205 16.6989 23.2908 16.6522 23.5228C16.6144 23.688 16.5816 23.7308 16.3786 23.7308C16.1793 23.7308 15.5817 23.7308 15.2929 24.3802C15.2904 24.3815 15.2891 24.3815 15.2866 24.3827H15.2816L15.2614 24.384C14.6536 24.4344 14.2917 24.8366 14.2917 25.4583V25.4747L14.293 25.4911L14.2955 25.5352C14.3283 26.0345 14.3636 26.5503 14.467 27.0357C14.5641 27.4569 14.5704 27.6082 14.4203 27.8086C13.8567 28.5703 13.8945 29.3848 14.0181 30.1868C13.921 30.1981 13.8201 30.2095 13.7155 30.2221L13.404 30.2561L13.3057 30.5524C13.2452 30.7353 13.196 30.9181 13.1481 31.0946C13.1241 31.1829 13.1002 31.2712 13.0737 31.3632C12.6651 31.4364 12.1532 31.6041 12.017 32.377C11.9931 32.5031 11.7863 32.5094 11.7447 32.5094C11.6501 32.5094 11.5505 32.488 11.4698 32.4501C10.8822 32.1677 10.7283 31.6583 10.5228 30.8349C10.3249 30.1288 10.0197 29.2108 9.3968 28.3546C9.16983 28.0571 9.06393 27.6397 8.95169 27.1971C8.89369 26.9676 8.83316 26.7306 8.7512 26.496C8.7222 26.4166 8.69446 26.3372 8.66798 26.2577C8.56837 25.9652 8.46497 25.6638 8.28844 25.3713C7.93665 24.7761 7.60249 24.1091 7.53945 23.2655C7.49784 22.7523 7.37679 22.2631 7.25952 21.789C7.17756 21.4586 7.10064 21.1472 7.04894 20.8307C7.03255 20.639 7.08551 20.3918 7.13595 20.1548C7.14352 20.1195 7.15108 20.0854 7.15739 20.0514C7.20908 19.9568 7.2797 19.8206 7.2797 19.6542V19.6164L7.27339 19.5798C7.24565 19.3957 7.21161 19.2129 7.1763 19.0237C7.13091 18.7778 7.08299 18.5231 7.04643 18.252L6.78037 16.2585L6.10072 18.1512C5.90906 18.6845 5.52952 19.0035 5.08568 19.0035C4.79314 19.0035 4.49179 18.8585 4.23329 18.59C3.98993 18.3466 3.74406 18.0768 3.49944 17.7842L3.5171 17.7792C3.67219 17.7401 3.84745 17.7136 4.06937 17.6796C4.17907 17.6632 4.29634 17.6455 4.42497 17.6241L4.8335 17.556V17.2597C4.85872 17.1916 4.86629 17.1273 4.86629 17.0756V16.831L4.67084 16.6847C4.63301 16.657 4.61914 16.6418 4.60527 16.628C4.5624 16.5851 4.43379 16.4565 4.2144 16.4565C4.06182 16.4565 3.91682 16.4842 3.78821 16.5082C3.71507 16.522 3.63942 16.5359 3.58394 16.5397C3.3141 16.3745 3.06694 16.1185 2.85134 15.8651C2.956 15.8311 3.05688 15.7781 3.15397 15.7075H5.38202L5.52198 15.4553C5.7086 15.1186 5.6733 14.5827 5.55603 14.2019C5.44633 13.8476 5.26097 13.5967 5.02012 13.4756C4.95203 13.4416 4.91924 13.4164 4.90537 13.4025C4.9079 13.376 4.9205 13.3092 4.98355 13.1718L5.18278 12.7418L4.75911 12.53C4.64436 12.472 4.52583 12.4127 4.4527 12.3648L4.43883 12.3559L4.4237 12.3471C4.37957 12.3219 4.34804 12.3005 4.32661 12.2828C4.34174 12.2626 4.36444 12.2362 4.39722 12.2046L4.41109 12.1908L4.4237 12.1769C4.61284 11.9562 4.79062 11.7494 5.00122 11.5679C5.00248 11.5666 5.00374 11.5666 5.00374 11.5653C5.01004 11.5767 5.01635 11.588 5.02391 11.6007L5.1374 11.8112L5.37445 11.8503C5.47533 11.8667 5.5762 11.8755 5.67204 11.8755C6.41347 11.8755 6.85606 11.3762 7.12463 10.9992L7.1385 10.979L7.15111 10.9576C7.21542 10.8441 7.35286 10.7331 7.4966 10.6159L7.55586 10.568C7.658 10.5087 7.71852 10.4469 7.75761 10.4091L7.78788 10.3788L7.81309 10.3435C8.33135 9.5983 8.86093 8.87074 9.3716 8.16714L9.39556 8.13436L9.41321 8.09779C9.45986 8.00448 9.53047 7.86452 9.53047 7.68293V7.6224L9.51534 7.5644C9.46239 7.3513 9.43212 7.23279 10.0399 7.08146L11.3223 6.76118L10.1395 6.16982C9.92262 6.06138 9.72971 5.95924 9.54562 5.86215C9.28839 5.72597 9.04503 5.59735 8.78779 5.47882L8.77013 5.47126C8.51038 5.36282 8.52425 5.27329 8.54317 5.14972L8.54947 5.11316V4.7563L8.54695 4.73108C8.48895 4.17755 8.63143 4.04262 8.97188 3.9493L9.53678 3.7879L9.29973 3.29741V3.02126L9.0425 2.88256C8.83318 2.77033 8.63144 2.65685 8.42969 2.54462C8.23677 2.43618 8.04259 2.32774 7.832 2.21427C8.3805 1.70864 9.10806 1.56112 9.74988 1.48419L9.7587 1.48293C9.79905 1.48798 9.90875 1.53211 10.0084 1.61155C10.2542 1.80447 10.4749 2.03648 10.7082 2.27984C10.8582 2.43746 11.0133 2.60012 11.1798 2.75648C11.2996 2.90527 11.4622 2.95445 11.5354 2.97462L11.9843 3.2432L12.1583 3.34786L12.355 3.29869C12.7749 3.19403 13.2679 3.06163 13.6915 2.94057C13.7697 2.9204 13.8466 2.91157 13.9173 2.91157C14.0484 2.91157 14.2199 2.94435 14.3031 3.09819C14.3334 3.17385 14.3787 3.34911 14.0749 3.65301L14.0648 3.6631L14.0547 3.67445C13.9374 3.80685 13.8567 3.95059 13.7849 4.07795C13.6562 4.30618 13.6184 4.34779 13.5541 4.3604C13.2717 4.38183 13.1002 4.59493 13.046 4.99463C13.0409 5.02741 13.0384 5.06146 13.0308 5.08794L12.8795 5.6957H13.4015C13.4633 5.80162 13.5528 5.95672 13.5755 6.03868C13.5188 6.09038 13.4053 6.16855 13.3259 6.22404C13.2074 6.306 13.0737 6.39804 12.9539 6.50396L12.766 6.6704L12.7925 6.92007C12.8896 7.84686 13.7395 8.31843 14.2476 8.60088C14.462 8.72067 14.6587 8.84802 14.8327 8.98169C14.4985 9.28557 14.3876 9.68026 14.2943 10.0119C14.2703 10.0963 14.2464 10.1821 14.2174 10.2678L14.085 10.665L14.4569 10.8567C14.9285 11.1001 15.3925 11.3447 15.8553 11.5893C16.3155 11.8314 16.777 12.0748 17.2461 12.3168C17.3495 12.3774 17.4705 12.4076 17.608 12.4076C17.7656 12.4076 17.9207 12.3685 18.0329 12.3395L18.0682 12.3307C18.1943 12.2967 18.2965 12.2803 18.3809 12.2803C18.4881 12.2803 18.6054 12.2979 18.7567 12.5098C18.9408 12.7557 19.2825 12.9347 19.5309 12.9877C20.2849 13.1667 20.9999 13.2903 21.6568 13.3533C21.6657 13.3546 21.6745 13.3559 21.6833 13.3571L21.6354 13.453L21.933 13.7014C22.1007 13.8413 22.2722 13.9838 22.45 14.1124L22.4512 14.1162ZM25.5468 15.7163C25.5367 15.6785 25.5355 15.657 25.5329 15.6545C25.5367 15.6507 25.5443 15.6432 25.5569 15.6343L25.5468 15.7163ZM30.0812 10.9499C29.249 10.9826 28.418 11.7241 28.2856 12.5664C28.1608 13.3444 27.9792 14.1034 27.7434 14.8234C27.693 14.8588 27.6009 14.9117 27.5303 14.9533C27.437 15.0075 27.3311 15.0681 27.2264 15.1387L27.0423 15.261L27.0133 15.4804C26.9856 15.691 26.9629 15.9255 26.9402 16.1726C26.9263 16.3176 26.9124 16.4639 26.8973 16.6114C26.8784 16.5207 26.8595 16.4286 26.8406 16.3353C26.799 16.1247 26.7548 15.9066 26.6993 15.6872L26.6073 15.3165H26.0739C26.4131 15.0227 26.5796 14.6091 26.5506 14.1135L26.5203 13.5991L26.0084 13.6558C25.7234 13.6873 25.4082 13.7189 25.0917 13.7504C24.9404 13.7516 24.8004 13.7592 24.6643 13.768C24.5293 13.7756 24.402 13.7832 24.2696 13.7832C24.2254 13.7832 24.1901 13.7806 24.1637 13.7781C24.1649 13.7706 24.1649 13.763 24.1662 13.7542L24.1712 13.7201V13.6848C24.1712 13.6016 24.1599 13.5285 24.151 13.4705C24.1447 13.4263 24.1384 13.391 24.1384 13.3582V12.9346L23.7185 12.874C23.3213 12.8173 22.9494 12.7605 22.5799 12.7038C22.5963 12.6496 22.6064 12.5954 22.6064 12.5437C22.6064 12.1767 22.5358 11.8048 22.4728 11.4769C22.4702 11.463 22.4677 11.4504 22.4652 11.4366C22.4803 11.482 22.498 11.545 22.5181 11.6295C22.5711 11.9321 22.7338 12.7883 23.6618 12.7883C23.8396 12.7883 24.0414 12.758 24.2898 12.6924C24.3944 12.666 24.5142 12.6634 24.6529 12.6597C24.7538 12.6571 24.866 12.6546 24.9845 12.6407C25.1976 12.6382 25.4032 12.6017 25.6377 12.5613C25.7385 12.5437 25.8482 12.5247 25.9731 12.5058L26.828 12.3747L26.2745 11.7102C26.2265 11.6522 26.1812 11.5992 26.1383 11.55C26.0677 11.4681 26.0071 11.4 25.9617 11.3344C26.4699 11.2335 26.8494 10.9334 27.1584 10.3925C27.6299 10.3383 27.8796 10.0016 28.0498 9.72672C28.0662 9.72546 28.0839 9.72546 28.0977 9.7242C28.1772 9.72042 28.268 9.71537 28.36 9.70024C28.418 9.69015 28.4899 9.69015 28.5731 9.69015C28.6841 9.69015 28.8089 9.69015 28.9463 9.66746L28.9653 9.66367L28.9842 9.65863C29.1292 9.62206 29.2691 9.55649 29.394 9.49849C29.4242 9.55019 29.4557 9.60819 29.4847 9.66619L29.0169 10.134L29.8555 10.3433C29.9059 10.3559 29.9627 10.366 30.0219 10.3748C30.0534 10.3799 30.0976 10.3862 30.1266 10.3937C30.0661 10.5425 30.0497 10.7266 30.0799 10.946L30.0812 10.9499Z" fill="#4C4F54"/>
<path d="M30.7569 10.4608C30.6585 10.2982 30.5942 10.1027 30.4303 10.0044C30.3004 9.906 30.1037 9.906 29.9738 9.87448C30.0066 9.8417 30.0394 9.80891 30.1037 9.80891C29.941 9.51511 29.8099 9.15702 29.5817 8.96157C29.5665 8.94643 29.5451 8.94013 29.5186 8.94013C29.3749 8.94013 29.0848 9.13558 28.8642 9.1898C28.6688 9.22258 28.4733 9.1898 28.2779 9.22258C28.0824 9.25536 27.8214 9.22258 27.723 9.32093C27.544 9.61851 27.3927 9.91611 27.0207 9.91611C26.9854 9.91611 26.9476 9.91359 26.9085 9.90728C26.8757 9.90728 26.8101 10.0056 26.7786 10.0699C26.4835 10.6336 26.1444 10.887 25.5442 10.887C25.4143 10.887 25.2731 10.8757 25.1167 10.8517C25.2794 11.1455 25.3777 11.3409 25.5076 11.5364C25.6059 11.6991 25.7358 11.8302 25.8985 12.0256C25.4748 12.0912 25.2138 12.1555 24.9528 12.1555C24.6917 12.1883 24.4307 12.1555 24.1697 12.2211C23.9692 12.274 23.8003 12.303 23.6603 12.303C23.2745 12.303 23.0916 12.0861 22.9958 11.5364C22.8987 11.1077 22.7776 10.8996 22.5494 10.8996C22.3968 10.8996 22.1951 10.9929 21.919 11.177C21.9845 11.6007 22.1144 12.0899 22.1144 12.5464C22.1144 12.6384 21.8824 12.8755 21.7475 12.8755C21.7387 12.8755 21.7311 12.8742 21.7235 12.8729C21.0388 12.8074 20.3213 12.6775 19.6367 12.5148C19.474 12.4821 19.2458 12.3522 19.1475 12.221C18.9255 11.9096 18.6733 11.7961 18.3796 11.7961C18.2421 11.7961 18.0971 11.8213 17.9407 11.8629C17.8512 11.8856 17.7138 11.9235 17.6066 11.9235C17.5574 11.9235 17.5145 11.9159 17.4843 11.8957C16.5386 11.4065 15.6257 10.9173 14.68 10.428C14.8426 9.93876 14.8754 9.44952 15.3974 9.18851C15.463 9.15572 15.4302 8.83039 15.3319 8.76483C15.0709 8.5366 14.777 8.34116 14.4845 8.1785C13.8982 7.85193 13.3434 7.49381 13.2778 6.87469C13.5716 6.61367 14.0281 6.41822 14.0609 6.1572C14.1264 5.8634 13.8326 5.50531 13.67 5.17873C13.6044 5.17873 13.5716 5.21152 13.5073 5.21152C13.5401 5.08164 13.5401 4.8534 13.6057 4.8534C14.0949 4.78784 14.1605 4.29858 14.4202 4.00606C14.6812 3.74505 14.9423 3.35417 14.7468 2.8977C14.5955 2.59507 14.2891 2.4299 13.9171 2.4299C13.8074 2.4299 13.6914 2.44377 13.5729 2.47403C13.1164 2.60391 12.6272 2.73504 12.2363 2.83214L11.7471 2.53835C11.6815 2.50556 11.5844 2.50556 11.5516 2.43999C11.1279 2.04911 10.7686 1.59265 10.3121 1.23327C10.1659 1.11601 9.94269 1 9.75605 1C9.73461 1 9.71318 1.00126 9.69174 1.00504C8.87719 1.1034 8.09415 1.29884 7.47502 1.88519C7.24679 2.11342 7.31236 2.50431 7.57337 2.63544C7.99704 2.86366 8.38792 3.0919 8.81285 3.32012C8.81285 3.38569 8.81285 3.41848 8.84564 3.48278C8.12815 3.67823 7.99829 4.16747 8.06259 4.7866V5.0804C7.99703 5.50407 8.19247 5.76509 8.58462 5.92774C9.00829 6.12319 9.39917 6.35142 9.9212 6.61243C9.26931 6.77509 8.8784 7.03611 9.04106 7.688C9.04106 7.75357 9.00828 7.81787 8.97549 7.88344C8.45346 8.60093 7.93269 9.31838 7.41066 10.0686C7.37788 10.1014 7.34509 10.1342 7.28079 10.167C7.08534 10.3296 6.85711 10.4936 6.72596 10.7218C6.44225 11.119 6.13333 11.3926 5.67183 11.3926C5.60248 11.3926 5.5306 11.3863 5.45369 11.3737C5.32255 11.1291 5.2015 11.0043 5.05397 11.0043C4.94553 11.0043 4.82322 11.0723 4.67064 11.2111C4.44242 11.4065 4.24697 11.6347 4.05152 11.8629C3.6934 12.2211 3.72494 12.5148 4.18139 12.7758C4.27974 12.8414 4.40962 12.9057 4.5395 12.9713C4.34406 13.395 4.34406 13.6888 4.80052 13.917C5.12709 14.0797 5.25698 14.9283 5.09431 15.2208H2.97469C2.94191 15.2536 2.81203 15.3835 2.64811 15.4163C2.25724 15.5146 2.12608 15.7101 2.35432 16.0354C2.64811 16.3935 2.97344 16.7529 3.36558 16.9811C3.42106 17.0189 3.49041 17.0315 3.56733 17.0315C3.76025 17.0315 4.00362 16.9483 4.21293 16.9483C4.24571 16.9483 4.24571 16.9811 4.37559 17.0782C4.37559 17.111 4.3428 17.111 4.3428 17.1437C3.95193 17.2093 3.65812 17.2421 3.3971 17.3064C3.16887 17.3392 2.97343 17.4048 2.87507 17.5346C2.8095 17.6002 2.90785 17.8612 3.00494 17.9583C3.29874 18.3164 3.59128 18.643 3.88509 18.9368C4.24824 19.3138 4.67443 19.4929 5.08422 19.4929C5.70335 19.4929 6.28464 19.0818 6.55951 18.3164C6.62507 18.8057 6.72217 19.2293 6.78773 19.653C6.78773 19.7186 6.72216 19.8157 6.68938 19.8812C6.62381 20.2078 6.52672 20.5659 6.55951 20.8925C6.68938 21.707 6.98318 22.4901 7.04874 23.3059C7.11431 24.1861 7.43962 24.9035 7.86329 25.621C8.05873 25.9476 8.15709 26.3057 8.28696 26.6638C8.51519 27.3157 8.58076 28.0987 9.00445 28.6523C9.52648 29.3698 9.819 30.1528 10.0472 30.9674C10.2427 31.7504 10.4381 32.4994 11.254 32.8916C11.4078 32.9634 11.5768 33 11.7407 33C12.0975 33 12.4266 32.826 12.4934 32.4679C12.5918 31.9131 12.9171 31.8816 13.3408 31.816C13.4391 31.816 13.569 31.6533 13.5035 31.6206C13.6018 31.294 13.6661 31.0014 13.7645 30.7077C14.0583 30.6749 14.3193 30.6421 14.579 30.6093C14.4164 29.6636 14.2524 28.8491 14.8072 28.0988C15.101 27.7079 15.0355 27.3486 14.9371 26.9249C14.8388 26.4684 14.8072 25.9464 14.7745 25.4571C14.7745 25.1306 14.9043 24.9023 15.2965 24.8708C15.4592 24.8708 15.6874 24.7409 15.7202 24.6098C15.85 24.2832 16.0783 24.2189 16.3721 24.2189C16.7629 24.2189 17.0239 24.0563 17.1223 23.6326C17.1551 23.4699 17.3177 23.3388 17.4161 23.2089C17.6443 22.9479 17.9053 22.6869 18.1336 22.4587C18.1992 22.3603 18.2962 22.296 18.3618 22.2304C18.6884 21.9039 19.0465 21.6441 19.3403 21.2847C19.6341 20.8939 19.8951 20.5673 20.4158 20.4374C21.1333 20.2747 21.4586 19.7199 21.4586 19.0025C21.4586 18.9041 21.4586 18.7742 21.5242 18.7414C21.9807 18.5132 22.4371 18.1866 22.8936 18.1223C23.3501 18.0568 23.3828 17.9269 23.3501 17.536C23.3173 16.8185 22.8608 16.2322 22.9592 15.4819C22.9592 15.3836 22.7965 15.2537 22.6982 15.1554C22.5998 15.057 22.4372 15.0255 22.2745 14.9271C22.4699 14.7317 22.6326 14.569 22.7965 14.4707C23.2202 14.2096 23.253 14.1125 22.8293 13.786C22.6339 13.6561 22.4384 13.4922 22.243 13.3295C22.2758 13.2639 22.3085 13.1996 22.3413 13.1668C22.765 13.2324 23.1887 13.2967 23.6451 13.3623C23.6451 13.4922 23.6779 13.5905 23.6779 13.6889C23.6124 14.1453 23.8406 14.2752 24.2643 14.2752C24.5581 14.2752 24.8191 14.2424 25.1116 14.2424C25.4382 14.2096 25.7635 14.1768 26.0573 14.144C26.0901 14.6989 25.7963 14.9914 25.4054 15.1553C25.0788 15.318 24.9817 15.5462 25.0788 15.8728C25.2239 16.3368 25.4723 16.5688 25.7774 16.5688C25.8152 16.5688 25.8543 16.565 25.8947 16.5575C25.9275 16.2965 25.993 16.0682 26.0246 15.8072H26.22C26.3499 16.3292 26.4154 16.85 26.5781 17.372C26.6437 17.5347 26.8391 17.6658 26.969 17.7957C27.0673 17.6331 27.2628 17.4691 27.2956 17.3065C27.3939 16.6874 27.4254 16.0355 27.491 15.5462C27.7848 15.3508 28.1101 15.2197 28.1757 15.057C28.4367 14.274 28.6322 13.4594 28.762 12.6436C28.8604 12.0244 29.5123 11.4368 30.1314 11.4368C30.1806 11.4419 30.226 11.4444 30.2651 11.4444C31.0178 11.4444 30.1932 10.6135 30.7505 10.4584L30.7569 10.4608ZM22.4512 14.1162C22.276 14.2398 22.1158 14.3999 21.9342 14.5815L21.4917 15.0241L22.0288 15.3469C22.1234 15.4036 22.2104 15.4414 22.281 15.473C22.3113 15.4856 22.3516 15.5032 22.3705 15.5133C22.3895 15.5322 22.4096 15.5511 22.4311 15.5713C22.4412 15.5801 22.4525 15.5915 22.4639 15.6028C22.4449 16.058 22.5735 16.4514 22.6896 16.8033C22.7753 17.0655 22.8573 17.3127 22.8673 17.5585V17.5674L22.8686 17.5762C22.8699 17.5976 22.8711 17.6153 22.8724 17.6317C22.8598 17.6342 22.8459 17.6355 22.8295 17.638C22.4071 17.6985 22.0301 17.9091 21.6644 18.1134C21.5459 18.1789 21.4286 18.2458 21.3101 18.3038C20.9747 18.4715 20.9747 18.8435 20.9747 19.0023C20.9747 19.8093 20.4753 19.9228 20.3013 19.9619C19.5965 20.1384 19.2422 20.6037 18.9597 20.982C18.8021 21.1724 18.6155 21.3389 18.4188 21.5154C18.2889 21.6314 18.154 21.7512 18.0216 21.8836C18.009 21.8962 17.9938 21.9088 17.9787 21.9227C17.9182 21.9744 17.8387 22.0437 17.7656 22.1408C17.5386 22.369 17.2839 22.6237 17.0544 22.886L17.0418 22.8999L17.0305 22.915C17.0103 22.9428 16.9851 22.9692 16.9611 22.997C16.8502 23.1205 16.6989 23.2908 16.6522 23.5228C16.6144 23.688 16.5816 23.7308 16.3786 23.7308C16.1793 23.7308 15.5817 23.7308 15.2929 24.3802C15.2904 24.3815 15.2891 24.3815 15.2866 24.3827H15.2816L15.2614 24.384C14.6536 24.4344 14.2917 24.8366 14.2917 25.4583V25.4747L14.293 25.4911L14.2955 25.5352C14.3283 26.0345 14.3636 26.5503 14.467 27.0357C14.5641 27.4569 14.5704 27.6082 14.4203 27.8086C13.8567 28.5703 13.8945 29.3848 14.0181 30.1868C13.921 30.1981 13.8201 30.2095 13.7155 30.2221L13.404 30.2561L13.3057 30.5524C13.2452 30.7353 13.196 30.9181 13.1481 31.0946C13.1241 31.1829 13.1002 31.2712 13.0737 31.3632C12.6651 31.4364 12.1532 31.6041 12.017 32.377C11.9931 32.5031 11.7863 32.5094 11.7447 32.5094C11.6501 32.5094 11.5505 32.488 11.4698 32.4501C10.8822 32.1677 10.7283 31.6583 10.5228 30.8349C10.3249 30.1288 10.0197 29.2108 9.3968 28.3546C9.16983 28.0571 9.06393 27.6397 8.95169 27.1971C8.89369 26.9676 8.83316 26.7306 8.7512 26.496C8.7222 26.4166 8.69446 26.3372 8.66798 26.2577C8.56837 25.9652 8.46497 25.6638 8.28844 25.3713C7.93665 24.7761 7.60249 24.1091 7.53945 23.2655C7.49784 22.7523 7.37679 22.2631 7.25952 21.789C7.17756 21.4586 7.10064 21.1472 7.04894 20.8307C7.03255 20.639 7.08551 20.3918 7.13595 20.1548C7.14352 20.1195 7.15108 20.0854 7.15739 20.0514C7.20908 19.9568 7.2797 19.8206 7.2797 19.6542V19.6164L7.27339 19.5798C7.24565 19.3957 7.21161 19.2129 7.1763 19.0237C7.13091 18.7778 7.08299 18.5231 7.04643 18.252L6.78037 16.2585L6.10072 18.1512C5.90906 18.6845 5.52952 19.0035 5.08568 19.0035C4.79314 19.0035 4.49179 18.8585 4.23329 18.59C3.98993 18.3466 3.74406 18.0768 3.49944 17.7842L3.5171 17.7792C3.67219 17.7401 3.84745 17.7136 4.06937 17.6796C4.17907 17.6632 4.29634 17.6455 4.42497 17.6241L4.8335 17.556V17.2597C4.85872 17.1916 4.86629 17.1273 4.86629 17.0756V16.831L4.67084 16.6847C4.63301 16.657 4.61914 16.6418 4.60527 16.628C4.5624 16.5851 4.43379 16.4565 4.2144 16.4565C4.06182 16.4565 3.91682 16.4842 3.78821 16.5082C3.71507 16.522 3.63942 16.5359 3.58394 16.5397C3.3141 16.3745 3.06694 16.1185 2.85134 15.8651C2.956 15.8311 3.05688 15.7781 3.15397 15.7075H5.38202L5.52198 15.4553C5.7086 15.1186 5.6733 14.5827 5.55603 14.2019C5.44633 13.8476 5.26097 13.5967 5.02012 13.4756C4.95203 13.4416 4.91924 13.4164 4.90537 13.4025C4.9079 13.376 4.9205 13.3092 4.98355 13.1718L5.18278 12.7418L4.75911 12.53C4.64436 12.472 4.52583 12.4127 4.4527 12.3648L4.43883 12.3559L4.4237 12.3471C4.37957 12.3219 4.34804 12.3005 4.32661 12.2828C4.34174 12.2626 4.36444 12.2362 4.39722 12.2046L4.41109 12.1908L4.4237 12.1769C4.61284 11.9562 4.79062 11.7494 5.00122 11.5679C5.00248 11.5666 5.00374 11.5666 5.00374 11.5653C5.01004 11.5767 5.01635 11.588 5.02391 11.6007L5.1374 11.8112L5.37445 11.8503C5.47533 11.8667 5.5762 11.8755 5.67204 11.8755C6.41347 11.8755 6.85606 11.3762 7.12463 10.9992L7.1385 10.979L7.15111 10.9576C7.21542 10.8441 7.35286 10.7331 7.4966 10.6159L7.55586 10.568C7.658 10.5087 7.71852 10.4469 7.75761 10.4091L7.78788 10.3788L7.81309 10.3435C8.33135 9.5983 8.86093 8.87074 9.3716 8.16714L9.39556 8.13436L9.41321 8.09779C9.45986 8.00448 9.53047 7.86452 9.53047 7.68293V7.6224L9.51534 7.5644C9.46239 7.3513 9.43212 7.23279 10.0399 7.08146L11.3223 6.76118L10.1395 6.16982C9.92262 6.06138 9.72971 5.95924 9.54562 5.86215C9.28839 5.72597 9.04503 5.59735 8.78779 5.47882L8.77013 5.47126C8.51038 5.36282 8.52425 5.27329 8.54317 5.14972L8.54947 5.11316V4.7563L8.54695 4.73108C8.48895 4.17755 8.63143 4.04262 8.97188 3.9493L9.53678 3.7879L9.29973 3.29741V3.02126L9.0425 2.88256C8.83318 2.77033 8.63144 2.65685 8.42969 2.54462C8.23677 2.43618 8.04259 2.32774 7.832 2.21427C8.3805 1.70864 9.10806 1.56112 9.74988 1.48419L9.7587 1.48293C9.79905 1.48798 9.90875 1.53211 10.0084 1.61155C10.2542 1.80447 10.4749 2.03648 10.7082 2.27984C10.8582 2.43746 11.0133 2.60012 11.1798 2.75648C11.2996 2.90527 11.4622 2.95445 11.5354 2.97462L11.9843 3.2432L12.1583 3.34786L12.355 3.29869C12.7749 3.19403 13.2679 3.06163 13.6915 2.94057C13.7697 2.9204 13.8466 2.91157 13.9173 2.91157C14.0484 2.91157 14.2199 2.94435 14.3031 3.09819C14.3334 3.17385 14.3787 3.34911 14.0749 3.65301L14.0648 3.6631L14.0547 3.67445C13.9374 3.80685 13.8567 3.95059 13.7849 4.07795C13.6562 4.30618 13.6184 4.34779 13.5541 4.3604C13.2717 4.38183 13.1002 4.59493 13.046 4.99463C13.0409 5.02741 13.0384 5.06146 13.0308 5.08794L12.8795 5.6957H13.4015C13.4633 5.80162 13.5528 5.95672 13.5755 6.03868C13.5188 6.09038 13.4053 6.16855 13.3259 6.22404C13.2074 6.306 13.0737 6.39804 12.9539 6.50396L12.766 6.6704L12.7925 6.92007C12.8896 7.84686 13.7395 8.31843 14.2476 8.60088C14.462 8.72067 14.6587 8.84802 14.8327 8.98169C14.4985 9.28557 14.3876 9.68026 14.2943 10.0119C14.2703 10.0963 14.2464 10.1821 14.2174 10.2678L14.085 10.665L14.4569 10.8567C14.9285 11.1001 15.3925 11.3447 15.8553 11.5893C16.3155 11.8314 16.777 12.0748 17.2461 12.3168C17.3495 12.3774 17.4705 12.4076 17.608 12.4076C17.7656 12.4076 17.9207 12.3685 18.0329 12.3395L18.0682 12.3307C18.1943 12.2967 18.2965 12.2803 18.3809 12.2803C18.4881 12.2803 18.6054 12.2979 18.7567 12.5098C18.9408 12.7557 19.2825 12.9347 19.5309 12.9877C20.2849 13.1667 20.9999 13.2903 21.6568 13.3533C21.6657 13.3546 21.6745 13.3559 21.6833 13.3571L21.6354 13.453L21.933 13.7014C22.1007 13.8413 22.2722 13.9838 22.45 14.1124L22.4512 14.1162ZM25.5468 15.7163C25.5367 15.6785 25.5355 15.657 25.5329 15.6545C25.5367 15.6507 25.5443 15.6432 25.5569 15.6343L25.5468 15.7163ZM30.0812 10.9499C29.249 10.9826 28.418 11.7241 28.2856 12.5664C28.1608 13.3444 27.9792 14.1034 27.7434 14.8234C27.693 14.8588 27.6009 14.9117 27.5303 14.9533C27.437 15.0075 27.3311 15.0681 27.2264 15.1387L27.0423 15.261L27.0133 15.4804C26.9856 15.691 26.9629 15.9255 26.9402 16.1726C26.9263 16.3176 26.9124 16.4639 26.8973 16.6114C26.8784 16.5207 26.8595 16.4286 26.8406 16.3353C26.799 16.1247 26.7548 15.9066 26.6993 15.6872L26.6073 15.3165H26.0739C26.4131 15.0227 26.5796 14.6091 26.5506 14.1135L26.5203 13.5991L26.0084 13.6558C25.7234 13.6873 25.4082 13.7189 25.0917 13.7504C24.9404 13.7516 24.8004 13.7592 24.6643 13.768C24.5293 13.7756 24.402 13.7832 24.2696 13.7832C24.2254 13.7832 24.1901 13.7806 24.1637 13.7781C24.1649 13.7706 24.1649 13.763 24.1662 13.7542L24.1712 13.7201V13.6848C24.1712 13.6016 24.1599 13.5285 24.151 13.4705C24.1447 13.4263 24.1384 13.391 24.1384 13.3582V12.9346L23.7185 12.874C23.3213 12.8173 22.9494 12.7605 22.5799 12.7038C22.5963 12.6496 22.6064 12.5954 22.6064 12.5437C22.6064 12.1767 22.5358 11.8048 22.4728 11.4769C22.4702 11.463 22.4677 11.4504 22.4652 11.4366C22.4803 11.482 22.498 11.545 22.5181 11.6295C22.5711 11.9321 22.7338 12.7883 23.6618 12.7883C23.8396 12.7883 24.0414 12.758 24.2898 12.6924C24.3944 12.666 24.5142 12.6634 24.6529 12.6597C24.7538 12.6571 24.866 12.6546 24.9845 12.6407C25.1976 12.6382 25.4032 12.6017 25.6377 12.5613C25.7385 12.5437 25.8482 12.5247 25.9731 12.5058L26.828 12.3747L26.2745 11.7102C26.2265 11.6522 26.1812 11.5992 26.1383 11.55C26.0677 11.4681 26.0071 11.4 25.9617 11.3344C26.4699 11.2335 26.8494 10.9334 27.1584 10.3925C27.6299 10.3383 27.8796 10.0016 28.0498 9.72672C28.0662 9.72546 28.0839 9.72546 28.0977 9.7242C28.1772 9.72042 28.268 9.71537 28.36 9.70024C28.418 9.69015 28.4899 9.69015 28.5731 9.69015C28.6841 9.69015 28.8089 9.69015 28.9463 9.66746L28.9653 9.66367L28.9842 9.65863C29.1292 9.62206 29.2691 9.55649 29.394 9.49849C29.4242 9.55019 29.4557 9.60819 29.4847 9.66619L29.0169 10.134L29.8555 10.3433C29.9059 10.3559 29.9627 10.366 30.0219 10.3748C30.0534 10.3799 30.0976 10.3862 30.1266 10.3937C30.0661 10.5425 30.0497 10.7266 30.0799 10.946L30.0812 10.9499Z" stroke="#4C4F54" stroke-width="0.2" mask="url(#path-1-outside-1_996_3185)"/>
</svg>
