<svg width="33" height="32" viewBox="0 0 33 32" fill="none" xmlns="http://www.w3.org/2000/svg">
<path d="M16.5 0C25.3729 0 32.5 7.2027 32.5 16C32.5 20.2343 30.8107 24.3167 27.8137 27.3137C24.9185 30.2089 20.9181 32 16.5 32C12.0819 32 8.08146 30.2089 5.18629 27.3137C2.29113 24.4185 0.5 20.4181 0.5 16C0.5 11.5819 2.29113 7.58146 5.18629 4.68629C8.08146 1.79113 12.0819 0 16.5 0ZM29.6172 8.7412L28.652 9.70678C28.539 9.82176 28.4085 9.90929 28.2621 9.96937C28.1177 10.0302 27.9633 10.0609 27.8018 10.0609H27.1421C27.1119 10.0609 27.0868 10.0652 27.0677 10.0728C27.0486 10.0808 27.0272 10.0963 27.0061 10.1174L25.8622 11.2596C25.7481 11.3758 25.6176 11.4633 25.4727 11.5234C25.3279 11.5834 25.1736 11.6141 25.0116 11.6141H22.9528C22.7896 11.6141 22.6325 11.5819 22.4849 11.5194C22.3373 11.4573 22.2056 11.3662 22.0906 11.2481L20.9559 10.0784C20.9345 10.0565 20.913 10.0402 20.8935 10.0322C20.8752 10.0247 20.8489 10.0203 20.8163 10.0203H20.3703C20.0393 10.0203 19.754 9.90253 19.5197 9.66819L19.1771 9.32564C19.1401 9.28864 19.0904 9.26994 19.0415 9.26994C18.9913 9.26994 18.9412 9.28824 18.905 9.32445L17.5133 10.7157C17.4922 10.7384 17.4767 10.7591 17.47 10.7762C17.4624 10.7973 17.458 10.8228 17.458 10.8526V13.4028C17.458 13.4331 17.4624 13.4581 17.47 13.4772C17.5149 13.589 18.2131 14.2399 18.3377 14.3644C18.3604 14.3855 18.381 14.4006 18.3985 14.4078C18.4196 14.4154 18.4447 14.4197 18.4749 14.4197H20.6019C20.7638 14.4197 20.9181 14.4504 21.063 14.5104C21.2078 14.5705 21.3383 14.658 21.4525 14.7722L22.6719 15.9916C22.693 16.0127 22.7144 16.0282 22.7335 16.0362C22.7526 16.0438 22.7777 16.0481 22.8079 16.0481H24.356C24.5175 16.0481 24.6723 16.0788 24.8171 16.1389C24.9619 16.1989 25.0924 16.2865 25.2066 16.4006L25.6856 16.8797C25.7998 16.9938 25.8873 17.1243 25.9474 17.2691C26.0075 17.4144 26.0381 17.5683 26.0381 17.7303V19.4064L26.0472 19.4728L26.0799 19.5285L28.2215 22.1623C28.3098 22.2713 28.3767 22.3895 28.4224 22.5164C28.4698 22.6465 28.4924 22.7802 28.4924 22.9202V24.9938C30.3743 22.4886 31.4895 19.3746 31.4895 16C31.4895 13.3666 30.8099 10.8916 29.6172 8.7412ZM27.4819 26.2017V22.9202L27.4727 22.8542C27.4672 22.8363 27.4552 22.8172 27.4401 22.7981L25.2985 20.1643C25.209 20.0545 25.1405 19.9355 25.0956 19.8086C25.0502 19.6797 25.0276 19.5461 25.0276 19.4064V17.7303C25.0276 17.7 25.0232 17.675 25.0156 17.6559C25.0077 17.6368 24.9921 17.6153 24.9711 17.5942L24.492 17.1152C24.4706 17.0937 24.4495 17.0782 24.4304 17.0706C24.4113 17.0631 24.3858 17.0587 24.356 17.0587H22.8079C22.646 17.0587 22.492 17.028 22.3468 16.968C22.202 16.9079 22.0715 16.8204 21.9573 16.7062L20.7379 15.4868C20.7164 15.4653 20.6953 15.4498 20.6762 15.4422C20.6572 15.4347 20.6321 15.4303 20.6019 15.4303H18.4749C18.3138 15.4303 18.159 15.3996 18.0138 15.3396C17.8682 15.2787 17.7373 15.1916 17.6239 15.0782L16.7996 14.2534C16.6945 14.1484 16.6114 14.0278 16.5517 13.8942C16.4817 13.7378 16.4475 13.5747 16.4475 13.4028V10.8526C16.4475 10.6911 16.4781 10.5363 16.5382 10.3915C16.5991 10.2455 16.6866 10.115 16.7996 10.002L18.1909 8.6111C18.428 8.37677 18.7351 8.2594 19.0415 8.2594C19.349 8.2594 19.657 8.37637 19.8913 8.6107L20.2342 8.95365C20.2712 8.99065 20.3174 9.00975 20.3703 9.00975H20.8163C20.9794 9.00975 21.1366 9.04197 21.2842 9.10444C21.4318 9.1665 21.5635 9.25761 21.6784 9.37577L22.8131 10.5455C22.8346 10.5673 22.8561 10.5836 22.8756 10.5916C22.8939 10.5992 22.9201 10.6035 22.9528 10.6035H25.0116C25.0419 10.6035 25.0669 10.5992 25.086 10.5916C25.1051 10.584 25.1262 10.5685 25.1477 10.547L26.2915 9.40283C26.4057 9.28864 26.5362 9.20111 26.681 9.14104C26.8262 9.08096 26.9802 9.05033 27.1421 9.05033H27.8018C27.8316 9.05033 27.8567 9.04595 27.8758 9.03839C27.8949 9.03163 27.9156 9.01611 27.9374 8.99423L29.0825 7.85041C28.7407 7.32326 28.3663 6.81957 27.9625 6.34096L27.2106 7.0929C27.1191 7.1844 26.9929 7.2409 26.8533 7.2409H24.5402C24.4196 7.2409 24.3035 7.22737 24.1885 7.20111L24.1602 7.19475C24.0544 7.16809 23.949 7.12672 23.8408 7.07141L23.0474 6.64611C22.9396 6.58803 22.8223 6.56813 22.7121 6.58444C22.6026 6.59996 22.4972 6.65327 22.4101 6.7404L22.3639 6.78695C22.2251 6.9258 22.0675 7.03441 21.8917 7.1112L21.8622 7.12473C21.6761 7.20191 21.4767 7.2409 21.2679 7.2409H19.1604C19.0773 7.23891 18.9933 7.21862 18.9158 7.17565C18.6731 7.04078 18.5855 6.73364 18.7204 6.49095L19.7067 4.72449C19.875 4.42411 20.1121 4.18261 20.395 4.01552L20.4252 3.99682C20.72 3.83012 21.061 3.74538 21.4206 3.75651L23.3419 3.81699C23.4318 3.81977 23.5153 3.81142 23.5933 3.79192L23.6088 3.78715C23.6912 3.76407 23.7727 3.72588 23.8531 3.67376L24.4467 3.28824C22.1431 1.84524 19.419 1.01054 16.5 1.01054C14.247 1.01054 12.1097 1.50826 10.1925 2.39865H10.5219C10.7443 2.39865 10.9555 2.43406 11.1569 2.50487C11.3554 2.57529 11.5424 2.68232 11.7178 2.82475L12.1702 3.19316C12.2525 3.26 12.3393 3.31013 12.4312 3.34235C12.5211 3.37418 12.6205 3.39009 12.7304 3.39009H14.8859C15.1513 3.39009 15.3983 3.47523 15.5993 3.62323C15.8014 3.77243 15.9557 3.98488 16.0341 4.23752L16.0429 4.26935C16.1113 4.51402 16.1014 4.76388 16.0222 4.98985C15.9398 5.22658 15.7827 5.43624 15.5631 5.58623L15.3956 5.68729C15.1509 5.80625 14.9054 5.90491 14.654 6.01154C14.2816 9.10125 12.1463 9.66978 8.23941 10.7098L6.87597 11.0762C6.833 11.0877 6.7968 11.1124 6.77332 11.1434C6.75025 11.1757 6.73672 11.2178 6.73672 11.264V11.6208C6.73672 11.6531 6.74229 11.6817 6.75303 11.704C6.76497 11.7291 6.78367 11.7521 6.80674 11.7712L8.20281 12.9067C8.34603 13.0237 8.45703 13.1637 8.53183 13.3213C8.60822 13.48 8.6476 13.6543 8.6476 13.8385C8.6476 14.0227 8.60822 14.1969 8.53262 14.3561C8.44271 14.526 8.35319 14.6469 8.20281 14.7702L7.99194 14.9413C7.82684 15.075 7.63865 15.1621 7.44171 15.1963C7.24557 15.2306 7.04028 15.2138 6.83897 15.1438L4.84096 14.4472C4.59787 14.3624 4.39616 14.2081 4.25492 14.0103C4.1109 13.7883 4.03332 13.5815 4.03332 13.3129C4.03332 13.2258 4.04725 12.9986 4.00905 12.9286L2.02775 12.0824C1.69037 13.3312 1.51054 14.6445 1.51054 16C1.51054 20.1392 3.18868 23.887 5.90084 26.5992C8.61299 29.3113 12.3608 30.9895 16.5 30.9895C20.6392 30.9895 24.387 29.3113 27.0992 26.5992C27.2293 26.4691 27.3566 26.3366 27.4819 26.2017ZM25.3518 3.90213L24.4021 4.5188C24.2354 4.62741 24.0624 4.70738 23.8809 4.75791L23.8547 4.76427C23.6812 4.81042 23.5006 4.82952 23.31 4.82355L21.3888 4.76308C21.2173 4.75791 21.0574 4.7965 20.9225 4.87289L20.8998 4.88522C20.7753 4.96041 20.6671 5.0738 20.5867 5.21782L20.0198 6.23036H21.2679C21.3458 6.23036 21.4159 6.21763 21.4755 6.19296L21.4942 6.1858C21.5464 6.16153 21.5989 6.12294 21.6494 6.07241L21.6955 6.02785C21.9382 5.78317 22.2438 5.63358 22.5656 5.58623C22.8859 5.53889 23.2209 5.59459 23.5249 5.75811L24.3015 6.17665C24.3353 6.19296 24.3711 6.20649 24.4093 6.21603L24.4216 6.21922C24.4566 6.22678 24.496 6.23036 24.5402 6.23036H26.644L27.2846 5.58982L27.0992 5.40084C26.5565 4.85817 25.9725 4.35687 25.3518 3.90213ZM8.74985 15.9558L7.51174 16.9815L7.47434 17.0324C7.46479 17.0551 7.45922 17.0833 7.45922 17.1168V17.7458C7.45922 17.7995 7.4807 17.848 7.51412 17.8814C7.54953 17.9168 7.59807 17.9383 7.65178 17.9383H9.06137C9.34026 17.9383 9.56664 18.1647 9.56664 18.4436L9.5364 18.8908C9.27024 22.8176 9.09161 25.4462 10.2752 27.3897C10.4753 27.7179 10.9396 28.193 11.4875 28.5498C11.7119 28.6958 11.947 28.8192 12.1765 28.8984V27.3615C12.1765 27.0471 12.2673 26.7527 12.4316 26.5045C12.5951 26.2582 12.8322 26.0593 13.123 25.9359L13.6776 25.7008C13.797 25.6503 13.8901 25.5612 13.9462 25.4534C14.0059 25.3435 14.019 25.2103 13.9931 25.0889L13.8774 24.5514C13.8125 24.2495 13.8368 23.9479 13.9402 23.6762C14.06 23.3861 14.2215 23.1661 14.4761 22.9791L15.2376 22.4205C15.3104 22.3672 15.3665 22.302 15.4031 22.23L15.4111 22.2152C15.4413 22.1484 15.4572 22.0704 15.4572 21.9849V21.9777C15.4572 21.7326 15.5125 21.4987 15.6188 21.2855C15.7206 21.077 15.8754 20.8928 16.0755 20.742C16.3854 20.5069 16.6404 20.2085 16.837 19.8468C16.9599 19.6205 17.0626 19.3662 17.1433 19.0857H16.4825C16.2267 19.0857 15.9836 19.038 15.7564 18.9441C15.53 18.8506 15.3243 18.7118 15.1425 18.5291L14.2028 17.5918C14.1137 17.5027 14.0178 17.4362 13.9187 17.3957C13.8165 17.3543 13.7023 17.3328 13.5766 17.3328H10.2681C9.93903 17.3328 9.63786 17.1975 9.41983 16.9799C9.19982 16.7595 9.06495 16.4583 9.06495 16.1297C9.06495 16.0824 9.06376 16.0426 9.0371 16.0004C9.0188 15.9714 8.98976 15.9463 8.95435 15.9296C8.92212 15.9133 8.88433 15.9053 8.84812 15.9097C8.8147 15.9137 8.78009 15.9296 8.74985 15.9558ZM6.88512 16.1906L8.10613 15.1792C8.28834 15.03 8.5008 14.9393 8.7216 14.9111C8.93087 14.8844 9.14691 14.9143 9.34981 15.003C9.57062 15.0957 9.76199 15.2568 9.89009 15.4593C10.0094 15.6479 10.0755 15.8691 10.0755 16.105C10.0755 16.1683 10.0831 16.218 10.1304 16.2654C10.1658 16.3008 10.2143 16.3223 10.2681 16.3223H13.5766C13.8336 16.3223 14.0771 16.37 14.3035 16.4639C14.5314 16.5586 14.7375 16.6974 14.9173 16.8773L15.8559 17.8158C15.943 17.9053 16.0385 17.971 16.1391 18.0123C16.2398 18.0537 16.3552 18.0752 16.4825 18.0752H17.7727C18.0874 18.1054 18.3249 18.331 18.27 18.6632C18.1646 19.2946 17.9808 19.8504 17.721 20.3282C17.4533 20.8208 17.1063 21.2274 16.6826 21.5464C16.6114 21.5986 16.5569 21.6634 16.5211 21.735C16.4857 21.8023 16.4678 21.8846 16.4678 21.9777C16.4678 22.216 16.4204 22.4432 16.3166 22.6584C16.21 22.8872 16.0365 23.0849 15.8336 23.2337L15.0721 23.7923C14.9886 23.8536 14.9265 23.9312 14.8907 24.0163L14.8839 24.035C14.8485 24.1277 14.841 24.2339 14.864 24.3422L14.9798 24.8797C15.0546 25.2318 15.0057 25.5835 14.8581 25.885C14.7009 26.2188 14.4061 26.4854 14.0683 26.6286L13.5137 26.8637C13.4119 26.9067 13.3287 26.9759 13.2726 27.0607C13.2181 27.1434 13.1871 27.2473 13.1871 27.3615V29.4987C13.1871 29.7776 12.9607 30.004 12.6818 30.004C12.0962 30.004 11.4807 29.7478 10.9384 29.3949C10.2641 28.9556 9.67844 28.3465 9.41506 27.9149C8.07748 25.7187 8.24697 22.9962 8.52148 18.9489H7.65178C7.32315 18.9489 7.02198 18.814 6.80436 18.5968C6.58395 18.376 6.44868 18.0748 6.44868 17.7458V17.1168C6.44868 16.9357 6.48767 16.7631 6.56246 16.6039C6.64601 16.4293 6.74508 16.3187 6.88512 16.1906ZM8.59787 3.40919C8.53382 3.40919 8.47215 3.39726 8.41566 3.37537C7.50537 3.95942 6.66232 4.63935 5.90084 5.40084C4.30983 6.99184 3.0749 8.93933 2.32574 11.1132L4.41048 12.002C4.6289 12.0947 4.78844 12.253 4.89308 12.4432C4.99572 12.6294 5.04386 12.8462 5.04386 13.0555V13.3129C5.04386 13.3527 5.05262 13.3877 5.06773 13.4148C5.09678 13.4549 5.12463 13.4788 5.17277 13.4955L7.17078 14.1922C7.2046 14.2037 7.23841 14.2069 7.26825 14.2017C7.29809 14.1965 7.32873 14.1822 7.35618 14.1599L7.56704 13.9889C7.58693 13.9725 7.60324 13.9538 7.61438 13.9355L7.62075 13.9216C7.63149 13.8993 7.63706 13.8711 7.63706 13.8385C7.63706 13.8062 7.63149 13.7776 7.62075 13.7553C7.61001 13.7307 7.59131 13.708 7.56704 13.6881L6.17098 12.5526C6.02616 12.4345 5.91556 12.2948 5.84116 12.1385C5.76557 11.9793 5.72618 11.8043 5.72618 11.6208V11.264C5.72618 10.9922 5.8157 10.7384 5.97205 10.5335C6.12761 10.331 6.34882 10.1774 6.6118 10.1054L7.98319 9.73503C11.5631 8.78218 13.4676 8.27531 13.678 5.62602C13.694 5.4446 13.8069 5.2771 13.986 5.20151C14.2553 5.08733 14.7475 4.92501 14.9949 4.75313C15.0319 4.72807 15.0582 4.69425 15.0705 4.65805C15.0821 4.62423 15.0836 4.58604 15.0745 4.54705L15.0713 4.5375C15.0582 4.49453 15.0335 4.45872 15.0033 4.43644C14.9726 4.41416 14.9317 4.40064 14.8859 4.40064H12.7304C12.5068 4.40064 12.2963 4.36523 12.0954 4.29401C11.8965 4.22399 11.7099 4.11697 11.5344 3.97454L11.0821 3.60613C10.9993 3.53929 10.9118 3.48876 10.8211 3.45654C10.7315 3.4251 10.6317 3.40919 10.5219 3.40919H8.59787Z" fill="#4C4F54"/>
</svg>
