<svg width="32" height="32" viewBox="0 0 32 32" fill="none" xmlns="http://www.w3.org/2000/svg">
<path d="M14.6533 3.65039L15.1787 4.1748V14.9199L14.6533 15.4453H3.9082L3.38379 14.9199V4.1748L3.9082 3.65039H14.6533ZM4.30957 14.5186H14.2529V4.57617H4.30957V14.5186Z" fill="#4C4F54" stroke="white" stroke-width="0.3"/>
<path d="M28.1182 3.65039L28.6436 4.1748V14.9199L28.1182 15.4453H17.373L16.8486 14.9199V4.1748L17.373 3.65039H28.1182ZM17.7744 14.5186H27.7178V4.57617H17.7744V14.5186Z" fill="#4C4F54" stroke="white" stroke-width="0.3"/>
<path d="M14.627 16.5552L15.1523 17.0796V27.8247L14.627 28.3501H3.88184L3.35742 27.8247V17.0796L3.88184 16.5552H14.627ZM4.2832 27.4243H14.2266V17.481H4.2832V27.4243Z" fill="#4C4F54" stroke="white" stroke-width="0.3"/>
<path d="M28.0898 16.5552L28.6152 17.0796V27.8247L28.0898 28.3501H17.3447L16.8203 27.8247V17.0796L17.3447 16.5552H28.0898ZM17.7461 27.4243H27.6895V17.481H17.7461V27.4243Z" fill="#4C4F54" stroke="white" stroke-width="0.3"/>
</svg>
