<svg width="32" height="32" viewBox="0 0 32 32" fill="none" xmlns="http://www.w3.org/2000/svg">
<path d="M11.5352 9.57568H20.4658C21.5456 9.57579 22.4248 10.4549 22.4248 11.5347V20.4653C22.4247 21.545 21.5455 22.4242 20.4658 22.4243H11.5352C10.4554 22.4243 9.57627 21.5451 9.57617 20.4653V11.5347C9.57617 10.4548 10.4553 9.57568 11.5352 9.57568ZM11.5352 10.9761C11.2273 10.9761 10.9766 11.2267 10.9766 11.5347V20.4653C10.9767 20.7732 11.2273 21.0229 11.5352 21.0229H20.4658C20.7736 21.0228 21.0233 20.7731 21.0234 20.4653V11.5347C21.0234 11.2268 20.7736 10.9762 20.4658 10.9761H11.5352Z" fill="#4C4F54" stroke="white" stroke-width="0.5"/>
<path d="M8.67188 6.64551C7.55409 6.64561 6.64561 7.55412 6.64551 8.67188V23.3281C6.64561 24.4459 7.55409 25.3544 8.67188 25.3545H23.3281C24.4459 25.3544 25.3544 24.4459 25.3545 23.3281V8.67188C25.3544 7.55412 24.4459 6.64561 23.3281 6.64551H8.67188ZM8.44434 26.7539L8.22656 26.7256C6.69299 26.5254 5.47456 25.307 5.27441 23.7734L5.24609 23.5557H1.9502C1.56346 23.5556 1.25 23.2422 1.25 22.8555C1.25016 22.4689 1.56356 22.1554 1.9502 22.1553H5.24414V19.6982H1.9502C1.56346 19.6982 1.25 19.3848 1.25 18.998C1.25 18.6113 1.56346 18.2979 1.9502 18.2979H5.24414V13.7021H1.9502C1.56346 13.7021 1.25 13.3887 1.25 13.002C1.25 12.6152 1.56346 12.3018 1.9502 12.3018H5.24414V9.84473H1.9502C1.56356 9.84465 1.25016 9.53113 1.25 9.14453C1.25 8.75779 1.56346 8.44442 1.9502 8.44434H5.24609L5.27441 8.22656C5.47456 6.69299 6.69299 5.47455 8.22656 5.27441L8.44434 5.24609V1.9502C8.44442 1.56348 8.75777 1.25 9.14453 1.25C9.53115 1.25016 9.84465 1.56358 9.84473 1.9502V5.24414H12.3018V1.9502C12.3018 1.56349 12.6152 1.25002 13.002 1.25C13.3887 1.25 13.7021 1.56348 13.7021 1.9502V5.24414H18.2979V1.9502C18.2979 1.56348 18.6113 1.25 18.998 1.25C19.3848 1.25002 19.6982 1.56349 19.6982 1.9502V5.24414H22.1553V1.9502C22.1554 1.56358 22.4689 1.25016 22.8555 1.25C23.2422 1.25 23.5556 1.56348 23.5557 1.9502V5.24609L23.7734 5.27441C25.307 5.47455 26.5254 6.69299 26.7256 8.22656L26.7539 8.44434H30.0498C30.4365 8.44442 30.75 8.75779 30.75 9.14453C30.7498 9.53113 30.4364 9.84465 30.0498 9.84473H26.7559V12.3018H30.0498C30.4365 12.3018 30.75 12.6152 30.75 13.002C30.75 13.3887 30.4365 13.7021 30.0498 13.7021H26.7559V18.2979H30.0498C30.4365 18.2979 30.75 18.6113 30.75 18.998C30.75 19.3848 30.4365 19.6982 30.0498 19.6982H26.7559V22.1553H30.0498C30.4364 22.1554 30.7498 22.4689 30.75 22.8555C30.75 23.2422 30.4365 23.5556 30.0498 23.5557H26.7539L26.7256 23.7734C26.5254 25.307 25.307 26.5254 23.7734 26.7256L23.5557 26.7539V30.0498C23.5556 30.4365 23.2422 30.75 22.8555 30.75C22.4689 30.7498 22.1554 30.4364 22.1553 30.0498V26.7559H19.6982V30.0498C19.6982 30.4365 19.3848 30.75 18.998 30.75C18.6113 30.75 18.2979 30.4365 18.2979 30.0498V26.7559H13.7021V30.0498C13.7021 30.4365 13.3887 30.75 13.002 30.75C12.6152 30.75 12.3018 30.4365 12.3018 30.0498V26.7559H9.84473V30.0498C9.84465 30.4364 9.53115 30.7498 9.14453 30.75C8.75778 30.75 8.44442 30.4365 8.44434 30.0498V26.7539Z" fill="#4C4F54" stroke="white" stroke-width="0.5"/>
</svg>
