<svg width="50" height="50" viewBox="0 0 50 50" fill="none" xmlns="http://www.w3.org/2000/svg">
<path d="M15.377 50C16.2183 50 16.9484 49.4603 17.1945 48.6508L17.8373 46.5238H32.1548L32.7976 48.6508C33.0437 49.4603 33.7738 50 34.6151 50C35.6627 50 36.5119 49.1508 36.5119 48.1032V46.5238H37.4167C37.7024 46.5238 37.9564 46.3413 38.0516 46.0714L39.6627 41.2143C41.1548 41.0079 42.3135 39.7381 42.3135 38.1905V3.07143C42.3135 1.38095 40.9405 0 39.2421 0H36.3929H30.6707H19.3294H13.6072H10.758C9.06748 0 7.68652 1.37302 7.68652 3.07143V38.1905C7.68652 39.7381 8.84525 41.0079 10.3373 41.2143L11.9484 46.0714C12.0357 46.3413 12.2976 46.5238 12.5833 46.5238H13.4881V48.1032C13.4802 49.1508 14.3373 50 15.377 50ZM15.9246 48.2619C15.8532 48.5 15.631 48.6667 15.3849 48.6667C15.0754 48.6667 14.8214 48.4127 14.8214 48.1032V46.5238H16.4564L15.9246 48.2619ZM35.1786 48.1032C35.1786 48.4127 34.9246 48.6667 34.6151 48.6667C34.3611 48.6667 34.1468 48.5079 34.0754 48.2619L33.5516 46.5159H35.1865V48.1032H35.1786ZM29.7421 1.33333L29.2421 2.84127H20.75L20.25 1.33333H29.7421ZM18.8453 1.33333L19.631 3.72222C19.7183 3.99206 19.9802 4.1746 20.2659 4.1746H29.7183C30.004 4.1746 30.258 3.99206 30.3532 3.72222L31.1389 1.33333H35.7103V21.4444C35.7103 27.3571 30.9008 32.1587 24.9881 32.1587C19.0754 32.1587 14.2738 27.3492 14.2738 21.4444V1.33333H18.8453ZM9.01986 3.07143C9.01986 2.11111 9.79764 1.33333 10.758 1.33333H12.9405V21.4444C12.9405 28.0873 18.3453 33.4921 24.996 33.4921C31.6389 33.4921 37.0437 28.0873 37.0437 21.4444V1.33333H39.2262C40.1865 1.33333 40.9643 2.11111 40.9643 3.07143V20.6984C40.9643 29.5079 33.7976 36.6667 24.9802 36.6667C16.1707 36.6667 9.01192 29.5 9.01192 20.6984V3.07143H9.01986ZM9.01986 38.1905V27.3413C11.631 33.5873 17.8056 37.9921 25.004 37.9921C32.1865 37.9921 38.3611 33.5873 40.9722 27.3413V38.1825C40.9722 39.1429 40.1945 39.9206 39.2341 39.9206H39.1548H10.8373H10.758C9.79764 39.9206 9.01986 39.1429 9.01986 38.1905ZM11.758 41.254H38.2341L36.9326 45.1905H35.8453H32.6468H17.3453H14.1468H13.0595L11.758 41.254Z" fill="#4C4F54"/>
<path d="M17.1629 25.9601C18.8058 28.5633 21.7026 30.3014 24.9963 30.3014C28.2899 30.3014 31.1788 28.5712 32.8217 25.9681C32.8375 25.9443 32.8534 25.9284 32.8614 25.9046C33.7423 24.4839 34.2582 22.8252 34.2582 21.0316C34.2582 19.2379 33.7423 17.5792 32.8614 16.1585C32.8534 16.1347 32.8375 16.1189 32.8217 16.0951C31.1788 13.4998 28.2899 11.7617 24.9963 11.7617C21.6947 11.7617 18.8058 13.4998 17.1629 16.103C17.155 16.1189 17.1391 16.1347 17.1312 16.1506C16.2502 17.5712 15.7344 19.23 15.7344 21.0236C15.7344 22.8173 16.2502 24.476 17.1312 25.8966C17.1391 25.9284 17.155 25.9443 17.1629 25.9601ZM18.1312 17.0871H24.3375V20.3728H17.0995C17.1947 19.1824 17.5598 18.0712 18.1312 17.0871ZM32.8931 20.3728H25.655V17.0871H31.8614C32.4328 18.0712 32.7979 19.1824 32.8931 20.3728ZM31.8614 24.9919H25.655V21.7062H32.8931C32.7979 22.8966 32.4328 24.0078 31.8614 24.9919ZM24.3296 21.7062V24.9919H18.1233C17.5518 24.0078 17.1947 22.8966 17.0915 21.7062H24.3296ZM19.0915 26.3252H24.3296V28.9443C22.2582 28.7697 20.409 27.7935 19.0915 26.3252ZM25.6629 28.9443V26.3252H30.901C29.5836 27.7935 27.7344 28.7697 25.6629 28.9443ZM30.901 15.7538H25.6629V13.1347C27.7344 13.3093 29.5836 14.2855 30.901 15.7538ZM24.3296 13.1427V15.7617H19.0915C20.409 14.2855 22.2582 13.3093 24.3296 13.1427Z" fill="#4C4F54"/>
<path d="M16.6393 7.65169H17.806C18.1711 7.65169 18.4727 7.35011 18.4727 6.98503C18.4727 6.61995 18.1711 6.31836 17.806 6.31836H16.6393C16.2742 6.31836 15.9727 6.61995 15.9727 6.98503C15.9727 7.35011 16.2742 7.65169 16.6393 7.65169Z" fill="#4C4F54"/>
<path d="M20.2497 7.65169H21.4163C21.7814 7.65169 22.083 7.35011 22.083 6.98503C22.083 6.61995 21.7814 6.31836 21.4163 6.31836H20.2497C19.8846 6.31836 19.583 6.61995 19.583 6.98503C19.583 7.35011 19.8767 7.65169 20.2497 7.65169Z" fill="#4C4F54"/>
<path d="M23.8542 7.65169H25.0208C25.3859 7.65169 25.6875 7.35011 25.6875 6.98503C25.6875 6.61995 25.3859 6.31836 25.0208 6.31836H23.8542C23.4891 6.31836 23.1875 6.61995 23.1875 6.98503C23.1875 7.35011 23.4812 7.65169 23.8542 7.65169Z" fill="#4C4F54"/>
</svg>
