<svg width="51" height="50" viewBox="0 0 51 50" fill="none" xmlns="http://www.w3.org/2000/svg">
<path d="M6.27852 17.8169V46.3739C6.27649 47.3333 6.65454 48.252 7.33135 48.9309C8.00616 49.6118 8.92485 49.9939 9.88214 49.9959L31.8946 50C33.9007 50.002 35.5328 48.3841 35.547 46.3781V46.1382H41.7077C45.2483 46.1382 48.1488 43.3049 48.1488 39.7642V18.2643C48.1488 14.7237 45.2484 11.8903 41.7077 11.8903H35.547V10.9066C35.547 10.8985 35.5307 10.8924 35.5307 10.8842C35.5307 10.8761 35.5246 10.872 35.5246 10.8659V10.8639C35.5165 7.38829 32.6974 4.57525 29.2219 4.57317H21.7261V3.4553H23.5371C24.4335 3.4553 25.1814 2.76426 25.1814 1.86789V1.62602C25.1713 0.725595 24.4395 0 23.5371 0H18.7485C18.3216 0.0020324 17.9111 0.174798 17.6123 0.479678C17.3115 0.784559 17.1468 1.19716 17.1529 1.62601V1.86788C17.1489 2.29064 17.3155 2.6992 17.6163 2.99798C17.9172 3.29676 18.3257 3.46139 18.7485 3.4553H20.5066V4.57316H13.0654C9.78492 4.57316 7.08375 7.11381 6.79705 10.2645H3.45353C3.24011 10.2686 3.04296 10.3844 2.93524 10.5694C2.82752 10.7543 2.82345 10.984 2.92508 11.171L6.27852 17.8169ZM35.5469 15.3453H41.7076C43.3092 15.3575 44.5998 16.6624 44.5917 18.264V39.7639C44.5998 41.3655 43.3092 42.6724 41.7076 42.6826H35.5469V15.3453ZM35.5469 43.9024H41.7076C43.9819 43.8902 45.8193 42.0406 45.8112 39.7642V18.2643C45.8193 15.9899 43.9819 14.1383 41.7076 14.1261H35.5469V13.1098H41.7076C44.5754 13.1098 46.929 15.3964 46.929 18.2643V39.7642C46.929 42.6341 44.5754 44.9186 41.7076 44.9186H35.5469V43.9024ZM34.3273 46.378C34.3131 47.7113 33.2277 48.7825 31.8944 48.7805L9.88199 48.7764H9.88402C9.24782 48.7744 8.64013 48.5203 8.19296 48.0711C7.7458 47.6199 7.49583 47.0101 7.49786 46.3739V44.9756L34.3269 44.9796L34.3273 46.378ZM18.7784 2.23558C18.5548 2.23558 18.3719 2.05266 18.3719 1.82908V1.62583C18.3719 1.40225 18.5548 1.21932 18.7784 1.21932H23.5549C23.6626 1.21932 23.7662 1.262 23.8415 1.33924C23.9187 1.41444 23.9614 1.5181 23.9614 1.62583V1.82908C23.9614 1.9368 23.9187 2.04046 23.8415 2.11566C23.7662 2.1929 23.6626 2.23558 23.5549 2.23558H18.7784ZM13.0652 5.79248H29.2219C31.793 5.78842 33.9597 7.71118 34.2605 10.2641H8.02671C8.32753 7.71124 10.4941 5.78842 13.0652 5.79248ZM34.3273 11.4838V43.7623L7.49827 43.7562V17.6727C7.49217 17.5711 7.46575 17.4715 7.41697 17.3821L4.44341 11.4837L34.3273 11.4838Z" fill="#4C4F54"/>
<path d="M20.0999 38.4597C22.0572 38.4597 23.6466 36.8764 23.6568 34.919V23.053C23.6568 21.0896 22.0633 19.4961 20.0999 19.4961C18.1365 19.4961 16.543 21.0896 16.543 23.053V34.919C16.5531 36.8764 18.1426 38.4597 20.0999 38.4597ZM17.7625 23.0534C17.7625 21.7627 18.8092 20.7159 20.0999 20.7159C21.3905 20.7159 22.4373 21.7627 22.4373 23.0534V28.3544H17.7625V23.0534ZM17.7625 29.5736H22.4373V34.9189C22.4373 36.2096 21.3905 37.2563 20.0999 37.2563C18.8092 37.2563 17.7625 36.2096 17.7625 34.9189V29.5736Z" fill="#4C4F54"/>
<path d="M9.53067 30.9876C9.86807 30.9876 10.1404 30.7132 10.1404 30.3778V22.6723C10.1404 22.3369 9.86808 22.0625 9.53067 22.0625C9.19327 22.0625 8.9209 22.3369 8.9209 22.6723V30.3778C8.9209 30.7132 9.19326 30.9876 9.53067 30.9876Z" fill="#4C4F54"/>
<path d="M9.53067 21.2113C9.86807 21.2113 10.1404 20.939 10.1404 20.6016V20.1097V20.1117C10.1404 19.7743 9.86808 19.502 9.53067 19.502C9.19327 19.502 8.9209 19.7743 8.9209 20.1117V20.6036V20.6016C8.9209 20.939 9.19326 21.2113 9.53067 21.2113Z" fill="#4C4F54"/>
</svg>
