<svg width="50" height="50" viewBox="0 0 50 50" fill="none" xmlns="http://www.w3.org/2000/svg">
<path fill-rule="evenodd" clip-rule="evenodd" d="M24.9921 38.7654C21.0924 38.7654 18.0449 36.7422 18.0449 34.162C18.0449 32.9012 18.7779 31.7283 20.1561 30.8487C21.4462 30.0277 23.1761 29.5586 24.994 29.5586C26.8119 29.5586 28.5419 30.0277 29.8614 30.8487C31.2394 31.7283 32.0018 32.9012 32.0018 34.162C32.0018 36.7422 28.9231 38.7654 24.996 38.7654H24.9921ZM24.9921 30.5576C21.7668 30.5576 19.0127 32.1996 19.0127 34.1641C19.0127 36.1579 21.7102 37.7706 24.9921 37.7706C28.3348 37.7706 31.0301 36.1579 31.0301 34.1641C31.0301 33.2551 30.4144 32.3755 29.3588 31.6718C28.186 30.9388 26.6613 30.5576 24.99 30.5576L24.9921 30.5576Z" fill="#4C4F54"/>
<path fill-rule="evenodd" clip-rule="evenodd" d="M31.4982 34.6617C31.4689 34.6617 31.4396 34.6617 31.4102 34.6324C31.1463 34.6031 30.9704 34.3392 31.0291 34.0753V34.046C31.0584 33.958 31.0584 33.958 31.0291 33.8407V32.3746C31.0291 31.495 30.7065 30.1463 29.8269 29.032C28.7713 27.654 27.1294 26.9502 24.9889 26.9502C22.8778 26.9502 21.2652 27.6539 20.1803 29.032C19.33 30.1463 19.0074 31.495 19.0074 32.3746C19.0074 33.3129 18.9781 33.6648 18.9781 33.8407V33.8993V33.9287V33.958C19.066 34.2219 18.9194 34.4858 18.6556 34.5444C18.3917 34.6324 18.1278 34.4858 18.0398 34.2219V34.1632C17.9811 33.9873 17.9811 33.9287 18.0105 33.7528C18.0105 33.6061 18.0398 33.2836 18.0398 32.3453C18.0398 30.5861 19.2713 25.9551 24.987 25.9551C28.0364 25.9551 29.737 27.2745 30.6147 28.4181C31.6409 29.7375 31.9927 31.3209 31.9927 32.3471C31.9927 33.256 32.0221 33.6372 32.0221 33.7838C32.0221 33.9891 32.0221 34.0184 31.9927 34.2236C31.9341 34.4875 31.7289 34.6635 31.4943 34.6635L31.4982 34.6617Z" fill="#4C4F54"/>
<path fill-rule="evenodd" clip-rule="evenodd" d="M18.5113 32.5504C18.4527 32.5504 18.3647 32.5211 18.3061 32.4917L2.27135 24.2545C1.27443 23.7267 0.512103 22.8177 0.189537 21.6742C-0.162313 20.4721 -0.0157122 19.1819 0.60003 18.0971C1.24511 17.0122 2.30063 16.2205 3.53215 15.9273C4.67569 15.6635 5.84851 15.8394 6.78678 16.4551L22.4697 26.5394C22.675 26.686 22.7629 26.9793 22.6163 27.2138C22.4697 27.4484 22.1472 27.5071 21.9419 27.3604L6.25898 17.2761C5.52597 16.807 4.6463 16.6604 3.76667 16.8656C2.79908 17.1002 1.94878 17.7159 1.45032 18.5956C0.981179 19.4459 0.863883 20.4721 1.12779 21.4104C1.39167 22.29 1.94876 22.9937 2.74046 23.3749L18.7457 31.6122C19.0095 31.7295 19.0975 32.0227 18.9802 32.2573C18.8629 32.4332 18.6872 32.5504 18.5113 32.5504Z" fill="#4C4F54"/>
<path fill-rule="evenodd" clip-rule="evenodd" d="M31.469 32.5497C31.2931 32.5497 31.1172 32.4325 31.0292 32.2859C30.9119 32.022 30.9999 31.7288 31.2638 31.6115L47.269 23.3742C48.0606 22.9637 48.647 22.2599 48.8816 21.3803C49.1748 20.442 49.0282 19.4158 48.5591 18.5948C48.0606 17.7445 47.2397 17.1288 46.3014 16.8942C45.3924 16.6597 44.4835 16.8063 43.7504 17.2754L28.0675 27.3597C27.8623 27.5063 27.5397 27.4477 27.3931 27.2131C27.2465 26.9785 27.3345 26.6853 27.5397 26.5387L43.2226 16.4544C44.1902 15.8386 45.3631 15.6334 46.5359 15.9266C47.7381 16.2198 48.7936 17.0115 49.3801 18.0963C49.9958 19.1519 50.1717 20.442 49.8199 21.6442C49.4974 22.7877 48.7643 23.6967 47.7381 24.2537L31.7034 32.491C31.6154 32.5203 31.557 32.5497 31.469 32.5497Z" fill="#4C4F54"/>
<path fill-rule="evenodd" clip-rule="evenodd" d="M45.833 47.8228C45.1 47.8228 44.3962 47.6176 43.7805 47.2364L28.9753 37.6795C28.77 37.5329 28.6821 37.2104 28.8287 37.0051C28.9753 36.7705 29.2978 36.7119 29.5031 36.8585L44.3083 46.4154C44.9533 46.8259 45.7743 46.9432 46.566 46.7672C47.4163 46.5327 48.1493 45.9756 48.5891 45.2132C49.029 44.4802 49.1463 43.5712 48.9117 42.7209C48.6771 41.9292 48.1787 41.2842 47.4749 40.903L31.2641 32.6072C31.0295 32.4606 30.9416 32.1673 31.0588 31.9328C31.1761 31.6982 31.4693 31.6102 31.7039 31.7275L47.9148 40.0529C48.853 40.5513 49.5275 41.4016 49.8206 42.4572C50.1432 43.5421 49.9966 44.7442 49.4395 45.7118C48.853 46.7088 47.8854 47.4418 46.7713 47.7057C46.4781 47.7936 46.1555 47.8228 45.833 47.8228Z" fill="#4C4F54"/>
<path fill-rule="evenodd" clip-rule="evenodd" d="M4.20702 47.823C3.88449 47.823 3.56194 47.7936 3.26875 47.7057C2.12521 47.4418 1.15761 46.7088 0.571227 45.7118C0.0141175 44.7442 -0.161777 43.5421 0.160733 42.4572C0.453945 41.4016 1.15765 40.5513 2.09593 40.0529L18.3068 31.7275C18.5414 31.6102 18.8346 31.6982 18.9519 31.9328C19.0692 32.1966 18.9812 32.4899 18.7466 32.6072L2.53576 40.9325C1.83208 41.2844 1.33362 41.9294 1.09903 42.7211C0.864458 43.5714 0.981745 44.4803 1.42156 45.2134C1.86137 46.0051 2.6237 46.5622 3.47405 46.7674C4.2657 46.9434 5.0574 46.8261 5.70244 46.4156L20.5076 36.8587C20.7422 36.7121 21.0354 36.7707 21.182 37.0053C21.3287 37.2399 21.27 37.5331 21.0354 37.6797L6.23023 47.2366C5.61448 47.6178 4.91075 47.823 4.20702 47.823Z" fill="#4C4F54"/>
<path fill-rule="evenodd" clip-rule="evenodd" d="M29.5039 26.3636C29.24 26.3636 29.0348 26.1291 29.0348 25.8652V25.572C29.0348 23.6954 27.5101 22.2 25.6628 22.2H24.3434C22.4962 22.2 21.0008 23.6954 21.0008 25.572V25.8652C21.0008 26.1291 20.7955 26.3636 20.5023 26.3636C20.2385 26.3636 20.0332 26.1291 20.0332 25.8652V25.572C20.0332 23.1676 21.9684 21.2031 24.3434 21.2031H25.6628C28.0672 21.2031 30.0024 23.1676 30.0024 25.572V25.8652C30.0024 26.1291 29.7678 26.3636 29.5039 26.3636Z" fill="#4C4F54"/>
<path fill-rule="evenodd" clip-rule="evenodd" d="M26.9255 22.4358C26.6616 22.4358 26.4563 22.2012 26.4563 21.9373V8.62734C26.4563 8.36345 26.6616 8.1582 26.9255 8.1582C27.2187 8.1582 27.4239 8.36345 27.4239 8.62734V21.9373C27.4239 22.2012 27.2187 22.4358 26.9255 22.4358ZM23.0551 22.4358C22.7912 22.4358 22.5859 22.2012 22.5859 21.9373V8.62734C22.5859 8.36345 22.7912 8.1582 23.0551 8.1582C23.3483 8.1582 23.5535 8.36345 23.5535 8.62734V21.9373C23.5535 22.2012 23.3483 22.4358 23.0551 22.4358Z" fill="#4C4F54"/>
<path fill-rule="evenodd" clip-rule="evenodd" d="M26.9256 9.12686H23.0552C21.384 9.12686 20.0352 7.74878 20.0352 6.07745V2.64687C20.0352 2.38298 20.2404 2.17773 20.5043 2.17773C20.7975 2.17773 21.0027 2.38298 21.0027 2.64687V6.07745C21.0027 7.22099 21.941 8.15926 23.0552 8.15926H26.9256C28.0985 8.15926 29.0368 7.22099 29.0368 6.07745V2.64687C29.0368 2.38298 29.242 2.17773 29.5059 2.17773C29.7991 2.17773 30.0044 2.38298 30.0044 2.64687V6.07745C30.0044 7.74873 28.6262 9.12686 26.9256 9.12686Z" fill="#4C4F54"/>
<path fill-rule="evenodd" clip-rule="evenodd" d="M39.8831 3.14728H10.1576C9.86442 3.14728 9.65918 2.94203 9.65918 2.64882C9.65918 2.38494 9.86443 2.17969 10.1576 2.17969H39.8831C40.1763 2.17969 40.3816 2.38494 40.3816 2.64882C40.3816 2.94204 40.147 3.14728 39.8831 3.14728Z" fill="#4C4F54"/>
<path fill-rule="evenodd" clip-rule="evenodd" d="M30.4724 29.5892C30.3258 29.5892 30.1499 29.5012 30.0619 29.3546C29.9153 29.1201 30.0033 28.8269 30.2378 28.6802L35.5722 25.4549C35.8068 25.3083 36.1 25.367 36.2466 25.6015C36.3932 25.8361 36.3053 26.1293 36.0707 26.2759L30.7363 29.5012C30.6484 29.5599 30.5604 29.5892 30.4724 29.5892Z" fill="#4C4F54"/>
<path fill-rule="evenodd" clip-rule="evenodd" d="M35.9831 38.4712C35.9245 38.4712 35.8365 38.4418 35.7486 38.3832L31.0279 35.6564C30.7933 35.5391 30.7053 35.2459 30.8519 35.0113C30.9986 34.7767 31.2918 34.6887 31.5264 34.8353L36.247 37.5622C36.4816 37.6795 36.5403 37.9727 36.423 38.2073C36.335 38.3832 36.1591 38.4712 35.9831 38.4712Z" fill="#4C4F54"/>
<path fill-rule="evenodd" clip-rule="evenodd" d="M13.4699 38.823C13.294 38.823 13.118 38.7351 13.0301 38.5591C12.9128 38.3246 13.0007 38.0314 13.206 37.9141L18.5114 34.8646C18.7459 34.718 19.0685 34.806 19.1858 35.0406C19.3031 35.2751 19.2444 35.5684 19.0098 35.6856L13.7045 38.7351C13.6165 38.7937 13.5285 38.823 13.4699 38.823Z" fill="#4C4F54"/>
<path fill-rule="evenodd" clip-rule="evenodd" d="M19.6843 29.3546C19.6256 29.3546 19.5376 29.3253 19.4497 29.2666L13.4703 25.8067C13.2357 25.6895 13.1477 25.3962 13.2943 25.1617C13.4409 24.9271 13.7341 24.8391 13.9687 24.9857L19.9482 28.4456C20.1827 28.5629 20.2414 28.8561 20.1241 29.0907C20.0361 29.2666 19.8602 29.3546 19.6843 29.3546Z" fill="#4C4F54"/>
<path fill-rule="evenodd" clip-rule="evenodd" d="M24.9912 36.5645C23.056 36.5645 21.5312 35.5089 21.5312 34.1602C21.5312 32.87 23.0853 31.7852 24.9912 31.7852C26.9557 31.7852 28.4804 32.8407 28.4804 34.1602C28.4804 35.5089 26.9557 36.5645 24.9912 36.5645ZM24.9912 32.7821C23.5251 32.7821 22.4988 33.5151 22.4988 34.1602C22.4988 34.9225 23.6717 35.5676 24.9912 35.5676C26.3692 35.5676 27.5128 34.9225 27.5128 34.1602C27.5128 33.5151 26.4865 32.7821 24.9912 32.7821Z" fill="#4C4F54"/>
<path fill-rule="evenodd" clip-rule="evenodd" d="M24.992 38.7648C21.0923 38.7648 18.0448 36.7416 18.0448 34.1614C18.0448 32.9006 18.7778 31.7277 20.1559 30.8481C21.446 30.0271 23.176 29.558 24.9939 29.558C26.8118 29.558 28.5417 30.0271 29.8612 30.8481C31.2393 31.7277 32.0016 32.9006 32.0016 34.1614C32.0016 36.7416 28.9229 38.7648 24.9959 38.7648H24.992ZM24.992 30.557C21.7667 30.557 19.0126 32.1989 19.0126 34.1635C19.0126 36.1573 21.7101 37.7699 24.992 37.7699C28.3346 37.7699 31.03 36.1573 31.03 34.1635C31.03 33.2545 30.4142 32.3749 29.3587 31.6712C28.1858 30.9382 26.6612 30.5569 24.9899 30.5569L24.992 30.557Z" fill="#4C4F54"/>
<path fill-rule="evenodd" clip-rule="evenodd" d="M31.4993 34.6619C31.47 34.6619 31.4407 34.6619 31.4114 34.6326C31.1475 34.6032 30.9716 34.3394 31.0302 34.0755V34.0461C31.0595 33.9582 31.0595 33.9582 31.0302 33.8409V32.3748C31.0302 31.4952 30.7077 30.1464 29.8281 29.0322C28.7725 27.6541 27.1306 26.9504 24.9901 26.9504C22.8789 26.9504 21.2663 27.6541 20.1814 29.0322C19.3311 30.1464 19.0086 31.4952 19.0086 32.3748C19.0086 33.3131 18.9792 33.6649 18.9792 33.8409V33.9582C19.0672 34.2221 18.9206 34.486 18.6567 34.5446C18.3928 34.6326 18.1289 34.486 18.0409 34.2221V34.1634C17.9823 33.9875 17.9823 33.9289 18.0116 33.7529C18.0116 33.6063 18.0409 33.2838 18.0409 32.3455C18.0409 32.0627 18.0728 31.7057 18.1499 31.3057C18.2827 30.6174 18.5496 29.8018 19.0195 29.0174C19.1803 28.7491 19.3648 28.4844 19.5758 28.2298C19.998 27.7203 20.5263 27.2509 21.1829 26.8725C21.5029 26.688 21.8534 26.5252 22.2369 26.3899C23.0121 26.1164 23.9221 25.9553 24.9882 25.9553C26.0793 25.9553 26.9978 26.1242 27.7676 26.3936C29.1492 26.877 30.0522 27.6839 30.6158 28.4182C31.6421 29.7377 31.9939 31.321 31.9939 32.3473C31.9939 33.2562 32.0232 33.6374 32.0232 33.784C32.0232 33.9893 32.0232 34.0186 31.9939 34.2238C31.9353 34.4877 31.73 34.6637 31.4954 34.6637L31.4993 34.6619Z" fill="#4C4F54"/>
<path fill-rule="evenodd" clip-rule="evenodd" d="M18.5116 32.5506C18.4529 32.5506 18.365 32.5213 18.3063 32.492L2.2716 24.2547C1.27468 23.7269 0.512349 22.818 0.189783 21.6745C-0.162067 20.4723 -0.0154662 19.1822 0.600276 18.0973C1.24536 17.0124 2.30088 16.2208 3.53239 15.9276C4.67594 15.6637 5.84875 15.8396 6.78702 16.4554L21.002 25.5958L22.2369 26.3899L22.4699 26.5397C22.6752 26.6863 22.7632 26.9795 22.6166 27.2141C22.4699 27.4487 22.1474 27.5073 21.9422 27.3607L21.1829 26.8725L20.3475 26.3353L20.1894 26.2336L6.25922 17.2764C5.52622 16.8073 4.64655 16.6606 3.76692 16.8659C2.79932 17.1005 1.94902 17.7162 1.45056 18.5958C0.981425 19.4461 0.864129 20.4724 1.12803 21.4106C1.39192 22.2903 1.94901 22.994 2.74071 23.3752L18.1499 31.3057L18.7459 31.6124C19.0098 31.7297 19.0977 32.0229 18.9805 32.2575C18.8632 32.4335 18.6875 32.5506 18.5116 32.5506Z" fill="#4C4F54"/>
<path fill-rule="evenodd" clip-rule="evenodd" d="M31.4698 32.5507C31.2939 32.5507 31.118 32.4334 31.03 32.2868C30.9127 32.0229 31.0007 31.7297 31.2646 31.6124L47.2697 23.3751C48.0614 22.9646 48.6478 22.2609 48.8824 21.3812C49.1756 20.443 49.029 19.4167 48.5599 18.5957C48.0614 17.7454 47.2405 17.1297 46.3022 16.8951C45.3932 16.6606 44.4843 16.8072 43.7512 17.2763L28.0683 27.3606C27.8631 27.5072 27.5405 27.4486 27.3939 27.214C27.2473 26.9794 27.3353 26.6862 27.5405 26.5396L27.7676 26.3936L29.036 25.578L43.2234 16.4553C44.191 15.8395 45.3638 15.6343 46.5367 15.9275C47.7388 16.2207 48.7944 17.0124 49.3808 18.0972C49.9966 19.1528 50.1725 20.4429 49.8207 21.6451C49.4981 22.7886 48.7651 23.6976 47.7389 24.2546L31.7041 32.4919C31.6162 32.5212 31.5578 32.5507 31.4698 32.5507Z" fill="#4C4F54"/>
<path fill-rule="evenodd" clip-rule="evenodd" d="M45.8331 47.8227C45.1001 47.8227 44.3964 47.6175 43.7806 47.2363L28.9754 37.6794C28.7702 37.5328 28.6822 37.2103 28.8288 37.005C28.9754 36.7704 29.2979 36.7118 29.5032 36.8584L44.3084 46.4153C44.9535 46.8258 45.7745 46.9431 46.5661 46.7671C47.4164 46.5326 48.1495 45.9755 48.5893 45.2131C49.0291 44.4801 49.1464 43.5711 48.9118 42.7208C48.6772 41.9291 48.1788 41.2841 47.4751 40.9029L31.2642 32.6071C31.0297 32.4605 30.9417 32.1672 31.059 31.9327C31.1763 31.6981 31.4695 31.6101 31.7041 31.7274L47.9149 40.0528C48.8532 40.5512 49.5276 41.4015 49.8208 42.4571C50.1433 43.542 49.9967 44.7441 49.4396 45.7117C48.8532 46.7086 47.8856 47.4417 46.7714 47.7056C46.4782 47.7935 46.1556 47.8227 45.8331 47.8227Z" fill="#4C4F54"/>
<path fill-rule="evenodd" clip-rule="evenodd" d="M4.20702 47.8227C3.88449 47.8227 3.56194 47.7934 3.26875 47.7054C2.12521 47.4416 1.15761 46.7085 0.571227 45.7116C0.0141175 44.744 -0.161777 43.5419 0.160733 42.457C0.453945 41.4014 1.15765 40.5511 2.09593 40.0526L18.3068 31.7273C18.5414 31.61 18.8346 31.698 18.9519 31.9325C19.0692 32.1964 18.9812 32.4896 18.7466 32.6069L2.53576 40.9323C1.83208 41.2841 1.33362 41.9292 1.09903 42.7209C0.864458 43.5712 0.981745 44.4801 1.42156 45.2132C1.86137 46.0048 2.6237 46.5619 3.47405 46.7672C4.2657 46.9431 5.0574 46.8258 5.70244 46.4153L20.5076 36.8585C20.7422 36.7119 21.0354 36.7705 21.182 37.0051C21.3287 37.2397 21.27 37.5329 21.0354 37.6795L6.23024 47.2364C5.61448 47.6175 4.91075 47.8227 4.20702 47.8227Z" fill="#4C4F54"/>
<path fill-rule="evenodd" clip-rule="evenodd" d="M29.5052 26.3641C29.2413 26.3641 29.036 26.1295 29.036 25.8656V25.578V25.5724C29.036 24.1393 28.1468 22.9285 26.9037 22.4363C26.8256 22.4054 26.7462 22.3773 26.6654 22.3521C26.3484 22.2535 26.012 22.2005 25.6641 22.2005H24.3447C23.9898 22.2005 23.6479 22.2557 23.3271 22.3581C23.256 22.3809 23.1859 22.4059 23.117 22.4332C21.8779 22.9234 21.002 24.1363 21.002 25.5724V25.5958V25.8656C21.002 26.1295 20.7968 26.3641 20.5036 26.3641C20.4486 26.3641 20.3961 26.3539 20.3475 26.3353C20.2882 26.3127 20.2347 26.2777 20.1894 26.2336C20.0937 26.1406 20.0345 26.0073 20.0345 25.8656V25.5724C20.0345 23.1681 21.9696 21.2035 24.3447 21.2035H25.6641C28.0684 21.2035 30.0036 23.1681 30.0036 25.5724V25.8656C30.0036 26.1295 29.769 26.3641 29.5052 26.3641Z" fill="#4C4F54"/>
<path fill-rule="evenodd" clip-rule="evenodd" d="M26.925 22.4368C26.9179 22.4368 26.9108 22.4366 26.9037 22.4363C26.8151 22.432 26.7338 22.4013 26.6654 22.3521C26.5381 22.2607 26.4559 22.1054 26.4559 21.9383V8.62836C26.4559 8.36448 26.6611 8.15923 26.925 8.15923C27.2182 8.15923 27.4235 8.36448 27.4235 8.62836V21.9383C27.4235 22.2022 27.2182 22.4368 26.925 22.4368ZM23.0546 22.4368C22.7908 22.4368 22.5855 22.2022 22.5855 21.9383V8.62836C22.5855 8.36448 22.7908 8.15923 23.0546 8.15923C23.3479 8.15923 23.5531 8.36448 23.5531 8.62836V21.9383C23.5531 22.1091 23.4672 22.2675 23.3271 22.3581C23.2664 22.3974 23.1955 22.4239 23.117 22.4332C23.0967 22.4356 23.0759 22.4368 23.0546 22.4368Z" fill="#4C4F54"/>
<path fill-rule="evenodd" clip-rule="evenodd" d="M26.9251 9.12686H23.0547C21.3834 9.12686 20.0346 7.74878 20.0346 6.07745V2.64687C20.0346 2.38298 20.2398 2.17773 20.5037 2.17773C20.7969 2.17773 21.0022 2.38298 21.0022 2.64687V3.14746V6.07745C21.0022 7.22099 21.9404 8.15923 23.0546 8.15923H26.925C28.0979 8.15923 29.0362 7.22099 29.0362 6.07745V3.14746V2.64687C29.0362 2.38298 29.2414 2.17773 29.5053 2.17773C29.7985 2.17773 30.0038 2.38298 30.0038 2.64687V6.07745C30.0038 7.74873 28.6257 9.12686 26.9251 9.12686Z" fill="#4C4F54"/>
<path fill-rule="evenodd" clip-rule="evenodd" d="M39.8828 3.14746H29.0362H21.0022H10.1573C9.86408 3.14746 9.65884 2.94222 9.65884 2.64901C9.65884 2.38512 9.86409 2.17987 10.1573 2.17987H39.8828C40.176 2.17987 40.3812 2.38512 40.3812 2.64901C40.3812 2.94222 40.1467 3.14746 39.8828 3.14746Z" fill="#4C4F54"/>
<path fill-rule="evenodd" clip-rule="evenodd" d="M30.4729 29.5892C30.3263 29.5892 30.1504 29.5013 30.0625 29.3547C29.9158 29.1201 30.0038 28.8269 30.2384 28.6803L35.5728 25.4549C35.8073 25.3083 36.1006 25.367 36.2472 25.6015C36.3938 25.8361 36.3058 26.1293 36.0713 26.276L30.7369 29.5013C30.6489 29.5599 30.5609 29.5892 30.4729 29.5892Z" fill="#4C4F54"/>
<path fill-rule="evenodd" clip-rule="evenodd" d="M35.9835 38.4715C35.9248 38.4715 35.8369 38.4422 35.7489 38.3836L31.0282 35.6567C30.7936 35.5394 30.7057 35.2462 30.8523 35.0116C30.9989 34.7771 31.2921 34.6891 31.5267 34.8357L36.2474 37.5626C36.482 37.6798 36.5406 37.9731 36.4233 38.2076C36.3353 38.3836 36.1594 38.4715 35.9835 38.4715Z" fill="#4C4F54"/>
<path fill-rule="evenodd" clip-rule="evenodd" d="M13.4705 38.8233C13.2945 38.8233 13.1186 38.7353 13.0306 38.5594C12.9134 38.3248 13.0013 38.0316 13.2066 37.9143L18.5119 34.8649C18.7465 34.7183 19.069 34.8063 19.1863 35.0408C19.3036 35.2754 19.245 35.5686 19.0104 35.6859L13.705 38.7353C13.6171 38.794 13.5291 38.8233 13.4705 38.8233Z" fill="#4C4F54"/>
<path fill-rule="evenodd" clip-rule="evenodd" d="M19.6847 29.3545C19.626 29.3545 19.538 29.3252 19.4501 29.2665L19.0195 29.0174L13.4707 25.8066C13.2361 25.6893 13.1481 25.3961 13.2947 25.1615C13.4413 24.927 13.7345 24.839 13.9691 24.9856L19.5758 28.2298L19.9486 28.4455C20.1831 28.5628 20.2418 28.856 20.1245 29.0906C20.0365 29.2665 19.8606 29.3545 19.6847 29.3545Z" fill="#4C4F54"/>
<path fill-rule="evenodd" clip-rule="evenodd" d="M24.9919 36.5655C23.0567 36.5655 21.532 35.5099 21.532 34.1611C21.532 32.871 23.0861 31.7861 24.9919 31.7861C26.9564 31.7861 28.4812 32.8417 28.4812 34.1611C28.4812 35.5099 26.9564 36.5655 24.9919 36.5655ZM24.9919 32.783C23.5259 32.783 22.4996 33.516 22.4996 34.1611C22.4996 34.9235 23.6725 35.5685 24.9919 35.5685C26.37 35.5685 27.5136 34.9235 27.5136 34.1611C27.5136 33.516 26.4873 32.783 24.9919 32.783Z" fill="#4C4F54"/>
</svg>
