<svg width="51" height="50" viewBox="0 0 51 50" fill="none" xmlns="http://www.w3.org/2000/svg">
<path d="M31.1825 14.2076C31.0705 14.0693 30.9037 13.9902 30.7258 13.9902C30.548 13.9902 30.3812 14.0693 30.2692 14.2076L29.795 14.7937C28.6644 16.1285 27.1189 17.9616 27.2067 19.9396V19.9374C27.2067 20.8462 27.5711 21.7156 28.2188 22.3523C28.8664 22.9889 29.7423 23.3379 30.649 23.3226H30.7258C31.6457 23.3555 32.537 23.0131 33.1999 22.3764C33.8629 21.7376 34.2383 20.8573 34.2383 19.9374C34.3196 17.9595 32.774 16.1264 31.6391 14.785L31.1825 14.2076ZM30.761 22.133H30.7324C30.1155 22.1659 29.514 21.942 29.0706 21.5139C28.6249 21.0836 28.379 20.4908 28.39 19.8739C28.3264 18.3526 29.7006 16.7236 30.7325 15.5359L30.7676 15.4942L30.7961 15.5293C31.8038 16.6994 33.1781 18.3503 33.1386 19.8739C33.1496 20.4974 32.8993 21.0967 32.447 21.527C31.9948 21.9551 31.3823 22.1769 30.761 22.133Z" fill="#4C4F54"/>
<path d="M47.6098 15.7917H45.5308V15.0496C45.5286 13.8466 44.5539 12.8741 43.3531 12.8719H42.3454V9.00809C42.3454 7.59212 41.1972 6.44395 39.7812 6.44395H12.5769C8.3662 6.40224 4.44296 8.57782 2.25002 12.1713C0.0569091 15.7673 -0.0857842 20.2502 1.87681 23.9757C3.83945 27.7011 7.61769 30.1206 11.8215 30.3466V38.7064H9.96642C8.99606 38.7064 8.21015 39.4923 8.21015 40.4626V43.558H34.7474V40.467C34.7474 39.4989 33.9615 38.7108 32.9912 38.7108H31.1361V30.3863H39.7814C41.1974 30.3863 42.3456 29.2382 42.3456 27.8222V24.808H43.3533C44.5431 24.8058 45.5112 23.8487 45.531 22.6588V21.3196H47.61C48.363 21.3526 49.0984 21.0782 49.6451 20.5578C50.1917 20.0354 50.499 19.3131 50.499 18.5579C50.499 17.8027 50.1917 17.0826 49.6451 16.5601C49.0984 16.0398 48.363 15.7632 47.61 15.7983L47.6098 15.7917ZM32.9735 39.8809V39.883C33.1294 39.883 33.2787 39.9445 33.3884 40.0543C33.4982 40.1641 33.5597 40.3133 33.5597 40.467V42.3813H9.38055V40.467C9.38055 40.1443 9.64398 39.883 9.96672 39.883H32.9847L32.9735 39.8809ZM29.9462 38.7108H12.9697V30.3863H29.9462V38.7108ZM41.1688 27.8219C41.1688 28.5881 40.5475 29.2094 39.7814 29.2094H12.577C8.72195 29.2094 5.15682 27.1524 3.22914 23.8133C1.29944 20.472 1.29944 16.3577 3.22914 13.0166C5.15665 9.6775 8.72184 7.62045 12.577 7.62045H39.7814C40.1502 7.62045 40.5036 7.76534 40.7627 8.02659C41.0239 8.28564 41.1688 8.63906 41.1688 9.0079L41.1688 27.8219ZM44.3543 22.6585C44.3521 23.2117 43.9042 23.6574 43.3532 23.6596H42.3456V14.0307H43.3532C43.6211 14.0307 43.8779 14.1405 44.0645 14.3315C44.2533 14.5225 44.3565 14.7815 44.3543 15.0493L44.3543 22.6585ZM47.61 20.1712H45.531V16.9682H47.61C48.4859 16.9682 49.195 17.6795 49.195 18.5554C49.195 19.4314 48.4859 20.1426 47.61 20.1426V20.1712Z" fill="#4C4F54"/>
<path d="M34.1614 10.4004H27.301C25.6238 10.4048 24.2649 11.7637 24.2627 13.4387V23.8313C24.2627 25.5085 25.6238 26.8696 27.301 26.8696H34.1614C35.8408 26.8696 37.1997 25.5085 37.1997 23.8313V13.4387C37.1975 11.7636 35.8386 10.4048 34.1614 10.4004ZM36.0296 23.8312C36.0274 24.8564 35.1954 25.6884 34.168 25.6928H27.3008C26.2712 25.6928 25.437 24.8586 25.4326 23.8312V13.4386C25.437 12.4134 26.2691 11.5813 27.2943 11.5769H34.1614C35.191 11.5769 36.0274 12.4112 36.0296 13.4386V23.8312Z" fill="#4C4F54"/>
<path d="M19.7031 12.0566H11.6113C11.2886 12.0566 11.0273 12.3179 11.0273 12.6428C11.0273 12.9655 11.2886 13.2268 11.6113 13.2268H19.7031C20.0258 13.2268 20.287 12.9655 20.287 12.6428C20.287 12.3179 20.0258 12.0566 19.7031 12.0566Z" fill="#4C4F54"/>
<path d="M19.7031 15.9141H11.6113C11.2886 15.9141 11.0273 16.1775 11.0273 16.5002C11.0273 16.823 11.2886 17.0864 11.6113 17.0864H19.7031C20.0258 17.0864 20.287 16.823 20.287 16.5002C20.287 16.1775 20.0258 15.9141 19.7031 15.9141Z" fill="#4C4F54"/>
<path d="M19.7031 19.7734H11.6113C11.2886 19.7734 11.0273 20.0347 11.0273 20.3574C11.0273 20.6823 11.2886 20.9436 11.6113 20.9436H19.7031C20.0258 20.9436 20.287 20.6823 20.287 20.3574C20.287 20.0347 20.0258 19.7734 19.7031 19.7734Z" fill="#4C4F54"/>
<path d="M19.7031 23.6367H11.6113C11.2886 23.6367 11.0273 23.898 11.0273 24.2207C11.0273 24.5456 11.2886 24.8069 11.6113 24.8069H19.7031C20.0258 24.8069 20.287 24.5456 20.287 24.2207C20.287 23.898 20.0258 23.6367 19.7031 23.6367Z" fill="#4C4F54"/>
</svg>
