<svg width="50" height="50" viewBox="0 0 50 50" fill="none" xmlns="http://www.w3.org/2000/svg">
<path fill-rule="evenodd" clip-rule="evenodd" d="M17.3005 1.09164C16.0011 1.09164 14.944 2.14928 14.944 3.44787V41.9288C14.944 43.2274 16.0011 44.285 17.3005 44.285H44.9854C46.2847 44.285 47.3418 43.2275 47.3418 41.9288V3.44787C47.3418 2.14928 46.2847 1.09174 44.9854 1.09174L17.3005 1.09164ZM44.9854 45.3765H17.3005C15.3993 45.3765 13.8525 43.8301 13.8525 41.9288V3.44781C13.8525 1.54651 15.3993 0 17.3005 0H44.9854C46.8866 0 48.4333 1.54651 48.4333 3.44784V41.9288C48.4333 43.83 46.8866 45.3766 44.9854 45.3765Z" fill="#4C4F54"/>
<path fill-rule="evenodd" clip-rule="evenodd" d="M22.7852 50.0003H19.8273C18.7212 50.0003 17.8213 49.101 17.8213 47.9945L17.8213 44.8309C17.8213 44.5296 18.0657 44.2852 18.3672 44.2852C18.6686 44.2852 18.913 44.5296 18.913 44.831V47.9944C18.913 48.4994 19.3231 48.9088 19.8273 48.9088L22.7852 48.9087C23.2895 48.9087 23.6996 48.4994 23.6996 47.9945L23.6997 44.8309C23.6997 44.5296 23.944 44.2852 24.2455 44.2852C24.547 44.2852 24.7914 44.5296 24.7914 44.831V47.9944C24.7914 49.1009 23.8914 50.0004 22.7852 50.0003Z" fill="#4C4F54"/>
<path fill-rule="evenodd" clip-rule="evenodd" d="M42.4581 50.0003H39.5004C38.3942 50.0003 37.4941 49.101 37.4941 47.9945V44.8309C37.4941 44.5296 37.7386 44.2852 38.0401 44.2852C38.3415 44.2852 38.5859 44.5296 38.5859 44.831L38.5859 47.9944C38.5859 48.4994 38.9961 48.9088 39.5004 48.9088L42.4581 48.9087C42.9623 48.9087 43.3726 48.4994 43.3726 47.9945V44.8309C43.3726 44.5296 43.617 44.2852 43.9184 44.2852C44.2198 44.2852 44.4642 44.5296 44.4642 44.831L44.4643 47.9944C44.4643 49.1009 43.5643 50.0004 42.4581 50.0003Z" fill="#4C4F54"/>
<path fill-rule="evenodd" clip-rule="evenodd" d="M20.7025 5.36322C19.8833 5.36322 19.2167 6.02962 19.2167 6.84835V34.2944C19.2167 35.1131 19.8833 35.7795 20.7025 35.7795L41.5851 35.7795C42.4045 35.7795 43.0709 35.1131 43.0709 34.2944V6.84835C43.0709 6.02962 42.4045 5.36325 41.5851 5.36325L20.7025 5.36322ZM41.5851 36.8711H20.7025C19.2812 36.8711 18.125 35.7158 18.125 34.2944L18.125 6.84835C18.125 5.42796 19.2812 4.27158 20.7025 4.27158L41.5851 4.27148C43.0063 4.27148 44.1627 5.42806 44.1627 6.84835L44.1627 34.2944C44.1627 35.7158 43.0063 36.8711 41.5851 36.8711Z" fill="#4C4F54"/>
<path fill-rule="evenodd" clip-rule="evenodd" d="M43.6169 10.7713H18.6708C18.3694 10.7713 18.125 10.5269 18.125 10.2256C18.125 9.92417 18.3694 9.67972 18.6708 9.67972L43.6169 9.67969C43.9182 9.67969 44.1627 9.92424 44.1627 10.2256C44.1627 10.5268 43.9182 10.7714 43.6169 10.7713ZM43.6169 14.5001H18.6708C18.3694 14.5001 18.125 14.2556 18.125 13.9542C18.125 13.6518 18.3694 13.4084 18.6708 13.4084H43.6169C43.9182 13.4084 44.1627 13.6518 44.1627 13.9542C44.1627 14.2556 43.9182 14.5001 43.6169 14.5001Z" fill="#4C4F54"/>
<path fill-rule="evenodd" clip-rule="evenodd" d="M20.4734 39.5193C19.8893 39.5193 19.4139 39.9947 19.4139 40.5792C19.4139 41.1625 19.8892 41.6379 20.4734 41.6379C21.0576 41.6378 21.5329 41.1625 21.5329 40.5792C21.5329 39.9947 21.0576 39.5194 20.4734 39.5193ZM20.4734 42.7295C19.2873 42.7295 18.3223 41.7652 18.3223 40.5792C18.3223 39.3932 19.2872 38.4277 20.4734 38.4277C21.6595 38.4277 22.6245 39.3932 22.6245 40.5792C22.6245 41.7652 21.6595 42.7295 20.4734 42.7295Z" fill="#4C4F54"/>
<path fill-rule="evenodd" clip-rule="evenodd" d="M26.9988 39.5193C26.4146 39.5193 25.9393 39.9947 25.9393 40.5792C25.9393 41.1625 26.4146 41.6379 26.9988 41.6379C27.5829 41.6378 28.0583 41.1625 28.0583 40.5792C28.0583 39.9947 27.5829 39.5194 26.9988 39.5193ZM26.9988 42.7295C25.8127 42.7295 24.8477 41.7652 24.8477 40.5792C24.8477 39.3932 25.8127 38.4277 26.9988 38.4277C28.1848 38.4277 29.1499 39.3932 29.1499 40.5792C29.1499 41.7652 28.1848 42.7295 26.9988 42.7295Z" fill="#4C4F54"/>
<path fill-rule="evenodd" clip-rule="evenodd" d="M33.5232 39.5193C32.9391 39.5193 32.4637 39.9947 32.4637 40.5792C32.4637 41.1625 32.9391 41.6379 33.5232 41.6379C34.1074 41.6378 34.5827 41.1625 34.5827 40.5792C34.5827 39.9947 34.1074 39.5194 33.5232 39.5193ZM33.5232 42.7295C32.3371 42.7295 31.3721 41.7652 31.3721 40.5792C31.3721 39.3932 32.3371 38.4277 33.5232 38.4277C34.7094 38.4277 35.6743 39.3932 35.6743 40.5792C35.6743 41.7652 34.7094 42.7295 33.5232 42.7295Z" fill="#4C4F54"/>
<path fill-rule="evenodd" clip-rule="evenodd" d="M43.6172 41.1248H38.4443C38.1428 41.1248 37.8984 40.8804 37.8984 40.5791C37.8984 40.2765 38.1428 40.0333 38.4442 40.0333L43.6172 40.0332C43.9186 40.0332 44.163 40.2766 44.163 40.5791C44.1631 40.8803 43.9186 41.1249 43.6172 41.1248Z" fill="#4C4F54"/>
<path fill-rule="evenodd" clip-rule="evenodd" d="M43.6169 19.2537H18.6708C18.3694 19.2537 18.125 19.0094 18.125 18.708C18.125 18.4066 18.3694 18.1622 18.6708 18.1622L43.6169 18.1621C43.9182 18.1621 44.1627 18.4067 44.1627 18.708C44.1627 19.0093 43.9182 19.2538 43.6169 19.2537ZM43.6169 22.9825H18.6708C18.3694 22.9825 18.125 22.738 18.125 22.4367C18.125 22.1342 18.3694 21.8909 18.6708 21.8909L43.6169 21.8908C43.9182 21.8908 44.1627 22.1342 44.1627 22.4367C44.1627 22.738 43.9182 22.9826 43.6169 22.9825Z" fill="#4C4F54"/>
<path fill-rule="evenodd" clip-rule="evenodd" d="M43.6169 27.7363H18.6708C18.3694 27.7363 18.125 27.4918 18.125 27.1905C18.125 26.888 18.3694 26.6446 18.6708 26.6446L43.6169 26.6445C43.9182 26.6445 44.1627 26.888 44.1627 27.1905C44.1627 27.4918 43.9182 27.7363 43.6169 27.7363ZM43.6169 31.4637H18.6708C18.3694 31.4637 18.125 31.2205 18.125 30.918C18.125 30.6166 18.3694 30.3722 18.6708 30.3722L43.6169 30.3721C43.9182 30.3721 44.1627 30.6167 44.1627 30.918C44.1627 31.2204 43.9182 31.4638 43.6169 31.4637Z" fill="#4C4F54"/>
<path fill-rule="evenodd" clip-rule="evenodd" d="M14.399 42.474H12.5964C11.3015 42.474 10.248 41.4199 10.248 40.1247V34.4811C10.248 33.187 11.3015 32.1329 12.5964 32.1329L14.399 32.1328C14.7003 32.1328 14.9447 32.3774 14.9447 32.6787C14.9447 32.98 14.7003 33.2245 14.399 33.2245L12.5964 33.2244C11.9035 33.2244 11.3398 33.7885 11.3398 34.4811V40.1246C11.3398 40.8183 11.9035 41.3824 12.5964 41.3824L14.399 41.3823C14.7003 41.3823 14.9447 41.6257 14.9447 41.9282C14.9447 42.2295 14.7003 42.474 14.399 42.474Z" fill="#4C4F54"/>
<path fill-rule="evenodd" clip-rule="evenodd" d="M10.7939 37.8495H8.95185C7.09501 37.8495 5.58436 36.3384 5.58436 34.4826V29.7918C5.58436 28.1362 6.93117 26.7898 8.58658 26.7898L9.12804 26.7898C9.83846 26.7898 10.4164 26.2122 10.4164 25.5014C10.4164 24.7906 9.83843 24.2131 9.12804 24.2131L3.95127 24.213C2.63892 24.213 1.57129 23.1453 1.57129 21.833C1.57129 20.5208 2.63892 19.453 3.95127 19.453L9.12804 19.4529C9.83846 19.4529 10.4164 18.8753 10.4164 18.1646C10.4164 17.4538 9.83843 16.8762 9.12804 16.8762L8.58658 16.8762C6.93117 16.8762 5.58436 15.5299 5.58436 13.8742V7.71768C5.58436 7.41629 5.82878 7.17188 6.13023 7.17188C6.43168 7.17181 6.67607 7.41636 6.67607 7.71771V13.8741C6.67607 14.9271 7.53312 15.7846 8.58658 15.7846L9.12804 15.7845C10.4404 15.7845 11.508 16.8524 11.508 18.1646C11.508 19.4768 10.4404 20.5446 9.12804 20.5446L3.95127 20.5445C3.24091 20.5445 2.6629 21.1223 2.6629 21.833C2.6629 22.5437 3.24091 23.1214 3.95127 23.1214H9.12804C10.4404 23.1214 11.508 24.1892 11.508 25.5014C11.508 26.8137 10.4404 27.8815 9.12804 27.8815L8.58658 27.8814C7.53312 27.8814 6.67607 28.7388 6.67607 29.7919V34.4825C6.67607 35.7368 7.69696 36.758 8.95185 36.758L10.7939 36.7579C11.0953 36.7579 11.3397 37.0025 11.3397 37.3038C11.3397 37.6051 11.0953 37.8496 10.7939 37.8495Z" fill="#4C4F54"/>
<path fill-rule="evenodd" clip-rule="evenodd" d="M4.24597 3.83578V5.50396C4.24597 6.42389 4.99445 7.1722 5.91438 7.1722L6.34547 7.17214C7.26546 7.17214 8.01387 6.42395 8.01387 5.50402V3.83578H4.24597ZM6.34547 8.26374H5.91438C4.3925 8.26374 3.1543 7.02551 3.1543 5.50402V3.28988C3.1543 2.98862 3.39872 2.74417 3.70017 2.74417L8.55974 2.74414C8.86116 2.74414 9.10551 2.98866 9.10551 3.28998V5.50396C9.10551 7.02541 7.86738 8.26384 6.34547 8.26374Z" fill="#4C4F54"/>
<path fill-rule="evenodd" clip-rule="evenodd" d="M5.01267 3.83555C4.71122 3.83555 4.4668 3.59113 4.4668 3.28975V0.545705C4.4668 0.244452 4.71122 0 5.01267 0C5.31412 0 5.55853 0.244485 5.55853 0.545836V3.28965C5.55853 3.5911 5.31408 3.83558 5.01267 3.83555Z" fill="#4C4F54"/>
<path fill-rule="evenodd" clip-rule="evenodd" d="M7.24704 3.83555C6.94559 3.83555 6.70117 3.59113 6.70117 3.28975V0.545705C6.70117 0.244452 6.94559 0 7.24704 0C7.54849 0 7.79291 0.244485 7.79291 0.545836V3.28965C7.79291 3.5911 7.54849 3.83558 7.24704 3.83555Z" fill="#4C4F54"/>
<path fill-rule="evenodd" clip-rule="evenodd" d="M17.2992 1.09164C15.9998 1.09164 14.9427 2.14928 14.9427 3.44787V41.9288C14.9427 43.2274 15.9998 44.285 17.2992 44.285H44.9841C46.2834 44.285 47.3405 43.2275 47.3405 41.9288V3.44787C47.3405 2.14928 46.2834 1.09174 44.9841 1.09174L17.2992 1.09164ZM44.9841 45.3765H17.2992C15.398 45.3765 13.8512 43.8301 13.8512 41.9288V3.44781C13.8512 1.54651 15.398 0 17.2992 0H44.9841C46.8853 0 48.432 1.54651 48.432 3.44784V41.9288C48.432 43.83 46.8853 45.3766 44.9841 45.3765Z" fill="#4C4F54"/>
<path fill-rule="evenodd" clip-rule="evenodd" d="M22.7839 50H19.8261C18.72 50 17.82 49.1006 17.82 47.9941L17.8201 44.8306C17.8201 44.5293 18.0644 44.2848 18.3659 44.2848C18.6674 44.2848 18.9117 44.5293 18.9117 44.8306V47.9941C18.9117 48.499 19.3219 48.9084 19.8261 48.9084L22.7839 48.9084C23.2882 48.9084 23.6984 48.4991 23.6984 47.9941L23.6984 44.8306C23.6984 44.5293 23.9428 44.2848 24.2442 44.2848C24.5457 44.2848 24.7902 44.5293 24.7902 44.8306V47.9941C24.7902 49.1006 23.8901 50.0001 22.7839 50Z" fill="#4C4F54"/>
<path fill-rule="evenodd" clip-rule="evenodd" d="M42.457 50H39.4993C38.3931 50 37.493 49.1006 37.493 47.9941V44.8306C37.493 44.5293 37.7375 44.2848 38.039 44.2848C38.3404 44.2848 38.5848 44.5293 38.5848 44.8306L38.5848 47.9941C38.5848 48.499 38.995 48.9084 39.4993 48.9084L42.457 48.9084C42.9612 48.9084 43.3715 48.4991 43.3715 47.9941V44.8306C43.3715 44.5293 43.6159 44.2848 43.9173 44.2848C44.2187 44.2848 44.4631 44.5293 44.4631 44.8306L44.4632 47.9941C44.4632 49.1006 43.5632 50.0001 42.457 50Z" fill="#4C4F54"/>
<path fill-rule="evenodd" clip-rule="evenodd" d="M20.7002 5.36392C19.881 5.36392 19.2144 6.03031 19.2144 6.84905V10.7721V13.4092V19.254V21.8911V27.736V30.3719V34.2951C19.2144 35.1138 19.881 35.7802 20.7002 35.7802L41.5829 35.7802C42.4022 35.7802 43.0687 35.1138 43.0687 34.2951V30.3719V27.736V21.8911V19.254V13.4092V10.7721V6.84905C43.0687 6.03031 42.4022 5.36395 41.5829 5.36395L20.7002 5.36392ZM41.5829 36.8718H20.7002C19.279 36.8718 18.1227 35.7165 18.1227 34.2951L18.1228 6.84905C18.1228 5.42866 19.279 4.27228 20.7002 4.27228L41.5829 4.27218C43.0041 4.27218 44.1604 5.42876 44.1604 6.84905L44.1605 34.2951C44.1605 35.7165 43.0041 36.8718 41.5829 36.8718Z" fill="#4C4F54"/>
<path fill-rule="evenodd" clip-rule="evenodd" d="M43.6146 10.7721H43.0687H19.2144H18.6686C18.3671 10.7721 18.1227 10.5277 18.1227 10.2264C18.1228 9.92496 18.3671 9.68051 18.6686 9.68051L43.6146 9.68048C43.916 9.68048 44.1604 9.92503 44.1604 10.2264C44.1605 10.5276 43.916 10.7722 43.6146 10.7721ZM43.6146 14.5009H18.6686C18.3671 14.5009 18.1227 14.2564 18.1227 13.955C18.1228 13.6526 18.3671 13.4092 18.6686 13.4092H19.2144H43.0687H43.6146C43.916 13.4092 44.1604 13.6526 44.1604 13.955C44.1605 14.2563 43.916 14.5009 43.6146 14.5009Z" fill="#4C4F54"/>
<path fill-rule="evenodd" clip-rule="evenodd" d="M20.4713 39.519C19.8872 39.519 19.4118 39.9945 19.4118 40.5789C19.4118 41.1623 19.8871 41.6376 20.4713 41.6376C21.0555 41.6375 21.5308 41.1623 21.5308 40.5789C21.5308 39.9944 21.0555 39.5191 20.4713 39.519ZM20.4713 42.7293C19.2852 42.7293 18.3202 41.765 18.3202 40.5789C18.3202 39.3929 19.2852 38.4275 20.4713 38.4275C21.6575 38.4274 22.6225 39.3929 22.6225 40.5789C22.6225 41.7649 21.6575 42.7293 20.4713 42.7293Z" fill="#4C4F54"/>
<path fill-rule="evenodd" clip-rule="evenodd" d="M26.9966 39.519C26.4124 39.519 25.9371 39.9945 25.9371 40.5789C25.9371 41.1623 26.4124 41.6376 26.9966 41.6376C27.5807 41.6375 28.056 41.1623 28.056 40.5789C28.0561 39.9944 27.5807 39.5191 26.9966 39.519ZM26.9966 42.7293C25.8104 42.7293 24.8454 41.765 24.8454 40.5789C24.8454 39.3929 25.8104 38.4275 26.9966 38.4275C28.1826 38.4274 29.1477 39.3929 29.1477 40.5789C29.1477 41.7649 28.1826 42.7293 26.9966 42.7293Z" fill="#4C4F54"/>
<path fill-rule="evenodd" clip-rule="evenodd" d="M33.5216 39.519C32.9375 39.519 32.4622 39.9945 32.4622 40.5789C32.4622 41.1623 32.9375 41.6376 33.5216 41.6376C34.1058 41.6375 34.5811 41.1623 34.5811 40.5789C34.5811 39.9944 34.1058 39.5191 33.5216 39.519ZM33.5216 42.7293C32.3355 42.7293 31.3705 41.765 31.3705 40.5789C31.3705 39.3929 32.3355 38.4275 33.5216 38.4275C34.7078 38.4274 35.6728 39.3929 35.6728 40.5789C35.6728 41.7649 34.7078 42.7293 33.5216 42.7293Z" fill="#4C4F54"/>
<path fill-rule="evenodd" clip-rule="evenodd" d="M43.6146 41.1247H38.4417C38.1402 41.1247 37.8958 40.8804 37.8958 40.579C37.8958 40.2764 38.1402 40.0332 38.4416 40.0332L43.6146 40.0332C43.916 40.0332 44.1604 40.2765 44.1604 40.579C44.1604 40.8803 43.916 41.1248 43.6146 41.1247Z" fill="#4C4F54"/>
<path fill-rule="evenodd" clip-rule="evenodd" d="M43.6146 19.254H43.0687H19.2144H18.6686C18.3671 19.254 18.1227 19.0096 18.1227 18.7083C18.1228 18.4069 18.3671 18.1624 18.6686 18.1624L43.6146 18.1624C43.916 18.1624 44.1604 18.4069 44.1604 18.7083C44.1605 19.0095 43.916 19.2541 43.6146 19.254ZM43.6146 22.9827H18.6686C18.3671 22.9827 18.1227 22.7383 18.1227 22.4369C18.1228 22.1344 18.3671 21.8911 18.6686 21.8911H19.2144L43.0687 21.8911H43.6146C43.916 21.8911 44.1604 22.1345 44.1604 22.4369C44.1605 22.7382 43.916 22.9828 43.6146 22.9827Z" fill="#4C4F54"/>
<path fill-rule="evenodd" clip-rule="evenodd" d="M43.6146 27.736H43.0687H19.2144H18.6686C18.3671 27.736 18.1227 27.4916 18.1227 27.1902C18.1228 26.8878 18.3671 26.6444 18.6686 26.6444L43.6146 26.6443C43.916 26.6443 44.1604 26.8878 44.1604 27.1902C44.1605 27.4916 43.916 27.7361 43.6146 27.736ZM43.6146 31.4635H18.6686C18.3671 31.4635 18.1227 31.2203 18.1227 30.9178C18.1228 30.6164 18.3671 30.372 18.6686 30.372L19.2144 30.3719L43.0687 30.3719L43.6146 30.3719C43.916 30.3719 44.1604 30.6164 44.1604 30.9178C44.1605 31.2202 43.916 31.4636 43.6146 31.4635Z" fill="#4C4F54"/>
<path fill-rule="evenodd" clip-rule="evenodd" d="M14.397 42.4744H12.5944C11.2996 42.4744 10.2461 41.4202 10.2461 40.125V34.4814C10.2461 33.1873 11.2995 32.1332 12.5944 32.1332L14.397 32.1331C14.6984 32.1331 14.9427 32.3777 14.9427 32.679C14.9427 32.9803 14.6984 33.2249 14.397 33.2249L12.5944 33.2248C11.9015 33.2248 11.3378 33.7889 11.3378 34.4814V40.1249C11.3378 40.8186 11.9015 41.3827 12.5944 41.3827L14.397 41.3826C14.6984 41.3826 14.9427 41.6264 14.9427 41.9288C14.9427 42.2301 14.6984 42.4744 14.397 42.4744Z" fill="#4C4F54"/>
<path fill-rule="evenodd" clip-rule="evenodd" d="M10.7919 37.8496H8.9499C7.09305 37.8496 5.58241 36.3385 5.58241 34.4826V29.7919C5.58241 28.1363 6.92922 26.7899 8.58462 26.7899L9.12608 26.7898C9.83651 26.7898 10.4145 26.2122 10.4145 25.5015C10.4145 24.7907 9.83648 24.2131 9.12608 24.2131L3.94931 24.2131C2.63697 24.2131 1.56934 23.1453 1.56934 21.8331C1.56934 20.5208 2.63697 19.4531 3.94931 19.4531L9.12608 19.453C9.83651 19.453 10.4145 18.8754 10.4145 18.1646C10.4145 17.4538 9.83648 16.8763 9.12608 16.8763L8.58462 16.8762C6.92922 16.8762 5.58241 15.5299 5.58241 13.8742V7.71773C5.58241 7.41925 5.82214 7.17665 6.11957 7.17199C6.12247 7.17195 6.12537 7.17192 6.12828 7.17192C6.13117 7.17192 6.13406 7.17195 6.13694 7.17199C6.43439 7.17656 6.67412 7.4193 6.67412 7.71776V13.8742C6.67412 14.9271 7.53117 15.7846 8.58462 15.7846L9.12608 15.7845C10.4385 15.7845 11.5061 16.8524 11.5061 18.1646C11.5061 19.4769 10.4385 20.5447 9.12608 20.5447L3.94931 20.5446C3.23895 20.5446 2.66094 21.1223 2.66094 21.8331C2.66094 22.5437 3.23895 23.1215 3.94931 23.1215H9.12608C10.4385 23.1215 11.5061 24.1892 11.5061 25.5015C11.5061 26.8137 10.4385 27.8815 9.12608 27.8815L8.58462 27.8814C7.53117 27.8814 6.67412 28.7389 6.67412 29.7919V34.4825C6.67412 35.7369 7.695 36.7581 8.9499 36.7581L10.7919 36.758C11.0934 36.758 11.3377 37.0025 11.3377 37.3039C11.3378 37.6051 11.0934 37.8497 10.7919 37.8496Z" fill="#4C4F54"/>
<path fill-rule="evenodd" clip-rule="evenodd" d="M4.24433 3.8356V5.50378C4.24433 6.42371 4.99281 7.17202 5.91274 7.17202L6.11957 7.17199L6.13694 7.17199L6.34383 7.17196C7.26382 7.17196 8.01224 6.42377 8.01224 5.50384V3.8356H4.24433ZM6.34383 8.26356H5.91274C4.39086 8.26356 3.15266 7.02533 3.15266 5.50384V3.2897C3.15266 2.98845 3.39708 2.74399 3.69853 2.74399L8.5581 2.74396C8.85952 2.74396 9.10388 2.98848 9.10388 3.2898V5.50378C9.10388 7.02523 7.86574 8.26366 6.34383 8.26356Z" fill="#4C4F54"/>
<path fill-rule="evenodd" clip-rule="evenodd" d="M5.01136 3.83559C4.70991 3.83559 4.46549 3.59117 4.46549 3.28979V0.545745C4.46549 0.244492 4.70991 3.98722e-05 5.01136 3.98722e-05C5.31281 3.98722e-05 5.55723 0.244525 5.55723 0.545876V3.28969C5.55723 3.59114 5.31278 3.83562 5.01136 3.83559Z" fill="#4C4F54"/>
<path fill-rule="evenodd" clip-rule="evenodd" d="M7.24524 3.83559C6.94379 3.83559 6.69937 3.59117 6.69937 3.28979V0.545745C6.69937 0.244492 6.94379 3.98722e-05 7.24524 3.98722e-05C7.54669 3.98722e-05 7.7911 0.244525 7.7911 0.545876V3.28969C7.7911 3.59114 7.54669 3.83562 7.24524 3.83559Z" fill="#4C4F54"/>
</svg>
