<svg width="28" height="28" viewBox="0 0 28 28" fill="none" xmlns="http://www.w3.org/2000/svg">
<path d="M21.023 8.92185C21.0609 8.37087 20.645 7.8935 20.094 7.85563L11.1152 7.23839C10.5642 7.20051 10.0868 7.61647 10.0489 8.16745C10.0111 8.71844 10.427 9.1958 10.978 9.23368L18.9592 9.78234L18.4105 17.7635C18.3726 18.3145 18.7886 18.7918 19.3396 18.8297C19.8906 18.8676 20.3679 18.4516 20.4058 17.9007L21.023 8.92185ZM8.81333 17.2966C8.39694 17.6594 8.35352 18.2911 8.71634 18.7075C9.07916 19.1239 9.71084 19.1673 10.1272 18.8045L8.81333 17.2966ZM20.0254 8.85327L19.3684 8.09933L8.81333 17.2966L9.47028 18.0505L10.1272 18.8045L20.6823 9.60721L20.0254 8.85327Z" fill="#7BC143"/>
</svg>
