<svg width="17" height="17" viewBox="0 0 17 17" fill="none" xmlns="http://www.w3.org/2000/svg">
<path d="M0.850097 0.85054C1.21621 0.484423 1.80981 0.484423 2.17592 0.85054L8.14214 6.81675L14.1083 0.85054C14.4745 0.484423 15.0681 0.484423 15.4342 0.85054C15.8003 1.21666 15.8003 1.81025 15.4342 2.17636L9.46796 8.14258L15.4342 14.1088C15.8003 14.4749 15.8003 15.0685 15.4342 15.4346C15.0681 15.8007 14.4745 15.8007 14.1083 15.4346L8.14214 9.4684L2.17592 15.4346C1.80981 15.8007 1.21621 15.8007 0.850097 15.4346C0.48398 15.0685 0.48398 14.4749 0.850097 14.1088L6.81631 8.14258L0.850097 2.17636C0.48398 1.81025 0.48398 1.21666 0.850097 0.85054Z" fill="white" stroke="white" stroke-width="0.625"/>
</svg>
