<svg width="41" height="42" viewBox="0 0 41 42" fill="none" xmlns="http://www.w3.org/2000/svg">
<rect width="41" height="42" rx="20.5" transform="matrix(-1 0 0 1 41 0)" fill="#7BC143"/>
<path d="M24.7422 16.0073C25.1564 16.0073 25.4922 16.3431 25.4922 16.7573L25.4922 23.5073C25.4922 23.9215 25.1564 24.2573 24.7422 24.2573C24.328 24.2573 23.9922 23.9215 23.9922 23.5073L23.9922 17.5073L17.9922 17.5073C17.578 17.5073 17.2422 17.1715 17.2422 16.7573C17.2422 16.3431 17.578 16.0073 17.9922 16.0073L24.7422 16.0073ZM16.7872 25.7729C16.4943 26.0658 16.0195 26.0658 15.7266 25.7729C15.4337 25.48 15.4337 25.0052 15.7266 24.7123L16.7872 25.7729ZM24.7422 16.7573L25.2725 17.2877L16.7872 25.7729L16.2569 25.2426L15.7266 24.7123L24.2119 16.227L24.7422 16.7573Z" fill="white"/>
</svg>
