<svg width="18" height="20" viewBox="0 0 18 20" fill="none" xmlns="http://www.w3.org/2000/svg">
<path d="M8.39447 0C8.65469 0 8.9149 0 9.17573 0C9.3615 0.0264624 9.54667 0.0510785 9.73245 0.0787717C10.9468 0.258469 12.0245 0.748331 12.9479 1.55266C14.3271 2.75455 15.0905 4.27336 15.2092 6.10542C15.2972 7.46485 14.9748 8.72642 14.2539 9.87907C13.5883 10.9425 12.9036 11.9942 12.2275 13.0515C12.198 13.0976 12.1746 13.1481 12.1408 13.2096C12.2023 13.2238 12.2448 13.2355 12.2884 13.2435C13.405 13.438 14.5049 13.697 15.5365 14.1777C16.4684 14.6121 17.3155 15.1451 17.5714 16.2503V16.7193C17.4422 17.3021 17.1242 17.7575 16.6567 18.123C16.06 18.5895 15.3833 18.8984 14.674 19.1397C13.3447 19.5926 11.9698 19.8154 10.574 19.9249C10.2769 19.9483 9.98036 19.9748 9.68385 20H7.84883C7.78546 19.9889 7.72272 19.9742 7.65936 19.9674C6.86519 19.8855 6.06732 19.8314 5.27746 19.7181C4.18247 19.5612 3.11148 19.2892 2.10139 18.8258C1.14297 18.3864 0.270055 17.8504 0 16.7187C0 16.5624 0 16.406 0 16.2497C0.0701282 16.0553 0.119956 15.8503 0.213461 15.6676C0.527807 15.0565 1.06546 14.6805 1.65109 14.3672C2.65811 13.8275 3.7494 13.542 4.86099 13.3198C5.048 13.2823 5.23624 13.249 5.43863 13.2115C5.40787 13.1561 5.39311 13.1272 5.37588 13.1001C4.69982 12.0428 4.01576 10.9911 3.34955 9.92831C2.4102 8.43103 2.13461 6.80944 2.50186 5.08262C2.70978 4.1072 3.13424 3.22779 3.75801 2.44992C4.61124 1.38527 5.68715 0.636943 7.00421 0.267085C7.45697 0.140927 7.93064 0.0873873 8.39447 0ZM8.78633 16.2596C8.83616 16.1863 8.87614 16.1297 8.91367 16.0713C10.3162 13.8724 11.7126 11.6699 13.1238 9.4766C14.2416 7.7387 14.3886 5.92818 13.4689 4.08628C12.6243 2.39454 11.2125 1.40804 9.32829 1.21665C7.33824 1.01419 5.72652 1.7699 4.52696 3.36872C3.26096 5.05677 3.17915 7.49377 4.3092 9.26552C5.76097 11.5407 7.2146 13.8152 8.6676 16.0897C8.70144 16.1427 8.73896 16.1931 8.78572 16.2602L8.78633 16.2596ZM8.7771 18.8572C9.51653 18.8098 10.2578 18.7784 10.9954 18.7113C12.2749 18.5944 13.5298 18.3507 14.7275 17.8713C15.2597 17.6584 15.7795 17.4141 16.1707 16.9728C16.4764 16.6276 16.4709 16.3353 16.1603 15.9888C15.873 15.6676 15.5088 15.4534 15.1256 15.2712C14.0336 14.7506 12.8655 14.5118 11.68 14.3303C11.4746 14.2989 11.3842 14.3647 11.2833 14.5254C10.6404 15.5494 9.98651 16.5667 9.33874 17.5882C9.21817 17.7778 9.07422 17.9242 8.83431 17.9415C8.55195 17.9618 8.37417 17.8141 8.23207 17.5889C7.5677 16.5396 6.89779 15.494 6.23465 14.4441C6.16575 14.3352 6.103 14.2964 5.96951 14.3241C5.69638 14.3807 5.4171 14.4054 5.14212 14.4564C4.10373 14.6485 3.08626 14.9082 2.15306 15.4245C1.82149 15.6079 1.51145 15.8208 1.29184 16.142C1.1442 16.358 1.12021 16.5913 1.27769 16.7962C1.42594 16.9888 1.59819 17.1747 1.79442 17.3162C2.40343 17.755 3.1041 18.0012 3.8183 18.2043C5.43801 18.6652 7.09772 18.8172 8.77649 18.8572H8.7771Z" fill="white"/>
<path d="M8.78572 3.55519C10.3974 3.55519 11.7163 4.87769 11.7133 6.48943C11.7102 8.10179 10.3857 9.41937 8.77526 9.41321C7.17092 9.40706 5.86001 8.09317 5.85755 6.4882C5.85509 4.87646 7.17461 3.55457 8.78633 3.55457L8.78572 3.55519ZM8.78633 4.72815C7.83099 4.72753 7.03558 5.52017 7.02943 6.47835C7.02328 7.43161 7.81376 8.22979 8.77403 8.24087C9.73183 8.25195 10.5445 7.44208 10.5408 6.48081C10.5371 5.52325 9.74167 4.72938 8.78633 4.72815Z" fill="white"/>
</svg>
