<svg width="13" height="19" viewBox="0 0 13 19" fill="none" xmlns="http://www.w3.org/2000/svg">
<rect width="12" height="18" transform="translate(0 0.5)" fill="white"/>
<path d="M6 13.1562C2.69058 13.1562 0 10.3183 0 6.82808C0 3.33788 2.69075 0.5 6 0.5C9.30925 0.5 12 3.33788 12 6.82808C12 10.3183 9.30925 13.1562 6 13.1562ZM6 1.04558C2.97594 1.04558 0.517294 3.63866 0.517294 6.82808C0.517294 10.0175 2.97594 12.6106 6 12.6106C9.02406 12.6106 11.4827 10.0175 11.4827 6.82808C11.4827 3.63866 9.02406 1.04558 6 1.04558Z" fill="#4C4F54" stroke="#4C4F54" stroke-width="0.3"/>
<path d="M6.00026 8.02709C5.37358 8.02709 4.86426 7.4899 4.86426 6.82898C4.86426 6.16805 5.3736 5.63086 6.00026 5.63086C6.62692 5.63086 7.13626 6.16805 7.13626 6.82898C7.13626 7.4899 6.62692 8.02709 6.00026 8.02709ZM6.00026 6.17651C5.65892 6.17651 5.38159 6.46901 5.38159 6.82901C5.38159 7.18901 5.65892 7.48151 6.00026 7.48151C6.34159 7.48151 6.61893 7.18901 6.61893 6.82901C6.61893 6.46901 6.34159 6.17651 6.00026 6.17651Z" fill="#4C4F54" stroke="#4C4F54" stroke-width="0.3"/>
<path d="M6.73091 6.58712C6.68291 6.58712 6.63491 6.57306 6.58958 6.54212C6.46958 6.46056 6.43491 6.29181 6.51224 6.16523C7.10692 5.19493 7.38425 4.13465 7.33893 3.01523C7.32559 2.65804 7.04826 2.37962 6.70693 2.37962H4.94427C4.59493 2.37962 4.31227 2.68056 4.31227 3.049V3.47369C4.31227 3.769 4.47227 4.04464 4.72027 4.17681C5.06693 4.36243 5.36027 4.63243 5.57627 4.95869C5.76294 5.23431 5.88827 5.55775 5.9496 5.91494C5.97627 6.06401 5.88294 6.20464 5.74159 6.23275C5.60025 6.26087 5.46692 6.16244 5.44026 6.01337C5.39226 5.73493 5.29626 5.48462 5.15226 5.27087C4.98426 5.01493 4.75759 4.80681 4.48826 4.66337C4.06159 4.43837 3.79492 3.98275 3.79492 3.47368V3.04898C3.79492 2.3796 4.30959 1.83398 4.94427 1.83398H6.70693C7.3256 1.83398 7.8296 2.34304 7.85627 2.99273C7.90694 4.22743 7.60027 5.39465 6.9496 6.46331C6.89893 6.54206 6.81624 6.58712 6.73091 6.58712Z" fill="#4C4F54" stroke="#4C4F54" stroke-width="0.3"/>
<path d="M8.57083 10.8297C8.34949 10.8297 8.12815 10.7622 7.93082 10.6215C6.98148 9.94373 6.28282 9.00998 5.85618 7.84558C5.80551 7.70495 5.86952 7.54746 6.00285 7.49402C6.13619 7.44058 6.28551 7.50808 6.33618 7.64871C6.73085 8.72027 7.34686 9.54429 8.21882 10.1687C8.49349 10.3656 8.8775 10.2925 9.07748 10.0084L10.1282 8.51778C10.3362 8.22247 10.2775 7.8034 9.99748 7.58122L9.68014 7.33372C9.4508 7.15372 9.15213 7.12841 8.90147 7.26341C8.24013 7.6206 7.38147 7.5981 6.73604 7.19872C6.61337 7.12278 6.5707 6.95684 6.6427 6.82466C6.7147 6.69529 6.87205 6.65029 6.99737 6.72623C7.26137 6.88935 7.55736 6.97373 7.87204 6.97373C8.14937 6.97373 8.42405 6.90623 8.66404 6.77684C9.09071 6.54623 9.59739 6.59123 9.98406 6.89497L10.3067 7.14808C10.8161 7.55027 10.9227 8.31247 10.5414 8.84683L9.49339 10.3346C9.26938 10.6581 8.92281 10.8297 8.57083 10.8297Z" fill="#4C4F54" stroke="#4C4F54" stroke-width="0.3"/>
<path d="M4.07985 11.171H4.06919C3.76251 11.1682 3.47451 11.0388 3.25851 10.8082L2.0265 9.48068C1.59182 9.0138 1.58116 8.27974 2.0025 7.80724C2.84783 6.85099 3.9278 6.24913 5.20781 6.01568C5.34914 5.99037 5.48248 6.08881 5.50648 6.23788C5.53048 6.38694 5.43715 6.52757 5.29581 6.55288C4.1118 6.76943 3.15717 7.30099 2.37841 8.17849C2.15175 8.43161 2.15975 8.84505 2.39441 9.09818L3.62643 10.4257C3.74376 10.5522 3.90376 10.6226 4.07177 10.6254C4.23444 10.6198 4.39978 10.5607 4.51977 10.4369L4.80777 10.1388C5.01044 9.9307 5.08245 9.62413 4.99445 9.33726C4.92245 9.10664 4.88512 8.85632 4.88512 8.59757C4.88512 8.17007 4.99178 7.75101 5.19712 7.38818C5.26912 7.25881 5.42912 7.21662 5.55178 7.29256C5.67444 7.3685 5.71445 7.53725 5.64245 7.66662C5.48511 7.94506 5.40245 8.2685 5.40245 8.60037C5.40245 8.80006 5.43179 8.99131 5.48512 9.17131C5.63179 9.65787 5.51179 10.1754 5.16778 10.5298L4.87978 10.8279C4.66645 11.0473 4.38118 11.171 4.07985 11.171Z" fill="#4C4F54" stroke="#4C4F54" stroke-width="0.3"/>
<path d="M11.2937 18.5009H0.765537C0.530869 18.5009 0.338867 18.2984 0.338867 18.0509V16.7684C0.338867 16.5209 0.530869 16.3184 0.765537 16.3184H11.2937C11.5284 16.3184 11.7204 16.5209 11.7204 16.7684V18.0509C11.723 18.2984 11.531 18.5009 11.2937 18.5009ZM0.856333 17.9552H11.2058V16.8612H0.856333V17.9552Z" fill="#4C4F54" stroke="#4C4F54" stroke-width="0.3"/>
<path d="M1.99239 16.8609C1.90439 16.8609 1.81906 16.8131 1.77105 16.7287C1.69638 16.5994 1.73638 16.4334 1.85905 16.3547L2.67239 15.84C3.72039 15.1762 4.38965 14.009 4.45911 12.7154C4.46711 12.5663 4.58977 12.451 4.73112 12.4594C4.87246 12.4679 4.9818 12.5972 4.97379 12.7463C4.89112 14.2172 4.13112 15.5475 2.93636 16.3069L2.12302 16.8216C2.08302 16.8469 2.03772 16.8609 1.99239 16.8609Z" fill="#4C4F54" stroke="#4C4F54" stroke-width="0.3"/>
<path d="M10.0053 16.8607C9.95996 16.8607 9.91462 16.8495 9.87196 16.8213L9.06128 16.3067C7.86395 15.5501 7.10133 14.2197 7.02385 12.7461C7.01585 12.5942 7.12518 12.4676 7.26652 12.4592C7.40786 12.4536 7.53053 12.5661 7.53853 12.7151C7.60787 14.0061 8.27454 15.1732 9.32526 15.837L10.1359 16.3517C10.2586 16.4305 10.2986 16.5964 10.2239 16.7258C10.1786 16.813 10.0933 16.8607 10.0053 16.8607Z" fill="#4C4F54" stroke="#4C4F54" stroke-width="0.3"/>
</svg>
