<svg width="15" height="10" viewBox="0 0 15 10" fill="none" xmlns="http://www.w3.org/2000/svg">
<path d="M13.8997 2.05271H5.17967C4.99301 2.05271 4.83301 1.89271 4.83301 1.70604C4.83301 1.51938 4.99301 1.35938 5.17967 1.35938H13.8997C14.0863 1.35938 14.2463 1.51938 14.2463 1.70604C14.2463 1.89271 14.0863 2.05271 13.8997 2.05271Z" fill="#4C4F54"/>
<path d="M2.4596 2.05271H1.0996C0.91293 2.05271 0.75293 1.89271 0.75293 1.70604C0.75293 1.51938 0.91293 1.35938 1.0996 1.35938H2.4596C2.64626 1.35938 2.80626 1.51938 2.80626 1.70604C2.80626 1.89271 2.67293 2.05271 2.4596 2.05271Z" fill="#4C4F54"/>
<path d="M13.8998 5.33396H11.6064C11.4198 5.33396 11.2598 5.17396 11.2598 4.98729C11.2598 4.80062 11.4198 4.64062 11.6064 4.64062H13.8998C14.0864 4.64062 14.2464 4.80062 14.2464 4.98729C14.2464 5.17396 14.0864 5.33396 13.8998 5.33396Z" fill="#4C4F54"/>
<path d="M8.88626 5.33396H1.0996C0.91293 5.33396 0.75293 5.17396 0.75293 4.98729C0.75293 4.80062 0.91293 4.64062 1.0996 4.64062H8.88626C9.07293 4.64062 9.23293 4.80062 9.23293 4.98729C9.23293 5.17396 9.07293 5.33396 8.88626 5.33396Z" fill="#4C4F54"/>
<path d="M13.8997 8.6406H5.17967C4.99301 8.6406 4.83301 8.4806 4.83301 8.29393C4.83301 8.10727 4.99301 7.94727 5.17967 7.94727H13.8997C14.0863 7.94727 14.2463 8.10727 14.2463 8.29393C14.2463 8.4806 14.0863 8.6406 13.8997 8.6406Z" fill="#4C4F54"/>
<path d="M2.4596 8.63992H1.0996C0.91293 8.63992 0.75293 8.47992 0.75293 8.29326C0.75293 8.07992 0.91293 7.91992 1.0996 7.91992H2.4596C2.64626 7.91992 2.80626 8.07992 2.80626 8.26659C2.83293 8.47992 2.67293 8.63992 2.4596 8.63992Z" fill="#4C4F54"/>
<path d="M3.81995 3.41333C2.88661 3.41333 2.11328 2.64 2.11328 1.70667C2.11328 0.773334 2.88661 0 3.81995 0C4.75328 0 5.52661 0.773334 5.52661 1.70667C5.52661 2.64 4.77995 3.41333 3.81995 3.41333ZM3.81995 0.693333C3.25995 0.693333 2.80661 1.14667 2.80661 1.70667C2.80661 2.26667 3.25995 2.72 3.81995 2.72C4.37995 2.72 4.83328 2.26667 4.83328 1.70667C4.83328 1.14667 4.37995 0.693333 3.81995 0.693333Z" fill="#4C4F54"/>
<path d="M10.2467 6.69263C9.31337 6.69263 8.54004 5.9193 8.54004 4.98596C8.54004 4.05263 9.31337 3.2793 10.2467 3.2793C11.18 3.2793 11.9534 4.05263 11.9534 4.98596C11.9534 5.9193 11.2067 6.69263 10.2467 6.69263ZM10.2467 3.97263C9.68671 3.97263 9.23337 4.42596 9.23337 4.98596C9.23337 5.54596 9.68671 5.9993 10.2467 5.9993C10.8067 5.9993 11.26 5.54596 11.26 4.98596C11.26 4.42596 10.8067 3.97263 10.2467 3.97263Z" fill="#4C4F54"/>
<path d="M3.81995 9.99927C2.88661 9.99927 2.11328 9.22594 2.11328 8.2926C2.11328 7.3326 2.88661 6.58594 3.81995 6.58594C4.75328 6.58594 5.52661 7.35927 5.52661 8.2926C5.55328 9.22594 4.77995 9.99927 3.81995 9.99927ZM3.81995 7.27927C3.25995 7.27927 2.80661 7.7326 2.80661 8.2926C2.80661 8.8526 3.25995 9.30594 3.81995 9.30594C4.37995 9.30594 4.83328 8.8526 4.83328 8.2926C4.83328 7.7326 4.37995 7.27927 3.81995 7.27927Z" fill="#4C4F54"/>
</svg>
