<svg width="13" height="15" viewBox="0 0 13 15" fill="none" xmlns="http://www.w3.org/2000/svg">
<path d="M9.93187 1.13347C9.84302 1.22097 9.84302 1.35222 9.93187 1.43972C12.0975 3.57253 12.0975 7.03972 9.93187 9.17253C9.84302 9.26003 9.84302 9.39128 9.93187 9.47878C9.97629 9.52253 10.0318 9.5444 10.0874 9.5444C10.1429 9.5444 10.1984 9.52253 10.2428 9.47878C12.5862 7.17097 12.5862 3.43034 10.2428 1.12253C10.154 1.04597 10.0207 1.04597 9.93187 1.13347Z" fill="#4C4F54" stroke="#4C4F54" stroke-width="0.3"/>
<path d="M1.913 9.55586C1.96853 9.55586 2.02406 9.53399 2.06848 9.49024C2.15733 9.40273 2.15733 9.27149 2.06848 9.18399C-0.0971768 7.05117 -0.0971768 3.57305 2.06848 1.44023C2.15733 1.35273 2.15733 1.22148 2.06848 1.13398C1.97964 1.04648 1.84636 1.04648 1.75752 1.13398C-0.585839 3.4418 -0.585839 7.18242 1.75752 9.49024C1.80194 9.53399 1.85747 9.55586 1.913 9.55586Z" fill="#4C4F54" stroke="#4C4F54" stroke-width="0.3"/>
<path d="M4.78899 3.39936C4.84452 3.46499 4.91116 3.51968 4.94447 3.5853C5.02222 3.69468 5.06664 3.80405 5.11106 3.92436C5.23323 3.8478 5.37761 3.78218 5.52198 3.73843C5.46645 3.59624 5.39982 3.46499 5.31097 3.33374C5.25544 3.24624 5.1777 3.16968 5.11106 3.09311C5 2.9728 4.91116 2.87436 4.88894 2.76499C4.86673 2.63374 4.90005 2.49155 4.97779 2.37124C5.15549 2.0978 5.43314 1.98843 5.64415 1.95561C6.02175 1.87905 6.46599 1.96655 6.77696 2.1853C7.11013 2.41499 7.32115 2.78686 7.33225 3.15874C7.33225 3.44311 7.25451 3.72749 7.06571 4.06655C7.18788 4.16499 7.28783 4.27436 7.37668 4.40561C7.65433 3.95718 7.77649 3.55249 7.77649 3.15874C7.77649 2.65561 7.48774 2.14155 7.03239 1.8353C6.62147 1.53999 6.05507 1.41968 5.5553 1.51811C5.14438 1.59468 4.8112 1.81343 4.6113 2.13061C4.46692 2.34936 4.42249 2.60093 4.45581 2.84155C4.50024 3.08218 4.65572 3.25718 4.78899 3.39936Z" fill="#4C4F54" stroke="#4C4F54" stroke-width="0.3"/>
<path d="M6.44385 9.10703C6.85477 9.03047 7.18794 8.81172 7.38785 8.49453C7.53223 8.27578 7.57665 8.02422 7.54334 7.78359C7.49891 7.54297 7.34343 7.37891 7.21016 7.23672C7.15463 7.17109 7.08799 7.11641 7.05467 7.05078C6.97693 6.94141 6.93251 6.83203 6.88808 6.71172C6.76592 6.78828 6.62154 6.85391 6.47716 6.89766C6.53269 7.03984 6.59933 7.17109 6.68818 7.30234C6.74371 7.38984 6.82145 7.46641 6.88808 7.54297C6.99914 7.66328 7.08799 7.76172 7.1102 7.87109C7.13242 8.00234 7.0991 8.14453 7.02136 8.26484C6.84366 8.53828 6.56601 8.64766 6.355 8.68047C5.9774 8.75703 5.53316 8.66953 5.22219 8.45078C4.88901 8.22109 4.678 7.84922 4.66689 7.47734C4.66689 7.19297 4.75574 6.90859 4.93344 6.56953C4.81127 6.47109 4.71132 6.36172 4.62247 6.23047C4.34482 6.67891 4.22266 7.08359 4.22266 7.47734C4.22266 7.98047 4.51141 8.49453 4.96675 8.80078C5.27772 9.01953 5.67754 9.12891 6.07735 9.12891C6.19951 9.13984 6.32168 9.12891 6.44385 9.10703Z" fill="#4C4F54" stroke="#4C4F54" stroke-width="0.3"/>
<path d="M7.41054 4.44908C7.48828 4.56939 7.55491 4.71158 7.59934 4.85377C7.74372 4.79908 7.87699 4.73346 8.01026 4.64596C8.09911 4.59127 8.17685 4.51471 8.25459 4.44908C8.37675 4.33971 8.47671 4.25221 8.58777 4.23033C8.72104 4.20846 8.86542 4.24127 8.98758 4.31783C9.26523 4.49283 9.37629 4.76627 9.40961 4.97408C9.48735 5.34596 9.3985 5.78346 9.17638 6.08971C8.94316 6.41783 8.56555 6.62564 8.18795 6.63658H8.17685C7.8992 6.63658 7.59934 6.54908 7.26616 6.37408C7.16621 6.49439 7.05515 6.59283 6.92188 6.68033C7.37722 6.94283 7.77703 7.07408 8.17685 7.07408C8.18795 7.07408 8.18795 7.07408 8.19906 7.07408C8.72104 7.07408 9.23191 6.78971 9.54288 6.34127C9.83163 5.93658 9.94269 5.37877 9.84274 4.88658C9.765 4.48189 9.54288 4.15377 9.22081 3.95689C8.99869 3.81471 8.74325 3.76002 8.49892 3.80377C8.25459 3.84752 8.088 4.00064 7.93252 4.13189C7.86588 4.18658 7.81035 4.25221 7.74371 4.28502C7.65487 4.35064 7.5327 4.40533 7.41054 4.44908Z" fill="#4C4F54" stroke="#4C4F54" stroke-width="0.3"/>
<path d="M4.58987 6.17578C4.51213 6.05547 4.4455 5.91328 4.40107 5.77109C4.2567 5.82578 4.12343 5.89141 3.99015 5.97891C3.90131 6.03359 3.82356 6.11016 3.74582 6.17578C3.62366 6.28516 3.5237 6.37266 3.41264 6.39453C3.27937 6.41641 3.135 6.38359 3.01283 6.30703C2.73518 6.13203 2.62412 5.85859 2.5908 5.65078C2.51306 5.27891 2.60191 4.84141 2.82403 4.53516C3.05725 4.20703 3.43486 3.99922 3.81246 3.98828H3.82356C4.10121 3.98828 4.40107 4.07578 4.73425 4.25078C4.83421 4.13047 4.94527 4.03203 5.07854 3.94453C4.62319 3.67109 4.21227 3.55078 3.81246 3.55078C3.29048 3.55078 2.77961 3.83516 2.46864 4.28359C2.17988 4.68828 2.06882 5.24609 2.16878 5.73828C2.24652 6.14297 2.46864 6.47109 2.79071 6.66797C2.9573 6.77734 3.15721 6.83203 3.34601 6.83203C3.40154 6.83203 3.45707 6.83203 3.5126 6.82109C3.75693 6.77734 3.92352 6.62422 4.079 6.49297C4.14564 6.43828 4.20117 6.37266 4.2678 6.33984C4.34554 6.27422 4.46771 6.21953 4.58987 6.17578Z" fill="#4C4F54" stroke="#4C4F54" stroke-width="0.3"/>
<path d="M5.99997 4.10938C5.32251 4.10938 4.77832 4.64531 4.77832 5.3125C4.77832 5.97969 5.32251 6.51562 5.99997 6.51562C6.67744 6.51562 7.22163 5.97969 7.22163 5.3125C7.22163 4.64531 6.67744 4.10938 5.99997 4.10938ZM5.99997 6.07812C5.56684 6.07812 5.22256 5.73906 5.22256 5.3125C5.22256 4.88594 5.56684 4.54688 5.99997 4.54688C6.43311 4.54688 6.77739 4.88594 6.77739 5.3125C6.77739 5.73906 6.43311 6.07812 5.99997 6.07812Z" fill="#4C4F54" stroke="#4C4F54" stroke-width="0.3"/>
<path d="M6.11123 13.2969H5.88911C5.76695 13.2969 5.66699 13.3953 5.66699 13.5156C5.66699 13.6359 5.76695 13.7344 5.88911 13.7344H6.11123C6.2334 13.7344 6.33335 13.6359 6.33335 13.5156C6.33335 13.3953 6.2334 13.2969 6.11123 13.2969Z" fill="#4C4F54" stroke="#4C4F54" stroke-width="0.3"/>
<path d="M10.4423 14.0625H8.33215V13.625C8.33215 13.0234 7.83238 12.5312 7.22155 12.5312H7.11049V11.4375C7.11049 11.2297 6.96612 11.0656 6.77732 11.0109V10.0594C9.10957 9.6875 10.8865 7.69688 10.8865 5.3125C10.8865 2.65469 8.69865 0.5 5.9999 0.5C3.30115 0.5 1.11328 2.65469 1.11328 5.3125C1.11328 7.70781 2.89023 9.69844 5.22248 10.0594V11.0109C5.03368 11.0547 4.8893 11.2297 4.8893 11.4375V12.5312H4.77824C4.16742 12.5312 3.66765 13.0234 3.66765 13.625V14.0625H1.55752C1.43535 14.0625 1.3354 14.1609 1.3354 14.2812C1.3354 14.4016 1.43535 14.5 1.55752 14.5H10.4423C10.5644 14.5 10.6644 14.4016 10.6644 14.2812C10.6644 14.1609 10.5644 14.0625 10.4423 14.0625ZM1.55752 5.3125C1.55752 2.89531 3.55659 0.9375 5.9999 0.9375C8.44321 0.9375 10.4423 2.89531 10.4423 5.3125C10.4423 7.72969 8.44321 9.6875 5.9999 9.6875C3.55659 9.6875 1.55752 7.72969 1.55752 5.3125ZM6.66626 11.4375V12.5312H5.33354V11.4375H6.66626ZM5.66672 11V10.1141C5.77778 10.125 5.88884 10.125 5.9999 10.125C6.11096 10.125 6.22202 10.125 6.33308 10.1141V11H5.66672ZM7.88791 14.0625H4.11189V13.625C4.11189 13.2641 4.41175 12.9688 4.77824 12.9688H7.22155C7.58805 12.9688 7.88791 13.2641 7.88791 13.625V14.0625Z" fill="#4C4F54" stroke="#4C4F54" stroke-width="0.3"/>
</svg>
