<svg width="11" height="16" viewBox="0 0 11 16" fill="none" xmlns="http://www.w3.org/2000/svg">
<path d="M3.95323 1.8337V15.1664C3.95323 15.3011 3.86931 15.4229 3.74175 15.4749C3.61486 15.5251 3.46515 15.4997 3.36714 15.4014L0.101709 12.2349C-0.0339029 12.1047 -0.0339029 11.895 0.101709 11.7648C0.235978 11.6333 0.452158 11.6333 0.586418 11.7648L3.26579 14.3617V1.83368C3.26579 1.65009 3.4202 1.50037 3.60952 1.50037C3.79883 1.50037 3.95323 1.65012 3.95323 1.8337ZM10.8983 3.76527L7.63285 0.598764C7.53483 0.502415 7.38713 0.47377 7.25823 0.525199C7.13068 0.57728 7.04676 0.699024 7.04676 0.833784V14.1664C7.04676 14.35 7.20117 14.4998 7.39048 14.4998C7.5798 14.4998 7.73421 14.35 7.73421 14.1664V1.63841L10.4136 4.23461C10.5479 4.36612 10.764 4.36612 10.8983 4.23461C11.0339 4.10506 11.0339 3.89546 10.8983 3.76527Z" fill="#4C4F54"/>
</svg>
