<svg width="12" height="13" viewBox="0 0 12 13" fill="none" xmlns="http://www.w3.org/2000/svg">
<path d="M9.38986 2.94578C9.50642 3.06039 9.68236 3.10985 9.85159 3.05969C10.0955 2.9874 10.2333 2.73563 10.1593 2.49733L9.63848 0.820114C9.56445 0.581822 9.30672 0.447249 9.06278 0.519534C8.8189 0.591825 8.68111 0.843596 8.75514 1.08189L8.88462 1.49891C8.3355 1.20482 7.74017 0.995193 7.11941 0.880051C6.05225 0.682109 4.95014 0.770866 3.93056 1.13687C2.911 1.50287 2.01226 2.13238 1.33023 2.95825C0.648197 3.78411 0.208452 4.77535 0.0579078 5.82625C-0.0926369 6.8771 0.0516677 7.9482 0.475424 8.92523C0.899181 9.90225 1.58649 10.7486 2.46404 11.374C3.34159 11.9993 4.37645 12.3802 5.45821 12.476C6.54002 12.5719 7.62816 12.379 8.60652 11.9181C8.83613 11.81 8.9325 11.5404 8.82179 11.3161C8.71102 11.0919 8.43513 10.9977 8.20553 11.1059C7.3777 11.4959 6.45694 11.6591 5.5416 11.578C4.62625 11.4969 3.75059 11.1746 3.00805 10.6454C2.26551 10.1163 1.68394 9.40015 1.32538 8.57342C0.966813 7.74669 0.844712 6.84043 0.972099 5.95123C1.09948 5.062 1.47157 4.22326 2.04868 3.52445C2.62578 2.82564 3.38625 2.29298 4.24895 1.98328C5.11168 1.67359 6.04425 1.59849 6.94723 1.76598C7.8502 1.93348 8.68972 2.33728 9.3762 2.93434C9.38069 2.93825 9.38525 2.94207 9.38986 2.94578Z" fill="#4C4F54"/>
<path d="M11.3041 5.01856C11.068 5.11239 10.7988 5.00145 10.7027 4.77079C10.5997 4.5235 10.4765 4.28474 10.3342 4.05682C10.2014 3.84423 10.2702 3.56678 10.4879 3.43711C10.7055 3.30744 10.9895 3.37466 11.1223 3.58725C11.2905 3.85661 11.4361 4.13878 11.5578 4.43103C11.6538 4.66169 11.5402 4.92474 11.3041 5.01856Z" fill="#4C4F54"/>
<path d="M11.0765 6.72937C11.0719 6.97832 11.2747 7.1838 11.5296 7.18831C11.7844 7.19281 11.9948 6.99467 11.9995 6.74566C12.0053 6.43023 11.9851 6.11485 11.9389 5.80254C11.9025 5.55612 11.6685 5.38514 11.4162 5.42069C11.1639 5.45627 10.9889 5.6849 11.0253 5.93132C11.0643 6.19553 11.0814 6.46245 11.0765 6.72937Z" fill="#4C4F54"/>
<path d="M10.8587 9.27513C10.6264 9.17269 10.523 8.90565 10.6279 8.67871C10.7403 8.43535 10.8325 8.18358 10.9034 7.92574C10.9696 7.68527 11.2228 7.54273 11.469 7.60736C11.7151 7.67205 11.861 7.91937 11.7949 8.15984C11.711 8.46451 11.6021 8.76209 11.4693 9.04969C11.3644 9.27663 11.091 9.37757 10.8587 9.27513Z" fill="#4C4F54"/>
<path d="M9.38169 10.3379C9.19153 10.5037 9.17504 10.7888 9.34483 10.9745C9.51456 11.1602 9.80638 11.1764 9.99647 11.0105C10.2374 10.8004 10.4605 10.5716 10.6638 10.3264C10.8242 10.1329 10.7936 9.84895 10.5955 9.69229C10.3973 9.53556 10.1068 9.56544 9.94632 9.75902C9.77438 9.96648 9.58557 10.1601 9.38169 10.3379Z" fill="#4C4F54"/>
<path d="M6.00061 3.18164C6.25551 3.18164 6.46216 3.38351 6.46216 3.63252V5.99488C6.46216 6.16063 6.46259 6.25435 6.46924 6.32402C6.47225 6.35517 6.47576 6.37188 6.47797 6.38023C6.47902 6.38414 6.48001 6.38673 6.48001 6.38673L6.48037 6.38757L6.48087 6.38829C6.48087 6.38829 6.48296 6.39106 6.4853 6.39358C6.49114 6.40001 6.50345 6.4121 6.52831 6.43181C6.58395 6.47588 6.66352 6.52824 6.80469 6.62016L8.10281 7.46559C8.31494 7.60368 8.37223 7.88364 8.23081 8.09081C8.08945 8.29803 7.80286 8.354 7.5908 8.21585L6.27859 7.36129C6.15661 7.28187 6.0403 7.20612 5.94719 7.13242C5.84307 7.05 5.7419 6.95075 5.66651 6.81308C5.59106 6.67535 5.56257 6.5381 5.55014 6.40777C5.539 6.29114 5.53906 6.15467 5.53906 6.01148V3.63252C5.53906 3.38351 5.74571 3.18164 6.00061 3.18164Z" fill="#4C4F54"/>
</svg>
