<svg width="120" height="120" viewBox="0 0 120 120" fill="none" xmlns="http://www.w3.org/2000/svg">
<path d="M92.6108 84.0871C91.9458 84.3055 91.2281 83.944 91.0101 83.2814C90.7922 82.6151 91.1529 81.896 91.8142 81.6776L97.875 79.6521C98.6941 79.3358 99.4794 79.7838 99.6409 80.6121L100.967 86.4174C101.125 87.1026 100.697 87.7841 100.013 87.9421C99.329 88.1002 98.6489 87.6711 98.4912 86.9859L97.8599 84.2187C89.665 97.0458 75.4919 105 60.0005 105C43.3702 105 28.2914 95.8252 20.4991 81.4247C20.1647 80.8035 20.3939 80.0317 21.0101 79.6966C21.6263 79.3615 22.4003 79.5912 22.7348 80.2086C30.1069 93.8299 44.291 102.447 60.0007 102.447C74.5456 102.447 87.7833 95.0757 95.5497 83.1039L92.6108 84.0871Z" fill="#7BC143"/>
<path fill-rule="evenodd" clip-rule="evenodd" d="M65.9479 87.2759C66.008 87.178 66.0794 87.0877 66.1658 87.0086C68.0108 84.6819 68.8637 82.5398 68.9877 80.7967C69.1041 79.1213 68.5105 77.5589 66.9174 77.1637C65.4369 76.7947 63.3516 77.4648 61.1009 79.5919C60.8341 79.8668 60.4546 80.0061 60.0751 79.9722C59.7294 79.9985 59.3724 79.8856 59.1019 79.6258C54.8974 75.6201 50.8807 76.5688 51.1775 80.8005C51.5006 85.3822 56.25 89.8661 60.0788 92.5848C62.6338 90.7701 64.5538 88.9738 65.9479 87.2759ZM69.8705 86.0079C74.9055 77.0514 67.6274 70.7713 60.0822 77.0891C52.5373 70.7717 45.2594 77.0552 50.2939 86.0079C48.6369 85.5562 47.0024 84.9537 45.5859 84.1895V76.3173C45.5859 72.1308 49.0089 68.7011 53.1871 68.7011H55.8211C56.4298 68.9872 57.0724 69.2169 57.7412 69.3788C59.3005 69.7553 60.8673 69.7553 62.4267 69.3788C63.0955 69.2169 63.738 68.991 64.3467 68.7011H66.9807C71.159 68.7011 74.5819 72.1309 74.5819 76.3173V84.1895C73.1616 84.9538 71.5275 85.56 69.8705 86.0079ZM52.4659 89.1102C50.8165 88.8052 49.2684 88.4062 47.8555 87.9242C46.3187 87.4009 44.936 86.776 43.7524 86.0719C43.3316 85.8649 43.0423 85.4281 43.0423 84.9274V76.6862C39.2285 76.7803 35.922 76.5017 32.5518 75.7375C32.2512 75.6697 31.9544 75.5982 31.665 75.5229C31.4922 75.5116 31.3306 75.4664 31.1841 75.3949C28.8733 74.7662 26.8405 73.9304 25.2061 72.944C24.8078 72.7068 24.5899 72.2851 24.5899 71.8522H24.5861V63.2458C24.5861 57.6513 29.1476 53.0807 34.7351 53.0807H37.6547C37.9027 53.0807 38.1356 53.1522 38.331 53.2765C39.2178 53.7734 40.5779 54.0407 41.6338 54.0407C43.2076 54.0407 44.0964 53.6437 44.7287 53.3613C45.0776 53.2054 45.3483 53.0845 45.6129 53.0845V53.0807H48.5324C49.1336 53.0807 49.686 53.1334 50.2834 53.2351C51.1777 48.5743 55.2658 45.1181 60.1015 45.1181C64.926 45.1181 69.0103 48.5591 69.9119 53.2086L71.5013 53.0769H74.4208V53.0806C74.6854 53.0806 74.9562 53.2016 75.3051 53.3575C75.9374 53.6399 76.8262 54.0369 78.3999 54.0369C79.4558 54.0369 80.8159 53.7696 81.7027 53.2727C81.8981 53.1484 82.1311 53.0769 82.379 53.0769H85.2986C90.8822 53.0769 95.4438 57.6474 95.4438 63.242V71.8484H95.44C95.44 72.2813 95.2183 72.703 94.8238 72.9402C93.1893 73.9265 91.1566 74.7585 88.8458 75.3911C88.6992 75.4626 88.5377 75.5078 88.3648 75.5191C88.0718 75.5944 87.7749 75.6659 87.4781 75.7337C84.2993 76.4565 80.8086 76.7916 77.153 76.6862V84.9236H77.1493C77.1493 85.3566 76.9276 85.7745 76.5293 86.0154C72.9473 88.1688 68.3874 88.987 67.791 89.094C67.7493 89.1015 67.7269 89.1055 67.7257 89.1063C66.0611 91.0903 63.7955 93.1459 60.8196 95.1714C60.3649 95.4801 59.7863 95.4538 59.3692 95.1488C56.382 93.1347 54.1267 91.0867 52.4659 89.1102ZM41.6224 34.5962C37.5081 34.5962 34.1714 37.9355 34.1714 42.0618C34.1714 46.1842 37.5042 49.5274 41.6224 49.5274C45.7367 49.5274 49.0734 46.1881 49.0734 42.0618C49.0696 37.9356 45.7367 34.5962 41.6224 34.5962ZM34.5547 34.9802C30.6507 38.8918 30.6507 45.232 34.5547 49.1431C38.4586 53.0542 44.7864 53.0548 48.6898 49.1431C52.5938 45.2315 52.5938 38.8913 48.6898 34.9802C44.7858 31.0685 38.458 31.0685 34.5547 34.9802ZM78.3779 32.0474C75.6162 32.0474 73.1174 33.1693 71.3101 34.9802C67.4062 38.8918 67.4062 45.232 71.3101 49.1431C75.2141 53.0548 81.5419 53.0548 85.4453 49.1431C87.2526 47.3322 88.3723 44.8286 88.3723 42.0615C88.3723 36.5309 83.8979 32.0474 78.3779 32.0474ZM83.6458 36.7835C80.7376 33.8696 76.0182 33.8696 73.1101 36.7835C70.2019 39.6975 70.2019 44.4261 73.1101 47.3399C76.0183 50.2539 80.7377 50.2539 83.6458 47.3399C86.554 44.4223 86.554 39.6974 83.6458 36.7835ZM52.6467 54.7043L52.6354 55.1335C52.6354 59.2559 55.972 62.5991 60.0864 62.5991C64.2007 62.5991 67.5373 59.2559 67.5373 55.1335L67.5223 54.6666C67.4058 52.7918 66.6017 51.1051 65.3543 49.8552C62.4461 46.9413 57.7267 46.9413 54.8186 49.8552C53.5636 51.1126 52.7519 52.8144 52.6467 54.7043ZM50.1104 55.7961C49.5919 55.6831 49.0696 55.6304 48.5173 55.6304H45.8833C45.2746 55.9165 44.6321 56.1462 43.9633 56.3081C42.404 56.6846 40.8371 56.6846 39.2778 56.3081C38.609 56.1462 37.9664 55.9203 37.3577 55.6304H34.7238C30.5455 55.6304 27.1225 59.0602 27.1225 63.2466V71.1188C28.1032 71.6459 29.2229 72.1203 30.4667 72.5306V64.0861C30.4667 63.3821 31.0378 62.8099 31.7404 62.8099C32.4431 62.8099 33.0142 63.3821 33.0142 64.0861V73.2384C36.1216 73.95 39.7888 74.2812 43.2796 74.1382C44.2941 69.5451 48.3934 66.1606 53.1881 66.1606H56.1077V66.1644C56.3723 66.1644 56.643 66.2853 56.992 66.4412C57.6242 66.7236 58.5131 67.1206 60.0868 67.1206C61.1426 67.1206 62.5028 66.8533 63.3895 66.3564C63.5849 66.2321 63.8179 66.1606 64.0659 66.1606H66.9854C71.7799 66.1606 75.883 69.5527 76.894 74.1458C80.3433 74.2701 83.9354 73.9425 86.9901 73.2423V64.09C86.9901 63.386 87.5612 62.8137 88.2638 62.8137C88.9665 62.8137 89.5376 63.386 89.5376 64.09V72.5345C90.7776 72.1241 91.901 71.6535 92.8817 71.1227V63.2504C92.8817 59.0639 89.4587 55.6343 85.2805 55.6343H82.6465C82.0378 55.9204 81.3953 56.15 80.7265 56.3119C79.1671 56.6884 77.6003 56.6884 76.041 56.3119C75.3721 56.15 74.7296 55.9242 74.1209 55.6343L71.4832 55.6305L70.0591 55.7585C69.736 61.0104 65.3773 65.148 60.0832 65.148C54.804 65.148 50.4519 61.0367 50.1104 55.7961Z" fill="#005CAB"/>
<path d="M27.3892 35.9129C28.0542 35.6945 28.7682 36.056 28.9899 36.7186C29.2078 37.385 28.8471 38.1003 28.1858 38.3224L22.125 40.3479C21.3059 40.6642 20.5206 40.2199 20.3591 39.3879L19.0327 33.5826C18.8749 32.8974 19.3033 32.2159 19.9871 32.0579C20.671 31.8998 21.3511 32.3289 21.5088 33.0141L22.1401 35.7813C30.335 22.9542 44.5081 15 59.9995 15C76.6298 15 91.7086 24.1748 99.5009 38.5753C99.8353 39.1965 99.6061 39.9683 98.9899 40.3034C98.3699 40.6385 97.5997 40.4088 97.2652 39.7914C89.8931 26.1701 75.709 17.5528 59.9993 17.5528C45.4582 17.5528 32.2167 24.9243 24.4503 36.8962L27.3892 35.9129Z" fill="#7BC143"/>
</svg>
