<svg width="120" height="120" viewBox="0 0 120 120" fill="none" xmlns="http://www.w3.org/2000/svg">
<path fill-rule="evenodd" clip-rule="evenodd" d="M72.0438 58.2353C72.7961 58.1496 73.5483 58.0937 74.3117 58.0937C85.1706 58.0937 94 66.95 94 77.8196C94 88.6849 85.1748 97.5227 74.3152 97.5227C72.2932 97.5227 70.3492 97.217 68.5095 96.643V101.642C68.5095 103.494 67.005 105 65.1542 105H32.9491C31.0982 105 29.5938 103.494 29.5938 101.642V93.1504C29.5938 91.2979 31.0982 89.792 32.9491 89.792H33.8391V86.2621C33.8391 84.2678 33.0757 82.5793 31.5786 81.2635C29.0314 79.0191 26 74.699 26 66.8154V51.4064C26 48.3797 28.4578 45.9196 31.4818 45.9196C32.7219 45.9196 33.8539 46.3296 34.7701 47.0154V26.298C34.7701 23.2713 37.2279 20.8112 40.2518 20.8112C41.4919 20.8112 42.624 21.2212 43.5401 21.907V20.4869C43.5401 17.4601 45.998 15 49.0219 15C52.0458 15 54.5036 17.4601 54.5036 20.4869V24.5834C55.4272 23.8976 56.563 23.4875 57.7919 23.4875C60.8159 23.4875 63.2737 25.9477 63.2737 28.9744V31.1326C64.1972 30.4468 65.333 30.0367 66.562 30.0367C69.5859 30.0367 72.0438 32.4969 72.0438 35.5236V58.2353ZM28.2379 66.8049C28.2379 72.4745 29.869 76.7797 33.0717 79.6126L33.0709 79.612C35.0335 81.3378 36.0725 83.6377 36.0725 86.2618V89.7917H58.7593C56.2046 86.4627 54.6703 82.3215 54.6703 77.8075C54.6703 68.4732 61.1802 60.6569 69.8944 58.6255V35.5339C69.8944 33.7224 68.4159 32.2426 66.6061 32.2426C64.7962 32.2426 63.3178 33.7224 63.3178 35.5339V35.5451V55.6213C63.3178 56.2288 62.8337 56.7171 62.2229 56.7171C61.616 56.7171 61.1281 56.2326 61.1281 55.6213V29C61.1281 27.1885 59.6497 25.7087 57.8398 25.7087C56.03 25.7087 54.5515 27.1885 54.5515 29L54.5441 53.3521C54.5441 53.9596 54.06 54.4479 53.4493 54.4479C52.8423 54.4479 52.3544 53.9634 52.3544 53.3521V20.4873C52.3544 18.6758 50.876 17.1959 49.0661 17.1959C47.2563 17.1959 45.7778 18.6758 45.7778 20.4873L45.7741 51.0896C45.7741 51.6971 45.29 52.1854 44.6793 52.1854C44.0723 52.1854 43.5845 51.7009 43.5845 51.0896V26.2986C43.5845 24.4871 42.106 23.0072 40.2962 23.0072C38.4863 23.0072 37.0079 24.4871 37.0079 26.2986L37.0041 61.2436C37.0041 61.8512 36.52 62.3395 35.9093 62.3395C35.3023 62.3395 34.8145 61.8549 34.8145 61.2436V51.3959C34.8145 49.5844 33.336 48.1046 31.5262 48.1046C29.7164 48.1046 28.2379 49.5844 28.2379 51.3959V66.8049ZM65.154 102.798C65.7909 102.798 66.3159 102.276 66.3159 101.634L66.3238 101.634L66.3275 95.7898C64.2196 94.8579 62.3204 93.557 60.6818 91.984H32.9489C32.312 91.984 31.7869 92.5059 31.7869 93.147V101.638C31.7869 102.276 32.3083 102.801 32.9489 102.801L65.154 102.798ZM56.8155 77.808C56.8155 87.4663 64.6625 95.3201 74.3114 95.3201C83.9607 95.3201 91.8073 87.4553 91.8073 77.8013C91.8073 68.143 83.9603 60.2892 74.3114 60.2892C64.6658 60.2892 56.8192 68.1502 56.8155 77.808Z" fill="#005CAB"/>
<path fill-rule="evenodd" clip-rule="evenodd" d="M87.1073 74.7258C86.8503 73.943 86.1912 73.3989 85.383 73.3056L78.9479 72.5042L76.2033 66.6259C75.8607 65.8804 75.1345 65.422 74.3152 65.422C73.4959 65.422 72.7697 65.8805 72.4271 66.6259L69.6825 72.5042L63.2474 73.3056C62.4356 73.41 61.7689 73.9542 61.5232 74.7258C61.2662 75.5086 61.4859 76.3398 62.0855 76.8914L66.815 81.3271L65.586 87.7011C65.4333 88.5025 65.7498 89.3039 66.4053 89.7811C66.7665 90.0494 67.1948 90.1836 67.6267 90.1836C67.9693 90.1836 68.3231 90.0979 68.6359 89.9153L74.3076 86.7767L79.9793 89.9153C80.6943 90.3066 81.5508 90.2582 82.2099 89.7736C82.8691 89.2965 83.1819 88.4951 83.0292 87.6937L81.8002 81.3197L86.5297 76.884C87.1442 76.3398 87.3642 75.5086 87.1073 74.7258ZM79.6629 81.685C79.5177 80.9693 79.7486 80.2611 80.2811 79.7653L84.8987 75.4527L78.635 74.6699C77.9088 74.5841 77.3167 74.148 77.0039 73.4883L74.3263 67.7628L71.6487 73.4883C71.3434 74.1443 70.7438 74.5842 70.0176 74.6699L63.7538 75.4527L68.3567 79.7653C68.8892 80.2648 69.1164 80.9693 68.9749 81.685L67.7832 87.8875L73.3134 84.8347C73.9502 84.4806 74.6839 84.4806 75.3244 84.8347L80.8546 87.8875L79.6629 81.685Z" fill="#7BC143"/>
</svg>
