<svg width="120" height="120" viewBox="0 0 120 120" fill="none" xmlns="http://www.w3.org/2000/svg">
<path d="M52.44 92.5033H50.9455V81.164C50.9515 76.5857 49.1446 72.1918 45.9208 68.9453L33.642 56.6517C32.8585 55.8478 31.8684 55.2764 30.7809 55.0007C29.6935 54.7251 28.5511 54.7558 27.48 55.0896V45.2484C27.48 43.5912 26.8226 42.0019 25.6524 40.8301C24.4821 39.6583 22.895 39 21.24 39C19.5851 39 17.9979 39.6583 16.8277 40.8301C15.6574 42.0019 15 43.5912 15 45.2484V66.7459C14.998 67.5678 15.1586 68.3819 15.4727 69.1413C15.7868 69.9006 16.2481 70.59 16.8299 71.1697L29.6843 84.0414C29.9758 84.3312 30.2068 84.6761 30.364 85.0561C30.5212 85.4361 30.6014 85.8436 30.6 86.2549V92.5033H29.04C28.6263 92.5033 28.2295 92.6678 27.9369 92.9608C27.6444 93.2537 27.48 93.6511 27.48 94.0653V103.438C27.48 103.852 27.6444 104.25 27.9369 104.542C28.2295 104.835 28.6263 105 29.04 105H52.44C52.8537 105 53.2505 104.835 53.5431 104.542C53.8356 104.25 54 103.852 54 103.438V94.0653C54 93.6511 53.8356 93.2537 53.5431 92.9608C53.2505 92.6678 52.8537 92.5033 52.44 92.5033ZM31.8901 81.831L19.0357 68.9609C18.7443 68.6708 18.5134 68.3256 18.3562 67.9453C18.199 67.5651 18.1187 67.1574 18.12 66.7459V45.2593C18.12 44.4307 18.4487 43.6361 19.0338 43.0502C19.619 42.4643 20.4125 42.1351 21.24 42.1351C22.0675 42.1351 22.8611 42.4643 23.4462 43.0502C24.0313 43.6361 24.36 44.4307 24.36 45.2593V57.1999C23.4122 58.4455 22.9542 59.9961 23.073 61.5575C23.1917 63.1189 23.879 64.5822 25.0043 65.6696L33.642 74.3189C33.9362 74.6035 34.3303 74.7609 34.7393 74.7574C35.1483 74.7538 35.5396 74.5895 35.8288 74.2999C36.1181 74.0103 36.2821 73.6185 36.2857 73.2089C36.2893 72.7993 36.132 72.4047 35.8478 72.1101L27.2101 63.4608C26.6047 62.89 26.2364 62.1117 26.1786 61.2811C26.1208 60.4505 26.3777 59.6286 26.8981 58.9792C27.1812 58.6639 27.5253 58.4095 27.9096 58.2316C28.294 58.0538 28.7104 57.9561 29.1337 57.9445C29.5569 57.933 29.9781 58.0078 30.3715 58.1645C30.7649 58.3211 31.1224 58.5563 31.4221 58.8558L43.7009 71.1494C46.3376 73.8064 47.8157 77.4011 47.8115 81.1468V92.5033H33.72V86.2549C33.7221 85.433 33.5614 84.6189 33.2473 83.8595C32.9332 83.1002 32.472 82.4107 31.8901 81.831ZM50.88 101.876H30.6V95.6274H50.88V101.876Z" fill="#005CAB" stroke="white"/>
<path d="M98.76 39C97.105 39 95.5179 39.6584 94.3476 40.8304C93.1774 42.0024 92.52 43.592 92.52 45.2494V55.0922C92.0055 54.9337 91.4728 54.8424 90.935 54.8204C90.0874 54.7931 89.2433 54.9416 88.4557 55.2564C87.6681 55.5712 86.9539 56.0456 86.358 56.6499L74.0792 68.9456C70.8567 72.1909 69.0498 76.5831 69.0545 81.1601V92.5012H67.56C67.1463 92.5012 66.7495 92.6658 66.4569 92.9588C66.1644 93.2518 66 93.6492 66 94.0635V103.438C66 103.852 66.1644 104.249 66.4569 104.542C66.7495 104.835 67.1463 105 67.56 105H90.96C91.3737 105 91.7705 104.835 92.0631 104.542C92.3556 104.249 92.52 103.852 92.52 103.438V94.0635C92.52 93.6492 92.3556 93.2518 92.0631 92.9588C91.7705 92.6658 91.3737 92.5012 90.96 92.5012H89.4V86.2518C89.3985 85.8404 89.4788 85.4328 89.636 85.0528C89.7932 84.6727 90.0242 84.3278 90.3157 84.0379L103.17 71.1641C103.752 70.5843 104.213 69.8948 104.527 69.1353C104.841 68.3759 105.002 67.5616 105 66.7396V45.2494C105 43.592 104.343 42.0024 103.172 40.8304C102.002 39.6584 100.415 39 98.76 39ZM89.4 101.875H69.12V95.6259H89.4V101.875ZM101.88 66.7396C101.881 67.1511 101.801 67.5589 101.644 67.9392C101.487 68.3195 101.256 68.6647 100.964 68.955L88.1099 81.8272C87.528 82.407 87.0668 83.0966 86.7527 83.856C86.4386 84.6155 86.2779 85.4298 86.28 86.2518V92.5012H72.1745V81.146C72.1698 77.3996 73.6479 73.804 76.2851 71.147L88.5638 58.8512C88.8636 58.5518 89.221 58.3165 89.6145 58.1598C90.0079 58.0032 90.4291 57.9283 90.8523 57.9399C91.2755 57.9514 91.692 58.0491 92.0763 58.227C92.4606 58.4049 92.8048 58.6593 93.0878 58.9747C93.6083 59.6242 93.8652 60.4462 93.8074 61.277C93.7495 62.1078 93.3812 62.8862 92.7758 63.4571L84.1381 72.1078C83.8539 72.4025 83.6967 72.7971 83.7003 73.2068C83.7038 73.6164 83.8679 74.0083 84.1571 74.2979C84.4464 74.5876 84.8376 74.7519 85.2466 74.7555C85.6557 74.759 86.0497 74.6016 86.3439 74.317L94.9817 65.6662C96.1099 64.5803 96.8003 63.117 96.9217 61.5546C97.0431 59.9922 96.5869 58.4396 95.64 57.192V45.2494C95.64 44.4207 95.9687 43.6259 96.5538 43.0399C97.1389 42.4539 97.9325 42.1247 98.76 42.1247C99.5875 42.1247 100.381 42.4539 100.966 43.0399C101.551 43.6259 101.88 44.4207 101.88 45.2494V66.7396Z" fill="#005CAB" stroke="white"/>
<path d="M83 38.5C83 33.8521 81.6511 29.3087 79.1238 25.4441C76.5965 21.5796 73.0044 18.5675 68.8017 16.7888C64.599 15.0102 59.9745 14.5448 55.5129 15.4516C51.0514 16.3583 46.9532 18.5965 43.7366 21.883C40.5199 25.1695 38.3294 29.3568 37.4419 33.9154C36.5545 38.4739 37.01 43.199 38.7508 47.4931C40.4916 51.7871 43.4396 55.4573 47.2219 58.0395C51.0042 60.6217 55.451 62 60 62C66.0979 61.993 71.944 59.5148 76.2558 55.1092C80.5677 50.7037 82.9931 44.7304 83 38.5ZM60 58.8667C56.0576 58.8667 52.2037 57.6722 48.9256 55.4343C45.6476 53.1963 43.0927 50.0155 41.584 46.294C40.0753 42.5725 39.6806 38.4774 40.4497 34.5267C41.2188 30.5759 43.1173 26.9469 45.905 24.0986C48.6927 21.2503 52.2445 19.3105 56.1112 18.5247C59.9779 17.7388 63.9858 18.1422 67.6282 19.6837C71.2705 21.2252 74.3837 23.8356 76.574 27.1849C78.7643 30.5342 79.9333 34.4719 79.9333 38.5C79.9272 43.8997 77.8252 49.0764 74.0883 52.8945C70.3514 56.7127 65.2848 58.8604 60 58.8667Z" fill="#7BC143" stroke="white"/>
<path d="M65.25 26.0003C63.3584 25.9849 61.5141 26.6104 60 27.781C58.4853 26.6121 56.6411 25.9882 54.75 26.0049C50.9655 26.0049 48 29.633 48 34.2629C48 38.8246 53.196 44.1203 58.986 49.5926C59.2627 49.8546 59.6245 50 60 50C60.3755 50 60.7373 49.8546 61.014 49.5926C66.804 44.1142 72 38.8184 72 34.2629C72 29.6283 69.0345 26.0003 65.25 26.0003ZM60 46.3501C56.2395 42.767 51 37.5239 51 34.2582C51 31.7218 52.4025 29.0972 54.75 29.0972C55.5102 29.0745 56.2665 29.2178 56.9693 29.5177C57.6722 29.8176 58.3057 30.2674 58.8285 30.8377C58.9749 31.0118 59.1559 31.1512 59.3593 31.2465C59.5627 31.3417 59.7836 31.3905 60.0069 31.3894C60.2302 31.3884 60.4507 31.3376 60.6533 31.2405C60.8558 31.1434 61.0357 31.0023 61.1805 30.8268C61.7044 30.2614 62.3371 29.8154 63.0379 29.5175C63.7388 29.2196 64.4923 29.0764 65.25 29.0972C67.5975 29.0972 69 31.7296 69 34.2582C69 37.5363 63.7605 42.767 60 46.3501Z" fill="#7BC143" stroke="white"/>
</svg>
