<svg width="120" height="120" viewBox="0 0 120 120" fill="none" xmlns="http://www.w3.org/2000/svg">
<path d="M101.786 47.1426H99.5641L91.5284 31.0713H98.5717C99.4597 31.0713 100.179 30.3521 100.179 29.4641C100.179 28.5762 99.4597 27.857 98.5717 27.857H79.8323C77.8675 27.857 75.9349 27.0574 74.5408 25.6592C71.9332 23.0476 68.494 21.5771 64.8217 21.4526V18.2143C64.8217 16.4424 63.3793 15 61.6074 15H58.3931C56.6212 15 55.1789 16.4424 55.1789 18.2143V21.4526C51.5066 21.5772 48.0713 23.0477 45.4597 25.6592C44.0615 27.0535 42.1329 27.857 40.1683 27.857H21.4288C19.3436 27.8891 19.2954 31.031 21.4288 31.0713H28.4721L20.4365 47.1426H18.2146C17.3266 47.1426 16.6074 47.8618 16.6074 48.7497C17.403 67.9387 44.7439 67.9346 45.5359 48.7497C45.5359 47.8618 44.8167 47.1426 43.9287 47.1426H41.7068L33.6711 31.0713H40.168C42.9805 31.0713 45.7367 29.9261 47.7336 27.9333C49.7385 25.9284 52.3662 24.7913 55.1787 24.6668V69.2891C55.1787 70.177 55.8979 70.8962 56.7858 70.8962C57.6737 70.8962 58.3929 70.177 58.3929 69.2891V18.2146H61.6072V68.3737C61.6072 69.2616 62.3264 69.9808 63.2143 69.9808C64.1023 69.9808 64.8215 69.2616 64.8215 68.3737V24.6678C67.634 24.7883 70.2617 25.9294 72.2666 27.9343C74.2634 29.9272 77.0197 31.0723 79.8322 31.0723H86.329L78.2933 47.1436H76.0714C75.1835 47.1436 74.4643 47.8628 74.4643 48.7508C75.2518 67.9284 102.598 67.9438 103.393 48.7508C103.393 47.8628 102.674 47.1436 101.786 47.1436L101.786 47.1426ZM31.0721 59.9997C25.4149 59.9997 20.7185 55.8011 19.9388 50.3569H32.1366C33.0246 50.3569 33.7438 49.6377 33.7438 48.7497C33.7438 47.8618 33.0246 47.1426 32.1366 47.1426H24.0326L31.076 33.0605L39.2804 49.4692C39.7786 50.5701 41.2411 50.3491 42.2095 50.3572C41.426 55.8014 36.7332 60 31.0763 60L31.0721 59.9997ZM88.9289 33.0564L95.9722 47.1426H81.886L88.9289 33.0564ZM88.9289 59.9997C83.2718 59.9997 78.5754 55.8011 77.7957 50.3569H100.066C99.2828 55.8011 94.5899 59.9997 88.933 59.9997H88.9289Z" fill="#005CAB" stroke="white" stroke-width="0.5"/>
<path d="M23.3705 82.4999C22.374 85.3285 23.6638 88.4262 26.3718 89.7079L54.3797 102.971C57.2445 104.329 60.326 105 63.4037 105C67.084 105 70.7523 104.036 74.0309 102.128L85.1517 95.6427C85.5937 95.3856 86.0959 95.249 86.6062 95.249H95.353C96.241 95.249 96.9602 94.5298 96.9602 93.6418C96.9602 92.7539 96.241 92.0347 95.353 92.0347H86.6062C85.5254 92.0347 84.4607 92.32 83.5285 92.8664L72.4077 99.3512C67.3091 102.328 61.0852 102.59 55.75 100.066L27.7422 86.803C24.8976 85.437 26.5127 81.0615 29.5904 81.9293L47.4381 87.1084C48.6193 88.2173 50.1943 88.9084 51.9381 88.9084H66.8399C68.9493 88.8722 68.9533 85.7303 66.8399 85.6941H51.9381C47.4823 85.5816 47.4702 79.0446 51.9381 78.9281H62.3482C63.7946 78.9281 65.2008 78.5183 66.4222 77.7429C69.3713 75.9911 73.4696 72.5638 77.1337 72.8572H95.3507C97.4359 72.8371 97.4801 69.675 95.3507 69.6429H77.1337C72.7101 69.3375 68.2383 72.8049 64.6984 75.0308C63.9953 75.4768 63.1796 75.7139 62.3479 75.7139H51.9378C48.0204 75.6817 44.7981 79.2858 45.4289 83.179L30.4869 78.8438C27.5097 77.98 24.3918 79.5911 23.3673 82.5041L23.3705 82.4999Z" fill="#7BC143" stroke="white" stroke-width="0.5"/>
</svg>
