<svg width="100" height="100" viewBox="0 0 100 100" fill="none" xmlns="http://www.w3.org/2000/svg">
<path d="M23.8741 59.963C24.6436 59.4708 24.8741 58.4474 24.3819 57.6778C21.2999 52.834 19.671 47.2328 19.671 41.4708C19.671 24.7478 33.276 11.1428 49.999 11.1428C66.722 11.1428 80.327 24.7478 80.327 41.4708C80.327 47.2325 78.6981 52.8378 75.6161 57.6778C75.1239 58.4473 75.3505 59.4747 76.1239 59.963C76.3973 60.1388 76.7098 60.2208 77.0106 60.2208C77.5575 60.2208 78.0965 59.9513 78.409 59.4552C81.8309 54.0802 83.6395 47.8572 83.6395 41.4672C83.6395 22.9162 68.5495 7.82617 49.9985 7.82617C31.4475 7.82617 16.3535 22.9202 16.3535 41.4672C16.3535 47.8617 18.1621 54.0802 21.584 59.4552C22.0723 60.2247 23.0918 60.4513 23.8692 59.963H23.8741Z" fill="#005CAB"/>
<path d="M69.6011 35.8261C70.3589 35.0644 70.6128 33.9667 70.2652 32.9589C69.9292 31.9707 69.0738 31.2714 68.066 31.1425L57.289 29.5566L52.4726 19.8183C51.5507 17.9238 48.4492 17.9238 47.5312 19.8105L42.7109 29.5566L31.9569 31.1386C30.9257 31.2753 30.0741 31.9746 29.7342 32.9706C29.3904 33.9784 29.6443 35.0722 30.4178 35.8456L38.2147 43.4237L36.3709 54.1427C36.1834 55.1779 36.5935 56.2091 37.4412 56.8302C38.2966 57.463 39.41 57.5568 40.3709 57.0568L50.0115 51.9826L59.6404 57.0646C60.0466 57.2755 60.4841 57.3771 60.9177 57.3771C61.4958 57.3771 62.07 57.1935 62.5583 56.8302C63.4059 56.2091 63.8161 55.1779 63.6325 54.1544L61.7887 43.4204L69.5856 35.8423L69.6051 35.8228L69.6011 35.8261ZM58.8511 41.6581C58.4566 42.0409 58.2808 42.5878 58.3707 43.1269L60.1715 53.5999L50.7887 48.6468C50.3043 48.389 49.7223 48.389 49.2418 48.6429L39.8316 53.5999L41.6323 43.1269C41.7261 42.5879 41.5425 42.041 41.1519 41.6581L33.5386 34.2597L44.0546 32.7128C44.5936 32.6308 45.0585 32.2949 45.3007 31.8066L49.9999 22.2949L54.703 31.8066C54.9452 32.2949 55.41 32.6308 55.9491 32.7128L66.4651 34.2597L58.8511 41.6581Z" fill="#7BC143"/>
<path d="M91.8968 81.5098L97.2288 73.416C97.5608 72.9199 97.5881 72.2558 97.3108 71.7324C97.0061 71.2089 96.4553 70.8769 95.846 70.8769H82.733V70.5488C82.733 66.8105 79.69 63.7676 75.9518 63.7676H24.0498C20.3115 63.7676 17.2686 66.8106 17.2686 70.5488V70.8769H4.14758C3.54211 70.8769 2.98738 71.2089 2.71008 71.7324C2.40539 72.2558 2.43664 72.9199 2.76477 73.416L8.09677 81.5098L2.76477 89.6036C2.43665 90.127 2.40539 90.7638 2.71008 91.3184C2.98742 91.8418 3.5382 92.1738 4.14758 92.1738H31.1316C32.0417 92.1738 32.7878 91.4277 32.7878 90.5176V85.0879H67.2018V90.5176C67.2018 91.4278 67.9479 92.1738 68.858 92.1738H95.842C96.4514 92.1738 97.0022 91.8418 97.3068 91.3184C97.5841 90.7676 97.5568 90.1309 97.2247 89.6036L91.8927 81.5098H91.8968ZM20.5807 70.5448C20.5807 68.6346 22.1354 67.076 24.0495 67.076H75.9515C77.8617 67.076 79.4203 68.6307 79.4203 70.5448V81.7678L20.5803 81.7717L20.5807 70.5448ZM29.4752 88.8538H7.24125L11.4678 82.4163C11.8272 81.8655 11.8272 81.1468 11.4678 80.6194L7.24125 74.1546H17.2682V83.4202C17.2682 84.3342 18.0104 85.0764 18.9244 85.0764H29.4754L29.4752 88.8538ZM70.5182 88.8538V85.0804H81.0772C81.9913 85.0804 82.7335 84.3382 82.7335 83.4242V74.1586H92.7804L88.5538 80.6234C88.1671 81.1468 88.1671 81.8656 88.5538 82.4203L92.7804 88.8578H70.5184L70.5182 88.8538Z" fill="#005CAB"/>
</svg>
