<svg width="100" height="100" viewBox="0 0 100 100" fill="none" xmlns="http://www.w3.org/2000/svg">
<path fill-rule="evenodd" clip-rule="evenodd" d="M91.1091 29.6501V88.4342V88.4452H95V91.2971H89.6721H78.4967H68.6588H57.4834H47.6345H36.4591H26.6102H15.4348H6.42594C5.64112 91.2971 5 90.656 5 89.8711V13.0694H7.85188V88.4342H14.0088V60.3907C14.0088 59.6059 14.65 58.9647 15.4348 58.9647H26.6102C27.395 58.9647 28.0361 59.6059 28.0361 60.3907V88.4342H35.0332V46.8166C35.0332 46.0318 35.6743 45.3907 36.4591 45.3907H47.6345C48.4193 45.3907 49.0604 46.0318 49.0604 46.8166V88.4342H56.0685V60.3907C56.0685 59.6059 56.7097 58.9647 57.4945 58.9647H68.6699C69.4547 58.9647 70.0958 59.6059 70.0958 60.3907V88.4342H77.0818V29.6501C77.0818 28.8652 77.7229 28.2241 78.5077 28.2241H89.6831C90.4679 28.2241 91.1091 28.8652 91.1091 29.6501ZM16.8607 61.8166V88.4342H25.1842V61.8166H16.8607ZM37.885 48.2426V88.4342H46.2085V48.2426H37.885ZM58.9204 61.8166V88.4342H67.2439V61.8166H58.9204ZM79.9337 31.0871V88.4342V88.4452H88.2572V31.0871H79.9337Z" fill="#005CAB"/>
<path fill-rule="evenodd" clip-rule="evenodd" d="M21.028 51.9235C24.8526 51.9235 27.9587 48.8174 27.9587 44.9927C27.9587 44.2742 27.8482 43.5889 27.6492 42.9367L37.8629 34.1269C39.0236 35.0112 40.4827 35.5528 42.0523 35.5528C43.9315 35.5528 45.6338 34.8011 46.8828 33.5742L56.9307 41.8092C56.4333 42.7599 56.1459 43.8431 56.1459 44.9927C56.1459 48.8174 59.252 51.9235 63.0656 51.9235C66.8902 51.9235 69.9963 48.8174 69.9963 44.9927C69.9963 43.0583 69.2004 41.3008 67.9072 40.0517L80.0774 21.2823C81.2159 22.0893 82.5976 22.5646 84.0899 22.5646C87.9035 22.5646 91.0096 19.4585 91.0096 15.6339C91.0096 11.8092 87.9035 8.70312 84.0899 8.70312C80.2653 8.70312 77.1592 11.8092 77.1592 15.6339C77.1592 16.894 77.5018 18.0657 78.0877 19.0937L65.5085 38.5152C64.7458 38.2278 63.9278 38.062 63.0766 38.062C61.4407 38.062 59.9374 38.6368 58.7436 39.5874L48.4856 31.1644C48.8062 30.3686 48.9831 29.5064 48.9831 28.6C48.9831 24.7753 45.8769 21.6692 42.0634 21.6692C38.2388 21.6692 35.1327 24.7753 35.1327 28.6C35.1327 29.8159 35.4532 30.9544 36.0059 31.9493L26.2233 40.3944C24.9521 38.9684 23.1061 38.051 21.0391 38.051C17.2255 38.051 14.1194 41.1571 14.1194 44.9817C14.1194 48.8063 17.2034 51.9235 21.028 51.9235ZM88.1688 15.6339C88.1688 13.3899 86.3449 11.5661 84.101 11.5661C81.846 11.5661 80.0221 13.3899 80.0221 15.6339C80.0221 17.8778 81.857 19.7017 84.101 19.7017C86.3449 19.7017 88.1688 17.8778 88.1688 15.6339ZM67.1444 44.9927C67.1444 42.7488 65.3095 40.9249 63.0656 40.9249C60.8327 40.9249 59.0088 42.7488 59.0088 44.9927C59.0088 47.2367 60.8327 49.0605 63.0656 49.0605C65.3095 49.0605 67.1444 47.2367 67.1444 44.9927ZM46.1201 28.611C46.1201 26.3671 44.2962 24.5432 42.0523 24.5432C39.8084 24.5432 37.9735 26.3671 37.9735 28.611C37.9735 30.8549 39.8084 32.6788 42.0523 32.6788C44.2962 32.6788 46.1201 30.8549 46.1201 28.611ZM25.1069 44.9927C25.1069 42.7488 23.2719 40.9249 21.028 40.9249C18.7841 40.9249 16.9602 42.7488 16.9602 44.9927C16.9602 47.2367 18.7841 49.0605 21.028 49.0605C23.2719 49.0605 25.1069 47.2367 25.1069 44.9927Z" fill="#7BC143"/>
</svg>
