<svg width="104" height="100" viewBox="0 0 104 100" fill="none" xmlns="http://www.w3.org/2000/svg">
<path d="M46.3291 75.0342C45.465 74.6042 44.3858 75.0342 43.9559 75.8983C43.5259 76.7625 42.7671 77.3021 41.7976 77.3021H35.2132C34.0244 77.3021 33.0549 76.4379 32.84 75.2535L32.0854 69.6428C31.9758 68.9937 31.5458 68.454 31.0063 68.2391C28.848 67.3749 28.3084 67.1599 26.0405 66.1904C25.501 65.9755 24.7464 66.0809 24.3122 66.4054L19.7807 69.7525C18.8111 70.507 17.5128 70.4016 16.6529 69.5375L11.9064 64.791C11.0423 64.0365 11.0423 62.7424 11.6915 61.7686L15.0385 57.2371C15.3631 56.6975 15.4685 56.0483 15.2535 55.5087L13.2049 50.543C12.9899 50.0034 12.4503 49.5735 11.8011 49.4639L6.19048 48.7093C5.0017 48.4943 4.14185 47.5205 4.14185 46.4414V39.7516C4.14185 38.5628 5.006 37.5933 6.19048 37.4837L11.8011 36.6196C12.4503 36.51 12.9899 36.08 13.2049 35.5404C13.9594 33.7068 14.284 32.9522 14.9332 31.3335L15.2578 30.4694C15.4728 29.9298 15.3674 29.1753 15.0428 28.741L11.582 24.0999C10.9328 23.1304 10.9328 21.832 11.797 21.0774L16.4381 16.4363C17.3023 15.5722 18.5964 15.4668 19.5659 16.2213L24.0974 19.6737C24.637 20.1037 25.2862 20.1037 25.8258 19.8887C27.6594 19.1341 28.4139 18.8095 30.0326 18.1603L30.7872 17.8357C31.3268 17.6208 31.7567 17.0812 31.8663 16.432L32.6209 10.8214C32.8359 9.6326 33.8097 8.77274 34.9941 8.77274H41.5786C42.7673 8.77274 43.7368 9.63689 43.9518 10.8214L44.7064 16.432C44.816 17.0812 45.2459 17.6208 45.7855 17.8357C47.9438 18.6999 48.593 18.9149 50.7512 19.8844C51.4004 20.0994 52.0453 20.0994 52.4796 19.6694L57.0111 16.217C57.9806 15.5679 59.279 15.6775 60.0335 16.432L64.78 21.0732C65.5345 21.8277 65.6441 22.9068 65.21 23.771C64.78 24.6351 65.21 25.7143 66.0741 26.1442C66.9383 26.5742 68.0174 26.2538 68.4473 25.2801C69.5265 23.0122 69.0965 20.3143 67.2586 18.4807L62.5121 13.8395C60.4635 11.7909 57.1164 11.4663 54.7432 13.3L51.0759 16.1074C49.8871 15.5679 49.1326 15.3529 47.9481 14.8133L47.6277 10.0711C47.1978 7.15827 44.7149 5 41.6925 5H35.108C32.1952 5 29.6027 7.15827 29.1728 10.0711L28.5236 14.7122C27.3349 15.2518 26.5803 15.4668 25.3959 16.0063L21.6189 13.1988C19.2457 11.4705 16.0083 11.6898 13.85 13.848L9.20884 18.4891C7.16021 20.5378 6.94093 23.8848 8.66927 26.2581L11.4768 30.035C10.9372 31.2238 10.7222 31.9783 10.1827 33.1628L5.65115 33.812C2.73835 34.2419 0.580078 36.7248 0.580078 39.6376V46.3273C0.580078 49.2401 2.73835 51.723 5.65115 52.1529L10.1827 52.8021L11.4768 55.9299L8.66927 59.7068C6.94093 62.0801 7.16021 65.4271 9.20884 67.4757L13.85 72.2222C15.8986 74.2708 19.2457 74.5954 21.6189 72.7618L25.2862 69.9543C26.475 70.4939 27.2295 70.7088 28.414 71.2484L29.0632 75.8895C29.4931 78.8023 31.976 80.9606 34.9984 80.9606H41.5828C43.8508 80.9606 45.8994 79.6665 46.9785 77.5082C47.5181 76.5471 47.1933 75.4684 46.3291 75.0342Z" fill="#005CAB"/>
<path d="M38.455 25.9346C29.0674 25.9346 21.5137 33.4885 21.5137 42.8759C21.5137 52.2635 29.0676 59.8172 38.455 59.8172C47.8426 59.8172 55.3963 52.2633 55.3963 42.8759C55.3963 33.4883 47.7328 25.9346 38.455 25.9346ZM38.455 56.2604C31.116 56.2604 25.0759 50.2155 25.0759 42.8813C25.0759 35.5423 31.1208 29.5022 38.455 29.5022C45.7898 29.498 51.8341 35.5429 51.8341 42.8781C51.8341 50.2171 45.7892 56.2604 38.455 56.2604Z" fill="#005CAB"/>
<path d="M96.7306 54.5314C95.5418 54.5314 94.3573 54.856 93.3835 55.5009C92.414 53.1277 90.1461 51.509 87.4483 51.509C86.1542 51.509 84.9654 51.939 83.9959 52.5882C82.9168 50.4299 80.7585 48.9208 78.2756 48.9208C77.1965 48.9208 76.3323 49.1358 75.4682 49.57V36.4013C75.4682 32.8393 72.5554 30.0361 69.103 30.0361C65.6506 30.0361 62.7378 32.9489 62.7378 36.4013V67.4815L58.4213 63.3799C57.1272 62.1911 55.5085 61.6515 53.7801 61.7612C52.0518 61.8708 50.4331 62.6253 49.354 64.0291C47.4107 66.297 47.4107 69.6397 49.354 72.013L62.7331 88.3101C66.1854 92.517 71.3662 94.9998 76.8719 94.9998H87.3387C96.1867 94.9998 103.416 87.7705 103.416 78.9229L103.42 61.0071C103.095 57.4451 100.183 54.5314 96.7306 54.5314ZM99.5338 78.922C99.5338 85.8268 93.9232 91.4421 87.0137 91.4421L76.6565 91.4379C72.2303 91.4379 68.0234 89.4946 65.2155 86.0423L51.8364 69.7495C50.9723 68.7799 50.9723 67.2666 51.8364 66.2971C52.2664 65.7575 53.0252 65.433 53.6701 65.3276C54.4246 65.3276 55.0738 65.5426 55.6134 66.0821L62.9524 72.9869C63.4919 73.5264 64.2465 73.636 64.8957 73.3114C65.5448 72.9869 65.9748 72.3419 65.9748 71.6927V36.4018C65.9748 34.8927 67.2689 33.5943 68.7823 33.5943C70.401 33.5943 71.5898 34.8884 71.5898 36.4018V59.6032C71.5898 60.5727 72.3443 61.4369 73.4234 61.4369C74.393 61.4369 75.2571 60.6823 75.2571 59.6032V55.3963C75.2571 53.7776 76.5512 52.5888 78.0646 52.5888C79.5736 52.5888 80.872 53.8829 80.872 55.3963V61.4412C80.872 62.4107 81.6266 63.2748 82.7057 63.2748C83.6752 63.2748 84.5394 62.5203 84.5394 61.4412V57.9888C84.5394 56.4797 85.8335 55.1813 87.3469 55.1813C88.8559 55.1813 90.1543 56.4754 90.1543 57.9888V63.1695C90.1543 64.1391 90.9089 65.0032 91.988 65.0032C92.9575 65.0032 93.8217 64.2486 93.8217 63.1695V61.0112C93.8217 59.5022 95.1158 58.2038 96.6291 58.2038C98.1382 58.2038 99.4366 59.4979 99.4366 61.0112L99.4282 78.9227L99.5338 78.922Z" fill="#7BC143"/>
</svg>
