<svg width="28" height="28" viewBox="0 0 28 28" fill="none" xmlns="http://www.w3.org/2000/svg">
<path fill-rule="evenodd" clip-rule="evenodd" d="M17.9749 12.2224H9.30207C9.14049 12.2224 9.00916 12.3539 9.00916 12.5168V14.685C9.00916 14.8466 9.14068 14.9781 9.30226 14.9781H13.6385L15.8067 14.9768H17.9749C18.1365 14.9768 18.268 14.8453 18.268 14.6837V12.5155C18.268 12.3539 18.1365 12.2224 17.9749 12.2224ZM9.59518 12.8099H11.1772V14.3919H9.59518V12.8099ZM11.7634 12.8099H13.3454V14.3919H11.7634V12.8099ZM13.9316 12.8099H15.5136V14.3919H13.9316V12.8099ZM16.0998 12.8099H17.6818V14.3919H16.0998V12.8099ZM17.9748 3.81893H9.302C9.14042 3.81893 9.0089 3.95045 9.0089 4.11203V6.28023C9.0089 6.44181 9.14042 6.57333 9.302 6.57333H17.9748C18.1364 6.57333 18.268 6.44181 18.268 6.28023V4.11203C18.268 3.95045 18.1364 3.81893 17.9748 3.81893ZM9.59512 4.40513H11.1771V5.98713H9.59512V4.40513ZM11.7633 4.40513H13.3453V5.98713H11.7633V4.40513ZM13.9315 4.40513H15.5135V5.98713H13.9315V4.40513ZM16.0997 4.40513H17.6817V5.98713H16.0997V4.40513ZM24.0622 14.2741H21.2214C21.0598 14.2741 20.9283 14.4056 20.9283 14.5672V17.408C20.9283 17.5696 21.0598 17.7011 21.2214 17.7011H24.0622C24.2238 17.7011 24.3553 17.5696 24.3553 17.408V14.5672C24.3553 14.4056 24.2238 14.2741 24.0622 14.2741ZM21.5145 14.8603H23.7691V17.1149H21.5145V14.8603ZM6.05511 10.0818H3.21427C3.0527 10.0818 2.92117 10.2134 2.92117 10.3749V13.2158C2.92117 13.3774 3.05269 13.5089 3.21427 13.5089H6.05511C6.21669 13.5089 6.34822 13.3774 6.34822 13.2158V10.3749C6.34822 10.2134 6.2167 10.0818 6.05511 10.0818ZM3.50739 10.668H5.762V12.9226H3.50739V10.668Z" fill="#7BC143"/>
<path fill-rule="evenodd" clip-rule="evenodd" d="M26.9566 28H0.319468C0.157885 28 0.0263672 27.8685 0.0263672 27.7069V26.0009C0.0263672 25.8393 0.157888 25.7078 0.319468 25.7078H1.45431V8.46857H0.651414C0.489831 8.46857 0.358313 8.33705 0.358313 8.17547V6.81392C0.358313 6.65234 0.489834 6.52082 0.651414 6.52082H7.22747V2.32853H6.6037C6.44211 2.32853 6.3106 2.19701 6.3106 2.03543V0.293101C6.3106 0.131518 6.44212 0 6.6037 0H20.6713C20.8329 0 20.9644 0.131521 20.9644 0.293101V2.03418C20.9644 2.19576 20.8329 2.32728 20.6713 2.32728H20.0475V9.77265H26.6236C26.7852 9.77265 26.9167 9.90417 26.9167 10.0657V11.4273C26.9167 11.5889 26.7852 11.7204 26.6236 11.7204H25.8207V25.7065H26.9555C27.1171 25.7065 27.2486 25.8381 27.2486 25.9997V27.7044C27.2499 27.8685 27.1181 28 26.9566 28ZM26.3322 11.1352H20.0492V10.3598H26.3322V11.1352ZM26.6635 27.4138H0.613832L0.6138 26.294H19.7542L25.5286 26.2953H26.6635V27.4138ZM10.0682 25.7078H7.81486L7.81492 2.32864H19.4612L19.46 10.0658V25.7066H17.2066V19.1719C17.2066 18.776 17.045 18.4165 16.7845 18.156C16.524 17.8955 16.1645 17.7339 15.7687 17.7339H13.638L11.5062 17.7352C11.1104 17.7352 10.7509 17.8967 10.4903 18.1573C10.2298 18.4178 10.0682 18.7773 10.0682 19.1731V25.7078ZM13.3437 25.7078H10.6544L10.6557 19.1719C10.6557 18.9389 10.7521 18.7247 10.9062 18.5707C11.0603 18.4166 11.2732 18.3202 11.5074 18.3202H13.345L13.3437 25.7078ZM16.6205 25.7078H13.9313L13.9325 18.3214H15.77C16.0043 18.3214 16.2172 18.4178 16.3713 18.5719C16.5253 18.726 16.6218 18.9389 16.6218 19.1731L16.6205 25.7078ZM20.3794 1.74244H6.89793L6.89796 0.586311H20.3781L20.3794 1.74244ZM7.22853 25.7078H2.04156L2.04159 8.46857H7.22728L7.22853 25.7078ZM25.2354 25.7078H20.0485L20.0485 11.7217H25.2342L25.2354 25.7078ZM7.22735 7.88241H0.944367V7.10706H7.22735V7.88241Z" fill="#005CAB"/>
</svg>
