<svg width="32" height="32" viewBox="0 0 32 32" fill="none" xmlns="http://www.w3.org/2000/svg">
<path fill-rule="evenodd" clip-rule="evenodd" d="M22.0502 13.1352H28.3332V12.3598H22.0502V13.1352ZM11.303 14.2224H19.9759C20.1375 14.2224 20.269 14.3539 20.269 14.5155V16.6837C20.269 16.8453 20.1375 16.9768 19.9759 16.9768H17.8077L15.6395 16.9781H11.3032C11.1417 16.9781 11.0101 16.8466 11.0101 16.685V14.5168C11.0101 14.3539 11.1415 14.2224 11.303 14.2224ZM13.1782 14.8099H11.5962V16.3919H13.1782V14.8099ZM15.3464 14.8099H13.7644V16.3919H15.3464V14.8099ZM17.5145 14.8099H15.9326V16.3919H17.5145V14.8099ZM19.6827 14.8099H18.1007V16.3919H19.6827V14.8099ZM11.303 5.81893H19.9758C20.1374 5.81893 20.2689 5.95045 20.2689 6.11203V8.28023C20.2689 8.44181 20.1374 8.57333 19.9758 8.57333H11.303C11.1414 8.57333 11.0099 8.44181 11.0099 8.28023V6.11203C11.0099 5.95045 11.1414 5.81893 11.303 5.81893ZM13.1781 6.40513H11.5961V7.98713H13.1781V6.40513ZM15.3463 6.40513H13.7643V7.98713H15.3463V6.40513ZM17.5145 6.40513H15.9325V7.98713H17.5145V6.40513ZM19.6827 6.40513H18.1007V7.98713H19.6827V6.40513ZM23.2224 16.2741H26.0632C26.2248 16.2741 26.3563 16.4056 26.3563 16.5672V19.408C26.3563 19.5696 26.2248 19.7011 26.0632 19.7011H23.2224C23.0608 19.7011 22.9293 19.5696 22.9293 19.408V16.5672C22.9293 16.4056 23.0608 16.2741 23.2224 16.2741ZM25.7701 16.8603H23.5155V19.1149H25.7701V16.8603ZM5.21525 12.0818H8.05609C8.21767 12.0818 8.34919 12.2134 8.34919 12.3749V15.2158C8.34919 15.3774 8.21767 15.5089 8.05609 15.5089H5.21525C5.05367 15.5089 4.92215 15.3774 4.92215 15.2158V12.3749C4.92215 12.2134 5.05367 12.0818 5.21525 12.0818ZM7.76298 12.668H5.50837V14.9226H7.76298V12.668ZM2.61481 29.4138H28.6644V28.2953H27.5296L21.7552 28.294H2.61478L2.61481 29.4138ZM28.9575 30H2.32044C2.15886 30 2.02734 29.8685 2.02734 29.7069V28.0009C2.02734 27.8393 2.15886 27.7078 2.32044 27.7078H3.45529V10.4686H2.65239C2.49081 10.4686 2.35929 10.337 2.35929 10.1755V8.81392C2.35929 8.65234 2.49081 8.52082 2.65239 8.52082H9.22845V4.32853H8.60467C8.44309 4.32853 8.31157 4.19701 8.31157 4.03543V2.2931C8.31157 2.13152 8.44309 2 8.60467 2H22.6723C22.8339 2 22.9654 2.13152 22.9654 2.2931V4.03418C22.9654 4.19576 22.8339 4.32728 22.6723 4.32728H22.0485V11.7726H28.6246C28.7861 11.7726 28.9177 11.9042 28.9177 12.0657V13.4273C28.9177 13.5889 28.7861 13.7204 28.6246 13.7204H27.8217V27.7065H28.9565C29.1181 27.7065 29.2496 27.8381 29.2496 27.9997V29.7044C29.2509 29.8685 29.1191 30 28.9575 30ZM9.81583 27.7078H12.0692V21.1731C12.0692 20.7773 12.2308 20.4178 12.4913 20.1573C12.7518 19.8967 13.1113 19.7352 13.5072 19.7352L15.639 19.7339H17.7696C18.1655 19.7339 18.5249 19.8955 18.7855 20.156C19.046 20.4165 19.2076 20.776 19.2076 21.1719V27.7066H21.461V12.0658L21.4622 4.32864H9.8159L9.81583 27.7078ZM12.6554 27.7078H15.3447L15.3459 20.3202H13.5084C13.2742 20.3202 13.0612 20.4166 12.9072 20.5707C12.7531 20.7247 12.6567 20.9389 12.6567 21.1719L12.6554 27.7078ZM15.9322 27.7078H18.6215L18.6227 21.1731C18.6227 20.9389 18.5263 20.726 18.3722 20.5719C18.2182 20.4178 18.0052 20.3214 17.771 20.3214H15.9335L15.9322 27.7078ZM8.89891 3.74244H22.3803L22.3791 2.58631H8.89894L8.89891 3.74244ZM4.04254 27.7078H9.22951L9.22826 10.4686H4.04257L4.04254 27.7078ZM22.0494 27.7078H27.2364L27.2351 13.7217H22.0495L22.0494 27.7078ZM2.94534 9.88241H9.22832V9.10706H2.94534V9.88241Z" fill="white"/>
</svg>
