<svg width="32" height="32" viewBox="0 0 32 32" fill="none" xmlns="http://www.w3.org/2000/svg">
<path fill-rule="evenodd" clip-rule="evenodd" d="M21.3325 18.3868C22.4564 17.3726 23.884 16.8138 25.4021 16.8138C28.7675 16.8138 31.5064 19.5527 31.5 22.9182V23.5384C31.5 24.0939 31.0478 24.5461 30.4923 24.5461H23.5901C23.4189 25.2663 22.773 25.8057 22.001 25.8057H18.5451L18.9198 27.7501C18.9779 28.0407 18.8616 28.3314 18.6226 28.5058C18.4902 28.6027 18.3352 28.6512 18.1801 28.6512C18.0542 28.6512 17.9282 28.6189 17.8119 28.5543L15.9935 27.5498L14.1751 28.5543C13.9135 28.6996 13.6035 28.6803 13.3644 28.5058C13.1254 28.3314 13.0124 28.0407 13.0673 27.7501L13.442 25.8057H10.0377C9.26578 25.8057 8.61981 25.2663 8.44863 24.5461H1.50771C0.952177 24.5461 0.5 24.0939 0.5 23.5384V22.9182C0.5 19.5527 3.2389 16.8138 6.61085 16.8138C8.13857 16.8138 9.57262 17.3791 10.6998 18.4029C12.0757 17.0561 13.9555 16.226 16.0258 16.226C18.0865 16.226 19.9598 17.0528 21.3325 18.3868ZM1.50771 23.7903H8.40018C8.41633 21.9525 9.08168 20.2698 10.1798 18.9584C9.19472 18.0638 7.93832 17.5696 6.60439 17.5696C3.65555 17.5696 1.25578 19.9694 1.25578 22.9182V23.5384C1.25578 23.6772 1.36883 23.7903 1.50771 23.7903ZM18.1834 27.8954L17.7893 25.8541C17.7376 25.5925 17.8216 25.3374 18.0122 25.163L19.5302 23.7418L17.4696 23.4834C17.208 23.4511 16.9916 23.2929 16.8785 23.0539L15.9968 21.1709V21.1677L15.1182 23.0506C15.0052 23.2897 14.7888 23.4479 14.5272 23.4802L12.4665 23.7386L13.9846 25.1597C14.1784 25.3406 14.2623 25.5925 14.2107 25.8541L13.8166 27.8954L15.635 26.8909C15.8676 26.7617 16.1324 26.7617 16.365 26.8909L18.1834 27.8954ZM22.0075 25.0499C22.492 25.0499 22.8892 24.6559 22.8892 24.1682H22.8957V23.8484C22.8957 20.063 19.8144 16.9818 16.0291 16.9818C12.2437 16.9818 9.16243 20.063 9.16243 23.8484V24.1682C9.16243 24.6526 9.55647 25.0499 10.0442 25.0499H12.7637L11.9498 24.2877C11.7334 24.0874 11.6559 23.7838 11.7463 23.5028C11.84 23.2218 12.079 23.0216 12.3729 22.986L14.4335 22.7277L15.3153 20.8447C15.4412 20.5766 15.7028 20.4086 16 20.4086C16.2971 20.4086 16.5588 20.5766 16.6847 20.8447L17.5665 22.7277L19.6271 22.986C19.921 23.0216 20.1633 23.2218 20.2537 23.5028C20.3441 23.7838 20.2666 24.0842 20.0502 24.2877L19.2363 25.0499H22.0075ZM30.4987 23.7903C30.6376 23.7903 30.7507 23.6772 30.7507 23.5384V22.9182C30.7507 19.9694 28.3509 17.5696 25.4021 17.5696C24.0778 17.5696 22.8311 18.0573 21.846 18.9391C22.9571 20.2504 23.6321 21.9428 23.645 23.7903H30.4987ZM15.6189 3.72652V5.71287C15.6189 5.92281 15.7868 6.09077 15.9968 6.09077C16.2067 6.09077 16.3747 5.92281 16.3747 5.71287V3.72652C16.3747 3.51658 16.2067 3.34863 15.9968 3.34863C15.7868 3.34863 15.6189 3.51658 15.6189 3.72652ZM10.1798 5.77747C10.0313 5.92604 10.0313 6.16505 10.1798 6.31362L11.5848 7.7186C11.6591 7.79289 11.756 7.82842 11.8529 7.82842C11.9498 7.82842 12.0467 7.79289 12.121 7.7186C12.2695 7.57003 12.2695 7.33102 12.121 7.18245L10.716 5.77747C10.5674 5.6289 10.3284 5.6289 10.1798 5.77747ZM19.8919 7.14692C19.7434 7.2955 19.7434 7.5345 19.8919 7.68308C19.963 7.75736 20.0599 7.79289 20.16 7.79289C20.2569 7.79289 20.3538 7.75736 20.4281 7.68308L21.8331 6.2781C21.9817 6.12952 21.9817 5.89052 21.8331 5.74194C21.6845 5.59337 21.4455 5.59337 21.2969 5.74194L19.8919 7.14692Z" fill="#005EB1"/>
<path fill-rule="evenodd" clip-rule="evenodd" d="M25.4021 16.2841C27.0913 16.2841 28.4639 14.9115 28.4639 13.2222C28.4639 11.533 27.0913 10.1604 25.4021 10.1604C23.7128 10.1604 22.3402 11.533 22.3402 13.2222C22.3402 14.9115 23.7128 16.2841 25.4021 16.2841ZM27.7082 13.2255C27.7082 11.9529 26.6746 10.9194 25.4021 10.9194C24.1295 10.9194 23.0959 11.9529 23.0959 13.2255C23.0959 14.498 24.1295 15.5316 25.4021 15.5316C26.6746 15.5316 27.7082 14.498 27.7082 13.2255Z" fill="#7BC143"/>
<path fill-rule="evenodd" clip-rule="evenodd" d="M16.0226 15.3572C18.1026 15.3572 19.7951 13.6647 19.7951 11.5847C19.7951 9.50471 18.1026 7.81227 16.0226 7.81227C13.9426 7.81227 12.2502 9.50794 12.2502 11.588C12.2502 13.668 13.9426 15.3572 16.0226 15.3572ZM19.0393 11.588C19.0393 9.92458 17.686 8.57128 16.0226 8.57128C14.3592 8.57128 13.0059 9.92458 13.0059 11.588C13.0059 13.2513 14.3592 14.6046 16.0226 14.6046C17.686 14.6046 19.0393 13.2513 19.0393 11.588Z" fill="#7BC143"/>
<path fill-rule="evenodd" clip-rule="evenodd" d="M6.60439 16.2841C8.2936 16.2841 9.66628 14.9115 9.66628 13.2222C9.66628 11.533 8.2936 10.1604 6.60439 10.1604C4.91519 10.1604 3.54251 11.533 3.54251 13.2222C3.54574 14.9115 4.91842 16.2841 6.60439 16.2841ZM8.9105 13.2255C8.9105 11.9529 7.87695 10.9194 6.60439 10.9194C5.33507 10.9194 4.30152 11.9529 4.29829 13.2255C4.29829 14.498 5.33184 15.5316 6.60439 15.5316C7.87695 15.5316 8.9105 14.498 8.9105 13.2255Z" fill="#7BC143"/>
</svg>
