<svg width="34" height="32" viewBox="0 0 34 32" fill="none" xmlns="http://www.w3.org/2000/svg">
<path d="M7.90525 20.3102C7.87998 20.31 7.85481 20.3069 7.83024 20.301C7.74159 20.2801 7.65443 20.2533 7.56934 20.2207C6.47421 19.8027 6.3118 18.7546 6.63662 17.9017C6.75484 17.56 6.97246 17.2616 7.26148 17.0449C7.29528 17.0146 7.33502 16.9918 7.37814 16.9777C7.42127 16.9637 7.46684 16.9589 7.51194 16.9635C7.55705 16.9681 7.6007 16.9821 7.6401 17.0045C7.67951 17.027 7.71381 17.0574 7.74081 17.0939C7.76781 17.1303 7.78692 17.1721 7.79691 17.2163C7.80691 17.2606 7.80757 17.3065 7.79887 17.351C7.79016 17.3956 7.77227 17.4378 7.74633 17.4751C7.7204 17.5123 7.687 17.5437 7.64826 17.5673C7.46043 17.7112 7.32039 17.9086 7.24648 18.1335C7.14799 18.3947 6.89687 19.264 7.80219 19.6094C7.86028 19.6318 7.91976 19.6504 7.98026 19.6649C8.05833 19.6831 8.12698 19.7295 8.1731 19.7951C8.21923 19.8607 8.23959 19.9411 8.23032 20.0208C8.22104 20.1005 8.18277 20.174 8.12281 20.2273C8.06285 20.2805 7.9854 20.3098 7.90525 20.3095V20.3102Z" fill="#005CAB"/>
<path d="M12.6078 8.86078C11.6619 8.85392 10.7249 8.67696 9.84158 8.33833C9.80041 8.3241 9.76249 8.30177 9.73008 8.27263C9.69767 8.2435 9.67142 8.20816 9.65287 8.1687C9.63433 8.12925 9.62386 8.08647 9.62209 8.0429C9.62033 7.99932 9.6273 7.95584 9.64259 7.915C9.65788 7.87417 9.68119 7.83682 9.71114 7.80515C9.74108 7.77349 9.77706 7.74815 9.81695 7.73063C9.85684 7.71311 9.89982 7.70377 9.94337 7.70316C9.98692 7.70254 10.0302 7.71067 10.0705 7.72706C12.0416 8.46698 13.4994 8.13131 13.5144 8.12804C13.5986 8.10795 13.6872 8.12216 13.7609 8.16753C13.8346 8.21291 13.8873 8.28574 13.9074 8.37C13.9275 8.45426 13.9133 8.54306 13.8679 8.61685C13.8226 8.69064 13.7499 8.74338 13.6657 8.76347C13.3176 8.83376 12.9629 8.86638 12.6078 8.86078Z" fill="#005CAB"/>
<path d="M25.2432 21.8776C24.9073 21.881 24.5805 21.7684 24.3177 21.5589L21.4178 19.2248C21.3842 19.198 21.3561 19.1648 21.3354 19.1272C21.3146 19.0895 21.3015 19.0481 21.2967 19.0053C21.292 18.9625 21.2957 18.9193 21.3078 18.8779C21.3198 18.8366 21.3399 18.7981 21.3668 18.7646C21.3938 18.7311 21.4271 18.7032 21.4648 18.6826C21.5025 18.662 21.544 18.6491 21.5867 18.6446C21.6294 18.6401 21.6727 18.6441 21.7138 18.6563C21.755 18.6686 21.7934 18.6889 21.8267 18.7161L24.7266 21.0495C25.1245 21.3701 25.7605 21.2454 26.144 20.7647C26.331 20.5393 26.4304 20.2538 26.4238 19.9608C26.4229 19.8385 26.3954 19.7178 26.3432 19.6072C26.2911 19.4966 26.2155 19.3986 26.1218 19.3202L16.8227 11.7753C16.7882 11.7488 16.7593 11.7156 16.7378 11.6777C16.7164 11.6398 16.7027 11.598 16.6976 11.5547C16.6925 11.5115 16.6961 11.4676 16.7082 11.4257C16.7202 11.3839 16.7406 11.3449 16.768 11.311C16.7953 11.2772 16.8292 11.2491 16.8676 11.2286C16.906 11.208 16.948 11.1953 16.9914 11.1913C17.0347 11.1873 17.0784 11.192 17.1199 11.2052C17.1614 11.2183 17.1998 11.2397 17.2329 11.2679L26.5314 18.814C26.6983 18.9507 26.8334 19.1221 26.9275 19.3163C27.0215 19.5105 27.0722 19.7228 27.0761 19.9386C27.088 20.3885 26.938 20.8278 26.6534 21.1762C26.4852 21.3906 26.2713 21.5649 26.0274 21.6862C25.7834 21.8075 25.5156 21.8729 25.2432 21.8776Z" fill="#005CAB"/>
<path d="M22.7586 23.6017C22.4227 23.6047 22.0959 23.492 21.8331 23.2823L17.8002 20.0053C17.7361 19.9498 17.696 19.8715 17.6885 19.7869C17.6811 19.7024 17.7068 19.6182 17.7602 19.5523C17.8136 19.4864 17.8906 19.4439 17.9748 19.4339C18.059 19.4238 18.1437 19.447 18.2111 19.4985L22.2427 22.7742C22.6399 23.0942 23.2765 22.9662 23.66 22.4882C23.8467 22.2628 23.946 21.9776 23.9399 21.6849C23.9389 21.5626 23.9113 21.4419 23.859 21.3312C23.8068 21.2206 23.7311 21.1227 23.6372 21.0443L19.5998 17.7633C19.5651 17.7368 19.536 17.7036 19.5144 17.6656C19.4927 17.6277 19.4789 17.5857 19.4737 17.5423C19.4685 17.4989 19.4721 17.4549 19.4843 17.4129C19.4964 17.3709 19.5168 17.3318 19.5444 17.2978C19.5719 17.2639 19.6059 17.2358 19.6445 17.2153C19.683 17.1948 19.7253 17.1822 19.7688 17.1784C19.8123 17.1745 19.8561 17.1795 19.8977 17.1929C19.9392 17.2063 19.9777 17.2279 20.0107 17.2565L24.0442 20.5362C24.2112 20.6727 24.3464 20.8441 24.4405 21.0383C24.5346 21.2325 24.5852 21.4449 24.5889 21.6608C24.6008 22.1106 24.4506 22.5497 24.1655 22.8977C23.9979 23.1122 23.7847 23.2866 23.5413 23.4084C23.298 23.5302 23.0306 23.5962 22.7586 23.6017Z" fill="#005CAB"/>
<path d="M20.4095 25.3577C20.0732 25.3608 19.7459 25.2481 19.4827 25.0384L16.0023 22.2485C15.9688 22.2217 15.941 22.1886 15.9203 22.151C15.8997 22.1134 15.8866 22.0721 15.8819 22.0295C15.8723 21.9434 15.8973 21.857 15.9514 21.7894C16.0055 21.7218 16.0841 21.6784 16.1701 21.6688C16.2561 21.6593 16.3424 21.6843 16.4099 21.7385L19.8903 24.529C20.2902 24.8503 20.9268 24.7249 21.3103 24.2456C21.641 23.8341 21.6847 23.281 21.4147 22.9309C21.3776 22.8825 21.3349 22.8387 21.2875 22.8003L17.8025 20.0072C17.7349 19.9531 17.6916 19.8743 17.6821 19.7882C17.6725 19.7021 17.6976 19.6157 17.7516 19.5481C17.8057 19.4804 17.8844 19.4371 17.9703 19.4275C18.0563 19.418 18.1426 19.443 18.2101 19.4971L21.6964 22.2916C21.7836 22.362 21.8624 22.4422 21.9312 22.5306C22.3826 23.1184 22.3356 24.0091 21.8191 24.6531C21.6513 24.8681 21.4377 25.043 21.1938 25.1649C20.95 25.2868 20.682 25.3527 20.4095 25.3577Z" fill="#005CAB"/>
<path d="M9.1476 19.1909C9.07926 19.1909 9.01265 19.1694 8.95718 19.1294C8.9017 19.0895 8.86017 19.0331 8.83844 18.9682C8.52144 18.0245 7.44784 17.5086 7.43675 17.5021L7.42762 17.4969L7.28869 17.4257C6.94495 17.2487 6.62013 17.0815 6.31618 16.9986C6.2336 16.9751 6.16358 16.92 6.12133 16.8451C6.07908 16.7703 6.068 16.6818 6.0905 16.5989C6.11299 16.5159 6.16724 16.4452 6.24148 16.4021C6.31573 16.3589 6.40397 16.3468 6.48707 16.3684C6.8569 16.4689 7.21172 16.6518 7.58742 16.8451L7.71787 16.9104C7.82679 16.9626 9.06085 17.5785 9.45416 18.7553C9.48166 18.8374 9.47546 18.9271 9.43693 19.0046C9.3984 19.0821 9.33069 19.1411 9.2487 19.1687C9.21643 19.1815 9.18228 19.189 9.1476 19.1909Z" fill="#005CAB"/>
<path d="M17.0139 26.3183C16.6744 26.3164 16.3456 26.1992 16.0812 25.9859C15.9031 25.8422 15.714 25.6953 15.4942 25.5249C15.2744 25.3544 15.0239 25.1598 14.7415 24.9371C14.7071 24.9107 14.6783 24.8777 14.6568 24.84C14.6353 24.8024 14.6215 24.7608 14.6162 24.7177C14.6109 24.6746 14.6143 24.6309 14.6261 24.5892C14.6378 24.5474 14.6578 24.5084 14.6848 24.4745C14.7118 24.4406 14.7453 24.4124 14.7833 24.3915C14.8214 24.3707 14.8631 24.3577 14.9062 24.3532C14.9494 24.3487 14.9929 24.3529 15.0344 24.3654C15.0759 24.378 15.1144 24.3987 15.1478 24.4264C15.427 24.6484 15.6748 24.8418 15.894 25.0142C16.1132 25.1866 16.3062 25.3348 16.4889 25.4811C16.6845 25.6411 17.2213 25.9304 17.9082 25.1846C18.2623 24.7379 18.2747 24.1312 17.9362 23.7988C17.9183 23.7809 17.8994 23.7641 17.8795 23.7485L16.0016 22.2511C15.9358 22.1965 15.894 22.1183 15.8852 22.0332C15.8763 21.9481 15.9012 21.863 15.9545 21.796C16.0077 21.7291 16.0851 21.6858 16.1699 21.6754C16.2547 21.665 16.3402 21.6883 16.408 21.7404L18.2871 23.2385C18.3254 23.2691 18.362 23.3018 18.3967 23.3364C18.9798 23.9079 18.9876 24.8836 18.4104 25.6019L18.3967 25.6176C17.9284 26.1302 17.4431 26.3183 17.0139 26.3183Z" fill="#005CAB"/>
<path d="M22.3242 15.151C21.9475 15.1487 21.5734 15.0879 21.2154 14.9707C20.5977 14.7666 20.0267 14.4418 19.5352 14.0153L16.315 11.3691L14.3804 11.9412C14.0236 12.7856 13.2553 13.9611 11.746 13.9611C11.5611 13.9599 11.3768 13.9428 11.1948 13.9102C10.8087 13.8449 10.6202 13.6378 10.5302 13.4772C10.3006 13.0664 10.4884 12.5668 10.5106 12.5113C10.5146 12.5011 10.5192 12.491 10.5243 12.4813C10.9881 11.5924 12.0167 9.22837 12.0245 9.20486C12.0323 9.18135 12.0382 9.17677 12.046 9.16306C12.0643 9.13433 12.4954 8.44469 13.2409 8.21155C13.8704 8.01563 16.6326 7.0922 16.66 7.08241C17.2481 6.90596 17.8748 6.90596 18.4629 7.08241C19.7171 7.48077 21.5284 8.1789 21.5487 8.18543L21.5663 8.19327C21.5787 8.19849 22.8708 8.76665 24.0135 8.13906C24.0511 8.11751 24.0926 8.10366 24.1355 8.09832C24.1785 8.09299 24.2221 8.09628 24.2638 8.108C24.3055 8.11972 24.3444 8.13964 24.3784 8.16659C24.4123 8.19353 24.4405 8.22698 24.4614 8.26496C24.4823 8.30295 24.4954 8.34472 24.5 8.38783C24.5045 8.43094 24.5005 8.47454 24.4881 8.51607C24.4756 8.55761 24.4551 8.59625 24.4276 8.62974C24.4001 8.66323 24.3662 8.6909 24.3279 8.71114C22.9406 9.47522 21.458 8.85808 21.3067 8.79212C21.1762 8.74249 19.4601 8.0842 18.2659 7.70478C17.5549 7.47882 16.8753 7.70478 16.8681 7.70478C16.8388 7.71457 14.0713 8.63735 13.4373 8.83784C12.9807 8.98282 12.6709 9.40665 12.6115 9.49416C12.4928 9.76584 11.5679 11.8883 11.1113 12.7686C11.0794 12.8587 11.0396 13.0566 11.0996 13.1604C11.1107 13.18 11.1446 13.2401 11.3044 13.2676C12.4661 13.468 13.3159 12.8914 13.8312 11.5546C13.8492 11.5078 13.8776 11.4658 13.9144 11.4319C13.9512 11.3979 13.9952 11.3728 14.0432 11.3587L16.2935 10.6932C16.3445 10.678 16.3984 10.6755 16.4506 10.686C16.5028 10.6964 16.5516 10.7196 16.5929 10.7533L19.9519 13.5138L19.9669 13.5268C20.0615 13.6143 22.3183 15.6538 24.3781 13.5379C24.4387 13.4759 24.5213 13.4405 24.6079 13.4395C24.6945 13.4386 24.778 13.4721 24.8399 13.5327C24.9018 13.5933 24.9372 13.6761 24.9382 13.7628C24.9391 13.8495 24.9057 13.9331 24.8451 13.9951C23.9894 14.8754 23.0991 15.151 22.3242 15.151Z" fill="#005CAB"/>
<path d="M25.61 18.8036C25.5235 18.8064 25.4394 18.7748 25.3763 18.7156C25.3131 18.6563 25.276 18.5744 25.2731 18.4878C25.2703 18.4012 25.3019 18.317 25.361 18.2538C25.4202 18.1905 25.502 18.1534 25.5885 18.1505C25.6348 18.1459 26.5193 18.0473 27.135 16.5903C27.1505 16.5493 27.1742 16.5117 27.2046 16.48C27.235 16.4483 27.2714 16.423 27.3118 16.4058C27.3522 16.3885 27.3956 16.3796 27.4395 16.3795C27.4834 16.3795 27.5268 16.3883 27.5672 16.4054C27.6076 16.4226 27.6442 16.4477 27.6746 16.4793C27.7051 16.511 27.7289 16.5484 27.7446 16.5895C27.7602 16.6305 27.7675 16.6743 27.7658 16.7182C27.7642 16.7621 27.7537 16.8053 27.735 16.845C26.9478 18.7089 25.6818 18.799 25.6283 18.8042L25.61 18.8036Z" fill="#005CAB"/>
<path d="M13.8342 25.572C13.6109 25.5698 13.3898 25.5266 13.182 25.4446C12.0875 25.0266 11.9251 23.9785 12.2499 23.1256C12.4048 22.7003 12.7052 22.3437 13.0978 22.1192C13.3076 22.0082 13.5387 21.9431 13.7755 21.9285C14.0124 21.9138 14.2497 21.9499 14.4715 22.0342C14.6934 22.1186 14.8948 22.2493 15.0622 22.4176C15.2297 22.586 15.3594 22.7882 15.4427 23.0106C15.5944 23.4404 15.5867 23.9105 15.4212 24.3351C15.1648 25.0123 14.6006 25.572 13.8342 25.572ZM13.8655 22.5737C13.7073 22.5736 13.5517 22.6141 13.4135 22.6913C13.1566 22.8414 12.961 23.0776 12.8611 23.3581C12.7626 23.6193 12.5115 24.4892 13.4161 24.834C14.3208 25.1788 14.7135 24.3612 14.812 24.1026C14.9207 23.8246 14.9272 23.517 14.8302 23.2346C14.7827 23.0997 14.7058 22.977 14.6052 22.8754C14.5046 22.7737 14.3828 22.6957 14.2484 22.6469C14.1273 22.5998 13.9987 22.5751 13.8688 22.5737H13.8655Z" fill="#005CAB"/>
<path d="M11.4501 24.2286C11.2267 24.2264 11.0057 24.1832 10.7979 24.1012C9.70273 23.6839 9.54032 22.6357 9.86514 21.7822C10.0201 21.357 10.3205 21.0004 10.7131 20.7758C10.923 20.6642 11.1544 20.5988 11.3917 20.5839C11.6289 20.5689 11.8667 20.6049 12.0889 20.6894C12.3112 20.7738 12.5129 20.9048 12.6806 21.0735C12.8482 21.2423 12.978 21.4449 13.0612 21.6679C13.2129 22.0975 13.2052 22.5673 13.0396 22.9917C12.7807 23.6663 12.2158 24.2286 11.4501 24.2286ZM11.4808 21.2304C10.9987 21.2304 10.6328 21.598 10.4769 22.014C10.3785 22.2753 10.1267 23.1451 11.032 23.4906C11.9373 23.8361 12.3293 23.0178 12.4278 22.7585C12.5366 22.4806 12.5431 22.1729 12.4461 21.8906C12.3986 21.7556 12.3218 21.6329 12.2211 21.5313C12.1205 21.4296 11.9987 21.3516 11.8643 21.3028C11.742 21.2553 11.612 21.2307 11.4808 21.2304Z" fill="#005CAB"/>
<path d="M9.31363 22.1891C9.09026 22.187 8.86917 22.1438 8.66138 22.0617C7.56625 21.6438 7.40384 20.5962 7.72866 19.7427C7.88381 19.3175 8.18417 18.9611 8.57659 18.7363C8.78641 18.6252 9.01749 18.5601 9.25442 18.5454C9.49134 18.5308 9.72867 18.5668 9.95057 18.6513C10.1725 18.7357 10.3738 18.8665 10.5413 19.035C10.7087 19.2035 10.8383 19.4058 10.9214 19.6284C11.0735 20.0579 11.0659 20.5279 10.8999 20.9522C10.6449 21.6268 10.08 22.1891 9.31363 22.1891ZM9.34494 19.1909C8.86293 19.1909 8.49701 19.5585 8.34047 19.9745C8.24198 20.2358 7.99087 21.1056 8.89619 21.4511C9.80152 21.7966 10.1935 20.9783 10.292 20.719C10.4001 20.4409 10.4066 20.1335 10.3103 19.8511C10.2626 19.7162 10.1858 19.5935 10.0852 19.4919C9.98458 19.3903 9.86276 19.3122 9.72846 19.2633C9.60616 19.2158 9.47615 19.1912 9.34494 19.1909Z" fill="#005CAB"/>
<path d="M19.6097 6.59585C19.5535 6.59579 19.4982 6.58117 19.4493 6.5534C17.653 5.53724 15.7699 6.38295 15.7517 6.3921C15.7127 6.41002 15.6707 6.42009 15.6279 6.42174C15.585 6.42338 15.5423 6.41656 15.5021 6.40167C15.4619 6.38679 15.4251 6.36412 15.3936 6.33497C15.3622 6.30582 15.3368 6.27075 15.3189 6.23177C15.301 6.19279 15.2909 6.15066 15.2893 6.10779C15.2877 6.06492 15.2945 6.02215 15.3093 5.98191C15.3242 5.94168 15.3468 5.90477 15.376 5.87329C15.4051 5.84181 15.4401 5.81639 15.479 5.79846C15.5677 5.75732 17.6869 4.80646 19.7702 5.98524C19.8328 6.02078 19.8819 6.07606 19.9099 6.14248C19.9379 6.20889 19.9431 6.2827 19.9248 6.3524C19.9065 6.42211 19.8656 6.48378 19.8086 6.52782C19.7517 6.57186 19.6817 6.59578 19.6097 6.59585Z" fill="#7BC143"/>
<path d="M6.60821 17.1043C6.56853 17.1042 6.52918 17.0969 6.49211 17.0827L4.9078 16.476C4.83539 16.4397 4.77908 16.3777 4.74981 16.3021C4.72055 16.2265 4.72044 16.1427 4.74949 16.067C4.77854 15.9913 4.83468 15.9291 4.90698 15.8926C4.97929 15.856 5.06258 15.8478 5.14065 15.8693L6.42037 16.3598L9.52769 8.22197L8.24797 7.73218C8.16835 7.70042 8.10441 7.63856 8.06999 7.55998C8.03557 7.48139 8.03342 7.3924 8.06402 7.31224C8.09462 7.23209 8.15551 7.16721 8.23351 7.13165C8.31151 7.09609 8.40035 7.0927 8.48083 7.12222L10.0651 7.72891C10.1052 7.74425 10.1417 7.76734 10.1728 7.79685C10.2039 7.82635 10.2289 7.86171 10.2464 7.90088C10.2638 7.94006 10.2734 7.9823 10.2745 8.02518C10.2756 8.06806 10.2683 8.11074 10.253 8.15079L6.91281 16.8946C6.88919 16.9563 6.84742 17.0094 6.79304 17.0468C6.73865 17.0842 6.67421 17.1043 6.60821 17.1043Z" fill="#7BC143"/>
<path d="M4.69345 17.182C4.65376 17.182 4.61441 17.1747 4.57734 17.1605L1.10476 15.8302C1.02479 15.7993 0.960171 15.7381 0.924895 15.6599C0.889618 15.5817 0.886516 15.4927 0.916259 15.4122L4.91978 4.92861C4.9351 4.88856 4.95816 4.85192 4.98763 4.82078C5.0171 4.78965 5.05241 4.76463 5.09153 4.74717C5.13066 4.7297 5.17285 4.72013 5.21567 4.71899C5.2585 4.71785 5.30113 4.72517 5.34113 4.74053L8.81306 6.07343C8.85313 6.08871 8.88979 6.11175 8.92096 6.14123C8.95212 6.17071 8.97717 6.20605 8.99468 6.24524C9.01219 6.28442 9.02181 6.32668 9.02299 6.36959C9.02417 6.4125 9.01689 6.45522 9.00156 6.49531L4.9987 16.9717C4.97514 17.0336 4.93332 17.0869 4.8788 17.1245C4.82427 17.162 4.75963 17.1821 4.69345 17.182ZM1.64222 15.3371L4.5056 16.4336L8.27561 6.56388L5.41223 5.46739L1.64222 15.3371Z" fill="#005CAB"/>
<path d="M27.3902 17.1043C27.3242 17.1044 27.2598 17.0843 27.2054 17.0469C27.151 17.0095 27.1092 16.9564 27.0856 16.8947L23.7454 8.15087C23.7301 8.11078 23.7228 8.06806 23.724 8.02515C23.7252 7.98224 23.7348 7.93998 23.7523 7.9008C23.7698 7.86161 23.7949 7.82627 23.826 7.79679C23.8572 7.76731 23.8939 7.74427 23.9339 7.72899L25.5176 7.1223C25.5577 7.10629 25.6007 7.09843 25.6439 7.09917C25.6871 7.09991 25.7297 7.10924 25.7693 7.12662C25.8088 7.144 25.8446 7.16907 25.8744 7.20039C25.9042 7.23172 25.9275 7.26866 25.9429 7.30907C25.9583 7.34948 25.9656 7.39256 25.9642 7.43581C25.9629 7.47905 25.953 7.52159 25.9351 7.56097C25.9172 7.60034 25.8916 7.63576 25.8599 7.66517C25.8282 7.69457 25.791 7.71738 25.7504 7.73226L24.4714 8.22206L27.5787 16.3566L28.8578 15.8694C28.8979 15.8534 28.9408 15.8455 28.984 15.8463C29.0272 15.847 29.0699 15.8563 29.1094 15.8737C29.149 15.8911 29.1847 15.9162 29.2146 15.9475C29.2444 15.9788 29.2677 16.0158 29.2831 16.0562C29.2985 16.0966 29.3058 16.1397 29.3044 16.1829C29.3031 16.2262 29.2932 16.2687 29.2753 16.3081C29.2574 16.3474 29.2318 16.3829 29.2001 16.4123C29.1684 16.4417 29.1312 16.4645 29.0906 16.4794L27.507 17.0861C27.4695 17.0994 27.4299 17.1056 27.3902 17.1043Z" fill="#7BC143"/>
<path d="M29.3044 17.182C29.2384 17.182 29.1739 17.1618 29.1195 17.1243C29.0651 17.0867 29.0234 17.0335 28.9998 16.9717L24.997 6.49204C24.9816 6.45199 24.9743 6.40931 24.9755 6.36643C24.9766 6.32355 24.9862 6.28132 25.0036 6.24214C25.021 6.20296 25.046 6.16761 25.0771 6.1381C25.1082 6.10859 25.1448 6.08551 25.1848 6.07017L28.6574 4.74053C28.6974 4.72517 28.74 4.71785 28.7829 4.71899C28.8257 4.72013 28.8679 4.7297 28.907 4.74717C28.9461 4.76463 28.9814 4.78965 29.0109 4.82078C29.0404 4.85192 29.0634 4.88856 29.0788 4.92861L33.0816 15.4122C33.1124 15.493 33.1099 15.5827 33.0747 15.6617C33.0395 15.7407 32.9744 15.8024 32.8938 15.8334L29.4212 17.1637C29.3837 17.1769 29.3441 17.1831 29.3044 17.182ZM25.7223 6.56388L29.4929 16.4336L32.3563 15.3371L28.5857 5.46739L25.7223 6.56388Z" fill="#005CAB"/>
<path d="M30.3416 14.7932C30.2741 14.7931 30.2084 14.7721 30.1533 14.733C30.0983 14.6939 30.0567 14.6388 30.0344 14.575L29.8824 14.144C29.8681 14.1036 29.862 14.0607 29.8642 14.0179C29.8665 13.9751 29.8772 13.9331 29.8957 13.8944C29.9141 13.8558 29.94 13.8211 29.9719 13.7924C30.0037 13.7638 30.0409 13.7417 30.0813 13.7274C30.1217 13.7131 30.1645 13.7069 30.2073 13.7092C30.25 13.7115 30.2919 13.7222 30.3306 13.7407C30.3692 13.7592 30.4039 13.7851 30.4325 13.817C30.4611 13.8489 30.4832 13.8861 30.4975 13.9266L30.6494 14.3576C30.6637 14.398 30.6699 14.4409 30.6676 14.4837C30.6653 14.5265 30.6546 14.5685 30.6362 14.6072C30.6177 14.6459 30.5918 14.6805 30.5599 14.7092C30.5281 14.7379 30.4909 14.76 30.4505 14.7742C30.4156 14.7869 30.3787 14.7933 30.3416 14.7932Z" fill="#005CAB"/>
<path d="M3.643 14.7932C3.60608 14.7932 3.56944 14.7868 3.53473 14.7742C3.45376 14.7447 3.38773 14.6844 3.35107 14.6063C3.3144 14.5282 3.31009 14.4388 3.33905 14.3576L3.49103 13.9266C3.50529 13.8861 3.52737 13.8489 3.556 13.817C3.58463 13.7851 3.61925 13.7592 3.6579 13.7407C3.69654 13.7222 3.73844 13.7115 3.78121 13.7092C3.82398 13.7069 3.86678 13.7131 3.90717 13.7274C3.94755 13.7417 3.98473 13.7638 4.01659 13.7924C4.04844 13.8211 4.07435 13.8558 4.09282 13.8944C4.11129 13.9331 4.12197 13.9751 4.12425 14.0179C4.12653 14.0607 4.12036 14.1036 4.1061 14.144L3.95413 14.575C3.93152 14.6394 3.88935 14.695 3.83355 14.7341C3.77775 14.7733 3.71112 14.7939 3.643 14.7932Z" fill="#005CAB"/>
<path d="M16.935 3.94906C16.8485 3.94906 16.7656 3.91466 16.7044 3.85342C16.6432 3.79219 16.6089 3.70913 16.6089 3.62253V0.326531C16.6089 0.239929 16.6432 0.156875 16.7044 0.0956386C16.7656 0.0344022 16.8485 0 16.935 0C17.0215 0 17.1045 0.0344022 17.1656 0.0956386C17.2268 0.156875 17.2611 0.239929 17.2611 0.326531V3.62253C17.2611 3.70913 17.2268 3.79219 17.1656 3.85342C17.1045 3.91466 17.0215 3.94906 16.935 3.94906Z" fill="#7BC143"/>
<path d="M16.935 32C16.8485 32 16.7656 31.9656 16.7044 31.9043C16.6432 31.8431 16.6089 31.76 16.6089 31.6734V28.3774C16.6089 28.2908 16.6432 28.2078 16.7044 28.1465C16.7656 28.0853 16.8485 28.0509 16.935 28.0509C17.0215 28.0509 17.1045 28.0853 17.1656 28.1465C17.2268 28.2078 17.2611 28.2908 17.2611 28.3774V31.6734C17.2611 31.76 17.2268 31.8431 17.1656 31.9043C17.1045 31.9656 17.0215 32 16.935 32Z" fill="#7BC143"/>
<path d="M28.0043 27.4096C27.9614 27.4096 27.9189 27.4011 27.8793 27.3846C27.8397 27.3681 27.8037 27.344 27.7734 27.3136L25.4455 24.9828C25.4144 24.9527 25.3895 24.9166 25.3724 24.8768C25.3553 24.837 25.3463 24.7941 25.346 24.7508C25.3456 24.7074 25.3538 24.6644 25.3702 24.6243C25.3866 24.5841 25.4108 24.5477 25.4415 24.517C25.4721 24.4864 25.5085 24.4621 25.5486 24.4457C25.5887 24.4293 25.6316 24.421 25.6749 24.4214C25.7182 24.4218 25.761 24.4308 25.8008 24.4479C25.8406 24.465 25.8766 24.4899 25.9067 24.5211L28.2345 26.8519C28.2802 26.8975 28.3114 26.9557 28.324 27.019C28.3367 27.0824 28.3303 27.1481 28.3056 27.2078C28.281 27.2675 28.2392 27.3185 28.1855 27.3544C28.1319 27.3904 28.0688 27.4095 28.0043 27.4096Z" fill="#7BC143"/>
<path d="M5.86585 27.4096C5.80132 27.4095 5.73824 27.3904 5.68461 27.3544C5.63097 27.3185 5.58918 27.2675 5.56453 27.2078C5.53988 27.1481 5.53347 27.0824 5.54613 27.019C5.55878 26.9557 5.58992 26.8975 5.63561 26.8519L7.96349 24.5211C7.99357 24.4899 8.02956 24.465 8.06935 24.4479C8.10914 24.4308 8.15193 24.4218 8.19524 24.4214C8.23854 24.421 8.28148 24.4293 8.32156 24.4457C8.36164 24.4621 8.39805 24.4864 8.42867 24.517C8.4593 24.5477 8.48351 24.5841 8.49991 24.6243C8.51631 24.6644 8.52456 24.7074 8.52418 24.7508C8.52381 24.7941 8.51481 24.837 8.49772 24.8768C8.48063 24.9166 8.45578 24.9527 8.42463 24.9828L6.09675 27.3136C6.06646 27.344 6.03047 27.3681 5.99085 27.3846C5.95123 27.4011 5.90875 27.4096 5.86585 27.4096Z" fill="#7BC143"/>
<path d="M12.2631 4.92541C12.1982 4.92537 12.1349 4.90596 12.0811 4.86967C12.0273 4.83337 11.9855 4.78184 11.9611 4.72166L11.2358 2.9388C11.2187 2.89891 11.2096 2.856 11.2092 2.81257C11.2089 2.76915 11.2171 2.72608 11.2336 2.6859C11.25 2.64571 11.2743 2.60921 11.305 2.57854C11.3357 2.54787 11.3722 2.52363 11.4124 2.50726C11.4526 2.49088 11.4956 2.4827 11.539 2.48317C11.5823 2.48365 11.6252 2.49279 11.665 2.51005C11.7048 2.52731 11.7407 2.55234 11.7707 2.58369C11.8008 2.61503 11.8242 2.65205 11.8398 2.69259L12.5651 4.47545C12.5853 4.52504 12.593 4.57885 12.5876 4.63213C12.5821 4.68542 12.5637 4.73655 12.5339 4.781C12.504 4.82546 12.4637 4.86189 12.4165 4.88707C12.3693 4.91225 12.3166 4.92542 12.2631 4.92541Z" fill="#7BC143"/>
<path d="M22.3352 29.6751C22.2704 29.6751 22.207 29.6556 22.1532 29.6193C22.0994 29.5831 22.0576 29.5315 22.0333 29.4713L21.2395 27.5226C21.2088 27.4428 21.2107 27.3542 21.2446 27.2757C21.2786 27.1973 21.3419 27.1353 21.4209 27.1031C21.5 27.0709 21.5885 27.0709 21.6675 27.1034C21.7465 27.1358 21.8097 27.1979 21.8434 27.2764L22.6366 29.2251C22.6528 29.2648 22.661 29.3074 22.6608 29.3502C22.6606 29.3931 22.6519 29.4356 22.6353 29.4751C22.6187 29.5146 22.5945 29.5505 22.5641 29.5807C22.5336 29.6109 22.4975 29.6347 22.4579 29.6509C22.4189 29.6668 22.3773 29.675 22.3352 29.6751Z" fill="#7BC143"/>
<path d="M3.56383 21.7854C3.48904 21.7848 3.41674 21.7585 3.35905 21.7108C3.30136 21.6631 3.26178 21.5971 3.24695 21.5237C3.23212 21.4503 3.24294 21.374 3.2776 21.3076C3.31225 21.2413 3.36863 21.1889 3.4373 21.1592L5.38361 20.3624C5.42345 20.3453 5.46631 20.3362 5.50968 20.3358C5.55305 20.3354 5.59607 20.3437 5.6362 20.3602C5.67634 20.3767 5.71279 20.401 5.74342 20.4317C5.77406 20.4624 5.79826 20.499 5.81462 20.5392C5.83097 20.5794 5.83915 20.6225 5.83867 20.6659C5.83819 20.7094 5.82907 20.7523 5.81183 20.7921C5.79459 20.832 5.76959 20.868 5.73829 20.898C5.70698 20.9281 5.67 20.9516 5.62951 20.9672L3.6832 21.7613C3.64528 21.7768 3.60478 21.785 3.56383 21.7854Z" fill="#7BC143"/>
<path d="M30.1058 21.9266C30.0625 21.9265 30.0197 21.9176 29.9799 21.9004L28.0427 21.0841C28.0032 21.0675 27.9674 21.0432 27.9373 21.0127C27.9072 20.9822 27.8833 20.9461 27.8672 20.9064C27.851 20.8666 27.8428 20.8241 27.843 20.7812C27.8433 20.7383 27.8519 20.6959 27.8686 20.6564C27.8852 20.6168 27.9094 20.581 27.9399 20.5508C27.9703 20.5206 28.0064 20.4968 28.0461 20.4806C28.0858 20.4644 28.1282 20.4562 28.1711 20.4564C28.2139 20.4567 28.2563 20.4654 28.2958 20.482L30.233 21.299C30.3025 21.3282 30.3597 21.3806 30.395 21.4474C30.4302 21.5141 30.4413 21.591 30.4263 21.665C30.4113 21.7389 30.3712 21.8054 30.3128 21.8531C30.2543 21.9008 30.1812 21.9268 30.1058 21.9266Z" fill="#7BC143"/>
<path d="M21.6714 4.8685C21.6282 4.86862 21.5854 4.85996 21.5456 4.84303C21.5059 4.82652 21.47 4.80236 21.4397 4.77191C21.4094 4.74147 21.3855 4.70534 21.3692 4.6656C21.3529 4.62587 21.3446 4.5833 21.3447 4.54035C21.3449 4.49739 21.3535 4.45489 21.3701 4.41527L22.1156 2.64221C22.1312 2.60124 22.1549 2.56383 22.1852 2.53222C22.2155 2.5006 22.2519 2.47542 22.2922 2.45819C22.3324 2.44095 22.3757 2.432 22.4195 2.43189C22.4633 2.43177 22.5067 2.44048 22.547 2.4575C22.5874 2.47452 22.6239 2.4995 22.6544 2.53095C22.6849 2.5624 22.7087 2.59968 22.7245 2.64057C22.7403 2.68145 22.7478 2.7251 22.7464 2.76892C22.7449 2.81273 22.7347 2.85582 22.7164 2.8956L21.9721 4.66866C21.9472 4.7279 21.9054 4.77847 21.8519 4.81402C21.7984 4.84957 21.7356 4.86852 21.6714 4.8685Z" fill="#7BC143"/>
<path d="M11.2607 29.6405C11.2174 29.6403 11.1747 29.6316 11.1348 29.615C11.0953 29.5984 11.0594 29.5741 11.0293 29.5436C10.9992 29.5131 10.9754 29.477 10.9592 29.4373C10.943 29.3975 10.9348 29.355 10.9351 29.3121C10.9353 29.2692 10.944 29.2268 10.9606 29.1873L11.7759 27.2477C11.7926 27.2081 11.8168 27.1723 11.8473 27.1421C11.8777 27.1119 11.9138 27.0881 11.9535 27.0719C11.9932 27.0557 12.0356 27.0475 12.0785 27.0477C12.1213 27.048 12.1637 27.0567 12.2032 27.0733C12.2427 27.0899 12.2785 27.1142 12.3086 27.1447C12.3387 27.1752 12.3626 27.2113 12.3787 27.2511C12.3949 27.2908 12.4031 27.3333 12.4029 27.3762C12.4026 27.4191 12.3939 27.4615 12.3773 27.5011L11.5614 29.4406C11.5364 29.4999 11.4946 29.5505 11.4411 29.586C11.3876 29.6216 11.3249 29.6405 11.2607 29.6405Z" fill="#7BC143"/>
</svg>
