<svg width="32" height="32" viewBox="0 0 32 32" fill="none" xmlns="http://www.w3.org/2000/svg">
<path fill-rule="evenodd" clip-rule="evenodd" d="M15.9998 19.9161C14.0259 19.9161 12.1326 19.1322 10.7369 17.7364C9.34131 16.3406 8.55729 14.4474 8.55729 12.4735C8.55729 10.4983 9.34114 8.60528 10.7369 7.20931C12.1327 5.81334 14.0259 5.02966 15.9998 5.02966C17.9737 5.02966 19.8671 5.81351 21.2627 7.20931C22.6584 8.60512 23.4424 10.4983 23.4424 12.4735C23.4424 14.4475 22.6585 16.3408 21.2627 17.7364C19.8669 19.1321 17.9737 19.9161 15.9998 19.9161ZM15.9998 19.1205C14.2367 19.1205 12.5466 18.42 11.2993 17.1726C10.0597 15.924 9.36311 14.2352 9.36311 12.4747C9.36311 10.7142 10.0597 9.02544 11.2993 7.77547C12.5469 6.52939 14.2367 5.82757 15.9998 5.82757C17.763 5.82757 19.4543 6.52806 20.7004 7.77413C21.9478 9.02044 22.6483 10.7117 22.6483 12.4747C22.6483 14.2378 21.9478 15.9279 20.7004 17.1753C19.4541 18.4213 17.7628 19.1218 15.9998 19.1205Z" fill="#7BC143"/>
<path fill-rule="evenodd" clip-rule="evenodd" d="M7.99994 20.1858L7.99712 20.1896L7.98285 20.1859L7.99994 20.1858ZM7.99712 20.1896C8.13276 20.2241 8.29272 20.2544 8.45816 20.2857C8.85473 20.3607 9.28277 20.4416 9.48282 20.6025C9.68226 20.763 9.81471 21.0775 9.96078 21.4243C10.1762 21.9356 10.4212 22.5173 10.9542 22.7796C11.4713 23.0343 12.0774 22.8802 12.6204 22.7421C13.0154 22.6417 13.377 22.5498 13.6468 22.6298C11.8542 25.2821 9.65355 27.6349 7.12627 29.5997L8.37364 24.8628C8.42833 24.6518 8.30333 24.437 8.0937 24.3797V24.3784L4.97007 23.5191C6.07956 22.5058 7.09292 21.3912 7.99712 20.1896ZM18.3694 22.6285V22.6298L18.3723 22.634C18.3691 22.6348 18.366 22.6356 18.3629 22.6365C18.3585 22.6376 18.3542 22.6388 18.35 22.64L18.3694 22.6285ZM18.3723 22.634C18.6391 22.5677 18.9945 22.6559 19.3809 22.7519C19.9271 22.8875 20.5353 23.0385 21.0426 22.7897C21.5629 22.5339 21.8096 21.9544 22.0275 21.4427C22.1766 21.0925 22.3121 20.7741 22.5126 20.6127C22.7127 20.4518 23.1407 20.3708 23.5373 20.2959C23.7086 20.2635 23.874 20.2322 24.0126 20.1961C24.9175 21.3979 25.9318 22.5137 27.0425 23.5293L27.0438 23.5306L23.9201 24.39C23.7092 24.446 23.5842 24.6621 23.6402 24.873L24.8732 29.5996C22.3523 27.6347 20.1582 25.2833 18.3723 22.634ZM17.0856 22.5205C16.7136 22.8334 16.318 23.1662 15.9997 23.1662C15.6837 23.1662 15.3495 22.8897 14.9845 22.5878C14.6216 22.2875 14.2283 21.9622 13.7927 21.8589C13.3402 21.7517 12.8199 21.8817 12.3554 21.9977C11.9231 22.1056 11.5391 22.2015 11.3031 22.0829C11.0662 21.9638 10.9095 21.5977 10.7353 21.1908C10.5495 20.7569 10.3438 20.2765 9.99976 19.9996C9.65674 19.7236 9.13721 19.6203 8.66823 19.527C8.22577 19.439 7.82829 19.36 7.66648 19.1533C7.509 18.9515 7.51747 18.5684 7.52698 18.138C7.5376 17.6575 7.54953 17.1182 7.33315 16.7067C7.12796 16.3165 6.7243 16.013 6.35549 15.7357C5.9871 15.4587 5.65347 15.2079 5.58709 14.9229C5.52241 14.6452 5.70415 14.2776 5.90764 13.866C6.122 13.4324 6.36051 12.95 6.36051 12.4724C6.36051 11.9966 6.12207 11.5163 5.90761 11.0843C5.70307 10.6723 5.52034 10.3042 5.58709 10.0258C5.65393 9.74702 5.97973 9.50586 6.34078 9.23859C6.71821 8.9592 7.13417 8.65128 7.33315 8.24202C7.53247 7.8341 7.51957 7.32177 7.5079 6.85845C7.49671 6.41374 7.48665 6.01419 7.66648 5.79547C7.84467 5.57874 8.2323 5.50736 8.663 5.42804C9.1198 5.34392 9.62504 5.25088 9.98023 4.96605C10.3341 4.68231 10.5407 4.20653 10.7272 3.77707C10.9045 3.36896 11.0636 3.00267 11.3135 2.88276C11.5619 2.76363 11.9479 2.86054 12.3794 2.9689C12.8393 3.08438 13.351 3.21286 13.8031 3.10672C14.2415 3.00314 14.6342 2.67601 14.9957 2.37493C15.3568 2.07419 15.6867 1.79944 15.9996 1.79944C16.3132 1.79944 16.647 2.07521 17.0117 2.3766C17.3756 2.67722 17.7703 3.00333 18.2066 3.10672C18.6591 3.21394 19.1794 3.084 19.6439 2.968C20.0762 2.86002 20.4602 2.76412 20.6962 2.88276C20.9294 3.00001 21.0835 3.3528 21.2569 3.74993C21.4474 4.18635 21.6613 4.67632 22.0295 4.96605C22.3922 5.25151 22.9049 5.34814 23.3621 5.43431C23.7912 5.51518 24.1714 5.58684 24.3328 5.79677C24.4903 6.00158 24.4818 6.38041 24.4723 6.80742C24.4617 7.2844 24.4497 7.8215 24.6662 8.24332C24.8736 8.6477 25.284 8.95347 25.656 9.23074C26.0196 9.50163 26.3466 9.74531 26.4122 10.0271C26.477 10.3051 26.2948 10.6732 26.0911 11.0848C25.8769 11.5176 25.6388 11.9986 25.6388 12.4737C25.6388 12.9477 25.8768 13.4286 26.0911 13.8616C26.2959 14.2754 26.479 14.6455 26.4122 14.9242C26.3454 15.203 26.0196 15.4442 25.6585 15.7114C25.2811 15.9908 24.8651 16.2987 24.6662 16.708C24.4668 17.1159 24.4797 17.6283 24.4914 18.0916C24.5026 18.5363 24.5127 18.9358 24.3328 19.1546C24.1539 19.3722 23.7621 19.4451 23.3283 19.5259C22.8721 19.6108 22.3695 19.7043 22.0191 19.984C21.6693 20.2638 21.4627 20.7382 21.2757 21.1678C21.0971 21.5778 20.9363 21.9471 20.6858 22.0673C20.4376 22.1863 20.0529 22.0896 19.6221 21.9813C19.1626 21.8658 18.6506 21.7371 18.1962 21.8433C17.9553 21.911 17.7288 22.0243 17.5296 22.1766V22.1662C17.3905 22.264 17.2401 22.3905 17.0856 22.5205ZM28.1167 23.4162C28.2313 23.5139 28.2807 23.6675 28.2456 23.8133C28.2091 23.9605 28.0932 24.0737 27.9461 24.1063L24.5098 25.0529L25.9291 30.4994C25.9747 30.6648 25.9083 30.8392 25.7663 30.933C25.6244 31.0281 25.4369 31.0216 25.3028 30.9161C22.312 28.7677 19.7263 26.1049 17.6663 23.0529C17.6123 23.0974 17.5584 23.1425 17.5045 23.1878C17.0526 23.5666 16.5952 23.95 15.9997 23.95C15.3894 23.95 14.9155 23.5474 14.4592 23.1597C14.417 23.1239 14.375 23.0882 14.333 23.0529C13.3396 24.519 12.225 25.8979 10.9998 27.1765C9.6821 28.5502 8.24203 29.8027 6.69653 30.9161C6.56242 31.0216 6.37493 31.0281 6.23301 30.933C6.09108 30.8393 6.02468 30.6648 6.07025 30.4994L7.49079 25.0529L4.05353 24.1063C3.90639 24.0737 3.79051 23.9605 3.75405 23.8133C3.7189 23.6675 3.76838 23.5139 3.88296 23.4162C5.12383 22.3446 6.24881 21.1493 7.24355 19.8459C6.68106 19.3933 6.70739 18.6639 6.73042 18.0257C6.74423 17.6431 6.75685 17.2933 6.6407 17.0556C6.52687 16.8211 6.2432 16.612 5.93166 16.3823C5.477 16.0471 4.96296 15.6681 4.83084 15.1025C4.69992 14.5454 4.97836 13.9833 5.23229 13.4707C5.41274 13.1065 5.58082 12.7672 5.58082 12.4724C5.58082 12.1782 5.41291 11.8414 5.2325 11.4795C4.97782 10.9687 4.69822 10.4079 4.83084 9.84616C4.96538 9.27627 5.47969 8.89788 5.93388 8.56371C6.2445 8.33518 6.527 8.12733 6.6407 7.89306C6.75502 7.6575 6.74318 7.3075 6.73022 6.9243C6.71143 6.36915 6.69029 5.74432 7.04696 5.29675C7.40147 4.85189 8.0144 4.73752 8.55747 4.63618C8.93793 4.56518 9.2841 4.50059 9.48311 4.33324C9.67665 4.17048 9.81042 3.85783 9.9576 3.51382C10.1778 2.99925 10.4279 2.4145 10.9531 2.15622C11.4675 1.90399 12.0672 2.05601 12.6096 2.19352C12.9912 2.29026 13.3444 2.37983 13.6198 2.31637C13.8927 2.25346 14.1735 2.02137 14.4787 1.76919C14.9187 1.40549 15.4094 1 15.9999 1C16.5944 1 17.0959 1.41599 17.5422 1.7862C17.8467 2.03872 18.1254 2.26994 18.3905 2.33331C18.6603 2.39782 19.0107 2.30854 19.3916 2.2115C19.9332 2.07349 20.5364 1.91979 21.0571 2.17055C21.5849 2.42475 21.8304 3.00833 22.0467 3.52259C22.1938 3.87232 22.3274 4.18998 22.5271 4.3502C22.7288 4.51247 23.0711 4.57496 23.4468 4.64355C23.9906 4.74282 24.6045 4.85487 24.9633 5.30072C25.322 5.74637 25.2998 6.37085 25.2801 6.92616C25.2665 7.31022 25.254 7.66119 25.3695 7.89703C25.4848 8.13122 25.7674 8.34008 26.0777 8.56937C26.5317 8.90482 27.0448 9.28398 27.1794 9.85012C27.3119 10.4076 27.0329 10.9686 26.7783 11.4803C26.5977 11.8434 26.4294 12.1818 26.4294 12.4764C26.4294 12.7704 26.597 13.1068 26.7773 13.4686C27.0321 13.9801 27.3121 14.5422 27.1794 15.1065C27.0447 15.6792 26.5297 16.0573 26.0752 16.3909C25.765 16.6186 25.4831 16.8256 25.3695 17.0596C25.2534 17.2968 25.266 17.6464 25.2798 18.029C25.3029 18.6673 25.3292 19.3973 24.7667 19.8499C25.7576 21.1506 26.8796 22.346 28.1167 23.4162Z" fill="#005CAB"/>
<path fill-rule="evenodd" clip-rule="evenodd" d="M16.3631 8.62605L17.393 10.9593L19.9164 11.2263C20.0726 11.2419 20.2054 11.3473 20.2549 11.4971C20.3044 11.6468 20.2601 11.8109 20.1429 11.9163L18.2562 13.6129L18.7862 16.0959C18.8187 16.2535 18.7549 16.4136 18.6234 16.5048C18.4919 16.5959 18.3187 16.6011 18.1833 16.5165L15.9998 15.2366L13.8032 16.5061C13.6665 16.5842 13.4985 16.5751 13.3709 16.4827C13.2433 16.3915 13.1821 16.2327 13.2134 16.079L13.7433 13.596L11.8566 11.8995C11.7355 11.7927 11.6912 11.6234 11.7446 11.4711C11.798 11.3187 11.9386 11.2146 12.1001 11.2067L14.6065 10.9437L15.6364 8.62738V8.62608C15.7015 8.48415 15.8435 8.39431 15.9997 8.39431C16.1559 8.39431 16.298 8.48412 16.3631 8.62605ZM17.0935 11.7132C16.9477 11.7002 16.8201 11.6104 16.7602 11.4763L15.9998 9.76665L15.2498 11.4528C15.1964 11.596 15.0675 11.6963 14.9165 11.7132H14.9152L13.0559 11.9059L14.4465 13.1598C14.5545 13.2522 14.6014 13.3981 14.5702 13.5361V13.5374L14.1795 15.3668L15.7967 14.4332C15.9204 14.359 16.0753 14.359 16.2003 14.4332L17.8305 15.3655L17.4399 13.5491C17.406 13.4072 17.4529 13.2562 17.5636 13.1598H17.5623L18.9529 11.9059L17.0935 11.7132Z" fill="#7BC143"/>
</svg>
