<svg width="32" height="32" viewBox="0 0 32 32" fill="none" xmlns="http://www.w3.org/2000/svg">
<path fill-rule="evenodd" clip-rule="evenodd" d="M19.671 27.3617H2.30567C2.13694 27.3617 2 27.2247 2 27.056V14.0858C2 13.9171 2.13694 13.7802 2.30567 13.7802H19.671C19.8398 13.7802 19.9767 13.9171 19.9767 14.0858C19.9767 14.2545 19.8398 14.3915 19.671 14.3915H2.61116V26.7501H19.671C19.8398 26.7501 19.9767 26.887 19.9767 27.0557C19.9767 27.2245 19.8398 27.3617 19.671 27.3617Z" fill="#005CAB"/>
<path fill-rule="evenodd" clip-rule="evenodd" d="M18.2037 19.0049H3.77271C3.60398 19.0049 3.46704 18.868 3.46704 18.6992V16.1744C3.46704 16.0057 3.60398 15.8688 3.77271 15.8688H18.2037C18.3724 15.8688 18.5093 16.0057 18.5093 16.1744V18.6992C18.5093 18.868 18.3724 19.0049 18.2037 19.0049ZM17.8979 18.3936H4.0782V16.4801H17.8979V18.3936Z" fill="#7BC143"/>
<path fill-rule="evenodd" clip-rule="evenodd" d="M9.17677 27.3617C9.00805 27.3617 8.87111 27.2247 8.87111 27.056V21.268H5.28003V27.056C5.28003 27.2247 5.14309 27.3617 4.97437 27.3617C4.80564 27.3617 4.6687 27.2247 4.6687 27.056V20.9622C4.6687 20.7934 4.80564 20.6565 4.97437 20.6565H9.17674C9.34546 20.6565 9.4824 20.7934 9.4824 20.9622V27.056C9.4824 27.2247 9.3455 27.3617 9.17677 27.3617Z" fill="#7BC143"/>
<path fill-rule="evenodd" clip-rule="evenodd" d="M17.0029 27.3617C16.8342 27.3617 16.6973 27.2247 16.6973 27.056V21.268H13.1062V27.056C13.1062 27.2247 12.9693 27.3617 12.8005 27.3617C12.6318 27.3617 12.4949 27.2247 12.4949 27.056V20.9622C12.4949 20.7934 12.6318 20.6565 12.8005 20.6565H17.0029C17.1716 20.6565 17.3086 20.7934 17.3086 20.9622V27.056C17.3086 27.2247 17.1717 27.3617 17.0029 27.3617Z" fill="#7BC143"/>
<path fill-rule="evenodd" clip-rule="evenodd" d="M4.29939 14.3915C4.29206 14.3915 4.28472 14.3915 4.27738 14.3903C4.10988 14.378 3.9815 14.2325 3.99373 14.0638L4.62583 4.92319C4.63684 4.76302 4.77011 4.63831 4.93028 4.63831H9.43939C9.59956 4.63831 9.73283 4.76302 9.74384 4.92319L10.3772 14.0625C10.3882 14.2313 10.2622 14.3768 10.0935 14.389C9.926 14.4 9.77928 14.2741 9.76705 14.1053L9.1545 5.24957H5.2163L4.60254 14.1053C4.59153 14.2667 4.45704 14.3902 4.29809 14.3902L4.29939 14.3915Z" fill="#005CAB"/>
<path fill-rule="evenodd" clip-rule="evenodd" d="M9.6327 8.03626H4.73828C4.56956 8.03626 4.43262 7.89932 4.43262 7.73059C4.43262 7.56187 4.56833 7.42493 4.73706 7.42493H9.63148C9.80021 7.42493 9.93715 7.56187 9.93715 7.73059C9.93715 7.89932 9.80021 8.03626 9.63148 8.03626H9.6327Z" fill="#005CAB"/>
<path fill-rule="evenodd" clip-rule="evenodd" d="M17.678 14.3915C17.5092 14.3915 17.3723 14.2546 17.3723 14.0858V5.25071H12.3276V14.0846C12.3276 14.2533 12.1907 14.3902 12.022 14.3902C11.8532 14.3902 11.7163 14.2533 11.7163 14.0846V4.94397C11.7163 4.77524 11.8532 4.63831 12.022 4.63831H17.6779C17.8467 4.63831 17.9836 4.77524 17.9836 4.94397V14.0833C17.9836 14.2521 17.8467 14.389 17.6779 14.389L17.678 14.3915Z" fill="#005CAB"/>
<path fill-rule="evenodd" clip-rule="evenodd" d="M17.6779 8.03626H12.022C11.8532 8.03626 11.7163 7.89932 11.7163 7.73059C11.7163 7.56187 11.8532 7.42493 12.022 7.42493H17.6779C17.8467 7.42493 17.9836 7.56187 17.9836 7.73059C17.9836 7.89932 17.8467 8.03626 17.6779 8.03626Z" fill="#005CAB"/>
<path fill-rule="evenodd" clip-rule="evenodd" d="M19.9766 26.7504H29.3886V10.4279L19.9766 11.8645V26.7504ZM29.6944 27.3617H19.6711C19.5024 27.3617 19.3655 27.2247 19.3655 27.056V11.6015C19.3655 11.4499 19.4755 11.3228 19.6247 11.2995L29.6492 9.76876C29.7372 9.75531 29.8265 9.78098 29.8937 9.83967C29.961 9.89714 30.0001 9.98272 30.0001 10.072V27.0561C30.0001 27.2248 29.8631 27.3617 29.6944 27.3617Z" fill="#005CAB"/>
<path fill-rule="evenodd" clip-rule="evenodd" d="M21.8129 14.8475H27.5533V13.4843H21.8129V14.8475ZM27.8588 15.4589H21.5071C21.3384 15.4589 21.2014 15.3219 21.2014 15.1532V13.1786C21.2014 13.0099 21.3384 12.8729 21.5071 12.8729H27.8588C28.0276 12.8729 28.1645 13.0099 28.1645 13.1786V15.1532C28.1645 15.3219 28.0276 15.4589 27.8588 15.4589Z" fill="#005CAB"/>
<path fill-rule="evenodd" clip-rule="evenodd" d="M21.8129 24.9139H27.5533V23.5507H21.8129V24.9139ZM27.8588 25.5253H21.5071C21.3384 25.5253 21.2014 25.3883 21.2014 25.2196V23.245C21.2014 23.0763 21.3384 22.9393 21.5071 22.9393H27.8588C28.0276 22.9393 28.1645 23.0763 28.1645 23.245V25.2196C28.1645 25.3883 28.0276 25.5253 27.8588 25.5253Z" fill="#005CAB"/>
<path fill-rule="evenodd" clip-rule="evenodd" d="M21.8129 19.8804H27.5533V18.5171H21.8129V19.8804ZM27.8588 20.4917H21.5071C21.3384 20.4917 21.2014 20.3548 21.2014 20.186V18.2114C21.2014 18.0427 21.3384 17.9058 21.5071 17.9058H27.8588C28.0276 17.9058 28.1645 18.0427 28.1645 18.2114V20.186C28.1645 20.3548 28.0276 20.4917 27.8588 20.4917Z" fill="#7BC143"/>
</svg>
