<svg width="32" height="32" viewBox="0 0 32 32" fill="none" xmlns="http://www.w3.org/2000/svg">
<path d="M16 2C8.2804 2 2 8.2804 2 16C2 23.7196 8.2804 30 16 30C16.8103 30 17.6222 29.9303 18.4133 29.7929C18.6672 29.7487 18.8371 29.5071 18.7932 29.2531C18.7492 28.9994 18.509 28.8295 18.2534 28.8732C17.5151 29.0015 16.7567 29.0667 16 29.0667C8.79492 29.0667 2.93333 23.2051 2.93333 16C2.93333 8.79492 8.79492 2.93333 16 2.93333C23.2051 2.93333 29.0667 8.79492 29.0667 16C29.0667 16.2577 29.2756 16.4667 29.5333 16.4667C29.791 16.4667 30 16.2577 30 16C30 8.2804 23.7196 2 16 2Z" fill="#005CAB"/>
<path d="M18.2324 26.0236C17.5044 26.1849 16.7534 26.2667 16 26.2667C10.339 26.2667 5.73338 21.6611 5.73338 16C5.73338 10.339 10.339 5.73338 16 5.73338C19.7603 5.73338 23.2161 7.78599 25.0189 11.0903C25.1427 11.3163 25.4257 11.4004 25.6522 11.2764C25.8784 11.1529 25.9618 10.8695 25.8383 10.6432C23.8719 7.03905 20.1021 4.80005 16 4.80005C9.82423 4.80005 4.80005 9.82446 4.80005 16C4.80005 22.1756 9.82423 27.2 16 27.2C16.8213 27.2 17.6402 27.1107 18.4343 26.9346C18.6861 26.879 18.8447 26.6297 18.7889 26.3781C18.7331 26.1266 18.4835 25.9668 18.2324 26.0236Z" fill="#005CAB"/>
<path d="M18.7796 23.4475C18.7037 23.201 18.4421 23.0633 18.1963 23.1385C17.4883 23.3564 16.7493 23.4666 16.0001 23.4666C11.883 23.4666 8.53343 20.117 8.53343 16C8.53343 11.8829 11.883 8.53331 16.0001 8.53331C16.2578 8.53331 16.4668 8.32436 16.4668 8.06664C16.4668 7.80893 16.2578 7.59998 16.0001 7.59998C11.3683 7.59998 7.6001 11.3682 7.6001 16C7.6001 20.6318 11.3683 24.4 16.0001 24.4C16.8423 24.4 17.6735 24.2758 18.4706 24.0308C18.7169 23.955 18.8552 23.6938 18.7796 23.4475Z" fill="#7BC143"/>
<path d="M23.2166 10.9508C23.0343 10.7685 22.739 10.7685 22.5567 10.9508L19.9169 13.5906C17.1875 16.32 17.1875 20.7611 19.9169 23.4902L22.5566 26.1299C22.5996 26.1729 22.6512 26.207 22.7083 26.2307C22.7654 26.2543 22.8259 26.2667 22.8867 26.2667C22.9474 26.2667 23.0079 26.2543 23.065 26.2307C23.1221 26.207 23.1737 26.1729 23.2167 26.1299L25.8564 23.4902C28.5858 20.7611 28.5858 16.32 25.8564 13.5906L23.2166 10.9508ZM25.1965 22.8303L23.3533 24.6735V23.3535L24.8666 21.8402C25.0489 21.6579 25.0489 21.3626 24.8666 21.1803C24.6843 20.998 24.389 20.998 24.2067 21.1803L23.3533 22.0337V20.7137L24.8666 19.2004C25.0489 19.0181 25.0489 18.7228 24.8666 18.5405C24.6843 18.3582 24.389 18.3582 24.2067 18.5405L23.3533 19.3939V18.0737L24.8666 16.5606C25.0489 16.3785 25.0489 16.083 24.8666 15.9007C24.6843 15.7184 24.389 15.7184 24.2067 15.9007L23.3533 16.7539V13.9206C23.3533 13.6628 23.1444 13.4539 22.8867 13.4539C22.6289 13.4539 22.42 13.6628 22.42 13.9206V16.7539L21.5666 15.9007C21.3843 15.7184 21.089 15.7184 20.9067 15.9007C20.7244 16.083 20.7244 16.3785 20.9067 16.5606L22.42 18.0737V19.3939L21.5666 18.5405C21.3843 18.3582 21.089 18.3582 20.9067 18.5405C20.7244 18.7228 20.7244 19.0181 20.9067 19.2004L22.42 20.7137V22.0337L21.5666 21.1803C21.3843 20.998 21.089 20.998 20.9067 21.1803C20.7244 21.3626 20.7244 21.6579 20.9067 21.8402L22.42 23.3535V24.6735L20.5768 22.8303C18.2116 20.4648 18.2116 16.616 20.5768 14.2505L22.8867 11.9406L25.1965 14.2505C27.5618 16.616 27.5618 20.4648 25.1965 22.8303Z" fill="#7BC143"/>
</svg>
