<svg width="32" height="32" viewBox="0 0 32 32" fill="none" xmlns="http://www.w3.org/2000/svg">
<path d="M30.9933 7.40477C30.9892 7.37273 30.9864 7.34349 30.9752 7.31563C30.9683 7.29753 30.9641 7.2836 30.9544 7.2655C30.9432 7.24461 30.9293 7.22233 30.9112 7.20143C30.9 7.18751 30.8903 7.17358 30.875 7.16244C30.8708 7.15826 30.8708 7.15548 30.868 7.1513L25.5814 2.61946C25.5535 2.59439 25.5201 2.57628 25.4853 2.56236C25.4811 2.56236 25.4783 2.56236 25.4742 2.55818C25.4352 2.54425 25.3962 2.53729 25.353 2.53311C25.346 2.53311 25.3419 2.52893 25.3391 2.52893L10.5959 2.53032C9.38004 2.53032 8.39263 3.51773 8.39263 4.73079V5.19734C5.59752 6.0037 3.54312 8.58019 3.54312 11.6359C3.54312 13.8001 4.57649 15.7178 6.17114 16.945L5.32299 18.3251L5.08344 18.1789C4.90936 18.0717 4.67679 18.126 4.56954 18.3042L1.05438 24.059C1.00424 24.1439 0.986136 24.2442 1.01121 24.3403C1.0321 24.4364 1.09338 24.5186 1.17833 24.5715L3.38853 25.9224C3.44981 25.9586 3.51387 25.9753 3.58072 25.9753C3.60857 25.9753 3.63782 25.9712 3.66567 25.9642C3.76177 25.9433 3.84393 25.882 3.89686 25.7971L7.41619 20.0423C7.52343 19.8682 7.46912 19.6398 7.29085 19.5284L7.10841 19.4184L8.01085 17.9463C8.1362 17.9895 8.26015 18.0313 8.38828 18.0717V27.2705C8.38828 28.4821 9.37568 29.471 10.5915 29.471H28.7884C30.0042 29.471 30.9958 28.4835 30.9958 27.2705L31 7.43713C31 7.42599 30.9958 7.41624 30.993 7.4051L30.9933 7.40477ZM25.7096 3.71148L29.6204 7.06228H25.7096V3.71148ZM4.2886 11.6332C4.2886 8.34643 6.96257 5.67524 10.2466 5.67524C13.5333 5.67524 16.2045 8.34921 16.2045 11.6332C16.2045 14.92 13.5306 17.5912 10.2466 17.5912C9.47639 17.5912 8.73827 17.438 8.06421 17.1706C8.06003 17.1706 8.06003 17.1664 8.05725 17.1636C8.01129 17.1357 7.96394 17.1204 7.91519 17.1135C5.78714 16.2068 4.2886 14.0926 4.2886 11.6332ZM3.46135 25.0922L1.88481 24.1298L5.01557 19.0104L6.5921 19.9728L3.46135 25.0922ZM6.47791 19.0312L5.95705 18.7136L6.78709 17.3655C6.96117 17.4686 7.13944 17.5689 7.32188 17.658L6.47791 19.0312ZM28.7931 28.7256H10.5962C9.79398 28.7256 9.13804 28.0738 9.13804 27.2674V18.2401C9.49874 18.3014 9.86921 18.3404 10.2466 18.3404C13.9442 18.3404 16.9497 15.3308 16.9497 11.6373C16.9497 7.94378 13.9401 4.93418 10.2466 4.93418C9.86921 4.93418 9.49735 4.97317 9.13804 5.03445V4.73503C9.13804 3.93284 9.78981 3.27689 10.5962 3.27689H24.9647V7.4383C24.9647 7.64442 25.1318 7.80877 25.3351 7.80877H30.2556V27.2717C30.2556 28.0725 29.5995 28.7256 28.7931 28.7256Z" fill="#005CAB"/>
<path d="M15.4733 20.4933H13.2491C13.043 20.4933 12.8787 20.6604 12.8787 20.8638V25.663C12.8787 25.8691 13.0458 26.0335 13.2491 26.0335H15.4733C15.6794 26.0335 15.8437 25.8663 15.8437 25.663V20.8666C15.8437 20.6605 15.6766 20.4933 15.4733 20.4933ZM15.0986 25.2911H13.6154V21.2384H15.0986V25.2911Z" fill="#7BC143"/>
<path d="M19.367 17.5936H17.1415C16.9353 17.5936 16.771 17.7607 16.771 17.9641V25.6616C16.771 25.8677 16.9381 26.032 17.1415 26.032H19.3656C19.5717 26.032 19.7361 25.8649 19.7361 25.6616L19.7375 17.9655C19.7402 17.7622 19.5731 17.5936 19.367 17.5936ZM18.9951 25.2911H17.5119V18.3388H18.9951V25.2911Z" fill="#7BC143"/>
<path d="M23.2667 14.8527H21.0426C20.8365 14.8527 20.6721 15.0198 20.6721 15.2231V25.6627C20.6721 25.8688 20.8392 26.0331 21.0426 26.0331H23.2667C23.4728 26.0331 23.6372 25.866 23.6372 25.6627L23.6386 15.226C23.6414 15.0199 23.4742 14.8527 23.2667 14.8527ZM22.8963 25.2908H21.413V15.5975H22.8963V25.2908Z" fill="#7BC143"/>
<path d="M27.1747 17.5936H24.9505C24.7444 17.5936 24.5801 17.7607 24.5801 17.9641V25.6616C24.5801 25.8677 24.7472 26.032 24.9505 26.032H27.1747C27.3808 26.032 27.5452 25.8649 27.5452 25.6616V17.9655C27.5493 17.7622 27.3822 17.5936 27.1747 17.5936ZM26.8042 25.2911H25.321V18.3388H26.8042V25.2911Z" fill="#7BC143"/>
<path d="M17.9369 8.57021H21.9407C22.1468 8.57021 22.3112 8.40309 22.3112 8.19974C22.3112 7.99641 22.144 7.82927 21.9407 7.82927L17.9369 7.82788C17.7308 7.82788 17.5664 7.995 17.5664 8.19835C17.5664 8.40308 17.7307 8.57021 17.9369 8.57021Z" fill="#7BC143"/>
<path d="M17.9369 10.6021H25.9545C26.1606 10.6021 26.325 10.435 26.325 10.2317C26.325 10.0256 26.1578 9.86121 25.9545 9.86121H17.9369C17.7308 9.86121 17.5664 10.0283 17.5664 10.2317C17.5664 10.435 17.7307 10.6021 17.9369 10.6021Z" fill="#7BC143"/>
<path d="M10.2462 16.3707C12.8589 16.3707 14.9841 14.2455 14.9841 11.6328C14.9841 9.02013 12.8589 6.8949 10.2462 6.8949C7.63354 6.8949 5.5083 9.02013 5.5083 11.6328C5.5083 14.2455 7.63635 16.3707 10.2462 16.3707ZM10.2462 7.64004C12.4495 7.64004 14.239 9.43381 14.239 11.6328C14.239 13.8333 12.4494 15.6256 10.2462 15.6256C8.04305 15.6256 6.25345 13.8318 6.25345 11.6328C6.25345 9.43235 8.04722 7.64004 10.2462 7.64004Z" fill="#005CAB"/>
</svg>
