<svg width="20" height="20" viewBox="0 0 20 20" fill="none" xmlns="http://www.w3.org/2000/svg">
<path d="M16.4243 9.57574C16.6586 9.81005 16.6586 10.1899 16.4243 10.4243L12.6059 14.2426C12.3716 14.477 11.9917 14.477 11.7574 14.2426C11.523 14.0083 11.523 13.6284 11.7574 13.3941L15.1515 10L11.7574 6.60589C11.523 6.37157 11.523 5.99167 11.7574 5.75736C11.9917 5.52304 12.3716 5.52304 12.6059 5.75736L16.4243 9.57574ZM4 10.6C3.66863 10.6 3.4 10.3314 3.4 10C3.4 9.66863 3.66863 9.4 4 9.4V10.6ZM16 10V10.6H4V10V9.4H16V10Z" fill="#4C4F54"/>
</svg>
