<svg width="32" height="32" viewBox="0 0 32 32" fill="none" xmlns="http://www.w3.org/2000/svg">
<path d="M0.00249777 31.4955C0.00249777 31.7737 0.228816 32 0.507034 32C0.785248 32 1.01157 31.7737 1.01157 31.4955C1.01157 29.1458 2.92015 27.2372 5.26979 27.2372C7.62379 27.2372 9.5365 29.1458 9.5365 31.4955C9.5365 31.7737 9.76282 32 10.041 32C10.3193 32 10.5456 31.7737 10.5456 31.4955C10.5456 29.2207 9.0954 27.2863 7.07006 26.5512C7.43909 26.2269 7.7173 25.806 7.86867 25.3231H13.3997C13.5496 25.8016 13.8321 26.2226 14.1983 26.5512C12.1801 27.2907 10.73 29.2252 10.73 31.4955C10.73 31.7737 10.9563 32 11.2345 32C11.5128 32 11.7391 31.7737 11.7391 31.4955C11.7391 29.1458 13.6477 27.2372 15.9973 27.2372C18.3513 27.2372 20.264 29.1458 20.264 31.4955C20.264 31.7737 20.4903 32 20.7685 32C21.0468 32 21.2731 31.7751 21.2731 31.4955C21.2731 29.2207 19.8229 27.2863 17.7976 26.5512C18.1666 26.2269 18.4448 25.806 18.5962 25.3231H24.1272C24.2771 25.8016 24.5597 26.2226 24.9258 26.5512C22.9077 27.2893 21.4575 29.2252 21.4575 31.4955C21.4575 31.7737 21.6838 32 21.9621 32C22.2403 32 22.4666 31.7737 22.4666 31.4955C22.4666 29.1458 24.3752 27.2372 26.7248 27.2372C29.0788 27.2372 30.9915 29.1458 30.9915 31.4955C30.9915 31.7737 31.2178 32 31.4961 32C31.7743 32 32.0006 31.7737 32.0006 31.4955C32.0006 29.2207 30.5504 27.2863 28.5251 26.5512C28.8941 26.2269 29.1723 25.806 29.3237 25.3231H31.4961C31.6546 25.3231 31.8017 25.251 31.8954 25.127C31.989 25.003 32.0236 24.8401 31.9818 24.6902L28.107 10.2435C28.0465 10.0215 27.8476 9.87015 27.6213 9.87015H21.247C21.051 7.81455 19.6686 6.10495 17.7975 5.42299C18.3625 4.92565 18.7157 4.20346 18.7157 3.39333V2.72303C18.7157 1.22097 17.4962 0 15.9927 0C14.4906 0 13.2697 1.21953 13.2697 2.72303V3.39333C13.2697 4.20346 13.6272 4.92565 14.1922 5.42299C12.324 6.10772 10.9459 7.81448 10.7499 9.87015H4.37271C4.14351 9.87015 3.94313 10.0244 3.88692 10.2435L0.0165505 24.6917C-0.0252531 24.8416 0.00934251 25.0045 0.103043 25.1285C0.196743 25.2525 0.348101 25.3245 0.502332 25.3245H2.6675C2.81741 25.8031 3.09996 26.224 3.46611 26.5527C1.45088 27.2908 0.00215094 29.2253 0.00215094 31.4958L0.00249777 31.4955ZM14.285 24.5142V23.8439C14.285 22.8982 15.0533 22.1299 15.999 22.1299C16.9446 22.1299 17.7129 22.8982 17.7129 23.8439V24.5142C17.7129 25.4598 16.9446 26.2281 15.999 26.2281C15.0533 26.2281 14.285 25.4598 14.285 24.5142ZM25.0127 24.5142V23.8439C25.0127 22.8982 25.781 22.1299 26.7266 22.1299C27.6723 22.1299 28.4406 22.8982 28.4406 23.8439V24.5142C28.4406 25.4598 27.6723 26.2281 26.7266 26.2281C25.781 26.2281 25.0127 25.4598 25.0127 24.5142ZM14.285 3.3932V2.7229C14.285 1.77726 15.0533 1.00894 15.999 1.00894C16.9446 1.00894 17.7129 1.77726 17.7129 2.7229V3.3932C17.7129 4.33452 16.9446 5.09852 15.999 5.09852C15.0533 5.09996 14.285 4.33452 14.285 3.3932ZM15.9975 6.10903C18.1771 6.10903 19.9819 7.75523 20.234 9.87127L11.7692 9.86983C12.0215 7.75368 13.8219 6.10906 15.9972 6.10906L15.9975 6.10903ZM4.76097 10.8791H27.237L30.8408 24.3184H29.4469V23.8441C29.4469 22.342 28.2274 21.1211 26.7239 21.1211C25.2218 21.1211 24.0008 22.3406 24.0008 23.8441V24.3184H18.7204V23.8441C18.7204 22.342 17.5009 21.1211 15.9974 21.1211C14.4953 21.1211 13.2744 22.3406 13.2744 23.8441V24.3184H7.98839V23.8441C7.98839 22.342 6.76886 21.1211 5.26536 21.1211C3.7633 21.1211 2.54234 22.3406 2.54234 23.8441V24.3184H1.16136L4.76097 10.8791ZM3.55731 24.5143V23.844C3.55731 22.8984 4.32563 22.1301 5.27127 22.1301C6.2169 22.1301 6.98522 22.8984 6.98522 23.844V24.5143C6.98522 25.46 6.2169 26.2283 5.27127 26.2283C4.32419 26.2283 3.55731 25.46 3.55731 24.5143Z" fill="#4C4F54"/>
</svg>
